<svg xmlns="http://www.w3.org/2000/svg" xmlns:xlink="http://www.w3.org/1999/xlink" xml:space="preserve" width="519.12164" height="581.20221"><g style="display:inline"><g style="display:inline"><g style="display:inline;opacity:.5"><path d="M778.16779 384.06997h497.79341M778.16779 490.89892h497.79341M778.16779 597.72787h497.79341M778.16779 704.55683h497.79341M778.16779 811.38578h497.79341" style="display:inline;fill:none;fill-opacity:1;stroke:#a4a4a4;stroke-width:.57224;stroke-linecap:round;stroke-linejoin:round;stroke-dasharray:none;stroke-opacity:1" transform="translate(-767.257936 -316.68947)"/></g><g style="display:inline;opacity:.5;stroke-width:.896677" transform="matrix(1 0 0 1.2437367 -773.257936 -385.60545)"><path d="M897.2366 323.34217v449.01387" style="fill:none;fill-opacity:1;stroke:#a4a4a4;stroke-width:.898087;stroke-linecap:round;stroke-linejoin:round;stroke-dasharray:none;stroke-opacity:1"/><path id="a" d="M1004.0076 323.34217v449.01387" style="fill:none;fill-opacity:1;stroke:#a4a4a4;stroke-width:.658301;stroke-linecap:round;stroke-linejoin:round;stroke-dasharray:none;stroke-opacity:1"/><use xlink:href="#a" id="b" x="0" y="0" transform="translate(107.64349)"/><use xlink:href="#b" transform="translate(107.64349)"/></g></g><path d="M1112.2793 325.47461v96.09766c0 6.97567 5.6161 12.59179 12.5918 12.59179H1282V325.47461ZM1125 539c-7.202 0-13 5.798-13 13v332h170V539ZM785.55469 810.67383V884H898.75v-9.82031c0-7.16303-5.76666-12.92969-12.92969-12.92969H791.75v-39.77344c0-4.64204-2.5502-8.51023-6.19531-10.80273z" style="display:inline;fill:#9e999c;fill-opacity:1;stroke:none;stroke-width:37.7953;stroke-linecap:square;stroke-linejoin:round" transform="translate(-774.21695 -314.13635)"/><path d="M1016.7258 539.69026h83.8871c11.9927-.2499 11.0714 7.21588 11.0714 7.21588v342.21508l-106.2966.6993V546.89934s-.075-7.20908 11.3381-7.20908z" style="display:inline;opacity:1;mix-blend-mode:normal;fill:#ff9a61;fill-opacity:1;stroke-width:7.55906;stroke-linecap:round;stroke-linejoin:round;stroke-dasharray:7.55906,15.1182" transform="translate(-774.21695 -314.13635)"/><g style="display:inline"><path d="M696.06846 808.50959h83.88713c11.99268-.41997 11.07138 12.12676 11.07138 12.12676 4.84581 25.23364 6.95465 51.83578 0 82.96965 0 10.25249-10.68731 10.93573-10.68731 10.93573h-86.10387c-8.19194-.39989-9.50539-9.76067-9.50539-9.76067 7.80678-23.88851 7.03673-52.35107 0-84.15612 0 0-.0749-12.11535 11.33806-12.11535z" style="opacity:1;mix-blend-mode:normal;fill:#17979f;fill-opacity:1;stroke-width:7.55906;stroke-linecap:round;stroke-linejoin:round;stroke-dasharray:7.55906,15.1181" transform="translate(-453.76889 -689.22812)"/><g style="display:inline" transform="translate(-448.3342373 -691.2110536)"><circle cx="722.94879" cy="854.53064" r="3.4077702" style="fill:#272727;fill-opacity:1;stroke:none;stroke-width:3.77953;stroke-linecap:round;stroke-linejoin:round;stroke-dasharray:none;stroke-dashoffset:0;stroke-opacity:1"/><circle cx="753.09442" cy="854.53064" r="3.4077702" style="fill:#272727;fill-opacity:1;stroke:none;stroke-width:3.77953;stroke-linecap:round;stroke-linejoin:round;stroke-dasharray:none;stroke-dashoffset:0;stroke-opacity:1"/><path d="M724.25957 873.99424h27.39322" style="fill:none;fill-opacity:1;stroke:#222;stroke-width:3.77953;stroke-linecap:round;stroke-linejoin:round;stroke-dasharray:none;stroke-dashoffset:0;stroke-opacity:1"/></g></g><g style="display:inline;stroke-width:.951816"><path d="M739.45703 715.22656c-.97611-.0543-1.96159.22826-2.75.94922-11.31505 11.251-22.57253 22.56347-33.86523 33.83789-2.66928 2.2333-1.12551 7.20107 2.42382 7.31836 8.02459.0468 16.05082.006 24.07618.0195-1.29921 3.88607-2.59729 7.77214-3.89649 11.65821-.93301 3.13285-2.31687 6.16637-2.90039 9.37695-.2119 3.44551 4.33431 5.56103 6.87305 3.26367 11.3174-11.24908 22.57359-22.56184 33.86719-33.83594 2.71998-2.22347 1.02039-7.06901-2.42579-7.28711-8.01403-.0512-16.03192-.007-24.04687-.0215 1.29303-3.88487 2.58783-7.76943 3.88086-11.6543.9294-3.14374 2.31818-6.18692 2.88672-9.41015.1275-2.33942-1.97561-4.09531-4.12305-4.21485zm-.0664 4.21485-8.4375 25.2539h29.47266l-33.69141 33.69141 8.4375-25.25391h-29.47265z" style="font-size:60px;line-height:1;font-family:&quot;Mplus 1&quot;;-inkscape-font-specification:&quot;Mplus 1, &quot;;letter-spacing:0;word-spacing:0;display:inline;fill:#222;fill-opacity:1;stroke-width:7.19484;stroke-linecap:round;stroke-linejoin:round;stroke-dasharray:7.19484,14.3897" transform="matrix(.77475977 .56764507 -.55654879 1.0169429 237.62795 -1102.24915)"/><path d="m739.39062 719.44141-33.6914 33.6914h29.47265l-8.4375 25.25391 33.69141-33.69141h-29.47266z" style="font-size:60px;line-height:1;font-family:&quot;Mplus 1&quot;;-inkscape-font-specification:&quot;Mplus 1, &quot;;letter-spacing:0;word-spacing:0;display:inline;fill:#fc0;fill-opacity:1;stroke:none;stroke-width:7.19484;stroke-linecap:round;stroke-linejoin:round;stroke-dasharray:7.19484,14.3897;stroke-dashoffset:0" transform="matrix(.77475977 .56764507 -.55654879 1.0169429 237.62795 -1102.24915)"/></g><g style="display:inline;stroke-width:6.06216;stroke-dasharray:none"><path d="m774.36448 906.46263-5.40127 28.17446M784.28291 903.71407l-4.9774 26.69159M753.83763 939.4773l-26.14881 3.33645M719.29069 953.32873l34.93687-4.81931" style="fill:none;fill-opacity:1;stroke:#fff;stroke-width:4.04144;stroke-linecap:round;stroke-linejoin:round;stroke-dasharray:none;stroke-opacity:1" transform="matrix(.87458747 0 0 1 -319.56112 -703.77978)"/></g><path d="m816.33898 348.38444-3.59069 3.58873c-1.22252 1.22271-1.22252 3.20416 0 4.42685l14.15877 14.15103-14.38219 14.37429c-1.2225 1.22269-1.2225 3.20414 0 4.42683l3.58747 3.58873c1.22372 1.22399 3.20876 1.22399 4.43249 0l14.38221-14.37752 14.38217 14.37752c1.22337 1.22183 3.2059 1.22183 4.42926 0l3.59072-3.58873c1.2225-1.22269 1.2225-3.20414 0-4.42683L842.947 370.55105l14.15876-14.15103c1.2225-1.22269 1.2225-3.20414 0-4.42685l-3.59068-3.58873c-1.22336-1.22185-3.20592-1.22185-4.42928 0l-14.15876 14.15103-14.15879-14.15103c-1.22336-1.22183-3.20591-1.22183-4.42927 0z" style="-inkscape-font-specification:&quot;Mplus 1, &quot;;display:inline;fill:#f55948;stroke:#fff;stroke-width:1;stroke-linecap:round;stroke-linejoin:round;stroke-dasharray:none;stroke-opacity:1" transform="translate(-774.21695 -314.13635)"/><path d="M785.55554 325.47495H1282v558.52502H785.55554z" style="display:inline;fill:none;fill-opacity:1;stroke:#333;stroke-width:22.6772;stroke-linecap:square;stroke-linejoin:miter;stroke-dasharray:none;stroke-dashoffset:0;stroke-opacity:1" transform="translate(-774.21695 -314.13635)"/></g></svg>