<svg xmlns="http://www.w3.org/2000/svg" xmlns:xlink="http://www.w3.org/1999/xlink" xml:space="preserve" width="1904" height="1072"><g style="display:inline;opacity:.5" transform="translate(6.959014 -2.55312)"><path id="a" d="M41.942602 169.08311H1858.8889" style="display:inline;fill:none;fill-opacity:1;stroke:#758391;stroke-width:1.00157;stroke-linecap:round;stroke-linejoin:round;stroke-dasharray:none;stroke-opacity:1"/><use xlink:href="#a" style="display:inline" transform="translate(0 108.38845)"/><use xlink:href="#a" style="display:inline" transform="translate(0 211.80602)"/><use xlink:href="#a" style="display:inline" transform="translate(0 319.80611)"/><use xlink:href="#a" style="display:inline" transform="translate(0 425.70912)"/><use xlink:href="#a" style="display:inline" transform="translate(0 532.34891)"/><use xlink:href="#a" style="display:inline" transform="translate(0 639.11526)"/><use xlink:href="#a" style="display:inline" transform="translate(0 745.88162)"/></g><g style="display:inline;opacity:.5;stroke-width:.896677" transform="matrix(1 0 0 1.2437367 .959014 -71.4691)"><path id="b" d="M897.60883 58.7185v859.8066" style="fill:none;fill-opacity:1;stroke:#758391;stroke-width:.898084;stroke-linecap:round;stroke-linejoin:round;stroke-dasharray:none;stroke-opacity:1"/><use xlink:href="#b" style="stroke-width:.896677" transform="translate(106.94548)"/><use xlink:href="#b" style="stroke-width:.896677" transform="translate(213.89096)"/><use xlink:href="#b" style="stroke-width:.896677" transform="translate(320.83645)"/><use xlink:href="#b" style="stroke-width:.896677" transform="translate(427.78193)"/><use xlink:href="#b" style="stroke-width:.896677" transform="translate(534.72742)"/><use xlink:href="#b" style="stroke-width:.896677" transform="translate(641.6729)"/><use xlink:href="#b" style="stroke-width:.896677" transform="translate(748.61839)"/><use xlink:href="#b" style="stroke-width:.896677" transform="translate(855.56387)"/><use xlink:href="#b" style="stroke-width:.896677" transform="translate(962.50936)"/><use xlink:href="#b" style="stroke-width:.896677" transform="translate(-106.94549)"/><use xlink:href="#b" style="stroke-width:.896677" transform="translate(-213.89097)"/><use xlink:href="#b" style="stroke-width:.896677" transform="translate(-320.83646)"/><use xlink:href="#b" style="stroke-width:.896677" transform="translate(-427.78194)"/><use xlink:href="#b" style="stroke-width:.896677" transform="translate(-534.72743)"/><use xlink:href="#b" style="stroke-width:.896677" transform="translate(-641.67291)"/><use xlink:href="#b" style="stroke-width:.896677" transform="translate(-748.6184)"/></g><path d="M-1.5-2.828125V1077.6309h1910.6875V-2.828125ZM685.89453 166h960.69137v638h-413.7363c-8.2265 0-14.8496 6.62313-14.8496 14.84961v93.23242H901.41406v-92.54492c0-8.22648-6.62313-14.84961-14.84961-14.84961h-79.90429c-8.22648 0-14.84766 6.62313-14.84766 14.84961v92.54492H578.41406v-92.54492c0-8.22648-6.62313-14.84961-14.84961-14.84961h-79.90429c-8.22648 0-14.84766 6.62313-14.84766 14.84961V1020.5H364.8418V486h945.3086c8.2265 0 14.8496-6.62313 14.8496-14.84961v-79.30078c0-8.22648-6.6231-14.84961-14.8496-14.84961H685.89453Z" style="fill:#758391;fill-opacity:1;stroke-width:18.898;stroke-linecap:round;stroke-linejoin:round"/><g style="display:inline"><path d="M696.06846 808.50959h83.88713c11.99268-.41997 11.07138 12.12676 11.07138 12.12676V903.606c0 10.25249-10.68731 10.93573-10.68731 10.93573h-86.10387c-8.19194-.39989-9.50539-9.76067-9.50539-9.76067v-84.15612s-.0749-12.11535 11.33806-12.11535z" style="opacity:1;mix-blend-mode:normal;fill:#ffaf17;fill-opacity:1;stroke-width:7.55906;stroke-linecap:round;stroke-linejoin:round;stroke-dasharray:7.55906,15.1181" transform="translate(641.47671 -641.6206)"/><g style="display:inline" transform="translate(641.34193987 -643.6035336)"><circle cx="722.94879" cy="854.53064" r="3.4077702" style="fill:#272727;fill-opacity:1;stroke:none;stroke-width:3.77953;stroke-linecap:round;stroke-linejoin:round;stroke-dasharray:none;stroke-dashoffset:0;stroke-opacity:1"/><circle cx="753.09442" cy="854.53064" r="3.4077702" style="fill:#272727;fill-opacity:1;stroke:none;stroke-width:3.77953;stroke-linecap:round;stroke-linejoin:round;stroke-dasharray:none;stroke-dashoffset:0;stroke-opacity:1"/><path d="M724.25957 873.99424h27.39322" style="fill:none;fill-opacity:1;stroke:#222;stroke-width:3.77953;stroke-linecap:round;stroke-linejoin:round;stroke-dasharray:none;stroke-dashoffset:0;stroke-opacity:1"/></g></g><g id="c" style="display:inline"><path d="M696.06846 808.50959h83.88713c11.99268-.41997 11.07138 12.12676 11.07138 12.12676V903.606c0 10.25249-10.68731 10.93573-10.68731 10.93573h-86.10387c-8.19194-.39989-9.50539-9.76067-9.50539-9.76067v-84.15612s-.0749-12.11535 11.33806-12.11535z" style="opacity:1;mix-blend-mode:normal;fill:#ef6840;fill-opacity:1;stroke-width:7.55906;stroke-linecap:round;stroke-linejoin:round;stroke-dasharray:7.55906,15.1181" transform="translate(107.06465 -536.53121)"/><g style="display:inline" transform="translate(106.92987987 -538.5141436)"><circle cx="722.94879" cy="854.53064" r="3.4077702" style="fill:#272727;fill-opacity:1;stroke:none;stroke-width:3.77953;stroke-linecap:round;stroke-linejoin:round;stroke-dasharray:none;stroke-dashoffset:0;stroke-opacity:1"/><circle cx="753.09442" cy="854.53064" r="3.4077702" style="fill:#272727;fill-opacity:1;stroke:none;stroke-width:3.77953;stroke-linecap:round;stroke-linejoin:round;stroke-dasharray:none;stroke-dashoffset:0;stroke-opacity:1"/><path d="M724.25957 873.99424h27.39322" style="fill:none;fill-opacity:1;stroke:#222;stroke-width:3.77953;stroke-linecap:round;stroke-linejoin:round;stroke-dasharray:none;stroke-dashoffset:0;stroke-opacity:1"/></g></g><g style="display:inline"><path d="M696.06896 808.51037c-11.41296 0-11.33789 12.11523-11.33789 12.11523v84.15625s1.31196 9.35988 9.5039 9.75977c64.12927-1.60024 127.71801 0 192.00782 0 0 0 10.6875-.68306 10.6875-10.93555v-82.96875s.92041-12.54692-11.07227-12.12695c-63.38173 1.61209-126.3185.00057-189.78906 0z" style="opacity:1;mix-blend-mode:normal;fill:#ef6840;fill-opacity:1;stroke-width:7.55906;stroke-linecap:round;stroke-linejoin:round;stroke-dasharray:7.55906,15.1181" transform="translate(535.17136 -536.05209)"/><g style="display:inline" transform="translate(587.988563 -538.0346885)"><circle cx="722.94879" cy="854.53064" r="3.4077702" style="fill:#272727;fill-opacity:1;stroke:none;stroke-width:3.77953;stroke-linecap:round;stroke-linejoin:round;stroke-dasharray:none;stroke-dashoffset:0;stroke-opacity:1"/><circle cx="753.09442" cy="854.53064" r="3.4077702" style="fill:#272727;fill-opacity:1;stroke:none;stroke-width:3.77953;stroke-linecap:round;stroke-linejoin:round;stroke-dasharray:none;stroke-dashoffset:0;stroke-opacity:1"/><path d="M724.25957 873.99424h27.39322" style="fill:none;fill-opacity:1;stroke:#222;stroke-width:3.77953;stroke-linecap:round;stroke-linejoin:round;stroke-dasharray:none;stroke-dashoffset:0;stroke-opacity:1"/></g></g><g style="display:inline"><path d="M781.04163 704.48342c-.34997-.0114-.71116-.0112-1.08594.002h-83.88671c-11.41296 0-11.3379 12.11524-11.3379 12.11524.90943 62.73971 0 188.17969 0 188.17969s1.31197 9.36182 9.50391 9.76171h86.10547s10.68555-.68305 10.68555-10.93554c-1.00839-62.37969 0-124.55813 0-186.99414 0 0 .86472-11.7748-9.98438-12.12891z" style="opacity:1;mix-blend-mode:normal;fill:#ef6840;fill-opacity:1;stroke-width:7.55906;stroke-linecap:round;stroke-linejoin:round;stroke-dasharray:7.55906,15.1181" transform="translate(320.60859 -537.58703)"/><g style="display:inline" transform="translate(320.47381987 -590.875259)"><circle cx="722.94879" cy="854.53064" r="3.4077702" style="fill:#272727;fill-opacity:1;stroke:none;stroke-width:3.77953;stroke-linecap:round;stroke-linejoin:round;stroke-dasharray:none;stroke-dashoffset:0;stroke-opacity:1"/><circle cx="753.09442" cy="854.53064" r="3.4077702" style="fill:#272727;fill-opacity:1;stroke:none;stroke-width:3.77953;stroke-linecap:round;stroke-linejoin:round;stroke-dasharray:none;stroke-dashoffset:0;stroke-opacity:1"/><path d="M724.25957 873.99424h27.39322" style="fill:none;fill-opacity:1;stroke:#222;stroke-width:3.77953;stroke-linecap:round;stroke-linejoin:round;stroke-dasharray:none;stroke-dashoffset:0;stroke-opacity:1"/></g></g><use xlink:href="#c" transform="translate(-428.29289 641.53553)"/><g style="display:inline"><path id="d" d="M383.97864 814.00167h68.55587c9.80089-.34952 9.04798 10.09247 9.04798 10.09247v69.05134c0 8.53262-8.7341 9.10125-8.7341 9.10125h-70.36748c-6.69478-.3328-7.76818-8.1233-7.76818-8.1233v-70.03879s-.0612-10.08297 9.26591-10.08297z" style="font-variation-settings:normal;display:inline;opacity:1;mix-blend-mode:normal;fill:#f0815e;fill-opacity:.677582;stroke:none;stroke-width:6.047;stroke-linecap:round;stroke-linejoin:round;stroke-miterlimit:4;stroke-dasharray:6.047,18.141;stroke-dashoffset:0;stroke-opacity:1;stop-color:#000"/><use xlink:href="#d" style="display:inline" transform="translate(.00000341 -103.17157)"/><path d="M376.13705 747.92752c-50.13864 20.84839-46.63695 112.89063 1.03183 124.37448" style="display:inline;fill:none;fill-opacity:1;stroke:#fff;stroke-width:7.55905512;stroke-linecap:round;stroke-linejoin:round;stroke-dasharray:none;stroke-opacity:1"/><g style="display:inline"><path d="M228.06955 783.05259c-4.89683-1.91449-6.39057 4.13744-8.61521 5.76172-3.70095.61575-6.29943-2.98318-10.09564-2.17579h-21.4825c-6.7552.005-7.05106 7.04556-6.7793 11.96663-.66119 4.10944 1.80898 8.13811 4.58314 10.10302-1.12526 6.55082-3.78344 12.66406-6.90305 18.45855-.19927 5.69467 5.19248 10.2629 6.47422 15.2159.30248 4.57847-1.32816 10.18601 3.38987 13.17351 3.52552 1.48025 7.34554.72449 11.04177.90857 3.67524.6347 6.90691-8.37884 9.51367-4.10746-.17868 6.66427 6.74955 7.26926 11.64241 6.94339 3.82709.6771 7.07875-1.38075 10.35754-2.375h18.02544c5.14678-4.45728 9.24336 7.55166 14.9668 1.13868 3.21885-2.94226 5.15023-7.56568 9.26197-3.05483 11.46688 5.184 24.30085 3.34155 36.51291 3.69759 8.8825.35017 8.9556-10.92666 11.45605-17.04268-.17742-4.49362-4.8684-6.9459-8.91842-6.25618.9109-3.17965.20156-6.68174.42578-9.99805 1.19219-2.05194-4.13301-5.4877-.24807-4.76367 6.58411.0281 7.10565-6.80872 6.7793-11.64242v-12.94758c-.005-6.75519-7.04556-7.05105-11.96663-6.77929h-12.04705c-.52097-6.24421-7.02556-6.36564-11.69904-6.13477-4.65047-.24482-11.10536-.0684-11.61541 6.13477h-17.03711c-3.60131 1.51845-7.5831-1.35156-11.71271-.46289-3.03615-1.34018-5.83586-4.938-10.03738-4.80664zm25.96875 37.15625c4.97038.81043.0845 8.68506-.2068 12.27284-1.41129 4.77239-1.68465-9.82992.2068-12.27284z" style="font-weight:700;font-size:65.9637px;line-height:1;font-family:&quot;Corporate Logo ver2&quot;;-inkscape-font-specification:&quot;Corporate Logo ver2 Bold&quot;;letter-spacing:0;word-spacing:0;baseline-shift:baseline;display:inline;overflow:visible;vector-effect:none;fill:#333;stroke-linecap:square;enable-background:accumulate;stop-color:#000;stop-opacity:1"/><text xml:space="preserve" x="191.97824" y="847.60272" style="font-weight:700;font-size:65.9637px;line-height:1;font-family:&quot;Corporate Logo ver2&quot;;-inkscape-font-specification:&quot;Corporate Logo ver2 Bold&quot;;text-align:start;letter-spacing:0;word-spacing:0;writing-mode:lr-tb;direction:ltr;text-anchor:start;display:inline;fill:#eee;fill-opacity:1;stroke:none;stroke-width:1.88976;stroke-linecap:square;stroke-dasharray:none;stroke-opacity:1" transform="translate(-7.0710678 -1.4142136)"><tspan x="191.97824" y="847.60272" style="fill:#eee;fill-opacity:1;stroke:none;stroke-width:1.88976;stroke-dasharray:none;stroke-opacity:1">確定</tspan></text></g></g></svg>