<svg xmlns="http://www.w3.org/2000/svg" xmlns:xlink="http://www.w3.org/1999/xlink" xml:space="preserve" width="1904" height="1072"><g style="display:inline;opacity:.5" transform="translate(6.959014 -2.55312)"><path id="a" d="M41.942602 169.08311H1858.8889" style="display:inline;fill:none;fill-opacity:1;stroke:#758391;stroke-width:1.00157;stroke-linecap:round;stroke-linejoin:round;stroke-dasharray:none;stroke-opacity:1"/><use xlink:href="#a" style="display:inline" transform="translate(0 108.38845)"/><use xlink:href="#a" style="display:inline" transform="translate(0 211.80602)"/><use xlink:href="#a" style="display:inline" transform="translate(0 319.80611)"/><use xlink:href="#a" style="display:inline" transform="translate(0 425.70912)"/><use xlink:href="#a" style="display:inline" transform="translate(0 532.34891)"/><use xlink:href="#a" style="display:inline" transform="translate(0 639.11526)"/><use xlink:href="#a" style="display:inline" transform="translate(0 745.88162)"/></g><g style="display:inline;opacity:.5;stroke-width:.896677" transform="matrix(1 0 0 1.2437367 .959014 -71.4691)"><path id="b" d="M897.60883 58.7185v859.8066" style="fill:none;fill-opacity:1;stroke:#758391;stroke-width:.898084;stroke-linecap:round;stroke-linejoin:round;stroke-dasharray:none;stroke-opacity:1"/><use xlink:href="#b" style="stroke-width:.896677" transform="translate(106.94548)"/><use xlink:href="#b" style="stroke-width:.896677" transform="translate(213.89096)"/><use xlink:href="#b" style="stroke-width:.896677" transform="translate(320.83645)"/><use xlink:href="#b" style="stroke-width:.896677" transform="translate(427.78193)"/><use xlink:href="#b" style="stroke-width:.896677" transform="translate(534.72742)"/><use xlink:href="#b" style="stroke-width:.896677" transform="translate(641.6729)"/><use xlink:href="#b" style="stroke-width:.896677" transform="translate(748.61839)"/><use xlink:href="#b" style="stroke-width:.896677" transform="translate(855.56387)"/><use xlink:href="#b" style="stroke-width:.896677" transform="translate(962.50936)"/><use xlink:href="#b" style="stroke-width:.896677" transform="translate(-106.94549)"/><use xlink:href="#b" style="stroke-width:.896677" transform="translate(-213.89097)"/><use xlink:href="#b" style="stroke-width:.896677" transform="translate(-320.83646)"/><use xlink:href="#b" style="stroke-width:.896677" transform="translate(-427.78194)"/><use xlink:href="#b" style="stroke-width:.896677" transform="translate(-534.72743)"/><use xlink:href="#b" style="stroke-width:.896677" transform="translate(-641.67291)"/><use xlink:href="#b" style="stroke-width:.896677" transform="translate(-748.6184)"/></g><path d="M-1.5-2.828125V1077.6309h1910.6875V-2.828125ZM685.89453 166h960.69137v638h-413.7363c-8.2265 0-14.8496 6.62313-14.8496 14.84961v93.23242H901.41406v-92.54492c0-8.22648-6.62313-14.84961-14.84961-14.84961h-79.90429c-8.22648 0-14.84766 6.62313-14.84766 14.84961v92.54492H578.41406v-92.54492c0-8.22648-6.62313-14.84961-14.84961-14.84961h-79.90429c-8.22648 0-14.84766 6.62313-14.84766 14.84961V1020.5H364.8418V486h945.3086c8.2265 0 14.8496-6.62313 14.8496-14.84961v-79.30078c0-8.22648-6.6231-14.84961-14.8496-14.84961H685.89453Z" style="fill:#758391;fill-opacity:1;stroke-width:18.898;stroke-linecap:round;stroke-linejoin:round"/><g style="display:inline"><path d="M696.06846 808.50959h83.88713c11.99268-.41997 11.07138 12.12676 11.07138 12.12676V903.606c0 10.25249-10.68731 10.93573-10.68731 10.93573h-86.10387c-8.19194-.39989-9.50539-9.76067-9.50539-9.76067v-84.15612s-.0749-12.11535 11.33806-12.11535z" style="opacity:1;mix-blend-mode:normal;fill:#ffaf17;fill-opacity:1;stroke-width:7.55906;stroke-linecap:round;stroke-linejoin:round;stroke-dasharray:7.55906,15.1181" transform="translate(641.47671 -641.6206)"/><g style="display:inline" transform="translate(641.34193987 -643.6035336)"><circle cx="722.94879" cy="854.53064" r="3.4077702" style="fill:#272727;fill-opacity:1;stroke:none;stroke-width:3.77953;stroke-linecap:round;stroke-linejoin:round;stroke-dasharray:none;stroke-dashoffset:0;stroke-opacity:1"/><circle cx="753.09442" cy="854.53064" r="3.4077702" style="fill:#272727;fill-opacity:1;stroke:none;stroke-width:3.77953;stroke-linecap:round;stroke-linejoin:round;stroke-dasharray:none;stroke-dashoffset:0;stroke-opacity:1"/><path d="M724.25957 873.99424h27.39322" style="fill:none;fill-opacity:1;stroke:#222;stroke-width:3.77953;stroke-linecap:round;stroke-linejoin:round;stroke-dasharray:none;stroke-dashoffset:0;stroke-opacity:1"/></g></g><g id="c" style="display:inline"><path d="M696.06846 808.50959h83.88713c11.99268-.41997 11.07138 12.12676 11.07138 12.12676V903.606c0 10.25249-10.68731 10.93573-10.68731 10.93573h-86.10387c-8.19194-.39989-9.50539-9.76067-9.50539-9.76067v-84.15612s-.0749-12.11535 11.33806-12.11535z" style="opacity:1;mix-blend-mode:normal;fill:#ef6840;fill-opacity:1;stroke-width:7.55906;stroke-linecap:round;stroke-linejoin:round;stroke-dasharray:7.55906,15.1181" transform="translate(107.06465 -536.53121)"/><g style="display:inline" transform="translate(106.92987987 -538.5141436)"><circle cx="722.94879" cy="854.53064" r="3.4077702" style="fill:#272727;fill-opacity:1;stroke:none;stroke-width:3.77953;stroke-linecap:round;stroke-linejoin:round;stroke-dasharray:none;stroke-dashoffset:0;stroke-opacity:1"/><circle cx="753.09442" cy="854.53064" r="3.4077702" style="fill:#272727;fill-opacity:1;stroke:none;stroke-width:3.77953;stroke-linecap:round;stroke-linejoin:round;stroke-dasharray:none;stroke-dashoffset:0;stroke-opacity:1"/><path d="M724.25957 873.99424h27.39322" style="fill:none;fill-opacity:1;stroke:#222;stroke-width:3.77953;stroke-linecap:round;stroke-linejoin:round;stroke-dasharray:none;stroke-dashoffset:0;stroke-opacity:1"/></g></g><g style="display:inline"><path d="M696.06896 808.51037c-11.41296 0-11.33789 12.11523-11.33789 12.11523v84.15625s1.31196 9.35988 9.5039 9.75977c64.12927-1.60024 127.71801 0 192.00782 0 0 0 10.6875-.68306 10.6875-10.93555v-82.96875s.92041-12.54692-11.07227-12.12695c-63.38173 1.61209-126.3185.00057-189.78906 0z" style="opacity:1;mix-blend-mode:normal;fill:#ef6840;fill-opacity:1;stroke-width:7.55906;stroke-linecap:round;stroke-linejoin:round;stroke-dasharray:7.55906,15.1181" transform="translate(535.17136 -536.05209)"/><g style="display:inline" transform="translate(587.988563 -538.0346885)"><circle cx="722.94879" cy="854.53064" r="3.4077702" style="fill:#272727;fill-opacity:1;stroke:none;stroke-width:3.77953;stroke-linecap:round;stroke-linejoin:round;stroke-dasharray:none;stroke-dashoffset:0;stroke-opacity:1"/><circle cx="753.09442" cy="854.53064" r="3.4077702" style="fill:#272727;fill-opacity:1;stroke:none;stroke-width:3.77953;stroke-linecap:round;stroke-linejoin:round;stroke-dasharray:none;stroke-dashoffset:0;stroke-opacity:1"/><path d="M724.25957 873.99424h27.39322" style="fill:none;fill-opacity:1;stroke:#222;stroke-width:3.77953;stroke-linecap:round;stroke-linejoin:round;stroke-dasharray:none;stroke-dashoffset:0;stroke-opacity:1"/></g></g><g style="display:inline"><path d="M781.04163 704.48342c-.34997-.0114-.71116-.0112-1.08594.002h-83.88671c-11.41296 0-11.3379 12.11524-11.3379 12.11524.90943 62.73971 0 188.17969 0 188.17969s1.31197 9.36182 9.50391 9.76171h86.10547s10.68555-.68305 10.68555-10.93554c-1.00839-62.37969 0-124.55813 0-186.99414 0 0 .86472-11.7748-9.98438-12.12891z" style="opacity:1;mix-blend-mode:normal;fill:#ef6840;fill-opacity:1;stroke-width:7.55906;stroke-linecap:round;stroke-linejoin:round;stroke-dasharray:7.55906,15.1181" transform="translate(320.60859 -537.58703)"/><g style="display:inline" transform="translate(320.47381987 -590.875259)"><circle cx="722.94879" cy="854.53064" r="3.4077702" style="fill:#272727;fill-opacity:1;stroke:none;stroke-width:3.77953;stroke-linecap:round;stroke-linejoin:round;stroke-dasharray:none;stroke-dashoffset:0;stroke-opacity:1"/><circle cx="753.09442" cy="854.53064" r="3.4077702" style="fill:#272727;fill-opacity:1;stroke:none;stroke-width:3.77953;stroke-linecap:round;stroke-linejoin:round;stroke-dasharray:none;stroke-dashoffset:0;stroke-opacity:1"/><path d="M724.25957 873.99424h27.39322" style="fill:none;fill-opacity:1;stroke:#222;stroke-width:3.77953;stroke-linecap:round;stroke-linejoin:round;stroke-dasharray:none;stroke-dashoffset:0;stroke-opacity:1"/></g></g><use xlink:href="#c" transform="translate(-428.29289 641.53553)"/><g style="display:inline"><path d="M1297.0426 442.6091c-46.1656 3.23297-100.32 6.23441-145.9953 7.45802-58.6894.91424-117.3994 1.47175-176.05486-.97913-39.52372-1.89571-78.91234-5.65893-118.15368-10.66128-18.18914-2.37212-36.45304-5.04472-53.94602-10.76961-10.27752-3.3635-13.45299-5.08413-23.24115-9.46008-3.59575-1.9049-7.22685-3.74453-10.78726-5.71471-.63718-.35258 2.5738 1.31758 2.00939.85741-2.91265-2.37473-6.14723-4.33012-9.1078-6.64485-8.71203-6.8115-16.26333-14.40525-23.65929-22.58312-10.9769-13.07245-18.53319-28.33131-22.40541-44.95713-.75959-3.2614-1.199-6.58918-1.79851-9.88377-1.27512-12.44897-.45438-25.27894 4.48973-36.94018 3.64187-8.58977 6.10282-11.21072 11.4933-18.91188 15.64281-20.35777 36.57351-35.16064 57.91123-48.94308 23.84426-15.23903 49.69249-26.68991 75.89793-37.13935 26.85436-10.76244 54.71677-18.47072 82.65643-25.79048 18.5918-4.58048 37.25456-9.06533 56.19337-11.99074 12.8712-1.98816 15.5015-2.01742 28.7839-3.2447 19.4698-1.62135 39.0632-1.87789 58.5145.14996 11.1955 1.16715 13.8421 1.91555 24.7381 4.01586 18.5181 3.14447 35.4581 10.69291 51.8414 19.53104-4.7631-2.92639 16.5694 9.46666 12.4917 6.98919-2.3633-1.43583-4.724-2.89122-7.2069-4.10861-1.5625-.76617 2.9369 1.86949 4.4376 2.75076 16.1929 9.50925 11.241 6.95171 20.637 11.59429 11.3154 5.61343 23.5847 8.76826 35.8007 11.71903 17.9132 4.67255 36.1281 7.84667 54.3666 10.91266 16.9657 3.13848 34.1341 4.88723 51.1726 7.57396 20.0926 3.1101 39.8808 7.84305 59.3411 13.68653 9.7688 2.75392 18.7833 7.18606 27.7362 11.84183 1.2183.63354-4.7439-2.74212-3.6464-1.91679 2.6457 1.98963 5.5837 3.55966 8.3161 5.42846 2.6829 1.83497 5.284 3.78681 7.926 5.68022 12.1053 9.33166 22.6305 20.43928 30.5786 33.53554 1.4462 2.38297 2.6685 4.89484 4.0028 7.34226 4.3451 8.79755 7.7424 18.13717 9.2021 27.87693.9124 6.08794.7 7.73801.7264 13.85442-.2898 15.09754-7.8295 27.92005-16.4298 39.79871-8.7908 10.30816-19.6376 18.55397-30.504 26.52978-10.3704 7.1297-22.0532 12.11067-33.4935 17.25827-10.6542 4.96618-21.8525 8.51875-33.2888 11.13285-13.3292 3.23637-26.918 5.16348-40.3172 8.03805-9.5434 2.15735-19.2741 3.20636-28.9567 4.50638-3.5981.49111-7.213.82771-10.83 1.13905l12.0698 8.59944v0c3.5991-.35935 7.1955-.744 10.7772-1.25291 9.6723-1.32684 19.385-2.44516 28.9057-4.67916 13.3856-2.87737 26.9321-4.96724 40.2703-8.09213 11.5307-2.61239 22.7763-6.28776 33.4837-11.35275 11.5054-5.2212 23.2743-10.24012 33.66-17.51539 10.9407-8.09599 21.8363-16.50371 30.6368-26.97492 8.7267-12.11044 16.4784-25.21449 16.9113-40.56563.021-6.09571.2438-8.03216-.6047-14.10615-1.3816-9.89011-4.797-19.3773-9.138-28.32458-1.3262-2.4923-2.5335-5.05162-3.9785-7.47691-7.8948-13.25011-18.3534-24.54942-30.4674-34.04413-19.8857-14.42323-41.058-27.70573-64.7221-34.88418-19.5693-5.78107-39.4421-10.53227-59.6202-13.65999-17.025-2.66117-34.177-4.41764-51.1265-7.557-18.2782-3.03699-36.5071-6.33128-54.4309-11.09671-12.2429-3.05352-24.5199-6.33934-35.8033-12.13984-1.3401-.69013-5.2881-2.88577-4.0203-2.07039 2.7571 1.77324 5.6046 3.40871 8.4978 4.95007 1.5593.83074-2.9683-1.91906-4.4909-2.81535-9.9438-5.85362-19.9461-11.60303-30.0793-17.12191-16.4679-8.763-33.2296-15.86247-51.794-18.94465-10.9657-2.02221-13.4674-2.72077-24.727-3.81077-19.4687-1.88468-39.0552-1.48251-58.5273.12004-5.0755.45676-10.1628.79811-15.2267 1.37028-23.65008 2.67223-46.8333 8.36671-69.90136 14.03581-28.00513 7.31738-55.91701 15.08082-82.82175 25.88469-26.26854 10.50414-52.14057 22.09524-76.0586 37.3534-21.51424 13.87381-42.61812 28.75711-58.37044 49.28956-5.27232 7.45226-8.26126 10.82949-11.886 19.17327-5.13445 11.81896-5.92518 24.94204-4.74621 37.59451.58225 3.33725 1.00238 6.70688 1.74675 10.01175 2.21953 9.85436 5.74813 20.02934 10.61869 28.90335 3.09398 5.63716 7.76008 11.53918 11.56809 16.66465 2.38536 2.68465 4.6621 5.46988 7.15608 8.05393 16.6044 17.20406 36.93124 29.79881 58.35762 40.18236 9.84541 4.30714 12.99215 5.9832 23.32558 9.27649 17.47891 5.57058 35.69945 8.13342 53.83875 10.42699 39.06524 4.77428 78.27483 8.33558 117.59925 10.11201 58.42945 2.18048 116.89505 1.24909 175.34695.36421 46.4618-1.13211 100.4375-1.1828 148.416-5.66153z" style="fill:#333;fill-opacity:1;stroke:#efdbff;stroke-width:18.8976;stroke-linecap:square;stroke-dasharray:none;stroke-opacity:1"/><path d="M1332 444c42.9635 54.1965 45.9365 143.68027 1.982 188.65985-129.553 132.57422-408.00928 16.7417-695.63885 82.26908" style="fill:none;fill-opacity:1;stroke:#efdbff;stroke-width:7.55900002;stroke-linecap:round;stroke-dasharray:none;stroke-opacity:1;stroke-linejoin:round"/><path d="m649.83113 689.42911-19.09188 26.16295 31.81981 12.72793" style="fill:none;fill-opacity:1;stroke:#efdbff;stroke-width:7.55905512;stroke-linecap:round;stroke-dasharray:none;stroke-opacity:1;stroke-linejoin:round"/><g style="display:inline"><path d="M313.10367 800.27653c-13.542 4.7718-32.00694-.93457-42.17064 8.68189 3.3556 7.84483-3.30208 16.42496 2.09111 24.1763-.0254 10.62339.16581 21.28195-.3436 31.66941-.17949 5.11993-3.6188 9.41411-1.42399 14.89719 1.58639 14.26998 20.60786 5.91285 30.60217 6.51857 9.78739-4.96294 13.48583 7.09649 22.22332 3.98328 4.84009-7.78033 8.68259 3.19576 16.16782.59569 10.63314.95064 20.7103-7.22998 20.62065-17.69301 1.73916-16.65367 2.11806-33.48706 1.92953-50.19997-2.49048-6.91207-11.05088-4.00025-16.80208-4.62345 2.31522-9.37177-2.58817-19.14218-13.33532-16.80914-4.81174-1.62245-12.62233 4.05852-11.44978 3.937-1.47886-2.9305-4.13911-6.14309-8.10919-5.13376zm135.37972 8.98163c-8.96155.23016-3.00705 11.0168-12.12702 8.61117-6.75256 1.47438-4.40343 8.88308-11.49735 5.71331-.95126-4.75725.94227-15.56518-8.73679-14.07597-6.26565.57764-15.82886-2.50513-17.35453 6.13086-.48059 3.41462 1.97205 9.65319-3.82947 7.94511-9.46272 2.72281.78608-13.7423-10.91016-11.92356-5.50258.43201-11.39104-1.17549-16.46458 1.52421-5.07181 11.93514-4.1127 25.73927-4.71553 38.57504 2.25384 11.79589-2.85806 30.43169 9.81353 36.08674 5.57067-.40209 11.48728 1.09243 16.67325-1.41877 4.09002 5.77784 11.93986 2.85876 18.07318 3.57118 12.35446-2.09823 14.93458-18.01908 16.52224-28.26188.49521-4.39199.517-8.81079.47521-13.2221 4.40469.532 10.057-1.65298 9.37503-6.90567 7.98756 7.05138-9.84717 24.16059-1.52744 33.60392 4.95666 2.07885 10.46186.74969 15.69306 1.12291 4.33274 17.82128 35.38973 20.83948 41.80288 2.99546-1.08449-8.55291 13.67792 1.72989 11.6326-9.94085-.59732-5.31082 1.37939-11.26369-1.38883-16.09073-4.2847-3.49565-11.04731-4.02485-8.84597-10.84995 8.60665 2.14061 10.18956-6.91954 9.80566-13.31894-.26643-4.44118.38561-10.90416-5.78934-11.50564-8.80081-.85725-18.11948-.33131-26.45428.24553-2.83278-1.97485-4.51144-11.24517-12.65177-8.61123zm60.46349 3.06249c-9.07393 0-6.63686 11.82677-6.92707 29.31501-.23298 14.03976-1.6111 30.65925 6.66094 40.48123 13.12779 14.52446 36.11401-1.90983 35.27385-8.62266.72244 3.35391-.28875 8.04036 10.27697 8.13516 7.20004.0646 16.97291.6182 15.55074-8.85125.20188-19.3496-1.09805-39.13111-7.44876-57.58757-4.55132-4.85116-12.11041-2.17415-18.16022-2.86989-13.75039 4.73444-1.48639 15.43313-1.54395 31.66314-.0127 3.59484 2.82101 21.86133-.27072 13.67926-6.58536-7.88707-17.69195 10.76252-15.17343-3.9981.13688-11.74244.47772-23.48273 1.03084-35.21363-1.44577-9.08238-14.65701-6.1307-19.2692-6.1307zm-46.88581 30.31324c7.31331-1.6191 5.93721 4.31319-.99703 4.14899l.99721-4.14899zm-73.5693 5.87948c3.01217.80743 9.39478-1.63001 10.27603 1.22893.3905 9.81443-1.69462 20.01181-7.59592 28.17419-1.52692-9.73291-2.80143-19.54245-2.68011-29.40312z" style="font-weight:700;font-size:110px;line-height:1;font-family:&quot;Corporate Logo ver2&quot;;-inkscape-font-specification:&quot;Corporate Logo ver2 Bold&quot;;letter-spacing:0;word-spacing:0;baseline-shift:baseline;white-space:pre;inline-size:398.785;display:inline;overflow:visible;vector-effect:none;fill:#333;stroke-width:.767185;stroke-linecap:square;stroke-linejoin:round;enable-background:accumulate;stop-color:#000;stop-opacity:1"/><text xml:space="preserve" x="356" y="820" style="font-weight:700;font-size:110px;line-height:1;font-family:&quot;Corporate Logo ver2&quot;;-inkscape-font-specification:&quot;Corporate Logo ver2 Bold&quot;;text-align:start;letter-spacing:0;word-spacing:0;writing-mode:lr-tb;direction:ltr;text-anchor:start;white-space:pre;inline-size:398.785;display:inline;fill:#eee;fill-opacity:1;stroke:none;stroke-width:0;stroke-linecap:square;stroke-linejoin:round;stroke-dasharray:none;stroke-dashoffset:0;stroke-opacity:1" transform="matrix(.78188848 0 0 .7527577 -3.776486 259.56714)"><tspan x="356" y="820">動けない</tspan></text></g><g style="display:inline"><text xml:space="preserve" x="491.94489" y="603.54486" style="font-weight:700;font-size:110px;line-height:1;font-family:&quot;Corporate Logo ver2&quot;;-inkscape-font-specification:&quot;Corporate Logo ver2 Bold&quot;;font-variation-settings:normal;text-align:start;letter-spacing:0;word-spacing:0;writing-mode:lr-tb;direction:ltr;text-anchor:start;display:inline;vector-effect:none;fill:#eee;fill-opacity:1;stroke:none;stroke-width:1.88976;stroke-linecap:square;stroke-linejoin:miter;stroke-miterlimit:4;stroke-dasharray:none;stroke-dashoffset:0;stroke-opacity:1;-inkscape-stroke:none;stop-color:#000" transform="translate(0 20)"><tspan x="491.94489" y="603.54486" style="fill:#eee;fill-opacity:1;stroke:none;stroke-width:1.88976;stroke-dasharray:none;stroke-opacity:1">どんな形で穴を超える？</tspan></text></g></g></svg>