<svg xmlns="http://www.w3.org/2000/svg" xmlns:xlink="http://www.w3.org/1999/xlink" xml:space="preserve" width="1904" height="1072"><defs><linearGradient id="d"><stop offset="0" style="stop-color:#c5bd1e;stop-opacity:1"/><stop offset="1" style="stop-color:#c5bd1e;stop-opacity:0"/></linearGradient><linearGradient id="c"><stop offset="0" style="stop-color:#17979f;stop-opacity:1"/><stop offset="1" style="stop-color:#17979f;stop-opacity:0"/></linearGradient><linearGradient id="b"><stop offset="0" style="stop-color:#ff9a61;stop-opacity:1"/><stop offset="1" style="stop-color:#ff9a61;stop-opacity:0"/></linearGradient><linearGradient id="a"><stop offset="0" style="stop-color:#17979f;stop-opacity:1"/><stop offset="1" style="stop-color:#17979f;stop-opacity:0"/></linearGradient><linearGradient xlink:href="#c" id="e" x1="1058.5819" x2="1058.5819" y1="509.70959" y2="542.4917" gradientUnits="userSpaceOnUse"/><linearGradient xlink:href="#b" id="f" x1="970.3667" x2="1085.6205" y1="808.63892" y2="208.04503" gradientUnits="userSpaceOnUse"/></defs><g style="display:inline"><g style="display:inline;opacity:.5"><path d="M271.9426 170.41206h1524.9463M271.9426 277.24101h1524.9463M271.9426 384.06997h1524.9463M271.9426 490.89892h1524.9463M271.9426 597.72787h1524.9463M271.9426 704.55683h1524.9463M271.9426 811.38578h1524.9463" style="display:inline;fill:none;fill-opacity:1;stroke:#a4a4a4;stroke-width:1.00157;stroke-linecap:round;stroke-linejoin:round;stroke-dasharray:none;stroke-opacity:1" transform="translate(6.959014 -2.55312)"/></g><g style="display:inline;opacity:.5;stroke-width:.896677"><path d="M897.2366 68.365534V904.05389M1004.0076 68.365534V904.05389M1110.7787 68.365534V904.05389M1217.5497 68.365534V904.05389M1324.3208 68.365534V904.05389M1431.0918 68.365534V904.05389M1537.8629 68.365534V904.05389M1644.6339 68.365534V904.05389M790.46556 68.365534V904.05389M683.69452 68.365534V904.05389M576.92348 68.365534V904.05389M470.15244 68.365534V904.05389" style="fill:none;fill-opacity:1;stroke:#a4a4a4;stroke-width:.898084;stroke-linecap:round;stroke-linejoin:round;stroke-dasharray:none;stroke-opacity:1" transform="matrix(1 0 0 1.2437367 .959014 -71.4691)"/></g><path d="M-11.314453-5.65625V1078H1005.25V927c0-7.202-5.798-13.00481-13-13l-93.5.0625v-39.88281c0-7.16303-5.76666-12.92969-12.92969-12.92969H791.75v-39.77344c0-7.18927-5.78729-12.97656-12.97656-12.97656h-414.1875V488.29297h305.17578c8.31 0 15-6.69 15-15V60.896484h960.67578V274.35742h-319.9648v-41.36523c0-6.46367-5.2043-11.66797-11.668-11.66797h-84.1465c-6.4637 0-11.666 5.2043-11.666 11.66797v41.36523h-93.1211c-6.9757 0-12.5918 5.61613-12.5918 12.5918v134.62305c0 6.97567 5.6161 12.59179 12.5918 12.59179h627.6934V916h-107.0333V552c0-7.202-5.798-13-13-13H1125c-7.202 0-13 5.798-13 13v526h798V-5.65625Z" style="display:inline;fill:#9e999c;fill-opacity:1;stroke:none;stroke-width:37.7953;stroke-linecap:square;stroke-linejoin:round"/><path d="M1016.3919 487.9664h83.8871c11.9927-.41997 11.0714 12.12676 11.0714 12.12676v82.96965c0 10.25249-10.6873 10.93573-10.6873 10.93573h-86.1039c-8.1919-.39989-9.5054-9.76067-9.5054-9.76067v-84.15612s-.075-12.11535 11.3381-12.11535z" style="display:inline;opacity:.71;mix-blend-mode:normal;fill:url(#e);fill-opacity:1;stroke-width:7.55906;stroke-linecap:round;stroke-linejoin:round;stroke-dasharray:7.55906,15.1181"/><g style="display:inline"><path d="M696.06846 808.50959h83.88713c11.99268-.41997 11.07138 12.12676 11.07138 12.12676V903.606c0 10.25249-10.68731 10.93573-10.68731 10.93573h-86.10387c-8.19194-.39989-9.50539-9.76067-9.50539-9.76067v-84.15612s-.0749-12.11535 11.33806-12.11535z" style="opacity:1;mix-blend-mode:normal;fill:#17979f;fill-opacity:1;stroke-width:7.55906;stroke-linecap:round;stroke-linejoin:round;stroke-dasharray:7.55906,15.1181" transform="translate(320.32344 -269.3045)"/><g style="display:inline" transform="translate(320.18866987 -271.2874336)"><circle cx="722.94879" cy="854.53064" r="3.4077702" style="fill:#272727;fill-opacity:1;stroke:none;stroke-width:3.77953;stroke-linecap:round;stroke-linejoin:round;stroke-dasharray:none;stroke-dashoffset:0;stroke-opacity:1"/><circle cx="753.09442" cy="854.53064" r="3.4077702" style="fill:#272727;fill-opacity:1;stroke:none;stroke-width:3.77953;stroke-linecap:round;stroke-linejoin:round;stroke-dasharray:none;stroke-dashoffset:0;stroke-opacity:1"/><path d="M724.25957 873.99424h27.39322" style="fill:none;fill-opacity:1;stroke:#222;stroke-width:3.77953;stroke-linecap:round;stroke-linejoin:round;stroke-dasharray:none;stroke-dashoffset:0;stroke-opacity:1"/></g></g><path d="M1016.8574 645.33203c-11.4131 0-11.3379 6.67969-11.3379 6.67969v49.02734h-93.98825c-13.01946 0-12.93359 12.11524-12.93359 12.11524v41.92578l-95.41993.0859c-11.41296.0103-11.33789 12.11523-11.33789 12.11523v84.15625s1.31197 9.36183 9.50391 9.76172h86.10352s10.6875-.68306 10.6875-10.93555v-43.19922l107.38473.008-.1308 269.67969 106.2949-.6465.1309-424.08593s.9223-6.91908-11.0704-6.6875z" style="display:inline;opacity:1;mix-blend-mode:normal;fill:#ff9a61;fill-opacity:1;stroke-width:7.55906;stroke-linecap:round;stroke-linejoin:round;stroke-dasharray:7.55906,15.1181"/><path id="g" d="M1124.6732 168.14939h83.8872c11.9927-.41997 11.0714 12.12676 11.0714 12.12676v82.96965c0 10.25249-10.6874 10.93573-10.6874 10.93573h-86.1038c-8.192-.39989-9.5054-9.76067-9.5054-9.76067v-84.15612s-.075-12.11535 11.338-12.11535z" style="display:inline;opacity:1;mix-blend-mode:normal;fill:#ff9a61;fill-opacity:.2;stroke:#ff9a61;stroke-width:7.55906;stroke-linecap:round;stroke-linejoin:round;stroke-dasharray:7.55906,22.6772;stroke-dashoffset:0;stroke-opacity:1"/><g style="display:inline;stroke-width:.993017"><path d="M696.06846 808.50959h83.88713c11.99268-.41997 11.07138 12.12676 11.07138 12.12676V903.606c0 10.25249-10.68731 10.93573-10.68731 10.93573h-86.10387c-8.19194-.39989-9.50539-9.76067-9.50539-9.76067v-84.15612s-.0749-12.11535 11.33806-12.11535z" style="opacity:1;mix-blend-mode:normal;fill:#c5bd1e;fill-opacity:1;stroke-width:7.50627;stroke-linecap:round;stroke-linejoin:round;stroke-dasharray:7.50627,15.0125" transform="matrix(1.0046673 -.00568682 .00566032 1.0093713 952.99704 -3.2079627)"/><g style="display:inline;stroke-width:.993017" transform="matrix(1.0046673 -.00568682 .00566032 1.0093713 952.85041682 -5.20871255)"><circle cx="722.94879" cy="854.53064" r="3.4077702" style="fill:#272727;fill-opacity:1;stroke:none;stroke-width:3.75314;stroke-linecap:round;stroke-linejoin:round;stroke-dasharray:none;stroke-dashoffset:0;stroke-opacity:1"/><circle cx="753.09442" cy="854.53064" r="3.4077702" style="fill:#272727;fill-opacity:1;stroke:none;stroke-width:3.75314;stroke-linecap:round;stroke-linejoin:round;stroke-dasharray:none;stroke-dashoffset:0;stroke-opacity:1"/><path d="M724.25957 873.99424h27.39322" style="fill:none;fill-opacity:1;stroke:#222;stroke-width:3.75314;stroke-linecap:round;stroke-linejoin:round;stroke-dasharray:none;stroke-dashoffset:0;stroke-opacity:1"/></g></g><g style="display:inline;stroke-width:.993017"><path d="M696.06846 808.50959h83.88713c11.99268-.41997 11.07138 12.12676 11.07138 12.12676V903.606c0 10.25249-10.68731 10.93573-10.68731 10.93573h-86.10387c-8.19194-.39989-9.50539-9.76067-9.50539-9.76067v-84.15612s-.0749-12.11535 11.33806-12.11535z" style="opacity:1;mix-blend-mode:normal;fill:#c5bd1e;fill-opacity:1;stroke-width:7.50627;stroke-linecap:round;stroke-linejoin:round;stroke-dasharray:7.50627,15.0125" transform="matrix(1.0046673 -.00568682 .00566032 1.0093713 -114.64846 -110.52398)"/><g style="display:inline;stroke-width:.993017" transform="matrix(1.0046673 -.00568682 .00566032 1.0093713 -114.79508318 -112.52472985)"><circle cx="722.94879" cy="854.53064" r="3.4077702" style="fill:#272727;fill-opacity:1;stroke:none;stroke-width:3.75314;stroke-linecap:round;stroke-linejoin:round;stroke-dasharray:none;stroke-dashoffset:0;stroke-opacity:1"/><circle cx="753.09442" cy="854.53064" r="3.4077702" style="fill:#272727;fill-opacity:1;stroke:none;stroke-width:3.75314;stroke-linecap:round;stroke-linejoin:round;stroke-dasharray:none;stroke-dashoffset:0;stroke-opacity:1"/><path d="M724.25957 873.99424h27.39322" style="fill:none;fill-opacity:1;stroke:#222;stroke-width:3.75314;stroke-linecap:round;stroke-linejoin:round;stroke-dasharray:none;stroke-dashoffset:0;stroke-opacity:1"/></g></g><g style="display:inline;stroke-width:.993017"><path d="M696.06846 808.50959h83.88713c11.99268-.41997 11.07138 12.12676 11.07138 12.12676V903.606c0 10.25249-10.68731 10.93573-10.68731 10.93573h-86.10387c-8.19194-.39989-9.50539-9.76067-9.50539-9.76067v-84.15612s-.0749-12.11535 11.33806-12.11535z" style="opacity:1;mix-blend-mode:normal;fill:#c5bd1e;fill-opacity:1;stroke-width:7.50627;stroke-linecap:round;stroke-linejoin:round;stroke-dasharray:7.50627,15.0125" transform="matrix(1.0046673 -.00568682 .00566032 1.0093713 -328.5878 -110.55431)"/><g style="display:inline;stroke-width:.993017" transform="matrix(1.0046673 -.00568682 .00566032 1.0093713 -328.73442318 -112.55505985)"><circle cx="722.94879" cy="854.53064" r="3.4077702" style="fill:#272727;fill-opacity:1;stroke:none;stroke-width:3.75314;stroke-linecap:round;stroke-linejoin:round;stroke-dasharray:none;stroke-dashoffset:0;stroke-opacity:1"/><circle cx="753.09442" cy="854.53064" r="3.4077702" style="fill:#272727;fill-opacity:1;stroke:none;stroke-width:3.75314;stroke-linecap:round;stroke-linejoin:round;stroke-dasharray:none;stroke-dashoffset:0;stroke-opacity:1"/><path d="M724.25957 873.99424h27.39322" style="fill:none;fill-opacity:1;stroke:#222;stroke-width:3.75314;stroke-linecap:round;stroke-linejoin:round;stroke-dasharray:none;stroke-dashoffset:0;stroke-opacity:1"/></g></g><path d="M1034.627 415.1861c-7.1238-1.07959-14.1075-1.2085-20.877-.19336-36.69948 5.50342-64.13813 39.64064-76.7832 114.21094-12.10597 71.39109-7.2087 152.78595.23632 186.85352l4.03321 18.46094 36.92383-8.06836-4.03321-18.46289c-5.16301-23.62535-10.83925-107.9429.10157-172.4629 8.23775-48.57951 22.5092-79.76261 45.12698-83.15429 6.6719-1.00052 15.7591.17405 28.5156 6.61328 13.1612 6.64208 28.5213-3.67113 27.3555-18.36719-11.9089-49.01639-18.1313-244.57171 61.2263-222.27895l6.4668-37.23828c-136.1206-19.3244-110.7274 213.9927-108.2927 234.08754z" style="opacity:.703;fill:url(#f);fill-opacity:1;stroke-linecap:square;stroke-linejoin:round"/><use xlink:href="#g" transform="translate(103.96256 -52.723869)"/></g></svg>