<svg xmlns="http://www.w3.org/2000/svg" xmlns:xlink="http://www.w3.org/1999/xlink" xml:space="preserve" width="1904" height="1072"><defs><linearGradient id="g"><stop offset="0" style="stop-color:#106e8f;stop-opacity:1"/><stop offset="1" style="stop-color:#106e8f;stop-opacity:0"/></linearGradient><linearGradient id="f"><stop offset="0" style="stop-color:#f5a633;stop-opacity:1"/><stop offset="1" style="stop-color:#f5a633;stop-opacity:0"/></linearGradient><linearGradient id="e"><stop offset="0" style="stop-color:#106e8f;stop-opacity:1"/><stop offset="1" style="stop-color:#106e8f;stop-opacity:0"/></linearGradient><linearGradient id="d"><stop offset="0" style="stop-color:#106e8f;stop-opacity:1"/><stop offset="1" style="stop-color:#106e8f;stop-opacity:0"/></linearGradient><linearGradient id="c"><stop offset="0" style="stop-color:#106e8f;stop-opacity:1"/><stop offset="1" style="stop-color:#106e8f;stop-opacity:0"/></linearGradient><linearGradient id="b"><stop offset="0" style="stop-color:#333;stop-opacity:1"/><stop offset="1" style="stop-color:#106e8f;stop-opacity:0"/></linearGradient><linearGradient id="a"><stop offset="0" style="stop-color:#333;stop-opacity:1"/><stop offset="1" style="stop-color:#106e8f;stop-opacity:0"/></linearGradient><linearGradient xlink:href="#a" id="j" x1="1361.3392" x2="-227.49654" y1="438.61334" y2="578.75122" gradientTransform="translate(.34344402 .44698322)" gradientUnits="userSpaceOnUse"/><linearGradient xlink:href="#b" id="k" x1="812.04321" x2="307.57263" y1="299.85114" y2="339.74548" gradientUnits="userSpaceOnUse"/><linearGradient xlink:href="#c" id="n" x1="852.65704" x2="481.38269" y1="329.41498" y2="519.60211" gradientUnits="userSpaceOnUse"/><linearGradient xlink:href="#d" id="q" x1="1414.4508" x2="853.53912" y1="515.43146" y2="835.37256" gradientUnits="userSpaceOnUse"/><linearGradient xlink:href="#e" id="r" x1="1102" x2="999" y1="324" y2="548" gradientUnits="userSpaceOnUse"/><linearGradient xlink:href="#f" id="s" x1="1303.9048" x2="869.74133" y1="452.54834" y2="452.54834" gradientUnits="userSpaceOnUse"/><linearGradient xlink:href="#g" id="t" x1="939.03778" x2="91.923882" y1="550.12909" y2="550.12909" gradientTransform="translate(-52.325902)" gradientUnits="userSpaceOnUse"/></defs><g style="display:inline"><g style="display:inline;opacity:.5" transform="translate(5.5448 -.4318)"><path id="h" d="M41.942602 169.08311H1858.8889" style="display:inline;fill:none;fill-opacity:1;stroke:#a4a4a4;stroke-width:1.00157;stroke-linecap:round;stroke-linejoin:round;stroke-dasharray:none;stroke-opacity:1"/><use xlink:href="#h" style="display:inline" transform="translate(0 108.38845)"/><use xlink:href="#h" style="display:inline" transform="translate(0 211.80602)"/><use xlink:href="#h" style="display:inline" transform="translate(0 319.80611)"/><use xlink:href="#h" style="display:inline" transform="translate(0 425.70912)"/><use xlink:href="#h" style="display:inline" transform="translate(0 532.34891)"/><use xlink:href="#h" style="display:inline" transform="translate(0 639.11526)"/><use xlink:href="#h" style="display:inline" transform="translate(0 745.88162)"/></g><g style="display:inline;opacity:.5;stroke-width:.896677" transform="matrix(1 0 0 1.2437367 2.373227 -67.22646)"><path id="i" d="M897.60883 58.7185v859.8066" style="fill:none;fill-opacity:1;stroke:#a4a4a4;stroke-width:.898084;stroke-linecap:round;stroke-linejoin:round;stroke-dasharray:none;stroke-opacity:1"/><use xlink:href="#i" style="stroke-width:.896677" transform="translate(106.94548)"/><use xlink:href="#i" style="stroke-width:.896677" transform="translate(213.89096)"/><use xlink:href="#i" style="stroke-width:.896677" transform="translate(320.83645)"/><use xlink:href="#i" style="stroke-width:.896677" transform="translate(427.78193)"/><use xlink:href="#i" style="stroke-width:.896677" transform="translate(534.72742)"/><use xlink:href="#i" style="stroke-width:.896677" transform="translate(641.6729)"/><use xlink:href="#i" style="stroke-width:.896677" transform="translate(748.61839)"/><use xlink:href="#i" style="stroke-width:.896677" transform="translate(855.56387)"/><use xlink:href="#i" style="stroke-width:.896677" transform="translate(-106.94549)"/><use xlink:href="#i" style="stroke-width:.896677" transform="translate(-213.89097)"/><use xlink:href="#i" style="stroke-width:.896677" transform="translate(-320.83646)"/><use xlink:href="#i" style="stroke-width:.896677" transform="translate(-427.78194)"/><use xlink:href="#i" style="stroke-width:.896677" transform="translate(-534.72743)"/><use xlink:href="#i" style="stroke-width:.896677" transform="translate(-641.67291)"/></g><path d="M0 .25v1073.1387h144V1074h1759.8787V.25Zm152.73438 60.869141H1859V594.23242h-520.8438c-6.9248 0-12.5 5.575-12.5 12.5v81.75c0 6.925 5.5752 12.5 12.5 12.5H1432v320.08008H792V700.98242h96.25c6.925 0 12.5-5.575 12.5-12.5v-81.75c0-6.925-5.575-12.5-12.5-12.5H152.73438Z" style="fill:#6d9bb1;fill-opacity:1;stroke-width:15.118;stroke-linecap:round;stroke-linejoin:round;stroke-dasharray:15.118,30.236"/><rect width="106.06602" height="321.02649" x="258.80109" y="168.29141" ry="9.152071" style="display:inline;fill:#6d9bb1;fill-opacity:1;stroke-width:15.118;stroke-linecap:round;stroke-linejoin:round;stroke-dasharray:15.118,30.236"/><g style="display:inline"><path d="M696.06869 808.50952c-11.41296 0-11.33789 12.11524-11.33789 12.11524v84.15625s1.31196 9.35988 9.5039 9.75976c134.63713-1.4743 269.22128-.30192 403.8574 0 0 0 10.6875-.68305 10.6875-10.93554v-82.96875s.9204-12.54693-11.0722-12.12696c-134.10074 1.73512-267.57262 1.41277-401.63871 0z" style="opacity:1;mix-blend-mode:normal;fill:#0079b0;fill-opacity:1;stroke-width:7.55906;stroke-linecap:round;stroke-linejoin:round;stroke-dasharray:7.55906,15.1181" transform="translate(644.74408 -533.74921)"/><g style="display:inline" transform="translate(803.48582 -535.7318085)"><circle cx="722.94879" cy="854.53064" r="3.4077702" style="fill:#272727;fill-opacity:1;stroke:none;stroke-width:3.77953;stroke-linecap:round;stroke-linejoin:round;stroke-dasharray:none;stroke-dashoffset:0;stroke-opacity:1"/><circle cx="753.09442" cy="854.53064" r="3.4077702" style="fill:#272727;fill-opacity:1;stroke:none;stroke-width:3.77953;stroke-linecap:round;stroke-linejoin:round;stroke-dasharray:none;stroke-dashoffset:0;stroke-opacity:1"/><path d="M724.25957 873.99424h27.39322" style="fill:none;fill-opacity:1;stroke:#222;stroke-width:3.77953;stroke-linecap:round;stroke-linejoin:round;stroke-dasharray:none;stroke-dashoffset:0;stroke-opacity:1"/></g></g><g style="display:inline;stroke-width:.983775"><path d="M696.06896 808.51037c-11.41296 0-11.33789 12.11523-11.33789 12.11523v84.15625s1.31196 9.35988 9.5039 9.75977c64.12927-1.60024 127.71801 0 192.00782 0 0 0 10.6875-.68306 10.6875-10.93555v-82.96875s.92041-12.54692-11.07227-12.12695c-63.38173 1.61209-126.3185.00057-189.78906 0z" style="opacity:1;mix-blend-mode:normal;fill:#f5a633;fill-opacity:1;stroke-width:7.43642;stroke-linecap:round;stroke-linejoin:round;stroke-dasharray:7.43642,14.8728" transform="translate(738.51607 -441.55894) scale(1.0164927)"/><g style="display:inline;stroke-width:.983775" transform="translate(792.20437128 -443.5742369) scale(1.0164927)"><circle cx="722.94879" cy="854.53064" r="3.4077702" style="fill:#272727;fill-opacity:1;stroke:none;stroke-width:3.7182;stroke-linecap:round;stroke-linejoin:round;stroke-dasharray:none;stroke-dashoffset:0;stroke-opacity:1"/><circle cx="753.09442" cy="854.53064" r="3.4077702" style="fill:#272727;fill-opacity:1;stroke:none;stroke-width:3.7182;stroke-linecap:round;stroke-linejoin:round;stroke-dasharray:none;stroke-dashoffset:0;stroke-opacity:1"/><path d="M724.25957 873.99424h27.39322" style="fill:none;fill-opacity:1;stroke:#222;stroke-width:3.7182;stroke-linecap:round;stroke-linejoin:round;stroke-dasharray:none;stroke-dashoffset:0;stroke-opacity:1"/></g></g><g style="display:inline"><path d="M781.04163 701.98354c-.34997-.0115-.71116-.0113-1.08594.002h-83.88671c-11.41296 0-11.3379 12.25943-11.3379 12.25943.90943 63.48637 0 190.41921 0 190.41921s1.31197 9.47324 9.50391 9.87789h86.10547s10.68555-.69118 10.68555-11.06569c-1.00839-63.12207 0-126.04049 0-189.21956 0 0 .86472-11.91493-9.98438-12.27325z" style="opacity:1;mix-blend-mode:normal;fill:#0079b0;fill-opacity:1;stroke-width:7.55906;stroke-linecap:round;stroke-linejoin:round;stroke-dasharray:7.55906,15.1181" transform="translate(-105.73107 -320.47517)"/><g style="display:inline" transform="translate(-105.86584013 -373.763399)"><circle cx="722.94879" cy="854.53064" r="3.4077702" style="fill:#272727;fill-opacity:1;stroke:none;stroke-width:3.77953;stroke-linecap:round;stroke-linejoin:round;stroke-dasharray:none;stroke-dashoffset:0;stroke-opacity:1"/><circle cx="753.09442" cy="854.53064" r="3.4077702" style="fill:#272727;fill-opacity:1;stroke:none;stroke-width:3.77953;stroke-linecap:round;stroke-linejoin:round;stroke-dasharray:none;stroke-dashoffset:0;stroke-opacity:1"/><path d="M724.25957 873.99424h27.39322" style="fill:none;fill-opacity:1;stroke:#222;stroke-width:3.77953;stroke-linecap:round;stroke-linejoin:round;stroke-dasharray:none;stroke-dashoffset:0;stroke-opacity:1"/></g></g><g style="display:inline"><path d="M696.06846 808.50959h83.88713c11.99268-.41997 11.07138 12.12676 11.07138 12.12676V903.606c0 10.25249-10.68731 10.93573-10.68731 10.93573h-86.10387c-8.19194-.39989-9.50539-9.76067-9.50539-9.76067v-84.15612s-.0749-12.11535 11.33806-12.11535z" style="opacity:1;mix-blend-mode:normal;fill:#e54b3d;fill-opacity:1;stroke-width:7.55906;stroke-linecap:round;stroke-linejoin:round;stroke-dasharray:7.55906,15.1181" transform="translate(-105.23039 -532.99928)"/><g style="display:inline" transform="translate(-105.36516013 -534.9822136)"><circle cx="722.94879" cy="854.53064" r="3.4077702" style="fill:#272727;fill-opacity:1;stroke:none;stroke-width:3.77953;stroke-linecap:round;stroke-linejoin:round;stroke-dasharray:none;stroke-dashoffset:0;stroke-opacity:1"/><circle cx="753.09442" cy="854.53064" r="3.4077702" style="fill:#272727;fill-opacity:1;stroke:none;stroke-width:3.77953;stroke-linecap:round;stroke-linejoin:round;stroke-dasharray:none;stroke-dashoffset:0;stroke-opacity:1"/><path d="M724.25957 873.99424h27.39322" style="fill:none;fill-opacity:1;stroke:#222;stroke-width:3.77953;stroke-linecap:round;stroke-linejoin:round;stroke-dasharray:none;stroke-dashoffset:0;stroke-opacity:1"/></g></g><g style="display:inline"><path d="M696.06846 808.50959h83.88713c11.99268-.41997 11.07138 12.12676 11.07138 12.12676V903.606c0 10.25249-10.68731 10.93573-10.68731 10.93573h-86.10387c-8.19194-.39989-9.50539-9.76067-9.50539-9.76067v-84.15612s-.0749-12.11535 11.33806-12.11535z" style="opacity:1;mix-blend-mode:normal;fill:#0079b0;fill-opacity:1;stroke-width:7.55906;stroke-linecap:round;stroke-linejoin:round;stroke-dasharray:7.55906,15.1181" transform="translate(-532.23036 -320.49928)"/><g style="display:inline" transform="translate(-532.36513013 -322.4822136)"><circle cx="722.94879" cy="854.53064" r="3.4077702" style="fill:#272727;fill-opacity:1;stroke:none;stroke-width:3.77953;stroke-linecap:round;stroke-linejoin:round;stroke-dasharray:none;stroke-dashoffset:0;stroke-opacity:1"/><circle cx="753.09442" cy="854.53064" r="3.4077702" style="fill:#272727;fill-opacity:1;stroke:none;stroke-width:3.77953;stroke-linecap:round;stroke-linejoin:round;stroke-dasharray:none;stroke-dashoffset:0;stroke-opacity:1"/><path d="M724.25957 873.99424h27.39322" style="fill:none;fill-opacity:1;stroke:#222;stroke-width:3.77953;stroke-linecap:round;stroke-linejoin:round;stroke-dasharray:none;stroke-dashoffset:0;stroke-opacity:1"/></g></g><g style="display:inline;stroke-width:.990681"><path d="M696.06846 808.50959h83.88713c11.99268-.41997 11.07138 12.12676 11.07138 12.12676V903.606c0 10.25249-10.68731 10.93573-10.68731 10.93573h-86.10387c-8.19194-.39989-9.50539-9.76067-9.50539-9.76067v-84.15612s-.0749-12.11535 11.33806-12.11535z" style="opacity:1;mix-blend-mode:normal;fill:#0079b0;fill-opacity:1;stroke-width:7.48862;stroke-linecap:round;stroke-linejoin:round;stroke-dasharray:7.48862,14.9772" transform="translate(743.5789 -328.4656) scale(1.0094062)"/><g style="display:inline;stroke-width:.990681" transform="translate(743.4428622 -330.46718547) scale(1.0094062)"><circle cx="722.94879" cy="854.53064" r="3.4077702" style="fill:#272727;fill-opacity:1;stroke:none;stroke-width:3.74431;stroke-linecap:round;stroke-linejoin:round;stroke-dasharray:none;stroke-dashoffset:0;stroke-opacity:1"/><circle cx="753.09442" cy="854.53064" r="3.4077702" style="fill:#272727;fill-opacity:1;stroke:none;stroke-width:3.74431;stroke-linecap:round;stroke-linejoin:round;stroke-dasharray:none;stroke-dashoffset:0;stroke-opacity:1"/><path d="M724.25957 873.99424h27.39322" style="fill:none;fill-opacity:1;stroke:#222;stroke-width:3.74431;stroke-linecap:round;stroke-linejoin:round;stroke-dasharray:none;stroke-dashoffset:0;stroke-opacity:1"/></g></g></g></svg>