<svg xmlns="http://www.w3.org/2000/svg" xmlns:xlink="http://www.w3.org/1999/xlink" xml:space="preserve" width="1897" height="1072"><defs><linearGradient id="k"><stop offset="0" style="stop-color:#f5a633;stop-opacity:.2"/><stop offset="1" style="stop-color:#f5a633;stop-opacity:0"/></linearGradient><linearGradient id="j"><stop offset="0" style="stop-color:#4294dd;stop-opacity:1"/><stop offset="1" style="stop-color:#4294dd;stop-opacity:0"/></linearGradient><linearGradient id="i"><stop offset="0" style="stop-color:#4294dd;stop-opacity:1"/><stop offset="1" style="stop-color:#4294dd;stop-opacity:0"/></linearGradient><linearGradient id="f"><stop offset="0" style="stop-color:#4294dd;stop-opacity:1"/><stop offset="1" style="stop-color:#4294dd;stop-opacity:0"/></linearGradient><linearGradient id="e"><stop offset="0" style="stop-color:#4294dd;stop-opacity:1"/><stop offset="1" style="stop-color:#4294dd;stop-opacity:0"/></linearGradient><linearGradient id="b"><stop offset="0" style="stop-color:#f5a633;stop-opacity:1"/><stop offset="1" style="stop-color:#f5a633;stop-opacity:0"/></linearGradient><linearGradient id="p"><stop offset="0" style="stop-color:#4294dd;stop-opacity:1"/><stop offset="1" style="stop-color:#4294dd;stop-opacity:0"/></linearGradient><linearGradient id="o"><stop offset="0" style="stop-color:#4294dd;stop-opacity:1"/><stop offset="1" style="stop-color:#4294dd;stop-opacity:0"/></linearGradient><linearGradient id="n"><stop offset="0" style="stop-color:#4294dd;stop-opacity:1"/><stop offset="1" style="stop-color:#4294dd;stop-opacity:0"/></linearGradient><linearGradient id="l"><stop offset="0" style="stop-color:#f55948;stop-opacity:1"/><stop offset="1" style="stop-color:#f55948;stop-opacity:0"/></linearGradient><linearGradient id="m"><stop offset="0" style="stop-color:#f5a633;stop-opacity:1"/><stop offset="1" style="stop-color:#f5a633;stop-opacity:0"/></linearGradient><linearGradient id="h"><stop offset="0" style="stop-color:#4294dd;stop-opacity:1"/><stop offset="1" style="stop-color:#4678a6;stop-opacity:0"/></linearGradient><linearGradient id="g"><stop offset="0" style="stop-color:#f55948;stop-opacity:1"/><stop offset="1" style="stop-color:#f55948;stop-opacity:0"/></linearGradient><linearGradient id="d"><stop offset="0" style="stop-color:#4294dd;stop-opacity:1"/><stop offset="1" style="stop-color:#3f74a3;stop-opacity:0"/></linearGradient><linearGradient id="c"><stop offset="0" style="stop-color:#f55948;stop-opacity:1"/><stop offset="1" style="stop-color:#faa79e;stop-opacity:0"/></linearGradient><linearGradient id="a"><stop offset="0" style="stop-color:#f5a633;stop-opacity:1"/><stop offset="1" style="stop-color:#f8bf6d;stop-opacity:0"/></linearGradient><linearGradient xlink:href="#a" id="v" x1="769.20892" x2="442.52554" y1="655.82526" y2="401.26682" gradientTransform="translate(2.9517134 8.8551402)" gradientUnits="userSpaceOnUse"/><linearGradient xlink:href="#b" id="t" x1="735.39105" x2="445.47726" y1="896.61139" y2="659.02356" gradientUnits="userSpaceOnUse"/><linearGradient xlink:href="#c" id="u" x1="862" x2="462.39191" y1="790" y2="518.38477" gradientUnits="userSpaceOnUse"/><linearGradient xlink:href="#h" id="w" x1="939.38098" x2="1230.3658" y1="806.50372" y2="316.78384" gradientUnits="userSpaceOnUse"/></defs><g style="display:inline"><g style="mix-blend-mode:normal"><g style="display:inline;opacity:.5"><path id="q" d="M41.942602 169.08311H1858.8889" style="display:inline;fill:none;fill-opacity:1;stroke:#a4a4a4;stroke-width:1.00157;stroke-linecap:round;stroke-linejoin:round;stroke-dasharray:none;stroke-opacity:1"/><use xlink:href="#q" style="display:inline" transform="translate(0 108.38845)"/><use xlink:href="#q" style="display:inline" transform="translate(0 211.80602)"/><use xlink:href="#q" style="display:inline" transform="translate(0 319.80611)"/><use xlink:href="#q" style="display:inline" transform="translate(0 425.70912)"/><use xlink:href="#q" style="display:inline" transform="translate(0 532.34891)"/><use xlink:href="#q" style="display:inline" transform="translate(0 639.11526)"/><use xlink:href="#q" style="display:inline" transform="translate(0 745.88162)"/></g><g style="display:inline;opacity:.5;stroke-width:.895884" transform="matrix(1.0017698 0 0 1.2437367 -9.8231724 -68.562424)"><path id="r" d="M904.96232 58.7185v859.8066" style="fill:none;fill-opacity:1;stroke:#a4a4a4;stroke-width:.897291;stroke-linecap:round;stroke-linejoin:round;stroke-dasharray:none;stroke-opacity:1"/><use xlink:href="#r" style="stroke-width:.895884" transform="translate(106.18398)"/><use xlink:href="#r" style="stroke-width:.895884" transform="translate(212.36797)"/><use xlink:href="#r" style="stroke-width:.895884" transform="translate(318.55195)"/><use xlink:href="#r" style="stroke-width:.895884" transform="translate(424.73594)"/><use xlink:href="#r" style="stroke-width:.895884" transform="translate(530.91993)"/><use xlink:href="#r" style="stroke-width:.895884" transform="translate(637.10391)"/><use xlink:href="#r" style="stroke-width:.895884" transform="translate(743.2879)"/><use xlink:href="#r" style="stroke-width:.895884" transform="translate(849.47188)"/><use xlink:href="#r" style="stroke-width:.895884" transform="translate(-106.18399)"/><use xlink:href="#r" style="stroke-width:.895884" transform="translate(-212.36797)"/><use xlink:href="#r" style="stroke-width:.895884" transform="translate(-318.55196)"/><use xlink:href="#r" style="stroke-width:.895884" transform="translate(-424.73595)"/><use xlink:href="#r" style="stroke-width:.895884" transform="translate(-530.91993)"/><use xlink:href="#r" style="stroke-width:.895884" transform="translate(-637.10392)"/><use xlink:href="#r" style="stroke-width:.895884" transform="translate(-743.2879)"/></g></g><path d="M0-1.078125V1073.1886l1897.3438.3769-.094-1073.9405zm46 63.302734h1808V700.74219h-206.2266c-3.2531 0-5.8711 2.61993-5.8711 5.87304v100.90039h-420.3359c-3.2531 0-5.873 2.61994-5.873 5.87305V914.5h-106.0098V813.38867c0-3.25311-2.4988-5.87305-5.752-5.87305h-94.6504c-3.2531 0-5.871 2.61994-5.871 5.87305v207.67383H683.94922V814.80273c0-3.25311-4.91681-6.93359-8.16992-6.93359h-97.89649V706.26172c0-3.25312-4.9168-4.10547-8.16992-4.10547H46ZM1228.4531 380.42383c-7.5582 0-13.6445 6.08431-13.6445 13.64258v81.60937c0 7.55827 6.0863 13.64258 13.6445 13.64258H1309c7.5583 0 13.6426-6.08431 13.6426-13.64258v-81.60937c0-7.55827-6.0843-13.64258-13.6426-13.64258z" style="display:inline;fill:#a6a09c;fill-opacity:1;stroke:none;stroke-width:5;stroke-linecap:square;stroke-linejoin:round;stroke-dasharray:none"/><g style="display:inline"><path d="M696.06846 808.50959h83.88713c11.99268-.41997 11.07138 12.12676 11.07138 12.12676V903.606c0 10.25249-10.68731 10.93573-10.68731 10.93573h-86.10387c-8.19194-.39989-9.50539-9.76067-9.50539-9.76067v-84.15612s-.0749-12.11535 11.33806-12.11535z" style="opacity:1;mix-blend-mode:normal;fill:#f55948;fill-opacity:1;stroke-width:7.55906;stroke-linecap:round;stroke-linejoin:round;stroke-dasharray:7.55906,15.1181" transform="translate(105.54946 106.39944)"/><g style="display:inline" transform="translate(105.41468987 104.4165064)"><circle cx="722.94879" cy="854.53064" r="3.4077702" style="fill:#272727;fill-opacity:1;stroke:none;stroke-width:3.77953;stroke-linecap:round;stroke-linejoin:round;stroke-dasharray:none;stroke-dashoffset:0;stroke-opacity:1"/><circle cx="753.09442" cy="854.53064" r="3.4077702" style="fill:#272727;fill-opacity:1;stroke:none;stroke-width:3.77953;stroke-linecap:round;stroke-linejoin:round;stroke-dasharray:none;stroke-dashoffset:0;stroke-opacity:1"/><path d="M724.25957 873.99424h27.39322" style="fill:none;fill-opacity:1;stroke:#222;stroke-width:3.77953;stroke-linecap:round;stroke-linejoin:round;stroke-dasharray:none;stroke-dashoffset:0;stroke-opacity:1"/></g></g><g style="display:inline"><path d="M696.06846 808.50959h83.88713c11.99268-.41997 11.07138 12.12676 11.07138 12.12676V903.606c0 10.25249-10.68731 10.93573-10.68731 10.93573h-86.10387c-8.19194-.39989-9.50539-9.76067-9.50539-9.76067v-84.15612s-.0749-12.11535 11.33806-12.11535z" style="opacity:1;mix-blend-mode:normal;fill:#4294dd;fill-opacity:1;stroke-width:7.55906;stroke-linecap:round;stroke-linejoin:round;stroke-dasharray:7.55906,15.1181" transform="translate(212.32506 106.51128)"/><g style="display:inline" transform="translate(212.19028987 104.5283464)"><circle cx="722.94879" cy="854.53064" r="3.4077702" style="fill:#272727;fill-opacity:1;stroke:none;stroke-width:3.77953;stroke-linecap:round;stroke-linejoin:round;stroke-dasharray:none;stroke-dashoffset:0;stroke-opacity:1"/><circle cx="753.09442" cy="854.53064" r="3.4077702" style="fill:#272727;fill-opacity:1;stroke:none;stroke-width:3.77953;stroke-linecap:round;stroke-linejoin:round;stroke-dasharray:none;stroke-dashoffset:0;stroke-opacity:1"/><path d="M724.25957 873.99424h27.39322" style="fill:none;fill-opacity:1;stroke:#222;stroke-width:3.77953;stroke-linecap:round;stroke-linejoin:round;stroke-dasharray:none;stroke-dashoffset:0;stroke-opacity:1"/></g></g><g style="display:inline"><path d="M696.06896 807.51037c-11.41296 0-11.33789 12.11523-11.33789 12.11523v85.15625s1.31196 9.35988 9.5039 9.75977h192.00782s10.6875-.68306 10.6875-10.93555v-83.96875s.92041-12.54692-11.07227-12.12695z" style="opacity:1;mix-blend-mode:normal;fill:#4294dd;fill-opacity:1;stroke-width:7.55906;stroke-linecap:round;stroke-linejoin:round;stroke-dasharray:7.55906,15.1181" transform="translate(637.46887 -105.90208)"/><g style="display:inline" transform="translate(690.286073 -107.8846785)"><circle cx="722.94879" cy="854.53064" r="3.4077702" style="fill:#272727;fill-opacity:1;stroke:none;stroke-width:3.77953;stroke-linecap:round;stroke-linejoin:round;stroke-dasharray:none;stroke-dashoffset:0;stroke-opacity:1"/><circle cx="753.09442" cy="854.53064" r="3.4077702" style="fill:#272727;fill-opacity:1;stroke:none;stroke-width:3.77953;stroke-linecap:round;stroke-linejoin:round;stroke-dasharray:none;stroke-dashoffset:0;stroke-opacity:1"/><path d="M724.25957 873.99424h27.39322" style="fill:none;fill-opacity:1;stroke:#222;stroke-width:3.77953;stroke-linecap:round;stroke-linejoin:round;stroke-dasharray:none;stroke-dashoffset:0;stroke-opacity:1"/></g></g><g style="display:inline"><path d="M696.06846 808.50959h83.88713c11.99268-.41997 11.07138 12.12676 11.07138 12.12676V903.606c0 10.25249-10.68731 10.93573-10.68731 10.93573h-86.10387c-8.19194-.39989-9.50539-9.76067-9.50539-9.76067v-84.15612s-.0749-12.11535 11.33806-12.11535z" style="opacity:1;mix-blend-mode:normal;fill:#f5a633;fill-opacity:1;stroke-width:7.55906;stroke-linecap:round;stroke-linejoin:round;stroke-dasharray:7.55906,15.1181" transform="rotate(-.322802 19693.243 1034.2514)"/><g style="display:inline" transform="rotate(-.322802 19341.3504 1059.16383568)"><circle cx="722.94879" cy="854.53064" r="3.4077702" style="fill:#272727;fill-opacity:1;stroke:none;stroke-width:3.77953;stroke-linecap:round;stroke-linejoin:round;stroke-dasharray:none;stroke-dashoffset:0;stroke-opacity:1"/><circle cx="753.09442" cy="854.53064" r="3.4077702" style="fill:#272727;fill-opacity:1;stroke:none;stroke-width:3.77953;stroke-linecap:round;stroke-linejoin:round;stroke-dasharray:none;stroke-dashoffset:0;stroke-opacity:1"/><path d="M724.25957 873.99424h27.39322" style="fill:none;fill-opacity:1;stroke:#222;stroke-width:3.77953;stroke-linecap:round;stroke-linejoin:round;stroke-dasharray:none;stroke-dashoffset:0;stroke-opacity:1"/></g></g></g><g style="display:inline;opacity:1"><path id="s" d="M372.57476 593.60959h86.508c12.3675-.43019 11.4174 12.42211 11.4174 12.42211v84.99039c0 10.50219-11.0212 11.20206-11.0212 11.20206h-88.7942c-8.4478-.40962-9.8025-9.99839-9.8025-9.99839v-86.20574s-.077-12.41043 11.6925-12.41043z" style="display:inline;opacity:1;mix-blend-mode:normal;fill:#f5a633;fill-opacity:.20403;stroke:#f5a633;stroke-width:7.55906;stroke-linecap:round;stroke-linejoin:round;stroke-dasharray:7.55906,15.1181;stroke-opacity:1"/><use xlink:href="#s" transform="translate(0 -220.85436)"/><path d="M373.95815 482.92641h86.508c12.3675-.43019 11.4174 12.42211 11.4174 12.42211v84.99039c0 10.50219-11.0212 11.20206-11.0212 11.20206h-88.7942c-8.4478-.40962-9.8025-9.99839-9.8025-9.99839v-86.20574s-.077-12.41043 11.6925-12.41043z" style="display:inline;opacity:1;mix-blend-mode:normal;fill:#f55948;fill-opacity:.2;stroke:#f55948;stroke-width:7.55906;stroke-linecap:round;stroke-linejoin:round;stroke-dasharray:7.55906,15.1181;stroke-opacity:1"/><path d="M1225.9889 272.12459h86.508c12.3675-.43019 11.4174 12.42211 11.4174 12.42211v84.99039c0 10.50219-11.0212 11.20206-11.0212 11.20206h-88.7942c-8.4478-.40962-9.8025-9.99839-9.8025-9.99839v-86.20574s-.077-12.41043 11.6925-12.41043z" style="display:inline;opacity:1;mix-blend-mode:normal;fill:#3f74a3;fill-opacity:.20403;stroke:#4294dd;stroke-width:7.55906;stroke-linecap:round;stroke-linejoin:round;stroke-dasharray:7.55906,15.1181;stroke-opacity:1"/><path d="M476.11914 643.90039c-3.34599.004-6.70398.075-10.07422.21289-6.56533.26868-13.17911.82687-19.82422 1.61133v37.50977c99.59401-11.70947 191.5227 41.7245 237.43555 146.21093l7.60352 17.30078 34.60156-15.20507-7.60156-17.30079c-46.86143-106.64512-138.41488-170.46764-242.14063-170.33984Z" style="display:inline;opacity:.703;fill:url(#t);fill-opacity:1;stroke-linecap:square;stroke-linejoin:round"/><path d="M541.22852 509.3457c-35.81403-.0339-64.95733 2.38384-95.61719 5.6543v38.11328c76.92615-7.93988 175.39624-12.56973 256.05078 22.03906 122.18931 52.43135 130.64234 159.96579 129.24414 250.74414l37.79102.58399c7.74448-122.94196-39.93301-230.66992-152.13086-286.06055-54.74361-23.49044-116.50308-31.01851-175.33789-31.07422Z" style="display:inline;opacity:.703;fill:url(#u);fill-opacity:1;stroke-linecap:square;stroke-linejoin:round"/><path d="M474.25391 414.74219c-4.46612-.0749-8.95649.0206-13.4668.29687l-14.41016.88282v37.75976l16.72071-.91797c55.93195-3.42616 113.90823 30.35516 160.8789 79.98047 46.97067 49.62532 81.84436 114.41403 92.53516 163.45703l4.02539 18.46485 36.92773-8.05079-4.02539-18.46289c-12.76059-58.53777-50.35467-126.81004-102.01367-181.38867-48.43032-51.16746-110.18005-90.89745-177.17187-92.02148Z" style="opacity:.703;fill:url(#v);fill-opacity:1;stroke-linecap:square;stroke-linejoin:round"/><path d="M1215.2207 325.98633c-55.3232.55224-147.9311 19.78275-213.5312 128.26367-50.5436 83.58212-72.81245 198.30899-65.752 322.85352l1.07031 18.86718 37.73438-2.13867-1.07031-18.86719c-6.72795-118.67942 15.27149-226.596 60.35932-301.15625 45.0879-74.56024 110.528-116.30154 199.5235-109.4375l5.1836.40039v-37.9082l-2.2774-.17578c-6.194-.47773-13.3369-.78006-21.2402-.70117z" style="display:inline;opacity:.703;fill:url(#w);fill-opacity:1;stroke-linecap:square;stroke-linejoin:round"/><g style="display:inline"><path d="M696.06846 808.50959h83.88713c11.99268-.41997 11.07138 12.12676 11.07138 12.12676V903.606c0 10.25249-10.68731 10.93573-10.68731 10.93573h-86.10387c-8.19194-.39989-9.50539-9.76067-9.50539-9.76067v-84.15612s-.0749-12.11535 11.33806-12.11535z" style="opacity:1;mix-blend-mode:normal;fill:#f5a633;fill-opacity:1;stroke-width:7.55906;stroke-linecap:round;stroke-linejoin:round;stroke-dasharray:7.55906,15.1181" transform="rotate(7.209422 917.68268 839.21455)"/><g style="display:inline" transform="rotate(7.209422 933.4883289 839.13636532)"><circle cx="722.94879" cy="854.53064" r="3.4077702" style="fill:#272727;fill-opacity:1;stroke:none;stroke-width:3.77953;stroke-linecap:round;stroke-linejoin:round;stroke-dasharray:none;stroke-dashoffset:0;stroke-opacity:1"/><circle cx="753.09442" cy="854.53064" r="3.4077702" style="fill:#272727;fill-opacity:1;stroke:none;stroke-width:3.77953;stroke-linecap:round;stroke-linejoin:round;stroke-dasharray:none;stroke-dashoffset:0;stroke-opacity:1"/><path d="M724.25957 873.99424h27.39322" style="fill:none;fill-opacity:1;stroke:#222;stroke-width:3.77953;stroke-linecap:round;stroke-linejoin:round;stroke-dasharray:none;stroke-dashoffset:0;stroke-opacity:1"/></g></g><g style="display:inline;opacity:1"><path d="M696.06846 808.50959h83.88713c11.99268-.41997 11.07138 12.12676 11.07138 12.12676V903.606c0 10.25249-10.68731 10.93573-10.68731 10.93573h-86.10387c-8.19194-.39989-9.50539-9.76067-9.50539-9.76067v-84.15612s-.0749-12.11535 11.33806-12.11535z" style="opacity:1;mix-blend-mode:normal;fill:#f5a633;fill-opacity:1;stroke-width:7.55906;stroke-linecap:round;stroke-linejoin:round;stroke-dasharray:7.55906,15.1181" transform="rotate(-4.22521 -1182.7046 766.61806)"/><g style="display:inline" transform="rotate(-4.22521 -1209.51451117 769.43624289)"><circle cx="722.94879" cy="854.53064" r="3.4077702" style="fill:#272727;fill-opacity:1;stroke:none;stroke-width:3.77953;stroke-linecap:round;stroke-linejoin:round;stroke-dasharray:none;stroke-dashoffset:0;stroke-opacity:1"/><circle cx="753.09442" cy="854.53064" r="3.4077702" style="fill:#272727;fill-opacity:1;stroke:none;stroke-width:3.77953;stroke-linecap:round;stroke-linejoin:round;stroke-dasharray:none;stroke-dashoffset:0;stroke-opacity:1"/><path d="M724.25957 873.99424h27.39322" style="fill:none;fill-opacity:1;stroke:#222;stroke-width:3.77953;stroke-linecap:round;stroke-linejoin:round;stroke-dasharray:none;stroke-dashoffset:0;stroke-opacity:1"/></g></g><g style="display:inline"><path d="M696.06846 808.50959h83.88713c11.99268-.41997 11.07138 12.12676 11.07138 12.12676V903.606c0 10.25249-10.68731 10.93573-10.68731 10.93573h-86.10387c-8.19194-.39989-9.50539-9.76067-9.50539-9.76067v-84.15612s-.0749-12.11535 11.33806-12.11535z" style="opacity:1;mix-blend-mode:normal;fill:#4294dd;fill-opacity:1;stroke-width:7.55906;stroke-linecap:round;stroke-linejoin:round;stroke-dasharray:7.55906,15.1181" transform="rotate(-7.097434 685.06083 -847.55688)"/><g style="display:inline" transform="rotate(-7.097434 669.14097112 -845.47883978)"><circle cx="722.94879" cy="854.53064" r="3.4077702" style="fill:#272727;fill-opacity:1;stroke:none;stroke-width:3.77953;stroke-linecap:round;stroke-linejoin:round;stroke-dasharray:none;stroke-dashoffset:0;stroke-opacity:1"/><circle cx="753.09442" cy="854.53064" r="3.4077702" style="fill:#272727;fill-opacity:1;stroke:none;stroke-width:3.77953;stroke-linecap:round;stroke-linejoin:round;stroke-dasharray:none;stroke-dashoffset:0;stroke-opacity:1"/><path d="M724.25957 873.99424h27.39322" style="fill:none;fill-opacity:1;stroke:#222;stroke-width:3.77953;stroke-linecap:round;stroke-linejoin:round;stroke-dasharray:none;stroke-dashoffset:0;stroke-opacity:1"/></g></g><g style="display:inline"><path d="M696.06846 808.50959h83.88713c11.99268-.41997 11.07138 12.12676 11.07138 12.12676V903.606c0 10.25249-10.68731 10.93573-10.68731 10.93573h-86.10387c-8.19194-.39989-9.50539-9.76067-9.50539-9.76067v-84.15612s-.0749-12.11535 11.33806-12.11535z" style="opacity:1;mix-blend-mode:normal;fill:#f55948;fill-opacity:1;stroke-width:7.55906;stroke-linecap:round;stroke-linejoin:round;stroke-dasharray:7.55906,15.1181" transform="rotate(13.472606 874.6857 1313.4772)"/><g style="display:inline" transform="rotate(13.472606 883.147137 1313.89816486)"><circle cx="722.94879" cy="854.53064" r="3.4077702" style="fill:#272727;fill-opacity:1;stroke:none;stroke-width:3.77953;stroke-linecap:round;stroke-linejoin:round;stroke-dasharray:none;stroke-dashoffset:0;stroke-opacity:1"/><circle cx="753.09442" cy="854.53064" r="3.4077702" style="fill:#272727;fill-opacity:1;stroke:none;stroke-width:3.77953;stroke-linecap:round;stroke-linejoin:round;stroke-dasharray:none;stroke-dashoffset:0;stroke-opacity:1"/><path d="M724.25957 873.99424h27.39322" style="fill:none;fill-opacity:1;stroke:#222;stroke-width:3.77953;stroke-linecap:round;stroke-linejoin:round;stroke-dasharray:none;stroke-dashoffset:0;stroke-opacity:1"/></g></g></g></svg>