<svg xmlns="http://www.w3.org/2000/svg" xmlns:xlink="http://www.w3.org/1999/xlink" xml:space="preserve" width="1907.6797" height="1083.2441"><defs><linearGradient id="c"><stop offset="0" style="stop-color:#4294dd;stop-opacity:1"/><stop offset="1" style="stop-color:#4294dd;stop-opacity:0"/></linearGradient><linearGradient id="b"><stop offset="0" style="stop-color:#f55948;stop-opacity:1"/><stop offset="1" style="stop-color:#f55948;stop-opacity:0"/></linearGradient><linearGradient id="a"><stop offset="0" style="stop-color:#f55948;stop-opacity:1"/><stop offset="1" style="stop-color:#f55948;stop-opacity:0"/></linearGradient><linearGradient xlink:href="#a" id="j" x1="711.36292" x2="481.12927" y1="878.1347" y2="551.9704" gradientUnits="userSpaceOnUse"/></defs><g style="display:inline"><g style="display:inline"><g style="display:inline;opacity:.5" transform="translate(8.3496093 4.1738283)"><path id="d" d="M41.942602 169.08311H1858.8889" style="fill:none;fill-opacity:1;stroke:#a4a4a4;stroke-width:1.00157;stroke-linecap:round;stroke-linejoin:round;stroke-dasharray:none;stroke-opacity:1"/><use xlink:href="#d" transform="translate(0 108.38845)"/><use xlink:href="#d" transform="translate(0 211.80602)"/><use xlink:href="#d" transform="translate(0 319.80611)"/><use xlink:href="#d" transform="translate(0 425.70912)"/><use xlink:href="#d" transform="translate(0 532.34891)"/><use xlink:href="#d" transform="translate(0 639.11526)"/></g><g style="display:inline;opacity:.5" transform="translate(8.3496093 4.1738283)"><path id="e" d="M899.6513 58.7185v859.8066" style="fill:none;fill-opacity:1;stroke:#a4a4a4;stroke-width:1.00157;stroke-linecap:round;stroke-linejoin:round;stroke-dasharray:none;stroke-opacity:1"/><use xlink:href="#e" transform="translate(105.90301)"/><use xlink:href="#e" transform="translate(212.85456)"/><use xlink:href="#e" transform="translate(316.66048)"/><use xlink:href="#e" transform="translate(424.66058)"/><use xlink:href="#e" transform="translate(533.70922)"/><use xlink:href="#e" transform="translate(640.66077)"/><use xlink:href="#e" transform="translate(744.46669)"/><use xlink:href="#e" transform="translate(854.56388)"/><use xlink:href="#e" transform="translate(960.46689)"/><use xlink:href="#e" transform="translate(-108.0001)"/><use xlink:href="#e" transform="translate(-214.95165)"/><use xlink:href="#e" transform="translate(-322.95174)"/><use xlink:href="#e" transform="translate(-427.80621)"/><use xlink:href="#e" transform="translate(-533.70922)"/><use xlink:href="#e" transform="translate(-640.56368)"/><use xlink:href="#e" transform="translate(-750.66087)"/></g></g><path d="M-8.3496094-4.1738281V1079.0703H1899.3301V-4.1738281ZM42.800781 60.527344H1859.5801V701.76953h-94.8242c-6.9499 0-12.545 5.5951-12.545 12.54492v94.45508h-108.0371v-18.77344h-.07v-77.1582c0-6.54101-5.2656-11.80664-11.8066-11.80664H1444.125c-6.541 0-11.8066 5.26563-11.8066 11.80664v82.64844c0 6.54101 5.2656 11.80664 11.8066 11.80664h95.168c0 132.54129.025-45.60976.025 106.89062H471.81836V608.12891c0-7.35863-5.92458-13.28321-13.2832-13.28321H378.9707c-7.35862 0-13.2832 5.92458-13.2832 13.28321v306.05468H42.800781ZM803.14453 593.2793c-6.70609 0-12.10547 5.39937-12.10547 12.10547v190.24804c0 6.70609 5.39938 12.10547 12.10547 12.10547h83.2793c6.70609 0 12.10547-5.39938 12.10547-12.10547V605.38477c0-6.7061-5.39938-12.10547-12.10547-12.10547zm214.01957 1.49023c-6.7061 0-12.1055 5.39938-12.1055 12.10547v82.78906c0 6.70609 5.3994 12.10547 12.1055 12.10547h294.5742c6.7061 0 12.1055-5.39938 12.1055-12.10547V606.875c0-6.70609-5.3994-12.10547-12.1055-12.10547z" style="fill:#a49e9a;fill-opacity:1;stroke:none;stroke-width:37.7953;stroke-linecap:square;stroke-linejoin:round" transform="translate(8.3496093 4.1738283)"/><g style="display:inline"><path d="M696.06846 808.50959h83.88713c11.99268-.41997 11.07138 12.12676 11.07138 12.12676V903.606c0 10.25249-10.68731 10.93573-10.68731 10.93573h-86.10387c-8.19194-.39989-9.50539-9.76067-9.50539-9.76067v-84.15612s-.0749-12.11535 11.33806-12.11535z" style="opacity:1;mix-blend-mode:normal;fill:#f55948;fill-opacity:1;stroke-width:7.55906;stroke-linecap:round;stroke-linejoin:round;stroke-dasharray:7.55906,15.1181" transform="translate(116.0469293 -316.9080217)"/><g style="display:inline" transform="translate(115.91215917 -318.8909553)"><circle cx="722.94879" cy="854.53064" r="3.4077702" style="fill:#272727;fill-opacity:1;stroke:none;stroke-width:3.77953;stroke-linecap:round;stroke-linejoin:round;stroke-dasharray:none;stroke-dashoffset:0;stroke-opacity:1"/><circle cx="753.09442" cy="854.53064" r="3.4077702" style="fill:#272727;fill-opacity:1;stroke:none;stroke-width:3.77953;stroke-linecap:round;stroke-linejoin:round;stroke-dasharray:none;stroke-dashoffset:0;stroke-opacity:1"/><path d="M724.25957 873.99424h27.39322" style="fill:none;fill-opacity:1;stroke:#222;stroke-width:3.77953;stroke-linecap:round;stroke-linejoin:round;stroke-dasharray:none;stroke-dashoffset:0;stroke-opacity:1"/></g></g><g style="display:inline"><path d="M696.06846 808.50959h83.88713c11.99268-.41997 11.07138 12.12676 11.07138 12.12676V903.606c0 10.25249-10.68731 10.93573-10.68731 10.93573h-86.10387c-8.19194-.39989-9.50539-9.76067-9.50539-9.76067v-84.15612s-.0749-12.11535 11.33806-12.11535z" style="opacity:1;mix-blend-mode:normal;fill:#4294dd;fill-opacity:1;stroke-width:7.55906;stroke-linecap:round;stroke-linejoin:round;stroke-dasharray:7.55906,15.1181" transform="translate(330.0355493 -315.5220517)"/><g style="display:inline" transform="translate(329.90077917 -317.5049853)"><circle cx="722.94879" cy="854.53064" r="3.4077702" style="fill:#272727;fill-opacity:1;stroke:none;stroke-width:3.77953;stroke-linecap:round;stroke-linejoin:round;stroke-dasharray:none;stroke-dashoffset:0;stroke-opacity:1"/><circle cx="753.09442" cy="854.53064" r="3.4077702" style="fill:#272727;fill-opacity:1;stroke:none;stroke-width:3.77953;stroke-linecap:round;stroke-linejoin:round;stroke-dasharray:none;stroke-dashoffset:0;stroke-opacity:1"/><path d="M724.25957 873.99424h27.39322" style="fill:none;fill-opacity:1;stroke:#222;stroke-width:3.77953;stroke-linecap:round;stroke-linejoin:round;stroke-dasharray:none;stroke-dashoffset:0;stroke-opacity:1"/></g></g><g style="display:inline"><path d="M781.04163 704.48342c-.34997-.0114-.71116-.0112-1.08594.002h-83.88671c-11.41296 0-11.3379 12.11524-11.3379 12.11524.90943 62.73971 0 188.17969 0 188.17969s1.31197 9.36182 9.50391 9.76171h86.10547s10.68555-.68305 10.68555-10.93554c-1.00839-62.37969 0-124.55813 0-186.99414 0 0 .86472-11.7748-9.98438-12.12891z" style="opacity:1;mix-blend-mode:normal;fill:#4294dd;fill-opacity:1;stroke-width:7.55906;stroke-linecap:round;stroke-linejoin:round;stroke-dasharray:7.55906,15.1181" transform="translate(116.0470693 -528.8289217)"/><g style="display:inline" transform="translate(115.91229917 -582.1171507)"><circle cx="722.94879" cy="854.53064" r="3.4077702" style="fill:#272727;fill-opacity:1;stroke:none;stroke-width:3.77953;stroke-linecap:round;stroke-linejoin:round;stroke-dasharray:none;stroke-dashoffset:0;stroke-opacity:1"/><circle cx="753.09442" cy="854.53064" r="3.4077702" style="fill:#272727;fill-opacity:1;stroke:none;stroke-width:3.77953;stroke-linecap:round;stroke-linejoin:round;stroke-dasharray:none;stroke-dashoffset:0;stroke-opacity:1"/><path d="M724.25957 873.99424h27.39322" style="fill:none;fill-opacity:1;stroke:#222;stroke-width:3.77953;stroke-linecap:round;stroke-linejoin:round;stroke-dasharray:none;stroke-dashoffset:0;stroke-opacity:1"/></g></g><g style="display:inline"><path d="M696.06846 808.50959h83.88713c11.99268-.41997 11.07138 12.12676 11.07138 12.12676V903.606c0 10.25249-10.68731 10.93573-10.68731 10.93573h-86.10387c-8.19194-.39989-9.50539-9.76067-9.50539-9.76067v-84.15612s-.0749-12.11535 11.33806-12.11535z" style="opacity:1;mix-blend-mode:normal;fill:#f5a633;fill-opacity:1;stroke-width:7.55906;stroke-linecap:round;stroke-linejoin:round;stroke-dasharray:7.55906,15.1181" transform="rotate(-.322802 -74257.04625519 -19948.44655986)"/><g style="display:inline" transform="rotate(-.322802 -74608.93885518 -19923.53412418)"><circle cx="722.94879" cy="854.53064" r="3.4077702" style="fill:#272727;fill-opacity:1;stroke:none;stroke-width:3.77953;stroke-linecap:round;stroke-linejoin:round;stroke-dasharray:none;stroke-dashoffset:0;stroke-opacity:1"/><circle cx="753.09442" cy="854.53064" r="3.4077702" style="fill:#272727;fill-opacity:1;stroke:none;stroke-width:3.77953;stroke-linecap:round;stroke-linejoin:round;stroke-dasharray:none;stroke-dashoffset:0;stroke-opacity:1"/><path d="M724.25957 873.99424h27.39322" style="fill:none;fill-opacity:1;stroke:#222;stroke-width:3.77953;stroke-linecap:round;stroke-linejoin:round;stroke-dasharray:none;stroke-dashoffset:0;stroke-opacity:1"/></g></g><g style="display:inline"><path d="M696.06846 808.50959h83.88713c11.99268-.41997 11.07138 12.12676 11.07138 12.12676V903.606c0 10.25249-10.68731 10.93573-10.68731 10.93573h-86.10387c-8.19194-.39989-9.50539-9.76067-9.50539-9.76067v-84.15612s-.0749-12.11535 11.33806-12.11535z" style="opacity:1;mix-blend-mode:normal;fill:#f5a633;fill-opacity:1;stroke-width:7.55906;stroke-linecap:round;stroke-linejoin:round;stroke-dasharray:7.55906,15.1181" transform="rotate(-.322802 -16763.02325519 -171115.88355986)"/><g style="display:inline" transform="rotate(-.322802 -17114.91585518 -171090.97112418)"><circle cx="722.94879" cy="854.53064" r="3.4077702" style="fill:#272727;fill-opacity:1;stroke:none;stroke-width:3.77953;stroke-linecap:round;stroke-linejoin:round;stroke-dasharray:none;stroke-dashoffset:0;stroke-opacity:1"/><circle cx="753.09442" cy="854.53064" r="3.4077702" style="fill:#272727;fill-opacity:1;stroke:none;stroke-width:3.77953;stroke-linecap:round;stroke-linejoin:round;stroke-dasharray:none;stroke-dashoffset:0;stroke-opacity:1"/><path d="M724.25957 873.99424h27.39322" style="fill:none;fill-opacity:1;stroke:#222;stroke-width:3.77953;stroke-linecap:round;stroke-linejoin:round;stroke-dasharray:none;stroke-dashoffset:0;stroke-opacity:1"/></g></g></g><g style="display:inline"><path d="M696.06846 808.50959h83.88713c11.99268-.41997 11.07138 12.12676 11.07138 12.12676 7.71359 31.51335 8.96423 59.79521 0 82.96965 0 10.25249-10.68731 10.93573-10.68731 10.93573h-86.10387c-8.19194-.39989-9.50539-9.76067-9.50539-9.76067 10.77245-28.05204 8.65938-56.10408 0-84.15612 0 0-.0749-12.11535 11.33806-12.11535z" style="opacity:1;mix-blend-mode:normal;fill:#f55948;fill-opacity:1;stroke-width:7.55906;stroke-linecap:round;stroke-linejoin:round;stroke-dasharray:7.55906,15.1181" transform="translate(8.3496093 4.1738283)"/><g style="display:inline" transform="translate(16.3026484 1.6691006)"><circle id="f" cx="722.94879" cy="854.53064" r="3.4077702" style="fill:#272727;fill-opacity:1;stroke:none;stroke-width:3.77953;stroke-linecap:round;stroke-linejoin:round;stroke-dasharray:none;stroke-dashoffset:0;stroke-opacity:1"/><use xlink:href="#f" transform="translate(30.145656)"/><path d="M724.25957 873.99424h27.39322" style="fill:none;fill-opacity:1;stroke:#222;stroke-width:3.77953;stroke-linecap:round;stroke-linejoin:round;stroke-dasharray:none;stroke-dashoffset:0;stroke-opacity:1"/></g><g style="stroke-width:.951816"><path d="M739.45703 715.22656c-.97611-.0543-1.96159.22826-2.75.94922-11.31505 11.251-22.57253 22.56347-33.86523 33.83789-2.66928 2.2333-1.12551 7.20107 2.42382 7.31836 8.02459.0468 16.05082.006 24.07618.0195-1.29921 3.88607-2.59729 7.77214-3.89649 11.65821-.93301 3.13285-2.31687 6.16637-2.90039 9.37695-.2119 3.44551 4.33431 5.56103 6.87305 3.26367 11.3174-11.24908 22.57359-22.56184 33.86719-33.83594 2.71998-2.22347 1.02039-7.06901-2.42579-7.28711-8.01403-.0512-16.03192-.007-24.04687-.0215 1.29303-3.88487 2.58783-7.76943 3.88086-11.6543.9294-3.14374 2.31818-6.18692 2.88672-9.41015.1275-2.33942-1.97561-4.09531-4.12305-4.21485zm-.0664 4.21485-8.4375 25.2539h29.47266l-33.69141 33.69141 8.4375-25.25391h-29.47265z" style="font-size:60px;line-height:1;font-family:&quot;Mplus 1&quot;;-inkscape-font-specification:&quot;Mplus 1, &quot;;letter-spacing:0;word-spacing:0;display:inline;fill:#222;fill-opacity:1;stroke-width:7.19484;stroke-linecap:round;stroke-linejoin:round;stroke-dasharray:7.19484,14.3897" transform="matrix(.77475977 .56764507 -.55654879 1.0169429 656.4752193 -417.5794817)"/><path d="m739.39062 719.44141-33.6914 33.6914h29.47265l-8.4375 25.25391 33.69141-33.69141h-29.47266z" style="font-size:60px;line-height:1;font-family:&quot;Mplus 1&quot;;-inkscape-font-specification:&quot;Mplus 1, &quot;;letter-spacing:0;word-spacing:0;display:inline;fill:#fc0;fill-opacity:1;stroke:none;stroke-width:7.19484;stroke-linecap:round;stroke-linejoin:round;stroke-dasharray:7.19484,14.3897;stroke-dashoffset:0" transform="matrix(.77475977 .56764507 -.55654879 1.0169429 656.4752193 -417.5794817)"/></g><g transform="translate(-31.3087917 -.3865464)"><path id="g" d="m740.05369 531.10649-3.59069 3.58873c-1.22252 1.22271-1.22252 3.20416 0 4.42685l14.15877 14.15103-14.38219 14.37429c-1.2225 1.22269-1.2225 3.20414 0 4.42683l3.58747 3.58873c1.22372 1.22399 3.20876 1.22399 4.43249 0l14.38221-14.37752 14.38217 14.37752c1.22337 1.22183 3.2059 1.22183 4.42926 0l3.59072-3.58873c1.2225-1.22269 1.2225-3.20414 0-4.42683l-14.38219-14.37429 14.15876-14.15103c1.2225-1.22269 1.2225-3.20414 0-4.42685l-3.59068-3.58873c-1.22336-1.22185-3.20592-1.22185-4.42928 0l-14.15876 14.15103-14.15879-14.15103c-1.22336-1.22183-3.20591-1.22183-4.42927 0z" style="-inkscape-font-specification:&quot;Mplus 1, &quot;;fill:#f55948;stroke:#fff;stroke-width:.999997;stroke-linecap:round;stroke-linejoin:round;stroke-opacity:1"/><use xlink:href="#g" id="h" x="0" y="0" transform="translate(0 -138.60248)"/><use xlink:href="#h" transform="translate(0 -154.01259)"/></g><g style="display:inline;stroke-width:5.66929;stroke-dasharray:none" transform="translate(12.6996715 -3.2698203)"><g id="i" style="stroke-width:5.66929;stroke-dasharray:none"><path d="M769.82332 552.3676h-16.57027c-7.23547 0-14.43234 1.95912-14.43234 16.21344v20.85821" style="fill:none;fill-opacity:1;stroke:#fff;stroke-width:5.66929;stroke-linecap:round;stroke-linejoin:round;stroke-dasharray:none;stroke-dashoffset:0;stroke-opacity:1" transform="translate(0 21.501558)"/><path d="m728.3883 583.16424 9.77614 9.20891 10.47444-9.86669" style="fill:none;fill-opacity:1;stroke:#fff;stroke-width:5.66929;stroke-linecap:round;stroke-linejoin:round;stroke-dasharray:none;stroke-dashoffset:0;stroke-opacity:1" transform="translate(0 21.501558)"/></g><use xlink:href="#i" style="stroke-width:5.66929;stroke-dasharray:none" transform="translate(0 -135.70413)"/><use xlink:href="#i" style="stroke-width:5.66929;stroke-dasharray:none" transform="translate(0 -288.72991)"/></g><g style="stroke-width:6.06216;stroke-dasharray:none"><path d="m812.57282 886.41271-5.40127 28.17446M822.49125 883.66415l-4.9774 26.69159M792.04597 919.42738l-26.14881 3.33645M757.49903 933.27881l34.93687-4.81931" style="fill:none;fill-opacity:1;stroke:#fff;stroke-width:4.04144;stroke-linecap:round;stroke-linejoin:round;stroke-dasharray:none;stroke-opacity:1" transform="matrix(.87458747 0 0 1 107.9600653 12.7646202)"/></g><path d="M376.9504 487.13622h83.88713c11.99268-.41997 11.07138 12.12676 11.07138 12.12676v82.96965c0 10.25249-10.68731 10.93573-10.68731 10.93573h-86.10387c-8.19194-.39989-9.50539-9.76067-9.50539-9.76067v-84.15612s-.0749-12.11535 11.33806-12.11535z" style="display:inline;opacity:1;mix-blend-mode:normal;fill:#f55948;fill-opacity:.2;stroke:#f55948;stroke-width:6.04724;stroke-linecap:round;stroke-linejoin:round;stroke-dasharray:6.04724,18.1417;stroke-dashoffset:0;stroke-opacity:1" transform="translate(8.3496093 4.1738283)"/><path d="m447.52344 542.49023-.29492 37.79297 18.89648.14844c9.5719.0747 14.25495 2.55379 19.7207 8.42773 5.46576 5.87395 10.82734 16.23241 15.19727 30.14649 8.73986 27.82817 13.47606 68.40666 21.50976 109.39453 8.03371 40.98787 19.28842 83.14364 45.77149 115.37109 26.48307 32.22746 69.47011 51.50306 128.74609 45.37305l18.79688-1.94531-3.88867-37.59375-18.79688 1.94336c-50.22081 5.19357-76.41607-8.35992-95.65625-31.77344-19.24018-23.41352-30.25136-59.70894-37.88281-98.64453-7.63146-38.93559-11.95836-79.75352-22.54102-113.44922-5.29132-16.84785-12.15445-32.28315-23.58594-44.56836-11.43148-12.2852-28.31994-20.33011-47.0957-20.47656z" style="opacity:.8;fill:url(#j);fill-opacity:1;stroke-linecap:square;stroke-linejoin:round" transform="translate(8.3496093 4.1738283)"/><g style="display:inline;stroke-width:.602749"><path d="M682.17137 883.92411c-31.86172.013-41.79234.026-73.65407.0234v18.1875l-46.11719-34.76953 46.11719-34.23438v18.18555h73.65407z" style="font-size:140.107px;line-height:1;font-family:&quot;Mplus 1&quot;;-inkscape-font-specification:&quot;Mplus 1, &quot;;letter-spacing:0;word-spacing:0;display:inline;fill:#222;stroke:#fff;stroke-width:2.27811;stroke-linecap:round;stroke-linejoin:round;stroke-dasharray:none;stroke-opacity:1" transform="matrix(-1.6590651 0 0 1.6590651 1590.4380093 -548.0159117)"/><text xml:space="preserve" x="-724.96735" y="817.04016" style="font-style:normal;font-variant:normal;font-weight:500;font-stretch:normal;font-size:23.6054px;line-height:1;font-family:&quot;Corporate Logo ver2&quot;;-inkscape-font-specification:&quot;Corporate Logo ver2 Medium&quot;;text-align:start;letter-spacing:0;word-spacing:0;writing-mode:lr-tb;direction:ltr;text-anchor:start;fill:none;fill-opacity:1;stroke:#222;stroke-width:4.55621;stroke-linecap:round;stroke-linejoin:round;stroke-dasharray:none;stroke-dashoffset:0;stroke-opacity:1" transform="matrix(1.544536 0 0 1.7820866 1590.4380093 -548.0159117)"><tspan x="-724.96735" y="817.04016" style="font-style:normal;font-variant:normal;font-weight:500;font-stretch:normal;font-family:&quot;Corporate Logo ver2&quot;;-inkscape-font-specification:&quot;Corporate Logo ver2 Medium&quot;;fill:#fff;fill-opacity:1;stroke:none;stroke-width:4.55621">PUSH</tspan></text></g></g></svg>