<svg xmlns="http://www.w3.org/2000/svg" xmlns:xlink="http://www.w3.org/1999/xlink" xml:space="preserve" viewBox="0 0 1895 1072"><defs><linearGradient id="c"><stop offset="0" stop-color="#3f74a3"/><stop offset="1" stop-color="#3f74a3" stop-opacity="0"/></linearGradient><linearGradient id="b"><stop offset="0" stop-color="#f55948"/><stop offset="1" stop-color="#f55948" stop-opacity="0"/></linearGradient><linearGradient id="a"><stop offset="0" stop-color="#f55948"/><stop offset="1" stop-color="#f55948" stop-opacity="0"/></linearGradient><linearGradient xlink:href="#a" id="j" x1="458.99142" x2="700.29401" y1="564.5152" y2="902.48639" gradientUnits="userSpaceOnUse"/><linearGradient xlink:href="#b" id="m" x1="673.86139" x2="732.30237" y1="483.18137" y2="789.99634" gradientUnits="userSpaceOnUse"/><linearGradient xlink:href="#c" id="n" x1="1234.5649" x2="1022.7166" y1="443.52505" y2="927.75" gradientUnits="userSpaceOnUse"/></defs><g opacity=".5"><path id="d" fill="none" fill-opacity="1" stroke="#a4a4a4" stroke-dasharray="none" stroke-linecap="round" stroke-linejoin="round" stroke-opacity="1" stroke-width="1.00157" d="M41.942602 169.08311H1858.8889"/><use xlink:href="#d" transform="translate(0 108.38845)"/><use xlink:href="#d" transform="translate(0 211.80602)"/><use xlink:href="#d" transform="translate(0 319.80611)"/><use xlink:href="#d" transform="translate(0 425.70912)"/><use xlink:href="#d" transform="translate(0 532.34891)"/><use xlink:href="#d" transform="translate(0 639.11526)"/></g><g opacity=".5"><path id="e" fill="none" fill-opacity="1" stroke="#a4a4a4" stroke-dasharray="none" stroke-linecap="round" stroke-linejoin="round" stroke-opacity="1" stroke-width="1.00157" d="M899.6513 58.7185v859.8066"/><use xlink:href="#e" transform="translate(105.90301)"/><use xlink:href="#e" transform="translate(212.85456)"/><use xlink:href="#e" transform="translate(316.66048)"/><use xlink:href="#e" transform="translate(424.66058)"/><use xlink:href="#e" transform="translate(533.70922)"/><use xlink:href="#e" transform="translate(640.66077)"/><use xlink:href="#e" transform="translate(744.46669)"/><use xlink:href="#e" transform="translate(854.56388)"/><use xlink:href="#e" transform="translate(960.46689)"/><use xlink:href="#e" transform="translate(-108.0001)"/><use xlink:href="#e" transform="translate(-214.95165)"/><use xlink:href="#e" transform="translate(-322.95174)"/><use xlink:href="#e" transform="translate(-427.80621)"/><use xlink:href="#e" transform="translate(-533.70922)"/><use xlink:href="#e" transform="translate(-640.56368)"/><use xlink:href="#e" transform="translate(-750.66087)"/></g><path fill="#a49e9a" d="M-8.3496094-4.1738281V1079.0703H1899.3301V-4.1738281ZM42.800781 60.527344H1859.5801V701.76953h-94.8242c-6.9499 0-12.545 5.5951-12.545 12.54492v94.45508h-108.0371v-18.77344h-.07v-77.1582c0-6.54101-5.2656-11.80664-11.8066-11.80664H1444.125c-6.541 0-11.8066 5.26563-11.8066 11.80664v82.64844c0 6.54101 5.2656 11.80664 11.8066 11.80664h95.168c0 132.54129.025-45.60976.025 106.89062H471.81836V608.12891c0-7.35863-5.92458-13.28321-13.2832-13.28321H378.9707c-7.35862 0-13.2832 5.92458-13.2832 13.28321v306.05468H42.800781ZM803.14453 593.2793c-6.70609 0-12.10547 5.39937-12.10547 12.10547v190.24804c0 6.70609 5.39938 12.10547 12.10547 12.10547h83.2793c6.70609 0 12.10547-5.39938 12.10547-12.10547V605.38477c0-6.7061-5.39938-12.10547-12.10547-12.10547zm214.01957 1.49023c-6.7061 0-12.1055 5.39938-12.1055 12.10547v82.78906c0 6.70609 5.3994 12.10547 12.1055 12.10547h294.5742c6.7061 0 12.1055-5.39938 12.1055-12.10547V606.875c0-6.70609-5.3994-12.10547-12.1055-12.10547z"/><path fill="#f55948" d="M696.06846 808.50959h83.88713c11.99268-.41997 11.07138 12.12676 11.07138 12.12676V903.606c0 10.25249-10.68731 10.93573-10.68731 10.93573h-86.10387c-8.19194-.39989-9.50539-9.76067-9.50539-9.76067v-84.15612s-.0749-12.11535 11.33806-12.11535z" style="mix-blend-mode:normal" transform="translate(-319.38364 -319.78795)"/><g transform="translate(-319.51841013 -321.7708836)"><circle cx="722.94879" cy="854.53064" r="3.4077702" fill="#272727"/><circle cx="753.09442" cy="854.53064" r="3.4077702" fill="#272727"/><path fill="none" stroke="#222" stroke-linecap="round" stroke-linejoin="round" stroke-width="3.77953" d="M724.25957 873.99424h27.39322"/></g><path fill="#f55948" d="M696.06846 808.50959h83.88713c11.99268-.41997 11.07138 12.12676 11.07138 12.12676V903.606c0 10.25249-10.68731 10.93573-10.68731 10.93573h-86.10387c-8.19194-.39989-9.50539-9.76067-9.50539-9.76067v-84.15612s-.0749-12.11535 11.33806-12.11535z" style="mix-blend-mode:normal" transform="translate(107.69732 -321.08185)"/><g transform="translate(107.56254987 -323.0647836)"><circle cx="722.94879" cy="854.53064" r="3.4077702" fill="#272727"/><circle cx="753.09442" cy="854.53064" r="3.4077702" fill="#272727"/><path fill="none" stroke="#222" stroke-linecap="round" stroke-linejoin="round" stroke-width="3.77953" d="M724.25957 873.99424h27.39322"/></g><path fill="#4294dd" d="M696.06846 808.50959h83.88713c11.99268-.41997 11.07138 12.12676 11.07138 12.12676V903.606c0 10.25249-10.68731 10.93573-10.68731 10.93573h-86.10387c-8.19194-.39989-9.50539-9.76067-9.50539-9.76067v-84.15612s-.0749-12.11535 11.33806-12.11535z" style="mix-blend-mode:normal" transform="translate(321.68594 -319.69588)"/><g transform="translate(321.55116987 -321.6788136)"><circle cx="722.94879" cy="854.53064" r="3.4077702" fill="#272727"/><circle cx="753.09442" cy="854.53064" r="3.4077702" fill="#272727"/><path fill="none" stroke="#222" stroke-linecap="round" stroke-linejoin="round" stroke-width="3.77953" d="M724.25957 873.99424h27.39322"/></g><path fill="#4294dd" d="M781.04163 704.48342c-.34997-.0114-.71116-.0112-1.08594.002h-83.88671c-11.41296 0-11.3379 12.11524-11.3379 12.11524.90943 62.73971 0 188.17969 0 188.17969s1.31197 9.36182 9.50391 9.76171h86.10547s10.68555-.68305 10.68555-10.93554c-1.00839-62.37969 0-124.55813 0-186.99414 0 0 .86472-11.7748-9.98438-12.12891z" style="mix-blend-mode:normal" transform="translate(107.69746 -533.00275)"/><g transform="translate(107.56268987 -586.290979)"><circle cx="722.94879" cy="854.53064" r="3.4077702" fill="#272727"/><circle cx="753.09442" cy="854.53064" r="3.4077702" fill="#272727"/><path fill="none" stroke="#222" stroke-linecap="round" stroke-linejoin="round" stroke-width="3.77953" d="M724.25957 873.99424h27.39322"/></g><path fill="#f5a633" d="M696.06846 808.50959h83.88713c11.99268-.41997 11.07138 12.12676 11.07138 12.12676V903.606c0 10.25249-10.68731 10.93573-10.68731 10.93573h-86.10387c-8.19194-.39989-9.50539-9.76067-9.50539-9.76067v-84.15612s-.0749-12.11535 11.33806-12.11535z" style="mix-blend-mode:normal" transform="rotate(-.322802 -75002.053 -18468.523)"/><g transform="rotate(-.322802 -75353.9456 -18443.61056432)"><circle cx="722.94879" cy="854.53064" r="3.4077702" fill="#272727"/><circle cx="753.09442" cy="854.53064" r="3.4077702" fill="#272727"/><path fill="none" stroke="#222" stroke-linecap="round" stroke-linejoin="round" stroke-width="3.77953" d="M724.25957 873.99424h27.39322"/></g><path fill="#f5a633" d="M696.06846 808.50959h83.88713c11.99268-.41997 11.07138 12.12676 11.07138 12.12676V903.606c0 10.25249-10.68731 10.93573-10.68731 10.93573h-86.10387c-8.19194-.39989-9.50539-9.76067-9.50539-9.76067v-84.15612s-.0749-12.11535 11.33806-12.11535z" style="mix-blend-mode:normal" transform="rotate(-.322802 -17508.03 -169635.96)"/><g transform="rotate(-.322802 -17859.9226 -169611.04756432)"><circle cx="722.94879" cy="854.53064" r="3.4077702" fill="#272727"/><circle cx="753.09442" cy="854.53064" r="3.4077702" fill="#272727"/><path fill="none" stroke="#222" stroke-linecap="round" stroke-linejoin="round" stroke-width="3.77953" d="M724.25957 873.99424h27.39322"/></g></svg>