<svg xmlns="http://www.w3.org/2000/svg" xmlns:xlink="http://www.w3.org/1999/xlink" xml:space="preserve" width="1895" height="1072"><g style="display:inline"><g style="display:inline"><g style="display:inline;opacity:.5"><path id="a" d="M41.942602 169.08311H1858.8889" style="fill:none;fill-opacity:1;stroke:#a4a4a4;stroke-width:1.00157;stroke-linecap:round;stroke-linejoin:round;stroke-dasharray:none;stroke-opacity:1"/><use xlink:href="#a" transform="translate(0 108.38845)"/><use xlink:href="#a" transform="translate(0 211.80602)"/><use xlink:href="#a" transform="translate(0 319.80611)"/><use xlink:href="#a" transform="translate(0 425.70912)"/><use xlink:href="#a" transform="translate(0 532.34891)"/><use xlink:href="#a" transform="translate(0 639.11526)"/></g><g style="display:inline;opacity:.5"><path id="b" d="M899.6513 58.7185v859.8066" style="fill:none;fill-opacity:1;stroke:#a4a4a4;stroke-width:1.00157;stroke-linecap:round;stroke-linejoin:round;stroke-dasharray:none;stroke-opacity:1"/><use xlink:href="#b" transform="translate(105.90301)"/><use xlink:href="#b" transform="translate(212.85456)"/><use xlink:href="#b" transform="translate(316.66048)"/><use xlink:href="#b" transform="translate(424.66058)"/><use xlink:href="#b" transform="translate(533.70922)"/><use xlink:href="#b" transform="translate(640.66077)"/><use xlink:href="#b" transform="translate(744.46669)"/><use xlink:href="#b" transform="translate(854.56388)"/><use xlink:href="#b" transform="translate(960.46689)"/><use xlink:href="#b" transform="translate(-108.0001)"/><use xlink:href="#b" transform="translate(-214.95165)"/><use xlink:href="#b" transform="translate(-322.95174)"/><use xlink:href="#b" transform="translate(-427.80621)"/><use xlink:href="#b" transform="translate(-533.70922)"/><use xlink:href="#b" transform="translate(-640.56368)"/><use xlink:href="#b" transform="translate(-750.66087)"/></g></g><path d="M-8.3496094-4.1738281V1079.0703H1899.3301V-4.1738281ZM42.800781 60.527344H1859.5801V701.76953h-94.8242c-6.9499 0-12.545 5.5951-12.545 12.54492v94.45508h-108.0371v-18.77344h-.07v-77.1582c0-6.54101-5.2656-11.80664-11.8066-11.80664H1444.125c-6.541 0-11.8066 5.26563-11.8066 11.80664v82.64844c0 6.54101 5.2656 11.80664 11.8066 11.80664h95.168c0 132.54129.025-45.60976.025 106.89062H471.81836V608.12891c0-7.35863-5.92458-13.28321-13.2832-13.28321H378.9707c-7.35862 0-13.2832 5.92458-13.2832 13.28321v306.05468H42.800781ZM803.14453 593.2793c-6.70609 0-12.10547 5.39937-12.10547 12.10547v190.24804c0 6.70609 5.39938 12.10547 12.10547 12.10547h83.2793c6.70609 0 12.10547-5.39938 12.10547-12.10547V605.38477c0-6.7061-5.39938-12.10547-12.10547-12.10547zm214.01957 1.49023c-6.7061 0-12.1055 5.39938-12.1055 12.10547v82.78906c0 6.70609 5.3994 12.10547 12.1055 12.10547h294.5742c6.7061 0 12.1055-5.39938 12.1055-12.10547V606.875c0-6.70609-5.3994-12.10547-12.1055-12.10547z" style="fill:#a49e9a;fill-opacity:1;stroke:none;stroke-width:37.7953;stroke-linecap:square;stroke-linejoin:round"/><g style="display:inline"><path d="M696.06846 808.50959h83.88713c11.99268-.41997 11.07138 12.12676 11.07138 12.12676V903.606c0 10.25249-10.68731 10.93573-10.68731 10.93573h-86.10387c-8.19194-.39989-9.50539-9.76067-9.50539-9.76067v-84.15612s-.0749-12.11535 11.33806-12.11535z" style="opacity:1;mix-blend-mode:normal;fill:#f55948;fill-opacity:1;stroke-width:7.55906;stroke-linecap:round;stroke-linejoin:round;stroke-dasharray:7.55906,15.1181" transform="translate(-319.38364 -319.78795)"/><g style="display:inline" transform="translate(-319.51841013 -321.7708836)"><circle cx="722.94879" cy="854.53064" r="3.4077702" style="fill:#272727;fill-opacity:1;stroke:none;stroke-width:3.77953;stroke-linecap:round;stroke-linejoin:round;stroke-dasharray:none;stroke-dashoffset:0;stroke-opacity:1"/><circle cx="753.09442" cy="854.53064" r="3.4077702" style="fill:#272727;fill-opacity:1;stroke:none;stroke-width:3.77953;stroke-linecap:round;stroke-linejoin:round;stroke-dasharray:none;stroke-dashoffset:0;stroke-opacity:1"/><path d="M724.25957 873.99424h27.39322" style="fill:none;fill-opacity:1;stroke:#222;stroke-width:3.77953;stroke-linecap:round;stroke-linejoin:round;stroke-dasharray:none;stroke-dashoffset:0;stroke-opacity:1"/></g></g><g style="display:inline"><path d="M696.06846 808.50959h83.88713c11.99268-.41997 11.07138 12.12676 11.07138 12.12676V903.606c0 10.25249-10.68731 10.93573-10.68731 10.93573h-86.10387c-8.19194-.39989-9.50539-9.76067-9.50539-9.76067v-84.15612s-.0749-12.11535 11.33806-12.11535z" style="opacity:1;mix-blend-mode:normal;fill:#f55948;fill-opacity:1;stroke-width:7.55906;stroke-linecap:round;stroke-linejoin:round;stroke-dasharray:7.55906,15.1181" transform="translate(107.69732 -321.08185)"/><g style="display:inline" transform="translate(107.56254987 -323.0647836)"><circle cx="722.94879" cy="854.53064" r="3.4077702" style="fill:#272727;fill-opacity:1;stroke:none;stroke-width:3.77953;stroke-linecap:round;stroke-linejoin:round;stroke-dasharray:none;stroke-dashoffset:0;stroke-opacity:1"/><circle cx="753.09442" cy="854.53064" r="3.4077702" style="fill:#272727;fill-opacity:1;stroke:none;stroke-width:3.77953;stroke-linecap:round;stroke-linejoin:round;stroke-dasharray:none;stroke-dashoffset:0;stroke-opacity:1"/><path d="M724.25957 873.99424h27.39322" style="fill:none;fill-opacity:1;stroke:#222;stroke-width:3.77953;stroke-linecap:round;stroke-linejoin:round;stroke-dasharray:none;stroke-dashoffset:0;stroke-opacity:1"/></g></g><g style="display:inline"><path d="M696.06846 808.50959h83.88713c11.99268-.41997 11.07138 12.12676 11.07138 12.12676V903.606c0 10.25249-10.68731 10.93573-10.68731 10.93573h-86.10387c-8.19194-.39989-9.50539-9.76067-9.50539-9.76067v-84.15612s-.0749-12.11535 11.33806-12.11535z" style="opacity:1;mix-blend-mode:normal;fill:#4294dd;fill-opacity:1;stroke-width:7.55906;stroke-linecap:round;stroke-linejoin:round;stroke-dasharray:7.55906,15.1181" transform="translate(321.68594 -319.69588)"/><g style="display:inline" transform="translate(321.55116987 -321.6788136)"><circle cx="722.94879" cy="854.53064" r="3.4077702" style="fill:#272727;fill-opacity:1;stroke:none;stroke-width:3.77953;stroke-linecap:round;stroke-linejoin:round;stroke-dasharray:none;stroke-dashoffset:0;stroke-opacity:1"/><circle cx="753.09442" cy="854.53064" r="3.4077702" style="fill:#272727;fill-opacity:1;stroke:none;stroke-width:3.77953;stroke-linecap:round;stroke-linejoin:round;stroke-dasharray:none;stroke-dashoffset:0;stroke-opacity:1"/><path d="M724.25957 873.99424h27.39322" style="fill:none;fill-opacity:1;stroke:#222;stroke-width:3.77953;stroke-linecap:round;stroke-linejoin:round;stroke-dasharray:none;stroke-dashoffset:0;stroke-opacity:1"/></g></g><g style="display:inline"><path d="M781.04163 704.48342c-.34997-.0114-.71116-.0112-1.08594.002h-83.88671c-11.41296 0-11.3379 12.11524-11.3379 12.11524.90943 62.73971 0 188.17969 0 188.17969s1.31197 9.36182 9.50391 9.76171h86.10547s10.68555-.68305 10.68555-10.93554c-1.00839-62.37969 0-124.55813 0-186.99414 0 0 .86472-11.7748-9.98438-12.12891z" style="opacity:1;mix-blend-mode:normal;fill:#4294dd;fill-opacity:1;stroke-width:7.55906;stroke-linecap:round;stroke-linejoin:round;stroke-dasharray:7.55906,15.1181" transform="translate(107.69746 -533.00275)"/><g style="display:inline" transform="translate(107.56268987 -586.290979)"><circle cx="722.94879" cy="854.53064" r="3.4077702" style="fill:#272727;fill-opacity:1;stroke:none;stroke-width:3.77953;stroke-linecap:round;stroke-linejoin:round;stroke-dasharray:none;stroke-dashoffset:0;stroke-opacity:1"/><circle cx="753.09442" cy="854.53064" r="3.4077702" style="fill:#272727;fill-opacity:1;stroke:none;stroke-width:3.77953;stroke-linecap:round;stroke-linejoin:round;stroke-dasharray:none;stroke-dashoffset:0;stroke-opacity:1"/><path d="M724.25957 873.99424h27.39322" style="fill:none;fill-opacity:1;stroke:#222;stroke-width:3.77953;stroke-linecap:round;stroke-linejoin:round;stroke-dasharray:none;stroke-dashoffset:0;stroke-opacity:1"/></g></g><g style="display:inline"><path d="M696.06846 808.50959h83.88713c11.99268-.41997 11.07138 12.12676 11.07138 12.12676V903.606c0 10.25249-10.68731 10.93573-10.68731 10.93573h-86.10387c-8.19194-.39989-9.50539-9.76067-9.50539-9.76067v-84.15612s-.0749-12.11535 11.33806-12.11535z" style="opacity:1;mix-blend-mode:normal;fill:#f5a633;fill-opacity:1;stroke-width:7.55906;stroke-linecap:round;stroke-linejoin:round;stroke-dasharray:7.55906,15.1181" transform="rotate(-.322802 -75002.053 -18468.523)"/><g style="display:inline" transform="rotate(-.322802 -75353.9456 -18443.61056432)"><circle cx="722.94879" cy="854.53064" r="3.4077702" style="fill:#272727;fill-opacity:1;stroke:none;stroke-width:3.77953;stroke-linecap:round;stroke-linejoin:round;stroke-dasharray:none;stroke-dashoffset:0;stroke-opacity:1"/><circle cx="753.09442" cy="854.53064" r="3.4077702" style="fill:#272727;fill-opacity:1;stroke:none;stroke-width:3.77953;stroke-linecap:round;stroke-linejoin:round;stroke-dasharray:none;stroke-dashoffset:0;stroke-opacity:1"/><path d="M724.25957 873.99424h27.39322" style="fill:none;fill-opacity:1;stroke:#222;stroke-width:3.77953;stroke-linecap:round;stroke-linejoin:round;stroke-dasharray:none;stroke-dashoffset:0;stroke-opacity:1"/></g></g><g style="display:inline"><path d="M696.06846 808.50959h83.88713c11.99268-.41997 11.07138 12.12676 11.07138 12.12676V903.606c0 10.25249-10.68731 10.93573-10.68731 10.93573h-86.10387c-8.19194-.39989-9.50539-9.76067-9.50539-9.76067v-84.15612s-.0749-12.11535 11.33806-12.11535z" style="opacity:1;mix-blend-mode:normal;fill:#f5a633;fill-opacity:1;stroke-width:7.55906;stroke-linecap:round;stroke-linejoin:round;stroke-dasharray:7.55906,15.1181" transform="rotate(-.322802 -17508.03 -169635.96)"/><g style="display:inline" transform="rotate(-.322802 -17859.9226 -169611.04756432)"><circle cx="722.94879" cy="854.53064" r="3.4077702" style="fill:#272727;fill-opacity:1;stroke:none;stroke-width:3.77953;stroke-linecap:round;stroke-linejoin:round;stroke-dasharray:none;stroke-dashoffset:0;stroke-opacity:1"/><circle cx="753.09442" cy="854.53064" r="3.4077702" style="fill:#272727;fill-opacity:1;stroke:none;stroke-width:3.77953;stroke-linecap:round;stroke-linejoin:round;stroke-dasharray:none;stroke-dashoffset:0;stroke-opacity:1"/><path d="M724.25957 873.99424h27.39322" style="fill:none;fill-opacity:1;stroke:#222;stroke-width:3.77953;stroke-linecap:round;stroke-linejoin:round;stroke-dasharray:none;stroke-dashoffset:0;stroke-opacity:1"/></g></g></g><g style="display:inline"><g style="display:inline"><path d="M811.91168 600.06326h510.34492v108.53318h310.9591" style="display:inline;opacity:1;fill:none;fill-opacity:1;stroke:#fff;stroke-width:15.118;stroke-linecap:round;stroke-linejoin:round;stroke-dasharray:15.118,30.236;stroke-dashoffset:0;stroke-opacity:1"/><g style="stroke:#f5a633;stroke-width:7.55906;stroke-dasharray:none;stroke-opacity:1"><path d="M962.56397 432.00039s250.60213-4.19418 349.16533 23.06798c98.5632 27.26216 70.2525 114.29136 149.9419 163.57297 29.2529 18.09065 130.0196 46.13596 130.0196 46.13596" style="display:inline;fill:none;fill-opacity:1;stroke:#f5a633;stroke-width:7.55906;stroke-linecap:round;stroke-linejoin:round;stroke-dasharray:none;stroke-opacity:1"/><path d="m1581.126 642.15428 14.7589 25.24438-27.8905 8.90767" style="display:inline;fill:none;fill-opacity:1;stroke:#f5a633;stroke-width:7.55906;stroke-linecap:round;stroke-linejoin:round;stroke-dasharray:none;stroke-opacity:1"/></g><path d="M912.97586 621.87612c40.63505 53.83424 36.43545 244.46272 0 283.47821" style="fill:none;fill-opacity:1;stroke:#fff;stroke-width:3.77952756;stroke-linecap:round;stroke-linejoin:round;stroke-dasharray:none;stroke-opacity:1"/><text xml:space="preserve" x="959.65173" y="873.59467" style="font-style:normal;font-variant:normal;font-weight:800;font-stretch:normal;font-size:60px;line-height:1;font-family:&quot;Mplus 1&quot;;-inkscape-font-specification:&quot;Mplus 1 Ultra-Bold&quot;;text-align:start;letter-spacing:0;word-spacing:0;writing-mode:lr-tb;direction:ltr;text-anchor:start;fill:#fff;fill-opacity:1;stroke:none;stroke-width:3.77953;stroke-linecap:round;stroke-linejoin:round;stroke-dasharray:none;stroke-opacity:1"><tspan x="959.65173" y="873.59467" style="fill:#fff;fill-opacity:1;stroke:none;stroke-opacity:1">3段</tspan></text><text xml:space="preserve" x="1379.418" y="884.11957" style="font-style:normal;font-variant:normal;font-weight:800;font-stretch:normal;font-size:60px;line-height:1;font-family:&quot;Mplus 1&quot;;-inkscape-font-specification:&quot;Mplus 1 Ultra-Bold&quot;;text-align:start;letter-spacing:0;word-spacing:0;writing-mode:lr-tb;direction:ltr;text-anchor:start;fill:#fff;fill-opacity:1;stroke:none;stroke-width:3.77953;stroke-linecap:round;stroke-linejoin:round;stroke-dasharray:none;stroke-opacity:1"><tspan x="1379.418" y="884.11957" style="fill:#fff;fill-opacity:1;stroke:none;stroke-opacity:1">2段</tspan></text><path d="M1342.4502 734.04123c28.1941 33.09395 25.2803 150.28051 0 174.26481" style="fill:none;fill-opacity:1;stroke:#fff;stroke-width:3.77952756;stroke-linecap:round;stroke-linejoin:round;stroke-dasharray:none;stroke-opacity:1"/></g><g style="display:inline"><text xml:space="preserve" x="491.94489" y="603.54486" style="font-weight:700;font-size:110px;line-height:1;font-family:&quot;Corporate Logo ver2&quot;;-inkscape-font-specification:&quot;Corporate Logo ver2 Bold&quot;;font-variation-settings:normal;text-align:start;letter-spacing:0;word-spacing:0;writing-mode:lr-tb;direction:ltr;text-anchor:start;display:inline;vector-effect:none;fill:#333;fill-opacity:1;stroke:none;stroke-width:1.88976;stroke-linecap:square;stroke-linejoin:miter;stroke-miterlimit:4;stroke-dasharray:none;stroke-dashoffset:0;stroke-opacity:1;-inkscape-stroke:none;stop-color:#000" transform="translate(513.5974 -278.34336)"><tspan x="491.94489" y="603.54486" style="fill:#333;fill-opacity:1;stroke:none;stroke-width:1.88976;stroke-dasharray:none;stroke-opacity:1"><tspan style="fill:#ff9c10;fill-opacity:1">黄色</tspan><tspan style="fill:#eee;fill-opacity:.933333">を運ぶパズル</tspan></tspan></text></g></g></svg>