<svg xmlns="http://www.w3.org/2000/svg" xmlns:xlink="http://www.w3.org/1999/xlink" xml:space="preserve" width="1904" height="1072"><g style="display:inline"><g style="display:inline;opacity:.5" transform="translate(6.959014 -2.55312)"><path id="a" d="M41.942602 169.82177H1858.8889" style="display:inline;fill:none;fill-opacity:1;stroke:#a4a4a4;stroke-width:1.00157;stroke-linecap:round;stroke-linejoin:round;stroke-dasharray:none;stroke-opacity:1"/><use xlink:href="#a" style="display:inline" transform="translate(0 106.76787)"/><use xlink:href="#a" style="display:inline" transform="translate(0 213.53574)"/><use xlink:href="#a" style="display:inline" transform="translate(0 320.30361)"/><use xlink:href="#a" style="display:inline" transform="translate(0 427.07148)"/><use xlink:href="#a" style="display:inline" transform="translate(0 533.83935)"/><use xlink:href="#a" style="display:inline" transform="translate(0 640.60722)"/><use xlink:href="#a" style="display:inline" transform="translate(0 747.37509)"/></g><g style="display:inline;opacity:.5;stroke-width:.896677" transform="matrix(1 0 0 1.2437367 .959014 -71.4691)"><path id="b" d="M897.60883 66.757565V904.0538" style="fill:none;fill-opacity:1;stroke:#a4a4a4;stroke-width:.898084;stroke-linecap:round;stroke-linejoin:round;stroke-dasharray:none;stroke-opacity:1"/><use xlink:href="#b" style="stroke-width:.90865" transform="translate(106.94548)"/><use xlink:href="#b" style="stroke-width:.90865" transform="translate(213.89097)"/><use xlink:href="#b" style="stroke-width:.90865" transform="translate(320.83645)"/><use xlink:href="#b" style="stroke-width:.90865" transform="translate(427.78194)"/><use xlink:href="#b" style="stroke-width:.90865" transform="translate(534.72742)"/><use xlink:href="#b" style="stroke-width:.90865" transform="translate(641.67291)"/><use xlink:href="#b" style="stroke-width:.90865" transform="translate(-106.94549)"/><use xlink:href="#b" style="stroke-width:.90865" transform="translate(-213.89097)"/><use xlink:href="#b" style="stroke-width:.90865" transform="translate(-320.83646)"/></g><path d="M-2-4v1080h1916V-4Zm686.47852 64.896484h960.25198V166.16992h-89.0664c-9.418 0-17 7.582-17 17v411.50781h-409.3848c-9.418 0-17 7.582-17 17v89.77149H1006.5V610c0-9.418-7.582-17-17-17H808c-9.418 0-17 7.582-17 17v76c0 9.418 7.582 17 17 17h91.43945v318.0625H471.64062V275.06445h304.73243c8.24277-.0191 14.8789-7.34315 14.8789-15.58593v-77.72266c0-8.24279-6.63611-14.87891-14.8789-14.87891h-91.89453ZM914.31836 166.87695c-9.02626 0-16.29297 7.26671-16.29297 16.29297v74.89453c0 9.02627 7.26671 16.29297 16.29297 16.29297h74.89453c9.02626 0 16.29301-7.2667 16.29301-16.29297v-74.89453c0-9.02626-7.26675-16.29297-16.29301-16.29297zm212.83984 0c-8.6345 0-15.5859 6.95141-15.5859 15.58594v76.30859c0 8.63453 6.9514 15.58594 15.5859 15.58594h77.0156c8.6346 0 15.586-6.95141 15.586-15.58594v-76.30859c0-8.63453-6.9514-15.58594-15.586-15.58594zm214.252 0c-9.0263 0-16.293 7.26671-16.293 16.29297v74.1875c0 9.02626 7.2667 16.29297 16.293 16.29297h75.6015c9.0263 0 16.293-7.26671 16.293-16.29297v-74.1875c0-9.02626-7.2667-16.29297-16.293-16.29297z" style="fill:#acaca7;fill-opacity:1;stroke-width:7.55906;stroke-linecap:round;stroke-linejoin:round"/><g style="display:inline;stroke-width:.995319"><path d="M696.06846 808.50959h83.88713c11.99268-.41997 11.07138 12.12676 11.07138 12.12676V903.606c0 10.25249-10.68731 10.93573-10.68731 10.93573h-86.10387c-8.19194-.39989-9.50539-9.76067-9.50539-9.76067v-84.15612s-.0749-12.11535 11.33806-12.11535z" style="opacity:1;mix-blend-mode:normal;fill:#4294dd;fill-opacity:1;stroke-width:7.52368;stroke-linecap:round;stroke-linejoin:round;stroke-dasharray:7.52368,15.0473" transform="translate(318.04926 -217.55046) scale(1.0047031)"/><g style="display:inline;stroke-width:.995319" transform="translate(317.91385603 -219.54271954) scale(1.0047031)"><circle cx="722.94879" cy="854.53064" r="3.4077702" style="fill:#272727;fill-opacity:1;stroke:none;stroke-width:3.76184;stroke-linecap:round;stroke-linejoin:round;stroke-dasharray:none;stroke-dashoffset:0;stroke-opacity:1"/><circle cx="753.09442" cy="854.53064" r="3.4077702" style="fill:#272727;fill-opacity:1;stroke:none;stroke-width:3.76184;stroke-linecap:round;stroke-linejoin:round;stroke-dasharray:none;stroke-dashoffset:0;stroke-opacity:1"/><path d="M724.25957 873.99424h27.39322" style="fill:none;fill-opacity:1;stroke:#222;stroke-width:3.76184;stroke-linecap:round;stroke-linejoin:round;stroke-dasharray:none;stroke-dashoffset:0;stroke-opacity:1"/></g></g><g style="display:inline;stroke-width:.995319"><path d="M696.06846 808.50959h83.88713c11.99268-.41997 11.07138 12.12676 11.07138 12.12676V903.606c0 10.25249-10.68731 10.93573-10.68731 10.93573h-86.10387c-8.19194-.39989-9.50539-9.76067-9.50539-9.76067v-84.15612s-.0749-12.11535 11.33806-12.11535z" style="opacity:1;mix-blend-mode:normal;fill:#4294dd;fill-opacity:1;stroke-width:7.52368;stroke-linecap:round;stroke-linejoin:round;stroke-dasharray:7.52368,15.0473" transform="translate(210.90482 -751.95897) scale(1.0047031)"/><g style="display:inline;stroke-width:.995319" transform="translate(210.76941603 -753.95122954) scale(1.0047031)"><circle cx="722.94879" cy="854.53064" r="3.4077702" style="fill:#272727;fill-opacity:1;stroke:none;stroke-width:3.76184;stroke-linecap:round;stroke-linejoin:round;stroke-dasharray:none;stroke-dashoffset:0;stroke-opacity:1"/><circle cx="753.09442" cy="854.53064" r="3.4077702" style="fill:#272727;fill-opacity:1;stroke:none;stroke-width:3.76184;stroke-linecap:round;stroke-linejoin:round;stroke-dasharray:none;stroke-dashoffset:0;stroke-opacity:1"/><path d="M724.25957 873.99424h27.39322" style="fill:none;fill-opacity:1;stroke:#222;stroke-width:3.76184;stroke-linecap:round;stroke-linejoin:round;stroke-dasharray:none;stroke-dashoffset:0;stroke-opacity:1"/></g></g><g style="display:inline"><path d="M696.06846 808.50959h83.88713c11.99268-.41997 11.07138 12.12676 11.07138 12.12676V903.606c0 10.25249-10.68731 10.93573-10.68731 10.93573h-86.10387c-8.19194-.39989-9.50539-9.76067-9.50539-9.76067v-84.15612s-.0749-12.11535 11.33806-12.11535z" style="opacity:1;mix-blend-mode:normal;fill:#f5a633;fill-opacity:1;stroke-width:7.55906;stroke-linecap:round;stroke-linejoin:round;stroke-dasharray:7.55906,15.1181" transform="rotate(-.055726 -767534.91 -878220.64)"/><g style="display:inline" transform="rotate(-.055726 -769573.63780695 -878081.08176875)"><circle cx="722.94879" cy="854.53064" r="3.4077702" style="fill:#272727;fill-opacity:1;stroke:none;stroke-width:3.77953;stroke-linecap:round;stroke-linejoin:round;stroke-dasharray:none;stroke-dashoffset:0;stroke-opacity:1"/><circle cx="753.09442" cy="854.53064" r="3.4077702" style="fill:#272727;fill-opacity:1;stroke:none;stroke-width:3.77953;stroke-linecap:round;stroke-linejoin:round;stroke-dasharray:none;stroke-dashoffset:0;stroke-opacity:1"/><path d="M724.25957 873.99424h27.39322" style="fill:none;fill-opacity:1;stroke:#222;stroke-width:3.77953;stroke-linecap:round;stroke-linejoin:round;stroke-dasharray:none;stroke-dashoffset:0;stroke-opacity:1"/></g></g><g style="display:inline"><path d="M696.06846 808.50959h83.88713c11.99268-.41997 11.07138 12.12676 11.07138 12.12676V903.606c0 10.25249-10.68731 10.93573-10.68731 10.93573h-86.10387c-8.19194-.39989-9.50539-9.76067-9.50539-9.76067v-84.15612s-.0749-12.11535 11.33806-12.11535z" style="opacity:1;mix-blend-mode:normal;fill:#f5a633;fill-opacity:1;stroke-width:7.55906;stroke-linecap:round;stroke-linejoin:round;stroke-dasharray:7.55906,15.1181" transform="rotate(.149392 287797.07 246631.68)"/><g style="display:inline" transform="rotate(.149392 288557.64291027 246580.98369042)"><circle cx="722.94879" cy="854.53064" r="3.4077702" style="fill:#272727;fill-opacity:1;stroke:none;stroke-width:3.77953;stroke-linecap:round;stroke-linejoin:round;stroke-dasharray:none;stroke-dashoffset:0;stroke-opacity:1"/><circle cx="753.09442" cy="854.53064" r="3.4077702" style="fill:#272727;fill-opacity:1;stroke:none;stroke-width:3.77953;stroke-linecap:round;stroke-linejoin:round;stroke-dasharray:none;stroke-dashoffset:0;stroke-opacity:1"/><path d="M724.25957 873.99424h27.39322" style="fill:none;fill-opacity:1;stroke:#222;stroke-width:3.77953;stroke-linecap:round;stroke-linejoin:round;stroke-dasharray:none;stroke-dashoffset:0;stroke-opacity:1"/></g></g><g style="display:inline"><path d="M696.06846 808.50959h83.88713c11.99268-.41997 11.07138 12.12676 11.07138 12.12676V903.606c0 10.25249-10.68731 10.93573-10.68731 10.93573h-86.10387c-8.19194-.39989-9.50539-9.76067-9.50539-9.76067v-84.15612s-.0749-12.11535 11.33806-12.11535z" style="opacity:1;mix-blend-mode:normal;fill:#f5a633;fill-opacity:1;stroke-width:7.55906;stroke-linecap:round;stroke-linejoin:round;stroke-dasharray:7.55906,15.1181" transform="rotate(.208855 206053.15 117844.27)"/><g style="display:inline" transform="rotate(.208855 206597.2002994 117808.2896549)"><circle cx="722.94879" cy="854.53064" r="3.4077702" style="fill:#272727;fill-opacity:1;stroke:none;stroke-width:3.77953;stroke-linecap:round;stroke-linejoin:round;stroke-dasharray:none;stroke-dashoffset:0;stroke-opacity:1"/><circle cx="753.09442" cy="854.53064" r="3.4077702" style="fill:#272727;fill-opacity:1;stroke:none;stroke-width:3.77953;stroke-linecap:round;stroke-linejoin:round;stroke-dasharray:none;stroke-dashoffset:0;stroke-opacity:1"/><path d="M724.25957 873.99424h27.39322" style="fill:none;fill-opacity:1;stroke:#222;stroke-width:3.77953;stroke-linecap:round;stroke-linejoin:round;stroke-dasharray:none;stroke-dashoffset:0;stroke-opacity:1"/></g></g><g style="display:inline"><path d="M696.06846 808.50959h83.88713c11.99268-.41997 11.07138 12.12676 11.07138 12.12676V903.606c0 10.25249-10.68731 10.93573-10.68731 10.93573h-86.10387c-8.19194-.39989-9.50539-9.76067-9.50539-9.76067v-84.15612s-.0749-12.11535 11.33806-12.11535z" style="opacity:1;mix-blend-mode:normal;fill:#f5a633;fill-opacity:1;stroke-width:7.55906;stroke-linecap:round;stroke-linejoin:round;stroke-dasharray:7.55906,15.1181" transform="rotate(.208855 205839.25 484.97806)"/><g style="display:inline" transform="rotate(.208855 206383.3002994 448.9977149)"><circle cx="722.94879" cy="854.53064" r="3.4077702" style="fill:#272727;fill-opacity:1;stroke:none;stroke-width:3.77953;stroke-linecap:round;stroke-linejoin:round;stroke-dasharray:none;stroke-dashoffset:0;stroke-opacity:1"/><circle cx="753.09442" cy="854.53064" r="3.4077702" style="fill:#272727;fill-opacity:1;stroke:none;stroke-width:3.77953;stroke-linecap:round;stroke-linejoin:round;stroke-dasharray:none;stroke-dashoffset:0;stroke-opacity:1"/><path d="M724.25957 873.99424h27.39322" style="fill:none;fill-opacity:1;stroke:#222;stroke-width:3.77953;stroke-linecap:round;stroke-linejoin:round;stroke-dasharray:none;stroke-dashoffset:0;stroke-opacity:1"/></g></g><rect width="107.48023" height="321.02649" x="470.93311" y="700.03571" ry="13.75" style="fill:#f7a936;fill-opacity:1;stroke-width:7.55906;stroke-linecap:round;stroke-linejoin:round"/><g style="display:inline" transform="rotate(.208855 1441.1204 -57675.317)"><circle cx="722.94879" cy="854.53064" r="3.4077702" style="fill:#272727;fill-opacity:1;stroke:none;stroke-width:3.77953;stroke-linecap:round;stroke-linejoin:round;stroke-dasharray:none;stroke-dashoffset:0;stroke-opacity:1"/><circle cx="753.09442" cy="854.53064" r="3.4077702" style="fill:#272727;fill-opacity:1;stroke:none;stroke-width:3.77953;stroke-linecap:round;stroke-linejoin:round;stroke-dasharray:none;stroke-dashoffset:0;stroke-opacity:1"/><path d="M724.25957 873.99424h27.39322" style="fill:none;fill-opacity:1;stroke:#222;stroke-width:3.77953;stroke-linecap:round;stroke-linejoin:round;stroke-dasharray:none;stroke-dashoffset:0;stroke-opacity:1"/></g><path d="M485.39062 274.35742c-7.6175 0-13.75 6.1325-13.75 13.75v398.17774c.00001 7.6175 6.13259 13.71312 13.75 13.75l292.08008 1.41406c7.63513.037 13.78125-6.14603 13.78125-13.78125v-80.16602c0-7.63522-6.14603-13.7832-13.78125-13.7832H579.12109V381.42383h198.4336c7.58814 0 13.69726-6.10912 13.69726-13.69727v-79.67187c0-7.58815-6.10912-13.69727-13.69726-13.69727z" style="display:inline;fill:#f0673f;fill-opacity:1;stroke-width:7.55906;stroke-linecap:round;stroke-linejoin:round"/><g style="display:inline" transform="rotate(.208855 103669.86 -57861.64)"><circle cx="722.94879" cy="854.53064" r="3.4077702" style="fill:#272727;fill-opacity:1;stroke:none;stroke-width:3.77953;stroke-linecap:round;stroke-linejoin:round;stroke-dasharray:none;stroke-dashoffset:0;stroke-opacity:1"/><circle cx="753.09442" cy="854.53064" r="3.4077702" style="fill:#272727;fill-opacity:1;stroke:none;stroke-width:3.77953;stroke-linecap:round;stroke-linejoin:round;stroke-dasharray:none;stroke-dashoffset:0;stroke-opacity:1"/><path d="M724.25957 873.99424h27.39322" style="fill:none;fill-opacity:1;stroke:#222;stroke-width:3.77953;stroke-linecap:round;stroke-linejoin:round;stroke-dasharray:none;stroke-dashoffset:0;stroke-opacity:1"/></g></g></svg>