<svg xmlns="http://www.w3.org/2000/svg" xmlns:xlink="http://www.w3.org/1999/xlink" xml:space="preserve" width="1904" height="1072"><g style="display:inline"><g style="display:inline"><g style="display:inline;opacity:.5" transform="translate(6.959014 .98241)"><path id="a" d="M41.942602 170.44331H1858.8889" style="display:inline;fill:none;fill-opacity:1;stroke:#a4a4a4;stroke-width:1.00157;stroke-linecap:round;stroke-linejoin:round;stroke-dasharray:none;stroke-opacity:1"/><use xlink:href="#a" style="display:inline" transform="translate(0 106.3602)"/><use xlink:href="#a" style="display:inline" transform="translate(0 212.72041)"/><use xlink:href="#a" style="display:inline" transform="translate(0 319.08061)"/><use xlink:href="#a" style="display:inline" transform="translate(0 425.44081)"/><use xlink:href="#a" style="display:inline" transform="translate(0 531.80101)"/><use xlink:href="#a" style="display:inline" transform="translate(0 638.16122)"/></g><g style="display:inline;opacity:.5;stroke-width:.896677" transform="matrix(1 0 0 1.2437367 .959014 -67.93357)"><path id="b" d="M897.60883 58.7185v859.8066" style="fill:none;fill-opacity:1;stroke:#a4a4a4;stroke-width:.898084;stroke-linecap:round;stroke-linejoin:round;stroke-dasharray:none;stroke-opacity:1"/><use xlink:href="#b" style="stroke-width:.896677" transform="translate(106.94548)"/><use xlink:href="#b" style="stroke-width:.896677" transform="translate(213.89096)"/><use xlink:href="#b" style="stroke-width:.896677" transform="translate(320.83645)"/><use xlink:href="#b" style="stroke-width:.896677" transform="translate(427.78193)"/><use xlink:href="#b" style="stroke-width:.896677" transform="translate(534.72742)"/><use xlink:href="#b" style="stroke-width:.896677" transform="translate(641.6729)"/><use xlink:href="#b" style="stroke-width:.896677" transform="translate(748.61839)"/><use xlink:href="#b" style="stroke-width:.896677" transform="translate(855.56387)"/><use xlink:href="#b" style="stroke-width:.896677" transform="translate(-106.94549)"/><use xlink:href="#b" style="stroke-width:.896677" transform="translate(-213.89097)"/><use xlink:href="#b" style="stroke-width:.896677" transform="translate(-320.83646)"/><use xlink:href="#b" style="stroke-width:.896677" transform="translate(-427.78194)"/><use xlink:href="#b" style="stroke-width:.896677" transform="translate(-534.72743)"/><use xlink:href="#b" style="stroke-width:.896677" transform="translate(-641.67291)"/><use xlink:href="#b" style="stroke-width:.896677" transform="translate(-748.6184)"/></g></g><path d="M-6-2v1078h1912V-2Zm54.492188 67.75H1859.3789v850.49219H48.492188ZM262.66016 172.12109c-3.29832 0-5.95313 2.65481-5.95313 5.95313l.0156 625.51953c0 3.34764 2.69534 6.04347 6.04296 6.04297l1378.83401-.20703c3.301-.0005 5.959-2.65606 5.959-5.95703 0 0-.1003-433.0343-.377-625.39844 0-3.29832-2.6548-5.95313-5.9531-5.95313zm101.6289 106.1211H1540.7852v104.30273h-316.1329c-3.2983 0-5.9531 2.65481-5.9531 5.95313v203.05273c0 3.29832 2.6548 5.95508 5.9531 5.95508h208.1094v105.60742H364.28906V597.13477h100.39258c3.32535 0 6.00195-2.67856 6.00195-6.00391V387.83984c0-3.32535-2.6766-6.00195-6.00195-6.00195H364.28906ZM690.75781 384.3125c-3.28194 0-5.92578 2.64189-5.92578 5.92383V590.875c0 3.28194 2.64384 5.92383 5.92578 5.92383h416.30469c3.2819 0 5.9238-2.64189 5.9238-5.92383V390.23633c0-3.28194-2.6419-5.92383-5.9238-5.92383z" style="fill:#acaca7;fill-opacity:1;stroke:none;stroke-width:6.04724;stroke-linecap:round;stroke-linejoin:round"/><g style="display:inline;stroke-width:1.0107"><path d="M696.06846 808.50959h83.88713c11.99268-.41997 11.07138 12.12676 11.07138 12.12676V903.606c0 10.25249-10.68731 10.93573-10.68731 10.93573h-86.10387c-8.19194-.39989-9.50539-9.76067-9.50539-9.76067v-84.15612s-.0749-12.11535 11.33806-12.11535z" style="opacity:1;mix-blend-mode:normal;fill:#febc46;fill-opacity:1;stroke-width:7.63997;stroke-linecap:round;stroke-linejoin:round;stroke-dasharray:7.63997,15.2799" transform="matrix(.99526469 -.00554138 .00560734 .98355667 -321.73513 -513.24815)"/><g style="display:inline;stroke-width:1.0107" transform="matrix(.99526469 -.00554138 .00560734 .98355667 -321.88038093 -515.19773076)"><circle cx="722.94879" cy="854.53064" r="3.4077702" style="fill:#272727;fill-opacity:1;stroke:none;stroke-width:3.81999;stroke-linecap:round;stroke-linejoin:round;stroke-dasharray:none;stroke-dashoffset:0;stroke-opacity:1"/><circle cx="753.09442" cy="854.53064" r="3.4077702" style="fill:#272727;fill-opacity:1;stroke:none;stroke-width:3.81999;stroke-linecap:round;stroke-linejoin:round;stroke-dasharray:none;stroke-dashoffset:0;stroke-opacity:1"/><path d="M724.25957 873.99424h27.39322" style="fill:none;fill-opacity:1;stroke:#222;stroke-width:3.81999;stroke-linecap:round;stroke-linejoin:round;stroke-dasharray:none;stroke-dashoffset:0;stroke-opacity:1"/></g></g></g><g style="display:inline"><g style="display:inline;stroke-width:.995069"><path d="M696.06846 808.50959h83.88713c11.99268-.41997 11.07138 12.12676 11.07138 12.12676V903.606c0 10.25249-10.68731 10.93573-10.68731 10.93573h-86.10387c-8.19194-.39989-9.50539-9.76067-9.50539-9.76067v-84.15612s-.0749-12.11535 11.33806-12.11535z" style="opacity:1;mix-blend-mode:normal;fill:#febc46;fill-opacity:1;stroke-width:7.52179;stroke-linecap:round;stroke-linejoin:round;stroke-dasharray:7.52179,15.0436" transform="matrix(1.0099289 -.00333708 .00341565 .99999448 311.41036 -209.11521)"/><g style="display:inline;stroke-width:.995069" transform="matrix(1.0099289 -.00333708 .00341565 .99999448 311.26747874 -211.09768292)"><circle cx="722.94879" cy="854.53064" r="3.4077702" style="fill:#272727;fill-opacity:1;stroke:none;stroke-width:3.76089;stroke-linecap:round;stroke-linejoin:round;stroke-dasharray:none;stroke-dashoffset:0;stroke-opacity:1"/><circle cx="753.09442" cy="854.53064" r="3.4077702" style="fill:#272727;fill-opacity:1;stroke:none;stroke-width:3.76089;stroke-linecap:round;stroke-linejoin:round;stroke-dasharray:none;stroke-dashoffset:0;stroke-opacity:1"/><path d="M724.25957 873.99424h27.39322" style="fill:none;fill-opacity:1;stroke:#222;stroke-width:3.76089;stroke-linecap:round;stroke-linejoin:round;stroke-dasharray:none;stroke-dashoffset:0;stroke-opacity:1"/></g></g><g style="display:inline;stroke-width:.998169"><path d="M781.04163 704.48342c-.34997-.0114-.71116-.0112-1.08594.002h-83.88671c-11.41296 0-11.3379 12.11524-11.3379 12.11524.90943 62.73971 0 188.17969 0 188.17969s1.31197 9.36182 9.50391 9.76171h86.10547s10.68555-.68305 10.68555-10.93554c-1.00839-62.37969 0-124.55813 0-186.99414 0 0 .86472-11.7748-9.98438-12.12891z" style="opacity:1;mix-blend-mode:normal;fill:#f0673f;fill-opacity:1;stroke-width:7.54521;stroke-linecap:round;stroke-linejoin:round;stroke-dasharray:7.54521,15.0904" transform="matrix(.99529683 0 0 1.0084153 431.45129 -219.47459)"/><g style="display:inline;stroke-width:.998169" transform="matrix(.99529683 0 0 1.0084153 431.31715372 -273.21125543)"><circle cx="722.94879" cy="854.53064" r="3.4077702" style="fill:#272727;fill-opacity:1;stroke:none;stroke-width:3.77261;stroke-linecap:round;stroke-linejoin:round;stroke-dasharray:none;stroke-dashoffset:0;stroke-opacity:1"/><circle cx="753.09442" cy="854.53064" r="3.4077702" style="fill:#272727;fill-opacity:1;stroke:none;stroke-width:3.77261;stroke-linecap:round;stroke-linejoin:round;stroke-dasharray:none;stroke-dashoffset:0;stroke-opacity:1"/><path d="M724.25957 873.99424h27.39322" style="fill:none;fill-opacity:1;stroke:#222;stroke-width:3.77261;stroke-linecap:round;stroke-linejoin:round;stroke-dasharray:none;stroke-dashoffset:0;stroke-opacity:1"/></g></g><g style="display:inline"><path d="M696.06846 808.50959c27.44876 4.62252 55.49721 3.84789 83.88713 0 11.99268-.41997 11.07138 12.12676 11.07138 12.12676V903.606c0 10.25249-10.68731 10.93573-10.68731 10.93573-30.42508 8.20241-63.14011 7.06931-86.10387 0-8.19194-.39989-9.50539-9.76067-9.50539-9.76067v-84.15612s-.0749-12.11535 11.33806-12.11535z" style="opacity:1;mix-blend-mode:normal;fill:#0a9adc;fill-opacity:1;stroke-width:7.55906;stroke-linecap:round;stroke-linejoin:round;stroke-dasharray:7.55906,15.1181" transform="translate(428.09901 -424.1105)"/><g style="display:inline" transform="translate(427.96423987 -421.8434336)"><circle cx="722.94879" cy="854.53064" r="3.4077702" style="fill:#272727;fill-opacity:1;stroke:none;stroke-width:3.77953;stroke-linecap:round;stroke-linejoin:round;stroke-dasharray:none;stroke-dashoffset:0;stroke-opacity:1"/><circle cx="753.09442" cy="854.53064" r="3.4077702" style="fill:#272727;fill-opacity:1;stroke:none;stroke-width:3.77953;stroke-linecap:round;stroke-linejoin:round;stroke-dasharray:none;stroke-dashoffset:0;stroke-opacity:1"/><path d="M724.25957 873.99424h27.39322" style="fill:none;fill-opacity:1;stroke:#222;stroke-width:3.77953;stroke-linecap:round;stroke-linejoin:round;stroke-dasharray:none;stroke-dashoffset:0;stroke-opacity:1"/></g></g><g style="display:inline;stroke-width:.993384"><path d="M696.06896 808.51037c-11.41296 0-11.33789 12.11523-11.33789 12.11523v84.15625s1.31196 9.35988 9.5039 9.75977h192.00782s10.6875-.68306 10.6875-10.93555v-82.96875s.92041-12.54692-11.07227-12.12695z" style="opacity:1;mix-blend-mode:normal;fill:#0a9adc;fill-opacity:1;stroke-width:7.50905;stroke-linecap:round;stroke-linejoin:round;stroke-dasharray:7.50905,15.0181" transform="matrix(1.0099961 0 0 1.0033341 99.60725 -214.14869)"/><g style="display:inline;stroke-width:.993384" transform="matrix(1.0099961 0 0 1.0033341 152.95241904 -216.13789868)"><circle cx="722.94879" cy="854.53064" r="3.4077702" style="fill:#272727;fill-opacity:1;stroke:none;stroke-width:3.75453;stroke-linecap:round;stroke-linejoin:round;stroke-dasharray:none;stroke-dashoffset:0;stroke-opacity:1"/><circle cx="753.09442" cy="854.53064" r="3.4077702" style="fill:#272727;fill-opacity:1;stroke:none;stroke-width:3.75453;stroke-linecap:round;stroke-linejoin:round;stroke-dasharray:none;stroke-dashoffset:0;stroke-opacity:1"/><path d="M724.25957 873.99424h27.39322" style="fill:none;fill-opacity:1;stroke:#222;stroke-width:3.75453;stroke-linecap:round;stroke-linejoin:round;stroke-dasharray:none;stroke-dashoffset:0;stroke-opacity:1"/></g></g><g style="display:inline;stroke-width:1.68987"><g style="display:inline;stroke-width:1.68987"><path d="M1230.6516 580.05857c-1.6104-14.2349 6.32-31.12702 9.4314-36.98777 18.919-35.63507 42.5774-25.41967 47.6424-19.68602 6.8462 7.74989 5.7272 17.7595 1.1187 25.12759-3.7839 6.05002-17.7577 10.47327-26.5463 12.94782-10.5621 2.97394-16.777 6.76125-31.6462 18.59838z" style="display:inline;fill:#98e3eb;stroke-width:1.68987;stroke-linecap:round;stroke-linejoin:round" transform="matrix(-.59055688 -.04276099 -.04239908 .58989904 1868.4517101 68.55054873)"/><path d="M1275.8418 513.87891c-2.2487-.25456-4.6719-.2513-7.2402.0898-10.2734 1.36457-22.0218 8.80411-31.8575 27.33008-3.2745 6.16807-11.6514 23.24156-9.8476 39.18554a3.779903 3.779903 0 0 0 6.1094 2.53125c14.775-11.76217 20.1877-15.06608 30.3164-17.91796 4.4567-1.25487 10.274-3.00708 15.6152-5.29688 5.3412-2.28979 10.3298-4.83784 13.1113-9.28516 5.2787-8.43962 6.5604-20.51959-1.4902-29.63281-2.7962-3.16533-7.9708-6.24022-14.7168-7.0039zm-6.2441 7.58203c7.5518-1.00309 13.9581 2.91257 15.2949 4.42578 5.6418 6.38656 4.6863 14.32454.748 20.62109-1.0024 1.60271-4.8928 4.29273-9.6816 6.34571-4.7888 2.05297-10.3537 3.74906-14.6856 4.96875-9.2698 2.61006-15.9885 6.3531-26.748 14.50781 1.1548-11.0419 6.4939-22.96069 8.8965-27.48633 9.0834-17.1091 18.6239-22.37972 26.1758-23.38281z" style="display:inline;fill:#333;fill-opacity:1;stroke-width:1.68987;stroke-linecap:round;stroke-linejoin:round" transform="matrix(-.59055688 -.04276099 -.04239908 .58989904 1868.4517101 68.55054873)"/></g><g style="display:inline;stroke-width:1.68987"><path d="M1248.5304 609.21468c5.6011-9.68261 18.5869-16.6467 23.3243-18.89736 28.8046-13.68439 39.2795 3.61285 39.868 9.54391.7957 8.01678-4.5932 13.7899-10.9977 16.29898-5.2587 2.06026-16.3223-1.5875-23.1372-4.07482-8.1903-2.98927-13.9596-3.46831-29.0574-2.87071z" style="display:inline;fill:#98e3eb;stroke-width:1.68987;stroke-linecap:round;stroke-linejoin:round" transform="matrix(-.59055688 -.04276099 -.04239908 .58989904 1868.4517101 68.55054873)"/><path d="M1290.0527 581.46094c-5.6531.22719-12.2602 1.85173-19.8203 5.44336-5.0489 2.39865-18.497 9.22357-24.9726 20.41797a3.779903 3.779903 0 0 0 3.4199 5.66992c14.98-.59294 19.8358-.19334 27.6113 2.64453 3.4673 1.26549 8.0552 2.84879 12.6172 3.8789 4.562 1.03012 9.0223 1.79896 13.1953.16407 7.5674-2.96468 14.3598-10.32815 13.3809-20.19141-.4762-4.79884-3.8512-11.09921-11.336-15.08984-3.7424-1.99532-8.4425-3.1647-14.0957-2.9375zm.1993 7.48047c4.4305-.19297 7.7893.76712 10.3398 2.12695 5.1009 2.71965 7.2568 8.0338 7.3691 9.16601.6125 6.1703-3.3736 10.35277-8.6152 12.40625-1.0857.42537-4.7853.40054-8.7734-.5-3.9882-.90053-8.3418-2.38363-11.6895-3.60546-6.846-2.49864-12.6686-3.32388-22.3457-3.26954 5.7254-5.5548 13.6151-9.95582 16.9395-11.53515 6.8422-3.25057 12.3448-4.5961 16.7754-4.78906z" style="display:inline;fill:#333;fill-opacity:1;stroke-width:1.68987;stroke-linecap:round;stroke-linejoin:round" transform="matrix(-.59055688 -.04276099 -.04239908 .58989904 1868.4517101 68.55054873)"/></g></g><path d="M553.5 667c-4.46044 8.75462-3.44003 25.41114 12.9999 28" style="fill:none;fill-opacity:1;stroke:#fff;stroke-width:3.77953;stroke-linecap:round;stroke-linejoin:round;stroke-dasharray:none;stroke-dashoffset:0;stroke-opacity:1" transform="scale(1 -1) rotate(-66.378547 68.59889455 -302.73534718)"/><path d="M539.47477 675.00088c-3.43921 7.65974-2.65242 22.23316 10.02353 24.49825" style="fill:none;fill-opacity:1;stroke:#fff;stroke-width:3.10432;stroke-linecap:round;stroke-linejoin:round;stroke-dasharray:none;stroke-dashoffset:0;stroke-opacity:1" transform="scale(1 -1) rotate(-66.378547 68.59889455 -302.73534718)"/><path d="m1230.7796 278.92982 79.9989-.46162c11.4345-.47618 10.6233 11.78375 10.6233 11.78375l.4458 81.03956c.055 10.01399-10.1331 10.74015-10.1331 10.74015l-82.1128.47383c-7.8144-.34551-9.1174-9.4813-9.1174-9.4813l-.4521-82.19845s-.1365-11.8331 10.7474-11.89592z" style="display:inline;mix-blend-mode:normal;fill:#febc46;fill-opacity:.2;stroke:#feab1a;stroke-width:6.04724;stroke-linecap:round;stroke-linejoin:round;stroke-dasharray:6.04724,18.1417;stroke-dashoffset:0;stroke-opacity:1"/><path d="M1337.2286 277.7763h81.0975c11.5939-.41717 10.7033 12.04603 10.7033 12.04603v82.4173c0 10.18425-10.332 10.86294-10.332 10.86294h-83.2405c-7.9195-.39723-9.1893-9.69569-9.1893-9.69569V289.811s-.073-12.0347 10.961-12.0347z" style="display:inline;mix-blend-mode:normal;fill:#f0673f;fill-opacity:.2;stroke:#f0673f;stroke-width:6.04724;stroke-linecap:round;stroke-linejoin:round;stroke-dasharray:6.04724,18.1417;stroke-dashoffset:0;stroke-opacity:1"/><path d="M1445.041 278.83749h82.7714c11.8331-.40596 10.9241 11.7224 10.9241 11.7224v80.20313c0 9.91062-10.5452 10.57109-10.5452 10.57109h-84.9586c-8.083-.38656-9.3791-9.43522-9.3791-9.43522v-81.35003s-.075-11.71137 11.1874-11.71137z" style="display:inline;mix-blend-mode:normal;fill:#0a9adc;fill-opacity:.19899245;stroke:#0a9adc;stroke-width:6.04723;stroke-linecap:round;stroke-linejoin:round;stroke-dasharray:6.04723,18.1417;stroke-dashoffset:0;stroke-opacity:1"/></g></svg>