<svg xmlns="http://www.w3.org/2000/svg" xmlns:xlink="http://www.w3.org/1999/xlink" xml:space="preserve" width="1904" height="1072"><g style="display:inline"><g style="display:inline;opacity:.5" transform="translate(6.959014 -2.55312)"><path id="a" d="M41.942602 169.08311H1858.8889" style="display:inline;fill:none;fill-opacity:1;stroke:#758391;stroke-width:1.00157;stroke-linecap:round;stroke-linejoin:round;stroke-dasharray:none;stroke-opacity:1"/><use xlink:href="#a" style="display:inline" transform="translate(0 108.38845)"/><use xlink:href="#a" style="display:inline" transform="translate(0 211.80602)"/><use xlink:href="#a" style="display:inline" transform="translate(0 319.80611)"/><use xlink:href="#a" style="display:inline" transform="translate(0 425.70912)"/><use xlink:href="#a" style="display:inline" transform="translate(0 532.34891)"/><use xlink:href="#a" style="display:inline" transform="translate(0 639.11526)"/><use xlink:href="#a" style="display:inline" transform="translate(0 745.88162)"/></g><g style="display:inline;opacity:.5;stroke-width:.896677" transform="matrix(1 0 0 1.2437367 .959014 -71.4691)"><path id="b" d="M897.60883 58.7185v859.8066" style="fill:none;fill-opacity:1;stroke:#758391;stroke-width:.898084;stroke-linecap:round;stroke-linejoin:round;stroke-dasharray:none;stroke-opacity:1"/><use xlink:href="#b" style="stroke-width:.896677" transform="translate(106.94548)"/><use xlink:href="#b" style="stroke-width:.896677" transform="translate(213.89096)"/><use xlink:href="#b" style="stroke-width:.896677" transform="translate(320.83645)"/><use xlink:href="#b" style="stroke-width:.896677" transform="translate(427.78193)"/><use xlink:href="#b" style="stroke-width:.896677" transform="translate(534.72742)"/><use xlink:href="#b" style="stroke-width:.896677" transform="translate(641.6729)"/><use xlink:href="#b" style="stroke-width:.896677" transform="translate(748.61839)"/><use xlink:href="#b" style="stroke-width:.896677" transform="translate(855.56387)"/><use xlink:href="#b" style="stroke-width:.896677" transform="translate(962.50936)"/><use xlink:href="#b" style="stroke-width:.896677" transform="translate(-106.94549)"/><use xlink:href="#b" style="stroke-width:.896677" transform="translate(-213.89097)"/><use xlink:href="#b" style="stroke-width:.896677" transform="translate(-320.83646)"/><use xlink:href="#b" style="stroke-width:.896677" transform="translate(-427.78194)"/><use xlink:href="#b" style="stroke-width:.896677" transform="translate(-534.72743)"/><use xlink:href="#b" style="stroke-width:.896677" transform="translate(-641.67291)"/><use xlink:href="#b" style="stroke-width:.896677" transform="translate(-748.6184)"/></g><path d="M-1.5-2.828125V1077.6309h1910.6875V-2.828125ZM685.89453 166h960.69137v638h-413.7363c-8.2265 0-14.8496 6.62313-14.8496 14.84961v93.23242H901.41406v-92.54492c0-8.22648-6.62313-14.84961-14.84961-14.84961h-79.90429c-8.22648 0-14.84766 6.62313-14.84766 14.84961v92.54492H578.41406v-92.54492c0-8.22648-6.62313-14.84961-14.84961-14.84961h-79.90429c-8.22648 0-14.84766 6.62313-14.84766 14.84961V1020.5H364.8418V486h945.3086c8.2265 0 14.8496-6.62313 14.8496-14.84961v-79.30078c0-8.22648-6.6231-14.84961-14.8496-14.84961H685.89453Z" style="fill:#758391;fill-opacity:1;stroke-width:18.898;stroke-linecap:round;stroke-linejoin:round"/><g style="display:inline"><path d="M696.06846 808.50959h83.88713c11.99268-.41997 11.07138 12.12676 11.07138 12.12676V903.606c0 10.25249-10.68731 10.93573-10.68731 10.93573h-86.10387c-8.19194-.39989-9.50539-9.76067-9.50539-9.76067v-84.15612s-.0749-12.11535 11.33806-12.11535z" style="opacity:1;mix-blend-mode:normal;fill:#ffaf17;fill-opacity:1;stroke-width:7.55906;stroke-linecap:round;stroke-linejoin:round;stroke-dasharray:7.55906,15.1181" transform="translate(641.47671 -641.6206)"/><g style="display:inline" transform="translate(641.34193987 -643.6035336)"><circle cx="722.94879" cy="854.53064" r="3.4077702" style="fill:#272727;fill-opacity:1;stroke:none;stroke-width:3.77953;stroke-linecap:round;stroke-linejoin:round;stroke-dasharray:none;stroke-dashoffset:0;stroke-opacity:1"/><circle cx="753.09442" cy="854.53064" r="3.4077702" style="fill:#272727;fill-opacity:1;stroke:none;stroke-width:3.77953;stroke-linecap:round;stroke-linejoin:round;stroke-dasharray:none;stroke-dashoffset:0;stroke-opacity:1"/><path d="M724.25957 873.99424h27.39322" style="fill:none;fill-opacity:1;stroke:#222;stroke-width:3.77953;stroke-linecap:round;stroke-linejoin:round;stroke-dasharray:none;stroke-dashoffset:0;stroke-opacity:1"/></g></g><g id="c" style="display:inline"><path d="M696.06846 808.50959h83.88713c11.99268-.41997 11.07138 12.12676 11.07138 12.12676V903.606c0 10.25249-10.68731 10.93573-10.68731 10.93573h-86.10387c-8.19194-.39989-9.50539-9.76067-9.50539-9.76067v-84.15612s-.0749-12.11535 11.33806-12.11535z" style="opacity:1;mix-blend-mode:normal;fill:#ef6840;fill-opacity:1;stroke-width:7.55906;stroke-linecap:round;stroke-linejoin:round;stroke-dasharray:7.55906,15.1181" transform="translate(107.06465 -536.53121)"/><g style="display:inline" transform="translate(106.92987987 -538.5141436)"><circle cx="722.94879" cy="854.53064" r="3.4077702" style="fill:#272727;fill-opacity:1;stroke:none;stroke-width:3.77953;stroke-linecap:round;stroke-linejoin:round;stroke-dasharray:none;stroke-dashoffset:0;stroke-opacity:1"/><circle cx="753.09442" cy="854.53064" r="3.4077702" style="fill:#272727;fill-opacity:1;stroke:none;stroke-width:3.77953;stroke-linecap:round;stroke-linejoin:round;stroke-dasharray:none;stroke-dashoffset:0;stroke-opacity:1"/><path d="M724.25957 873.99424h27.39322" style="fill:none;fill-opacity:1;stroke:#222;stroke-width:3.77953;stroke-linecap:round;stroke-linejoin:round;stroke-dasharray:none;stroke-dashoffset:0;stroke-opacity:1"/></g></g><g style="display:inline"><path d="M696.06896 808.51037c-11.41296 0-11.33789 12.11523-11.33789 12.11523v84.15625s1.31196 9.35988 9.5039 9.75977c64.12927-1.60024 127.71801 0 192.00782 0 0 0 10.6875-.68306 10.6875-10.93555v-82.96875s.92041-12.54692-11.07227-12.12695c-63.38173 1.61209-126.3185.00057-189.78906 0z" style="opacity:1;mix-blend-mode:normal;fill:#ef6840;fill-opacity:1;stroke-width:7.55906;stroke-linecap:round;stroke-linejoin:round;stroke-dasharray:7.55906,15.1181" transform="translate(535.17136 -536.05209)"/><g style="display:inline" transform="translate(587.988563 -538.0346885)"><circle cx="722.94879" cy="854.53064" r="3.4077702" style="fill:#272727;fill-opacity:1;stroke:none;stroke-width:3.77953;stroke-linecap:round;stroke-linejoin:round;stroke-dasharray:none;stroke-dashoffset:0;stroke-opacity:1"/><circle cx="753.09442" cy="854.53064" r="3.4077702" style="fill:#272727;fill-opacity:1;stroke:none;stroke-width:3.77953;stroke-linecap:round;stroke-linejoin:round;stroke-dasharray:none;stroke-dashoffset:0;stroke-opacity:1"/><path d="M724.25957 873.99424h27.39322" style="fill:none;fill-opacity:1;stroke:#222;stroke-width:3.77953;stroke-linecap:round;stroke-linejoin:round;stroke-dasharray:none;stroke-dashoffset:0;stroke-opacity:1"/></g></g><g style="display:inline"><path d="M781.04163 704.48342c-.34997-.0114-.71116-.0112-1.08594.002h-83.88671c-11.41296 0-11.3379 12.11524-11.3379 12.11524.90943 62.73971 0 188.17969 0 188.17969s1.31197 9.36182 9.50391 9.76171h86.10547s10.68555-.68305 10.68555-10.93554c-1.00839-62.37969 0-124.55813 0-186.99414 0 0 .86472-11.7748-9.98438-12.12891z" style="opacity:1;mix-blend-mode:normal;fill:#ef6840;fill-opacity:1;stroke-width:7.55906;stroke-linecap:round;stroke-linejoin:round;stroke-dasharray:7.55906,15.1181" transform="translate(320.60859 -537.58703)"/><g style="display:inline" transform="translate(320.47381987 -590.875259)"><circle cx="722.94879" cy="854.53064" r="3.4077702" style="fill:#272727;fill-opacity:1;stroke:none;stroke-width:3.77953;stroke-linecap:round;stroke-linejoin:round;stroke-dasharray:none;stroke-dashoffset:0;stroke-opacity:1"/><circle cx="753.09442" cy="854.53064" r="3.4077702" style="fill:#272727;fill-opacity:1;stroke:none;stroke-width:3.77953;stroke-linecap:round;stroke-linejoin:round;stroke-dasharray:none;stroke-dashoffset:0;stroke-opacity:1"/><path d="M724.25957 873.99424h27.39322" style="fill:none;fill-opacity:1;stroke:#222;stroke-width:3.77953;stroke-linecap:round;stroke-linejoin:round;stroke-dasharray:none;stroke-dashoffset:0;stroke-opacity:1"/></g></g><use xlink:href="#c" style="stroke-width:.993625" transform="matrix(1 0 0 1.012872 -428.29289 638.03476)"/></g><g style="display:inline"><path id="d" d="M1237.3605 704.00911h72.7282c10.3974-.3708 9.5987 10.7067 9.5987 10.7067v73.25378c0 9.05191-9.2656 9.65514-9.2656 9.65514h-74.6501c-7.1022-.35306-8.241-8.61768-8.241-8.61768v-74.30132s-.065-10.69662 9.8298-10.69662z" style="font-variation-settings:normal;display:inline;mix-blend-mode:normal;vector-effect:none;fill:#f0805d;fill-opacity:.678431;stroke:none;stroke-width:6.04724;stroke-linecap:round;stroke-linejoin:round;stroke-miterlimit:4;stroke-dasharray:6.04724,18.1417;stroke-dashoffset:0;stroke-opacity:1;-inkscape-stroke:none;stop-color:#000"/><use xlink:href="#d" style="display:inline" transform="translate(0 -104)"/><use xlink:href="#d" transform="translate(106 -104)"/><use xlink:href="#d" transform="translate(212 -104)"/><use xlink:href="#d" transform="translate(212)"/><path d="M1103.2885 510.94453c-3.4576 11.59946 15.1223 16.02884 23.2734 19.86661 11.9517 4.16847 12.8963-11.3371 21.5225-15.20008 3.9964-1.67416 12.2719-5.24035 14.6054-.34101-2.6466 9.85095-23.7648 24.3618-18.4904 44.68912.7379 4.94254 4.0441 10.5677 10.1456 9.77833-11.5903 12.3024-4.8929 34.36104 11.3531 38.56131 14.0041 4.24291 31.2147-5.34275 33.1369-19.85549 1.9823-11.1288-4.7491-23.41833-16.1294-26.61529 8.6255-4.34779-.2476-13.47101 5.6225-19.19004 16.5062-21.92191 29.5234-40.21635 3.4506-62.65365-22.5064-16.52538-71.0952-7.30375-88.4902 30.96019z" style="font-weight:700;font-size:159.997px;line-height:1;font-family:&quot;Corporate Logo ver2&quot;;-inkscape-font-specification:&quot;Corporate Logo ver2 Bold&quot;;letter-spacing:0;word-spacing:0;display:inline;vector-effect:none;fill:#333;stroke-width:1.88976;stroke-linecap:square;stop-color:#000"/><text xml:space="preserve" x="866.33881" y="921.46692" style="font-weight:700;font-size:159.997px;line-height:1;font-family:&quot;Corporate Logo ver2&quot;;-inkscape-font-specification:&quot;Corporate Logo ver2 Bold&quot;;font-variation-settings:normal;text-align:start;letter-spacing:0;word-spacing:0;writing-mode:lr-tb;direction:ltr;text-anchor:start;display:inline;vector-effect:none;fill:#eee;fill-opacity:1;stroke:none;stroke-width:1.88976;stroke-linecap:square;stroke-linejoin:miter;stroke-miterlimit:4;stroke-dasharray:none;stroke-dashoffset:0;stroke-opacity:1;-inkscape-stroke:none;stop-color:#000" transform="matrix(.98123599 -.28391709 .27209902 .94039196 0 0)"><tspan x="866.33881" y="921.46692" style="fill:#eee;fill-opacity:1;stroke:none;stroke-width:1.88976;stroke-dasharray:none;stroke-opacity:1">？</tspan></text><g style="display:inline"><path d="M1518.9566 761.56148c-6.6449-2.12627-8.4241 5.61648-10.5755 8.79316-5.353.3204-11.8283-1.49623-15.2985 4.07204-1.7051 3.78873-.9091 7.90685-1.0914 11.89613.058 3.643 2.8719 6.99773 6.4491 7.68961-5.2404 4.55588-12.8944 11.64533-4.9576 18.03397 2.5428 3.35838 5.7883 7.07441 9.4177 8.02651-.9222 6.19852 4.8044 10.88867 10.7011 10.04254 4.0077-.10621 8.6785.7824 11.499-3.03084h6.545c3.811 4.01074 9.3589 2.43197 14.2209 2.75495 3.1283-.35157 4.5822-1.72056 6.7573-3.77632 4.2735 6.39853 12.4907 3.34892 15.8771-1.92436 10.4608 6.72814 23.259 5.38579 35.1101 5.53535 8.071-.74908 9.4821-10.84977 10.6538-17.19497-1.2843-4.09866-4.8933-5.78359-3.833-10.34581.6462-3.73495-1.6312-6.97315-1.8735-10.32752v-20.08457c.148-7.15625-7.1886-8.5856-12.6902-8.14355h-35.18c-4.121-.0381-7.8453 3.51086-8.0056 7.62896-4.4026-1.51476-9.1242-.60627-13.6938-.85212-2.5152-.42857-6.8367 1.6121-6.0612-3.31491-3.0706-4.81241-9.0984-4.24085-13.9708-5.47825z" style="font-weight:700;font-size:110px;line-height:1;font-family:&quot;Corporate Logo ver2&quot;;-inkscape-font-specification:&quot;Corporate Logo ver2 Bold&quot;;letter-spacing:0;word-spacing:0;white-space:pre;inline-size:231.816;display:inline;fill:#333;stroke-width:0;stroke-linecap:square;stroke-linejoin:round"/><text xml:space="preserve" x="904" y="742" style="font-weight:700;font-size:110px;line-height:1;font-family:&quot;Corporate Logo ver2&quot;;-inkscape-font-specification:&quot;Corporate Logo ver2 Bold&quot;;text-align:start;letter-spacing:0;word-spacing:0;writing-mode:lr-tb;direction:ltr;text-anchor:start;white-space:pre;inline-size:231.816;display:inline;fill:#eee;fill-opacity:1;stroke:none;stroke-width:0;stroke-linecap:square;stroke-linejoin:round;stroke-dasharray:none;stroke-dashoffset:0;stroke-opacity:1" transform="translate(1044.4548 445.01364) scale(.50090089)"><tspan x="904" y="742">右足</tspan></text></g><path d="M1169.0928 762.11814c-6.3585-1.67651-7.4967 5.87659-9.3192 8.81273-4.8739.27859-10.8008-1.33602-13.9318 3.75634-1.5984 3.65713-.8249 7.62659-1.0065 11.47027-.2122 5.24159 5.0085 7.96586 9.5337 7.51253-2.1604 5.0123-4.9386 9.92872-9.1268 13.5253-6.9026 6.97737 3.0544 17.02903 9.5558 19.43321 4.1265-1.60224 7.4808 2.77402 11.8824 1.8091h35.8631l2.2121-.40911 1.9918-1.04566c4.6659 4.56966 10.821.6613 13.7161-3.67947 10.2426 6.87075 22.9543 5.6155 34.6797 5.73982 8.0615-.21035 9.5115-10.50193 10.5814-16.67878-1.0436-3.86594-4.8669-4.91949-3.8204-9.06249-.1102-3.34007.6498-7.10788-2.1191-9.72584.5487-4.36045.1-8.85208.2456-13.26549-.2098-4.1317.6445-8.40351-1.0066-12.34545-3.3545-5.20652-9.5404-3.42892-14.6443-3.75633h-31.5883c-4.0749-.1157-7.7163 3.60788-7.5126 7.67689-4.5657-1.65694-9.4752-.70357-14.2261-.95484h-7.0592c.404-5.24526-4.7067-8.12847-9.3101-8.11396-1.8636-.23292-3.7272-.46585-5.5907-.69877z" style="font-weight:700;font-size:110px;line-height:1;font-family:&quot;Corporate Logo ver2&quot;;-inkscape-font-specification:&quot;Corporate Logo ver2 Bold&quot;;letter-spacing:0;word-spacing:0;white-space:pre;inline-size:231.816;display:inline;fill:#333;stroke-width:0;stroke-linecap:square;stroke-linejoin:round"/><text xml:space="preserve" x="904" y="742" style="font-weight:700;font-size:110px;line-height:1;font-family:&quot;Corporate Logo ver2&quot;;-inkscape-font-specification:&quot;Corporate Logo ver2 Bold&quot;;text-align:start;letter-spacing:0;word-spacing:0;writing-mode:lr-tb;direction:ltr;text-anchor:start;white-space:pre;inline-size:231.816;display:inline;fill:#eee;fill-opacity:1;stroke:none;stroke-width:0;stroke-linecap:square;stroke-linejoin:round;stroke-dasharray:none;stroke-dashoffset:0;stroke-opacity:1" transform="translate(696.55831 445.01364) scale(.50090089)"><tspan x="904" y="742">左足</tspan></text></g></svg>