<svg xmlns="http://www.w3.org/2000/svg" xmlns:xlink="http://www.w3.org/1999/xlink" xml:space="preserve" width="1904" height="1072"><defs><linearGradient id="g"><stop offset="0" style="stop-color:#ff9a61;stop-opacity:1"/><stop offset=".99989998" style="stop-color:#ff9a61;stop-opacity:0"/></linearGradient><linearGradient id="f"><stop offset="0" style="stop-color:#17979f;stop-opacity:1"/><stop offset="1" style="stop-color:#17979f;stop-opacity:0"/></linearGradient><linearGradient id="e"><stop offset="0" style="stop-color:#fff;stop-opacity:1"/><stop offset="1" style="stop-color:#fff;stop-opacity:0"/></linearGradient><linearGradient id="d"><stop offset="0" style="stop-color:#17979f;stop-opacity:1"/><stop offset="1" style="stop-color:#17979f;stop-opacity:0"/></linearGradient><linearGradient id="a"><stop offset="0" style="stop-color:#ff9a61;stop-opacity:1"/><stop offset="1" style="stop-color:#ff9a61;stop-opacity:0"/></linearGradient><linearGradient id="b"><stop offset="0" style="stop-color:#ff9a61;stop-opacity:1"/><stop offset="1" style="stop-color:#ff9a61;stop-opacity:0"/></linearGradient><linearGradient id="c"><stop offset="0" style="stop-color:#17979f;stop-opacity:1"/><stop offset="1" style="stop-color:#17979f;stop-opacity:0"/></linearGradient><linearGradient xlink:href="#f" id="h" x1="1393.172" x2="956.849" y1="713.41547" y2="325.65897" gradientUnits="userSpaceOnUse"/><linearGradient xlink:href="#g" id="i" x1="1394.209" x2="1260.5051" y1="775.77979" y2="327.79019" gradientUnits="userSpaceOnUse"/></defs><g style="display:inline;mix-blend-mode:normal"><g style="display:inline;opacity:.5"><path d="M41.942602 169.08311H1858.8889M41.942602 276.17334H1858.8889M41.942602 383.26357H1858.8889M41.942602 490.3538H1858.8889M41.942602 597.44404H1858.8889M41.942602 704.53427H1858.8889M41.942602 811.6245H1858.8889M41.942602 918.71473H1858.8889" style="display:inline;fill:none;fill-opacity:1;stroke:#a4a4a4;stroke-width:1.00157;stroke-linecap:round;stroke-linejoin:round;stroke-dasharray:none;stroke-opacity:1" transform="translate(6.959014 -2.55312)"/></g><g style="display:inline;opacity:.5;stroke-width:.896677"><path d="M897.60883 58.7185v859.8066M1004.5543 58.7185v859.8066M1111.4998 58.7185v859.8066M1218.4453 58.7185v859.8066M1325.3908 58.7185v859.8066M1432.3363 58.7185v859.8066M1539.2817 58.7185v859.8066M1646.2272 58.7185v859.8066M1753.1727 58.7185v859.8066M1860.1182 58.7185v859.8066M790.66334 58.7185v859.8066M683.71786 58.7185v859.8066M576.77237 58.7185v859.8066M469.82689 58.7185v859.8066M362.8814 58.7185v859.8066M255.93592 58.7185v859.8066M148.99043 58.7185v859.8066" style="fill:none;fill-opacity:1;stroke:#a4a4a4;stroke-width:.898084;stroke-linecap:round;stroke-linejoin:round;stroke-dasharray:none;stroke-opacity:1" transform="matrix(1 0 0 1.2437367 .959014 -71.4691)"/></g><path d="M-6-4v1084h690.83984c.11788-.5334.34571-1.0407.34571-1.5977V926.70898c0-5.84006-6.70796-10.54101-15.04102-10.54101h-78.10351c-8.33307 0-15.04102 4.70095-15.04102 10.54101V1021H472V594.97487c204.47389 0 197.95898.5 197.95898.5 8.33307 0 15.04102-4.70095 15.04102-10.54102v-86.39283C685 492.70095 678.29205 488 669.95898 488H578V284.54102C578 278.70095 571.29205 274 562.95898 274H472V166.58594h319.25195v417.9026c0 5.84006 6.70991 10.54102 15.04297 10.54102h76.68946c8.33306 0 15.04101-4.70096 15.04101-10.54102v-99.5276c1.79676.52922 3.77214.82226 5.84961.82226h406.9082c8.3331 0 15.043-4.7029 15.043-10.54297v-87.81054c0-5.84006-6.7099-10.54102-15.043-10.54102H903.875c-2.07747 0-4.05285.2911-5.84961.82031V166.58594H1539.5V861h-91.459c-8.333 0-15.041 4.70095-15.041 10.54102V1080h477V-4Zm810.87891 920.16797c-8.33306 0-15.04102 4.70095-15.04102 10.54101V1080h536.69351V926.70898c0-5.84006-6.708-10.54101-15.041-10.54101z" style="display:inline;mix-blend-mode:normal;fill:#9f999e;fill-opacity:1;stroke:none;stroke-width:.5;stroke-linecap:round;stroke-linejoin:round"/><g style="display:inline;stroke-width:1.00249"><path d="M696.06846 808.50959h83.88713c11.99268-.41997 11.07138 12.12676 11.07138 12.12676V903.606c0 10.25249-10.68731 10.93573-10.68731 10.93573h-86.10387c-8.19194-.39989-9.50539-9.76067-9.50539-9.76067v-84.15612s-.0749-12.11535 11.33806-12.11535z" style="opacity:1;mix-blend-mode:normal;fill:#ff9a61;fill-opacity:1;stroke-width:7.57783;stroke-linecap:round;stroke-linejoin:round;stroke-dasharray:7.57783,15.1557" transform="matrix(.99294535 0 0 1.0021206 647.35014 -1.0851016)"/><g style="display:inline;stroke-width:1.00249" transform="matrix(.99294535 0 0 1.0021206 647.21632063 -3.0722402)"><circle cx="722.94879" cy="854.53064" r="3.4077702" style="fill:#272727;fill-opacity:1;stroke:none;stroke-width:3.78891;stroke-linecap:round;stroke-linejoin:round;stroke-dasharray:none;stroke-dashoffset:0;stroke-opacity:1"/><circle cx="753.09442" cy="854.53064" r="3.4077702" style="fill:#272727;fill-opacity:1;stroke:none;stroke-width:3.78891;stroke-linecap:round;stroke-linejoin:round;stroke-dasharray:none;stroke-dashoffset:0;stroke-opacity:1"/><path d="M724.25957 873.99424h27.39322" style="fill:none;fill-opacity:1;stroke:#222;stroke-width:3.78891;stroke-linecap:round;stroke-linejoin:round;stroke-dasharray:none;stroke-dashoffset:0;stroke-opacity:1"/></g></g><g style="display:inline;stroke-width:1.01784"><path d="M696.06846 808.50959h83.88713c11.99268-.41997 11.07138 12.12676 11.07138 12.12676V903.606c0 10.25249-10.68731 10.93573-10.68731 10.93573h-86.10387c-8.19194-.39989-9.50539-9.76067-9.50539-9.76067v-84.15612s-.0749-12.11535 11.33806-12.11535z" style="opacity:1;mix-blend-mode:normal;fill:#ff9a61;fill-opacity:1;stroke-width:7.6939;stroke-linecap:round;stroke-linejoin:round;stroke-dasharray:7.6939,15.3878" transform="matrix(.98594047 0 0 .99604641 -203.01721 110.06367)"/><g style="display:inline;stroke-width:1.01784" transform="matrix(.98594047 0 0 .99604641 -203.15008533 108.0885761)"><circle cx="722.94879" cy="854.53064" r="3.4077702" style="fill:#272727;fill-opacity:1;stroke:none;stroke-width:3.84694;stroke-linecap:round;stroke-linejoin:round;stroke-dasharray:none;stroke-dashoffset:0;stroke-opacity:1"/><circle cx="753.09442" cy="854.53064" r="3.4077702" style="fill:#272727;fill-opacity:1;stroke:none;stroke-width:3.84694;stroke-linecap:round;stroke-linejoin:round;stroke-dasharray:none;stroke-dashoffset:0;stroke-opacity:1"/><path d="M724.25957 873.99424h27.39322" style="fill:none;fill-opacity:1;stroke:#222;stroke-width:3.84694;stroke-linecap:round;stroke-linejoin:round;stroke-dasharray:none;stroke-dashoffset:0;stroke-opacity:1"/></g></g><g style="display:inline;stroke-width:.992405"><path d="M696.06896 808.51037c-11.41296 0-11.33789 12.11523-11.33789 12.11523v84.15625s1.31196 9.35988 9.5039 9.75977h192.00782s10.6875-.68306 10.6875-10.93555v-82.96875s.92041-12.54692-11.07227-12.12695z" style="opacity:1;mix-blend-mode:normal;fill:#ff9a61;fill-opacity:1;stroke-width:7.50164;stroke-linecap:round;stroke-linejoin:round;stroke-dasharray:7.50164,15.0033" transform="matrix(1.0106024 0 0 1.0047152 206.2591 -2.9660502)"/><g style="display:inline;stroke-width:.992405" transform="matrix(1.0106024 0 0 1.0047152 259.63629211 -4.95799705)"><circle cx="722.94879" cy="854.53064" r="3.4077702" style="fill:#272727;fill-opacity:1;stroke:none;stroke-width:3.75082;stroke-linecap:round;stroke-linejoin:round;stroke-dasharray:none;stroke-dashoffset:0;stroke-opacity:1"/><circle cx="753.09442" cy="854.53064" r="3.4077702" style="fill:#272727;fill-opacity:1;stroke:none;stroke-width:3.75082;stroke-linecap:round;stroke-linejoin:round;stroke-dasharray:none;stroke-dashoffset:0;stroke-opacity:1"/><path d="M724.25957 873.99424h27.39322" style="fill:none;fill-opacity:1;stroke:#222;stroke-width:3.75082;stroke-linecap:round;stroke-linejoin:round;stroke-dasharray:none;stroke-dashoffset:0;stroke-opacity:1"/></g></g><g style="display:inline;stroke-width:.994815"><path d="M696.06846 808.50959h83.88713c11.99268-.41997 11.07138 12.12676 11.07138 12.12676V903.606c0 10.25249-10.68731 10.93573-10.68731 10.93573h-86.10387c-8.19194-.39989-9.50539-9.76067-9.50539-9.76067v-84.15612s-.0749-12.11535 11.33806-12.11535z" style="opacity:1;mix-blend-mode:normal;fill:#17979f;fill-opacity:1;stroke-width:7.51981;stroke-linecap:round;stroke-linejoin:round;stroke-dasharray:7.51981,15.0395" transform="matrix(1.0066512 0 0 1.0037877 637.86179 -109.54903)"/><g style="display:inline;stroke-width:.994815" transform="matrix(1.0066512 0 0 1.0037877 637.72612349 -111.53947436)"><circle cx="722.94879" cy="854.53064" r="3.4077702" style="fill:#272727;fill-opacity:1;stroke:none;stroke-width:3.75991;stroke-linecap:round;stroke-linejoin:round;stroke-dasharray:none;stroke-dashoffset:0;stroke-opacity:1"/><circle cx="753.09442" cy="854.53064" r="3.4077702" style="fill:#272727;fill-opacity:1;stroke:none;stroke-width:3.75991;stroke-linecap:round;stroke-linejoin:round;stroke-dasharray:none;stroke-dashoffset:0;stroke-opacity:1"/><path d="M724.25957 873.99424h27.39322" style="fill:none;fill-opacity:1;stroke:#222;stroke-width:3.75991;stroke-linecap:round;stroke-linejoin:round;stroke-dasharray:none;stroke-dashoffset:0;stroke-opacity:1"/></g></g><path d="M1337.9182 915.87643h84.4789c12.0773-.41997 11.1495 12.12676 11.1495 12.12676v144.35351l-107.0466 1.1751V927.99178s-.076-12.11535 11.4182-12.11535zM693.9982 809.05841h85.0706c12.1619-.41997 11.2277 12.12676 11.2277 12.12676v256.10553L682.5 1078.4658V821.17376s-.076-12.11535 11.4982-12.11535z" style="display:inline;opacity:1;mix-blend-mode:normal;fill:#17979f;fill-opacity:1;stroke-width:7.55906;stroke-linecap:round;stroke-linejoin:round;stroke-dasharray:7.55906,15.1181"/><g style="display:inline"><path d="M589.26953 381.23633C577.8566 381.26505 578 393.41602 578 393.41602l.47461 84.15429s1.36648 9.3533 9.56055 9.70703l97.11328-.0684.32617 95.98438s1.36648 11.02521 9.56055 11.58398l86.10156-.76562s10.66318-.12126 10.625-10.81836l-.58789-190.36524c0 .00001 1.07148-12.55198-14.03516-12.06445z" style="display:inline;opacity:1;mix-blend-mode:normal;fill:#c5bd1e;fill-opacity:1;stroke-width:7.55906;stroke-linecap:round;stroke-linejoin:round;stroke-dasharray:7.55906,15.1181" transform="translate(-.00000126 .35355444)"/><g style="display:inline" transform="rotate(-.322802 -75414.0166 10080.32343568)"><circle cx="722.94879" cy="854.53064" r="3.4077702" style="fill:#272727;fill-opacity:1;stroke:none;stroke-width:3.77953;stroke-linecap:round;stroke-linejoin:round;stroke-dasharray:none;stroke-dashoffset:0;stroke-opacity:1"/><circle cx="753.09442" cy="854.53064" r="3.4077702" style="fill:#272727;fill-opacity:1;stroke:none;stroke-width:3.77953;stroke-linecap:round;stroke-linejoin:round;stroke-dasharray:none;stroke-dashoffset:0;stroke-opacity:1"/><path d="M724.25957 873.99424h27.39322" style="fill:none;fill-opacity:1;stroke:#222;stroke-width:3.77953;stroke-linecap:round;stroke-linejoin:round;stroke-dasharray:none;stroke-dashoffset:0;stroke-opacity:1"/></g></g><g style="display:inline;opacity:1"><path d="M699.06882 808.41472c-11.41297.001-11.33934 12.35854-11.33934 12.35854l-.009 85.83139s1.31271 9.5471 9.50462 9.95404l299.59957 1.19392s10.68683-.69838 10.68803-11.15501l.01-84.62223c0 .00001.9236-12.79694-11.06912-12.36726l-297.38471-1.19339z" style="display:inline;opacity:1;mix-blend-mode:normal;fill:#c5bd1e;fill-opacity:1;stroke-width:7.55906;stroke-linecap:round;stroke-linejoin:round;stroke-dasharray:7.55906,15.1181" transform="rotate(-.322802 -113189.97 38791.105)"/><g style="display:inline" transform="rotate(-.322802 -113487.11260221 19380.3602608)"><circle cx="722.94879" cy="854.53064" r="3.4077702" style="fill:#272727;fill-opacity:1;stroke:none;stroke-width:3.77953;stroke-linecap:round;stroke-linejoin:round;stroke-dasharray:none;stroke-dashoffset:0;stroke-opacity:1"/><circle cx="753.09442" cy="854.53064" r="3.4077702" style="fill:#272727;fill-opacity:1;stroke:none;stroke-width:3.77953;stroke-linecap:round;stroke-linejoin:round;stroke-dasharray:none;stroke-dashoffset:0;stroke-opacity:1"/><path d="M724.25957 873.99424h27.39322" style="fill:none;fill-opacity:1;stroke:#222;stroke-width:3.77953;stroke-linecap:round;stroke-linejoin:round;stroke-dasharray:none;stroke-dashoffset:0;stroke-opacity:1"/></g></g><g style="display:inline;mix-blend-mode:normal"><path d="m654.07377 795.49513 31.81981 28.99138M678.23672 747.32608l33.15559 61.23276M730.64841 752.64715l7.32107 43.13351" style="fill:none;fill-opacity:1;stroke:#c5bd1e;stroke-width:7.55906;stroke-linecap:round;stroke-linejoin:round;stroke-dasharray:none;stroke-dashoffset:0;stroke-opacity:1" transform="translate(-40.656854 -55.156854)"/></g><path d="M1261.1972 811.95227a20.587983 20.587983 0 0 0-20.588 20.58799 20.587983 20.587983 0 0 0 1.295 7.0345 23.051502 23.051502 0 0 0-20.6512 22.87966 23.051502 23.051502 0 0 0 23.0515 23.0515 23.051502 23.051502 0 0 0 16.5256-7.06062 24.987124 24.987124 0 0 0 10.0452 2.13358 24.987124 24.987124 0 0 0 4.1352-.3808l28.2425 21.84861-16.1751-27.44927a24.987124 24.987124 0 0 0 8.7845-19.00566 24.987124 24.987124 0 0 0-14.117-22.49473 20.587983 20.587983 0 0 0 .04-.55677 20.587983 20.587983 0 0 0-20.5882-20.58799z" style="display:inline;mix-blend-mode:normal;fill:#eee;fill-opacity:1;stroke:none;stroke-width:15.1181;stroke-linecap:round;stroke-linejoin:round;stroke-opacity:1"/><path d="M1016.9135 274.14389h84.4451c12.0724-.40756 11.145 11.76837 11.145 11.76837v80.51764c0 9.9495-10.7584 10.61255-10.7584 10.61255h-86.6766c-8.2464-.38808-9.5686-9.47222-9.5686-9.47222v-81.66904s-.075-11.7573 11.4135-11.7573z" style="display:inline;opacity:1;mix-blend-mode:normal;fill:#ff9a61;fill-opacity:.2;stroke:#ff9a61;stroke-width:7.55906;stroke-linecap:round;stroke-linejoin:round;stroke-dasharray:7.55906,22.6772;stroke-dashoffset:0;stroke-opacity:1"/><path d="M908.9135 274.14389h84.4451c12.0724-.40756 11.145 11.76837 11.145 11.76837v80.51764c0 9.9495-10.7584 10.61255-10.7584 10.61255h-86.6766c-8.2464-.38808-9.5686-9.47222-9.5686-9.47222v-81.66904s-.075-11.7573 11.4135-11.7573z" style="display:inline;opacity:1;mix-blend-mode:normal;fill:#17979f;fill-opacity:.201511;stroke:#17979f;stroke-width:7.55906;stroke-linecap:round;stroke-linejoin:round;stroke-dasharray:7.55906,22.6772;stroke-dashoffset:0;stroke-opacity:1"/><path d="M1003.2089 327.10156v37.79688h351.8927v349.55961h37.7968v-350.3975c.036-11.3281-4.2198-23.42612-13.0429-29.99805-8.8232-6.57193-17.3836-6.70901-23.0782-6.94336-.259-.0112-.5181-.0171-.7773-.0176z" style="opacity:.71;fill:url(#h);fill-opacity:1;stroke-linecap:square;stroke-linejoin:round"/><path d="M1110.3356 313.10156v37.79688h261.766v458.66547h37.7968V350.06055c.036-11.3281-4.2198-23.42612-13.0429-29.99805-8.8232-6.57193-17.3836-6.70901-23.0782-6.94336-.259-.0112-.5181-.0171-.7773-.0176z" style="opacity:.71;fill:url(#i);stroke-linecap:square;stroke-linejoin:round"/><g style="display:inline;mix-blend-mode:normal"><path d="M1348.6483 942.18487v31.75l33.0566 30.95893v.3574l.1895-.1777.1914.1777v-.3574l33.0566-30.95893v-31.75l-33.248 33.1269z" style="fill:#78e5eb;fill-opacity:1;stroke:none;stroke-width:3.77953;stroke-linecap:round;stroke-linejoin:round;stroke-dasharray:none;stroke-dashoffset:0;stroke-opacity:1" transform="translate(0 -3.8406208)"/><path d="M1348.6483 995.21787v31.74993l33.0566 30.959v.3574l.1895-.1777.1914.1777v-.3574l33.0566-30.959v-31.74993l-33.248 33.12683z" style="fill:#78e5eb;fill-opacity:1;stroke:none;stroke-width:3.77953;stroke-linecap:round;stroke-linejoin:round;stroke-dasharray:none;stroke-dashoffset:0;stroke-opacity:1" transform="translate(0 -3.8406208)"/></g><g style="display:inline;mix-blend-mode:normal"><path d="M1348.6483 942.18487v31.75l33.0566 30.95893v.3574l.1895-.1777.1914.1777v-.3574l33.0566-30.95893v-31.75l-33.248 33.1269z" style="fill:#78e5eb;fill-opacity:1;stroke:none;stroke-width:3.77953;stroke-linecap:round;stroke-linejoin:round;stroke-dasharray:none;stroke-dashoffset:0;stroke-opacity:1" transform="matrix(1 0 0 -1 -644 1999.6285)"/><path d="M1348.6483 995.21787v31.74993l33.0566 30.959v.3574l.1895-.1777.1914.1777v-.3574l33.0566-30.959v-31.74993l-33.248 33.12683z" style="fill:#78e5eb;fill-opacity:1;stroke:none;stroke-width:3.77953;stroke-linecap:round;stroke-linejoin:round;stroke-dasharray:none;stroke-dashoffset:0;stroke-opacity:1" transform="matrix(1 0 0 -1 -644 1999.6285)"/></g></g></svg>