<svg xmlns="http://www.w3.org/2000/svg" xmlns:xlink="http://www.w3.org/1999/xlink" xml:space="preserve" width="519.1217" height="581.20227"><defs><linearGradient id="e"><stop offset="0" style="stop-color:#c5bd1e;stop-opacity:0"/><stop offset="1" style="stop-color:#c5bd1e;stop-opacity:1"/></linearGradient><linearGradient id="d"><stop offset="0" style="stop-color:#c5bd1e;stop-opacity:1"/><stop offset="1" style="stop-color:#c5bd1e;stop-opacity:0"/></linearGradient><linearGradient id="c"><stop offset="0" style="stop-color:#17979f;stop-opacity:1"/><stop offset="1" style="stop-color:#17979f;stop-opacity:0"/></linearGradient><linearGradient id="b"><stop offset="0" style="stop-color:#ff9a61;stop-opacity:1"/><stop offset="1" style="stop-color:#ff9a61;stop-opacity:0"/></linearGradient><linearGradient id="a"><stop offset="0" style="stop-color:#17979f;stop-opacity:1"/><stop offset="1" style="stop-color:#17979f;stop-opacity:0"/></linearGradient><linearGradient xlink:href="#e" id="f" x1="1166.1556" x2="1376.5269" y1="795.53407" y2="795.53406" gradientUnits="userSpaceOnUse"/></defs><g style="display:inline"><g style="display:inline"><g style="display:inline;opacity:.5"><path d="M654.24105 490.89892h499.90465M654.24105 597.72787h499.90465M654.24105 704.55683h499.90465M654.24105 811.38578h499.90465" style="display:inline;fill:none;fill-opacity:1;stroke:#a4a4a4;stroke-width:.573453;stroke-linecap:round;stroke-linejoin:round;stroke-dasharray:none;stroke-opacity:1" transform="translate(-655.938667 -420.65734)"/></g><g style="display:inline;opacity:.5;stroke-width:.896677"><path d="M897.2366 402.71455v447.3229" style="fill:none;fill-opacity:1;stroke:#a4a4a4;stroke-width:.898083;stroke-linecap:round;stroke-linejoin:round;stroke-dasharray:none;stroke-opacity:1" transform="matrix(1 0 0 1.2437367 -661.938667 -489.57332)"/><path d="M1004.0076 402.71456v447.32289M1110.7787 402.71456v447.32289M790.46556 402.71456v447.32289" style="fill:none;fill-opacity:1;stroke:#a4a4a4;stroke-width:.65706;stroke-linecap:round;stroke-linejoin:round;stroke-dasharray:none;stroke-opacity:1" transform="matrix(1 0 0 1.2437367 -661.938667 -489.57332)"/></g></g><path d="M674.23633 429.44336v57.95117c6.06986-1.9194 10.52539-7.38066 10.52539-14.10156v-43.84961zm441.02147 0c2.3055 2.8183 5.6717 4.7207 9.6133 4.7207h45.8105v-4.7207zM1125 539c-7.202 0-13 5.798-13 13v435.96875h58.6816V539ZM674.23633 808.5v179.46875H1005.25V927c0-7.202-5.798-13.00481-13-13l-93.5.0625v-39.88281c0-7.16303-5.76666-12.92969-12.92969-12.92969H791.75v-39.77344c0-7.18927-5.78729-12.97656-12.97656-12.97656Z" style="display:inline;fill:#9e999c;fill-opacity:1;stroke:none;stroke-width:37.7953;stroke-linecap:square;stroke-linejoin:round" transform="translate(-662.89768 -418.10422)"/><path d="M1016.7266 752.26562c-11.4131 0-11.3379 6.67969-11.3379 6.67969v49.02735h-93.98831c-13.01946 0-12.93359 12.11523-12.93359 12.11523v84.15625s1.49672 9.36183 10.84179 9.76172h96.08011v76.63134l106.2949-.6465V758.95312s.9224-6.91908-11.0703-6.6875z" style="display:inline;opacity:1;mix-blend-mode:normal;fill:#ff9a61;fill-opacity:1;stroke-width:7.55906;stroke-linecap:round;stroke-linejoin:round;stroke-dasharray:7.55906,15.1181" transform="translate(-662.89768 -418.10422)"/><g style="display:inline"><path d="M696.06846 808.50959h83.88713c11.99268-.41997 11.07138 12.12676 11.07138 12.12676V903.606c0 10.25249-10.68731 10.93573-10.68731 10.93573h-86.10387c-8.19194-.39989-9.50539-9.76067-9.50539-9.76067v-84.15612s-.0749-12.11535 11.33806-12.11535z" style="opacity:1;mix-blend-mode:normal;fill:#17979f;fill-opacity:1;stroke-width:7.55906;stroke-linecap:round;stroke-linejoin:round;stroke-dasharray:7.55906,15.1181" transform="translate(-342.57424 -580.4758)"/><g style="display:inline" transform="translate(-342.70901013 -582.4587336)"><circle cx="722.94879" cy="854.53064" r="3.4077702" style="fill:#272727;fill-opacity:1;stroke:none;stroke-width:3.77953;stroke-linecap:round;stroke-linejoin:round;stroke-dasharray:none;stroke-dashoffset:0;stroke-opacity:1"/><circle cx="753.09442" cy="854.53064" r="3.4077702" style="fill:#272727;fill-opacity:1;stroke:none;stroke-width:3.77953;stroke-linecap:round;stroke-linejoin:round;stroke-dasharray:none;stroke-dashoffset:0;stroke-opacity:1"/><path d="M724.25957 873.99424h27.39322" style="fill:none;fill-opacity:1;stroke:#222;stroke-width:3.77953;stroke-linecap:round;stroke-linejoin:round;stroke-dasharray:none;stroke-dashoffset:0;stroke-opacity:1"/></g></g><path d="M1229.7598 739.875c-26.7708-.12368-36.833.24544-63.6042.1543v37.79492c37.2197.38146 57.7969-1.24537 94.9601 1.26193 14.7127 1.42618 31.8328 3.66956 40.67 17.17185 8.3566 12.24948 18.5436 23.99872 21.0787 39.10658 4.9146 27.02158 40.6397 16.05936 39.0071-7.17861 3.6745-17.28533 15.1183-35.60698 34.1467-37.82582 8.7486-1.08217 17.5973-.78397 26.3939-1.18046l-1.0371-37.78125c-18.5799.40393-38.0195.13565-54.6946 9.66003-10.7182 5.58681-20.0014 13.86934-26.7331 23.91028-12.0681-20.33191-32.3508-35.41355-55.5323-40.44161-17.8823-4.07089-36.4025-4.34798-54.6552-4.65214z" style="display:inline;opacity:.71;fill:url(#f);fill-opacity:1;stroke-linecap:square;stroke-linejoin:round" transform="translate(-1160.6832 -418.10422)"/><g style="display:inline;stroke-width:.993017"><path d="M696.06846 808.50959h83.88713c11.99268-.41997 11.07138 12.12676 11.07138 12.12676V903.606c0 10.25249-10.68731 10.93573-10.68731 10.93573h-86.10387c-8.19194-.39989-9.50539-9.76067-9.50539-9.76067v-84.15612s-.0749-12.11535 11.33806-12.11535z" style="opacity:1;mix-blend-mode:normal;fill:#c5bd1e;fill-opacity:1;stroke-width:7.50627;stroke-linecap:round;stroke-linejoin:round;stroke-dasharray:7.50627,15.0125" transform="matrix(1.0046673 -.00568682 .00566032 1.0093713 -457.25399 -528.44255)"/><g style="display:inline;stroke-width:.993017" transform="matrix(1.0046673 -.00568682 .00566032 1.0093713 -457.40061318 -530.44329985)"><circle cx="722.94879" cy="854.53064" r="3.4077702" style="fill:#272727;fill-opacity:1;stroke:none;stroke-width:3.75314;stroke-linecap:round;stroke-linejoin:round;stroke-dasharray:none;stroke-dashoffset:0;stroke-opacity:1"/><circle cx="753.09442" cy="854.53064" r="3.4077702" style="fill:#272727;fill-opacity:1;stroke:none;stroke-width:3.75314;stroke-linecap:round;stroke-linejoin:round;stroke-dasharray:none;stroke-dashoffset:0;stroke-opacity:1"/><path d="M724.25957 873.99424h27.39322" style="fill:none;fill-opacity:1;stroke:#222;stroke-width:3.75314;stroke-linecap:round;stroke-linejoin:round;stroke-dasharray:none;stroke-dashoffset:0;stroke-opacity:1"/></g></g><text xml:space="preserve" x="1403.745" y="519.81281" style="font-weight:700;font-size:80px;line-height:1;font-family:&quot;Corporate Logo ver2&quot;;-inkscape-font-specification:&quot;Corporate Logo ver2 Bold&quot;;text-align:center;letter-spacing:0;word-spacing:0;writing-mode:lr-tb;direction:ltr;text-anchor:middle;fill:#eee;fill-opacity:1;stroke:none;stroke-width:37.7953;stroke-linecap:square;stroke-linejoin:round;stroke-dasharray:none;stroke-dashoffset:0;stroke-opacity:1" transform="translate(-1160.6832 -418.10422)"><tspan x="1403.745" y="519.81281">0.5段なら</tspan><tspan x="1403.745" y="599.81281">登れる！</tspan></text><path d="M1172.0219 429.44281h496.44446v558.52502H1172.0219z" style="display:inline;fill:none;fill-opacity:1;stroke:#333;stroke-width:22.6772;stroke-linecap:square;stroke-linejoin:miter;stroke-dasharray:none;stroke-dashoffset:0;stroke-opacity:1" transform="translate(-1160.6832 -418.10422)"/></g></svg>