<svg xmlns="http://www.w3.org/2000/svg" xmlns:xlink="http://www.w3.org/1999/xlink" xml:space="preserve" width="850" height="850"><defs><linearGradient id="g"><stop offset="0" style="stop-color:#f5a633;stop-opacity:.2"/><stop offset="1" style="stop-color:#f5a633;stop-opacity:0"/></linearGradient><linearGradient id="f"><stop offset="0" style="stop-color:#4294dd;stop-opacity:1"/><stop offset="1" style="stop-color:#4294dd;stop-opacity:0"/></linearGradient><linearGradient id="d"><stop offset="0" style="stop-color:#4294dd;stop-opacity:1"/><stop offset="1" style="stop-color:#4294dd;stop-opacity:0"/></linearGradient><linearGradient id="b"><stop offset="0" style="stop-color:#f5a633;stop-opacity:1"/><stop offset="1" style="stop-color:#f5a633;stop-opacity:0"/></linearGradient><linearGradient id="j"><stop offset="0" style="stop-color:#4294dd;stop-opacity:1"/><stop offset="1" style="stop-color:#4294dd;stop-opacity:0"/></linearGradient><linearGradient id="h"><stop offset="0" style="stop-color:#f55948;stop-opacity:1"/><stop offset="1" style="stop-color:#f55948;stop-opacity:0"/></linearGradient><linearGradient id="i"><stop offset="0" style="stop-color:#f5a633;stop-opacity:1"/><stop offset="1" style="stop-color:#f5a633;stop-opacity:0"/></linearGradient><linearGradient id="e"><stop offset="0" style="stop-color:#f55948;stop-opacity:1"/><stop offset="1" style="stop-color:#f55948;stop-opacity:0"/></linearGradient><linearGradient id="c"><stop offset="0" style="stop-color:#f55948;stop-opacity:1"/><stop offset="1" style="stop-color:#faa79e;stop-opacity:0"/></linearGradient><linearGradient id="a"><stop offset="0" style="stop-color:#f5a633;stop-opacity:1"/><stop offset="1" style="stop-color:#f8bf6d;stop-opacity:0"/></linearGradient><linearGradient xlink:href="#g" id="k" x1="408.00061" x2="214.96046" y1="654.78088" y2="654.78088" gradientUnits="userSpaceOnUse"/><linearGradient xlink:href="#h" id="n" x1="824.48651" x2="461.03363" y1="958.83679" y2="547.30066" gradientUnits="userSpaceOnUse"/><linearGradient xlink:href="#i" id="l" x1="374.86758" x2="211.78543" y1="661.92169" y2="661.92169" gradientUnits="userSpaceOnUse"/><linearGradient xlink:href="#i" id="m" x1="374.86758" x2="211.78543" y1="661.92169" y2="661.92169" gradientUnits="userSpaceOnUse"/></defs><g style="display:inline"><g style="mix-blend-mode:normal"><g style="display:inline;opacity:.5"><path d="M64.391582 277.47156H932.35828M64.391582 380.88913H932.35828M64.391582 488.88922H932.35828M64.391582 594.79223H932.35828M64.391582 701.43202H932.35828M64.391582 808.19837H932.35828M64.391582 914.96473H932.35828" style="display:inline;fill:none;fill-opacity:1;stroke:#a4a4a4;stroke-width:1.00157;stroke-linecap:round;stroke-linejoin:round;stroke-dasharray:none;stroke-opacity:1" transform="translate(-71.706673 -208.22977)"/></g><g style="display:inline;opacity:.5;stroke-width:.895884"><path d="M904.96232 214.59327v703.94017M798.77833 214.59327v703.94017M692.59435 214.59327v703.94017M586.41036 214.59327v703.94017M480.22637 214.59327v703.94017M374.04239 214.59327v703.94017M267.8584 214.59327v703.94017M161.67442 214.59327v703.94017" style="fill:none;fill-opacity:1;stroke:#a4a4a4;stroke-width:.897291;stroke-linecap:round;stroke-linejoin:round;stroke-dasharray:none;stroke-opacity:1" transform="matrix(1.0017698 0 0 1.2437367 -81.5298454 -276.792194)"/></g></g><path d="M63.54261 702.15555v371.04495l867.34766.1718v-52.3105H683.94886V814.80204c0-3.25311-4.91681-6.9336-8.16992-6.9336h-97.89649V706.26102c0-3.25312-4.9168-4.10547-8.16992-4.10547H63.54261z" style="display:inline;fill:#a6a09c;fill-opacity:1;stroke:none;stroke-width:5;stroke-linecap:square;stroke-linejoin:round;stroke-dasharray:none" transform="translate(-71.706673 -208.22977)"/><g style="display:inline"><path d="M696.06846 808.50959h83.88713c11.99268-.41997 11.07138 12.12676 11.07138 12.12676V903.606c0 10.25249-10.68731 10.93573-10.68731 10.93573h-86.10387c-8.19194-.39989-9.50539-9.76067-9.50539-9.76067v-84.15612s-.0749-12.11535 11.33806-12.11535z" style="opacity:1;mix-blend-mode:normal;fill:#f55948;fill-opacity:1;stroke-width:7.55906;stroke-linecap:round;stroke-linejoin:round;stroke-dasharray:7.55906,15.1181" transform="translate(33.842787 -101.83033)"/><g style="display:inline" transform="translate(33.70801687 -103.8132636)"><circle cx="722.94879" cy="854.53064" r="3.4077702" style="fill:#272727;fill-opacity:1;stroke:none;stroke-width:3.77953;stroke-linecap:round;stroke-linejoin:round;stroke-dasharray:none;stroke-dashoffset:0;stroke-opacity:1"/><circle cx="753.09442" cy="854.53064" r="3.4077702" style="fill:#272727;fill-opacity:1;stroke:none;stroke-width:3.77953;stroke-linecap:round;stroke-linejoin:round;stroke-dasharray:none;stroke-dashoffset:0;stroke-opacity:1"/><path d="M724.25957 873.99424h27.39322" style="fill:none;fill-opacity:1;stroke:#222;stroke-width:3.77953;stroke-linecap:round;stroke-linejoin:round;stroke-dasharray:none;stroke-dashoffset:0;stroke-opacity:1"/></g></g><g style="display:inline"><path d="M696.06911 808.50951c-11.41296 0-11.33789 12.11523-11.33789 12.11523v84.15625s1.31197 9.35988 9.50391 9.75977h24.49805V808.50951h-22.66407z" style="opacity:1;mix-blend-mode:normal;fill:#4294dd;fill-opacity:1;stroke-width:7.55906;stroke-linecap:round;stroke-linejoin:round;stroke-dasharray:7.55906,15.1181" transform="translate(140.618387 -101.71849)"/></g><g style="display:inline;stroke-width:.994184"><path d="M696.06846 808.50959h83.88713c11.99268-.41997 11.07138 12.12676 11.07138 12.12676V903.606c0 10.25249-10.68731 10.93573-10.68731 10.93573h-86.10387c-8.19194-.39989-9.50539-9.76067-9.50539-9.76067v-84.15612s-.0749-12.11535 11.33806-12.11535z" style="opacity:1;mix-blend-mode:normal;fill:#f5a633;fill-opacity:1;stroke-width:7.5151;stroke-linecap:round;stroke-linejoin:round;stroke-dasharray:7.5151,15.0302" transform="matrix(.99998413 -.00570004 .00563393 1.011718 -395.377363 -640.48074)"/><g style="display:inline;stroke-width:.994184" transform="matrix(.99998413 -.00570004 .00563393 1.011718 -395.5233027 -642.48614142)"><circle cx="722.94879" cy="854.53064" r="3.4077702" style="fill:#272727;fill-opacity:1;stroke:none;stroke-width:3.75755;stroke-linecap:round;stroke-linejoin:round;stroke-dasharray:none;stroke-dashoffset:0;stroke-opacity:1"/><circle cx="753.09442" cy="854.53064" r="3.4077702" style="fill:#272727;fill-opacity:1;stroke:none;stroke-width:3.75755;stroke-linecap:round;stroke-linejoin:round;stroke-dasharray:none;stroke-dashoffset:0;stroke-opacity:1"/><path d="M724.25957 873.99424h27.39322" style="fill:none;fill-opacity:1;stroke:#222;stroke-width:3.75755;stroke-linecap:round;stroke-linejoin:round;stroke-dasharray:none;stroke-dashoffset:0;stroke-opacity:1"/></g></g><g style="display:inline"><path d="M696.06846 808.50959h83.88713c11.99268-.41997 11.07138 12.12676 11.07138 12.12676V903.606c0 10.25249-10.68731 10.93573-10.68731 10.93573h-86.10387c-8.19194-.39989-9.50539-9.76067-9.50539-9.76067v-84.15612s-.0749-12.11535 11.33806-12.11535z" style="opacity:1;mix-blend-mode:normal;fill:#f5a633;fill-opacity:1;stroke-width:7.55906;stroke-linecap:round;stroke-linejoin:round;stroke-dasharray:7.55906,15.1181" transform="rotate(-.322802 -17302.26785486 13657.6829934)"/><g style="display:inline" transform="rotate(-.322802 -17654.16045485 13682.59542908)"><circle cx="722.94879" cy="854.53064" r="3.4077702" style="fill:#272727;fill-opacity:1;stroke:none;stroke-width:3.77953;stroke-linecap:round;stroke-linejoin:round;stroke-dasharray:none;stroke-dashoffset:0;stroke-opacity:1"/><circle cx="753.09442" cy="854.53064" r="3.4077702" style="fill:#272727;fill-opacity:1;stroke:none;stroke-width:3.77953;stroke-linecap:round;stroke-linejoin:round;stroke-dasharray:none;stroke-dashoffset:0;stroke-opacity:1"/><path d="M724.25957 873.99424h27.39322" style="fill:none;fill-opacity:1;stroke:#222;stroke-width:3.77953;stroke-linecap:round;stroke-linejoin:round;stroke-dasharray:none;stroke-dashoffset:0;stroke-opacity:1"/></g></g></g><g style="display:inline"><text xml:space="preserve" x="258.11523" y="605.44061" style="font-weight:700;font-size:88.2505px;line-height:1;font-family:&quot;Corporate Logo ver2&quot;;-inkscape-font-specification:&quot;Corporate Logo ver2 Bold&quot;;text-align:start;letter-spacing:0;word-spacing:0;writing-mode:lr-tb;direction:ltr;text-anchor:start;fill:#000;fill-opacity:1;stroke:none;stroke-width:3.77953;stroke-linecap:square;stroke-linejoin:round;stroke-dasharray:7.55906,7.55906" transform="translate(-71.706673 -208.22977)"><tspan x="258.11523" y="605.44061" style="fill:#fff;fill-opacity:1;stroke-width:3.77953">①</tspan></text><text xml:space="preserve" x="645.29187" y="711.24561" style="font-weight:700;font-size:88.2505px;line-height:1;font-family:&quot;Corporate Logo ver2&quot;;-inkscape-font-specification:&quot;Corporate Logo ver2 Bold&quot;;text-align:start;letter-spacing:0;word-spacing:0;writing-mode:lr-tb;direction:ltr;text-anchor:start;fill:#000;fill-opacity:1;stroke:none;stroke-width:3.77953;stroke-linecap:square;stroke-linejoin:round;stroke-dasharray:7.55906,7.55906" transform="translate(-71.706673 -208.22977)"><tspan x="645.29187" y="711.24561" style="fill:#fff;fill-opacity:1;stroke-width:3.77953">②</tspan></text><g style="display:inline"><path d="M696.06846 808.50959h83.88713c11.99268-.41997 11.07138 12.12676 11.07138 12.12676V903.606c0 10.25249-10.68731 10.93573-10.68731 10.93573h-86.10387c-8.19194-.39989-9.50539-9.76067-9.50539-9.76067v-84.15612s-.0749-12.11535 11.33806-12.11535z" style="opacity:1;mix-blend-mode:normal;fill:#f5a633;fill-opacity:1;stroke-width:7.55906;stroke-linecap:round;stroke-linejoin:round;stroke-dasharray:7.55906,15.1181" transform="rotate(-.322802 -74198.96285486 107952.4795934)"/><g style="display:inline" transform="rotate(-.322802 -74550.85545485 107977.39202908)"><circle cx="722.94879" cy="854.53064" r="3.4077702" style="fill:#272727;fill-opacity:1;stroke:none;stroke-width:3.77953;stroke-linecap:round;stroke-linejoin:round;stroke-dasharray:none;stroke-dashoffset:0;stroke-opacity:1"/><circle cx="753.09442" cy="854.53064" r="3.4077702" style="fill:#272727;fill-opacity:1;stroke:none;stroke-width:3.77953;stroke-linecap:round;stroke-linejoin:round;stroke-dasharray:none;stroke-dashoffset:0;stroke-opacity:1"/><path d="M724.25957 873.99424h27.39322" style="fill:none;fill-opacity:1;stroke:#222;stroke-width:3.77953;stroke-linecap:round;stroke-linejoin:round;stroke-dasharray:none;stroke-dashoffset:0;stroke-opacity:1"/></g></g><path d="m375.96485 595.39423 83.8858-.47262c11.99012-.48753 11.13952 12.0642 11.13952 12.0642l.46745 82.96833c.0578 10.25233-10.62553 10.99577-10.62553 10.99577l-86.1025.4851c-8.19407-.35373-9.56023-9.70696-9.56023-9.70696l-.47413-84.15479s-.14316-12.11473 11.26962-12.17903z" style="display:inline;opacity:1;mix-blend-mode:normal;fill:#f5a633;fill-opacity:.2;stroke:#f5a633;stroke-width:6.04724;stroke-linecap:round;stroke-linejoin:round;stroke-dasharray:6.04724,18.1417;stroke-dashoffset:0;stroke-opacity:1" transform="translate(-71.706673 -208.22977)"/><g style="opacity:.807;fill:url(#k);fill-opacity:1;stroke-width:1.09373" transform="matrix(-.83595519 0 0 -1 476.344287 1114.33463)"><path d="M372.561 661.63495H237.93812" style="fill:url(#l);fill-opacity:1;stroke-width:1.09373;stroke-linecap:square;stroke-linejoin:round"/><path d="M219.04102 642.73828v37.79492h172.41796v-37.79492H237.9375Z" style="fill:url(#m);fill-opacity:1;stroke-width:1.09373;stroke-linecap:square;stroke-linejoin:round"/></g><path d="m375.96485 488.24112 83.8858-.47262c11.99012-.48753 11.13952 12.0642 11.13952 12.0642l.46745 82.96833c.0578 10.25233-10.62553 10.99577-10.62553 10.99577l-86.1025.4851c-8.19407-.35373-9.56023-9.70696-9.56023-9.70696l-.47413-84.15479s-.14316-12.11473 11.26962-12.17903z" style="display:inline;opacity:1;mix-blend-mode:normal;fill:#f55948;fill-opacity:.196474;stroke:#f55948;stroke-width:6.04724;stroke-linecap:round;stroke-linejoin:round;stroke-dasharray:6.04724,18.1417;stroke-dashoffset:0;stroke-opacity:1" transform="translate(-71.706673 -208.22977)"/><path d="m438.67969 524.43945-2.94336 37.68164 18.83984 1.47266c36.46144 2.84972 59.9396 16.22459 77.41406 34.25 17.47447 18.02541 28.56042 41.4404 35.75782 63.67578l-.36328-1.26953c23.83912 96.09554 102.53005 138.65355 174.51367 162.04102 40.65255 13.20801 72.74293 60.41586 73.03125 105.58007l.12109 18.89649 37.79492-.24024-.12109-18.89843c-.39528-61.91899-40.19987-122.13146-99.14649-141.28321-67.3231-21.87327-129.63411-55.07849-149.50976-135.19726a18.89954 18.89954 0 0 0-.36133-1.26953c-8.26803-25.54296-21.39556-54.4263-44.58008-78.3418-23.18452-23.91551-56.8106-42.12396-101.60547-45.625z" style="opacity:.8;fill:url(#n);fill-opacity:1;stroke-linecap:square;stroke-linejoin:round" transform="translate(-71.706673 -208.22977)"/></g></svg>