<svg xmlns="http://www.w3.org/2000/svg" xmlns:xlink="http://www.w3.org/1999/xlink" xml:space="preserve" width="1904" height="1072"><defs><linearGradient id="a"><stop offset="0" style="stop-color:#17979f;stop-opacity:1"/><stop offset="1" style="stop-color:#17979f;stop-opacity:0"/></linearGradient><linearGradient xlink:href="#a" id="d" x1="1063.4886" x2="1127.1282" y1="446.89148" y2="190.21173" gradientUnits="userSpaceOnUse"/></defs><g style="display:inline;opacity:.5" transform="translate(6.959014 -2.55312)"><path id="b" d="M271.9426 170.41206h1524.9463" style="display:inline;fill:none;fill-opacity:1;stroke:#a4a4a4;stroke-width:1.00157;stroke-linecap:round;stroke-linejoin:round;stroke-dasharray:none;stroke-opacity:1"/><use xlink:href="#b" style="display:inline;stroke-width:1.09156" transform="translate(0 106.82895)"/><use xlink:href="#b" style="display:inline;stroke-width:1.09156" transform="translate(0 213.65791)"/><use xlink:href="#b" style="display:inline;stroke-width:1.09156" transform="translate(0 320.48686)"/><use xlink:href="#b" style="display:inline;stroke-width:1.09156" transform="translate(0 427.31581)"/><use xlink:href="#b" style="display:inline;stroke-width:1.09156" transform="translate(0 534.14477)"/><use xlink:href="#b" style="display:inline;stroke-width:1.09156" transform="translate(0 640.97372)"/></g><g style="display:inline;opacity:.5;stroke-width:.896677" transform="matrix(1 0 0 1.2437367 .959014 -71.4691)"><path id="c" d="M897.2366 68.365534V904.05389" style="fill:none;fill-opacity:1;stroke:#a4a4a4;stroke-width:.898084;stroke-linecap:round;stroke-linejoin:round;stroke-dasharray:none;stroke-opacity:1"/><use xlink:href="#c" style="stroke-width:.909524" transform="translate(106.77104)"/><use xlink:href="#c" style="stroke-width:.909524" transform="translate(213.54209)"/><use xlink:href="#c" style="stroke-width:.909524" transform="translate(320.31313)"/><use xlink:href="#c" style="stroke-width:.909524" transform="translate(427.08417)"/><use xlink:href="#c" style="stroke-width:.909524" transform="translate(533.85521)"/><use xlink:href="#c" style="stroke-width:.909524" transform="translate(640.62625)"/><use xlink:href="#c" style="stroke-width:.909524" transform="translate(747.39729)"/><use xlink:href="#c" style="stroke-width:.909524" transform="translate(-106.77104)"/><use xlink:href="#c" style="stroke-width:.909524" transform="translate(-213.54208)"/><use xlink:href="#c" style="stroke-width:.909524" transform="translate(-320.31312)"/><use xlink:href="#c" style="stroke-width:.909524" transform="translate(-427.08416)"/></g><path d="M-11.314453-5.65625V1078H1005.25V927c0-7.202-5.798-13.00481-13-13l-93.5.0625v-39.88281c0-7.16303-5.76666-12.92969-12.92969-12.92969H791.75v-39.77344c0-7.18927-5.78729-12.97656-12.97656-12.97656h-414.1875V488.29297h305.17578c8.31 0 15-6.69 15-15V60.896484h960.67578V274.35742h-319.9648v-41.36523c0-6.46367-5.2043-11.66797-11.668-11.66797h-84.1465c-6.4637 0-11.666 5.2043-11.666 11.66797v41.36523h-93.1211c-6.9757 0-12.5918 5.61613-12.5918 12.5918v134.62305c0 6.97567 5.6161 12.59179 12.5918 12.59179h627.6934V916h-107.0333V552c0-7.202-5.798-13-13-13H1125c-7.202 0-13 5.798-13 13v526h798V-5.65625Z" style="display:inline;fill:#9e999c;fill-opacity:1;stroke:none;stroke-width:37.7953;stroke-linecap:square;stroke-linejoin:round"/><g style="display:inline"><path d="M696.06846 808.50959h83.88713c11.99268-.41997 11.07138 12.12676 11.07138 12.12676V903.606c0 10.25249-10.68731 10.93573-10.68731 10.93573h-86.10387c-8.19194-.39989-9.50539-9.76067-9.50539-9.76067v-84.15612s-.0749-12.11535 11.33806-12.11535z" style="opacity:1;mix-blend-mode:normal;fill:#ff9a61;fill-opacity:1;stroke-width:7.55906;stroke-linecap:round;stroke-linejoin:round;stroke-dasharray:7.55906,15.1181" transform="translate(640.7696 -640.21375)"/><g style="display:inline" transform="translate(640.63482987 -642.1966836)"><circle cx="722.94879" cy="854.53064" r="3.4077702" style="fill:#272727;fill-opacity:1;stroke:none;stroke-width:3.77953;stroke-linecap:round;stroke-linejoin:round;stroke-dasharray:none;stroke-dashoffset:0;stroke-opacity:1"/><circle cx="753.09442" cy="854.53064" r="3.4077702" style="fill:#272727;fill-opacity:1;stroke:none;stroke-width:3.77953;stroke-linecap:round;stroke-linejoin:round;stroke-dasharray:none;stroke-dashoffset:0;stroke-opacity:1"/><path d="M724.25957 873.99424h27.39322" style="fill:none;fill-opacity:1;stroke:#222;stroke-width:3.77953;stroke-linecap:round;stroke-linejoin:round;stroke-dasharray:none;stroke-dashoffset:0;stroke-opacity:1"/></g></g><g style="display:inline"><path d="M696.06846 808.50959h83.88713c11.99268-.41997 11.07138 12.12676 11.07138 12.12676V903.606c0 10.25249-10.68731 10.93573-10.68731 10.93573h-86.10387c-8.19194-.39989-9.50539-9.76067-9.50539-9.76067v-84.15612s-.0749-12.11535 11.33806-12.11535z" style="opacity:1;mix-blend-mode:normal;fill:#ff9a61;fill-opacity:1;stroke-width:7.55906;stroke-linecap:round;stroke-linejoin:round;stroke-dasharray:7.55906,15.1181" transform="translate(854.48006 -640.3602)"/><g style="display:inline" transform="translate(854.34528987 -642.3431336)"><circle cx="722.94879" cy="854.53064" r="3.4077702" style="fill:#272727;fill-opacity:1;stroke:none;stroke-width:3.77953;stroke-linecap:round;stroke-linejoin:round;stroke-dasharray:none;stroke-dashoffset:0;stroke-opacity:1"/><circle cx="753.09442" cy="854.53064" r="3.4077702" style="fill:#272727;fill-opacity:1;stroke:none;stroke-width:3.77953;stroke-linecap:round;stroke-linejoin:round;stroke-dasharray:none;stroke-dashoffset:0;stroke-opacity:1"/><path d="M724.25957 873.99424h27.39322" style="fill:none;fill-opacity:1;stroke:#222;stroke-width:3.77953;stroke-linecap:round;stroke-linejoin:round;stroke-dasharray:none;stroke-dashoffset:0;stroke-opacity:1"/></g></g><g style="display:inline;stroke-width:.993017"><path d="M696.06846 808.50959h83.88713c11.99268-.41997 11.07138 12.12676 11.07138 12.12676V903.606c0 10.25249-10.68731 10.93573-10.68731 10.93573h-86.10387c-8.19194-.39989-9.50539-9.76067-9.50539-9.76067v-84.15612s-.0749-12.11535 11.33806-12.11535z" style="opacity:1;mix-blend-mode:normal;fill:#c5bd1e;fill-opacity:1;stroke-width:7.50627;stroke-linecap:round;stroke-linejoin:round;stroke-dasharray:7.50627,15.0125" transform="matrix(1.0046673 -.00568682 .00566032 1.0093713 952.99704 -3.2079627)"/><g style="display:inline;stroke-width:.993017" transform="matrix(1.0046673 -.00568682 .00566032 1.0093713 952.85041682 -5.20871255)"><circle cx="722.94879" cy="854.53064" r="3.4077702" style="fill:#272727;fill-opacity:1;stroke:none;stroke-width:3.75314;stroke-linecap:round;stroke-linejoin:round;stroke-dasharray:none;stroke-dashoffset:0;stroke-opacity:1"/><circle cx="753.09442" cy="854.53064" r="3.4077702" style="fill:#272727;fill-opacity:1;stroke:none;stroke-width:3.75314;stroke-linecap:round;stroke-linejoin:round;stroke-dasharray:none;stroke-dashoffset:0;stroke-opacity:1"/><path d="M724.25957 873.99424h27.39322" style="fill:none;fill-opacity:1;stroke:#222;stroke-width:3.75314;stroke-linecap:round;stroke-linejoin:round;stroke-dasharray:none;stroke-dashoffset:0;stroke-opacity:1"/></g></g><g style="display:inline;stroke-width:.993017"><path d="M696.06846 808.50959h83.88713c11.99268-.41997 11.07138 12.12676 11.07138 12.12676V903.606c0 10.25249-10.68731 10.93573-10.68731 10.93573h-86.10387c-8.19194-.39989-9.50539-9.76067-9.50539-9.76067v-84.15612s-.0749-12.11535 11.33806-12.11535z" style="opacity:1;mix-blend-mode:normal;fill:#c5bd1e;fill-opacity:1;stroke-width:7.50627;stroke-linecap:round;stroke-linejoin:round;stroke-dasharray:7.50627,15.0125" transform="matrix(1.0046673 -.00568682 .00566032 1.0093713 -114.64846 -110.52398)"/><g style="display:inline;stroke-width:.993017" transform="matrix(1.0046673 -.00568682 .00566032 1.0093713 -114.79508318 -112.52472985)"><circle cx="722.94879" cy="854.53064" r="3.4077702" style="fill:#272727;fill-opacity:1;stroke:none;stroke-width:3.75314;stroke-linecap:round;stroke-linejoin:round;stroke-dasharray:none;stroke-dashoffset:0;stroke-opacity:1"/><circle cx="753.09442" cy="854.53064" r="3.4077702" style="fill:#272727;fill-opacity:1;stroke:none;stroke-width:3.75314;stroke-linecap:round;stroke-linejoin:round;stroke-dasharray:none;stroke-dashoffset:0;stroke-opacity:1"/><path d="M724.25957 873.99424h27.39322" style="fill:none;fill-opacity:1;stroke:#222;stroke-width:3.75314;stroke-linecap:round;stroke-linejoin:round;stroke-dasharray:none;stroke-dashoffset:0;stroke-opacity:1"/></g></g><g style="display:inline;stroke-width:.993017"><path d="M696.06846 808.50959h83.88713c11.99268-.41997 11.07138 12.12676 11.07138 12.12676V903.606c0 10.25249-10.68731 10.93573-10.68731 10.93573h-86.10387c-8.19194-.39989-9.50539-9.76067-9.50539-9.76067v-84.15612s-.0749-12.11535 11.33806-12.11535z" style="opacity:1;mix-blend-mode:normal;fill:#c5bd1e;fill-opacity:1;stroke-width:7.50627;stroke-linecap:round;stroke-linejoin:round;stroke-dasharray:7.50627,15.0125" transform="matrix(1.0046673 -.00568682 .00566032 1.0093713 -328.5878 -110.55431)"/><g style="display:inline;stroke-width:.993017" transform="matrix(1.0046673 -.00568682 .00566032 1.0093713 -328.73442318 -112.55505985)"><circle cx="722.94879" cy="854.53064" r="3.4077702" style="fill:#272727;fill-opacity:1;stroke:none;stroke-width:3.75314;stroke-linecap:round;stroke-linejoin:round;stroke-dasharray:none;stroke-dashoffset:0;stroke-opacity:1"/><circle cx="753.09442" cy="854.53064" r="3.4077702" style="fill:#272727;fill-opacity:1;stroke:none;stroke-width:3.75314;stroke-linecap:round;stroke-linejoin:round;stroke-dasharray:none;stroke-dashoffset:0;stroke-opacity:1"/><path d="M724.25957 873.99424h27.39322" style="fill:none;fill-opacity:1;stroke:#222;stroke-width:3.75314;stroke-linecap:round;stroke-linejoin:round;stroke-dasharray:none;stroke-dashoffset:0;stroke-opacity:1"/></g></g><path d="M1016.7258 539.14516h83.8871c11.9927-.38371 11.0714 11.07961 11.0714 11.07961v525.45413l-106.2966 1.0737V550.21434s-.075-11.06918 11.3381-11.06918z" style="display:inline;opacity:1;mix-blend-mode:normal;fill:#ff9a61;fill-opacity:1;stroke-width:7.55906;stroke-linecap:round;stroke-linejoin:round;stroke-dasharray:7.55906,15.1181"/><g style="display:inline"><path d="M696.06846 808.50959h83.88713c11.99268-.41997 11.07138 12.12676 11.07138 12.12676V903.606c0 10.25249-10.68731 10.93573-10.68731 10.93573h-86.10387c-8.19194-.39989-9.50539-9.76067-9.50539-9.76067v-84.15612s-.0749-12.11535 11.33806-12.11535z" style="opacity:1;mix-blend-mode:normal;fill:#17979f;fill-opacity:1;stroke-width:7.55906;stroke-linecap:round;stroke-linejoin:round;stroke-dasharray:7.55906,15.1181" transform="translate(320.60786 -375.09177)"/><g style="display:inline" transform="translate(320.47308987 -377.0747036)"><circle cx="722.94879" cy="854.53064" r="3.4077702" style="fill:#272727;fill-opacity:1;stroke:none;stroke-width:3.77953;stroke-linecap:round;stroke-linejoin:round;stroke-dasharray:none;stroke-dashoffset:0;stroke-opacity:1"/><circle cx="753.09442" cy="854.53064" r="3.4077702" style="fill:#272727;fill-opacity:1;stroke:none;stroke-width:3.77953;stroke-linecap:round;stroke-linejoin:round;stroke-dasharray:none;stroke-dashoffset:0;stroke-opacity:1"/><path d="M724.25957 873.99424h27.39322" style="fill:none;fill-opacity:1;stroke:#222;stroke-width:3.77953;stroke-linecap:round;stroke-linejoin:round;stroke-dasharray:none;stroke-dashoffset:0;stroke-opacity:1"/></g></g><path d="M1123.2673 168.3017h83.8872c11.9926-.41997 11.0713 12.12676 11.0713 12.12676v82.96965c0 10.25249-10.6873 10.93573-10.6873 10.93573h-86.1038c-8.192-.39989-9.5054-9.76067-9.5054-9.76067v-84.15612s-.075-12.11535 11.338-12.11535z" style="display:inline;opacity:1;mix-blend-mode:normal;fill:#17979f;fill-opacity:.2;stroke:#17979f;stroke-width:7.55906;stroke-linecap:round;stroke-linejoin:round;stroke-dasharray:7.55906,22.6772;stroke-dashoffset:0;stroke-opacity:1"/><path d="M1067.5566 215.44922c-16.6967 12.05742-25.653 31.17308-30.1503 52.79101-10.3729 64.20077-.1591 129.48795 6.8671 193.60352l37.5704-4.11719c-11.4877-104.82709-19.9545-191.5652 7.8398-211.63672 16.0869-10.14278 36.5041-4.24584 54.0625-1.49609l5.8477-37.33984c-27.9609-5.31042-57.1379-8.38233-82.0372 8.19531z" style="display:inline;opacity:.703;fill:url(#d);fill-opacity:1;stroke-linecap:square;stroke-linejoin:round"/><path id="e" d="M946.12498 488.6161h88.67462" style="fill:#222;fill-opacity:1;stroke:#fff;stroke-width:7.55905;stroke-linecap:round;stroke-linejoin:round;stroke-dasharray:none;stroke-opacity:1"/><use xlink:href="#e" id="f" x="0" y="0" transform="translate(0 105.71246)"/><use xlink:href="#f" transform="translate(0 107.48023)"/><path id="g" d="m948.448 538.46181 31.11267.35356" style="fill:none;fill-opacity:1;stroke:#fff;stroke-width:3.77952;stroke-linecap:round;stroke-linejoin:round;stroke-dasharray:none;stroke-opacity:1"/><use xlink:href="#g" transform="translate(.000005 109.60155)"/><path d="M634.68164 142.98242C506.42138 169.41885 485.40387 335.53871 551.51562 391.625c90.94683 67.87969 207.96465 59.51997 314.49219 41.06836l63.13086 36.82617-23.91406-50c67.20685-37.44565 74.7559-136.60691 48.9082-200.34765-45.39114-111.93508-259.95315-88.45292-319.45117-76.18946Z" style="fill:#eee;fill-opacity:1;stroke:#222;stroke-width:7.55906;stroke-linecap:round;stroke-linejoin:round;stroke-dasharray:none;stroke-opacity:1"/><text xml:space="preserve" x="736.69269" y="273.81696" style="font-weight:700;font-size:92.9055px;line-height:1;font-family:&quot;Corporate Logo ver2&quot;;-inkscape-font-specification:&quot;Corporate Logo ver2 Bold&quot;;text-align:center;letter-spacing:0;word-spacing:0;writing-mode:lr-tb;direction:ltr;text-anchor:middle;fill:#222;fill-opacity:1;stroke:none;stroke-width:7.55906;stroke-linecap:round;stroke-linejoin:round;stroke-dasharray:none;stroke-opacity:1"><tspan x="736.69269" y="273.81696" style="text-align:center;text-anchor:middle;fill:#222;fill-opacity:1;stroke-width:7.55906">0.5ずつ</tspan><tspan x="736.69269" y="366.72247" style="text-align:center;text-anchor:middle;fill:#222;fill-opacity:1;stroke-width:7.55906">下がってく</tspan></text><g style="stroke-width:1.20011"><path d="M1135.26 624.98538v150.80777M1110.7064 700.6929v124.35356h-42.2676l61.1641 100.22243 61.164-100.22243h-42.2656V700.6929Z" style="fill:#eee;stroke-width:1.20011;stroke-linecap:square;stroke-linejoin:round" transform="matrix(1 0 0 .69431721 0 191.04728)"/></g></svg>