<svg xmlns="http://www.w3.org/2000/svg" xmlns:xlink="http://www.w3.org/1999/xlink" xml:space="preserve" width="1907.6797" height="1083.2441"><defs><linearGradient id="a"><stop offset="0" style="stop-color:#4294dd;stop-opacity:1"/><stop offset="1" style="stop-color:#4294dd;stop-opacity:0"/></linearGradient><linearGradient xlink:href="#a" id="d" x1="1203.2573" x2="1124.9883" y1="913.13977" y2="552.05823" gradientUnits="userSpaceOnUse"/></defs><g style="display:inline"><g style="display:inline"><g style="display:inline;opacity:.5" transform="translate(8.3496093 4.1738283)"><path id="b" d="M41.942602 169.08311H1858.8889" style="fill:none;fill-opacity:1;stroke:#a4a4a4;stroke-width:1.00157;stroke-linecap:round;stroke-linejoin:round;stroke-dasharray:none;stroke-opacity:1"/><use xlink:href="#b" transform="translate(0 108.38845)"/><use xlink:href="#b" transform="translate(0 211.80602)"/><use xlink:href="#b" transform="translate(0 319.80611)"/><use xlink:href="#b" transform="translate(0 425.70912)"/><use xlink:href="#b" transform="translate(0 532.34891)"/><use xlink:href="#b" transform="translate(0 639.11526)"/></g><g style="display:inline;opacity:.5" transform="translate(8.3496093 4.1738283)"><path id="c" d="M899.6513 58.7185v859.8066" style="fill:none;fill-opacity:1;stroke:#a4a4a4;stroke-width:1.00157;stroke-linecap:round;stroke-linejoin:round;stroke-dasharray:none;stroke-opacity:1"/><use xlink:href="#c" transform="translate(105.90301)"/><use xlink:href="#c" transform="translate(212.85456)"/><use xlink:href="#c" transform="translate(316.66048)"/><use xlink:href="#c" transform="translate(424.66058)"/><use xlink:href="#c" transform="translate(533.70922)"/><use xlink:href="#c" transform="translate(640.66077)"/><use xlink:href="#c" transform="translate(744.46669)"/><use xlink:href="#c" transform="translate(854.56388)"/><use xlink:href="#c" transform="translate(960.46689)"/><use xlink:href="#c" transform="translate(-108.0001)"/><use xlink:href="#c" transform="translate(-214.95165)"/><use xlink:href="#c" transform="translate(-322.95174)"/><use xlink:href="#c" transform="translate(-427.80621)"/><use xlink:href="#c" transform="translate(-533.70922)"/><use xlink:href="#c" transform="translate(-640.56368)"/><use xlink:href="#c" transform="translate(-750.66087)"/></g></g><path d="M-8.3496094-4.1738281V1079.0703H1899.3301V-4.1738281ZM42.800781 60.527344H1859.5801V701.76953h-94.8242c-6.9499 0-12.545 5.5951-12.545 12.54492v94.45508h-108.0371v-18.77344h-.07v-77.1582c0-6.54101-5.2656-11.80664-11.8066-11.80664H1444.125c-6.541 0-11.8066 5.26563-11.8066 11.80664v82.64844c0 6.54101 5.2656 11.80664 11.8066 11.80664h95.168c0 132.54129.025-45.60976.025 106.89062H471.81836V608.12891c0-7.35863-5.92458-13.28321-13.2832-13.28321H378.9707c-7.35862 0-13.2832 5.92458-13.2832 13.28321v306.05468H42.800781ZM803.14453 593.2793c-6.70609 0-12.10547 5.39937-12.10547 12.10547v190.24804c0 6.70609 5.39938 12.10547 12.10547 12.10547h83.2793c6.70609 0 12.10547-5.39938 12.10547-12.10547V605.38477c0-6.7061-5.39938-12.10547-12.10547-12.10547zm214.01957 1.49023c-6.7061 0-12.1055 5.39938-12.1055 12.10547v82.78906c0 6.70609 5.3994 12.10547 12.1055 12.10547h294.5742c6.7061 0 12.1055-5.39938 12.1055-12.10547V606.875c0-6.70609-5.3994-12.10547-12.1055-12.10547z" style="fill:#a49e9a;fill-opacity:1;stroke:none;stroke-width:37.7953;stroke-linecap:square;stroke-linejoin:round" transform="translate(8.3496093 4.1738283)"/><g style="display:inline"><path d="M696.06846 808.50959h83.88713c11.99268-.41997 11.07138 12.12676 11.07138 12.12676V903.606c0 10.25249-10.68731 10.93573-10.68731 10.93573h-86.10387c-8.19194-.39989-9.50539-9.76067-9.50539-9.76067v-84.15612s-.0749-12.11535 11.33806-12.11535z" style="opacity:1;mix-blend-mode:normal;fill:#f5a633;fill-opacity:1;stroke-width:7.55906;stroke-linecap:round;stroke-linejoin:round;stroke-dasharray:7.55906,15.1181" transform="rotate(-.322802 -16763.02325519 -171115.88355986)"/><g style="display:inline" transform="rotate(-.322802 -17114.91585518 -171090.97112418)"><circle cx="722.94879" cy="854.53064" r="3.4077702" style="fill:#272727;fill-opacity:1;stroke:none;stroke-width:3.77953;stroke-linecap:round;stroke-linejoin:round;stroke-dasharray:none;stroke-dashoffset:0;stroke-opacity:1"/><circle cx="753.09442" cy="854.53064" r="3.4077702" style="fill:#272727;fill-opacity:1;stroke:none;stroke-width:3.77953;stroke-linecap:round;stroke-linejoin:round;stroke-dasharray:none;stroke-dashoffset:0;stroke-opacity:1"/><path d="M724.25957 873.99424h27.39322" style="fill:none;fill-opacity:1;stroke:#222;stroke-width:3.77953;stroke-linecap:round;stroke-linejoin:round;stroke-dasharray:none;stroke-dashoffset:0;stroke-opacity:1"/></g></g></g><g style="display:inline"><path d="M1017.1877 488.21053h83.8871c11.9927-.41997 11.0714 12.12676 11.0714 12.12676v82.96965c0 10.25249-10.6873 10.93573-10.6873 10.93573h-86.1039c-8.1919-.39989-9.5054-9.76067-9.5054-9.76067v-84.15612s-.075-12.11535 11.3381-12.11535z" style="display:inline;mix-blend-mode:normal;fill:#4294dd;fill-opacity:.2;stroke:#4294dd;stroke-width:6.04724;stroke-linecap:round;stroke-linejoin:round;stroke-dasharray:6.04724,18.1417;stroke-dashoffset:0;stroke-opacity:1" transform="translate(8.3496093 4.1738283)"/><g style="display:inline"><path d="M696.06896 808.51037c-11.41296 0-11.33789 12.11523-11.33789 12.11523v84.15625s1.31196 9.35988 9.5039 9.75977c64.12927-1.60024 127.71801 0 192.00782 0 0 0 10.6875-.68306 10.6875-10.93555v-82.96875s.92041-12.54692-11.07227-12.12695c-63.38173 1.61209-126.3185.00057-189.78906 0z" style="opacity:1;mix-blend-mode:normal;fill:#f55948;fill-opacity:1;stroke-width:7.55906;stroke-linecap:round;stroke-linejoin:round;stroke-dasharray:7.55906,15.1181" transform="translate(10.9118917 4.1061459)"/><g style="display:inline" transform="translate(63.7290947 2.1235474)"><circle cx="722.94879" cy="854.53064" r="3.4077702" style="fill:#272727;fill-opacity:1;stroke:none;stroke-width:3.77953;stroke-linecap:round;stroke-linejoin:round;stroke-dasharray:none;stroke-dashoffset:0;stroke-opacity:1"/><circle cx="753.09442" cy="854.53064" r="3.4077702" style="fill:#272727;fill-opacity:1;stroke:none;stroke-width:3.77953;stroke-linecap:round;stroke-linejoin:round;stroke-dasharray:none;stroke-dashoffset:0;stroke-opacity:1"/><path d="M724.25957 873.99424h27.39322" style="fill:none;fill-opacity:1;stroke:#222;stroke-width:3.77953;stroke-linecap:round;stroke-linejoin:round;stroke-dasharray:none;stroke-dashoffset:0;stroke-opacity:1"/></g></g><g style="display:inline"><path d="M696.06846 808.50959h83.88713c11.99268-.41997 11.07138 12.12676 11.07138 12.12676V903.606c0 10.25249-10.68731 10.93573-10.68731 10.93573h-86.10387c-8.19194-.39989-9.50539-9.76067-9.50539-9.76067v-84.15612s-.0749-12.11535 11.33806-12.11535z" style="opacity:1;mix-blend-mode:normal;fill:#4294dd;fill-opacity:1;stroke-width:7.55906;stroke-linecap:round;stroke-linejoin:round;stroke-dasharray:7.55906,15.1181" transform="translate(222.2527193 5.2223696)"/><g style="display:inline" transform="translate(222.11794917 3.239436)"><circle cx="722.94879" cy="854.53064" r="3.4077702" style="fill:#272727;fill-opacity:1;stroke:none;stroke-width:3.77953;stroke-linecap:round;stroke-linejoin:round;stroke-dasharray:none;stroke-dashoffset:0;stroke-opacity:1"/><circle cx="753.09442" cy="854.53064" r="3.4077702" style="fill:#272727;fill-opacity:1;stroke:none;stroke-width:3.77953;stroke-linecap:round;stroke-linejoin:round;stroke-dasharray:none;stroke-dashoffset:0;stroke-opacity:1"/><path d="M724.25957 873.99424h27.39322" style="fill:none;fill-opacity:1;stroke:#222;stroke-width:3.77953;stroke-linecap:round;stroke-linejoin:round;stroke-dasharray:none;stroke-dashoffset:0;stroke-opacity:1"/></g></g><g style="display:inline"><path d="M781.04163 704.48342c-.34997-.0114-.71116-.0112-1.08594.002h-83.88671c-11.41296 0-11.3379 12.11524-11.3379 12.11524.90943 62.73971 0 188.17969 0 188.17969s1.31197 9.36182 9.50391 9.76171h86.10547s10.68555-.68305 10.68555-10.93554c-1.00839-62.37969 0-124.55813 0-186.99414 0 0 .86472-11.7748-9.98438-12.12891z" style="display:inline;opacity:1;mix-blend-mode:normal;fill:#4294dd;fill-opacity:1;stroke-width:7.55906;stroke-linecap:round;stroke-linejoin:round;stroke-dasharray:7.55906,15.1181" transform="translate(116.27439 -419.81735)"/><g style="display:inline" transform="translate(116.13961917 -473.1055807)"><circle cx="722.94879" cy="854.53064" r="3.4077702" style="fill:#272727;fill-opacity:1;stroke:none;stroke-width:3.77953;stroke-linecap:round;stroke-linejoin:round;stroke-dasharray:none;stroke-dashoffset:0;stroke-opacity:1"/><circle cx="753.09442" cy="854.53064" r="3.4077702" style="fill:#272727;fill-opacity:1;stroke:none;stroke-width:3.77953;stroke-linecap:round;stroke-linejoin:round;stroke-dasharray:none;stroke-dashoffset:0;stroke-opacity:1"/><path d="M724.25957 873.99424h27.39322" style="fill:none;fill-opacity:1;stroke:#222;stroke-width:3.77953;stroke-linecap:round;stroke-linejoin:round;stroke-dasharray:none;stroke-dashoffset:0;stroke-opacity:1"/></g></g><g style="display:inline"><path d="M696.06846 808.50959h83.88713c11.99268-.41997 11.07138 12.12676 11.07138 12.12676V903.606c0 10.25249-10.68731 10.93573-10.68731 10.93573h-86.10387c-8.19194-.39989-9.50539-9.76067-9.50539-9.76067v-84.15612s-.0749-12.11535 11.33806-12.11535z" style="opacity:1;mix-blend-mode:normal;fill:#f5a633;fill-opacity:1;stroke-width:7.55906;stroke-linecap:round;stroke-linejoin:round;stroke-dasharray:7.55906,15.1181" transform="translate(116.1890193 -314.6808317)"/><g style="display:inline" transform="translate(116.05424917 -316.6637653)"><circle cx="722.94879" cy="854.53064" r="3.4077702" style="fill:#272727;fill-opacity:1;stroke:none;stroke-width:3.77953;stroke-linecap:round;stroke-linejoin:round;stroke-dasharray:none;stroke-dashoffset:0;stroke-opacity:1"/><circle cx="753.09442" cy="854.53064" r="3.4077702" style="fill:#272727;fill-opacity:1;stroke:none;stroke-width:3.77953;stroke-linecap:round;stroke-linejoin:round;stroke-dasharray:none;stroke-dashoffset:0;stroke-opacity:1"/><path d="M724.25957 873.99424h27.39322" style="fill:none;fill-opacity:1;stroke:#222;stroke-width:3.77953;stroke-linecap:round;stroke-linejoin:round;stroke-dasharray:none;stroke-dashoffset:0;stroke-opacity:1"/></g></g><path d="m892.6112 203.69709-13.64237 50.12498m72.36386-39.61893-39.7539 49.3488m58.95701 9.06518-39.01247 21.18735" style="fill:#ebebeb;fill-opacity:1;stroke:#f5a633;stroke-width:11.3386;stroke-linecap:round;stroke-linejoin:round;stroke-dasharray:none;stroke-opacity:1" transform="translate(8.3496093 4.1738283)"/><path d="M1157.1582 530.59375c-17.5107-.0639-35.0442.29709-52.2793.67969l-18.8926.41992.8399 37.78711 18.8926-.41992c68.438-1.51923 138.5085-.76687 184.7734 19.25195 23.1324 10.00941 40.1598 23.8991 51.2519 45.03516 11.0789 21.11066 16.437 50.64435 11.5723 92.76367-4.6861 35.9252-18.0472 60.08568-37.6601 78.28515-19.6337 18.21869-46.4207 30.43585-78.1973 38.18164-63.5533 15.4916-145.5318 12.25141-217.9903 10.75977l-18.8945-.38867-.77733 37.78711 18.89263.38867c71.7595 1.47725 155.9801 5.66112 227.7207-11.82617 35.8702-8.74365 69.003-23.11733 94.9531-47.19727 25.9501-24.07993 43.8246-57.89781 49.4512-101.23242a18.89954 18.89954 0 0 0 .031-.25586c5.4965-47.38416-.1203-85.26726-15.6348-114.83008-15.5145-29.56281-40.7219-49.61549-69.7089-62.1582-43.4807-18.81407-95.8117-22.83951-148.3438-23.03125z" style="opacity:.793;fill:url(#d);fill-opacity:1;stroke-linecap:square;stroke-linejoin:round" transform="translate(8.3496093 4.1738283)"/></g></svg>