<svg xmlns="http://www.w3.org/2000/svg" xmlns:xlink="http://www.w3.org/1999/xlink" xml:space="preserve" width="1904" height="1072"><g style="display:inline"><g style="display:inline"><g style="display:inline;opacity:.5" transform="translate(6.959014 .98241)"><path id="a" d="M41.942602 170.44331H1858.8889" style="display:inline;fill:none;fill-opacity:1;stroke:#a4a4a4;stroke-width:1.00157;stroke-linecap:round;stroke-linejoin:round;stroke-dasharray:none;stroke-opacity:1"/><use xlink:href="#a" style="display:inline" transform="translate(0 106.3602)"/><use xlink:href="#a" style="display:inline" transform="translate(0 212.72041)"/><use xlink:href="#a" style="display:inline" transform="translate(0 319.08061)"/><use xlink:href="#a" style="display:inline" transform="translate(0 425.44081)"/><use xlink:href="#a" style="display:inline" transform="translate(0 531.80101)"/><use xlink:href="#a" style="display:inline" transform="translate(0 638.16122)"/></g><g style="display:inline;opacity:.5;stroke-width:.896677" transform="matrix(1 0 0 1.2437367 .959014 -67.93357)"><path id="b" d="M897.60883 58.7185v859.8066" style="fill:none;fill-opacity:1;stroke:#a4a4a4;stroke-width:.898084;stroke-linecap:round;stroke-linejoin:round;stroke-dasharray:none;stroke-opacity:1"/><use xlink:href="#b" style="stroke-width:.896677" transform="translate(106.94548)"/><use xlink:href="#b" style="stroke-width:.896677" transform="translate(213.89096)"/><use xlink:href="#b" style="stroke-width:.896677" transform="translate(320.83645)"/><use xlink:href="#b" style="stroke-width:.896677" transform="translate(427.78193)"/><use xlink:href="#b" style="stroke-width:.896677" transform="translate(534.72742)"/><use xlink:href="#b" style="stroke-width:.896677" transform="translate(641.6729)"/><use xlink:href="#b" style="stroke-width:.896677" transform="translate(748.61839)"/><use xlink:href="#b" style="stroke-width:.896677" transform="translate(855.56387)"/><use xlink:href="#b" style="stroke-width:.896677" transform="translate(-106.94549)"/><use xlink:href="#b" style="stroke-width:.896677" transform="translate(-213.89097)"/><use xlink:href="#b" style="stroke-width:.896677" transform="translate(-320.83646)"/><use xlink:href="#b" style="stroke-width:.896677" transform="translate(-427.78194)"/><use xlink:href="#b" style="stroke-width:.896677" transform="translate(-534.72743)"/><use xlink:href="#b" style="stroke-width:.896677" transform="translate(-641.67291)"/><use xlink:href="#b" style="stroke-width:.896677" transform="translate(-748.6184)"/></g></g><path d="M-6-2v1078h1912V-2Zm54.492188 67.75H1859.3789v850.49219H48.492188ZM262.66016 172.12109c-3.29832 0-5.95313 2.65481-5.95313 5.95313l.0156 625.51953c0 3.34764 2.69534 6.04347 6.04296 6.04297l1378.83401-.20703c3.301-.0005 5.959-2.65606 5.959-5.95703 0 0-.1003-433.0343-.377-625.39844 0-3.29832-2.6548-5.95313-5.9531-5.95313zm101.6289 106.1211H1540.7852v104.30273h-316.1329c-3.2983 0-5.9531 2.65481-5.9531 5.95313v203.05273c0 3.29832 2.6548 5.95508 5.9531 5.95508h208.1094v105.60742H364.28906V597.13477h100.39258c3.32535 0 6.00195-2.67856 6.00195-6.00391V387.83984c0-3.32535-2.6766-6.00195-6.00195-6.00195H364.28906ZM690.75781 384.3125c-3.28194 0-5.92578 2.64189-5.92578 5.92383V590.875c0 3.28194 2.64384 5.92383 5.92578 5.92383h416.30469c3.2819 0 5.9238-2.64189 5.9238-5.92383V390.23633c0-3.28194-2.6419-5.92383-5.9238-5.92383z" style="fill:#acaca7;fill-opacity:1;stroke:none;stroke-width:6.04724;stroke-linecap:round;stroke-linejoin:round"/><g style="display:inline;stroke-width:.994172"><path d="M696.06846 808.50959h83.88713c11.99268-.41997 11.07138 12.12676 11.07138 12.12676V903.606c0 10.25249-10.68731 10.93573-10.68731 10.93573h-86.10387c-8.19194-.39989-9.50539-9.76067-9.50539-9.76067v-84.15612s-.0749-12.11535 11.33806-12.11535z" style="opacity:1;mix-blend-mode:normal;fill:#0a9adc;fill-opacity:1;stroke-width:7.51501;stroke-linecap:round;stroke-linejoin:round;stroke-dasharray:7.51501,15.03" transform="matrix(1.0117577 0 0 1 740.19591 -531.67175)"/><g style="display:inline;stroke-width:.994172" transform="matrix(1.0117577 0 0 1 740.05955528 -533.6546836)"><circle cx="722.94879" cy="854.53064" r="3.4077702" style="fill:#272727;fill-opacity:1;stroke:none;stroke-width:3.7575;stroke-linecap:round;stroke-linejoin:round;stroke-dasharray:none;stroke-dashoffset:0;stroke-opacity:1"/><circle cx="753.09442" cy="854.53064" r="3.4077702" style="fill:#272727;fill-opacity:1;stroke:none;stroke-width:3.7575;stroke-linecap:round;stroke-linejoin:round;stroke-dasharray:none;stroke-dashoffset:0;stroke-opacity:1"/><path d="M724.25957 873.99424h27.39322" style="fill:none;fill-opacity:1;stroke:#222;stroke-width:3.7575;stroke-linecap:round;stroke-linejoin:round;stroke-dasharray:none;stroke-dashoffset:0;stroke-opacity:1"/></g></g><g style="display:inline"><path d="M696.06846 808.50959h83.88713c11.99268-.41997 11.07138 12.12676 11.07138 12.12676V903.606c0 10.25249-10.68731 10.93573-10.68731 10.93573h-86.10387c-8.19194-.39989-9.50539-9.76067-9.50539-9.76067v-84.15612s-.0749-12.11535 11.33806-12.11535z" style="opacity:1;mix-blend-mode:normal;fill:#f0673f;fill-opacity:1;stroke-width:7.55906;stroke-linecap:round;stroke-linejoin:round;stroke-dasharray:7.55906,15.1181" transform="translate(641.77323 -211.10484)"/><g style="display:inline" transform="translate(641.63845987 -213.0877736)"><circle cx="722.94879" cy="854.53064" r="3.4077702" style="fill:#272727;fill-opacity:1;stroke:none;stroke-width:3.77953;stroke-linecap:round;stroke-linejoin:round;stroke-dasharray:none;stroke-dashoffset:0;stroke-opacity:1"/><circle cx="753.09442" cy="854.53064" r="3.4077702" style="fill:#272727;fill-opacity:1;stroke:none;stroke-width:3.77953;stroke-linecap:round;stroke-linejoin:round;stroke-dasharray:none;stroke-dashoffset:0;stroke-opacity:1"/><path d="M724.25957 873.99424h27.39322" style="fill:none;fill-opacity:1;stroke:#222;stroke-width:3.77953;stroke-linecap:round;stroke-linejoin:round;stroke-dasharray:none;stroke-dashoffset:0;stroke-opacity:1"/></g></g><g style="display:inline;stroke-width:.99533"><path d="M696.06846 808.50959h83.88713c11.99268-.41997 11.07138 12.12676 11.07138 12.12676V903.606c0 10.25249-10.68731 10.93573-10.68731 10.93573h-86.10387c-8.19194-.39989-9.50539-9.76067-9.50539-9.76067v-84.15612s-.0749-12.11535 11.33806-12.11535z" style="opacity:1;mix-blend-mode:normal;fill:#f0673f;fill-opacity:1;stroke-width:7.52376;stroke-linecap:round;stroke-linejoin:round;stroke-dasharray:7.52376,15.0475" transform="matrix(1.0094062 0 0 1 635.15036 -531.00368)"/><g style="display:inline;stroke-width:.99533" transform="matrix(1.0094062 0 0 1 635.0143222 -532.9866136)"><circle cx="722.94879" cy="854.53064" r="3.4077702" style="fill:#272727;fill-opacity:1;stroke:none;stroke-width:3.76188;stroke-linecap:round;stroke-linejoin:round;stroke-dasharray:none;stroke-dashoffset:0;stroke-opacity:1"/><circle cx="753.09442" cy="854.53064" r="3.4077702" style="fill:#272727;fill-opacity:1;stroke:none;stroke-width:3.76188;stroke-linecap:round;stroke-linejoin:round;stroke-dasharray:none;stroke-dashoffset:0;stroke-opacity:1"/><path d="M724.25957 873.99424h27.39322" style="fill:none;fill-opacity:1;stroke:#222;stroke-width:3.76188;stroke-linecap:round;stroke-linejoin:round;stroke-dasharray:none;stroke-dashoffset:0;stroke-opacity:1"/></g></g><g style="display:inline;stroke-width:1.0107"><path d="M696.06846 808.50959h83.88713c11.99268-.41997 11.07138 12.12676 11.07138 12.12676V903.606c0 10.25249-10.68731 10.93573-10.68731 10.93573h-86.10387c-8.19194-.39989-9.50539-9.76067-9.50539-9.76067v-84.15612s-.0749-12.11535 11.33806-12.11535z" style="opacity:1;mix-blend-mode:normal;fill:#febc46;fill-opacity:1;stroke-width:7.63997;stroke-linecap:round;stroke-linejoin:round;stroke-dasharray:7.63997,15.2799" transform="matrix(.99526469 -.00554138 .00560734 .98355667 -321.73513 -513.24815)"/><g style="display:inline;stroke-width:1.0107" transform="matrix(.99526469 -.00554138 .00560734 .98355667 -321.88038093 -515.19773076)"><circle cx="722.94879" cy="854.53064" r="3.4077702" style="fill:#272727;fill-opacity:1;stroke:none;stroke-width:3.81999;stroke-linecap:round;stroke-linejoin:round;stroke-dasharray:none;stroke-dashoffset:0;stroke-opacity:1"/><circle cx="753.09442" cy="854.53064" r="3.4077702" style="fill:#272727;fill-opacity:1;stroke:none;stroke-width:3.81999;stroke-linecap:round;stroke-linejoin:round;stroke-dasharray:none;stroke-dashoffset:0;stroke-opacity:1"/><path d="M724.25957 873.99424h27.39322" style="fill:none;fill-opacity:1;stroke:#222;stroke-width:3.81999;stroke-linecap:round;stroke-linejoin:round;stroke-dasharray:none;stroke-dashoffset:0;stroke-opacity:1"/></g></g><g style="display:inline;stroke-width:1.00481"><path d="M696.06846 808.50959h83.88713c11.99268-.41997 11.07138 12.12676 11.07138 12.12676V903.606c0 10.25249-10.68731 10.93573-10.68731 10.93573h-86.10387c-8.19194-.39989-9.50539-9.76067-9.50539-9.76067v-84.15612s-.0749-12.11535 11.33806-12.11535z" style="opacity:1;mix-blend-mode:normal;fill:#febc46;fill-opacity:1;stroke-width:7.59543;stroke-linecap:round;stroke-linejoin:round;stroke-dasharray:7.59543,15.1908" transform="matrix(1.0069727 -.00554138 .0056733 .98355667 525.20732 -513.24815)"/><g style="display:inline;stroke-width:1.00481" transform="matrix(1.0069727 -.00554138 .0056733 .98355667 525.06036038 -515.19773076)"><circle cx="722.94879" cy="854.53064" r="3.4077702" style="fill:#272727;fill-opacity:1;stroke:none;stroke-width:3.79772;stroke-linecap:round;stroke-linejoin:round;stroke-dasharray:none;stroke-dashoffset:0;stroke-opacity:1"/><circle cx="753.09442" cy="854.53064" r="3.4077702" style="fill:#272727;fill-opacity:1;stroke:none;stroke-width:3.79772;stroke-linecap:round;stroke-linejoin:round;stroke-dasharray:none;stroke-dashoffset:0;stroke-opacity:1"/><path d="M724.25957 873.99424h27.39322" style="fill:none;fill-opacity:1;stroke:#222;stroke-width:3.79772;stroke-linecap:round;stroke-linejoin:round;stroke-dasharray:none;stroke-dashoffset:0;stroke-opacity:1"/></g></g></g><g style="display:inline"><g style="display:inline"><path d="M696.06846 808.50959h83.88713c11.99268-.41997 11.07138 12.12676 11.07138 12.12676 5.26414 19.76034 9.54868 40.99007 0 82.96965 0 10.25249-10.68731 10.93573-10.68731 10.93573h-86.10387c-8.19194-.39989-9.50539-9.76067-9.50539-9.76067 10.11766-28.05204 6.70314-56.10408 0-84.15612 0 0-.0749-12.11535 11.33806-12.11535z" style="opacity:1;mix-blend-mode:normal;fill:#0a9adc;fill-opacity:1;stroke-width:7.55906;stroke-linecap:round;stroke-linejoin:round;stroke-dasharray:7.55906,15.1181" transform="translate(-97.65958 -211.77228)"/><g style="display:inline" transform="translate(-92.8446026 -213.0481068)"><circle cx="722.94879" cy="854.53064" r="3.4077702" style="fill:#272727;fill-opacity:1;stroke:none;stroke-width:3.77953;stroke-linecap:round;stroke-linejoin:round;stroke-dasharray:none;stroke-dashoffset:0;stroke-opacity:1"/><circle cx="753.09442" cy="854.53064" r="3.4077702" style="fill:#272727;fill-opacity:1;stroke:none;stroke-width:3.77953;stroke-linecap:round;stroke-linejoin:round;stroke-dasharray:none;stroke-dashoffset:0;stroke-opacity:1"/><path d="M724.25957 873.99424h27.39322" style="fill:none;fill-opacity:1;stroke:#222;stroke-width:3.77953;stroke-linecap:round;stroke-linejoin:round;stroke-dasharray:none;stroke-dashoffset:0;stroke-opacity:1"/></g></g><g style="display:inline"><path d="M696.06846 808.50959h83.88713c11.99268-.41997 11.07138 12.12676 11.07138 12.12676-8.94236 31.00994-6.01941 57.57038 0 82.96965 0 10.25249-10.68731 10.93573-10.68731 10.93573h-86.10387c-8.19194-.39989-9.50539-9.76067-9.50539-9.76067-6.66612-28.05204-4.56276-56.10408 0-84.15612 0 0-.0749-12.11535 11.33806-12.11535z" style="opacity:1;mix-blend-mode:normal;fill:#0a9adc;fill-opacity:1;stroke-width:7.55906;stroke-linecap:round;stroke-linejoin:round;stroke-dasharray:7.55906,15.1181" transform="translate(419.82065 -211.83293)"/><g style="display:inline" transform="translate(416.150346 -213.8158636)"><circle cx="722.94879" cy="854.53064" r="3.4077702" style="fill:#272727;fill-opacity:1;stroke:none;stroke-width:3.77953;stroke-linecap:round;stroke-linejoin:round;stroke-dasharray:none;stroke-dashoffset:0;stroke-opacity:1"/><circle cx="753.09442" cy="854.53064" r="3.4077702" style="fill:#272727;fill-opacity:1;stroke:none;stroke-width:3.77953;stroke-linecap:round;stroke-linejoin:round;stroke-dasharray:none;stroke-dashoffset:0;stroke-opacity:1"/><path d="M724.25957 873.99424h27.39322" style="fill:none;fill-opacity:1;stroke:#222;stroke-width:3.77953;stroke-linecap:round;stroke-linejoin:round;stroke-dasharray:none;stroke-dashoffset:0;stroke-opacity:1"/></g></g><g id="c" style="display:inline;stroke-width:.951816"><path d="M739.45703 715.22656c-.97611-.0543-1.96159.22826-2.75.94922-11.31505 11.251-22.57253 22.56347-33.86523 33.83789-2.66928 2.2333-1.12551 7.20107 2.42382 7.31836 8.02459.0468 16.05082.006 24.07618.0195-1.29921 3.88607-2.59729 7.77214-3.89649 11.65821-.93301 3.13285-2.31687 6.16637-2.90039 9.37695-.2119 3.44551 4.33431 5.56103 6.87305 3.26367 11.3174-11.24908 22.57359-22.56184 33.86719-33.83594 2.71998-2.22347 1.02039-7.06901-2.42579-7.28711-8.01403-.0512-16.03192-.007-24.04687-.0215 1.29303-3.88487 2.58783-7.76943 3.88086-11.6543.9294-3.14374 2.31818-6.18692 2.88672-9.41015.1275-2.33942-1.97561-4.09531-4.12305-4.21485zm-.0664 4.21485-8.4375 25.2539h29.47266l-33.69141 33.69141 8.4375-25.25391h-29.47265z" style="font-size:60px;line-height:1;font-family:&quot;Mplus 1&quot;;-inkscape-font-specification:&quot;Mplus 1, &quot;;letter-spacing:0;word-spacing:0;display:inline;fill:#222;fill-opacity:1;stroke-width:7.19484;stroke-linecap:round;stroke-linejoin:round;stroke-dasharray:7.19484,14.3897" transform="matrix(.77475977 .56764507 -.55654879 1.0169429 574.44423 -628.38425)"/><path d="m739.39062 719.44141-33.6914 33.6914h29.47265l-8.4375 25.25391 33.69141-33.69141h-29.47266z" style="font-size:60px;line-height:1;font-family:&quot;Mplus 1&quot;;-inkscape-font-specification:&quot;Mplus 1, &quot;;letter-spacing:0;word-spacing:0;display:inline;fill:#fc0;fill-opacity:1;stroke:none;stroke-width:7.19484;stroke-linecap:round;stroke-linejoin:round;stroke-dasharray:7.19484,14.3897;stroke-dashoffset:0" transform="matrix(.77475977 .56764507 -.55654879 1.0169429 574.44423 -628.38425)"/></g><use xlink:href="#c" transform="matrix(-1 0 0 1 1795.1047 0)"/><path d="M1435.1287 706.43527c-33.1739 12.0852-69.2782 18.13398-104.4552 13.25831-8.6761-2.89183-20.0802-5.26489-25.5829-11.89609-23.6876-18.44182-26.671-53.90622-14.2129-79.67424 16.1055-30.17155 45.5398-54.9974 80.0936-60.00132 20.934-3.93181 44.04-7.02768 63.6576 3.48928 12.7355 9.75939 26.3703 19.58825 33.1093 34.74306 9.4531 20.29925 8.811 43.9553 4.1273 65.39193-4.6392 15.30642-17.5997 26.85389-32.3255 32.33365-14.1831 7.84856 8.5579 18.207 13.664 7.01629 17.9915-9.33819 33.8502-27.36728 33.086-48.64652 2.7209-25.15448-1.6306-53.88291-21.7248-71.31459-16.9567-15.53734-37.1515-29.19021-60.07-33.59136-24.9926-3.09441-50.142 3.37878-73.2812 12.29863-27.4687 14.18111-49.4853 39.65413-57.9827 69.46808-6.1108 26.595 4.9493 57.3725 29.3397 71.0021 25.3712 17.93301 58.4389 23.42804 88.5804 16.64666 18.8261-2.51471 37.6741-6.06585 55.4201-13.00752-3.8142-2.50549-7.6286-5.01086-11.4428-7.51635zM469.88466 378.91173c-39.08614 23.12555-87.24649 39.97372-127.44071 17.57405-35.18021-19.60544-27.51519-74.64861-6.33444-106.33555 32.38403-34.00465 84.61589-39.90131 129.27332-38.33333 41.83302 2.57675 53.42945 50.70406 50.02631 86.5973-2.41443 25.46516-46.99741 39.38538-31.77551 54.02632 39.66574-11.39488 49.89558-68.30784 37.07838-103.23409-21.96843-48.67495-82.01849-52.71695-127.33159-40.42632-40.16394 5.19269-82.66658 31.13005-85.31973 75.26225-8.15697 39.62286 11.13665 90.15297 57.96659 90.12779 38.62978 2.17129 80.35347-5.96844 112.91726-26.859 2.11131-5.19133-6.05562-7.06375-9.05988-8.39942z" style="fill:#333;fill-opacity:1;stroke:#efdbff;stroke-width:15.1181;stroke-linecap:round;stroke-linejoin:round;stroke-dasharray:none;stroke-dashoffset:0;stroke-opacity:1"/><path d="M416 420c-17.03032 118.77577 18.13851 246.82278 150.5 242m712.5-.5h-51m10-14-13.5 14 14.25 14.25" style="fill:none;fill-opacity:1;stroke:#efdbff;stroke-width:7.55906;stroke-linecap:round;stroke-linejoin:round;stroke-dasharray:none;stroke-dashoffset:0;stroke-opacity:1"/><path d="m557.25015 647.5 13.5 14-14.25 14.25" style="fill:none;fill-opacity:1;stroke:#efdbff;stroke-width:7.55906;stroke-linecap:round;stroke-linejoin:round;stroke-dasharray:none;stroke-dashoffset:0;stroke-opacity:1"/><g style="display:inline"><path d="M316.96671 145.49195c-12.60498.80113.3234 17.85462-12.59156 16.55689-2.55373 6.6455-4.34574 19.01372 4.4314 21.41968 6.79967 1.24781-12.84727 2.36953-7.10937 9.54297 2.15502 5.61254 1.22794 14.48712 9.00195 15.42773-.81044 4.03812-12.60047 4.71368-6.37778 12.78307-.49134 18.24923 28.96765 14.13006 29.80287-1.52243-.39879-7.75577-.54694-11.22682 7.49398-9.19226 5.73682-1.57716 6.52164 1.79768 5.7196 6.75939.47189 6.19298-2.42874 16.1621 6.94352 16.76014 6.12152-.41659 16.02083 2.32733 16.55257-6.94352V210.5076c6.24786-.49272 16.32295 2.46833 16.95899-6.94352V185.2244c12.22544-.73739-.00022 8.66673 2.3609 16.58999-.32741 11.5933 8.57339 23.80862 20.91447 23.45687-1.59513 10.99356 10.16114 8.16435 16.74877 8.51563 10.78294-2.7901 12.63408-17.42964 12.98847-27.18096-.28335-6.8468-3.32396-13.18337-2.37206-20.1334 8.75202-3.6535 3.16853 6.5877 8.17575 11.30834 3.49776 6.96029 9.9384 9.41934 7.68946 18.19946.69493 6.44966-2.78462 16.29415 6.26758 18.04663 6.32533.83067 13.27827-1.42951 18.43147-.0799 11.5819-.3488 20.69055-11.9082 31.38498-1.96141 11.12951 7.7706 22.34854-7.7291 21.80871-17.29155-4.19056-5.83761-19.12455-2.41369-9.56044-11.92678 4.82518-10.4442 5.92004-19.13402 9.39277-29.553 4.63712-11.34104-13.8346-8.91222-12.31101-17.79569-.0802-9.40973-10.25171-6.97329-16.40666-7.28617h-20.01912c-6.26856 5.34379-12.15932-3.95712-19.00886-2.27019-7.58439 5.34152-13.32012 17.85165-23.49192 16.35027-4.83907.19816-3.68351-10.74966-11.32406-8.24024-6.96774-1.1251-14.97422 1.21185-15.59915 8.24024h-23.93734c-4.79489 1.26972.88076-16.15837-10.42821-12.32032h-42.61085c-4.17804 2.36047-6.80399-6.54225-12.85641-4.40034-2.35447.00004-4.70894.00007-7.06341.0001zm268.71875 8.80079c-7.74773 1.55475-7.13872 10.7587-9.78994 16.67876-4.89229 15.77765-9.78457 31.5553-14.67686 47.33295-.78842 10.77015 10.83136 7.6481 17.47924 8.12305 7.69976 1.49052 10.1459-6.55029 11.12516-12.60432 1.61047-1.70607 9.65854-2.67546 8.92017 2.20248.35359 6.96489 5.94275 11.81376 12.91028 10.40184 5.65847-.42966 14.61256 2.15299 15.88384-5.80768-3.59575-14.93503-8.9756-29.49528-13.27635-44.28221-2.68227-6.8899-3.31425-14.79451-7.7369-20.82308-6.57077-2.34685-13.94756-.75894-20.83864-1.22179z" style="font-weight:700;font-size:80px;line-height:1;font-family:&quot;Corporate Logo ver2&quot;;-inkscape-font-specification:&quot;Corporate Logo ver2 Bold&quot;;font-variation-settings:normal;text-align:start;letter-spacing:0;word-spacing:0;writing-mode:lr-tb;direction:ltr;text-anchor:start;display:inline;fill:#333;fill-opacity:1;stroke:none;stroke-width:6.04724;stroke-linecap:square;stroke-linejoin:miter;stroke-miterlimit:4;stroke-dasharray:none;stroke-dashoffset:0;stroke-opacity:1;stop-color:#000"/><text xml:space="preserve" x="556.50616" y="625.31451" style="font-weight:700;font-size:80px;line-height:1;font-family:&quot;Corporate Logo ver2&quot;;-inkscape-font-specification:&quot;Corporate Logo ver2 Bold&quot;;font-variation-settings:normal;text-align:start;letter-spacing:0;word-spacing:0;writing-mode:lr-tb;direction:ltr;text-anchor:start;display:inline;vector-effect:none;fill:#eee;fill-opacity:1;stroke:none;stroke-width:1.88976;stroke-linecap:square;stroke-linejoin:miter;stroke-miterlimit:4;stroke-dasharray:none;stroke-dashoffset:0;stroke-opacity:1;-inkscape-stroke:none;stop-color:#000" transform="translate(-250.50009 -405.15453)"><tspan x="556.50616" y="625.31451" style="font-size:80px;fill:#eee;fill-opacity:1;stroke:none;stroke-width:1.88976;stroke-dasharray:none;stroke-opacity:1">押す役 A</tspan></text></g><g style="display:inline"><path d="M1280.4814 466.35342c-12.8633.63736.2128 17.83574-12.7102 16.60679-2.9207 5.98996-2.6726 13.82785-.0006 19.82088 15.8532 3.45681-7.1102 1.89489-2.5495 11.95448 2.0688 5.44651 1.1718 13.97908 8.8267 14.86199-1.2761 3.66878-12.4816 4.85703-6.3679 12.71065-.4423 18.4081 29.2798 14.26269 30.1245-1.55828-.3809-7.56303-.611-11.11581 7.3234-9.04498 5.7398-1.63683 6.2865 1.91942 5.5568 6.75212.4322 6.23129-2.372 16.23076 7.1107 16.76546 6.2186-.42799 16.193 2.36365 16.7213-7.10881v-16.40877c5.7262-.63603 14.208 2.35197 16.7398-4.76987.4869-6.78788.091-13.6336.2192-20.44498 11.8314-.85732-.5494 8.90898 2.0269 16.35737-.3225 11.62272 8.5576 23.88192 20.928 23.60166-1.3971 10.99264 10.2584 8.19346 16.8888 8.53515 10.5557-2.23839 12.3464-16.37227 13.164-25.57216.3315-7.56272-3.4501-14.49542-2.3673-22.1075 8.8734-2.32876 2.7722 8.72201 8.7195 13.25547 4.7394 5.60059 8.4196 9.2262 6.8118 17.30045.5877 6.26861-2.5901 15.88535 6.4336 17.36205 6.3299.82598 13.2594-1.42402 18.4445-.0779 11.5661-.34126 20.6664-11.8729 31.3486-1.96138 11.2294 7.78884 22.6222-7.8639 21.9793-17.54101-4.093-5.90425-19.0076-2.39599-9.504-11.88437 5.1232-9.78724 4.8001-18.51509 9.2253-28.02981 5.5556-11.76933-12.1281-10.68006-12.1812-18.69999.6649-9.37172-9.659-8.0993-15.8866-8.03215h-20.7052c-7.2906 6.30788-15.5914-8.41266-22.5274.38282-5.7153 6.4693-12.0802 15.52994-21.3202 13.69726-.6661-5.0512-6.0691-10.00002-12.6752-8.24219-6.4287-1.42281-12.2452 2.96322-13.0684 8.24219h-23.7701c-4.2915.71322.5594-15.22837-9.7509-12.32226h-43.2882c-4.1233 2.21576-6.8645-6.50679-12.8521-4.4004-2.3559-.00001-4.7118-.00001-7.0677-.00002zm257.7598 8.80078c-9.2617 1.80414-5.732 11.9505-6.4355 18.58936v47.44579c1.8062 9.2595 11.9508 5.72996 18.5893 6.4336 12.8.22663 28.2986.6984 36.3183-11.2392 8.3601-9.50491.497-22.61261-1.3994-30.25798 6.6139-11.90066-1.3815-28.33431-15.1416-29.91741-10.5023-1.85966-21.3104-.75142-31.9311-1.05416z" style="font-weight:700;font-size:80px;line-height:1;font-family:&quot;Corporate Logo ver2&quot;;-inkscape-font-specification:&quot;Corporate Logo ver2 Bold&quot;;font-variation-settings:normal;text-align:start;letter-spacing:0;word-spacing:0;writing-mode:lr-tb;direction:ltr;text-anchor:start;display:inline;fill:#333;fill-opacity:1;stroke:none;stroke-width:6.04724;stroke-linecap:square;stroke-linejoin:miter;stroke-miterlimit:4;stroke-dasharray:none;stroke-dashoffset:0;stroke-opacity:1;stop-color:#000"/><text xml:space="preserve" x="556.5061" y="625.31451" style="font-weight:700;font-size:80px;line-height:1;font-family:&quot;Corporate Logo ver2&quot;;-inkscape-font-specification:&quot;Corporate Logo ver2 Bold&quot;;font-variation-settings:normal;text-align:start;letter-spacing:0;word-spacing:0;writing-mode:lr-tb;direction:ltr;text-anchor:start;display:inline;vector-effect:none;fill:#eee;fill-opacity:1;stroke:none;stroke-width:1.88976;stroke-linecap:square;stroke-linejoin:miter;stroke-miterlimit:4;stroke-dasharray:none;stroke-dashoffset:0;stroke-opacity:1;-inkscape-stroke:none;stop-color:#000" transform="translate(713.01463 -84.125097)"><tspan x="556.5061" y="625.31451" style="font-size:80px;fill:#eee;fill-opacity:1;stroke:none;stroke-width:1.88976;stroke-dasharray:none;stroke-opacity:1">押す役 B</tspan></text></g></g></svg>