<svg xmlns="http://www.w3.org/2000/svg" xmlns:xlink="http://www.w3.org/1999/xlink" xml:space="preserve" width="1904" height="1072"><g style="display:inline"><g style="display:inline"><g style="display:inline;opacity:.5" transform="translate(6.959014 .98241)"><path id="a" d="M41.942602 170.44331H1858.8889" style="display:inline;fill:none;fill-opacity:1;stroke:#a4a4a4;stroke-width:1.00157;stroke-linecap:round;stroke-linejoin:round;stroke-dasharray:none;stroke-opacity:1"/><use xlink:href="#a" style="display:inline" transform="translate(0 106.3602)"/><use xlink:href="#a" style="display:inline" transform="translate(0 212.72041)"/><use xlink:href="#a" style="display:inline" transform="translate(0 319.08061)"/><use xlink:href="#a" style="display:inline" transform="translate(0 425.44081)"/><use xlink:href="#a" style="display:inline" transform="translate(0 531.80101)"/><use xlink:href="#a" style="display:inline" transform="translate(0 638.16122)"/></g><g style="display:inline;opacity:.5;stroke-width:.896677" transform="matrix(1 0 0 1.2437367 .959014 -67.93357)"><path id="b" d="M897.60883 58.7185v859.8066" style="fill:none;fill-opacity:1;stroke:#a4a4a4;stroke-width:.898084;stroke-linecap:round;stroke-linejoin:round;stroke-dasharray:none;stroke-opacity:1"/><use xlink:href="#b" style="stroke-width:.896677" transform="translate(106.94548)"/><use xlink:href="#b" style="stroke-width:.896677" transform="translate(213.89096)"/><use xlink:href="#b" style="stroke-width:.896677" transform="translate(320.83645)"/><use xlink:href="#b" style="stroke-width:.896677" transform="translate(427.78193)"/><use xlink:href="#b" style="stroke-width:.896677" transform="translate(534.72742)"/><use xlink:href="#b" style="stroke-width:.896677" transform="translate(641.6729)"/><use xlink:href="#b" style="stroke-width:.896677" transform="translate(748.61839)"/><use xlink:href="#b" style="stroke-width:.896677" transform="translate(855.56387)"/><use xlink:href="#b" style="stroke-width:.896677" transform="translate(-106.94549)"/><use xlink:href="#b" style="stroke-width:.896677" transform="translate(-213.89097)"/><use xlink:href="#b" style="stroke-width:.896677" transform="translate(-320.83646)"/><use xlink:href="#b" style="stroke-width:.896677" transform="translate(-427.78194)"/><use xlink:href="#b" style="stroke-width:.896677" transform="translate(-534.72743)"/><use xlink:href="#b" style="stroke-width:.896677" transform="translate(-641.67291)"/><use xlink:href="#b" style="stroke-width:.896677" transform="translate(-748.6184)"/></g></g><path d="M-6-2v1078h1912V-2Zm54.492188 67.75H1859.3789v850.49219H48.492188ZM262.66016 172.12109c-3.29832 0-5.95313 2.65481-5.95313 5.95313l.0156 625.51953c0 3.34764 2.69534 6.04347 6.04296 6.04297l1378.83401-.20703c3.301-.0005 5.959-2.65606 5.959-5.95703 0 0-.1003-433.0343-.377-625.39844 0-3.29832-2.6548-5.95313-5.9531-5.95313zm101.6289 106.1211H1540.7852v104.30273h-316.1329c-3.2983 0-5.9531 2.65481-5.9531 5.95313v203.05273c0 3.29832 2.6548 5.95508 5.9531 5.95508h208.1094v105.60742H364.28906V597.13477h100.39258c3.32535 0 6.00195-2.67856 6.00195-6.00391V387.83984c0-3.32535-2.6766-6.00195-6.00195-6.00195H364.28906ZM690.75781 384.3125c-3.28194 0-5.92578 2.64189-5.92578 5.92383V590.875c0 3.28194 2.64384 5.92383 5.92578 5.92383h416.30469c3.2819 0 5.9238-2.64189 5.9238-5.92383V390.23633c0-3.28194-2.6419-5.92383-5.9238-5.92383z" style="fill:#acaca7;fill-opacity:1;stroke:none;stroke-width:6.04724;stroke-linecap:round;stroke-linejoin:round"/><g style="display:inline;stroke-width:1.0107"><path d="M696.06846 808.50959h83.88713c11.99268-.41997 11.07138 12.12676 11.07138 12.12676V903.606c0 10.25249-10.68731 10.93573-10.68731 10.93573h-86.10387c-8.19194-.39989-9.50539-9.76067-9.50539-9.76067v-84.15612s-.0749-12.11535 11.33806-12.11535z" style="opacity:1;mix-blend-mode:normal;fill:#febc46;fill-opacity:1;stroke-width:7.63997;stroke-linecap:round;stroke-linejoin:round;stroke-dasharray:7.63997,15.2799" transform="matrix(.99526469 -.00554138 .00560734 .98355667 -321.73513 -513.24815)"/><g style="display:inline;stroke-width:1.0107" transform="matrix(.99526469 -.00554138 .00560734 .98355667 -321.88038093 -515.19773076)"><circle cx="722.94879" cy="854.53064" r="3.4077702" style="fill:#272727;fill-opacity:1;stroke:none;stroke-width:3.81999;stroke-linecap:round;stroke-linejoin:round;stroke-dasharray:none;stroke-dashoffset:0;stroke-opacity:1"/><circle cx="753.09442" cy="854.53064" r="3.4077702" style="fill:#272727;fill-opacity:1;stroke:none;stroke-width:3.81999;stroke-linecap:round;stroke-linejoin:round;stroke-dasharray:none;stroke-dashoffset:0;stroke-opacity:1"/><path d="M724.25957 873.99424h27.39322" style="fill:none;fill-opacity:1;stroke:#222;stroke-width:3.81999;stroke-linecap:round;stroke-linejoin:round;stroke-dasharray:none;stroke-dashoffset:0;stroke-opacity:1"/></g></g></g><g style="display:inline"><g style="display:inline"><path d="M696.06846 808.50959h83.88713c11.99268-.41997 11.07138 12.12676 11.07138 12.12676V903.606c0 10.25249-10.68731 10.93573-10.68731 10.93573h-86.10387c-8.19194-.39989-9.50539-9.76067-9.50539-9.76067v-84.15612s-.0749-12.11535 11.33806-12.11535z" style="opacity:1;mix-blend-mode:normal;fill:#0880b7;fill-opacity:1;stroke-width:7.55906;stroke-linecap:round;stroke-linejoin:round;stroke-dasharray:7.55906,15.1181" transform="translate(.39424833 -529.81761)"/><g style="display:inline" transform="translate(.2594782 -531.8005436)"><circle cx="722.94879" cy="854.53064" r="3.4077702" style="fill:#272727;fill-opacity:1;stroke:none;stroke-width:3.77953;stroke-linecap:round;stroke-linejoin:round;stroke-dasharray:none;stroke-dashoffset:0;stroke-opacity:1"/><circle cx="753.09442" cy="854.53064" r="3.4077702" style="fill:#272727;fill-opacity:1;stroke:none;stroke-width:3.77953;stroke-linecap:round;stroke-linejoin:round;stroke-dasharray:none;stroke-dashoffset:0;stroke-opacity:1"/><path d="M724.25957 873.99424h27.39322" style="fill:none;fill-opacity:1;stroke:#222;stroke-width:3.77953;stroke-linecap:round;stroke-linejoin:round;stroke-dasharray:none;stroke-dashoffset:0;stroke-opacity:1"/></g></g><g style="display:inline;stroke-width:1.46071"><path d="M1314.332 401.11719c-10.308 1.73051-4.2535 15.97818-16.053 11.99023h-24.5368c-11.0678 1.66924-7.4663 13.43144-8.0938 21.11806-1.1252 6.6269 4.9645 11.76974 11.3282 10.69054-10.8989 3.2658-18.6257 15.86833-5.7657 22.40796 5.7032 6.57005 15.0152 15.23795 22.7793 5.97289 12.7139 13.58605-13.6512 13.96549-22.6857 17.41114-18.2392 4.99497-.3213 22.50313 5.9167 30.76255 16.8346 2.25082 32.9463-12.44563 47.1795-14.27625 11.7599 7.58169 25.2131 12.17679 38.8977 14.79587 10.335 1.56024 10.9766-18.83784 19.8457-6.15529 6.3254 10.56629 16.0442.0571 23.2578 4.10061h74.3614c5.6267-4.20356 8.0955-7.25715 14.3418-2.41813 7.1074 5.71051 17.4249 2.8005 20.6832-4.13656 1.7517 11.65431 13.645 7.02845 21.2876 6.53779 6.5513-1.19154 10.2435-2.8078 16.6264.53838 6.0164-1.7929 12.3997-2.55518 18.1367-5.13281 4.69 10.7384 14.9715 3.44249 22.3056 1.10683 12.355-1.91698 9.517-15.67855 3.077-22.74917-5.6669-6.39058-8.0391-13.03977-6.9451-21.38716-.1973-10.57736.395-21.31173-.2968-31.79076 10.0442-2.84112 6.2614-13.78909 7.0058-21.39047.1464-11.12901-11.6445-9.06382-18.9473-9.19547h-19.332c-1.1198-11.55189-13.3245-7.99325-21.118-8.58008-9.9209-1.68645-12.4387 9.02883-11.3507 16.77662v15.01244h-22.375c-11.0678 1.66924-7.4663 13.43144-8.0938 21.11806.051 9.22321-.1016 18.51227.076 27.69446-2.3567 4.09216-6.615 19.61995-10.3721 9.9828-8.7181.73077-3.5033-10.65889-3.7036-14.6664 11.3759-1.49757 7.6521-13.36994 8.2959-21.11806.7509-7.74834-18.7271-9.31828-5.6767-16.53422 3.2795-5.54368 1.2835-12.10847 1.8271-18.18171-1.3289-11.08528-14.1374-4.20399-15.1851-14.41087-6.3863-3.2659-13.8977-3.69016-20.7837-5.68483-11.0392-.0148-9.1016 16.34297-21.4376 12.00195-4.5868-7.33249-13.6135-15.06723-23.0435-8.63803-7.5058.27488-9.2768 9.55503-16.0536 8.63803-8.1569-4.04833-9.8032 16.90798-12.1534 2.14099-7.9641-4.2438-17.2889-1.65255-25.9566-2.36169-3.9598-.50725-9.9341 1.00006-12.6775-.72357 1.6583-9.89064-9.0729-12.33689-16.7767-11.26667zm65.625 34.25c.5478 2.93812 10.7581 10.83086 3.4551 11.83984-2.8092 8.62738-18.7964-5.87958-5.779-4.79721 2.5937-1.98432 2.3038-4.54443 2.3239-7.04263zm-56.539 9.54883c5.5157 4.45418 3.4027 9.58578-.4258 15.09179-4.464-6.73528-5.1793-8.76907.4258-15.09179zm51.9004 21.75195c-3.9477 11.69758 14.116 8.55786 14.0568 12.47825-4.6026 17.51972-21.1029 10.62707-33.6648 6.59309-12.508 1.01634-4.4442-16.61046 2.9444-9.19148 6.8613-.50713 11.2465-6.37821 16.6636-9.87986z" style="font-weight:700;font-size:110px;line-height:1;font-family:&quot;Corporate Logo ver2&quot;;-inkscape-font-specification:&quot;Corporate Logo ver2 Bold&quot;;font-variation-settings:normal;text-align:start;letter-spacing:0;word-spacing:0;writing-mode:lr-tb;direction:ltr;text-anchor:start;display:inline;fill:#333;fill-opacity:1;stroke:none;stroke-width:6.04724;stroke-linecap:square;stroke-linejoin:miter;stroke-miterlimit:4;stroke-dasharray:none;stroke-dashoffset:0;stroke-opacity:1;stop-color:#000"/><text xml:space="preserve" x="1267.803" y="503.48135" style="font-weight:700;font-size:110px;line-height:1;font-family:&quot;Corporate Logo ver2&quot;;-inkscape-font-specification:&quot;Corporate Logo ver2 Bold&quot;;font-variation-settings:normal;text-align:start;letter-spacing:0;word-spacing:0;writing-mode:lr-tb;direction:ltr;text-anchor:start;display:inline;vector-effect:none;fill:#eee;fill-opacity:1;stroke:none;stroke-width:1.88976;stroke-linecap:square;stroke-linejoin:miter;stroke-miterlimit:4;stroke-dasharray:none;stroke-dashoffset:0;stroke-opacity:1;-inkscape-stroke:none;stop-color:#000"><tspan x="1267.803" y="503.48135" style="font-size:110px;fill:#eee;fill-opacity:1;stroke:none;stroke-width:1.88976;stroke-dasharray:none;stroke-opacity:1">交差点</tspan></text></g><g style="display:inline"><path d="M696.06846 808.50959h83.88713c11.99268-.41997 11.07138 12.12676 11.07138 12.12676V903.606c0 10.25249-10.68731 10.93573-10.68731 10.93573h-86.10387c-8.19194-.39989-9.50539-9.76067-9.50539-9.76067v-84.15612s-.0749-12.11535 11.33806-12.11535z" style="opacity:1;mix-blend-mode:normal;fill:#febc46;fill-opacity:1;stroke-width:7.55906;stroke-linecap:round;stroke-linejoin:round;stroke-dasharray:7.55906,15.1181" transform="rotate(-.322802 -55491.703 -75256.976)"/><g style="display:inline" transform="rotate(-.322802 -55843.5956 -75232.06356432)"><circle cx="722.94879" cy="854.53064" r="3.4077702" style="fill:#272727;fill-opacity:1;stroke:none;stroke-width:3.77953;stroke-linecap:round;stroke-linejoin:round;stroke-dasharray:none;stroke-dashoffset:0;stroke-opacity:1"/><circle cx="753.09442" cy="854.53064" r="3.4077702" style="fill:#272727;fill-opacity:1;stroke:none;stroke-width:3.77953;stroke-linecap:round;stroke-linejoin:round;stroke-dasharray:none;stroke-dashoffset:0;stroke-opacity:1"/><path d="M724.25957 873.99424h27.39322" style="fill:none;fill-opacity:1;stroke:#222;stroke-width:3.77953;stroke-linecap:round;stroke-linejoin:round;stroke-dasharray:none;stroke-dashoffset:0;stroke-opacity:1"/></g></g><g style="display:inline"><path d="M694.13572 809.26037c-11.48019 0-11.40468 12.11523-11.40468 12.11523v84.15625s1.31969 9.35988 9.55988 9.75977h193.13879s10.75045-.68306 10.75045-10.93555v-82.96875s.92583-12.54692-11.13749-12.12695z" style="opacity:1;mix-blend-mode:normal;fill:#0880b7;fill-opacity:1;stroke-width:7.55906;stroke-linecap:round;stroke-linejoin:round;stroke-dasharray:7.55906,15.1181" transform="translate(-104.73106 -212.27413)"/><g style="display:inline" transform="translate(-51.913857 -214.2567285)"><circle cx="722.94879" cy="854.53064" r="3.4077702" style="fill:#272727;fill-opacity:1;stroke:none;stroke-width:3.77953;stroke-linecap:round;stroke-linejoin:round;stroke-dasharray:none;stroke-dashoffset:0;stroke-opacity:1"/><circle cx="753.09442" cy="854.53064" r="3.4077702" style="fill:#272727;fill-opacity:1;stroke:none;stroke-width:3.77953;stroke-linecap:round;stroke-linejoin:round;stroke-dasharray:none;stroke-dashoffset:0;stroke-opacity:1"/><path d="M724.25957 873.99424h27.39322" style="fill:none;fill-opacity:1;stroke:#222;stroke-width:3.77953;stroke-linecap:round;stroke-linejoin:round;stroke-dasharray:none;stroke-dashoffset:0;stroke-opacity:1"/></g></g><g style="display:inline"><path d="M696.06846 808.50959h83.88713c11.99268-.41997 11.07138 12.12676 11.07138 12.12676V903.606c0 10.25249-10.68731 10.93573-10.68731 10.93573h-86.10387c-8.19194-.39989-9.50539-9.76067-9.50539-9.76067v-84.15612s-.0749-12.11535 11.33806-12.11535z" style="opacity:1;mix-blend-mode:normal;fill:#f0673f;fill-opacity:1;stroke-width:7.55906;stroke-linecap:round;stroke-linejoin:round;stroke-dasharray:7.55906,15.1181" transform="translate(427.85591 -424.49928)"/><g style="display:inline" transform="translate(427.72113987 -426.4822136)"><circle cx="722.94879" cy="854.53064" r="3.4077702" style="fill:#272727;fill-opacity:1;stroke:none;stroke-width:3.77953;stroke-linecap:round;stroke-linejoin:round;stroke-dasharray:none;stroke-dashoffset:0;stroke-opacity:1"/><circle cx="753.09442" cy="854.53064" r="3.4077702" style="fill:#272727;fill-opacity:1;stroke:none;stroke-width:3.77953;stroke-linecap:round;stroke-linejoin:round;stroke-dasharray:none;stroke-dashoffset:0;stroke-opacity:1"/><path d="M724.25957 873.99424h27.39322" style="fill:none;fill-opacity:1;stroke:#222;stroke-width:3.77953;stroke-linecap:round;stroke-linejoin:round;stroke-dasharray:none;stroke-dashoffset:0;stroke-opacity:1"/></g></g><g style="display:inline;opacity:1"><path d="M696.06846 808.50959h83.88713c11.99268-.41997 11.07138 12.12676 11.07138 12.12676V903.606c0 10.25249-10.68731 10.93573-10.68731 10.93573h-86.10387c-8.19194-.39989-9.50539-9.76067-9.50539-9.76067v-84.15612s-.0749-12.11535 11.33806-12.11535z" style="opacity:1;mix-blend-mode:normal;fill:#f0673f;fill-opacity:1;stroke-width:7.55906;stroke-linecap:round;stroke-linejoin:round;stroke-dasharray:7.55906,15.1181" transform="translate(427.31638 -211.98089)"/><g style="display:inline" transform="translate(427.18160987 -213.9638236)"><circle cx="722.94879" cy="854.53064" r="3.4077702" style="fill:#272727;fill-opacity:1;stroke:none;stroke-width:3.77953;stroke-linecap:round;stroke-linejoin:round;stroke-dasharray:none;stroke-dashoffset:0;stroke-opacity:1"/><circle cx="753.09442" cy="854.53064" r="3.4077702" style="fill:#272727;fill-opacity:1;stroke:none;stroke-width:3.77953;stroke-linecap:round;stroke-linejoin:round;stroke-dasharray:none;stroke-dashoffset:0;stroke-opacity:1"/><path d="M724.25957 873.99424h27.39322" style="fill:none;fill-opacity:1;stroke:#222;stroke-width:3.77953;stroke-linecap:round;stroke-linejoin:round;stroke-dasharray:none;stroke-dashoffset:0;stroke-opacity:1"/></g></g><rect width="236.65895" height="127.7645" x="458.04834" y="583.32758" ry="1.4584584" style="fill:none;fill-opacity:1;stroke:#4cff5e;stroke-width:18.8976;stroke-linecap:square;stroke-linejoin:round;stroke-dasharray:none;stroke-dashoffset:0;stroke-opacity:1"/><rect width="131.26451" height="126.7645" x="1099.1013" y="584.82758" ry="1.4470432" style="fill:none;fill-opacity:1;stroke:#4cff5e;stroke-width:18.8976;stroke-linecap:square;stroke-linejoin:round;stroke-dasharray:none;stroke-dashoffset:0;stroke-opacity:1"/><path d="M1381.0364 537.812c-1.1852 53.17301-52.4671 112.86728-147.8422 118.38309" style="fill:none;fill-opacity:1;stroke:#fff;stroke-width:7.55900002;stroke-linecap:round;stroke-linejoin:round;stroke-dasharray:none;stroke-dashoffset:0;stroke-opacity:1"/></g></svg>