<svg xmlns="http://www.w3.org/2000/svg" xmlns:xlink="http://www.w3.org/1999/xlink" xml:space="preserve" width="1904" height="1072"><defs><linearGradient id="a"><stop offset="0" style="stop-color:#ef6840;stop-opacity:1"/><stop offset="1" style="stop-color:#ef6840;stop-opacity:0"/></linearGradient><linearGradient xlink:href="#a" id="f" x1="1158.9979" x2="1252.071" y1="524.43652" y2="69.573593" gradientUnits="userSpaceOnUse"/></defs><g style="display:inline;opacity:.5" transform="translate(6.959014 -2.55312)"><path id="b" d="M41.942602 169.08311H1858.8889" style="display:inline;fill:none;fill-opacity:1;stroke:#758391;stroke-width:1.00157;stroke-linecap:round;stroke-linejoin:round;stroke-dasharray:none;stroke-opacity:1"/><use xlink:href="#b" style="display:inline" transform="translate(0 108.38845)"/><use xlink:href="#b" style="display:inline" transform="translate(0 211.80602)"/><use xlink:href="#b" style="display:inline" transform="translate(0 319.80611)"/><use xlink:href="#b" style="display:inline" transform="translate(0 425.70912)"/><use xlink:href="#b" style="display:inline" transform="translate(0 532.34891)"/><use xlink:href="#b" style="display:inline" transform="translate(0 639.11526)"/></g><g style="display:inline;opacity:.5;stroke-width:.896677" transform="matrix(1 0 0 1.2437367 .959014 -71.4691)"><path id="c" d="M897.60883 58.7185v859.8066" style="fill:none;fill-opacity:1;stroke:#758391;stroke-width:.898084;stroke-linecap:round;stroke-linejoin:round;stroke-dasharray:none;stroke-opacity:1"/><use xlink:href="#c" style="stroke-width:.896677" transform="translate(106.94548)"/><use xlink:href="#c" style="stroke-width:.896677" transform="translate(213.89096)"/><use xlink:href="#c" style="stroke-width:.896677" transform="translate(320.83645)"/><use xlink:href="#c" style="stroke-width:.896677" transform="translate(427.78193)"/><use xlink:href="#c" style="stroke-width:.896677" transform="translate(534.72742)"/><use xlink:href="#c" style="stroke-width:.896677" transform="translate(641.6729)"/><use xlink:href="#c" style="stroke-width:.896677" transform="translate(748.61839)"/><use xlink:href="#c" style="stroke-width:.896677" transform="translate(855.56387)"/><use xlink:href="#c" style="stroke-width:.896677" transform="translate(-106.94549)"/><use xlink:href="#c" style="stroke-width:.896677" transform="translate(-213.89097)"/><use xlink:href="#c" style="stroke-width:.896677" transform="translate(-320.83646)"/><use xlink:href="#c" style="stroke-width:.896677" transform="translate(-427.78194)"/><use xlink:href="#c" style="stroke-width:.896677" transform="translate(-534.72743)"/><use xlink:href="#c" style="stroke-width:.896677" transform="translate(-641.67291)"/></g><path d="M-2.828125-4v1082H1908V-4ZM578.41406 60H1861.2773v318.30273h-97.7656c-5.0861 0-9.1797 4.09354-9.1797 9.17969v204.23633h-97.9355c-5.1254 0-9.252 4.12657-9.252 9.25195v97.82227h-97.3066c-5.0348 0-9.0879 4.05308-9.0879 9.08789V912H149.90625V805.26562h98.24805c5.06718 0 9.14648-4.07929 9.14648-9.14648V592.55469h97.73047c5.03336 0 9.08594-4.05063 9.08594-9.08399v-88.06054c0-5.03336-4.05258-9.08399-9.08594-9.08399h-97.73047v-107.3164h204.4961c5.06094 0 9.13671-4.07577 9.13671-9.13672v-202.9961h98.28711c5.09259 0 9.19336-4.09882 9.19336-9.1914zm436.26564 318.13867c-5.0345 0-9.0879 4.05144-9.0879 9.08594v90.17773c0 5.03451 4.0534 9.08789 9.0879 9.08789h623.584c5.0345 0 9.0879-4.05338 9.0879-9.08789v-90.17773c0-5.0345-4.0534-9.08594-9.0879-9.08594z" style="display:inline;opacity:1;fill:#758391;fill-opacity:1;stroke-width:7.55906;stroke-linecap:round;stroke-linejoin:round;stroke-dasharray:7.55906,22.6771;stroke-dashoffset:0"/><g id="d" style="display:inline;opacity:1;stroke-width:.896677"><path d="M696.06846 808.50959h83.88713c11.99268-.41997 11.07138 12.12676 11.07138 12.12676V903.606c0 10.25249-10.68731 10.93573-10.68731 10.93573h-86.10387c-8.19194-.39989-9.50539-9.76067-9.50539-9.76067v-84.15612s-.0749-12.11535 11.33806-12.11535z" style="opacity:1;mix-blend-mode:normal;fill:#ffaf17;fill-opacity:1;stroke-width:7.55906;stroke-linecap:round;stroke-linejoin:round;stroke-dasharray:7.55906,15.1181" transform="translate(320.92826 -533.96375)"/><g style="display:inline" transform="translate(320.79348987 -535.9466836)"><circle cx="722.94879" cy="854.53064" r="3.4077702" style="fill:#272727;fill-opacity:1;stroke:none;stroke-width:3.77953;stroke-linecap:round;stroke-linejoin:round;stroke-dasharray:none;stroke-dashoffset:0;stroke-opacity:1"/><circle cx="753.09442" cy="854.53064" r="3.4077702" style="fill:#272727;fill-opacity:1;stroke:none;stroke-width:3.77953;stroke-linecap:round;stroke-linejoin:round;stroke-dasharray:none;stroke-dashoffset:0;stroke-opacity:1"/><path d="M724.25957 873.99424h27.39322" style="fill:none;fill-opacity:1;stroke:#222;stroke-width:3.77953;stroke-linecap:round;stroke-linejoin:round;stroke-dasharray:none;stroke-dashoffset:0;stroke-opacity:1"/></g></g><use xlink:href="#d" style="display:inline" transform="translate(213.5)"/><g id="e" style="display:inline;opacity:1;stroke-width:.896677"><path d="M696.06846 808.50959h83.88713c11.99268-.41997 11.07138 12.12676 11.07138 12.12676V903.606c0 10.25249-10.68731 10.93573-10.68731 10.93573h-86.10387c-8.19194-.39989-9.50539-9.76067-9.50539-9.76067v-84.15612s-.0749-12.11535 11.33806-12.11535z" style="opacity:1;mix-blend-mode:normal;fill:#ef6840;fill-opacity:1;stroke-width:7.55906;stroke-linecap:round;stroke-linejoin:round;stroke-dasharray:7.55906,15.1181" transform="translate(427.76961 -534.49568)"/><g style="display:inline" transform="translate(427.63483987 -536.4786136)"><circle cx="722.94879" cy="854.53064" r="3.4077702" style="fill:#272727;fill-opacity:1;stroke:none;stroke-width:3.77953;stroke-linecap:round;stroke-linejoin:round;stroke-dasharray:none;stroke-dashoffset:0;stroke-opacity:1"/><circle cx="753.09442" cy="854.53064" r="3.4077702" style="fill:#272727;fill-opacity:1;stroke:none;stroke-width:3.77953;stroke-linecap:round;stroke-linejoin:round;stroke-dasharray:none;stroke-dashoffset:0;stroke-opacity:1"/><path d="M724.25957 873.99424h27.39322" style="fill:none;fill-opacity:1;stroke:#222;stroke-width:3.77953;stroke-linecap:round;stroke-linejoin:round;stroke-dasharray:none;stroke-dashoffset:0;stroke-opacity:1"/></g></g><use xlink:href="#e" transform="translate(534.75 212.5)"/><g style="display:inline;opacity:1;stroke-width:.896677"><path d="M781.04163 704.48342c-.34997-.0114-.71116-.0112-1.08594.002h-83.88671c-11.41296 0-11.3379 12.11524-11.3379 12.11524.90943 62.73971 0 188.17969 0 188.17969s1.31197 9.36182 9.50391 9.76171h86.10547s10.68555-.68305 10.68555-10.93554c-1.00839-62.37969 0-124.55813 0-186.99414 0 0 .86472-11.7748-9.98438-12.12891z" style="opacity:1;mix-blend-mode:normal;fill:#ef6840;fill-opacity:1;stroke-width:7.55906;stroke-linecap:round;stroke-linejoin:round;stroke-dasharray:7.55906,15.1181" transform="translate(641.52065 -533.93018)"/><g style="display:inline" transform="translate(641.38587987 -587.218409)"><circle cx="722.94879" cy="854.53064" r="3.4077702" style="fill:#272727;fill-opacity:1;stroke:none;stroke-width:3.77953;stroke-linecap:round;stroke-linejoin:round;stroke-dasharray:none;stroke-dashoffset:0;stroke-opacity:1"/><circle cx="753.09442" cy="854.53064" r="3.4077702" style="fill:#272727;fill-opacity:1;stroke:none;stroke-width:3.77953;stroke-linecap:round;stroke-linejoin:round;stroke-dasharray:none;stroke-dashoffset:0;stroke-opacity:1"/><path d="M724.25957 873.99424h27.39322" style="fill:none;fill-opacity:1;stroke:#222;stroke-width:3.77953;stroke-linecap:round;stroke-linejoin:round;stroke-dasharray:none;stroke-dashoffset:0;stroke-opacity:1"/></g></g><g style="display:inline;stroke-width:.986872"><path d="M696.06846 808.50959h83.88713c11.99268-.41997 11.07138 12.12676 11.07138 12.12676V903.606c0 10.25249-10.68731 10.93573-10.68731 10.93573h-86.10387c-8.19194-.39989-9.50539-9.76067-9.50539-9.76067v-84.15612s-.0749-12.11535 11.33806-12.11535z" style="opacity:1;mix-blend-mode:normal;fill:#1273d2;fill-opacity:1;stroke-width:7.45983;stroke-linecap:round;stroke-linejoin:round;stroke-dasharray:7.45983,14.9196" transform="translate(-437.1067 -440.22551) scale(1.0133024)"/><g style="display:inline;stroke-width:.986872" transform="translate(-437.2432629 -442.23482138) scale(1.0133024)"><circle cx="722.94879" cy="854.53064" r="3.4077702" style="fill:#272727;fill-opacity:1;stroke:none;stroke-width:3.72991;stroke-linecap:round;stroke-linejoin:round;stroke-dasharray:none;stroke-dashoffset:0;stroke-opacity:1"/><circle cx="753.09442" cy="854.53064" r="3.4077702" style="fill:#272727;fill-opacity:1;stroke:none;stroke-width:3.72991;stroke-linecap:round;stroke-linejoin:round;stroke-dasharray:none;stroke-dashoffset:0;stroke-opacity:1"/><path d="M724.25957 873.99424h27.39322" style="fill:none;fill-opacity:1;stroke:#222;stroke-width:3.72991;stroke-linecap:round;stroke-linejoin:round;stroke-dasharray:none;stroke-dashoffset:0;stroke-opacity:1"/></g></g></svg>