<svg xmlns="http://www.w3.org/2000/svg" xmlns:xlink="http://www.w3.org/1999/xlink" xml:space="preserve" width="1904" height="1072"><defs><linearGradient id="g"><stop offset="0" style="stop-color:#0079b0;stop-opacity:1"/><stop offset="1" style="stop-color:#fff;stop-opacity:0"/></linearGradient><linearGradient id="f"><stop offset="0" style="stop-color:#f5a633;stop-opacity:1"/><stop offset="1" style="stop-color:#f5a633;stop-opacity:0"/></linearGradient><linearGradient id="e"><stop offset="0" style="stop-color:#0079b0;stop-opacity:1"/><stop offset="1" style="stop-color:#106e8f;stop-opacity:0"/></linearGradient><linearGradient id="d"><stop offset="0" style="stop-color:#0079b0;stop-opacity:1"/><stop offset="1" style="stop-color:#0079b0;stop-opacity:0"/></linearGradient><linearGradient id="c"><stop offset="0" style="stop-color:#0079b0;stop-opacity:1"/><stop offset="1" style="stop-color:#0079b0;stop-opacity:0"/></linearGradient><linearGradient id="b"><stop offset="0" style="stop-color:#fff;stop-opacity:1"/><stop offset="1" style="stop-color:#0079b0;stop-opacity:1"/></linearGradient><linearGradient id="a"><stop offset="0" style="stop-color:#fff;stop-opacity:1"/><stop offset="1" style="stop-color:#0079b0;stop-opacity:.64735514"/></linearGradient><linearGradient xlink:href="#e" id="j" x1="992" x2="1101" y1="510" y2="350" gradientUnits="userSpaceOnUse"/></defs><g style="display:inline"><g style="display:inline;opacity:.5" transform="translate(5.5448 -.4318)"><path id="h" d="M41.942602 169.08311H1858.8889" style="display:inline;fill:none;fill-opacity:1;stroke:#a4a4a4;stroke-width:1.00157;stroke-linecap:round;stroke-linejoin:round;stroke-dasharray:none;stroke-opacity:1"/><use xlink:href="#h" style="display:inline" transform="translate(0 108.38845)"/><use xlink:href="#h" style="display:inline" transform="translate(0 211.80602)"/><use xlink:href="#h" style="display:inline" transform="translate(0 319.80611)"/><use xlink:href="#h" style="display:inline" transform="translate(0 425.70912)"/><use xlink:href="#h" style="display:inline" transform="translate(0 532.34891)"/><use xlink:href="#h" style="display:inline" transform="translate(0 639.11526)"/><use xlink:href="#h" style="display:inline" transform="translate(0 745.88162)"/></g><g style="display:inline;opacity:.5;stroke-width:.896677" transform="matrix(1 0 0 1.2437367 2.373227 -67.22646)"><path id="i" d="M897.60883 58.7185v859.8066" style="fill:none;fill-opacity:1;stroke:#a4a4a4;stroke-width:.898084;stroke-linecap:round;stroke-linejoin:round;stroke-dasharray:none;stroke-opacity:1"/><use xlink:href="#i" style="stroke-width:.896677" transform="translate(106.94548)"/><use xlink:href="#i" style="stroke-width:.896677" transform="translate(213.89096)"/><use xlink:href="#i" style="stroke-width:.896677" transform="translate(320.83645)"/><use xlink:href="#i" style="stroke-width:.896677" transform="translate(427.78193)"/><use xlink:href="#i" style="stroke-width:.896677" transform="translate(534.72742)"/><use xlink:href="#i" style="stroke-width:.896677" transform="translate(641.6729)"/><use xlink:href="#i" style="stroke-width:.896677" transform="translate(748.61839)"/><use xlink:href="#i" style="stroke-width:.896677" transform="translate(855.56387)"/><use xlink:href="#i" style="stroke-width:.896677" transform="translate(-106.94549)"/><use xlink:href="#i" style="stroke-width:.896677" transform="translate(-213.89097)"/><use xlink:href="#i" style="stroke-width:.896677" transform="translate(-320.83646)"/><use xlink:href="#i" style="stroke-width:.896677" transform="translate(-427.78194)"/><use xlink:href="#i" style="stroke-width:.896677" transform="translate(-534.72743)"/><use xlink:href="#i" style="stroke-width:.896677" transform="translate(-641.67291)"/></g><path d="M0 .25v1073.1387h144V1074h1759.8787V.25Zm152.73438 60.869141H1859V594.23242h-520.8438c-6.9248 0-12.5 5.575-12.5 12.5v81.75c0 6.925 5.5752 12.5 12.5 12.5H1432v320.08008H792V700.98242h96.25c6.925 0 12.5-5.575 12.5-12.5v-81.75c0-6.925-5.575-12.5-12.5-12.5H152.73438Z" style="fill:#6d9bb1;fill-opacity:1;stroke-width:15.118;stroke-linecap:round;stroke-linejoin:round;stroke-dasharray:15.118,30.236"/><rect width="106.06602" height="321.02649" x="258.80109" y="168.29141" ry="9.152071" style="display:inline;fill:#6d9bb1;fill-opacity:1;stroke-width:15.118;stroke-linecap:round;stroke-linejoin:round;stroke-dasharray:15.118,30.236"/><g style="display:inline"><path d="M696.06846 808.50959h83.88713c11.99268-.41997 11.07138 12.12676 11.07138 12.12676V903.606c0 10.25249-10.68731 10.93573-10.68731 10.93573h-86.10387c-8.19194-.39989-9.50539-9.76067-9.50539-9.76067v-84.15612s-.0749-12.11535 11.33806-12.11535z" style="opacity:1;mix-blend-mode:normal;fill:#0079b0;fill-opacity:1;stroke-width:7.55906;stroke-linecap:round;stroke-linejoin:round;stroke-dasharray:7.55906,15.1181" transform="translate(-532.23036 -320.49928)"/><g style="display:inline" transform="translate(-532.36513013 -322.4822136)"><circle cx="722.94879" cy="854.53064" r="3.4077702" style="fill:#272727;fill-opacity:1;stroke:none;stroke-width:3.77953;stroke-linecap:round;stroke-linejoin:round;stroke-dasharray:none;stroke-dashoffset:0;stroke-opacity:1"/><circle cx="753.09442" cy="854.53064" r="3.4077702" style="fill:#272727;fill-opacity:1;stroke:none;stroke-width:3.77953;stroke-linecap:round;stroke-linejoin:round;stroke-dasharray:none;stroke-dashoffset:0;stroke-opacity:1"/><path d="M724.25957 873.99424h27.39322" style="fill:none;fill-opacity:1;stroke:#222;stroke-width:3.77953;stroke-linecap:round;stroke-linejoin:round;stroke-dasharray:none;stroke-dashoffset:0;stroke-opacity:1"/></g></g></g><g style="display:inline"><g style="display:inline"><path d="M696.06846 808.50959h83.88713c11.99268-.41997 11.07138 12.12676 11.07138 12.12676V903.606c0 10.25249-10.68731 10.93573-10.68731 10.93573h-86.10387c-8.19194-.39989-9.50539-9.76067-9.50539-9.76067v-84.15612s-.0749-12.11535 11.33806-12.11535z" style="opacity:1;mix-blend-mode:normal;fill:#e54b3d;fill-opacity:1;stroke-width:7.55906;stroke-linecap:round;stroke-linejoin:round;stroke-dasharray:7.55906,15.1181" transform="translate(214.79683 108.20173)"/><g style="display:inline" transform="translate(214.66205987 106.2187964)"><circle cx="722.94879" cy="854.53064" r="3.4077702" style="fill:#272727;fill-opacity:1;stroke:none;stroke-width:3.77953;stroke-linecap:round;stroke-linejoin:round;stroke-dasharray:none;stroke-dashoffset:0;stroke-opacity:1"/><circle cx="753.09442" cy="854.53064" r="3.4077702" style="fill:#272727;fill-opacity:1;stroke:none;stroke-width:3.77953;stroke-linecap:round;stroke-linejoin:round;stroke-dasharray:none;stroke-dashoffset:0;stroke-opacity:1"/><path d="M724.25957 873.99424h27.39322" style="fill:none;fill-opacity:1;stroke:#222;stroke-width:3.77953;stroke-linecap:round;stroke-linejoin:round;stroke-dasharray:none;stroke-dashoffset:0;stroke-opacity:1"/></g></g><g style="display:inline"><path d="M781.04163 704.48342c-.34997-.0114-.71116-.0112-1.08594.002h-83.88671c-11.41296 0-11.3379 12.11524-11.3379 12.11524.90943 62.73971 0 188.17969 0 188.17969s1.31197 9.36182 9.50391 9.76171h86.10547s10.68555-.68305 10.68555-10.93554c-1.00839-62.37969 0-124.55813 0-186.99414 0 0 .86472-11.7748-9.98438-12.12891z" style="opacity:1;mix-blend-mode:normal;fill:#0079b0;fill-opacity:1;stroke-width:7.55906;stroke-linecap:round;stroke-linejoin:round;stroke-dasharray:7.55906,15.1181" transform="translate(214.42095 2.2377872)"/><g style="display:inline" transform="translate(214.28617987 -51.0504418)"><circle cx="722.94879" cy="854.53064" r="3.4077702" style="fill:#272727;fill-opacity:1;stroke:none;stroke-width:3.77953;stroke-linecap:round;stroke-linejoin:round;stroke-dasharray:none;stroke-dashoffset:0;stroke-opacity:1"/><circle cx="753.09442" cy="854.53064" r="3.4077702" style="fill:#272727;fill-opacity:1;stroke:none;stroke-width:3.77953;stroke-linecap:round;stroke-linejoin:round;stroke-dasharray:none;stroke-dashoffset:0;stroke-opacity:1"/><path d="M724.25957 873.99424h27.39322" style="fill:none;fill-opacity:1;stroke:#222;stroke-width:3.77953;stroke-linecap:round;stroke-linejoin:round;stroke-dasharray:none;stroke-dashoffset:0;stroke-opacity:1"/></g></g><g style="display:inline;stroke-width:.990681"><path d="M696.06846 808.50959h83.88713c11.99268-.41997 11.07138 12.12676 11.07138 12.12676V903.606c0 10.25249-10.68731 10.93573-10.68731 10.93573h-86.10387c-8.19194-.39989-9.50539-9.76067-9.50539-9.76067v-84.15612s-.0749-12.11535 11.33806-12.11535z" style="opacity:1;mix-blend-mode:normal;fill:#0079b0;fill-opacity:1;stroke-width:7.48862;stroke-linecap:round;stroke-linejoin:round;stroke-dasharray:7.48862,14.9772" transform="translate(637.5789 -328.4656) scale(1.0094062)"/><g style="display:inline;stroke-width:.990681" transform="translate(637.4428622 -330.46718547) scale(1.0094062)"><circle cx="722.94879" cy="854.53064" r="3.4077702" style="fill:#272727;fill-opacity:1;stroke:none;stroke-width:3.74431;stroke-linecap:round;stroke-linejoin:round;stroke-dasharray:none;stroke-dashoffset:0;stroke-opacity:1"/><circle cx="753.09442" cy="854.53064" r="3.4077702" style="fill:#272727;fill-opacity:1;stroke:none;stroke-width:3.74431;stroke-linecap:round;stroke-linejoin:round;stroke-dasharray:none;stroke-dashoffset:0;stroke-opacity:1"/><path d="M724.25957 873.99424h27.39322" style="fill:none;fill-opacity:1;stroke:#222;stroke-width:3.74431;stroke-linecap:round;stroke-linejoin:round;stroke-dasharray:none;stroke-dashoffset:0;stroke-opacity:1"/></g></g><g style="display:inline"><path d="M696.06869 808.50952c-11.41296 0-11.33789 12.11524-11.33789 12.11524v84.15625s1.31196 9.35988 9.5039 9.75976c134.63713-1.4743 269.22128-.30192 403.8574 0 0 0 10.6875-.68305 10.6875-10.93554v-82.96875s.9204-12.54693-11.0722-12.12696c-134.10074 1.73512-267.57262 1.41277-401.63871 0z" style="opacity:1;mix-blend-mode:normal;fill:#0079b0;fill-opacity:1;stroke-width:7.55906;stroke-linecap:round;stroke-linejoin:round;stroke-dasharray:7.55906,15.1181" transform="translate(112.76922 -317.9992)"/><g style="display:inline" transform="translate(271.51096 -319.9817985)"><circle cx="722.94879" cy="854.53064" r="3.4077702" style="fill:#272727;fill-opacity:1;stroke:none;stroke-width:3.77953;stroke-linecap:round;stroke-linejoin:round;stroke-dasharray:none;stroke-dashoffset:0;stroke-opacity:1"/><circle cx="753.09442" cy="854.53064" r="3.4077702" style="fill:#272727;fill-opacity:1;stroke:none;stroke-width:3.77953;stroke-linecap:round;stroke-linejoin:round;stroke-dasharray:none;stroke-dashoffset:0;stroke-opacity:1"/><path d="M724.25957 873.99424h27.39322" style="fill:none;fill-opacity:1;stroke:#222;stroke-width:3.77953;stroke-linecap:round;stroke-linejoin:round;stroke-dasharray:none;stroke-dashoffset:0;stroke-opacity:1"/></g></g><path d="m1096.2207 320.12891-15.4004 10.95312c-54.8309 38.99321-95.10144 98.19186-98.43358 168.65625l-.89258 18.87695 37.75386 1.78516.8926-18.87695c2.7019-57.13583 35.2633-105.98833 82.584-139.64063l15.4004-10.95117z" style="opacity:.814;fill:url(#j);fill-opacity:1;stroke-linecap:square"/><g style="display:inline;stroke-width:.983775"><path d="M696.06896 808.51037c-11.41296 0-11.33789 12.11523-11.33789 12.11523v84.15625s1.31196 9.35988 9.5039 9.75977c64.12927-1.60024 127.71801 0 192.00782 0 0 0 10.6875-.68306 10.6875-10.93555v-82.96875s.92041-12.54692-11.07227-12.12695c-63.38173 1.61209-126.3185.00057-189.78906 0z" style="opacity:1;mix-blend-mode:normal;fill:#f5a633;fill-opacity:1;stroke-width:7.43642;stroke-linecap:round;stroke-linejoin:round;stroke-dasharray:7.43642,14.8728" transform="translate(522.51607 -441.55894) scale(1.0164927)"/><g style="display:inline;stroke-width:.983775" transform="translate(576.20437128 -443.5742369) scale(1.0164927)"><circle cx="722.94879" cy="854.53064" r="3.4077702" style="fill:#272727;fill-opacity:1;stroke:none;stroke-width:3.7182;stroke-linecap:round;stroke-linejoin:round;stroke-dasharray:none;stroke-dashoffset:0;stroke-opacity:1"/><circle cx="753.09442" cy="854.53064" r="3.4077702" style="fill:#272727;fill-opacity:1;stroke:none;stroke-width:3.7182;stroke-linecap:round;stroke-linejoin:round;stroke-dasharray:none;stroke-dashoffset:0;stroke-opacity:1"/><path d="M724.25957 873.99424h27.39322" style="fill:none;fill-opacity:1;stroke:#222;stroke-width:3.7182;stroke-linecap:round;stroke-linejoin:round;stroke-dasharray:none;stroke-dashoffset:0;stroke-opacity:1"/></g></g><path d="M910.91339 277.27195c-11.41296 0-11.33789 12.11524-11.33789 12.11524v84.15625s1.31196 9.35988 9.5039 9.75976c134.6371-1.4743 269.2213-.30192 403.8574 0 0 0 10.6875-.68305 10.6875-10.93554v-82.96875s.9204-12.54693-11.0722-12.12696c-134.1007 1.73512-267.5726 1.41277-401.63871 0z" style="display:inline;opacity:1;mix-blend-mode:normal;fill:#0079b0;fill-opacity:.2;stroke:#0079b0;stroke-width:6.04724;stroke-linecap:round;stroke-linejoin:round;stroke-dasharray:6.04724,18.1417;stroke-dashoffset:0;stroke-opacity:1"/></g></svg>