<svg xmlns="http://www.w3.org/2000/svg" xmlns:xlink="http://www.w3.org/1999/xlink" xml:space="preserve" width="1904" height="1072"><g style="display:inline;opacity:.5" transform="translate(6.959014 -2.55312)"><path id="a" d="M271.9426 170.41206h1524.9463" style="display:inline;fill:none;fill-opacity:1;stroke:#a4a4a4;stroke-width:1.00157;stroke-linecap:round;stroke-linejoin:round;stroke-dasharray:none;stroke-opacity:1"/><use xlink:href="#a" style="display:inline;stroke-width:1.09156" transform="translate(0 106.82895)"/><use xlink:href="#a" style="display:inline;stroke-width:1.09156" transform="translate(0 213.65791)"/><use xlink:href="#a" style="display:inline;stroke-width:1.09156" transform="translate(0 320.48686)"/><use xlink:href="#a" style="display:inline;stroke-width:1.09156" transform="translate(0 427.31581)"/><use xlink:href="#a" style="display:inline;stroke-width:1.09156" transform="translate(0 534.14477)"/><use xlink:href="#a" style="display:inline;stroke-width:1.09156" transform="translate(0 640.97372)"/></g><g style="display:inline;opacity:.5;stroke-width:.896677" transform="matrix(1 0 0 1.2437367 .959014 -71.4691)"><path id="b" d="M897.2366 68.365534V904.05389" style="fill:none;fill-opacity:1;stroke:#a4a4a4;stroke-width:.898084;stroke-linecap:round;stroke-linejoin:round;stroke-dasharray:none;stroke-opacity:1"/><use xlink:href="#b" style="stroke-width:.909524" transform="translate(106.77104)"/><use xlink:href="#b" style="stroke-width:.909524" transform="translate(213.54209)"/><use xlink:href="#b" style="stroke-width:.909524" transform="translate(320.31313)"/><use xlink:href="#b" style="stroke-width:.909524" transform="translate(427.08417)"/><use xlink:href="#b" style="stroke-width:.909524" transform="translate(533.85521)"/><use xlink:href="#b" style="stroke-width:.909524" transform="translate(640.62625)"/><use xlink:href="#b" style="stroke-width:.909524" transform="translate(747.39729)"/><use xlink:href="#b" style="stroke-width:.909524" transform="translate(-106.77104)"/><use xlink:href="#b" style="stroke-width:.909524" transform="translate(-213.54208)"/><use xlink:href="#b" style="stroke-width:.909524" transform="translate(-320.31312)"/><use xlink:href="#b" style="stroke-width:.909524" transform="translate(-427.08416)"/></g><path d="M-11.314453-5.65625V1078H1005.25V927c0-7.202-5.798-13.00481-13-13l-93.5.0625v-39.88281c0-7.16303-5.76666-12.92969-12.92969-12.92969H791.75v-39.77344c0-7.18927-5.78729-12.97656-12.97656-12.97656h-414.1875V488.29297h305.17578c8.31 0 15-6.69 15-15V60.896484h960.67578V274.35742h-319.9648v-41.36523c0-6.46367-5.2043-11.66797-11.668-11.66797h-84.1465c-6.4637 0-11.666 5.2043-11.666 11.66797v41.36523h-93.1211c-6.9757 0-12.5918 5.61613-12.5918 12.5918v134.62305c0 6.97567 5.6161 12.59179 12.5918 12.59179h627.6934V916h-107.0333V552c0-7.202-5.798-13-13-13H1125c-7.202 0-13 5.798-13 13v526h798V-5.65625Z" style="display:inline;fill:#9e999c;fill-opacity:1;stroke:none;stroke-width:37.7953;stroke-linecap:square;stroke-linejoin:round"/><g style="display:inline"><path d="M696.06846 808.50959h83.88713c11.99268-.41997 11.07138 12.12676 11.07138 12.12676V903.606c0 10.25249-10.68731 10.93573-10.68731 10.93573h-86.10387c-8.19194-.39989-9.50539-9.76067-9.50539-9.76067v-84.15612s-.0749-12.11535 11.33806-12.11535z" style="opacity:1;mix-blend-mode:normal;fill:#17979f;fill-opacity:1;stroke-width:7.55906;stroke-linecap:round;stroke-linejoin:round;stroke-dasharray:7.55906,15.1181" transform="translate(427.02207 -640.27123)"/><g style="display:inline" transform="translate(426.88729987 -642.2541636)"><circle cx="722.94879" cy="854.53064" r="3.4077702" style="fill:#272727;fill-opacity:1;stroke:none;stroke-width:3.77953;stroke-linecap:round;stroke-linejoin:round;stroke-dasharray:none;stroke-dashoffset:0;stroke-opacity:1"/><circle cx="753.09442" cy="854.53064" r="3.4077702" style="fill:#272727;fill-opacity:1;stroke:none;stroke-width:3.77953;stroke-linecap:round;stroke-linejoin:round;stroke-dasharray:none;stroke-dashoffset:0;stroke-opacity:1"/><path d="M724.25957 873.99424h27.39322" style="fill:none;fill-opacity:1;stroke:#222;stroke-width:3.77953;stroke-linecap:round;stroke-linejoin:round;stroke-dasharray:none;stroke-dashoffset:0;stroke-opacity:1"/></g></g><g style="display:inline"><path d="M696.06846 808.50959h83.88713c11.99268-.41997 11.07138 12.12676 11.07138 12.12676V903.606c0 10.25249-10.68731 10.93573-10.68731 10.93573h-86.10387c-8.19194-.39989-9.50539-9.76067-9.50539-9.76067v-84.15612s-.0749-12.11535 11.33806-12.11535z" style="opacity:1;mix-blend-mode:normal;fill:#ff9a61;fill-opacity:1;stroke-width:7.55906;stroke-linecap:round;stroke-linejoin:round;stroke-dasharray:7.55906,15.1181" transform="translate(640.7696 -640.21375)"/><g style="display:inline" transform="translate(640.63482987 -642.1966836)"><circle cx="722.94879" cy="854.53064" r="3.4077702" style="fill:#272727;fill-opacity:1;stroke:none;stroke-width:3.77953;stroke-linecap:round;stroke-linejoin:round;stroke-dasharray:none;stroke-dashoffset:0;stroke-opacity:1"/><circle cx="753.09442" cy="854.53064" r="3.4077702" style="fill:#272727;fill-opacity:1;stroke:none;stroke-width:3.77953;stroke-linecap:round;stroke-linejoin:round;stroke-dasharray:none;stroke-dashoffset:0;stroke-opacity:1"/><path d="M724.25957 873.99424h27.39322" style="fill:none;fill-opacity:1;stroke:#222;stroke-width:3.77953;stroke-linecap:round;stroke-linejoin:round;stroke-dasharray:none;stroke-dashoffset:0;stroke-opacity:1"/></g></g><g style="display:inline"><path d="M696.06846 808.50959h83.88713c11.99268-.41997 11.07138 12.12676 11.07138 12.12676V903.606c0 10.25249-10.68731 10.93573-10.68731 10.93573h-86.10387c-8.19194-.39989-9.50539-9.76067-9.50539-9.76067v-84.15612s-.0749-12.11535 11.33806-12.11535z" style="opacity:1;mix-blend-mode:normal;fill:#ff9a61;fill-opacity:1;stroke-width:7.55906;stroke-linecap:round;stroke-linejoin:round;stroke-dasharray:7.55906,15.1181" transform="translate(854.48006 -640.3602)"/><g style="display:inline" transform="translate(854.34528987 -642.3431336)"><circle cx="722.94879" cy="854.53064" r="3.4077702" style="fill:#272727;fill-opacity:1;stroke:none;stroke-width:3.77953;stroke-linecap:round;stroke-linejoin:round;stroke-dasharray:none;stroke-dashoffset:0;stroke-opacity:1"/><circle cx="753.09442" cy="854.53064" r="3.4077702" style="fill:#272727;fill-opacity:1;stroke:none;stroke-width:3.77953;stroke-linecap:round;stroke-linejoin:round;stroke-dasharray:none;stroke-dashoffset:0;stroke-opacity:1"/><path d="M724.25957 873.99424h27.39322" style="fill:none;fill-opacity:1;stroke:#222;stroke-width:3.77953;stroke-linecap:round;stroke-linejoin:round;stroke-dasharray:none;stroke-dashoffset:0;stroke-opacity:1"/></g></g><path d="M1016.7258 488.33488h83.8871c11.9927-.41997 11.0714 12.12676 11.0714 12.12676v575.11586l-106.2966 1.1751V500.45023s-.075-12.11535 11.3381-12.11535z" style="display:inline;opacity:1;mix-blend-mode:normal;fill:#ff9a61;fill-opacity:1;stroke-width:7.55906;stroke-linecap:round;stroke-linejoin:round;stroke-dasharray:7.55906,15.1181"/><g style="display:inline;stroke-width:.993017"><path d="M696.06846 808.50959h83.88713c11.99268-.41997 11.07138 12.12676 11.07138 12.12676V903.606c0 10.25249-10.68731 10.93573-10.68731 10.93573h-86.10387c-8.19194-.39989-9.50539-9.76067-9.50539-9.76067v-84.15612s-.0749-12.11535 11.33806-12.11535z" style="opacity:1;mix-blend-mode:normal;fill:#c5bd1e;fill-opacity:1;stroke-width:7.50627;stroke-linecap:round;stroke-linejoin:round;stroke-dasharray:7.50627,15.0125" transform="matrix(1.0046673 -.00568682 .00566032 1.0093713 952.99704 -3.2079627)"/><g style="display:inline;stroke-width:.993017" transform="matrix(1.0046673 -.00568682 .00566032 1.0093713 952.85041682 -5.20871255)"><circle cx="722.94879" cy="854.53064" r="3.4077702" style="fill:#272727;fill-opacity:1;stroke:none;stroke-width:3.75314;stroke-linecap:round;stroke-linejoin:round;stroke-dasharray:none;stroke-dashoffset:0;stroke-opacity:1"/><circle cx="753.09442" cy="854.53064" r="3.4077702" style="fill:#272727;fill-opacity:1;stroke:none;stroke-width:3.75314;stroke-linecap:round;stroke-linejoin:round;stroke-dasharray:none;stroke-dashoffset:0;stroke-opacity:1"/><path d="M724.25957 873.99424h27.39322" style="fill:none;fill-opacity:1;stroke:#222;stroke-width:3.75314;stroke-linecap:round;stroke-linejoin:round;stroke-dasharray:none;stroke-dashoffset:0;stroke-opacity:1"/></g></g><g style="display:inline;stroke-width:.993017"><path d="M696.06846 808.50959h83.88713c11.99268-.41997 11.07138 12.12676 11.07138 12.12676V903.606c0 10.25249-10.68731 10.93573-10.68731 10.93573h-86.10387c-8.19194-.39989-9.50539-9.76067-9.50539-9.76067v-84.15612s-.0749-12.11535 11.33806-12.11535z" style="opacity:1;mix-blend-mode:normal;fill:#c5bd1e;fill-opacity:1;stroke-width:7.50627;stroke-linecap:round;stroke-linejoin:round;stroke-dasharray:7.50627,15.0125" transform="matrix(1.0046673 -.00568682 .00566032 1.0093713 -114.64846 -110.52398)"/><g style="display:inline;stroke-width:.993017" transform="matrix(1.0046673 -.00568682 .00566032 1.0093713 -114.79508318 -112.52472985)"><circle cx="722.94879" cy="854.53064" r="3.4077702" style="fill:#272727;fill-opacity:1;stroke:none;stroke-width:3.75314;stroke-linecap:round;stroke-linejoin:round;stroke-dasharray:none;stroke-dashoffset:0;stroke-opacity:1"/><circle cx="753.09442" cy="854.53064" r="3.4077702" style="fill:#272727;fill-opacity:1;stroke:none;stroke-width:3.75314;stroke-linecap:round;stroke-linejoin:round;stroke-dasharray:none;stroke-dashoffset:0;stroke-opacity:1"/><path d="M724.25957 873.99424h27.39322" style="fill:none;fill-opacity:1;stroke:#222;stroke-width:3.75314;stroke-linecap:round;stroke-linejoin:round;stroke-dasharray:none;stroke-dashoffset:0;stroke-opacity:1"/></g></g><g style="display:inline;stroke-width:.993017"><path d="M696.06846 808.50959h83.88713c11.99268-.41997 11.07138 12.12676 11.07138 12.12676V903.606c0 10.25249-10.68731 10.93573-10.68731 10.93573h-86.10387c-8.19194-.39989-9.50539-9.76067-9.50539-9.76067v-84.15612s-.0749-12.11535 11.33806-12.11535z" style="opacity:1;mix-blend-mode:normal;fill:#c5bd1e;fill-opacity:1;stroke-width:7.50627;stroke-linecap:round;stroke-linejoin:round;stroke-dasharray:7.50627,15.0125" transform="matrix(1.0046673 -.00568682 .00566032 1.0093713 -328.5878 -110.55431)"/><g style="display:inline;stroke-width:.993017" transform="matrix(1.0046673 -.00568682 .00566032 1.0093713 -328.73442318 -112.55505985)"><circle cx="722.94879" cy="854.53064" r="3.4077702" style="fill:#272727;fill-opacity:1;stroke:none;stroke-width:3.75314;stroke-linecap:round;stroke-linejoin:round;stroke-dasharray:none;stroke-dashoffset:0;stroke-opacity:1"/><circle cx="753.09442" cy="854.53064" r="3.4077702" style="fill:#272727;fill-opacity:1;stroke:none;stroke-width:3.75314;stroke-linecap:round;stroke-linejoin:round;stroke-dasharray:none;stroke-dashoffset:0;stroke-opacity:1"/><path d="M724.25957 873.99424h27.39322" style="fill:none;fill-opacity:1;stroke:#222;stroke-width:3.75314;stroke-linecap:round;stroke-linejoin:round;stroke-dasharray:none;stroke-dashoffset:0;stroke-opacity:1"/></g></g></svg>