<svg xmlns="http://www.w3.org/2000/svg" xmlns:xlink="http://www.w3.org/1999/xlink" xml:space="preserve" width="1904" height="1072"><defs><linearGradient id="g"><stop offset="0" style="stop-color:#106e8f;stop-opacity:1"/><stop offset="1" style="stop-color:#106e8f;stop-opacity:0"/></linearGradient><linearGradient id="f"><stop offset="0" style="stop-color:#f5a633;stop-opacity:1"/><stop offset="1" style="stop-color:#f5a633;stop-opacity:0"/></linearGradient><linearGradient id="e"><stop offset="0" style="stop-color:#106e8f;stop-opacity:1"/><stop offset="1" style="stop-color:#106e8f;stop-opacity:0"/></linearGradient><linearGradient id="d"><stop offset="0" style="stop-color:#106e8f;stop-opacity:1"/><stop offset="1" style="stop-color:#106e8f;stop-opacity:0"/></linearGradient><linearGradient id="c"><stop offset="0" style="stop-color:#106e8f;stop-opacity:1"/><stop offset="1" style="stop-color:#106e8f;stop-opacity:0"/></linearGradient><linearGradient id="b"><stop offset="0" style="stop-color:#333;stop-opacity:1"/><stop offset="1" style="stop-color:#106e8f;stop-opacity:0"/></linearGradient><linearGradient id="a"><stop offset="0" style="stop-color:#fff;stop-opacity:1"/><stop offset="1" style="stop-color:#0079b0;stop-opacity:.64735514"/></linearGradient><linearGradient xlink:href="#a" id="j" x1="1361.3392" x2="-227.49654" y1="438.61334" y2="578.75122" gradientTransform="translate(3.343444 .44698322)" gradientUnits="userSpaceOnUse"/><linearGradient xlink:href="#b" id="k" x1="812.04321" x2="307.57263" y1="299.85114" y2="339.74548" gradientUnits="userSpaceOnUse"/><linearGradient xlink:href="#c" id="n" x1="852.65704" x2="481.38269" y1="329.41498" y2="519.60211" gradientUnits="userSpaceOnUse"/><linearGradient xlink:href="#d" id="q" x1="1414.4508" x2="853.53912" y1="515.43146" y2="835.37256" gradientUnits="userSpaceOnUse"/><linearGradient xlink:href="#e" id="r" x1="1102" x2="999" y1="324" y2="548" gradientUnits="userSpaceOnUse"/><linearGradient xlink:href="#f" id="s" x1="1303.9048" x2="869.74133" y1="452.54834" y2="452.54834" gradientUnits="userSpaceOnUse"/><linearGradient xlink:href="#g" id="t" x1="939.03778" x2="91.923882" y1="550.12909" y2="550.12909" gradientTransform="translate(-52.325902)" gradientUnits="userSpaceOnUse"/></defs><g style="display:inline"><g style="display:inline;opacity:.5" transform="translate(5.5448 -.4318)"><path id="h" d="M41.942602 169.08311H1858.8889" style="display:inline;fill:none;fill-opacity:1;stroke:#a4a4a4;stroke-width:1.00157;stroke-linecap:round;stroke-linejoin:round;stroke-dasharray:none;stroke-opacity:1"/><use xlink:href="#h" style="display:inline" transform="translate(0 108.38845)"/><use xlink:href="#h" style="display:inline" transform="translate(0 211.80602)"/><use xlink:href="#h" style="display:inline" transform="translate(0 319.80611)"/><use xlink:href="#h" style="display:inline" transform="translate(0 425.70912)"/><use xlink:href="#h" style="display:inline" transform="translate(0 532.34891)"/><use xlink:href="#h" style="display:inline" transform="translate(0 639.11526)"/><use xlink:href="#h" style="display:inline" transform="translate(0 745.88162)"/></g><g style="display:inline;opacity:.5;stroke-width:.896677" transform="matrix(1 0 0 1.2437367 2.373227 -67.22646)"><path id="i" d="M897.60883 58.7185v859.8066" style="fill:none;fill-opacity:1;stroke:#a4a4a4;stroke-width:.898084;stroke-linecap:round;stroke-linejoin:round;stroke-dasharray:none;stroke-opacity:1"/><use xlink:href="#i" style="stroke-width:.896677" transform="translate(106.94548)"/><use xlink:href="#i" style="stroke-width:.896677" transform="translate(213.89096)"/><use xlink:href="#i" style="stroke-width:.896677" transform="translate(320.83645)"/><use xlink:href="#i" style="stroke-width:.896677" transform="translate(427.78193)"/><use xlink:href="#i" style="stroke-width:.896677" transform="translate(534.72742)"/><use xlink:href="#i" style="stroke-width:.896677" transform="translate(641.6729)"/><use xlink:href="#i" style="stroke-width:.896677" transform="translate(748.61839)"/><use xlink:href="#i" style="stroke-width:.896677" transform="translate(855.56387)"/><use xlink:href="#i" style="stroke-width:.896677" transform="translate(-106.94549)"/><use xlink:href="#i" style="stroke-width:.896677" transform="translate(-213.89097)"/><use xlink:href="#i" style="stroke-width:.896677" transform="translate(-320.83646)"/><use xlink:href="#i" style="stroke-width:.896677" transform="translate(-427.78194)"/><use xlink:href="#i" style="stroke-width:.896677" transform="translate(-534.72743)"/><use xlink:href="#i" style="stroke-width:.896677" transform="translate(-641.67291)"/></g><path d="M0 .25v1073.1387h144V1074h1759.8787V.25Zm152.73438 60.869141H1859V594.23242h-520.8438c-6.9248 0-12.5 5.575-12.5 12.5v81.75c0 6.925 5.5752 12.5 12.5 12.5H1432v320.08008H792V700.98242h96.25c6.925 0 12.5-5.575 12.5-12.5v-81.75c0-6.925-5.575-12.5-12.5-12.5H152.73438Z" style="fill:#6d9bb1;fill-opacity:1;stroke-width:15.118;stroke-linecap:round;stroke-linejoin:round;stroke-dasharray:15.118,30.236"/><rect width="106.06602" height="321.02649" x="258.80109" y="168.29141" ry="9.152071" style="display:inline;fill:#6d9bb1;fill-opacity:1;stroke-width:15.118;stroke-linecap:round;stroke-linejoin:round;stroke-dasharray:15.118,30.236"/><g style="display:inline"><path d="M696.06869 808.50952c-11.41296 0-11.33789 12.11524-11.33789 12.11524v84.15625s1.31196 9.35988 9.5039 9.75976c134.63713-1.4743 269.22128-.30192 403.8574 0 0 0 10.6875-.68305 10.6875-10.93554v-82.96875s.9204-12.54693-11.0722-12.12696c-134.10074 1.73512-267.57262 1.41277-401.63871 0z" style="opacity:1;mix-blend-mode:normal;fill:#0079b0;fill-opacity:1;stroke-width:7.55906;stroke-linecap:round;stroke-linejoin:round;stroke-dasharray:7.55906,15.1181" transform="translate(644.74408 -533.74921)"/><g style="display:inline" transform="translate(803.48582 -535.7318085)"><circle cx="722.94879" cy="854.53064" r="3.4077702" style="fill:#272727;fill-opacity:1;stroke:none;stroke-width:3.77953;stroke-linecap:round;stroke-linejoin:round;stroke-dasharray:none;stroke-dashoffset:0;stroke-opacity:1"/><circle cx="753.09442" cy="854.53064" r="3.4077702" style="fill:#272727;fill-opacity:1;stroke:none;stroke-width:3.77953;stroke-linecap:round;stroke-linejoin:round;stroke-dasharray:none;stroke-dashoffset:0;stroke-opacity:1"/><path d="M724.25957 873.99424h27.39322" style="fill:none;fill-opacity:1;stroke:#222;stroke-width:3.77953;stroke-linecap:round;stroke-linejoin:round;stroke-dasharray:none;stroke-dashoffset:0;stroke-opacity:1"/></g></g><g style="display:inline;stroke-width:.983775"><path d="M696.06896 808.51037c-11.41296 0-11.33789 12.11523-11.33789 12.11523v84.15625s1.31196 9.35988 9.5039 9.75977c64.12927-1.60024 127.71801 0 192.00782 0 0 0 10.6875-.68306 10.6875-10.93555v-82.96875s.92041-12.54692-11.07227-12.12695c-63.38173 1.61209-126.3185.00057-189.78906 0z" style="opacity:1;mix-blend-mode:normal;fill:#f5a633;fill-opacity:1;stroke-width:7.43642;stroke-linecap:round;stroke-linejoin:round;stroke-dasharray:7.43642,14.8728" transform="translate(738.51607 -441.55894) scale(1.0164927)"/><g style="display:inline;stroke-width:.983775" transform="translate(792.20437128 -443.5742369) scale(1.0164927)"><circle cx="722.94879" cy="854.53064" r="3.4077702" style="fill:#272727;fill-opacity:1;stroke:none;stroke-width:3.7182;stroke-linecap:round;stroke-linejoin:round;stroke-dasharray:none;stroke-dashoffset:0;stroke-opacity:1"/><circle cx="753.09442" cy="854.53064" r="3.4077702" style="fill:#272727;fill-opacity:1;stroke:none;stroke-width:3.7182;stroke-linecap:round;stroke-linejoin:round;stroke-dasharray:none;stroke-dashoffset:0;stroke-opacity:1"/><path d="M724.25957 873.99424h27.39322" style="fill:none;fill-opacity:1;stroke:#222;stroke-width:3.7182;stroke-linecap:round;stroke-linejoin:round;stroke-dasharray:none;stroke-dashoffset:0;stroke-opacity:1"/></g></g><g style="display:inline;opacity:.269"><path d="M781.04163 701.98354c-.34997-.0115-.71116-.0113-1.08594.002h-83.88671c-11.41296 0-11.3379 12.25943-11.3379 12.25943.90943 63.48637 0 190.41921 0 190.41921s1.31197 9.47324 9.50391 9.87789h86.10547s10.68555-.69118 10.68555-11.06569c-1.00839-63.12207 0-126.04049 0-189.21956 0 0 .86472-11.91493-9.98438-12.27325z" style="opacity:1;mix-blend-mode:normal;fill:#0079b0;fill-opacity:1;stroke-width:7.55906;stroke-linecap:round;stroke-linejoin:round;stroke-dasharray:7.55906,15.1181" transform="translate(-105.73107 -320.47517)"/><g style="display:inline" transform="translate(-105.86584013 -373.763399)"><circle cx="722.94879" cy="854.53064" r="3.4077702" style="fill:#272727;fill-opacity:1;stroke:none;stroke-width:3.77953;stroke-linecap:round;stroke-linejoin:round;stroke-dasharray:none;stroke-dashoffset:0;stroke-opacity:1"/><circle cx="753.09442" cy="854.53064" r="3.4077702" style="fill:#272727;fill-opacity:1;stroke:none;stroke-width:3.77953;stroke-linecap:round;stroke-linejoin:round;stroke-dasharray:none;stroke-dashoffset:0;stroke-opacity:1"/><path d="M724.25957 873.99424h27.39322" style="fill:none;fill-opacity:1;stroke:#222;stroke-width:3.77953;stroke-linecap:round;stroke-linejoin:round;stroke-dasharray:none;stroke-dashoffset:0;stroke-opacity:1"/></g></g><g style="display:inline;opacity:.276"><path d="M696.06846 808.50959h83.88713c11.99268-.41997 11.07138 12.12676 11.07138 12.12676V903.606c0 10.25249-10.68731 10.93573-10.68731 10.93573h-86.10387c-8.19194-.39989-9.50539-9.76067-9.50539-9.76067v-84.15612s-.0749-12.11535 11.33806-12.11535z" style="opacity:1;mix-blend-mode:normal;fill:#e54b3d;fill-opacity:1;stroke-width:7.55906;stroke-linecap:round;stroke-linejoin:round;stroke-dasharray:7.55906,15.1181" transform="translate(-105.23039 -532.99928)"/><g style="display:inline" transform="translate(-105.36516013 -534.9822136)"><circle cx="722.94879" cy="854.53064" r="3.4077702" style="fill:#272727;fill-opacity:1;stroke:none;stroke-width:3.77953;stroke-linecap:round;stroke-linejoin:round;stroke-dasharray:none;stroke-dashoffset:0;stroke-opacity:1"/><circle cx="753.09442" cy="854.53064" r="3.4077702" style="fill:#272727;fill-opacity:1;stroke:none;stroke-width:3.77953;stroke-linecap:round;stroke-linejoin:round;stroke-dasharray:none;stroke-dashoffset:0;stroke-opacity:1"/><path d="M724.25957 873.99424h27.39322" style="fill:none;fill-opacity:1;stroke:#222;stroke-width:3.77953;stroke-linecap:round;stroke-linejoin:round;stroke-dasharray:none;stroke-dashoffset:0;stroke-opacity:1"/></g></g><g style="display:inline"><path d="M696.06846 808.50959h83.88713c11.99268-.41997 11.07138 12.12676 11.07138 12.12676V903.606c0 10.25249-10.68731 10.93573-10.68731 10.93573h-86.10387c-8.19194-.39989-9.50539-9.76067-9.50539-9.76067v-84.15612s-.0749-12.11535 11.33806-12.11535z" style="opacity:1;mix-blend-mode:normal;fill:#0079b0;fill-opacity:1;stroke-width:7.55906;stroke-linecap:round;stroke-linejoin:round;stroke-dasharray:7.55906,15.1181" transform="translate(-532.23036 -320.49928)"/><g style="display:inline" transform="translate(-532.36513013 -322.4822136)"><circle cx="722.94879" cy="854.53064" r="3.4077702" style="fill:#272727;fill-opacity:1;stroke:none;stroke-width:3.77953;stroke-linecap:round;stroke-linejoin:round;stroke-dasharray:none;stroke-dashoffset:0;stroke-opacity:1"/><circle cx="753.09442" cy="854.53064" r="3.4077702" style="fill:#272727;fill-opacity:1;stroke:none;stroke-width:3.77953;stroke-linecap:round;stroke-linejoin:round;stroke-dasharray:none;stroke-dashoffset:0;stroke-opacity:1"/><path d="M724.25957 873.99424h27.39322" style="fill:none;fill-opacity:1;stroke:#222;stroke-width:3.77953;stroke-linecap:round;stroke-linejoin:round;stroke-dasharray:none;stroke-dashoffset:0;stroke-opacity:1"/></g></g><g style="display:inline;stroke-width:.990681"><path d="M696.06846 808.50959h83.88713c11.99268-.41997 11.07138 12.12676 11.07138 12.12676V903.606c0 10.25249-10.68731 10.93573-10.68731 10.93573h-86.10387c-8.19194-.39989-9.50539-9.76067-9.50539-9.76067v-84.15612s-.0749-12.11535 11.33806-12.11535z" style="opacity:1;mix-blend-mode:normal;fill:#0079b0;fill-opacity:1;stroke-width:7.48862;stroke-linecap:round;stroke-linejoin:round;stroke-dasharray:7.48862,14.9772" transform="translate(743.5789 -328.4656) scale(1.0094062)"/><g style="display:inline;stroke-width:.990681" transform="translate(743.4428622 -330.46718547) scale(1.0094062)"><circle cx="722.94879" cy="854.53064" r="3.4077702" style="fill:#272727;fill-opacity:1;stroke:none;stroke-width:3.74431;stroke-linecap:round;stroke-linejoin:round;stroke-dasharray:none;stroke-dashoffset:0;stroke-opacity:1"/><circle cx="753.09442" cy="854.53064" r="3.4077702" style="fill:#272727;fill-opacity:1;stroke:none;stroke-width:3.74431;stroke-linecap:round;stroke-linejoin:round;stroke-dasharray:none;stroke-dashoffset:0;stroke-opacity:1"/><path d="M724.25957 873.99424h27.39322" style="fill:none;fill-opacity:1;stroke:#222;stroke-width:3.74431;stroke-linecap:round;stroke-linejoin:round;stroke-dasharray:none;stroke-dashoffset:0;stroke-opacity:1"/></g></g></g><g style="display:inline"><path d="M1328.2832 307.58984c-137.5562 3.10329-332.04779 21.18744-462.09765 62.35938-83.70476 26.49975-155.64911 71.28467-229.03516 108.96094-84.65057 43.45947-184.61899 40.35985-284.73828 40.99218l-.0156-27.79687-74.64062 46.32812 74.68945 43.12305-.0137-23.31055H1435.207v-38.17382H639.35352c60.57403-27.32496 145.18618-84.23501 238.35351-113.73047 122.26813-38.70837 315.64267-57.3856 450.57617-60.55664Z" style="display:inline;opacity:.759;fill:url(#j);fill-opacity:1;stroke-linecap:square"/><text xml:space="preserve" x="640.45007" y="191.05005" style="font-weight:700;font-size:110px;line-height:1;font-family:&quot;Corporate Logo ver2&quot;;-inkscape-font-specification:&quot;Corporate Logo ver2 Bold&quot;;text-align:start;letter-spacing:0;word-spacing:0;writing-mode:lr-tb;direction:ltr;text-anchor:start;display:inline;fill:#eee;fill-opacity:1;stroke:none;stroke-width:37.7953;stroke-linecap:square;stroke-linejoin:miter;stroke-dasharray:none;stroke-opacity:1"><tspan x="640.45007" y="191.05005" style="fill:#eee;fill-opacity:1">どっちかとくっつける</tspan></text><path d="M212.97852 613.23828a6.8618516 6.8618516 0 0 0-5.70899 3.05469c-2.77777 4.16664-6.18098 8.49923-10.21875 12.97265-.003.003-.005.007-.008.01-4.00481 4.37097-7.96061 8.07348-11.83985 11.11719a6.8618516 6.8618516 0 0 0-1.79882 8.66797l5.66406 10.45312a6.8618516 6.8618516 0 0 0 9.91406 2.38867c.43726-.29983.8405-.71822 1.27344-1.0332v49.58984a6.8618516 6.8618516 0 0 0 6.86133 6.86133h11.72265a6.8618516 6.8618516 0 0 0 6.86133-6.86133v-49.58984c.43308.31517.83586.73315 1.27344 1.0332a6.8618516 6.8618516 0 0 0 9.91211-2.38867l5.66601-10.45312a6.8618516 6.8618516 0 0 0-1.79687-8.66797c-3.87923-3.04371-7.83503-6.74621-11.83984-11.11719l-.008-.01c-4.03847-4.4742-7.44371-8.80716-10.2207-12.97265a6.8618516 6.8618516 0 0 0-5.70898-3.05469zm-102.69336 97.14453c-5.04628 1.04619-11.337208 2.00232-18.804691 2.83203a6.8618516 6.8618516 0 0 0-.0059 0c-7.394994.82876-14.856119 1.4017-22.384765 1.72071a6.8618516 6.8618516 0 0 0-5.904297 9.80468c.448584.94203.96633 2.29662 1.478515 4.00391.0053.0178.0045.0233.0098.041a6.8618516 6.8618516 0 0 0-1.958984 4.72851v10.06055a6.8618516 6.8618516 0 0 0 2.34375 4.99023v28.51758a6.8618516 6.8618516 0 0 0 .330078.79883 6.8618516 6.8618516 0 0 0-.720703 1.74023v9.86719a6.8618516 6.8618516 0 0 0 .142578.3418 6.8618516 6.8618516 0 0 0-2.816406 5.93554l1.5625 11.72266a6.8618516 6.8618516 0 0 0 7.382812 5.92969c13.345799-1.13708 25.964866-2.30741 38.166017-3.5 1.4011 1.59358 2.52303 3.01398 3.0293 3.91992a6.8618516 6.8618516 0 0 0 10.30859 1.98438c1.93745-1.56958 3.70263-3.28733 5.38672-5.07032a6.8618516 6.8618516 0 0 0 6.51172 5.72071h3.81054c4.0747 0 7.14658-.14065 9.93555-.73829a6.8618516 6.8618516 0 0 0 .17188-.0391c2.42845-.58618 4.68587-1.42659 6.74414-2.72656 2.35167-1.48527 4.09156-3.47595 5.61132-5.74414 2.37064-3.43423 2.9065-6.83261 3.48047-11.3457.64161-4.50627 1.09574-10.45425 1.42578-18.11133a6.8618516 6.8618516 0 0 0 0-.002c.33013-7.72496.62179-18.73084.88282-33.08789a6.8618516 6.8618516 0 0 0 0-.0137l.0976-6.05664a6.8618516 6.8618516 0 0 0-6.85937-6.97265h-12.44727c.0278-3.84811.0645-7.06986.0645-12.96875a6.8618516 6.8618516 0 0 0-6.86133-6.86133h-13.57813a6.8618516 6.8618516 0 0 0-6.64648 6.34375l-2.53516-4.44532a6.8618516 6.8618516 0 0 0-7.35351-3.32031zm153.68554 10.60352a6.8618516 6.8618516 0 0 0-6.86133 6.86133c0-1.13443.0331-.67255.0352-.69141.002-.0189.00009.0129-.006.0606-.0119.0952-.0352.27165-.0664.50586-.0625.4684-.15955 1.17817-.28907 2.11718a6.8618516 6.8618516 0 0 0-.0273.23243c-.0269.26002-.12484.78154-.16016 1.07421h-6.39843a6.8618516 6.8618516 0 0 0-6.86133 6.86133v1.24414a6.8618516 6.8618516 0 0 0-3.29688-1.36523h-3.78711v-9.7461a6.8618516 6.8618516 0 0 0-6.86133-6.86132h-14.65234a6.8618516 6.8618516 0 0 0-6.86133 6.86132v9.7461h-10.26953c.25827-2.22058.37212-3.90232.68555-6.32617a6.8618516 6.8618516 0 0 0-6.80469-7.74219h-14.65234a6.8618516 6.8618516 0 0 0-6.80274 5.97461c-.98777 7.57293-1.71952 14.25396-2.1875 20.07031-.46979 5.83885-.73607 11.92279-.80273 18.25586a6.8618516 6.8618516 0 0 0 0 .14063c.0667 6.67502.36831 12.97913.9082 18.91796a6.8618516 6.8618516 0 0 0 0 .008c.53448 5.81237 1.33087 12.42603 2.38477 19.86914a6.8618516 6.8618516 0 0 0 6.79297 5.90039h15.04296a6.8618516 6.8618516 0 0 0 4.68555-1.94336 6.8618516 6.8618516 0 0 0 5.96289 4.48437h16.21485a6.8618516 6.8618516 0 0 0 5.42382-2.66015c4.07913-5.26579 7.07849-11.09308 8.88477-17.33985a6.8618516 6.8618516 0 0 0 .006-.0215c1.78697-6.25438 2.69521-13.55626 2.90039-22.03711a6.8618516 6.8618516 0 0 0 .002-.16602v-6.71679h3.78711a6.8618516 6.8618516 0 0 0 6.86133-6.86133v-1.43945a6.8618516 6.8618516 0 0 0 3.29688 1.36523h1.05664c-1.67174 7.10954-4.11555 16.66595-8.15039 31.04297a6.8618516 6.8618516 0 0 0 6.60546 8.71484h13.91407c.70541 2.66663 1.79738 5.13524 3.39648 7.33399a6.8618516 6.8618516 0 0 0 .0606.082c2.81244 3.74994 6.52512 6.68782 10.82617 8.27734a6.8618516 6.8618516 0 0 0 .0449.0156c3.80016 1.37452 7.77992 2.00865 11.75977 1.86133 3.19621-.0186 6.3737-.63508 9.38867-1.79688 3.86842-1.41955 7.04571-4.27873 9.27734-7.73242 1.91662-2.84329 2.72788-6.17006 3.17578-9.70313l1.39063.95118a6.8618516 6.8618516 0 0 0 10.73633-5.66211v-15.92188a6.8618516 6.8618516 0 0 0-2.00977-4.85156c-.92208-.92208-1.04213-.86478-1.25-.99805-.20786-.13326-.35145-.21685-.49805-.30078-.29318-.16785-.58044-.32177-.92968-.50586-.6651-.35058-1.5674-.80931-2.68164-1.36719l-.004-.002c-1.29486-.68327-2.83799-1.22375-4.25-1.83789v-7.83203c.15763.009.46074.0139.60938.0234a6.8618516 6.8618516 0 0 0 .0137 0c1.04421.0653 1.83547.11343 2.38086.14648.27269.0165.48338.0301.64062.0391.15725.009-.52967.0234.62891.0234a6.8618516 6.8618516 0 0 0 6.86133-6.86133V737.7149a6.8618516 6.8618516 0 0 0-2.00977-4.85156c-1.72071-1.72044-2.28557-1.52938-2.70703-1.66992-.42146-.14054-.63672-.18308-.81641-.2207-.35937-.0752-.53958-.0962-.71875-.11914-.35832-.0459-.64852-.0706-1.00586-.0996-.71466-.058-1.63386-.11682-2.83593-.1836-2.47396-.13744-5.54055-.23657-9.24414-.30273h-.002c-3.87897-.0704-7.91844.10772-12.125.52148a6.8618516 6.8618516 0 0 0-1.89258.95508 6.8618516 6.8618516 0 0 0-1.4414-.59766h-4.33594c.15884-.90162.146-1.01493.33789-2.05664a6.8618516 6.8618516 0 0 0-6.74805-8.10351zm68.67383 3.61523a6.8618516 6.8618516 0 0 0-6.86133 6.86133c0-1.07726-.0107.22388-.043 1.01367-.0322.7898-.0814 1.95212-.14648 3.48047a6.8618516 6.8618516 0 0 0-.004.14453c-.0647 3.03926-.16296 6.9367-.29297 11.68164a6.8618516 6.8618516 0 0 0-.002.0918c-.0652 4.69206-.13016 9.61245-.19531 14.75977a6.8618516 6.8618516 0 0 0 0 .0859v13.87305c0 10.83573 1.26531 19.40666 4.93945 26.14258a6.8618516 6.8618516 0 0 0 .0527.0937c3.82142 6.75416 11.48628 10.82347 19.2207 10.20117a6.8618516 6.8618516 0 0 0 .25-.0254c3.94555-.46419 7.60624-1.45729 10.88477-3.13281 2.73807-1.30593 5.03586-2.62667 7.02148-4.31446a6.8618516 6.8618516 0 0 0 .0215-.0195c.66339-.56862 1.16425-.98843 1.44336-1.21679.13956-.11419.23442-.18704.18555-.1504-.0244.0183-.0693.0567-.29102.19922-.11087.0713-.25273.16843-.60742.34571-.35468.17727-.4806.71679-3.04687.71679a6.8618516 6.8618516 0 0 0 6.86133-6.86132v-16.21485a6.8618516 6.8618516 0 0 0-9.92969-6.13672c-1.55891.77952-1.01362.60972-1.21485.75586-.20122.14614-.41073.3031-.66796.49805-.4863.36853-1.15846.88849-1.98047 1.52734-1.30437.9655-2.97157 2.02102-4.76953 3.09961-.25011-2.52004-.48633-5.21356-.48633-9.12304.0642-3.92277.1292-8.18992.19336-12.80469.00039-.0144.002-.0266.002-.041.00026-.0183-.00025-.0325 0-.0508.12921-4.71294.25758-9.20511.38672-13.4668.12949-4.27317.25943-7.75872.38672-10.43164a6.8618516 6.8618516 0 0 0 0-.008c.0652-1.40263.11353-2.47157.14648-3.21289.0329-.74131.0566-.29446.0566-1.5a6.8618516 6.8618516 0 0 0-6.86133-6.86133zm39.36719 0a6.8618516 6.8618516 0 0 0-6.4668 9.1543c1.66281 4.69149 3.00756 10.05881 3.99414 16.10156a6.8618516 6.8618516 0 0 0 .0137.0781c1.07334 6.1244 1.89354 12.3497 2.46289 18.67578.57073 6.34136.85157 12.13378.85157 17.35937a6.8618516 6.8618516 0 0 0 0 .082c.0647 5.43607.0502 9.02762.008 9.96094a6.8618516 6.8618516 0 0 0-.008.3125v2.2461a6.8618516 6.8618516 0 0 0 6.86133 6.86132h14.75195a6.8618516 6.8618516 0 0 0 6.86133-6.78125c.19748-16.78582-.30461-29.69318-1.63086-39.12304-.00056-.004.00056-.008 0-.0117-1.18891-8.97232-2.4436-16.17425-3.84571-21.78711l-.004-.0195c-.65148-2.63829-1.15133-4.62811-1.50586-5.99414-.17784-.68522-.31705-1.20626-.43945-1.63672-.0612-.21523-.10925-.39065-.20118-.66602-.046-.13768-.086-.27453-.24609-.64453-.08-.185-.15576-.40464-.50391-.95703-.17407-.27619-.38741-.64333-1.01953-1.25977-.31605-.30821-1.47988-1.09928-1.48047-1.09961-.00058-.00032-3.31199-.85156-3.3125-.85156zm-268.87891 28.47656 3 3-3 3.00391-3.0039-3.00391zM85.5 753.125l2.953125 2.95312L85.5 759.03125l-2.953125-2.95313Zm193.55078 6.49414h6.55274l.0117 3.61719c-2.83495.3915-5.49661 1.18978-7.98828 2.31445.56975-2.4496.75086-3.00151 1.42383-5.93164zm-175.91797 4.39648 3.00196 3.00391-3.00196 3.00391-3.0039-3.00391zM85.5 764.06641l2.953125 2.95312L85.5 769.97266l-2.955078-2.95313Zm109.97852 2.48828h12.39843v6.4375c-.0591 4.78872-.62159 8.9953-1.61523 12.63867-1.10314 4.04483-2.27635 7.41118-3.45313 10.04492-.8665 1.93931-2.34218 4.33902-4.17382 6.94922-.95277-6.40557-1.77305-12.39535-2.27344-17.34375-.56157-5.55325-.87463-11.38434-.93946-17.48438.005-.4265.0497-.81754.0566-1.24218zm-59.0625 32.26562-.0274.0547c.005-.01.008-.0213.0137-.0312.004-.008.009-.0154.0137-.0234z" style="font-weight:700;font-size:97.686px;line-height:1;font-family:&quot;Corporate Logo ver2&quot;;-inkscape-font-specification:&quot;Corporate Logo ver2 Bold&quot;;text-align:start;letter-spacing:0;word-spacing:0;writing-mode:lr-tb;direction:ltr;text-anchor:start;display:inline;fill:#111;fill-opacity:1;stroke:none;stroke-width:37.7953;stroke-linecap:square;stroke-linejoin:miter;stroke-dasharray:none;stroke-opacity:1"/><text xml:space="preserve" x="66.450073" y="702.64471" style="font-weight:700;font-size:97.686px;line-height:1;font-family:&quot;Corporate Logo ver2&quot;;-inkscape-font-specification:&quot;Corporate Logo ver2 Bold&quot;;text-align:start;letter-spacing:0;word-spacing:0;writing-mode:lr-tb;direction:ltr;text-anchor:start;display:inline;fill:#eee;fill-opacity:.933333;stroke:none;stroke-width:37.7953;stroke-linecap:square;stroke-linejoin:miter;stroke-dasharray:none;stroke-opacity:1"><tspan x="66.450073" y="702.64471" style="fill:#eee;fill-opacity:.933333;stroke-width:37.7953">　↑</tspan><tspan x="66.450073" y="800.33069" style="fill:#eee;fill-opacity:.933333;stroke-width:37.7953">動けない</tspan></text></g></svg>