<svg xmlns="http://www.w3.org/2000/svg" xmlns:xlink="http://www.w3.org/1999/xlink" xml:space="preserve" width="1274.6953" height="921.90076"><defs><linearGradient id="k"><stop offset="0" style="stop-color:#f5a633;stop-opacity:.2"/><stop offset="1" style="stop-color:#f5a633;stop-opacity:0"/></linearGradient><linearGradient id="j"><stop offset="0" style="stop-color:#4294dd;stop-opacity:1"/><stop offset="1" style="stop-color:#4294dd;stop-opacity:0"/></linearGradient><linearGradient id="i"><stop offset="0" style="stop-color:#4294dd;stop-opacity:1"/><stop offset="1" style="stop-color:#4294dd;stop-opacity:0"/></linearGradient><linearGradient id="f"><stop offset="0" style="stop-color:#4294dd;stop-opacity:1"/><stop offset="1" style="stop-color:#4294dd;stop-opacity:0"/></linearGradient><linearGradient id="e"><stop offset="0" style="stop-color:#4294dd;stop-opacity:1"/><stop offset="1" style="stop-color:#4294dd;stop-opacity:0"/></linearGradient><linearGradient id="b"><stop offset="0" style="stop-color:#f5a633;stop-opacity:1"/><stop offset="1" style="stop-color:#f5a633;stop-opacity:0"/></linearGradient><linearGradient id="p"><stop offset="0" style="stop-color:#4294dd;stop-opacity:1"/><stop offset="1" style="stop-color:#4294dd;stop-opacity:0"/></linearGradient><linearGradient id="o"><stop offset="0" style="stop-color:#4294dd;stop-opacity:1"/><stop offset="1" style="stop-color:#4294dd;stop-opacity:0"/></linearGradient><linearGradient id="n"><stop offset="0" style="stop-color:#4294dd;stop-opacity:1"/><stop offset="1" style="stop-color:#4294dd;stop-opacity:0"/></linearGradient><linearGradient id="l"><stop offset="0" style="stop-color:#f55948;stop-opacity:1"/><stop offset="1" style="stop-color:#f55948;stop-opacity:0"/></linearGradient><linearGradient id="m"><stop offset="0" style="stop-color:#f5a633;stop-opacity:1"/><stop offset="1" style="stop-color:#f5a633;stop-opacity:0"/></linearGradient><linearGradient id="h"><stop offset="0" style="stop-color:#4294dd;stop-opacity:1"/><stop offset="1" style="stop-color:#4678a6;stop-opacity:0"/></linearGradient><linearGradient id="g"><stop offset="0" style="stop-color:#f55948;stop-opacity:1"/><stop offset="1" style="stop-color:#f55948;stop-opacity:0"/></linearGradient><linearGradient id="d"><stop offset="0" style="stop-color:#4294dd;stop-opacity:1"/><stop offset="1" style="stop-color:#3f74a3;stop-opacity:0"/></linearGradient><linearGradient id="c"><stop offset="0" style="stop-color:#f55948;stop-opacity:1"/><stop offset="1" style="stop-color:#faa79e;stop-opacity:0"/></linearGradient><linearGradient id="a"><stop offset="0" style="stop-color:#f5a633;stop-opacity:1"/><stop offset="1" style="stop-color:#f8bf6d;stop-opacity:0"/></linearGradient><linearGradient xlink:href="#o" id="q" x1="994" x2="1216" y1="618" y2="340" gradientUnits="userSpaceOnUse"/><linearGradient xlink:href="#p" id="r" x1="988.61438" x2="1219.1312" y1="551.54333" y2="326.68332" gradientUnits="userSpaceOnUse"/></defs><g style="display:inline"><g style="display:inline"><g style="display:inline;opacity:.207;stroke-width:.996339"><path d="M781.04163 704.48342c-.34997-.0114-.71116-.0112-1.08594.002h-83.88671c-11.41296 0-11.3379 12.11524-11.3379 12.11524.90943 62.73971 0 188.17969 0 188.17969s1.31197 9.36182 9.50391 9.76171h86.10547s10.68555-.68305 10.68555-10.93554c-1.00839-62.37969 0-124.55813 0-186.99414 0 0 .86472-11.7748-9.98438-12.12891z" style="opacity:1;mix-blend-mode:normal;fill:#f55948;fill-opacity:1;stroke-width:7.53139;stroke-linecap:round;stroke-linejoin:round;stroke-dasharray:7.53139,15.0628" transform="matrix(1.0073623 0 0 1 -666.09262 -37.54712)"/><g style="display:inline;stroke-width:.996339" transform="matrix(1.0073623 0 0 1 -666.22838235 -90.835349)"><circle cx="722.94879" cy="854.53064" r="3.4077702" style="fill:#272727;fill-opacity:1;stroke:none;stroke-width:3.76569;stroke-linecap:round;stroke-linejoin:round;stroke-dasharray:none;stroke-dashoffset:0;stroke-opacity:1"/><circle cx="753.09442" cy="854.53064" r="3.4077702" style="fill:#272727;fill-opacity:1;stroke:none;stroke-width:3.76569;stroke-linecap:round;stroke-linejoin:round;stroke-dasharray:none;stroke-dashoffset:0;stroke-opacity:1"/><path d="M724.25957 873.99424h27.39322" style="fill:none;fill-opacity:1;stroke:#222;stroke-width:3.76569;stroke-linecap:round;stroke-linejoin:round;stroke-dasharray:none;stroke-dashoffset:0;stroke-opacity:1"/></g></g><g style="display:inline;opacity:.207;stroke-width:.996339"><path d="M781.04163 704.48342c-.34997-.0114-.71116-.0112-1.08594.002h-83.88671c-11.41296 0-11.3379 12.11524-11.3379 12.11524.90943 62.73971 0 188.17969 0 188.17969s1.31197 9.36182 9.50391 9.76171h86.10547s10.68555-.68305 10.68555-10.93554c-1.00839-62.37969 0-124.55813 0-186.99414 0 0 .86472-11.7748-9.98438-12.12891z" style="opacity:1;mix-blend-mode:normal;fill:#f55948;fill-opacity:1;stroke-width:7.53139;stroke-linecap:round;stroke-linejoin:round;stroke-dasharray:7.53139,15.0628" transform="matrix(1.0073623 0 0 1 -30.40363 -37.54712)"/><g style="display:inline;stroke-width:.996339" transform="matrix(1.0073623 0 0 1 -30.53939235 -90.835349)"><circle cx="722.94879" cy="854.53064" r="3.4077702" style="fill:#272727;fill-opacity:1;stroke:none;stroke-width:3.76569;stroke-linecap:round;stroke-linejoin:round;stroke-dasharray:none;stroke-dashoffset:0;stroke-opacity:1"/><circle cx="753.09442" cy="854.53064" r="3.4077702" style="fill:#272727;fill-opacity:1;stroke:none;stroke-width:3.76569;stroke-linecap:round;stroke-linejoin:round;stroke-dasharray:none;stroke-dashoffset:0;stroke-opacity:1"/><path d="M724.25957 873.99424h27.39322" style="fill:none;fill-opacity:1;stroke:#222;stroke-width:3.76569;stroke-linecap:round;stroke-linejoin:round;stroke-dasharray:none;stroke-dashoffset:0;stroke-opacity:1"/></g></g><g style="display:inline;mix-blend-mode:normal"><g style="display:inline;opacity:.5;stroke-width:1.21082"><path d="M41.942602 169.08311H1858.8889M41.942602 277.47156H1858.8889M41.942602 380.88913H1858.8889M41.942602 488.88922H1858.8889M41.942602 594.79223H1858.8889M41.942602 701.43202H1858.8889M41.942602 808.19837H1858.8889M41.942602 914.96473H1858.8889" style="display:inline;fill:none;fill-opacity:1;stroke:#a4a4a4;stroke-width:1.21272;stroke-linecap:round;stroke-linejoin:round;stroke-dasharray:none;stroke-opacity:1" transform="matrix(.68208847 0 0 1 -9.57192 -141.5660261)"/></g><g style="display:inline;opacity:.5;stroke-width:.895884"><path d="M904.96232 186.06212v713.14085M1117.3303 186.06212v713.14085M1223.5143 186.06212v713.14085M1329.6983 186.06212v713.14085M1435.8823 186.06212v713.14085M1542.0662 186.06212v713.14085M798.77833 186.06212v713.14085M692.59435 186.06212v713.14085M586.41036 186.06212v713.14085M480.22637 186.06212v713.14085" style="fill:none;fill-opacity:1;stroke:#a4a4a4;stroke-width:.897291;stroke-linecap:round;stroke-linejoin:round;stroke-dasharray:none;stroke-opacity:1" transform="matrix(1.0017698 0 0 1.2437367 -352.3493524 -210.1284501)"/></g></g><path d="M765.10156 145.10156v921.79684c424.89844.4475 849.79724-.7414 1274.69534 0V145.10156Zm37.79688 37.79688h583.20316v625.79883h-165.2344c-3.2531 0-5.8731 2.61993-5.8731 5.87304v101.11133h-106.0097V814.57031c0-3.25311-2.4988-5.87304-5.752-5.87304h-94.6504c-3.2531 0-5.8711 2.61993-5.8711 5.87304v207.67379H802.89844Zm620.99996 0h578.1036v625.79883h-145.4454c-3.2531 0-5.873 2.61993-5.873 5.87304v101.11133h-106.0098V814.57031c0-3.25311-2.4987-5.87304-5.7519-5.87304h-94.6504c-3.2531 0-5.8711 2.61993-5.8711 5.87304v207.67379h-214.502zm-198.291 202.39453c-7.5582 0-13.6426 6.08431-13.6426 13.64258v81.60937c0 7.55827 6.0844 13.64258 13.6426 13.64258h80.5488c7.5583 0 13.6426-6.08431 13.6426-13.64258v-81.60937c0-7.55827-6.0843-13.64258-13.6426-13.64258zm639.2246 0c-7.5582 0-13.6425 6.08431-13.6425 13.64258v81.60937c0 7.55827 6.0843 13.64258 13.6425 13.64258h80.5469c7.5583 0 13.6445-6.08431 13.6445-13.64258v-81.60937c0-7.55827-6.0862-13.64258-13.6445-13.64258z" style="display:inline;fill:#a6a09c;fill-opacity:1;stroke:none;stroke-width:5;stroke-linecap:square;stroke-linejoin:round;stroke-dasharray:none" transform="translate(-765.10156 -145.10156)"/><g style="display:inline;stroke-width:.993117"><path d="M696.06896 808.51037c-11.41296 0-11.33789 12.11523-11.33789 12.11523v84.15625s1.31196 9.35988 9.5039 9.75977c64.12927-1.60024 127.71801 0 192.00782 0 0 0 10.6875-.68306 10.6875-10.93555v-82.96875s.92041-12.54692-11.07227-12.12695c-63.38173 1.61209-126.3185.00057-189.78906 0z" style="opacity:1;mix-blend-mode:normal;fill:#4294dd;fill-opacity:1;stroke-width:7.50703;stroke-linecap:round;stroke-linejoin:round;stroke-dasharray:7.50703,15.014" transform="matrix(1.013909 0 0 1 -353.56499 -250.54047)"/><g style="display:inline;stroke-width:.993117" transform="matrix(1.013909 0 0 1 -300.01315252 -252.5230685)"><circle cx="722.94879" cy="854.53064" r="3.4077702" style="fill:#272727;fill-opacity:1;stroke:none;stroke-width:3.75352;stroke-linecap:round;stroke-linejoin:round;stroke-dasharray:none;stroke-dashoffset:0;stroke-opacity:1"/><circle cx="753.09442" cy="854.53064" r="3.4077702" style="fill:#272727;fill-opacity:1;stroke:none;stroke-width:3.75352;stroke-linecap:round;stroke-linejoin:round;stroke-dasharray:none;stroke-dashoffset:0;stroke-opacity:1"/><path d="M724.25957 873.99424h27.39322" style="fill:none;fill-opacity:1;stroke:#222;stroke-width:3.75352;stroke-linecap:round;stroke-linejoin:round;stroke-dasharray:none;stroke-dashoffset:0;stroke-opacity:1"/></g></g><path d="M1225.0864 276.16221h86.508c12.3675-.43019 11.4174 12.42211 11.4174 12.42211v84.99039c0 10.50219-11.0212 11.20206-11.0212 11.20206h-88.7942c-8.4478-.40962-9.8025-9.99839-9.8025-9.99839v-86.20574s-.077-12.41043 11.6925-12.41043z" style="display:inline;mix-blend-mode:normal;fill:#3f74a3;fill-opacity:.20403;stroke:#4294dd;stroke-width:7.55906;stroke-linecap:round;stroke-linejoin:round;stroke-dasharray:7.55906,22.6772;stroke-dashoffset:0;stroke-opacity:1" transform="translate(-765.10156 -145.10156)"/><g style="display:inline"><path d="M696.06846 808.50959h83.88713c11.99268-.41997 11.07138 12.12676 11.07138 12.12676-4.21652 26.71249-5.08119 54.17545 0 82.96965 0 10.25249-10.68731 10.93573-10.68731 10.93573h-86.10387c-8.19194-.39989-9.50539-9.76067-9.50539-9.76067-2.74074-23.93262-6.98783-45.60114 0-84.15612 0 0-.0749-12.11535 11.33806-12.11535z" style="opacity:1;mix-blend-mode:normal;fill:#4294dd;fill-opacity:1;stroke-width:7.55906;stroke-linecap:round;stroke-linejoin:round;stroke-dasharray:7.55906,15.1181" transform="rotate(-10.744338 -1074.32612676 3251.6361397)"/><g style="display:inline" transform="rotate(-10.744338 -1079.99799501 3278.39508868)"><circle cx="722.94879" cy="854.53064" r="3.4077702" style="fill:#272727;fill-opacity:1;stroke:none;stroke-width:3.77953;stroke-linecap:round;stroke-linejoin:round;stroke-dasharray:none;stroke-dashoffset:0;stroke-opacity:1"/><circle cx="753.09442" cy="854.53064" r="3.4077702" style="fill:#272727;fill-opacity:1;stroke:none;stroke-width:3.77953;stroke-linecap:round;stroke-linejoin:round;stroke-dasharray:none;stroke-dashoffset:0;stroke-opacity:1"/><path d="M724.25957 873.99424h27.39322" style="fill:none;fill-opacity:1;stroke:#222;stroke-width:3.77953;stroke-linecap:round;stroke-linejoin:round;stroke-dasharray:none;stroke-dashoffset:0;stroke-opacity:1"/></g></g><g style="display:inline"><path d="M696.06846 808.50959h83.88713c11.99268-.41997 11.07138 12.12676 11.07138 12.12676V903.606c0 10.25249-10.68731 10.93573-10.68731 10.93573h-86.10387c-8.19194-.39989-9.50539-9.76067-9.50539-9.76067v-84.15612s-.0749-12.11535 11.33806-12.11535z" style="opacity:1;mix-blend-mode:normal;fill:#4294dd;fill-opacity:1;stroke-width:7.55906;stroke-linecap:round;stroke-linejoin:round;stroke-dasharray:7.55906,15.1181" transform="translate(-553.85614 -37.70743)"/><g style="display:inline" transform="translate(-553.99091013 -39.6903636)"><circle cx="722.94879" cy="854.53064" r="3.4077702" style="fill:#272727;fill-opacity:1;stroke:none;stroke-width:3.77953;stroke-linecap:round;stroke-linejoin:round;stroke-dasharray:none;stroke-dashoffset:0;stroke-opacity:1"/><circle cx="753.09442" cy="854.53064" r="3.4077702" style="fill:#272727;fill-opacity:1;stroke:none;stroke-width:3.77953;stroke-linecap:round;stroke-linejoin:round;stroke-dasharray:none;stroke-dashoffset:0;stroke-opacity:1"/><path d="M724.25957 873.99424h27.39322" style="fill:none;fill-opacity:1;stroke:#222;stroke-width:3.77953;stroke-linecap:round;stroke-linejoin:round;stroke-dasharray:none;stroke-dashoffset:0;stroke-opacity:1"/></g></g><path d="m927.26412 752.2266-2.85928 2.85764c-.97348.97362-.97348 2.55141 0 3.52502l11.27469 11.26819-11.45259 11.44596c-.97348.97361-.97348 2.5514 0 3.525l2.85674 2.85764c.97444.97464 2.5551.97464 3.52953 0l11.45268-11.44854 11.45251 11.44854c.9742.97292 2.55287.97292 3.52706 0l2.85929-2.85764c.97348-.9736.97348-2.55139 0-3.525l-11.45259-11.44596 11.2747-11.26819c.97348-.97361.97348-2.5514 0-3.52502l-2.85929-2.85764c-.9742-.97293-2.55287-.97293-3.52707 0l-11.27461 11.26819-11.2747-11.26819c-.9742-.97292-2.55295-.97292-3.52707 0z" style="-inkscape-font-specification:&quot;Mplus 1, &quot;;display:inline;fill:#f55948;stroke:#fff;stroke-width:.999999;stroke-linecap:round;stroke-linejoin:round;stroke-opacity:1" transform="translate(-765.10156 -145.10156)"/><path d="M1044.1223 758.72558c28.0894-.52686 56.3531 18.69457 65.0964 43.65069l14.6257-62.2306c-14.157 6.33302-42.0157 2.84436-42.5488-9.18035-6.5528 2.95993-37.1733 27.76026-37.1733 27.76026z" style="font-variation-settings:normal;opacity:1;vector-effect:none;fill:#4294dd;fill-opacity:1;stroke:none;stroke-width:7.55906;stroke-linecap:round;stroke-linejoin:round;stroke-miterlimit:4;stroke-dasharray:7.55906,15.1181;stroke-dashoffset:0;stroke-opacity:1;-inkscape-stroke:none" transform="translate(-765.10156 -145.10156)"/><g style="display:inline;opacity:.855;stroke:#333;stroke-width:6.65559;stroke-dasharray:none;stroke-opacity:1"><path d="M1230.6516 580.05857c-1.6104-14.2349 6.32-31.12702 9.4314-36.98777 18.919-35.63507 42.5774-25.41967 47.6424-19.68602 6.8462 7.74989 5.7272 17.7595 1.1187 25.12759-3.7839 6.05002-17.7577 10.47327-26.5463 12.94782-10.5621 2.97394-16.777 6.76125-31.6462 18.59838zM1248.5304 609.21468c5.6011-9.68261 18.5869-16.6467 23.3243-18.89736 28.8046-13.68439 39.2795 3.61285 39.868 9.54391.7957 8.01678-4.5932 13.7899-10.9977 16.29898-5.2587 2.06026-16.3223-1.5875-23.1372-4.07482-8.1903-2.98927-13.9596-3.46831-29.0574-2.87071z" style="fill:#98e3eb;fill-opacity:1;stroke:#333;stroke-width:6.65559;stroke-linecap:round;stroke-linejoin:round;stroke-dasharray:none;stroke-dashoffset:0;stroke-opacity:1" transform="matrix(-.56348132 -.05067091 -.05076126 .56773372 905.32834 234.69304)"/></g><g style="display:inline;stroke-width:.993117"><path d="M696.06896 808.51037c-11.41296 0-11.33789 12.11523-11.33789 12.11523v84.15625s1.31196 9.35988 9.5039 9.75977c64.12927-1.60024 127.71801 0 192.00782 0 0 0 10.6875-.68306 10.6875-10.93555v-82.96875s.92041-12.54692-11.07227-12.12695c-63.38173 1.61209-126.3185.00057-189.78906 0z" style="opacity:1;mix-blend-mode:normal;fill:#4294dd;fill-opacity:1;stroke-width:7.50703;stroke-linecap:round;stroke-linejoin:round;stroke-dasharray:7.50703,15.014" transform="matrix(1.013909 0 0 1 180.12401 -250.54047)"/><g style="display:inline;stroke-width:.993117" transform="matrix(1.013909 0 0 1 233.67584748 -252.5230685)"><circle cx="722.94879" cy="854.53064" r="3.4077702" style="fill:#272727;fill-opacity:1;stroke:none;stroke-width:3.75352;stroke-linecap:round;stroke-linejoin:round;stroke-dasharray:none;stroke-dashoffset:0;stroke-opacity:1"/><circle cx="753.09442" cy="854.53064" r="3.4077702" style="fill:#272727;fill-opacity:1;stroke:none;stroke-width:3.75352;stroke-linecap:round;stroke-linejoin:round;stroke-dasharray:none;stroke-dashoffset:0;stroke-opacity:1"/><path d="M724.25957 873.99424h27.39322" style="fill:none;fill-opacity:1;stroke:#222;stroke-width:3.75352;stroke-linecap:round;stroke-linejoin:round;stroke-dasharray:none;stroke-dashoffset:0;stroke-opacity:1"/></g></g><g style="display:inline"><path d="M781.04163 704.48342c-.34997-.0114-.71116-.0112-1.08594.002h-83.88671c-11.41296 0-11.3379 12.11524-11.3379 12.11524.90943 62.73971 0 188.17969 0 188.17969s1.31197 9.36182 9.50391 9.76171h86.10547s10.68555-.68305 10.68555-10.93554c-1.00839-62.37969 0-124.55813 0-186.99414 0 0 .86472-11.7748-9.98438-12.12891z" style="opacity:1;mix-blend-mode:normal;fill:#f5a633;fill-opacity:1;stroke-width:7.55906;stroke-linecap:round;stroke-linejoin:round;stroke-dasharray:7.55906,15.1181" transform="translate(-342.83256 -356.57676)"/><g style="display:inline" transform="translate(-342.96733013 -409.864989)"><circle cx="722.94879" cy="854.53064" r="3.4077702" style="fill:#272727;fill-opacity:1;stroke:none;stroke-width:3.77953;stroke-linecap:round;stroke-linejoin:round;stroke-dasharray:none;stroke-dashoffset:0;stroke-opacity:1"/><circle cx="753.09442" cy="854.53064" r="3.4077702" style="fill:#272727;fill-opacity:1;stroke:none;stroke-width:3.77953;stroke-linecap:round;stroke-linejoin:round;stroke-dasharray:none;stroke-dashoffset:0;stroke-opacity:1"/><path d="M724.25957 873.99424h27.39322" style="fill:none;fill-opacity:1;stroke:#222;stroke-width:3.77953;stroke-linecap:round;stroke-linejoin:round;stroke-dasharray:none;stroke-dashoffset:0;stroke-opacity:1"/></g></g><path d="M1213.0996 316.30078c-12.8066-.15587-24.6952 2.59028-34.9394 7.97461-16.3908 8.61494-27.832 22.98787-35.3789 38.79102-8.1347 17.03378-12.2833 36.03338-13.4297 54.91015-4.473-2.14702-9.105-4.08673-13.9161-5.7207-22.2472-7.55583-48.5331-9.18284-72.4296 2.15039-23.8965 11.33323-42.957 36.18527-49.75199 72.6875-9.65908 57.24799 2.23845 122.8497 17.67189 177.71484l36.3828-10.23437c-14.0365-49.28635-24.602-109.05576-16.8984-160.5625 5.1792-27.82254 16.2392-39.50417 28.791-45.45703 12.5518-5.95286 29.0428-5.61881 44.0801-.51172 15.0372 5.10709 27.5958 15.46676 31.4218 22.20898 4.6019 8.09741 14.4169 11.63512 23.1266 8.33574 8.7097-3.29939 13.7173-12.45215 11.7992-21.56621-4.9897-23.64239-2.7677-56.6749 7.2578-77.66796 5.0128-10.49653 11.4222-17.71508 18.8574-21.62305 7.4353-3.90797 16.6355-5.50418 31.2715-1.50195l9.9688-36.45704c-8.187-2.23873-16.2009-3.37718-23.8848-3.4707z" style="display:inline;opacity:.731;fill:url(#q);fill-opacity:1;stroke-linecap:square;stroke-linejoin:round" transform="translate(-765.10156 -145.10156)"/></g><g style="display:inline"><path d="M1221.0864 276.16221h86.508c12.3675-.43019 11.4174 12.42211 11.4174 12.42211v84.99039c0 10.50219-11.0212 11.20206-11.0212 11.20206h-88.7942c-8.4478-.40962-9.8025-9.99839-9.8025-9.99839v-86.20574s-.077-12.41043 11.6925-12.41043z" style="display:inline;mix-blend-mode:normal;fill:#3f74a3;fill-opacity:.20403;stroke:#4294dd;stroke-width:7.55906;stroke-linecap:round;stroke-linejoin:round;stroke-dasharray:7.55906,22.6772;stroke-dashoffset:0;stroke-opacity:1" transform="translate(-125.87703 -145.10156)"/><g style="display:inline"><path d="M696.06846 808.50959h83.88713c11.99268-.41997 11.07138 12.12676 11.07138 12.12676-4.21652 26.71249-5.08119 54.17545 0 82.96965 0 10.25249-10.68731 10.93573-10.68731 10.93573h-86.10387c-8.19194-.39989-9.50539-9.76067-9.50539-9.76067-2.74074-23.93262-6.98783-45.60114 0-84.15612 0 0-.0749-12.11535 11.33806-12.11535z" style="opacity:1;mix-blend-mode:normal;fill:#4294dd;fill-opacity:1;stroke-width:7.55906;stroke-linecap:round;stroke-linejoin:round;stroke-dasharray:7.55906,15.1181" transform="rotate(-10.744338 -1296.98211976 -141.80003109)"/><g style="display:inline" transform="rotate(-10.744338 -1302.65398801 -115.0410821)"><circle cx="722.94879" cy="854.53064" r="3.4077702" style="fill:#272727;fill-opacity:1;stroke:none;stroke-width:3.77953;stroke-linecap:round;stroke-linejoin:round;stroke-dasharray:none;stroke-dashoffset:0;stroke-opacity:1"/><circle cx="753.09442" cy="854.53064" r="3.4077702" style="fill:#272727;fill-opacity:1;stroke:none;stroke-width:3.77953;stroke-linecap:round;stroke-linejoin:round;stroke-dasharray:none;stroke-dashoffset:0;stroke-opacity:1"/><path d="M724.25957 873.99424h27.39322" style="fill:none;fill-opacity:1;stroke:#222;stroke-width:3.77953;stroke-linecap:round;stroke-linejoin:round;stroke-dasharray:none;stroke-dashoffset:0;stroke-opacity:1"/></g></g><g style="display:inline"><path d="M696.06846 808.50959h83.88713c11.99268-.41997 11.07138 12.12676 11.07138 12.12676V903.606c0 10.25249-10.68731 10.93573-10.68731 10.93573h-86.10387c-8.19194-.39989-9.50539-9.76067-9.50539-9.76067v-84.15612s-.0749-12.11535 11.33806-12.11535z" style="opacity:1;mix-blend-mode:normal;fill:#4294dd;fill-opacity:1;stroke-width:7.55906;stroke-linecap:round;stroke-linejoin:round;stroke-dasharray:7.55906,15.1181" transform="translate(82.53996 -37.70743)"/><g style="display:inline" transform="translate(82.40518987 -39.6903636)"><circle cx="722.94879" cy="854.53064" r="3.4077702" style="fill:#272727;fill-opacity:1;stroke:none;stroke-width:3.77953;stroke-linecap:round;stroke-linejoin:round;stroke-dasharray:none;stroke-dashoffset:0;stroke-opacity:1"/><circle cx="753.09442" cy="854.53064" r="3.4077702" style="fill:#272727;fill-opacity:1;stroke:none;stroke-width:3.77953;stroke-linecap:round;stroke-linejoin:round;stroke-dasharray:none;stroke-dashoffset:0;stroke-opacity:1"/><path d="M724.25957 873.99424h27.39322" style="fill:none;fill-opacity:1;stroke:#222;stroke-width:3.77953;stroke-linecap:round;stroke-linejoin:round;stroke-dasharray:none;stroke-dashoffset:0;stroke-opacity:1"/></g></g><path d="m930.26412 683.2266-2.85928 2.85764c-.97348.97362-.97348 2.55141 0 3.52502l11.27469 11.26819-11.45259 11.44596c-.97348.97361-.97348 2.5514 0 3.525l2.85674 2.85764c.97444.97464 2.5551.97464 3.52953 0l11.45268-11.44854 11.45251 11.44854c.9742.97292 2.55287.97292 3.52706 0l2.85929-2.85764c.97348-.9736.97348-2.55139 0-3.525l-11.45259-11.44596 11.2747-11.26819c.97348-.97361.97348-2.5514 0-3.52502l-2.85929-2.85764c-.9742-.97293-2.55287-.97293-3.52707 0l-11.27461 11.26819-11.2747-11.26819c-.9742-.97292-2.55295-.97292-3.52707 0z" style="-inkscape-font-specification:&quot;Mplus 1, &quot;;display:inline;fill:#f55948;stroke:#fff;stroke-width:.999999;stroke-linecap:round;stroke-linejoin:round;stroke-opacity:1" transform="translate(-125.87703 -145.10156)"/><path d="M1003.2684 659.93898c24.1631 8.33313 40.5825 23.05094 34.885 48.87325l77.1838-.22147c-24.371-7.56438-65.7248-46.19071-50.3505-59.69645-7.1298-.93122-61.7183 11.04467-61.7183 11.04467z" style="font-variation-settings:normal;opacity:1;vector-effect:none;fill:#4294dd;fill-opacity:1;stroke:none;stroke-width:7.55906;stroke-linecap:round;stroke-linejoin:round;stroke-miterlimit:4;stroke-dasharray:7.55906,15.1181;stroke-dashoffset:0;stroke-opacity:1;-inkscape-stroke:none" transform="translate(-125.87703 -145.10156)"/><g style="display:inline;opacity:.855;stroke:#333;stroke-width:6.65559;stroke-dasharray:none;stroke-opacity:1"><path d="M1230.6516 580.05857c-1.6104-14.2349 6.32-31.12702 9.4314-36.98777 18.919-35.63507 42.5774-25.41967 47.6424-19.68602 6.8462 7.74989 5.7272 17.7595 1.1187 25.12759-3.7839 6.05002-17.7577 10.47327-26.5463 12.94782-10.5621 2.97394-16.777 6.76125-31.6462 18.59838zM1248.5304 609.21468c5.6011-9.68261 18.5869-16.6467 23.3243-18.89736 28.8046-13.68439 39.2795 3.61285 39.868 9.54391.7957 8.01678-4.5932 13.7899-10.9977 16.29898-5.2587 2.06026-16.3223-1.5875-23.1372-4.07482-8.1903-2.98927-13.9596-3.46831-29.0574-2.87071z" style="fill:#98e3eb;fill-opacity:1;stroke:#333;stroke-width:6.65559;stroke-linecap:round;stroke-linejoin:round;stroke-dasharray:none;stroke-dashoffset:0;stroke-opacity:1" transform="matrix(-.56348132 -.05067091 -.05076126 .56773372 1528.55287 140.69304)"/></g><text xml:space="preserve" x="190.07614" y="255.63126" style="font-weight:700;font-size:69.3537px;line-height:1;font-family:&quot;Corporate Logo ver2&quot;;-inkscape-font-specification:&quot;Corporate Logo ver2 Bold&quot;;font-variation-settings:normal;text-align:start;letter-spacing:0;word-spacing:0;writing-mode:lr-tb;direction:ltr;text-anchor:start;opacity:1;fill:none;fill-opacity:1;stroke:#a6a09c;stroke-width:37.7953;stroke-linecap:square;stroke-linejoin:round;stroke-miterlimit:4;stroke-dasharray:none;stroke-dashoffset:0;stroke-opacity:1" transform="translate(-125.87703 -145.10156)"><tspan x="190.07614" y="255.63126" style="fill:#eee;fill-opacity:1;stroke:none;stroke-width:37.7953">パターンA</tspan></text><text xml:space="preserve" x="815.55615" y="255.63126" style="font-weight:700;font-size:69.3537px;line-height:1;font-family:&quot;Corporate Logo ver2&quot;;-inkscape-font-specification:&quot;Corporate Logo ver2 Bold&quot;;font-variation-settings:normal;text-align:start;letter-spacing:0;word-spacing:0;writing-mode:lr-tb;direction:ltr;text-anchor:start;display:inline;fill:none;fill-opacity:1;stroke:#a6a09c;stroke-width:37.7953;stroke-linecap:square;stroke-linejoin:round;stroke-miterlimit:4;stroke-dasharray:none;stroke-dashoffset:0;stroke-opacity:1" transform="translate(-125.87703 -145.10156)"><tspan x="815.55615" y="255.63126" style="fill:#eee;fill-opacity:1;stroke:none;stroke-width:37.7953">パターンB</tspan></text><g style="display:inline"><path d="M781.04163 704.48342c-.34997-.0114-.71116-.0112-1.08594.002h-83.88671c-11.41296 0-11.3379 12.11524-11.3379 12.11524.90943 62.73971 0 188.17969 0 188.17969s1.31197 9.36182 9.50391 9.76171h86.10547s10.68555-.68305 10.68555-10.93554c-1.00839-62.37969 0-124.55813 0-186.99414 0 0 .86472-11.7748-9.98438-12.12891z" style="opacity:1;mix-blend-mode:normal;fill:#f5a633;fill-opacity:1;stroke-width:7.55906;stroke-linecap:round;stroke-linejoin:round;stroke-dasharray:7.55906,15.1181" transform="translate(293.66737 -355.07674)"/><g style="display:inline" transform="translate(293.53259987 -408.364969)"><circle cx="722.94879" cy="854.53064" r="3.4077702" style="fill:#272727;fill-opacity:1;stroke:none;stroke-width:3.77953;stroke-linecap:round;stroke-linejoin:round;stroke-dasharray:none;stroke-dashoffset:0;stroke-opacity:1"/><circle cx="753.09442" cy="854.53064" r="3.4077702" style="fill:#272727;fill-opacity:1;stroke:none;stroke-width:3.77953;stroke-linecap:round;stroke-linejoin:round;stroke-dasharray:none;stroke-dashoffset:0;stroke-opacity:1"/><path d="M724.25957 873.99424h27.39322" style="fill:none;fill-opacity:1;stroke:#222;stroke-width:3.77953;stroke-linecap:round;stroke-linejoin:round;stroke-dasharray:none;stroke-dashoffset:0;stroke-opacity:1"/></g></g><path d="M1207.875 316.30078c-12.8066-.15587-24.6952 2.59028-34.9395 7.97461-16.3907 8.61494-27.8319 22.98787-35.3789 38.79102-7.8366 16.40964-12.009 34.64628-13.3339 52.83789-21.0034-9.2472-46.0825-10.07877-68.8497-1.9375-40.5217 14.4901-73.05778 59.62432-67.33394 128.61718l1.5625 18.83204 37.66604-3.12305-1.5625-18.83399c-4.7222-56.91905 17.9427-81.1606 42.3945-89.90429 24.4518-8.7437 51.3503.24188 60.832 19.66211 4.1891 8.56727 14.1046 12.67139 23.1231 9.57087 9.0185-3.10051 14.3142-12.43415 12.3496-21.76619-4.9897-23.64239-2.7677-56.6749 7.2578-77.66796 5.0128-10.49653 11.4221-17.71508 18.8574-21.62305 7.4353-3.90797 31.2715-1.50195 31.2715-1.50195l9.9688-36.45704s-16.2009-3.37718-23.8848-3.4707z" style="display:inline;opacity:.731;fill:url(#r);fill-opacity:1;stroke-linecap:square;stroke-linejoin:round" transform="translate(-125.87703 -145.10156)"/></g></g></svg>