<svg xmlns="http://www.w3.org/2000/svg" xmlns:xlink="http://www.w3.org/1999/xlink" xml:space="preserve" width="1897" height="1072"><defs><linearGradient id="k"><stop offset="0" style="stop-color:#f5a633;stop-opacity:.2"/><stop offset="1" style="stop-color:#f5a633;stop-opacity:0"/></linearGradient><linearGradient id="j"><stop offset="0" style="stop-color:#4294dd;stop-opacity:1"/><stop offset="1" style="stop-color:#4294dd;stop-opacity:0"/></linearGradient><linearGradient id="i"><stop offset="0" style="stop-color:#4294dd;stop-opacity:1"/><stop offset="1" style="stop-color:#4294dd;stop-opacity:0"/></linearGradient><linearGradient id="f"><stop offset="0" style="stop-color:#4294dd;stop-opacity:1"/><stop offset="1" style="stop-color:#4294dd;stop-opacity:0"/></linearGradient><linearGradient id="e"><stop offset="0" style="stop-color:#4294dd;stop-opacity:1"/><stop offset="1" style="stop-color:#4294dd;stop-opacity:0"/></linearGradient><linearGradient id="b"><stop offset="0" style="stop-color:#f5a633;stop-opacity:1"/><stop offset="1" style="stop-color:#f5a633;stop-opacity:0"/></linearGradient><linearGradient id="p"><stop offset="0" style="stop-color:#4294dd;stop-opacity:1"/><stop offset="1" style="stop-color:#4294dd;stop-opacity:0"/></linearGradient><linearGradient id="o"><stop offset="0" style="stop-color:#4294dd;stop-opacity:1"/><stop offset="1" style="stop-color:#4294dd;stop-opacity:0"/></linearGradient><linearGradient id="n"><stop offset="0" style="stop-color:#4294dd;stop-opacity:1"/><stop offset="1" style="stop-color:#4294dd;stop-opacity:0"/></linearGradient><linearGradient id="l"><stop offset="0" style="stop-color:#f55948;stop-opacity:1"/><stop offset="1" style="stop-color:#f55948;stop-opacity:0"/></linearGradient><linearGradient id="m"><stop offset="0" style="stop-color:#f5a633;stop-opacity:1"/><stop offset="1" style="stop-color:#f5a633;stop-opacity:0"/></linearGradient><linearGradient id="h"><stop offset="0" style="stop-color:#4294dd;stop-opacity:1"/><stop offset="1" style="stop-color:#4678a6;stop-opacity:0"/></linearGradient><linearGradient id="g"><stop offset="0" style="stop-color:#f55948;stop-opacity:1"/><stop offset="1" style="stop-color:#f55948;stop-opacity:0"/></linearGradient><linearGradient id="d"><stop offset="0" style="stop-color:#4294dd;stop-opacity:1"/><stop offset="1" style="stop-color:#3f74a3;stop-opacity:0"/></linearGradient><linearGradient id="c"><stop offset="0" style="stop-color:#f55948;stop-opacity:1"/><stop offset="1" style="stop-color:#faa79e;stop-opacity:0"/></linearGradient><linearGradient id="a"><stop offset="0" style="stop-color:#f5a633;stop-opacity:1"/><stop offset="1" style="stop-color:#f8bf6d;stop-opacity:0"/></linearGradient></defs><g style="display:inline"><g style="mix-blend-mode:normal"><g style="display:inline;opacity:.5"><path id="q" d="M41.942602 169.08311H1858.8889" style="display:inline;fill:none;fill-opacity:1;stroke:#a4a4a4;stroke-width:1.00157;stroke-linecap:round;stroke-linejoin:round;stroke-dasharray:none;stroke-opacity:1"/><use xlink:href="#q" style="display:inline" transform="translate(0 108.38845)"/><use xlink:href="#q" style="display:inline" transform="translate(0 211.80602)"/><use xlink:href="#q" style="display:inline" transform="translate(0 319.80611)"/><use xlink:href="#q" style="display:inline" transform="translate(0 425.70912)"/><use xlink:href="#q" style="display:inline" transform="translate(0 532.34891)"/><use xlink:href="#q" style="display:inline" transform="translate(0 639.11526)"/><use xlink:href="#q" style="display:inline" transform="translate(0 745.88162)"/></g><g style="display:inline;opacity:.5;stroke-width:.895884" transform="matrix(1.0017698 0 0 1.2437367 -9.8231724 -68.562424)"><path id="r" d="M904.96232 58.7185v859.8066" style="fill:none;fill-opacity:1;stroke:#a4a4a4;stroke-width:.897291;stroke-linecap:round;stroke-linejoin:round;stroke-dasharray:none;stroke-opacity:1"/><use xlink:href="#r" style="stroke-width:.895884" transform="translate(106.18398)"/><use xlink:href="#r" style="stroke-width:.895884" transform="translate(212.36797)"/><use xlink:href="#r" style="stroke-width:.895884" transform="translate(318.55195)"/><use xlink:href="#r" style="stroke-width:.895884" transform="translate(424.73594)"/><use xlink:href="#r" style="stroke-width:.895884" transform="translate(530.91993)"/><use xlink:href="#r" style="stroke-width:.895884" transform="translate(637.10391)"/><use xlink:href="#r" style="stroke-width:.895884" transform="translate(743.2879)"/><use xlink:href="#r" style="stroke-width:.895884" transform="translate(849.47188)"/><use xlink:href="#r" style="stroke-width:.895884" transform="translate(-106.18399)"/><use xlink:href="#r" style="stroke-width:.895884" transform="translate(-212.36797)"/><use xlink:href="#r" style="stroke-width:.895884" transform="translate(-318.55196)"/><use xlink:href="#r" style="stroke-width:.895884" transform="translate(-424.73595)"/><use xlink:href="#r" style="stroke-width:.895884" transform="translate(-530.91993)"/><use xlink:href="#r" style="stroke-width:.895884" transform="translate(-637.10392)"/><use xlink:href="#r" style="stroke-width:.895884" transform="translate(-743.2879)"/></g></g><path d="M0-1.078125V1073.1886l1897.3438.3769-.094-1073.9405zm46 63.302734h1808V700.74219h-206.2266c-3.2531 0-5.8711 2.61993-5.8711 5.87304v100.90039h-420.3359c-3.2531 0-5.873 2.61994-5.873 5.87305V914.5h-106.0098V813.38867c0-3.25311-2.4988-5.87305-5.752-5.87305h-94.6504c-3.2531 0-5.871 2.61994-5.871 5.87305v207.67383H683.94922V814.80273c0-3.25311-4.91681-6.93359-8.16992-6.93359h-97.89649V706.26172c0-3.25312-4.9168-4.10547-8.16992-4.10547H46ZM1228.4531 380.42383c-7.5582 0-13.6445 6.08431-13.6445 13.64258v81.60937c0 7.55827 6.0863 13.64258 13.6445 13.64258H1309c7.5583 0 13.6426-6.08431 13.6426-13.64258v-81.60937c0-7.55827-6.0843-13.64258-13.6426-13.64258z" style="display:inline;fill:#a6a09c;fill-opacity:1;stroke:none;stroke-width:5;stroke-linecap:square;stroke-linejoin:round;stroke-dasharray:none"/><g style="display:inline"><path d="M696.06846 808.50959h83.88713c11.99268-.41997 11.07138 12.12676 11.07138 12.12676V903.606c0 10.25249-10.68731 10.93573-10.68731 10.93573h-86.10387c-8.19194-.39989-9.50539-9.76067-9.50539-9.76067v-84.15612s-.0749-12.11535 11.33806-12.11535z" style="opacity:1;mix-blend-mode:normal;fill:#f55948;fill-opacity:1;stroke-width:7.55906;stroke-linecap:round;stroke-linejoin:round;stroke-dasharray:7.55906,15.1181" transform="translate(-319.76018 -318.57174)"/><g style="display:inline" transform="translate(-319.89495013 -320.5546736)"><circle cx="722.94879" cy="854.53064" r="3.4077702" style="fill:#272727;fill-opacity:1;stroke:none;stroke-width:3.77953;stroke-linecap:round;stroke-linejoin:round;stroke-dasharray:none;stroke-dashoffset:0;stroke-opacity:1"/><circle cx="753.09442" cy="854.53064" r="3.4077702" style="fill:#272727;fill-opacity:1;stroke:none;stroke-width:3.77953;stroke-linecap:round;stroke-linejoin:round;stroke-dasharray:none;stroke-dashoffset:0;stroke-opacity:1"/><path d="M724.25957 873.99424h27.39322" style="fill:none;fill-opacity:1;stroke:#222;stroke-width:3.77953;stroke-linecap:round;stroke-linejoin:round;stroke-dasharray:none;stroke-dashoffset:0;stroke-opacity:1"/></g></g><g style="display:inline"><path d="M696.06846 808.50959h83.88713c11.99268-.41997 11.07138 12.12676 11.07138 12.12676V903.606c0 10.25249-10.68731 10.93573-10.68731 10.93573h-86.10387c-8.19194-.39989-9.50539-9.76067-9.50539-9.76067v-84.15612s-.0749-12.11535 11.33806-12.11535z" style="opacity:1;mix-blend-mode:normal;fill:#f55948;fill-opacity:1;stroke-width:7.55906;stroke-linecap:round;stroke-linejoin:round;stroke-dasharray:7.55906,15.1181" transform="translate(105.54946 106.39944)"/><g style="display:inline" transform="translate(105.41468987 104.4165064)"><circle cx="722.94879" cy="854.53064" r="3.4077702" style="fill:#272727;fill-opacity:1;stroke:none;stroke-width:3.77953;stroke-linecap:round;stroke-linejoin:round;stroke-dasharray:none;stroke-dashoffset:0;stroke-opacity:1"/><circle cx="753.09442" cy="854.53064" r="3.4077702" style="fill:#272727;fill-opacity:1;stroke:none;stroke-width:3.77953;stroke-linecap:round;stroke-linejoin:round;stroke-dasharray:none;stroke-dashoffset:0;stroke-opacity:1"/><path d="M724.25957 873.99424h27.39322" style="fill:none;fill-opacity:1;stroke:#222;stroke-width:3.77953;stroke-linecap:round;stroke-linejoin:round;stroke-dasharray:none;stroke-dashoffset:0;stroke-opacity:1"/></g></g><g style="display:inline"><path d="M696.06846 808.50959h83.88713c11.99268-.41997 11.07138 12.12676 11.07138 12.12676V903.606c0 10.25249-10.68731 10.93573-10.68731 10.93573h-86.10387c-8.19194-.39989-9.50539-9.76067-9.50539-9.76067v-84.15612s-.0749-12.11535 11.33806-12.11535z" style="opacity:1;mix-blend-mode:normal;fill:#4294dd;fill-opacity:1;stroke-width:7.55906;stroke-linecap:round;stroke-linejoin:round;stroke-dasharray:7.55906,15.1181" transform="translate(212.32506 106.51128)"/><g style="display:inline" transform="translate(212.19028987 104.5283464)"><circle cx="722.94879" cy="854.53064" r="3.4077702" style="fill:#272727;fill-opacity:1;stroke:none;stroke-width:3.77953;stroke-linecap:round;stroke-linejoin:round;stroke-dasharray:none;stroke-dashoffset:0;stroke-opacity:1"/><circle cx="753.09442" cy="854.53064" r="3.4077702" style="fill:#272727;fill-opacity:1;stroke:none;stroke-width:3.77953;stroke-linecap:round;stroke-linejoin:round;stroke-dasharray:none;stroke-dashoffset:0;stroke-opacity:1"/><path d="M724.25957 873.99424h27.39322" style="fill:none;fill-opacity:1;stroke:#222;stroke-width:3.77953;stroke-linecap:round;stroke-linejoin:round;stroke-dasharray:none;stroke-dashoffset:0;stroke-opacity:1"/></g></g><g style="display:inline"><path d="M696.06846 808.50959h83.88713c11.99268-.41997 11.07138 12.12676 11.07138 12.12676V903.606c0 10.25249-10.68731 10.93573-10.68731 10.93573h-86.10387c-8.19194-.39989-9.50539-9.76067-9.50539-9.76067v-84.15612s-.0749-12.11535 11.33806-12.11535z" style="opacity:1;mix-blend-mode:normal;fill:#4294dd;fill-opacity:1;stroke-width:7.55906;stroke-linecap:round;stroke-linejoin:round;stroke-dasharray:7.55906,15.1181" transform="translate(531.05345 -533.24358)"/><g style="display:inline" transform="translate(530.91867987 -535.2265136)"><circle cx="722.94879" cy="854.53064" r="3.4077702" style="fill:#272727;fill-opacity:1;stroke:none;stroke-width:3.77953;stroke-linecap:round;stroke-linejoin:round;stroke-dasharray:none;stroke-dashoffset:0;stroke-opacity:1"/><circle cx="753.09442" cy="854.53064" r="3.4077702" style="fill:#272727;fill-opacity:1;stroke:none;stroke-width:3.77953;stroke-linecap:round;stroke-linejoin:round;stroke-dasharray:none;stroke-dashoffset:0;stroke-opacity:1"/><path d="M724.25957 873.99424h27.39322" style="fill:none;fill-opacity:1;stroke:#222;stroke-width:3.77953;stroke-linecap:round;stroke-linejoin:round;stroke-dasharray:none;stroke-dashoffset:0;stroke-opacity:1"/></g></g><g style="display:inline"><path d="M696.06896 807.51037c-11.41296 0-11.33789 12.11523-11.33789 12.11523v85.15625s1.31196 9.35988 9.5039 9.75977h192.00782s10.6875-.68306 10.6875-10.93555v-83.96875s.92041-12.54692-11.07227-12.12695z" style="opacity:1;mix-blend-mode:normal;fill:#4294dd;fill-opacity:1;stroke-width:7.55906;stroke-linecap:round;stroke-linejoin:round;stroke-dasharray:7.55906,15.1181" transform="translate(637.46887 -105.90208)"/><g style="display:inline" transform="translate(690.286073 -107.8846785)"><circle cx="722.94879" cy="854.53064" r="3.4077702" style="fill:#272727;fill-opacity:1;stroke:none;stroke-width:3.77953;stroke-linecap:round;stroke-linejoin:round;stroke-dasharray:none;stroke-dashoffset:0;stroke-opacity:1"/><circle cx="753.09442" cy="854.53064" r="3.4077702" style="fill:#272727;fill-opacity:1;stroke:none;stroke-width:3.77953;stroke-linecap:round;stroke-linejoin:round;stroke-dasharray:none;stroke-dashoffset:0;stroke-opacity:1"/><path d="M724.25957 873.99424h27.39322" style="fill:none;fill-opacity:1;stroke:#222;stroke-width:3.77953;stroke-linecap:round;stroke-linejoin:round;stroke-dasharray:none;stroke-dashoffset:0;stroke-opacity:1"/></g></g><g style="display:inline"><path d="M696.06846 808.50959h83.88713c11.99268-.41997 11.07138 12.12676 11.07138 12.12676V903.606c0 10.25249-10.68731 10.93573-10.68731 10.93573h-86.10387c-8.19194-.39989-9.50539-9.76067-9.50539-9.76067v-84.15612s-.0749-12.11535 11.33806-12.11535z" style="opacity:1;mix-blend-mode:normal;fill:#f5a633;fill-opacity:1;stroke-width:7.55906;stroke-linecap:round;stroke-linejoin:round;stroke-dasharray:7.55906,15.1181" transform="rotate(-.322802 -37149.08 57572.858)"/><g style="display:inline" transform="rotate(-.322802 -37500.9726 57597.77043568)"><circle cx="722.94879" cy="854.53064" r="3.4077702" style="fill:#272727;fill-opacity:1;stroke:none;stroke-width:3.77953;stroke-linecap:round;stroke-linejoin:round;stroke-dasharray:none;stroke-dashoffset:0;stroke-opacity:1"/><circle cx="753.09442" cy="854.53064" r="3.4077702" style="fill:#272727;fill-opacity:1;stroke:none;stroke-width:3.77953;stroke-linecap:round;stroke-linejoin:round;stroke-dasharray:none;stroke-dashoffset:0;stroke-opacity:1"/><path d="M724.25957 873.99424h27.39322" style="fill:none;fill-opacity:1;stroke:#222;stroke-width:3.77953;stroke-linecap:round;stroke-linejoin:round;stroke-dasharray:none;stroke-dashoffset:0;stroke-opacity:1"/></g></g><g style="display:inline"><path d="M696.06846 808.50959h83.88713c11.99268-.41997 11.07138 12.12676 11.07138 12.12676V903.606c0 10.25249-10.68731 10.93573-10.68731 10.93573h-86.10387c-8.19194-.39989-9.50539-9.76067-9.50539-9.76067v-84.15612s-.0749-12.11535 11.33806-12.11535z" style="opacity:1;mix-blend-mode:normal;fill:#f5a633;fill-opacity:1;stroke-width:7.55906;stroke-linecap:round;stroke-linejoin:round;stroke-dasharray:7.55906,15.1181" transform="rotate(-.322802 -74765.978 57372.76)"/><g style="display:inline" transform="rotate(-.322802 -75117.8706 57397.67243568)"><circle cx="722.94879" cy="854.53064" r="3.4077702" style="fill:#272727;fill-opacity:1;stroke:none;stroke-width:3.77953;stroke-linecap:round;stroke-linejoin:round;stroke-dasharray:none;stroke-dashoffset:0;stroke-opacity:1"/><circle cx="753.09442" cy="854.53064" r="3.4077702" style="fill:#272727;fill-opacity:1;stroke:none;stroke-width:3.77953;stroke-linecap:round;stroke-linejoin:round;stroke-dasharray:none;stroke-dashoffset:0;stroke-opacity:1"/><path d="M724.25957 873.99424h27.39322" style="fill:none;fill-opacity:1;stroke:#222;stroke-width:3.77953;stroke-linecap:round;stroke-linejoin:round;stroke-dasharray:none;stroke-dashoffset:0;stroke-opacity:1"/></g></g><g style="display:inline"><path d="M696.06846 808.50959h83.88713c11.99268-.41997 11.07138 12.12676 11.07138 12.12676V903.606c0 10.25249-10.68731 10.93573-10.68731 10.93573h-86.10387c-8.19194-.39989-9.50539-9.76067-9.50539-9.76067v-84.15612s-.0749-12.11535 11.33806-12.11535z" style="opacity:1;mix-blend-mode:normal;fill:#f5a633;fill-opacity:1;stroke-width:7.55906;stroke-linecap:round;stroke-linejoin:round;stroke-dasharray:7.55906,15.1181" transform="rotate(-.322802 19693.243 1034.2514)"/><g style="display:inline" transform="rotate(-.322802 19341.3504 1059.16383568)"><circle cx="722.94879" cy="854.53064" r="3.4077702" style="fill:#272727;fill-opacity:1;stroke:none;stroke-width:3.77953;stroke-linecap:round;stroke-linejoin:round;stroke-dasharray:none;stroke-dashoffset:0;stroke-opacity:1"/><circle cx="753.09442" cy="854.53064" r="3.4077702" style="fill:#272727;fill-opacity:1;stroke:none;stroke-width:3.77953;stroke-linecap:round;stroke-linejoin:round;stroke-dasharray:none;stroke-dashoffset:0;stroke-opacity:1"/><path d="M724.25957 873.99424h27.39322" style="fill:none;fill-opacity:1;stroke:#222;stroke-width:3.77953;stroke-linecap:round;stroke-linejoin:round;stroke-dasharray:none;stroke-dashoffset:0;stroke-opacity:1"/></g></g></g></svg>