<svg xmlns="http://www.w3.org/2000/svg" xmlns:xlink="http://www.w3.org/1999/xlink" xml:space="preserve" width="519.1217" height="581.20221"><g style="display:inline"><g style="display:inline"><g style="display:inline;opacity:.5"><path d="M778.16779 384.06997h497.79341M778.16779 490.89892h497.79341M778.16779 597.72787h497.79341M778.16779 704.55683h497.79341M778.16779 811.38578h497.79341" style="display:inline;fill:none;fill-opacity:1;stroke:#a4a4a4;stroke-width:.57224;stroke-linecap:round;stroke-linejoin:round;stroke-dasharray:none;stroke-opacity:1" transform="translate(-767.257916 -316.68947)"/></g><g style="display:inline;opacity:.5;stroke-width:.896677" transform="matrix(1 0 0 1.2437367 -773.257916 -385.60545)"><path d="M897.2366 323.34217v449.01387" style="fill:none;fill-opacity:1;stroke:#a4a4a4;stroke-width:.898087;stroke-linecap:round;stroke-linejoin:round;stroke-dasharray:none;stroke-opacity:1"/><path id="a" d="M1004.0076 323.34217v449.01387" style="fill:none;fill-opacity:1;stroke:#a4a4a4;stroke-width:.658301;stroke-linecap:round;stroke-linejoin:round;stroke-dasharray:none;stroke-opacity:1"/><use xlink:href="#a" id="b" x="0" y="0" transform="translate(107.24034)"/><use xlink:href="#b" transform="translate(106.33077)"/></g></g><path d="M1112.2793 325.47461v96.09766c0 6.97567 5.6161 12.59179 12.5918 12.59179H1282V325.47461ZM1125 539c-7.202 0-13 5.798-13 13v332h170V539ZM785.55469 810.67383V884H898.75v-9.82031c0-7.16303-5.76666-12.92969-12.92969-12.92969H791.75v-39.77344c0-4.64204-2.5502-8.51023-6.19531-10.80273z" style="display:inline;fill:#9e999c;fill-opacity:1;stroke:none;stroke-width:37.7953;stroke-linecap:square;stroke-linejoin:round" transform="translate(-774.21693 -314.13635)"/><path d="M1016.7258 594.64091h83.8871c11.9927-.21068 11.0714 6.08339 11.0714 6.08339v288.50663l-106.2966.58955V600.71857s-.075-6.07766 11.3381-6.07766z" style="display:inline;opacity:1;mix-blend-mode:normal;fill:#ff9a61;fill-opacity:1;stroke-width:7.55906;stroke-linecap:round;stroke-linejoin:round;stroke-dasharray:7.55906,15.1181" transform="translate(-774.21693 -314.13635)"/><g style="display:inline"><path d="M696.06846 808.50959h83.88713c11.99268-.41997 11.07138 12.12676 11.07138 12.12676V903.606c0 10.25249-10.68731 10.93573-10.68731 10.93573h-86.10387c-8.19194-.39989-9.50539-9.76067-9.50539-9.76067v-84.15612s-.0749-12.11535 11.33806-12.11535z" style="opacity:1;mix-blend-mode:normal;fill:#17979f;fill-opacity:1;stroke-width:7.55906;stroke-linecap:round;stroke-linejoin:round;stroke-dasharray:7.55906,15.1181" transform="translate(-453.69181 -634.09365)"/><g style="display:inline" transform="translate(-447.5254975 -640.2773053)"><circle cx="722.94879" cy="854.53064" r="3.4077702" style="fill:#272727;fill-opacity:1;stroke:none;stroke-width:3.77953;stroke-linecap:round;stroke-linejoin:round;stroke-dasharray:none;stroke-dashoffset:0;stroke-opacity:1"/><circle cx="753.09442" cy="854.53064" r="3.4077702" style="fill:#272727;fill-opacity:1;stroke:none;stroke-width:3.77953;stroke-linecap:round;stroke-linejoin:round;stroke-dasharray:none;stroke-dashoffset:0;stroke-opacity:1"/><path d="M724.25957 873.99424h27.39322" style="fill:none;fill-opacity:1;stroke:#222;stroke-width:3.77953;stroke-linecap:round;stroke-linejoin:round;stroke-dasharray:none;stroke-dashoffset:0;stroke-opacity:1"/></g></g><path d="M1183.0896 468.2253v13.19532h-32.2501c-11.7587 0-18.8417-.11345-25.7114 2.66516-9.5351 4.18669-15.1664 13.46312-21.2147 21.5066l13.0255 9.79193c4.7062-5.11794 7.7117-13.18063 14.2998-16.1931 2.4784-1.00242 8.0089-1.47504 19.6008-1.47504h32.2501v16.93133l41.4876-21.3438z" style="fill:#fff;stroke-width:.999999;stroke-linecap:square" transform="translate(-774.21693 -314.13635)"/><text xml:space="preserve" x="813.16852" y="400.22461" style="font-weight:700;font-size:60.4125px;line-height:1;font-family:&quot;Corporate Logo ver2&quot;;-inkscape-font-specification:&quot;Corporate Logo ver2 Bold&quot;;text-align:start;letter-spacing:0;word-spacing:0;writing-mode:lr-tb;direction:ltr;text-anchor:start;display:inline;fill:#f55948;fill-opacity:1;stroke:#eee;stroke-width:1;stroke-linecap:round;stroke-linejoin:round;stroke-dasharray:none;stroke-opacity:1" transform="translate(-774.21693 -314.13635)"><tspan x="813.16852" y="400.22461" style="fill:#f55948;fill-opacity:1;stroke:#eee;stroke-width:1;stroke-dasharray:none;stroke-opacity:1">〇</tspan></text><path d="M238.24428 282.90578h-72.1443" style="fill:#eee;fill-opacity:1;stroke:#eee;stroke-width:7.55906;stroke-linecap:round;stroke-linejoin:round;stroke-dasharray:none;stroke-dashoffset:0;stroke-opacity:1"/><text xml:space="preserve" x="92.605156" y="307.78479" style="font-weight:700;font-size:60.8132px;line-height:1;font-family:&quot;Corporate Logo ver2&quot;;-inkscape-font-specification:&quot;Corporate Logo ver2 Bold&quot;;text-align:center;letter-spacing:0;word-spacing:0;writing-mode:lr-tb;direction:ltr;text-anchor:middle;display:inline;fill:#b40e5a;fill-opacity:1;stroke:none;stroke-width:.999997;stroke-linecap:square;stroke-linejoin:miter;stroke-dasharray:none;stroke-dashoffset:0;stroke-opacity:1"><tspan x="92.605156" y="307.78479" style="fill:#eee;fill-opacity:1;stroke:none;stroke-width:.999997">0.5</tspan></text><path d="M785.55554 325.47495H1282v558.52502H785.55554z" style="display:inline;fill:none;fill-opacity:1;stroke:#333;stroke-width:22.6772;stroke-linecap:square;stroke-linejoin:miter;stroke-dasharray:none;stroke-dashoffset:0;stroke-opacity:1" transform="translate(-774.21693 -314.13635)"/><path d="M354.08193 226.41494H158.70206" style="fill:none;fill-opacity:1;stroke-width:7.55905512;stroke-linecap:round;stroke-linejoin:round;stroke:#eee;stroke-opacity:1;stroke-dasharray:7.55905512,15.11811024;stroke-dashoffset:0"/></g></svg>