<svg xmlns="http://www.w3.org/2000/svg" xmlns:xlink="http://www.w3.org/1999/xlink" xml:space="preserve" width="1897" height="1072"><defs><linearGradient id="k"><stop offset="0" style="stop-color:#f5a633;stop-opacity:.2"/><stop offset="1" style="stop-color:#f5a633;stop-opacity:0"/></linearGradient><linearGradient id="j"><stop offset="0" style="stop-color:#4294dd;stop-opacity:1"/><stop offset="1" style="stop-color:#4294dd;stop-opacity:0"/></linearGradient><linearGradient id="i"><stop offset="0" style="stop-color:#4294dd;stop-opacity:1"/><stop offset="1" style="stop-color:#4294dd;stop-opacity:0"/></linearGradient><linearGradient id="f"><stop offset="0" style="stop-color:#4294dd;stop-opacity:1"/><stop offset="1" style="stop-color:#4294dd;stop-opacity:0"/></linearGradient><linearGradient id="e"><stop offset="0" style="stop-color:#4294dd;stop-opacity:1"/><stop offset="1" style="stop-color:#4294dd;stop-opacity:0"/></linearGradient><linearGradient id="b"><stop offset="0" style="stop-color:#f5a633;stop-opacity:1"/><stop offset="1" style="stop-color:#f5a633;stop-opacity:0"/></linearGradient><linearGradient id="p"><stop offset="0" style="stop-color:#4294dd;stop-opacity:1"/><stop offset="1" style="stop-color:#4294dd;stop-opacity:0"/></linearGradient><linearGradient id="o"><stop offset="0" style="stop-color:#4294dd;stop-opacity:1"/><stop offset="1" style="stop-color:#4294dd;stop-opacity:0"/></linearGradient><linearGradient id="n"><stop offset="0" style="stop-color:#4294dd;stop-opacity:1"/><stop offset="1" style="stop-color:#4294dd;stop-opacity:0"/></linearGradient><linearGradient id="l"><stop offset="0" style="stop-color:#f55948;stop-opacity:1"/><stop offset="1" style="stop-color:#f55948;stop-opacity:0"/></linearGradient><linearGradient id="m"><stop offset="0" style="stop-color:#f5a633;stop-opacity:1"/><stop offset="1" style="stop-color:#f5a633;stop-opacity:0"/></linearGradient><linearGradient id="h"><stop offset="0" style="stop-color:#4294dd;stop-opacity:1"/><stop offset="1" style="stop-color:#4678a6;stop-opacity:0"/></linearGradient><linearGradient id="g"><stop offset="0" style="stop-color:#f55948;stop-opacity:1"/><stop offset="1" style="stop-color:#f55948;stop-opacity:0"/></linearGradient><linearGradient id="d"><stop offset="0" style="stop-color:#4294dd;stop-opacity:1"/><stop offset="1" style="stop-color:#3f74a3;stop-opacity:0"/></linearGradient><linearGradient id="c"><stop offset="0" style="stop-color:#f55948;stop-opacity:1"/><stop offset="1" style="stop-color:#faa79e;stop-opacity:0"/></linearGradient><linearGradient id="a"><stop offset="0" style="stop-color:#f5a633;stop-opacity:1"/><stop offset="1" style="stop-color:#f8bf6d;stop-opacity:0"/></linearGradient><linearGradient xlink:href="#e" id="s" x1="1131" x2="1214" y1="601.07593" y2="309.07593" gradientTransform="translate(0 19.924065)" gradientUnits="userSpaceOnUse"/></defs><g style="display:inline"><g style="mix-blend-mode:normal"><g style="display:inline;opacity:.5"><path id="q" d="M41.942602 169.08311H1858.8889" style="display:inline;fill:none;fill-opacity:1;stroke:#a4a4a4;stroke-width:1.00157;stroke-linecap:round;stroke-linejoin:round;stroke-dasharray:none;stroke-opacity:1"/><use xlink:href="#q" style="display:inline" transform="translate(0 108.38845)"/><use xlink:href="#q" style="display:inline" transform="translate(0 211.80602)"/><use xlink:href="#q" style="display:inline" transform="translate(0 319.80611)"/><use xlink:href="#q" style="display:inline" transform="translate(0 425.70912)"/><use xlink:href="#q" style="display:inline" transform="translate(0 532.34891)"/><use xlink:href="#q" style="display:inline" transform="translate(0 639.11526)"/><use xlink:href="#q" style="display:inline" transform="translate(0 745.88162)"/></g><g style="display:inline;opacity:.5;stroke-width:.895884" transform="matrix(1.0017698 0 0 1.2437367 -9.8231724 -68.562424)"><path id="r" d="M904.96232 58.7185v859.8066" style="fill:none;fill-opacity:1;stroke:#a4a4a4;stroke-width:.897291;stroke-linecap:round;stroke-linejoin:round;stroke-dasharray:none;stroke-opacity:1"/><use xlink:href="#r" style="stroke-width:.895884" transform="translate(106.18398)"/><use xlink:href="#r" style="stroke-width:.895884" transform="translate(212.36797)"/><use xlink:href="#r" style="stroke-width:.895884" transform="translate(318.55195)"/><use xlink:href="#r" style="stroke-width:.895884" transform="translate(424.73594)"/><use xlink:href="#r" style="stroke-width:.895884" transform="translate(530.91993)"/><use xlink:href="#r" style="stroke-width:.895884" transform="translate(637.10391)"/><use xlink:href="#r" style="stroke-width:.895884" transform="translate(743.2879)"/><use xlink:href="#r" style="stroke-width:.895884" transform="translate(849.47188)"/><use xlink:href="#r" style="stroke-width:.895884" transform="translate(-106.18399)"/><use xlink:href="#r" style="stroke-width:.895884" transform="translate(-212.36797)"/><use xlink:href="#r" style="stroke-width:.895884" transform="translate(-318.55196)"/><use xlink:href="#r" style="stroke-width:.895884" transform="translate(-424.73595)"/><use xlink:href="#r" style="stroke-width:.895884" transform="translate(-530.91993)"/><use xlink:href="#r" style="stroke-width:.895884" transform="translate(-637.10392)"/><use xlink:href="#r" style="stroke-width:.895884" transform="translate(-743.2879)"/></g></g><path d="M0-1.078125V1073.1886l1897.3438.3769-.094-1073.9405zm46 63.302734h1808V700.74219h-206.2266c-3.2531 0-5.8711 2.61993-5.8711 5.87304v100.90039h-420.3359c-3.2531 0-5.873 2.61994-5.873 5.87305V914.5h-106.0098V813.38867c0-3.25311-2.4988-5.87305-5.752-5.87305h-94.6504c-3.2531 0-5.871 2.61994-5.871 5.87305v207.67383H683.94922V814.80273c0-3.25311-4.91681-6.93359-8.16992-6.93359h-97.89649V706.26172c0-3.25312-4.9168-4.10547-8.16992-4.10547H46ZM1228.4531 380.42383c-7.5582 0-13.6445 6.08431-13.6445 13.64258v81.60937c0 7.55827 6.0863 13.64258 13.6445 13.64258H1309c7.5583 0 13.6426-6.08431 13.6426-13.64258v-81.60937c0-7.55827-6.0843-13.64258-13.6426-13.64258z" style="display:inline;fill:#a6a09c;fill-opacity:1;stroke:none;stroke-width:5;stroke-linecap:square;stroke-linejoin:round;stroke-dasharray:none"/><g style="display:inline"><path d="M696.06846 808.50959h83.88713c11.99268-.41997 11.07138 12.12676 11.07138 12.12676V903.606c0 10.25249-10.68731 10.93573-10.68731 10.93573h-86.10387c-8.19194-.39989-9.50539-9.76067-9.50539-9.76067v-84.15612s-.0749-12.11535 11.33806-12.11535z" style="opacity:1;mix-blend-mode:normal;fill:#f55948;fill-opacity:1;stroke-width:7.55906;stroke-linecap:round;stroke-linejoin:round;stroke-dasharray:7.55906,15.1181" transform="translate(105.54946 106.39944)"/><g style="display:inline" transform="translate(105.41468987 104.4165064)"><circle cx="722.94879" cy="854.53064" r="3.4077702" style="fill:#272727;fill-opacity:1;stroke:none;stroke-width:3.77953;stroke-linecap:round;stroke-linejoin:round;stroke-dasharray:none;stroke-dashoffset:0;stroke-opacity:1"/><circle cx="753.09442" cy="854.53064" r="3.4077702" style="fill:#272727;fill-opacity:1;stroke:none;stroke-width:3.77953;stroke-linecap:round;stroke-linejoin:round;stroke-dasharray:none;stroke-dashoffset:0;stroke-opacity:1"/><path d="M724.25957 873.99424h27.39322" style="fill:none;fill-opacity:1;stroke:#222;stroke-width:3.77953;stroke-linecap:round;stroke-linejoin:round;stroke-dasharray:none;stroke-dashoffset:0;stroke-opacity:1"/></g></g><g style="display:inline"><path d="M696.06846 808.50959h83.88713c11.99268-.41997 11.07138 12.12676 11.07138 12.12676V903.606c0 10.25249-10.68731 10.93573-10.68731 10.93573h-86.10387c-8.19194-.39989-9.50539-9.76067-9.50539-9.76067v-84.15612s-.0749-12.11535 11.33806-12.11535z" style="opacity:1;mix-blend-mode:normal;fill:#f5a633;fill-opacity:1;stroke-width:7.55906;stroke-linecap:round;stroke-linejoin:round;stroke-dasharray:7.55906,15.1181" transform="rotate(-.322802 19693.243 1034.2514)"/><g style="display:inline" transform="rotate(-.322802 19341.3504 1059.16383568)"><circle cx="722.94879" cy="854.53064" r="3.4077702" style="fill:#272727;fill-opacity:1;stroke:none;stroke-width:3.77953;stroke-linecap:round;stroke-linejoin:round;stroke-dasharray:none;stroke-dashoffset:0;stroke-opacity:1"/><circle cx="753.09442" cy="854.53064" r="3.4077702" style="fill:#272727;fill-opacity:1;stroke:none;stroke-width:3.77953;stroke-linecap:round;stroke-linejoin:round;stroke-dasharray:none;stroke-dashoffset:0;stroke-opacity:1"/><path d="M724.25957 873.99424h27.39322" style="fill:none;fill-opacity:1;stroke:#222;stroke-width:3.77953;stroke-linecap:round;stroke-linejoin:round;stroke-dasharray:none;stroke-dashoffset:0;stroke-opacity:1"/></g></g></g><g style="display:inline"><path d="M1215.2578 325.34985c-.2497.0133-.4982.004-.748.0195-36.9116.18001-72.3509 24.34813-85.4688 58.96289-19.9752 46.05549-17.2792 97.91094-10.8926 146.58008 5.4303 37.1181 15.0623 73.48947 26.4532 109.1875l36.1386-11.06445c-19.8342-62.92221-34.8993-129.42989-26.6894-195.69922 3.5964-26.46267 14.9996-56.58517 42.0703-66.65234 6.2724-2.2613 12.6791-3.35659 19.1367-3.6875z" style="display:inline;opacity:.821;fill:url(#s);fill-opacity:1;stroke-linecap:square;stroke-linejoin:round"/><g style="display:inline;stroke-width:4.90546;stroke-dasharray:none"><path d="M667.30779 896.02379c-3.14563 11.00972 4.627 26.34344 22.54371 25.95147M655.08705 907.58779c-3.14563 11.00972 4.627 26.34344 22.54371 25.95147" style="fill:none;fill-opacity:1;stroke:#fff;stroke-width:4.90546;stroke-linecap:round;stroke-linejoin:round;stroke-dasharray:none;stroke-dashoffset:0;stroke-opacity:1" transform="matrix(.77883763 .0242693 -.01862774 .76161864 567.52698 -11.169618)"/></g><g style="display:inline;stroke-width:3.66778;stroke-dasharray:none"><path d="M667.30779 896.02379c-3.14563 11.00972 4.627 26.34344 22.54371 25.95147M655.08705 907.58779c-3.14563 11.00972 4.627 26.34344 22.54371 25.95147" style="fill:none;fill-opacity:1;stroke:#fff;stroke-width:3.66778;stroke-linecap:round;stroke-linejoin:round;stroke-dasharray:none;stroke-dashoffset:0;stroke-opacity:1" transform="matrix(-.32275877 .99340712 -.96784902 -.3110448 2005.8666 484.86554)"/></g><g style="opacity:.855;stroke:#333;stroke-width:4.90346;stroke-dasharray:none;stroke-opacity:1"><path d="M1230.6516 580.05857c-1.6104-14.2349 6.32-31.12702 9.4314-36.98777 18.919-35.63507 42.5774-25.41967 47.6424-19.68602 6.8462 7.74989 5.7272 17.7595 1.1187 25.12759-3.7839 6.05002-17.7577 10.47327-26.5463 12.94782-10.5621 2.97394-16.777 6.76125-31.6462 18.59838zM1248.5304 609.21468c5.6011-9.68261 18.5869-16.6467 23.3243-18.89736 28.8046-13.68439 39.2795 3.61285 39.868 9.54391.7957 8.01678-4.5932 13.7899-10.9977 16.29898-5.2587 2.06026-16.3223-1.5875-23.1372-4.07482-8.1903-2.98927-13.9596-3.46831-29.0574-2.87071z" style="fill:#98e3eb;fill-opacity:1;stroke:#333;stroke-width:4.90346;stroke-linecap:round;stroke-linejoin:round;stroke-dasharray:none;stroke-dashoffset:0;stroke-opacity:1" transform="matrix(.76899801 0 0 .77258206 275.88824 134.38771)"/></g><path d="M692.33361 449.26805c-177.57223 68.19083-242.40563-68.9738-201.55955-156.88819 28.44555-64.98607 91.17057-100.26814 173.47447-102.85487 121.81971-3.82867 218.68123 163.07979 60.34385 243.32158L866.7154 675.83268Z" style="opacity:.856;fill:#fff;fill-opacity:1;stroke:#333;stroke-width:5.66929;stroke-linecap:square;stroke-linejoin:round;stroke-dasharray:none;stroke-dashoffset:0;stroke-opacity:1"/><path d="m1035.6841 507.18482 28.2629 36.34983-36.5177-14.50586c-21.6707 45.47828-76.48681 62.54482-155.01778 46.8499-55.05079-11.00225-104.78779-75.23371-57.2331-140.92538 30.47213-42.09396 118.2994-48.77792 161.68669-33.30485 34.77649 12.40224 70.99849 54.69945 58.81899 105.53636z" style="opacity:.855;fill:#fff;fill-opacity:1;stroke:#333;stroke-width:5.66929;stroke-linecap:square;stroke-linejoin:round;stroke-dasharray:none;stroke-dashoffset:0;stroke-opacity:1"/><text xml:space="preserve" x="547.83948" y="324.21494" style="font-weight:700;font-size:80px;line-height:1;font-family:&quot;Corporate Logo ver2&quot;;-inkscape-font-specification:&quot;Corporate Logo ver2 Bold&quot;;text-align:start;letter-spacing:0;word-spacing:0;writing-mode:lr-tb;direction:ltr;text-anchor:start;fill:#fff;fill-opacity:1;stroke:#333;stroke-width:7.55906;stroke-linecap:square;stroke-linejoin:round;stroke-dasharray:none;stroke-dashoffset:0;stroke-opacity:1"><tspan x="547.83948" y="324.21494" style="font-size:80px;fill:#333;fill-opacity:1;stroke:none;stroke-width:7.55906">はやく</tspan><tspan x="547.83948" y="404.21494" style="font-size:80px;fill:#333;fill-opacity:1;stroke:none;stroke-width:7.55906">きてー</tspan></text><text xml:space="preserve" x="824.38361" y="521.28674" style="font-weight:700;font-size:80px;line-height:1;font-family:&quot;Corporate Logo ver2&quot;;-inkscape-font-specification:&quot;Corporate Logo ver2 Bold&quot;;text-align:start;letter-spacing:0;word-spacing:0;writing-mode:lr-tb;direction:ltr;text-anchor:start;fill:#333;fill-opacity:1;stroke:none;stroke-width:7.55906;stroke-linecap:square;stroke-linejoin:round;stroke-dasharray:none;stroke-dashoffset:0;stroke-opacity:1"><tspan x="824.38361" y="521.28674" style="font-size:80px">ムリ～</tspan></text><g style="display:inline"><path d="M696.06896 808.51037c-11.41296 0-11.33789 12.11523-11.33789 12.11523v84.15625s1.31196 9.35988 9.5039 9.75977c64.12927-1.60024 127.71801 0 192.00782 0 0 0 10.6875-.68306 10.6875-10.93555v-82.96875s.92041-12.54692-11.07227-12.12695c-63.38173 1.61209-126.3185.00057-189.78906 0z" style="opacity:1;mix-blend-mode:normal;fill:#4294dd;fill-opacity:1;stroke-width:7.55906;stroke-linecap:round;stroke-linejoin:round;stroke-dasharray:7.55906,15.1181" transform="translate(422.71154 -104.38415)"/><g style="display:inline" transform="translate(475.528743 -106.3667485)"><circle cx="722.94879" cy="854.53064" r="3.4077702" style="fill:#272727;fill-opacity:1;stroke:none;stroke-width:3.77953;stroke-linecap:round;stroke-linejoin:round;stroke-dasharray:none;stroke-dashoffset:0;stroke-opacity:1"/><circle cx="753.09442" cy="854.53064" r="3.4077702" style="fill:#272727;fill-opacity:1;stroke:none;stroke-width:3.77953;stroke-linecap:round;stroke-linejoin:round;stroke-dasharray:none;stroke-dashoffset:0;stroke-opacity:1"/><path d="M724.25957 873.99424h27.39322" style="fill:none;fill-opacity:1;stroke:#222;stroke-width:3.77953;stroke-linecap:round;stroke-linejoin:round;stroke-dasharray:none;stroke-dashoffset:0;stroke-opacity:1"/></g></g><path d="M1225.8654 272.35312h86.508c12.3675-.43019 11.4174 12.42211 11.4174 12.42211v84.99039c0 10.50219-11.0212 11.20206-11.0212 11.20206h-88.7942c-8.4478-.40962-9.8025-9.99839-9.8025-9.99839v-86.20574s-.077-12.41043 11.6925-12.41043z" style="display:inline;mix-blend-mode:normal;fill:#3f74a3;fill-opacity:.20403;stroke:#4294dd;stroke-width:7.55906;stroke-linecap:round;stroke-linejoin:round;stroke-dasharray:7.55906,22.6772;stroke-dashoffset:0;stroke-opacity:1"/><g style="display:inline"><path d="M696.06846 808.50959h83.88713c11.99268-.41997 11.07138 12.12676 11.07138 12.12676-3.96939 27.88094-6.84116 55.69983 0 82.96965 0 10.25249-10.68731 10.93573-10.68731 10.93573h-86.10387c-8.19194-.39989-9.50539-9.76067-9.50539-9.76067-5.94853-26.37278-2.30144-55.45439 0-84.15612 0 0-.0749-12.11535 11.33806-12.11535z" style="opacity:1;mix-blend-mode:normal;fill:#4294dd;fill-opacity:1;stroke-width:7.55906;stroke-linecap:round;stroke-linejoin:round;stroke-dasharray:7.55906,15.1181" transform="rotate(-10.800795 -301.34756 -1373.1549)"/><g style="display:inline" transform="rotate(-10.800795 -308.98872957 -1358.51411873)"><circle cx="722.94879" cy="854.53064" r="3.4077702" style="fill:#272727;fill-opacity:1;stroke:none;stroke-width:3.77953;stroke-linecap:round;stroke-linejoin:round;stroke-dasharray:none;stroke-dashoffset:0;stroke-opacity:1"/><circle cx="753.09442" cy="854.53064" r="3.4077702" style="fill:#272727;fill-opacity:1;stroke:none;stroke-width:3.77953;stroke-linecap:round;stroke-linejoin:round;stroke-dasharray:none;stroke-dashoffset:0;stroke-opacity:1"/><path d="M724.25957 873.99424h27.39322" style="fill:none;fill-opacity:1;stroke:#222;stroke-width:3.77953;stroke-linecap:round;stroke-linejoin:round;stroke-dasharray:none;stroke-dashoffset:0;stroke-opacity:1"/></g></g><path d="M1114.318 684.65972c27.018-3.51458 43.5357 18.14015 32.0863 23.80882l85.1403-1.8803c-18.4818-3.99759-42.3567-10.57562-43.4703-38.21903z" style="fill:#4294dd;fill-opacity:1;stroke:none;stroke-width:38.1732;stroke-linecap:square;stroke-linejoin:round;stroke-dasharray:none;stroke-opacity:1"/><g style="display:inline"><path d="M696.06846 805.00959c26.34113-5.95618 56.24852-7.48333 83.88713 0 11.58297 3.13616 11.07138 12.12676 11.07138 12.12676V900.106c0 10.25249-10.68731 10.93573-10.68731 10.93573-32.21643-8.98313-59.84601-6.24433-86.10387 0-8.19194-.39989-9.50539-9.76067-9.50539-9.76067v-84.15612s.20613-9.59823 11.33806-12.11535z" style="opacity:1;mix-blend-mode:normal;fill:#4294dd;fill-opacity:1;stroke-width:7.55906;stroke-linecap:round;stroke-linejoin:round;stroke-dasharray:7.55906,15.1181" transform="translate(212.72672 95.894118)"/><g style="display:inline" transform="translate(212.59194987 85.9111844)"><circle cx="722.94879" cy="854.53064" r="3.4077702" style="fill:#272727;fill-opacity:1;stroke:none;stroke-width:3.77953;stroke-linecap:round;stroke-linejoin:round;stroke-dasharray:none;stroke-dashoffset:0;stroke-opacity:1"/><circle cx="753.09442" cy="854.53064" r="3.4077702" style="fill:#272727;fill-opacity:1;stroke:none;stroke-width:3.77953;stroke-linecap:round;stroke-linejoin:round;stroke-dasharray:none;stroke-dashoffset:0;stroke-opacity:1"/><path d="M724.25957 873.99424h27.39322" style="fill:none;fill-opacity:1;stroke:#222;stroke-width:3.77953;stroke-linecap:round;stroke-linejoin:round;stroke-dasharray:none;stroke-dashoffset:0;stroke-opacity:1"/></g></g></g></svg>