<svg xmlns="http://www.w3.org/2000/svg" xmlns:xlink="http://www.w3.org/1999/xlink" xml:space="preserve" width="1904" height="1072"><g style="display:inline"><g style="display:inline"><g style="display:inline;opacity:.5" transform="translate(6.959014 .98241)"><path id="a" d="M41.942602 170.44331H1858.8889" style="display:inline;fill:none;fill-opacity:1;stroke:#a4a4a4;stroke-width:1.00157;stroke-linecap:round;stroke-linejoin:round;stroke-dasharray:none;stroke-opacity:1"/><use xlink:href="#a" style="display:inline" transform="translate(0 106.3602)"/><use xlink:href="#a" style="display:inline" transform="translate(0 212.72041)"/><use xlink:href="#a" style="display:inline" transform="translate(0 319.08061)"/><use xlink:href="#a" style="display:inline" transform="translate(0 425.44081)"/><use xlink:href="#a" style="display:inline" transform="translate(0 531.80101)"/><use xlink:href="#a" style="display:inline" transform="translate(0 638.16122)"/></g><g style="display:inline;opacity:.5;stroke-width:.896677" transform="matrix(1 0 0 1.2437367 .959014 -67.93357)"><path id="b" d="M897.60883 58.7185v859.8066" style="fill:none;fill-opacity:1;stroke:#a4a4a4;stroke-width:.898084;stroke-linecap:round;stroke-linejoin:round;stroke-dasharray:none;stroke-opacity:1"/><use xlink:href="#b" style="stroke-width:.896677" transform="translate(106.94548)"/><use xlink:href="#b" style="stroke-width:.896677" transform="translate(213.89096)"/><use xlink:href="#b" style="stroke-width:.896677" transform="translate(320.83645)"/><use xlink:href="#b" style="stroke-width:.896677" transform="translate(427.78193)"/><use xlink:href="#b" style="stroke-width:.896677" transform="translate(534.72742)"/><use xlink:href="#b" style="stroke-width:.896677" transform="translate(641.6729)"/><use xlink:href="#b" style="stroke-width:.896677" transform="translate(748.61839)"/><use xlink:href="#b" style="stroke-width:.896677" transform="translate(855.56387)"/><use xlink:href="#b" style="stroke-width:.896677" transform="translate(-106.94549)"/><use xlink:href="#b" style="stroke-width:.896677" transform="translate(-213.89097)"/><use xlink:href="#b" style="stroke-width:.896677" transform="translate(-320.83646)"/><use xlink:href="#b" style="stroke-width:.896677" transform="translate(-427.78194)"/><use xlink:href="#b" style="stroke-width:.896677" transform="translate(-534.72743)"/><use xlink:href="#b" style="stroke-width:.896677" transform="translate(-641.67291)"/><use xlink:href="#b" style="stroke-width:.896677" transform="translate(-748.6184)"/></g></g><path d="M-6-2v1078h1912V-2Zm54.492188 67.75H1859.3789v850.49219H48.492188ZM262.66016 172.12109c-3.29832 0-5.95313 2.65481-5.95313 5.95313l.0156 625.51953c0 3.34764 2.69534 6.04347 6.04296 6.04297l1378.83401-.20703c3.301-.0005 5.959-2.65606 5.959-5.95703 0 0-.1003-433.0343-.377-625.39844 0-3.29832-2.6548-5.95313-5.9531-5.95313zm101.6289 106.1211H1540.7852v104.30273h-316.1329c-3.2983 0-5.9531 2.65481-5.9531 5.95313v203.05273c0 3.29832 2.6548 5.95508 5.9531 5.95508h208.1094v105.60742H364.28906V597.13477h100.39258c3.32535 0 6.00195-2.67856 6.00195-6.00391V387.83984c0-3.32535-2.6766-6.00195-6.00195-6.00195H364.28906ZM690.75781 384.3125c-3.28194 0-5.92578 2.64189-5.92578 5.92383V590.875c0 3.28194 2.64384 5.92383 5.92578 5.92383h416.30469c3.2819 0 5.9238-2.64189 5.9238-5.92383V390.23633c0-3.28194-2.6419-5.92383-5.9238-5.92383z" style="fill:#acaca7;fill-opacity:1;stroke:none;stroke-width:6.04724;stroke-linecap:round;stroke-linejoin:round"/><g style="display:inline;stroke-width:.994172"><path d="M696.06846 808.50959h83.88713c11.99268-.41997 11.07138 12.12676 11.07138 12.12676V903.606c0 10.25249-10.68731 10.93573-10.68731 10.93573h-86.10387c-8.19194-.39989-9.50539-9.76067-9.50539-9.76067v-84.15612s-.0749-12.11535 11.33806-12.11535z" style="opacity:1;mix-blend-mode:normal;fill:#0a9adc;fill-opacity:1;stroke-width:7.51501;stroke-linecap:round;stroke-linejoin:round;stroke-dasharray:7.51501,15.03" transform="matrix(1.0117577 0 0 1 740.19591 -531.67175)"/><g style="display:inline;stroke-width:.994172" transform="matrix(1.0117577 0 0 1 740.05955528 -533.6546836)"><circle cx="722.94879" cy="854.53064" r="3.4077702" style="fill:#272727;fill-opacity:1;stroke:none;stroke-width:3.7575;stroke-linecap:round;stroke-linejoin:round;stroke-dasharray:none;stroke-dashoffset:0;stroke-opacity:1"/><circle cx="753.09442" cy="854.53064" r="3.4077702" style="fill:#272727;fill-opacity:1;stroke:none;stroke-width:3.7575;stroke-linecap:round;stroke-linejoin:round;stroke-dasharray:none;stroke-dashoffset:0;stroke-opacity:1"/><path d="M724.25957 873.99424h27.39322" style="fill:none;fill-opacity:1;stroke:#222;stroke-width:3.7575;stroke-linecap:round;stroke-linejoin:round;stroke-dasharray:none;stroke-dashoffset:0;stroke-opacity:1"/></g></g><g style="display:inline;stroke-width:1.0107"><path d="M696.06846 808.50959h83.88713c11.99268-.41997 11.07138 12.12676 11.07138 12.12676V903.606c0 10.25249-10.68731 10.93573-10.68731 10.93573h-86.10387c-8.19194-.39989-9.50539-9.76067-9.50539-9.76067v-84.15612s-.0749-12.11535 11.33806-12.11535z" style="opacity:1;mix-blend-mode:normal;fill:#febc46;fill-opacity:1;stroke-width:7.63997;stroke-linecap:round;stroke-linejoin:round;stroke-dasharray:7.63997,15.2799" transform="matrix(.99526469 -.00554138 .00560734 .98355667 -321.73513 -513.24815)"/><g style="display:inline;stroke-width:1.0107" transform="matrix(.99526469 -.00554138 .00560734 .98355667 -321.88038093 -515.19773076)"><circle cx="722.94879" cy="854.53064" r="3.4077702" style="fill:#272727;fill-opacity:1;stroke:none;stroke-width:3.81999;stroke-linecap:round;stroke-linejoin:round;stroke-dasharray:none;stroke-dashoffset:0;stroke-opacity:1"/><circle cx="753.09442" cy="854.53064" r="3.4077702" style="fill:#272727;fill-opacity:1;stroke:none;stroke-width:3.81999;stroke-linecap:round;stroke-linejoin:round;stroke-dasharray:none;stroke-dashoffset:0;stroke-opacity:1"/><path d="M724.25957 873.99424h27.39322" style="fill:none;fill-opacity:1;stroke:#222;stroke-width:3.81999;stroke-linecap:round;stroke-linejoin:round;stroke-dasharray:none;stroke-dashoffset:0;stroke-opacity:1"/></g></g></g><g style="display:inline"><g style="display:inline"><path d="M696.06846 808.50959h83.88713c11.99268-.41997 11.07138 12.12676 11.07138 12.12676V903.606c0 10.25249-10.68731 10.93573-10.68731 10.93573h-86.10387c-8.19194-.39989-9.50539-9.76067-9.50539-9.76067v-84.15612s-.0749-12.11535 11.33806-12.11535z" style="opacity:1;mix-blend-mode:normal;fill:#febc46;fill-opacity:1;stroke-width:7.55906;stroke-linecap:round;stroke-linejoin:round;stroke-dasharray:7.55906,15.1181" transform="rotate(-.322802 -55511.326 -75299.287)"/><g style="display:inline" transform="rotate(-.322802 -55863.2186 -75274.37456432)"><circle cx="722.94879" cy="854.53064" r="3.4077702" style="fill:#272727;fill-opacity:1;stroke:none;stroke-width:3.77953;stroke-linecap:round;stroke-linejoin:round;stroke-dasharray:none;stroke-dashoffset:0;stroke-opacity:1"/><circle cx="753.09442" cy="854.53064" r="3.4077702" style="fill:#272727;fill-opacity:1;stroke:none;stroke-width:3.77953;stroke-linecap:round;stroke-linejoin:round;stroke-dasharray:none;stroke-dashoffset:0;stroke-opacity:1"/><path d="M724.25957 873.99424h27.39322" style="fill:none;fill-opacity:1;stroke:#222;stroke-width:3.77953;stroke-linecap:round;stroke-linejoin:round;stroke-dasharray:none;stroke-dashoffset:0;stroke-opacity:1"/></g></g><g style="display:inline"><path d="M696.06896 808.51037c-11.41296 0-11.33789 12.11523-11.33789 12.11523v84.15625s1.31196 9.35988 9.5039 9.75977c64.12927-1.60024 127.71801 0 192.00782 0 0 0 10.6875-.68306 10.6875-10.93555v-82.96875s.92041-12.54692-11.07227-12.12695c-63.38173 1.61209-126.3185.00057-189.78906 0z" style="opacity:1;mix-blend-mode:normal;fill:#0a9adc;fill-opacity:1;stroke-width:7.55906;stroke-linecap:round;stroke-linejoin:round;stroke-dasharray:7.55906,15.1181" transform="translate(215.1265 -211.56398)"/><g style="display:inline" transform="translate(267.943703 -213.5465785)"><circle cx="722.94879" cy="854.53064" r="3.4077702" style="fill:#272727;fill-opacity:1;stroke:none;stroke-width:3.77953;stroke-linecap:round;stroke-linejoin:round;stroke-dasharray:none;stroke-dashoffset:0;stroke-opacity:1"/><circle cx="753.09442" cy="854.53064" r="3.4077702" style="fill:#272727;fill-opacity:1;stroke:none;stroke-width:3.77953;stroke-linecap:round;stroke-linejoin:round;stroke-dasharray:none;stroke-dashoffset:0;stroke-opacity:1"/><path d="M724.25957 873.99424h27.39322" style="fill:none;fill-opacity:1;stroke:#222;stroke-width:3.77953;stroke-linecap:round;stroke-linejoin:round;stroke-dasharray:none;stroke-dashoffset:0;stroke-opacity:1"/></g></g><g style="display:inline"><path d="M696.06846 808.50959h83.88713c11.99268-.41997 11.07138 12.12676 11.07138 12.12676V903.606c0 10.25249-10.68731 10.93573-10.68731 10.93573h-86.10387c-8.19194-.39989-9.50539-9.76067-9.50539-9.76067v-84.15612s-.0749-12.11535 11.33806-12.11535z" style="opacity:1;mix-blend-mode:normal;fill:#f0673f;fill-opacity:1;stroke-width:7.55906;stroke-linecap:round;stroke-linejoin:round;stroke-dasharray:7.55906,15.1181" transform="translate(428.2939 -424.4587)"/><g style="display:inline" transform="translate(428.15912987 -426.4416336)"><circle cx="722.94879" cy="854.53064" r="3.4077702" style="fill:#272727;fill-opacity:1;stroke:none;stroke-width:3.77953;stroke-linecap:round;stroke-linejoin:round;stroke-dasharray:none;stroke-dashoffset:0;stroke-opacity:1"/><circle cx="753.09442" cy="854.53064" r="3.4077702" style="fill:#272727;fill-opacity:1;stroke:none;stroke-width:3.77953;stroke-linecap:round;stroke-linejoin:round;stroke-dasharray:none;stroke-dashoffset:0;stroke-opacity:1"/><path d="M724.25957 873.99424h27.39322" style="fill:none;fill-opacity:1;stroke:#222;stroke-width:3.77953;stroke-linecap:round;stroke-linejoin:round;stroke-dasharray:none;stroke-dashoffset:0;stroke-opacity:1"/></g></g><g style="display:inline"><path d="M696.06846 808.50959h83.88713c11.99268-.41997 11.07138 12.12676 11.07138 12.12676V903.606c0 10.25249-10.68731 10.93573-10.68731 10.93573h-86.10387c-8.19194-.39989-9.50539-9.76067-9.50539-9.76067v-84.15612s-.0749-12.11535 11.33806-12.11535z" style="opacity:1;mix-blend-mode:normal;fill:#f0673f;fill-opacity:1;stroke-width:7.55906;stroke-linecap:round;stroke-linejoin:round;stroke-dasharray:7.55906,15.1181" transform="translate(427.64746 -211.97785)"/><g style="display:inline" transform="translate(427.51268987 -213.9607836)"><circle cx="722.94879" cy="854.53064" r="3.4077702" style="fill:#272727;fill-opacity:1;stroke:none;stroke-width:3.77953;stroke-linecap:round;stroke-linejoin:round;stroke-dasharray:none;stroke-dashoffset:0;stroke-opacity:1"/><circle cx="753.09442" cy="854.53064" r="3.4077702" style="fill:#272727;fill-opacity:1;stroke:none;stroke-width:3.77953;stroke-linecap:round;stroke-linejoin:round;stroke-dasharray:none;stroke-dashoffset:0;stroke-opacity:1"/><path d="M724.25957 873.99424h27.39322" style="fill:none;fill-opacity:1;stroke:#222;stroke-width:3.77953;stroke-linecap:round;stroke-linejoin:round;stroke-dasharray:none;stroke-dashoffset:0;stroke-opacity:1"/></g></g><path d="m1228.4767 277.17363 83.8858-.47261c11.9901-.48753 11.1395 12.06419 11.1395 12.06419l.4675 82.96834c.058 10.25232-10.6255 10.99576-10.6255 10.99576l-86.1025.48511c-8.1941-.35373-9.5603-9.70697-9.5603-9.70697l-.4741-84.15478s-.1432-12.11474 11.2696-12.17904z" style="display:inline;mix-blend-mode:normal;fill:#febc46;fill-opacity:.2;stroke:#feab1a;stroke-width:6.04724;stroke-linecap:round;stroke-linejoin:round;stroke-dasharray:6.04724,18.1417;stroke-dashoffset:0;stroke-opacity:1"/><path d="M1337.2523 276.36386h83.8871c11.9927-.41997 11.0714 12.12676 11.0714 12.12676v82.96965c0 10.25249-10.6873 10.93573-10.6873 10.93573h-86.1039c-8.1919-.39989-9.5054-9.76067-9.5054-9.76067v-84.15612s-.075-12.11535 11.3381-12.11535z" style="display:inline;mix-blend-mode:normal;fill:#f0673f;fill-opacity:.2;stroke:#f0673f;stroke-width:6.04724;stroke-linecap:round;stroke-linejoin:round;stroke-dasharray:6.04724,18.1417;stroke-dashoffset:0;stroke-opacity:1"/><path d="M1438.3688 340.42283h-390.9067" style="fill:none;fill-opacity:1;stroke:#0a9adc;stroke-width:15.1181;stroke-linecap:round;stroke-linejoin:round;stroke-dasharray:none;stroke-dashoffset:0;stroke-opacity:1"/><path d="m1055.7721 326.67284-15.5 13.5 15.5 13" style="fill:none;fill-opacity:1;stroke:#0a9adc;stroke-width:7.55906;stroke-linecap:round;stroke-linejoin:round;stroke-dasharray:none;stroke-dashoffset:0;stroke-opacity:1"/><g style="display:inline;stroke-width:1.46071"><path d="M789.05078 414.29297c-10.69517-.0681-16.11621 28.67976-25.80273 16.73999 2.70767-12.77433-12.87074-9.6863-18.12305-16.40796-6.04437.59429-14.42331-2.30253-17.32617 4.89453-3.86057-6.95517-18.71846-7.12511-22.58203 0-7.99304-1.85001-14.33958 4.40742-12.55469 12.43456-7.07759 3.60782-8.00776 20.38826 1.10351 22.68263 1.89849 2.70539.19828 9.00948.77735 13.03429 2.22549 9.14847-3.42919 12.03198-7.54717 18.25246-1.24866 4.46643 12.53468 8.12781 2.45028 9.89094-5.61716 10.51813 2.86036 19.08703 3.19064 28.04887-9.52076 7.00464-5.72328 18.13419 5.08203 22.0293-9.8896 6.28551-13.17427 17.44001-3.01328 24.4876 6.90885 13.24017 16.76463-13.04378 17.7243 1.69398 6.99202 3.68478 15.5183 1.8002 21.97782-1.08977 6.76693-1.24346 11.55922 4.65926 18.45886 2.93555 8.79864 1.59538 10.36861-8.10289 9.40308-14.73473-1.55485-5.85896 2.18843-16.64574 5.69727-15.56385-1.37873 6.4984 3.89191 11.16541 2.48437 17.67175-1.61716 13.38467 15.83697 11.38083 24.90687 11.57447 11.50636.19694 24.52463-5.20464 27.78268-17.2134 7.36586 3.00784 9.0896 17.8793 21.39352 17.2016 16.34415 3.46258 36.56552-7.10778 36.82706-25.32498 2.1688-9.61582-7.03864-19.65595-10.05654-24.31201 3.86968-6.47291 5.20946-21.52329-5.26783-21.91797h-34.00952c-8.78678 2.65238-7.11439 15.32695-4.53214 22.2885 10.39899 2.78177-6.7261 6.07877-6.18856 11.82088-8.84048-6.03603 7.29069-6.80972 3.91797-15.46558 1.71825-7.68264-3.38096-15.07688-11.66784-13.22192-9.64658 3.52955-6.71339-9.80316-16.45179-7.75586-5.97564-1.42891-16.40807 1.99028-15.30811 4.73632-.61349 5.44583-8.16305 2.10685-12.27343 3.01953-4.59599.63067 2.28053-14.77113-7.81055-13.10743 8.66222-4.88416 4.5509-12.54219.4807-17.45638.0674-7.13988-.13407-14.54853.0996-21.52209 9.27528-4.75304 7.78291 7.57762 7.70674 13.36405-.2826 10.2-.82481 23.7557 10.78132 27.99479 13.30552 3.7901 27.39289 1.58348 41.06764 2.1481 9.97187 2.91309 19.42873-9.63617 22.4282-11.36937 12.00551 13.36209 32.09418 10.79647 48.1955 9.54009 8.59025.52765 3.59808-12.95333 6.65429-13.41992 6.70249 7.22052 17.37942 23.69934 27.14063 10.48828 6.52365 11.10256 29.72392 4.2419 29.27167-9.54697 4.90718 11.59686 20.33431-10.28161 18.28715 4.99631 1.17841 12.86534 16.87219 5.77067 23.78121 7.72244 10.12479 4.19263 25.35559.2872 27.17389-11.94336 11.2597 3.1917 9.1959-10.03316 9.2656-16.84571.233-7.39408-17.1015-9.01724-2.2989-11.50983 2.8094-6.21263 2.7689-14.29453 0-20.50768-9.5927.18793-6.7608-14.75186-18.0583-11.67477-8.0125-2.51206-10.1341 6.8905-12.7544 9.82897-7.20228 1.59918-3.96984-12.63836-14.224-9.11132-9.37006-2.11077-15.10929 5.87957-13.84412 15.01562-10.00505-1.14439 2.73867-18.71519-11.10266-18.0293h-15.37391c-1.64529-9.66787-15.13282-7.80279-22.0507-5.15617-.11372 8.66796-9.48212 3.96163-14.88007 5.15617-10.9409-1.05187-5.81263 12.15825-8.29102 16.49219-8.28673.885-20.18352.32135-28.27542 1.77146-1.0732-6.35499-.75207-16.7837-10.10764-15.62693-7.80061-1.62907-17.12187 2.78111-13.68025 11.82045.72329 4.62366 1.44658 9.24731 2.16987 13.87096-8.54298.95578-10.41173 21.11038-12.64648 18.36499v-27.96655c-.23427-12.28525-18.80412-.005-13.45124-12.54677-4.15282-5.06124-10.75677-9.62679-17.633-8.13683-5.54538-1.48869-10.84026-5.11523-17.27423-5.28488l-.75202-.14939zm205.57617 43.80859c5.62875-1.57828-.69497 3.70935 0 0zm-97.73437 1.68946c5.71233 3.72044-4.29763 14.45362-11.22235 12.70903-5.80978 1.65504-30.59303 2.00245-15.94663-5.90012 8.5764-4.60839 19.95641-.0581 27.16898-6.80891zm74.79492.50195c3.23974 7.04776-4.39208-.39705 0 0zm.62891 3.72656c.13082.21229.01.0323 0 0zm-178.64454 9.9707h22.58985c2.24197 2.44135-22.08305 2.40742-22.58985 0zm-64.79492 13.61524c13.44448 4.38795-10.15596 9.61979-3.38544 2.37505 1.3403-.57963 2.37838-1.36247 3.38544-2.37505zm34.8418 38.13672c1.68168 4.14655 14.25266 8.73702 2.15234 4.10547-4.40198-.97092-6.3221.0966-2.15234-4.10547zm33.22852 21.42773c12.53968.7727-17.04323 3.46762-1.81883.24682.60623-.0823 1.21277-.16457 1.81883-.24682z" style="font-weight:700;font-size:75.3055px;line-height:1;font-family:&quot;Corporate Logo ver2&quot;;-inkscape-font-specification:&quot;Corporate Logo ver2 Bold&quot;;letter-spacing:0;word-spacing:0;baseline-shift:baseline;display:inline;overflow:visible;vector-effect:none;fill:#333;stroke-linecap:square;enable-background:accumulate;stop-color:#000;stop-opacity:1"/><text xml:space="preserve" x="690.15125" y="485.31104" style="font-weight:700;font-size:75.3055px;line-height:1;font-family:&quot;Corporate Logo ver2&quot;;-inkscape-font-specification:&quot;Corporate Logo ver2 Bold&quot;;font-variation-settings:normal;text-align:start;letter-spacing:0;word-spacing:0;writing-mode:lr-tb;direction:ltr;text-anchor:start;display:inline;vector-effect:none;fill:#333;fill-opacity:1;stroke:none;stroke-width:1.88976;stroke-linecap:square;stroke-linejoin:miter;stroke-miterlimit:4;stroke-dasharray:none;stroke-dashoffset:0;stroke-opacity:1;-inkscape-stroke:none;stop-color:#000"><tspan x="690.15125" y="485.31104" style="fill:#eee;fill-opacity:1;stroke:none;stroke-width:1.88976;stroke-dasharray:none;stroke-opacity:1"><tspan style="fill:#febc46;fill-opacity:1;stroke-width:1.88976">黄色</tspan>と<tspan style="fill:#f0673f;fill-opacity:1;stroke-width:1.88976">赤</tspan>は</tspan><tspan x="690.15125" y="560.61652" style="fill:#eee;fill-opacity:1;stroke:none;stroke-width:1.88976;stroke-dasharray:none;stroke-opacity:1">落ちる</tspan></text></g><path d="M1097.9648 567.2094c-45.2941 8.79541-19.6972-49.32343-49.1596-62.90026 30.8552-15.38734-2.6355-78.90691 49.1596-75.79106" style="fill:none;fill-opacity:1;stroke:#fff;stroke-width:7.55906;stroke-linecap:round;stroke-linejoin:round;stroke-dasharray:none;stroke-dashoffset:0;stroke-opacity:1"/></g></svg>