<svg xmlns="http://www.w3.org/2000/svg" xmlns:xlink="http://www.w3.org/1999/xlink" xml:space="preserve" width="1904" height="1072"><g style="display:inline"><g style="display:inline;opacity:.5" transform="translate(6.959014 -2.55312)"><path id="a" d="M271.9426 170.41206h1524.9463" style="display:inline;fill:none;fill-opacity:1;stroke:#a4a4a4;stroke-width:1.00157;stroke-linecap:round;stroke-linejoin:round;stroke-dasharray:none;stroke-opacity:1"/><use xlink:href="#a" style="display:inline;stroke-width:1.09156" transform="translate(0 106.82895)"/><use xlink:href="#a" style="display:inline;stroke-width:1.09156" transform="translate(0 213.65791)"/><use xlink:href="#a" style="display:inline;stroke-width:1.09156" transform="translate(0 320.48686)"/><use xlink:href="#a" style="display:inline;stroke-width:1.09156" transform="translate(0 427.31581)"/><use xlink:href="#a" style="display:inline;stroke-width:1.09156" transform="translate(0 534.14477)"/><use xlink:href="#a" style="display:inline;stroke-width:1.09156" transform="translate(0 640.97372)"/></g><g style="display:inline;opacity:.5;stroke-width:.896677" transform="matrix(1 0 0 1.2437367 .959014 -71.4691)"><path id="b" d="M897.2366 68.365534V904.05389" style="fill:none;fill-opacity:1;stroke:#a4a4a4;stroke-width:.898084;stroke-linecap:round;stroke-linejoin:round;stroke-dasharray:none;stroke-opacity:1"/><use xlink:href="#b" style="stroke-width:.909524" transform="translate(106.77104)"/><use xlink:href="#b" style="stroke-width:.909524" transform="translate(213.54209)"/><use xlink:href="#b" style="stroke-width:.909524" transform="translate(320.31313)"/><use xlink:href="#b" style="stroke-width:.909524" transform="translate(427.08417)"/><use xlink:href="#b" style="stroke-width:.909524" transform="translate(533.85521)"/><use xlink:href="#b" style="stroke-width:.909524" transform="translate(640.62625)"/><use xlink:href="#b" style="stroke-width:.909524" transform="translate(747.39729)"/><use xlink:href="#b" style="stroke-width:.909524" transform="translate(-106.77104)"/><use xlink:href="#b" style="stroke-width:.909524" transform="translate(-213.54208)"/><use xlink:href="#b" style="stroke-width:.909524" transform="translate(-320.31312)"/><use xlink:href="#b" style="stroke-width:.909524" transform="translate(-427.08416)"/></g><path d="M-11.314453-5.65625V1078H1005.25V927c0-7.202-5.798-13.00481-13-13l-93.5.0625v-39.88281c0-7.16303-5.76666-12.92969-12.92969-12.92969H791.75v-39.77344c0-7.18927-5.78729-12.97656-12.97656-12.97656h-414.1875V488.29297h305.17578c8.31 0 15-6.69 15-15V60.896484h960.67578V274.35742h-319.9648v-41.36523c0-6.46367-5.2043-11.66797-11.668-11.66797h-84.1465c-6.4637 0-11.666 5.2043-11.666 11.66797v41.36523h-93.1211c-6.9757 0-12.5918 5.61613-12.5918 12.5918v134.62305c0 6.97567 5.6161 12.59179 12.5918 12.59179h627.6934V916h-107.0333V552c0-7.202-5.798-13-13-13H1125c-7.202 0-13 5.798-13 13v526h798V-5.65625Z" style="display:inline;fill:#9e999c;fill-opacity:1;stroke:none;stroke-width:37.7953;stroke-linecap:square;stroke-linejoin:round"/><g style="display:inline"><path d="M696.06846 808.50959h83.88713c11.99268-.41997 11.07138 12.12676 11.07138 12.12676V903.606c0 10.25249-10.68731 10.93573-10.68731 10.93573h-86.10387c-8.19194-.39989-9.50539-9.76067-9.50539-9.76067v-84.15612s-.0749-12.11535 11.33806-12.11535z" style="opacity:1;mix-blend-mode:normal;fill:#ff9a61;fill-opacity:1;stroke-width:7.55906;stroke-linecap:round;stroke-linejoin:round;stroke-dasharray:7.55906,15.1181" transform="translate(640.7696 -640.21375)"/><g style="display:inline" transform="translate(640.63482987 -642.1966836)"><circle cx="722.94879" cy="854.53064" r="3.4077702" style="fill:#272727;fill-opacity:1;stroke:none;stroke-width:3.77953;stroke-linecap:round;stroke-linejoin:round;stroke-dasharray:none;stroke-dashoffset:0;stroke-opacity:1"/><circle cx="753.09442" cy="854.53064" r="3.4077702" style="fill:#272727;fill-opacity:1;stroke:none;stroke-width:3.77953;stroke-linecap:round;stroke-linejoin:round;stroke-dasharray:none;stroke-dashoffset:0;stroke-opacity:1"/><path d="M724.25957 873.99424h27.39322" style="fill:none;fill-opacity:1;stroke:#222;stroke-width:3.77953;stroke-linecap:round;stroke-linejoin:round;stroke-dasharray:none;stroke-dashoffset:0;stroke-opacity:1"/></g></g><g style="display:inline"><path d="M696.06846 808.50959h83.88713c11.99268-.41997 11.07138 12.12676 11.07138 12.12676V903.606c0 10.25249-10.68731 10.93573-10.68731 10.93573h-86.10387c-8.19194-.39989-9.50539-9.76067-9.50539-9.76067v-84.15612s-.0749-12.11535 11.33806-12.11535z" style="opacity:1;mix-blend-mode:normal;fill:#ff9a61;fill-opacity:1;stroke-width:7.55906;stroke-linecap:round;stroke-linejoin:round;stroke-dasharray:7.55906,15.1181" transform="translate(854.48006 -640.3602)"/><g style="display:inline" transform="translate(854.34528987 -642.3431336)"><circle cx="722.94879" cy="854.53064" r="3.4077702" style="fill:#272727;fill-opacity:1;stroke:none;stroke-width:3.77953;stroke-linecap:round;stroke-linejoin:round;stroke-dasharray:none;stroke-dashoffset:0;stroke-opacity:1"/><circle cx="753.09442" cy="854.53064" r="3.4077702" style="fill:#272727;fill-opacity:1;stroke:none;stroke-width:3.77953;stroke-linecap:round;stroke-linejoin:round;stroke-dasharray:none;stroke-dashoffset:0;stroke-opacity:1"/><path d="M724.25957 873.99424h27.39322" style="fill:none;fill-opacity:1;stroke:#222;stroke-width:3.77953;stroke-linecap:round;stroke-linejoin:round;stroke-dasharray:none;stroke-dashoffset:0;stroke-opacity:1"/></g></g><path d="M1016.7258 488.33488h83.8871c11.9927-.41997 11.0714 12.12676 11.0714 12.12676v575.11586l-106.2966 1.1751V500.45023s-.075-12.11535 11.3381-12.11535z" style="display:inline;opacity:1;mix-blend-mode:normal;fill:#ff9a61;fill-opacity:1;stroke-width:7.55906;stroke-linecap:round;stroke-linejoin:round;stroke-dasharray:7.55906,15.1181"/><g style="display:inline;stroke-width:.993017"><path d="M696.06846 808.50959h83.88713c11.99268-.41997 11.07138 12.12676 11.07138 12.12676V903.606c0 10.25249-10.68731 10.93573-10.68731 10.93573h-86.10387c-8.19194-.39989-9.50539-9.76067-9.50539-9.76067v-84.15612s-.0749-12.11535 11.33806-12.11535z" style="opacity:1;mix-blend-mode:normal;fill:#c5bd1e;fill-opacity:1;stroke-width:7.50627;stroke-linecap:round;stroke-linejoin:round;stroke-dasharray:7.50627,15.0125" transform="matrix(1.0046673 -.00568682 .00566032 1.0093713 952.99704 -3.2079627)"/><g style="display:inline;stroke-width:.993017" transform="matrix(1.0046673 -.00568682 .00566032 1.0093713 952.85041682 -5.20871255)"><circle cx="722.94879" cy="854.53064" r="3.4077702" style="fill:#272727;fill-opacity:1;stroke:none;stroke-width:3.75314;stroke-linecap:round;stroke-linejoin:round;stroke-dasharray:none;stroke-dashoffset:0;stroke-opacity:1"/><circle cx="753.09442" cy="854.53064" r="3.4077702" style="fill:#272727;fill-opacity:1;stroke:none;stroke-width:3.75314;stroke-linecap:round;stroke-linejoin:round;stroke-dasharray:none;stroke-dashoffset:0;stroke-opacity:1"/><path d="M724.25957 873.99424h27.39322" style="fill:none;fill-opacity:1;stroke:#222;stroke-width:3.75314;stroke-linecap:round;stroke-linejoin:round;stroke-dasharray:none;stroke-dashoffset:0;stroke-opacity:1"/></g></g><g style="display:inline;stroke-width:.993017"><path d="M696.06846 808.50959h83.88713c11.99268-.41997 11.07138 12.12676 11.07138 12.12676V903.606c0 10.25249-10.68731 10.93573-10.68731 10.93573h-86.10387c-8.19194-.39989-9.50539-9.76067-9.50539-9.76067v-84.15612s-.0749-12.11535 11.33806-12.11535z" style="opacity:1;mix-blend-mode:normal;fill:#c5bd1e;fill-opacity:1;stroke-width:7.50627;stroke-linecap:round;stroke-linejoin:round;stroke-dasharray:7.50627,15.0125" transform="matrix(1.0046673 -.00568682 .00566032 1.0093713 -114.64846 -110.52398)"/><g style="display:inline;stroke-width:.993017" transform="matrix(1.0046673 -.00568682 .00566032 1.0093713 -114.79508318 -112.52472985)"><circle cx="722.94879" cy="854.53064" r="3.4077702" style="fill:#272727;fill-opacity:1;stroke:none;stroke-width:3.75314;stroke-linecap:round;stroke-linejoin:round;stroke-dasharray:none;stroke-dashoffset:0;stroke-opacity:1"/><circle cx="753.09442" cy="854.53064" r="3.4077702" style="fill:#272727;fill-opacity:1;stroke:none;stroke-width:3.75314;stroke-linecap:round;stroke-linejoin:round;stroke-dasharray:none;stroke-dashoffset:0;stroke-opacity:1"/><path d="M724.25957 873.99424h27.39322" style="fill:none;fill-opacity:1;stroke:#222;stroke-width:3.75314;stroke-linecap:round;stroke-linejoin:round;stroke-dasharray:none;stroke-dashoffset:0;stroke-opacity:1"/></g></g><g style="display:inline;stroke-width:.993017"><path d="M696.06846 808.50959h83.88713c11.99268-.41997 11.07138 12.12676 11.07138 12.12676V903.606c0 10.25249-10.68731 10.93573-10.68731 10.93573h-86.10387c-8.19194-.39989-9.50539-9.76067-9.50539-9.76067v-84.15612s-.0749-12.11535 11.33806-12.11535z" style="opacity:1;mix-blend-mode:normal;fill:#c5bd1e;fill-opacity:1;stroke-width:7.50627;stroke-linecap:round;stroke-linejoin:round;stroke-dasharray:7.50627,15.0125" transform="matrix(1.0046673 -.00568682 .00566032 1.0093713 -328.5878 -110.55431)"/><g style="display:inline;stroke-width:.993017" transform="matrix(1.0046673 -.00568682 .00566032 1.0093713 -328.73442318 -112.55505985)"><circle cx="722.94879" cy="854.53064" r="3.4077702" style="fill:#272727;fill-opacity:1;stroke:none;stroke-width:3.75314;stroke-linecap:round;stroke-linejoin:round;stroke-dasharray:none;stroke-dashoffset:0;stroke-opacity:1"/><circle cx="753.09442" cy="854.53064" r="3.4077702" style="fill:#272727;fill-opacity:1;stroke:none;stroke-width:3.75314;stroke-linecap:round;stroke-linejoin:round;stroke-dasharray:none;stroke-dashoffset:0;stroke-opacity:1"/><path d="M724.25957 873.99424h27.39322" style="fill:none;fill-opacity:1;stroke:#222;stroke-width:3.75314;stroke-linecap:round;stroke-linejoin:round;stroke-dasharray:none;stroke-dashoffset:0;stroke-opacity:1"/></g></g></g><g style="display:inline"><path d="M628.76723 858.14088c-53.94429 18.15391-111.73637 17.62439-167.79117 14.76594-46.64056-3.05843-93.53114-21.13677-125.04682-57.74755-30.45048-31.70072-44.91901-84.28534-21.63516-124.38554 27.637-45.09792 79.79789-63.15619 126.48856-79.20057 63.16528-19.28932 129.95606-27.81482 195.71051-22.51258 42.08967 4.21101 90.19311 19.93516 109.20229 62.52834 18.52477 42.94811.30376 90.54518-21.60559 128.19279-23.09757 38.34309-56.74318 72.73703-99.50274 86.14429-16.64444 10.72632 20.51072 3.99388 25.48215-1.08454 58.5231-26.28058 98.43585-84.63952 115.74077-146.3878 9.63658-37.45362-.92505-82.36729-34.06146-104.01258-43.66453-31.88236-99.8501-29.83635-150.94471-29.46687-86.84727 2.75328-176.37505 20.1055-250.33276 69.24401-30.30354 22.109-50.69028 61.62927-41.7036 100.16604 11.17448 57.59429 61.98298 99.57954 115.44882 113.80568 50.53223 12.69102 103.17814 9.27318 154.67223 7.38045 29.1452-1.78341 58.55361-5.19692 86.24992-15.17599-5.45708-.75118-10.91416-1.50235-16.37124-2.25352z" style="fill:none;fill-opacity:1;stroke:#efdbff;stroke-width:18.8976;stroke-linecap:square;stroke-linejoin:round;stroke-dasharray:none;stroke-opacity:1"/><path d="M1144.9553 491.75451s446.2356-1.02291 486.2446 2.46494C1714.0445 501.44159 1709.9826 586.71533 1708 670" style="fill:none;fill-opacity:1;stroke:#efdbff;stroke-width:15.1181;stroke-linecap:round;stroke-linejoin:round;stroke-dasharray:none;stroke-opacity:1"/><path d="m1685 649.73223 22.8379 26.89593 24.0755-26.89593" style="fill:none;fill-opacity:1;stroke:#efdbff;stroke-width:15.1181;stroke-linecap:round;stroke-linejoin:round;stroke-dasharray:none;stroke-opacity:1"/><g style="stroke-width:.843151;stroke-dasharray:none"><path d="M749.53319 743.87633c141.89761 0 186.45718-59.25683 207.88939-154.14927" style="fill:none;fill-opacity:1;stroke:#efdbff;stroke-width:12.7268;stroke-linecap:round;stroke-linejoin:round;stroke-dasharray:none;stroke-opacity:1" transform="matrix(1.1866987 0 0 1.189093 -139.93683 -140.66183)"/><path d="m929.49187 604.57629 30.75914-20.85964 12.02082 32.88047" style="fill:none;fill-opacity:1;stroke:#efdbff;stroke-width:12.7268;stroke-linecap:round;stroke-linejoin:round;stroke-dasharray:none;stroke-opacity:1" transform="matrix(1.1866987 0 0 1.189093 -139.93683 -140.66183)"/></g><g style="display:inline;stroke-width:1.286"><path d="M1213.0652 315.63805c-10.5472.20711-.6723 16.2796-11.7461 12.46603-10.7362.36045-2.4307 14.9571-7.4143 17.51592-5.1658-.83799-15.7391 3.2007-11.5901-6.03252 2.641-9.89696-8.7156-9.15672-15.0091-8.8043-15.7466-2.76693-12.5669 18.05099-14.2165 28.48599-1.608 19.26605-.046 38.62719 2.7885 57.70256 3.1294 7.89924 12.6244 4.12532 19.2228 5.01497 15.8823-.88249 3.3086-22.1643 5.041-32.12185-.8614-8.98427-3.4803-20.29152 8.7581-16.81733 6.7204-1.88758 7.4777 2.18792 6.5875 7.91085-.012 12.23092-3.8913 24.64608-11.3919 34.36398-4.2406 11.74017 10.3457 9.12916 17.3123 9.34345 14.6943.36506 18.266-19.24754 20.4888-30.66665 2.4592-5.99028-1.7162-17.3881 2.2923-20.95163 8.9838 1.82645 10.7007-7.7009 9.6476-14.53399 2.2634-8.45374-5.0276-13.4924-11.2298-13.68447.5421-5.70326 17.5919 3.98856 16.2782-8.28335-.6056-6.39258 1.5135-13.32714-1.7083-19.19929-7.6075-2.69979-16.0881-1.70822-24.111-1.70837zm-335.77466.61814c-8.82405 2.10634-4.98622 12.19513-5.83205 18.75219-8.53145-1.99443-12.14256 6.42542-10.7149 13.7429-2.80732 8.83406 7.25813 10.72356 10.7149 13.20569-.23546 6.99366-17.47917 5.4592-11.33417 16.79476.29804 7.39668 4.42293 15.37109 11.33417 14.34012 3.83133 10.35036-15.23694 4.88586-8.01293 17.15199-.85075 17.20639 20.375 18.65144 29.77416 7.52003 5.45031-8.06797 3.07708-18.20351 3.60516-27.35248 8.55514 6.58288 12.03845 29.10857 25.06717 24.26379.67838 17.5165 28.36763 12.90147 34.42445.78968 2.73549-7.44091 1.37755-15.49837 1.70861-23.25381 8.03602 1.89181 12.17893-5.83507 10.61161-12.95183.37499-5.84209-2.71516-16.4424 6.19276-12.70316 8.06916.33899-6.18937 12.96736-2.5052 19.97023-1.72257 7.1 2.77466 12.04951 3.40052 18.17867-.13422 7.52175-1.67727 19.22493 9.67091 18.21254 17.45839 1.76202 39.15099 3.84653 51.90129-10.85467 10.9835-13.49351 8.7379-37.5479-7.9537-45.50677 6.29.29002 16.9155 1.07727 15.745-8.20531-.8908-6.70535 3.0823-16.97203-5.8321-19.22196h-21.1184c5.5888-10.8458-7.7212-11.38647-14.8207-10.61161-7.18041-.93046-12.53471 2.00138-12.96966 6.87243-1.15895 6.79555-9.87909 2.57163-14.89582 3.7392-9.42888-2.84287-10.91768 16.64345-10.31416 2.4251 1.07668-6.92197-.72528-16.4539-9.78748-14.58282-3.86816-.95341-12.4605 2.81735-10.5093-3.95542-1.27437-9.47232-11.90909-5.65919-18.4894-6.44965-10.32419-.41673-3.53045 14.41968-14.51621 10.40507-7.59129-2.08088-12.65559 3.77472-15.01016 8.0373-.86777-6.56445 3.04784-16.62751-5.83206-18.75219-4.56744-.00001-9.13487-.00001-13.70231-.00001zm207.81116 1.02972c-8.9197 2.26508-4.938 12.55775-5.832 19.2805v57.16807h-30.3313c-8.9197 2.26508-4.938 12.55775-5.8321 19.2805-.4306 9.66862 10.586 7.27995 16.9072 7.52874h84.0209c8.867-2.05151 4.9742-12.00498 5.832-18.4894 1.2157-9.49293-9.6887-8.56129-16.1161-8.31984h-26.6417v-21.20197h29.6113c8.8671-2.05151 4.9742-12.00498 5.8321-18.4894 1.2157-9.49293-9.6887-8.5613-16.1162-8.31984h-19.3272v-22.6053c-3.2712-8.61646-14.4292-5.83206-22.0069-5.83206zm-76.1555 71.6113c13.2817-3.47782 7.4101 11.24976-2.3097 8.07494-27.51987 1.31034-9.59704-6.94886 2.3097-8.07494z" style="font-weight:700;font-size:132.496px;line-height:1;font-family:&quot;Corporate Logo ver2&quot;;-inkscape-font-specification:&quot;Corporate Logo ver2 Bold&quot;;text-align:start;letter-spacing:0;word-spacing:0;writing-mode:lr-tb;direction:ltr;text-anchor:start;fill:#333;fill-opacity:1;stroke:none;stroke-width:18.8976;stroke-linecap:round;stroke-linejoin:round;stroke-dasharray:none;stroke-opacity:1"/><text xml:space="preserve" x="834.13483" y="674.86273" style="font-weight:700;font-size:132.496px;line-height:1;font-family:&quot;Corporate Logo ver2&quot;;-inkscape-font-specification:&quot;Corporate Logo ver2 Bold&quot;;text-align:start;letter-spacing:0;word-spacing:0;writing-mode:lr-tb;direction:ltr;text-anchor:start;fill:#fff;fill-opacity:1;stroke:none;stroke-width:24.3022;stroke-linecap:round;stroke-linejoin:round;stroke-dasharray:none;stroke-opacity:1" transform="translate(214.44214 -114.70258) scale(.77760783)"><tspan x="834.13483" y="674.86273" style="letter-spacing:0;fill:#fff;fill-opacity:1;stroke-width:24.3022">持ち上げ</tspan></text></g><path d="M1221.535 836.09828c69.1424 126.50233 354.2753 79.66235 350.7138-88.30386l63.2003-54.31823-70.2398 14.61544c-79.8647-196.80808-464.9306-93.84283-343.6743 128.00665Z" style="fill:#fff;fill-opacity:1;stroke:#222;stroke-width:7.55906;stroke-linecap:round;stroke-linejoin:round;stroke-dasharray:none;stroke-opacity:1"/><text xml:space="preserve" x="1236.3347" y="743.97729" style="font-weight:700;font-size:80px;line-height:1;font-family:&quot;Corporate Logo ver2&quot;;-inkscape-font-specification:&quot;Corporate Logo ver2 Bold&quot;;text-align:start;letter-spacing:0;word-spacing:0;writing-mode:lr-tb;direction:ltr;text-anchor:start;fill:#fff;fill-opacity:1;stroke:#333;stroke-width:7.55906;stroke-linecap:round;stroke-linejoin:round;stroke-dasharray:none;stroke-opacity:1"><tspan x="1236.3347" y="743.97729" style="letter-spacing:0;fill:#222;fill-opacity:1;stroke:none">１コずつ</tspan><tspan x="1236.3347" y="823.97729" style="letter-spacing:0;fill:#222;fill-opacity:1;stroke:none">　落とす</tspan></text><g style="display:inline"><path d="M696.06846 808.50959h83.88713c11.99268-.41997 11.07138 12.12676 11.07138 12.12676V903.606c0 10.25249-10.68731 10.93573-10.68731 10.93573h-86.10387c-8.19194-.39989-9.50539-9.76067-9.50539-9.76067v-84.15612s-.0749-12.11535 11.33806-12.11535z" style="opacity:1;mix-blend-mode:normal;fill:#17979f;fill-opacity:1;stroke-width:7.55906;stroke-linecap:round;stroke-linejoin:round;stroke-dasharray:7.55906,15.1181" transform="translate(427.24105 -639.57214)"/><g style="display:inline" transform="translate(427.10627987 -641.5550736)"><circle cx="722.94879" cy="854.53064" r="3.4077702" style="fill:#272727;fill-opacity:1;stroke:none;stroke-width:3.77953;stroke-linecap:round;stroke-linejoin:round;stroke-dasharray:none;stroke-dashoffset:0;stroke-opacity:1"/><circle cx="753.09442" cy="854.53064" r="3.4077702" style="fill:#272727;fill-opacity:1;stroke:none;stroke-width:3.77953;stroke-linecap:round;stroke-linejoin:round;stroke-dasharray:none;stroke-dashoffset:0;stroke-opacity:1"/><path d="M724.25957 873.99424h27.39322" style="fill:none;fill-opacity:1;stroke:#222;stroke-width:3.77953;stroke-linecap:round;stroke-linejoin:round;stroke-dasharray:none;stroke-dashoffset:0;stroke-opacity:1"/></g></g></g></svg>