<svg xmlns="http://www.w3.org/2000/svg" xmlns:xlink="http://www.w3.org/1999/xlink" xml:space="preserve" width="1904" height="1072"><defs><linearGradient id="d"><stop offset="0" style="stop-color:#fff;stop-opacity:1"/><stop offset="1" style="stop-color:#fff;stop-opacity:0"/></linearGradient><linearGradient id="c"><stop offset="0" style="stop-color:#17979f;stop-opacity:1"/><stop offset="1" style="stop-color:#17979f;stop-opacity:0"/></linearGradient><linearGradient id="a"><stop offset="0" style="stop-color:#ff9a61;stop-opacity:1"/><stop offset="1" style="stop-color:#ff9a61;stop-opacity:0"/></linearGradient><linearGradient id="b"><stop offset="0" style="stop-color:#17979f;stop-opacity:1"/><stop offset="1" style="stop-color:#17979f;stop-opacity:0"/></linearGradient><linearGradient xlink:href="#a" id="e" x1="1380.3301" x2="1380.3301" y1="530.79614" y2="594.5437" gradientTransform="translate(-.00000324 166.8772)" gradientUnits="userSpaceOnUse"/><linearGradient xlink:href="#a" id="f" x1="1381" x2="1102" y1="654" y2="298" gradientTransform="translate(-.00000324 166.8772)" gradientUnits="userSpaceOnUse"/><linearGradient xlink:href="#b" id="g" x1="1376.451" x2="1376.451" y1="651.49933" y2="698.9848" gradientTransform="translate(-642.05296 219.2031)" gradientUnits="userSpaceOnUse"/><linearGradient xlink:href="#c" id="i" x1="1380.9806" x2="1380.9806" y1="652.43689" y2="701.87378" gradientTransform="translate(-.00000324 166.8772)" gradientUnits="userSpaceOnUse"/><linearGradient xlink:href="#d" id="h" x1="737" x2="737" y1="872.40253" y2="897.75" gradientTransform="translate(-.00000324 166.8772)" gradientUnits="userSpaceOnUse"/></defs><g style="display:inline;mix-blend-mode:normal" transform="translate(.00000324 -166.8772)"><g style="display:inline;opacity:.5"><path d="M41.942602 169.08311H1858.8889M41.942602 276.17334H1858.8889M41.942602 383.26357H1858.8889M41.942602 490.3538H1858.8889M41.942602 597.44404H1858.8889M41.942602 704.53427H1858.8889M41.942602 811.6245H1858.8889M41.942602 918.71473H1858.8889" style="display:inline;fill:none;fill-opacity:1;stroke:#a4a4a4;stroke-width:1.00157;stroke-linecap:round;stroke-linejoin:round;stroke-dasharray:none;stroke-opacity:1" transform="translate(6.959014 -2.55312)"/></g><g style="display:inline;opacity:.5;stroke-width:.896677"><path d="M897.60883 191.84766v726.68462m106.94547-726.68462v726.68462m106.9455-726.68462v726.68462m106.9455-726.68462v726.68462m106.9455-726.68462v726.68462m106.9455-726.68462v726.68462m106.9454-726.68462v726.68462m106.9455-726.68462v726.68462m106.9455-726.68462v726.68462m106.9455-726.68462v726.68462M790.66334 191.84766v726.68462M683.71786 191.84766v726.68462M576.77237 191.84766v726.68462M469.82689 191.84766v726.68462M362.8814 191.84766v726.68462M255.93592 191.84766v726.68462M148.99043 191.84766v726.68462" style="fill:none;fill-opacity:1;stroke:#a4a4a4;stroke-width:.898084;stroke-linecap:round;stroke-linejoin:round;stroke-dasharray:none;stroke-opacity:1" transform="matrix(1 0 0 1.2437367 .959014 -71.4691)"/></g><path d="M-6 159.92233V1238.877h1916V159.92233zm478 6.66361h319.25195v417.90234c0 5.84006 6.70991 10.54102 15.04297 10.54102h76.68946c8.33306 0 15.04101-4.70096 15.04101-10.54102v-99.52734c1.79676.52922 3.77214.82226 5.84961.82226h406.9082c8.3331 0 15.043-4.7029 15.043-10.54297v-87.81054c0-5.84006-6.7099-10.54102-15.043-10.54102H903.875c-2.07747 0-4.05285.2911-5.84961.82031V166.58594H1539.5V861h-91.459c-8.333 0-15.041 4.70095-15.041 10.54102V1050.877h-106.4688V926.70898c0-5.84006-6.708-10.54101-15.041-10.54101H804.87891c-8.33306 0-15.04102 4.70095-15.04102 10.54101V1050.877H685.18555V926.70898c0-5.84006-6.70796-10.54101-15.04102-10.54101h-78.10351c-8.33307 0-15.04102 4.70095-15.04102 10.54101V1021H472V594.97461c204.47389 0 197.95898.5 197.95898.5 8.33307 0 15.04102-4.70095 15.04102-10.54102v-86.39257C685 492.70095 678.29205 488 669.95898 488H578V284.54102C578 278.70095 571.29205 274 562.95898 274H472Z" style="display:inline;opacity:1;mix-blend-mode:normal;fill:#9f999e;fill-opacity:1;stroke:none;stroke-width:15.1181;stroke-linecap:round;stroke-linejoin:round;stroke-dasharray:none;stroke-opacity:1"/><g style="display:inline;stroke-width:1.01784"><path d="M696.06846 808.50959h83.88713c11.99268-.41997 11.07138 12.12676 11.07138 12.12676V903.606c0 10.25249-10.68731 10.93573-10.68731 10.93573h-86.10387c-8.19194-.39989-9.50539-9.76067-9.50539-9.76067v-84.15612s-.0749-12.11535 11.33806-12.11535z" style="opacity:1;mix-blend-mode:normal;fill:#ff9a61;fill-opacity:1;stroke-width:7.6939;stroke-linecap:round;stroke-linejoin:round;stroke-dasharray:7.6939,15.3878" transform="matrix(.98594047 0 0 .99604641 -203.01721 110.06367)"/><g style="display:inline;stroke-width:1.01784" transform="matrix(.98594047 0 0 .99604641 -203.15008533 108.0885761)"><circle cx="722.94879" cy="854.53064" r="3.4077702" style="fill:#272727;fill-opacity:1;stroke:none;stroke-width:3.84694;stroke-linecap:round;stroke-linejoin:round;stroke-dasharray:none;stroke-dashoffset:0;stroke-opacity:1"/><circle cx="753.09442" cy="854.53064" r="3.4077702" style="fill:#272727;fill-opacity:1;stroke:none;stroke-width:3.84694;stroke-linecap:round;stroke-linejoin:round;stroke-dasharray:none;stroke-dashoffset:0;stroke-opacity:1"/><path d="M724.25957 873.99424h27.39322" style="fill:none;fill-opacity:1;stroke:#222;stroke-width:3.84694;stroke-linecap:round;stroke-linejoin:round;stroke-dasharray:none;stroke-dashoffset:0;stroke-opacity:1"/></g></g><g style="display:inline;stroke-width:1.01176"><path d="M696.06846 808.50959h83.88713c11.99268-.41997 11.07138 12.12676 11.07138 12.12676V903.606c0 10.25249-10.68731 10.93573-10.68731 10.93573h-86.10387c-8.19194-.39989-9.50539-9.76067-9.50539-9.76067v-84.15612s-.0749-12.11535 11.33806-12.11535z" style="opacity:1;mix-blend-mode:normal;fill:#17979f;fill-opacity:1;stroke-width:7.6479;stroke-linecap:round;stroke-linejoin:round;stroke-dasharray:7.6479,15.2957" transform="matrix(1.0066512 0 0 .9704469 209.21534 -510.47174)"/><g style="display:inline;stroke-width:1.01176" transform="matrix(1.0066512 0 0 .9704469 209.07967349 -512.39607177)"><circle cx="722.94879" cy="854.53064" r="3.4077702" style="fill:#272727;fill-opacity:1;stroke:none;stroke-width:3.82395;stroke-linecap:round;stroke-linejoin:round;stroke-dasharray:none;stroke-dashoffset:0;stroke-opacity:1"/><circle cx="753.09442" cy="854.53064" r="3.4077702" style="fill:#272727;fill-opacity:1;stroke:none;stroke-width:3.82395;stroke-linecap:round;stroke-linejoin:round;stroke-dasharray:none;stroke-dashoffset:0;stroke-opacity:1"/><path d="M724.25957 873.99424h27.39322" style="fill:none;fill-opacity:1;stroke:#222;stroke-width:3.82395;stroke-linecap:round;stroke-linejoin:round;stroke-dasharray:none;stroke-dashoffset:0;stroke-opacity:1"/></g></g><g style="display:inline;mix-blend-mode:normal;stroke-width:1.01784"><path d="M696.06846 808.50959h83.88713c11.99268-.41997 11.07138 12.12676 11.07138 12.12676V903.606c0 10.25249-10.68731 10.93573-10.68731 10.93573h-86.10387c-8.19194-.39989-9.50539-9.76067-9.50539-9.76067v-84.15612s-.0749-12.11535 11.33806-12.11535z" style="opacity:1;mix-blend-mode:normal;fill:#ff9a61;fill-opacity:1;stroke-width:7.6939;stroke-linecap:round;stroke-linejoin:round;stroke-dasharray:7.6939,15.3878" transform="matrix(.98594047 0 0 .99604641 652.98279 -48.338347)"/><g style="display:inline;stroke-width:1.01784" transform="matrix(.98594047 0 0 .99604641 652.84991467 -50.3134409)"><circle cx="722.94879" cy="854.53064" r="3.4077702" style="fill:#272727;fill-opacity:1;stroke:none;stroke-width:3.84694;stroke-linecap:round;stroke-linejoin:round;stroke-dasharray:none;stroke-dashoffset:0;stroke-opacity:1"/><circle cx="753.09442" cy="854.53064" r="3.4077702" style="fill:#272727;fill-opacity:1;stroke:none;stroke-width:3.84694;stroke-linecap:round;stroke-linejoin:round;stroke-dasharray:none;stroke-dashoffset:0;stroke-opacity:1"/><path d="M724.25957 873.99424h27.39322" style="fill:none;fill-opacity:1;stroke:#222;stroke-width:3.84694;stroke-linecap:round;stroke-linejoin:round;stroke-dasharray:none;stroke-dashoffset:0;stroke-opacity:1"/></g></g><path d="M1337.8954 701.41491h84.6234c5.6919 0 10.274 4.97362 10.274 11.15162v45.19675h-105.1715v-45.19675c0-6.178 4.5822-11.15162 10.2741-11.15162z" style="display:inline;opacity:1;mix-blend-mode:normal;fill:url(#e);fill-opacity:1;stroke-width:7.55906;stroke-linecap:round;stroke-linejoin:round;stroke-dasharray:7.55906,22.6772"/><path d="M1016.9135 274.14389h84.4451c12.0724-.40756 11.145 11.76837 11.145 11.76837v80.51764c0 9.9495-10.7584 10.61255-10.7584 10.61255h-86.6766c-8.2464-.38808-9.5686-9.47222-9.5686-9.47222v-81.66904s-.075-11.7573 11.4135-11.7573z" style="display:inline;opacity:1;mix-blend-mode:normal;fill:#ff9a61;fill-opacity:.2;stroke:#ff9a61;stroke-width:7.55906;stroke-linecap:round;stroke-linejoin:round;stroke-dasharray:7.55906,22.6772;stroke-dashoffset:0;stroke-opacity:1"/><path d="M1077.1172 310.61328v37.79688h273.5508c6.6594.69905 8.5767 1.36924 10 10.47851v343.19196h37.7949V357.08984c-.4623-12.06541-4.3362-22.81626-13.3516-32.70703-9.8942-10.85496-20.9053-13.47582-33.123-13.7695z" style="display:inline;opacity:.724;mix-blend-mode:normal;fill:url(#f);fill-opacity:1;stroke-linecap:square;stroke-linejoin:round"/><g style="display:inline;mix-blend-mode:normal;stroke-width:.992405"><path d="M696.06896 808.51037c-11.41296 0-11.33789 12.11523-11.33789 12.11523v84.15625s1.31196 9.35988 9.5039 9.75977h192.00782s10.6875-.68306 10.6875-10.93555v-82.96875s.92041-12.54692-11.07227-12.12695z" style="opacity:1;mix-blend-mode:normal;fill:#ff9a61;fill-opacity:1;stroke-width:7.50164;stroke-linecap:round;stroke-linejoin:round;stroke-dasharray:7.50164,15.0033" transform="matrix(1.0106024 0 0 1.0047152 206.2591 -2.9660502)"/><g style="display:inline;stroke-width:.992405" transform="matrix(1.0106024 0 0 1.0047152 259.63629211 -4.95799705)"><circle cx="722.94879" cy="854.53064" r="3.4077702" style="fill:#272727;fill-opacity:1;stroke:none;stroke-width:3.75082;stroke-linecap:round;stroke-linejoin:round;stroke-dasharray:none;stroke-dashoffset:0;stroke-opacity:1"/><circle cx="753.09442" cy="854.53064" r="3.4077702" style="fill:#272727;fill-opacity:1;stroke:none;stroke-width:3.75082;stroke-linecap:round;stroke-linejoin:round;stroke-dasharray:none;stroke-dashoffset:0;stroke-opacity:1"/><path d="M724.25957 873.99424h27.39322" style="fill:none;fill-opacity:1;stroke:#222;stroke-width:3.75082;stroke-linecap:round;stroke-linejoin:round;stroke-dasharray:none;stroke-dashoffset:0;stroke-opacity:1"/></g></g><g style="display:inline;mix-blend-mode:normal"><path d="M1337.918 862.56055c-11.4942 0-11.418 12.11523-11.418 12.11523v198.00582H790.29688V928.18555c-.00001 0 .93338-12.54693-11.22852-12.12696h-85.07031c-11.5742 0-11.49805 12.11524-11.49805 12.11524l-.0215 247.73047c0 4.709 3.791 8.5 8.5 8.5h733.8262c4.709 0 8.4962-3.791 8.5-8.5l.2422-301.2168s.9269-12.54692-11.1504-12.12695z" style="display:inline;opacity:1;mix-blend-mode:normal;fill:#17979f;fill-opacity:1;stroke:none;stroke-width:7.55906;stroke-linecap:round;stroke-linejoin:round;stroke-dasharray:7.55906,22.6772;stroke-dashoffset:0;stroke-opacity:1"/><path d="M692.8372 860.74081h87.27513c5.69186 0 10.274 4.97362 10.274 11.15162v60.7531H682.5631v-60.7531c0-6.178 4.5822-11.15162 10.2741-11.15162z" style="display:inline;opacity:1;mix-blend-mode:normal;fill:url(#g);fill-opacity:1;stroke:none;stroke-width:3.77953;stroke-linecap:round;stroke-linejoin:round;stroke-dasharray:none;stroke-dashoffset:0;stroke-opacity:1"/><path id="j" d="M692.83789 858.85156c-6.79276 0-12.16406 5.9286-12.16406 13.04102v51.7539a1.889765 1.889765 0 0 0 1.88867 1.88868 1.889765 1.889765 0 0 0 1.89062-1.88868v-51.7539c0-5.24358 3.79373-9.26172 8.38477-9.26172h87.27539c4.59099 0 8.38281 4.01813 8.38281 9.26172v50.5039a1.889765 1.889765 0 0 0 1.89063 1.88868 1.889765 1.889765 0 0 0 1.88867-1.88868v-50.5039c0-7.11241-5.36938-13.04102-12.16211-13.04102z" style="opacity:1;fill:url(#h);fill-opacity:1;stroke-linecap:round;stroke-linejoin:round"/><path d="M1337.8954 813.41491h84.6234c5.6919 0 10.274 4.97362 10.274 11.15162v45.19675h-105.1715v-45.19675c0-6.178 4.5822-11.15162 10.2741-11.15162z" style="display:inline;opacity:.8;mix-blend-mode:normal;fill:url(#i);fill-opacity:1;stroke-width:7.55906;stroke-linecap:round;stroke-linejoin:round;stroke-dasharray:7.55906,22.6772"/><path d="M1337.918 862.66663c-11.4942 0-11.418 12.11523-11.418 12.11523v197.89974H790.29688V928.18555c-.00001 0 .93338-12.54693-11.22852-12.12696h-85.07031c-11.5742 0-11.49805 12.11524-11.49805 12.11524l-.0215 247.73047c0 4.709 3.791 8.5 8.5 8.5h733.8262c4.709 0 8.4962-3.791 8.5-8.5l.2422-301.11072s.9269-12.54692-11.1504-12.12695z" style="display:inline;opacity:1;mix-blend-mode:normal;fill:none;fill-opacity:1;stroke:#fff;stroke-width:3.77953;stroke-linecap:round;stroke-linejoin:round;stroke-dasharray:none;stroke-dashoffset:0;stroke-opacity:1"/><use xlink:href="#j" style="stroke-width:1.00338" transform="matrix(.99327967 0 0 1 648.53147 -48.90533)"/></g><g style="display:inline"><path d="M589.26953 381.23633C577.8566 381.26505 578 393.41602 578 393.41602l.47461 84.15429s1.36648 9.3533 9.56055 9.70703l97.11328-.0684.32617 95.98438s1.36648 11.02521 9.56055 11.58398l86.10156-.76562s10.66318-.12126 10.625-10.81836l-.58789-190.36524c0 .00001 1.07148-12.55198-14.03516-12.06445z" style="display:inline;opacity:1;mix-blend-mode:normal;fill:#c5bd1e;fill-opacity:1;stroke-width:7.55906;stroke-linecap:round;stroke-linejoin:round;stroke-dasharray:7.55906,15.1181" transform="translate(-.00000126 .35355444)"/><g style="display:inline" transform="rotate(-.322802 -75414.0166 10080.32343568)"><circle cx="722.94879" cy="854.53064" r="3.4077702" style="fill:#272727;fill-opacity:1;stroke:none;stroke-width:3.77953;stroke-linecap:round;stroke-linejoin:round;stroke-dasharray:none;stroke-dashoffset:0;stroke-opacity:1"/><circle cx="753.09442" cy="854.53064" r="3.4077702" style="fill:#272727;fill-opacity:1;stroke:none;stroke-width:3.77953;stroke-linecap:round;stroke-linejoin:round;stroke-dasharray:none;stroke-dashoffset:0;stroke-opacity:1"/><path d="M724.25957 873.99424h27.39322" style="fill:none;fill-opacity:1;stroke:#222;stroke-width:3.77953;stroke-linecap:round;stroke-linejoin:round;stroke-dasharray:none;stroke-dashoffset:0;stroke-opacity:1"/></g></g><g style="display:inline;opacity:1"><path d="M699.06882 808.41472c-11.41297.001-11.33934 12.35854-11.33934 12.35854l-.009 85.83139s1.31271 9.5471 9.50462 9.95404l299.59957 1.19392s10.68683-.69838 10.68803-11.15501l.01-84.62223c0 .00001.9236-12.79694-11.06912-12.36726l-297.38471-1.19339z" style="display:inline;opacity:1;mix-blend-mode:normal;fill:#c5bd1e;fill-opacity:1;stroke-width:7.55906;stroke-linecap:round;stroke-linejoin:round;stroke-dasharray:7.55906,15.1181" transform="rotate(-.322802 -113189.97 38791.105)"/><g style="display:inline" transform="rotate(-.322802 -113487.11260221 19380.3602608)"><circle cx="722.94879" cy="854.53064" r="3.4077702" style="fill:#272727;fill-opacity:1;stroke:none;stroke-width:3.77953;stroke-linecap:round;stroke-linejoin:round;stroke-dasharray:none;stroke-dashoffset:0;stroke-opacity:1"/><circle cx="753.09442" cy="854.53064" r="3.4077702" style="fill:#272727;fill-opacity:1;stroke:none;stroke-width:3.77953;stroke-linecap:round;stroke-linejoin:round;stroke-dasharray:none;stroke-dashoffset:0;stroke-opacity:1"/><path d="M724.25957 873.99424h27.39322" style="fill:none;fill-opacity:1;stroke:#222;stroke-width:3.77953;stroke-linecap:round;stroke-linejoin:round;stroke-dasharray:none;stroke-dashoffset:0;stroke-opacity:1"/></g></g><g id="k" style="stroke-width:.748014"><path d="M1449.5334 807.93016c18.5991 9.11555 20.7125 42.62254 0 55.15433" style="display:inline;mix-blend-mode:normal;fill:none;fill-opacity:1;stroke:#fff;stroke-width:3.77953;stroke-linecap:round;stroke-linejoin:round;stroke-dasharray:none;stroke-dashoffset:0;stroke-opacity:1" transform="translate(16.00000218 -8.7e-7)"/><path d="M1249.8926 812.66797c-13.0034-.35847-19.7346 14.83625-15.6116 31.2654 1.5404 6.05827 6.1345 11.72714 12.5658 12.75746 5.6333 1.14411 11.9767-1.01281 15.2451-5.86093 1.9451 5.72225 9.7203 7.99605 14.5283 4.40073 1.5865-1.04767 2.1324-3.20116 3.9135-1.17884 7.3513 4.40726 18.0636 4.09542 23.8723-2.73367 5.2895-6.06258 5.5761-16.44538-.2988-22.22067 4.7955-2.30207 4.4356-16.94038-3.1372-15.85547h-17.5932c-4.316-.10989-5.32 4.27304-5.2412 7.63545-.2315 4.50303-.4629 9.00605-.6944 13.50908-.1728 1.90256.9554 3.69867 2.5117 4.66992-1.1969.77453-1.4333 2.3336-2.5182.28746-3.0332-2.60635-7.6919-3.12848-11.0911-.89879 1.707-15.11542-5.2167-25.79631-16.451-25.77713z" style="font-weight:700;font-size:44.1751px;line-height:1;font-family:&quot;Corporate Logo ver2&quot;;-inkscape-font-specification:&quot;Corporate Logo ver2 Bold&quot;;text-align:center;letter-spacing:0;word-spacing:0;text-anchor:middle;fill:#333;stroke-width:5.65427;stroke-linecap:round;stroke-linejoin:round" transform="translate(-153.03911 -282.58572) scale(1.3368734)"/><text xml:space="preserve" x="1271.075" y="851.25891" style="font-weight:700;font-size:44.1751px;line-height:1;font-family:&quot;Corporate Logo ver2&quot;;-inkscape-font-specification:&quot;Corporate Logo ver2 Bold&quot;;text-align:center;letter-spacing:0;word-spacing:0;writing-mode:lr-tb;direction:ltr;text-anchor:middle;fill:none;fill-opacity:.2;stroke:#fff;stroke-width:5.65427;stroke-linecap:round;stroke-linejoin:round;stroke-dasharray:none;stroke-dashoffset:0;stroke-opacity:1" transform="translate(-153.03911 -282.58572) scale(1.3368734)"><tspan x="1271.075" y="851.25891" style="fill:#eee;fill-opacity:1;stroke:none;stroke-width:5.65427">0.5</tspan></text></g><use xlink:href="#k" style="display:inline;mix-blend-mode:normal" transform="translate(-636.87868 55.93934)"/><g id="l" style="display:inline;mix-blend-mode:normal"><path d="M1348.6483 942.18487v31.75l33.0566 30.95893v.3574l.1895-.1777.1914.1777v-.3574l33.0566-30.95893v-31.75l-33.248 33.1269z" style="fill:#78e5eb;fill-opacity:1;stroke:none;stroke-width:3.77953;stroke-linecap:round;stroke-linejoin:round;stroke-dasharray:none;stroke-dashoffset:0;stroke-opacity:1" transform="translate(0 40)"/><path d="M1348.6483 995.21787v31.74993l33.0566 30.959v.3574l.1895-.1777.1914.1777v-.3574l33.0566-30.959v-31.74993l-33.248 33.12683z" style="fill:#78e5eb;fill-opacity:1;stroke:none;stroke-width:3.77953;stroke-linecap:round;stroke-linejoin:round;stroke-dasharray:none;stroke-dashoffset:0;stroke-opacity:1" transform="translate(0 40)"/></g><use xlink:href="#l" style="display:inline;mix-blend-mode:normal" transform="matrix(1 0 0 -1 -644 2083.4691)"/><path d="m654.07377 795.49513 31.81981 28.99138m-7.65686-77.16043 33.15559 61.23276m19.2561-55.91169 7.32107 43.13351" style="fill:none;fill-opacity:1;stroke:#c5bd1e;stroke-width:7.55906;stroke-linecap:round;stroke-linejoin:round;stroke-dasharray:none;stroke-dashoffset:0;stroke-opacity:1" transform="translate(-42.656854 -17.156854)"/><path d="M1261.1972 719.95227a20.587983 20.587983 0 0 0-20.588 20.58799 20.587983 20.587983 0 0 0 1.295 7.0345 23.051502 23.051502 0 0 0-20.6512 22.87966 23.051502 23.051502 0 0 0 23.0515 23.0515 23.051502 23.051502 0 0 0 16.5256-7.06062 24.987124 24.987124 0 0 0 10.0452 2.13358 24.987124 24.987124 0 0 0 4.1352-.3808l28.2425 21.84861-16.1751-27.44927a24.987124 24.987124 0 0 0 8.7845-19.00566 24.987124 24.987124 0 0 0-14.117-22.49473 20.587983 20.587983 0 0 0 .04-.55677 20.587983 20.587983 0 0 0-20.5882-20.58799z" style="fill:#eee;fill-opacity:1;stroke:none;stroke-width:15.1181;stroke-linecap:round;stroke-linejoin:round;stroke-opacity:1"/></g></svg>