<svg xmlns="http://www.w3.org/2000/svg" xmlns:xlink="http://www.w3.org/1999/xlink" xml:space="preserve" width="1904" height="1072"><g style="display:inline;opacity:.5" transform="translate(6.959014 -2.55312)"><path id="a" d="M41.942602 169.08311H1858.8889" style="display:inline;fill:none;fill-opacity:1;stroke:#758391;stroke-width:1.00157;stroke-linecap:round;stroke-linejoin:round;stroke-dasharray:none;stroke-opacity:1"/><use xlink:href="#a" style="display:inline" transform="translate(0 108.38845)"/><use xlink:href="#a" style="display:inline" transform="translate(0 211.80602)"/><use xlink:href="#a" style="display:inline" transform="translate(0 319.80611)"/><use xlink:href="#a" style="display:inline" transform="translate(0 425.70912)"/><use xlink:href="#a" style="display:inline" transform="translate(0 532.34891)"/><use xlink:href="#a" style="display:inline" transform="translate(0 639.11526)"/></g><g style="display:inline;opacity:.5;stroke-width:.896677" transform="matrix(1 0 0 1.2437367 .959014 -71.4691)"><path id="b" d="M897.60883 58.7185v859.8066" style="fill:none;fill-opacity:1;stroke:#758391;stroke-width:.898084;stroke-linecap:round;stroke-linejoin:round;stroke-dasharray:none;stroke-opacity:1"/><use xlink:href="#b" style="stroke-width:.896677" transform="translate(106.94548)"/><use xlink:href="#b" style="stroke-width:.896677" transform="translate(213.89096)"/><use xlink:href="#b" style="stroke-width:.896677" transform="translate(320.83645)"/><use xlink:href="#b" style="stroke-width:.896677" transform="translate(427.78193)"/><use xlink:href="#b" style="stroke-width:.896677" transform="translate(534.72742)"/><use xlink:href="#b" style="stroke-width:.896677" transform="translate(641.6729)"/><use xlink:href="#b" style="stroke-width:.896677" transform="translate(748.61839)"/><use xlink:href="#b" style="stroke-width:.896677" transform="translate(855.56387)"/><use xlink:href="#b" style="stroke-width:.896677" transform="translate(-106.94549)"/><use xlink:href="#b" style="stroke-width:.896677" transform="translate(-213.89097)"/><use xlink:href="#b" style="stroke-width:.896677" transform="translate(-320.83646)"/><use xlink:href="#b" style="stroke-width:.896677" transform="translate(-427.78194)"/><use xlink:href="#b" style="stroke-width:.896677" transform="translate(-534.72743)"/><use xlink:href="#b" style="stroke-width:.896677" transform="translate(-641.67291)"/></g><path d="M-2.828125-4v1082H1908V-4ZM578.41406 60H1861.2773v318.30273h-97.7656c-5.0861 0-9.1797 4.09354-9.1797 9.17969v204.23633h-97.9355c-5.1254 0-9.252 4.12657-9.252 9.25195v97.82227h-97.3066c-5.0348 0-9.0879 4.05308-9.0879 9.08789V912H149.90625V805.26562h98.24805c5.06718 0 9.14648-4.07929 9.14648-9.14648V592.55469h97.73047c5.03336 0 9.08594-4.05063 9.08594-9.08399v-88.06054c0-5.03336-4.05258-9.08399-9.08594-9.08399h-97.73047v-107.3164h204.4961c5.06094 0 9.13671-4.07577 9.13671-9.13672v-202.9961h98.28711c5.09259 0 9.19336-4.09882 9.19336-9.1914zm436.26564 318.13867c-5.0345 0-9.0879 4.05144-9.0879 9.08594v90.17773c0 5.03451 4.0534 9.08789 9.0879 9.08789h623.584c5.0345 0 9.0879-4.05338 9.0879-9.08789v-90.17773c0-5.0345-4.0534-9.08594-9.0879-9.08594z" style="display:inline;opacity:1;fill:#758391;fill-opacity:1;stroke-width:7.55906;stroke-linecap:round;stroke-linejoin:round;stroke-dasharray:7.55906,22.6771;stroke-dashoffset:0"/><g id="c" style="display:inline;opacity:1;stroke-width:.896677"><path d="M696.06846 808.50959h83.88713c11.99268-.41997 11.07138 12.12676 11.07138 12.12676V903.606c0 10.25249-10.68731 10.93573-10.68731 10.93573h-86.10387c-8.19194-.39989-9.50539-9.76067-9.50539-9.76067v-84.15612s-.0749-12.11535 11.33806-12.11535z" style="opacity:1;mix-blend-mode:normal;fill:#ffaf17;fill-opacity:1;stroke-width:7.55906;stroke-linecap:round;stroke-linejoin:round;stroke-dasharray:7.55906,15.1181" transform="translate(320.92826 -533.96375)"/><g style="display:inline" transform="translate(320.79348987 -535.9466836)"><circle cx="722.94879" cy="854.53064" r="3.4077702" style="fill:#272727;fill-opacity:1;stroke:none;stroke-width:3.77953;stroke-linecap:round;stroke-linejoin:round;stroke-dasharray:none;stroke-dashoffset:0;stroke-opacity:1"/><circle cx="753.09442" cy="854.53064" r="3.4077702" style="fill:#272727;fill-opacity:1;stroke:none;stroke-width:3.77953;stroke-linecap:round;stroke-linejoin:round;stroke-dasharray:none;stroke-dashoffset:0;stroke-opacity:1"/><path d="M724.25957 873.99424h27.39322" style="fill:none;fill-opacity:1;stroke:#222;stroke-width:3.77953;stroke-linecap:round;stroke-linejoin:round;stroke-dasharray:none;stroke-dashoffset:0;stroke-opacity:1"/></g></g><use xlink:href="#c" style="display:inline" transform="translate(213.5)"/><g id="d" style="display:inline;opacity:1;stroke-width:.896677"><path d="M696.06846 808.50959h83.88713c11.99268-.41997 11.07138 12.12676 11.07138 12.12676V903.606c0 10.25249-10.68731 10.93573-10.68731 10.93573h-86.10387c-8.19194-.39989-9.50539-9.76067-9.50539-9.76067v-84.15612s-.0749-12.11535 11.33806-12.11535z" style="opacity:1;mix-blend-mode:normal;fill:#ef6840;fill-opacity:1;stroke-width:7.55906;stroke-linecap:round;stroke-linejoin:round;stroke-dasharray:7.55906,15.1181" transform="translate(427.76961 -534.49568)"/><g style="display:inline" transform="translate(427.63483987 -536.4786136)"><circle cx="722.94879" cy="854.53064" r="3.4077702" style="fill:#272727;fill-opacity:1;stroke:none;stroke-width:3.77953;stroke-linecap:round;stroke-linejoin:round;stroke-dasharray:none;stroke-dashoffset:0;stroke-opacity:1"/><circle cx="753.09442" cy="854.53064" r="3.4077702" style="fill:#272727;fill-opacity:1;stroke:none;stroke-width:3.77953;stroke-linecap:round;stroke-linejoin:round;stroke-dasharray:none;stroke-dashoffset:0;stroke-opacity:1"/><path d="M724.25957 873.99424h27.39322" style="fill:none;fill-opacity:1;stroke:#222;stroke-width:3.77953;stroke-linecap:round;stroke-linejoin:round;stroke-dasharray:none;stroke-dashoffset:0;stroke-opacity:1"/></g></g><use xlink:href="#d" transform="translate(534.75 212.5)"/><g style="display:inline;stroke-width:.986872"><path d="M696.06846 808.50959h83.88713c11.99268-.41997 11.07138 12.12676 11.07138 12.12676V903.606c0 10.25249-10.68731 10.93573-10.68731 10.93573h-86.10387c-8.19194-.39989-9.50539-9.76067-9.50539-9.76067v-84.15612s-.0749-12.11535 11.33806-12.11535z" style="opacity:1;mix-blend-mode:normal;fill:#1273d2;fill-opacity:1;stroke-width:7.45983;stroke-linecap:round;stroke-linejoin:round;stroke-dasharray:7.45983,14.9196" transform="translate(-437.1067 -440.22551) scale(1.0133024)"/><g style="display:inline;stroke-width:.986872" transform="translate(-437.2432629 -442.23482138) scale(1.0133024)"><circle cx="722.94879" cy="854.53064" r="3.4077702" style="fill:#272727;fill-opacity:1;stroke:none;stroke-width:3.72991;stroke-linecap:round;stroke-linejoin:round;stroke-dasharray:none;stroke-dashoffset:0;stroke-opacity:1"/><circle cx="753.09442" cy="854.53064" r="3.4077702" style="fill:#272727;fill-opacity:1;stroke:none;stroke-width:3.72991;stroke-linecap:round;stroke-linejoin:round;stroke-dasharray:none;stroke-dashoffset:0;stroke-opacity:1"/><path d="M724.25957 873.99424h27.39322" style="fill:none;fill-opacity:1;stroke:#222;stroke-width:3.72991;stroke-linecap:round;stroke-linejoin:round;stroke-dasharray:none;stroke-dashoffset:0;stroke-opacity:1"/></g></g><g style="display:inline"><g style="font-variation-settings:normal;display:inline;vector-effect:none;fill:#e8e8e8;fill-opacity:1;stroke:none;stroke-width:1.88976;stroke-linecap:square;stroke-linejoin:miter;stroke-miterlimit:4;stroke-dasharray:none;stroke-dashoffset:0;stroke-opacity:1;-inkscape-stroke:none;stop-color:#000"><path d="M781.04163 704.48342c-.34997-.0114-.71116-.0112-1.08594.002h-83.88671c-11.41296 0-11.3379 12.11524-11.3379 12.11524 12.74085 62.73971 4.37911 188.17969 0 188.17969 0 0 1.31197 9.36182 9.50391 9.76171h86.10547s9.89458-.71361 10.68555-10.93554c4.82694-62.37969 5.47602-124.55813 0-186.99414 0 0 .86472-11.7748-9.98438-12.12891z" style="opacity:1;mix-blend-mode:normal;fill:#ef6840;fill-opacity:1;stroke-width:7.55906;stroke-linecap:round;stroke-linejoin:round;stroke-dasharray:7.55906,15.1181" transform="translate(213.7689 -221.97518)"/><g style="display:inline" transform="translate(220.7051977 -275.616962)"><circle cx="722.94879" cy="854.53064" r="3.4077702" style="fill:#272727;fill-opacity:1;stroke:none;stroke-width:3.77953;stroke-linecap:round;stroke-linejoin:round;stroke-dasharray:none;stroke-dashoffset:0;stroke-opacity:1"/><circle cx="753.09442" cy="854.53064" r="3.4077702" style="fill:#272727;fill-opacity:1;stroke:none;stroke-width:3.77953;stroke-linecap:round;stroke-linejoin:round;stroke-dasharray:none;stroke-dashoffset:0;stroke-opacity:1"/><path d="M724.25957 873.99424h27.39322" style="fill:none;fill-opacity:1;stroke:#222;stroke-width:3.77953;stroke-linecap:round;stroke-linejoin:round;stroke-dasharray:none;stroke-dashoffset:0;stroke-opacity:1"/></g></g><g style="display:inline;stroke-width:.951816"><path d="M739.45703 715.22656c-.97611-.0543-1.96159.22826-2.75.94922-11.31505 11.251-22.57253 22.56347-33.86523 33.83789-2.66928 2.2333-1.12551 7.20107 2.42382 7.31836 8.02459.0468 16.05082.006 24.07618.0195-1.29921 3.88607-2.59729 7.77214-3.89649 11.65821-.93301 3.13285-2.31687 6.16637-2.90039 9.37695-.2119 3.44551 4.33431 5.56103 6.87305 3.26367 11.3174-11.24908 22.57359-22.56184 33.86719-33.83594 2.71998-2.22347 1.02039-7.06901-2.42579-7.28711-8.01403-.0512-16.03192-.007-24.04687-.0215 1.29303-3.88487 2.58783-7.76943 3.88086-11.6543.9294-3.14374 2.31818-6.18692 2.88672-9.41015.1275-2.33942-1.97561-4.09531-4.12305-4.21485zm-.0664 4.21485-8.4375 25.2539h29.47266l-33.69141 33.69141 8.4375-25.25391h-29.47265z" style="font-size:60px;line-height:1;font-family:&quot;Mplus 1&quot;;-inkscape-font-specification:&quot;Mplus 1, &quot;;letter-spacing:0;word-spacing:0;display:inline;fill:#222;fill-opacity:1;stroke-width:7.19484;stroke-linecap:round;stroke-linejoin:round;stroke-dasharray:7.19484,14.3897" transform="matrix(.77475977 .56764507 -.55654879 1.0169429 851.4442 -735.38425)"/><path d="m739.39062 719.44141-33.6914 33.6914h29.47265l-8.4375 25.25391 33.69141-33.69141h-29.47266z" style="font-size:60px;line-height:1;font-family:&quot;Mplus 1&quot;;-inkscape-font-specification:&quot;Mplus 1, &quot;;letter-spacing:0;word-spacing:0;display:inline;fill:#fc0;fill-opacity:1;stroke:none;stroke-width:7.19484;stroke-linecap:round;stroke-linejoin:round;stroke-dasharray:7.19484,14.3897;stroke-dashoffset:0" transform="matrix(.77475977 .56764507 -.55654879 1.0169429 851.4442 -735.38425)"/></g><g style="display:inline;stroke-width:6.06216;stroke-dasharray:none"><path d="m812.57282 886.41271-5.40127 28.17446m15.3197-30.92302-4.9774 26.69159m-25.46788 9.07164-26.14881 3.33645m-8.39813 10.51498 34.93687-4.81931" style="fill:none;fill-opacity:1;stroke:#fff;stroke-width:4.04144;stroke-linecap:round;stroke-linejoin:round;stroke-dasharray:none;stroke-opacity:1" transform="matrix(.87458747 0 0 1 313.38942 -210.86526)"/></g><path d="M1072.6519 705.02362h464.5198" style="display:inline;fill:none;fill-opacity:1;stroke:#fff;stroke-width:15.11811024;stroke-linecap:round;stroke-linejoin:round;stroke-dasharray:15.11811066,30.23622131;stroke-dashoffset:0;stroke-opacity:1"/><g style="display:inline;stroke-width:.602749"><path d="M603.38713 883.92411c31.86172.013 41.79234.026 73.65407.0234v18.1875l46.11719-34.76953-46.11719-34.23438v18.18555h-73.65407z" style="font-size:140.107px;line-height:1;font-family:&quot;Mplus 1&quot;;-inkscape-font-specification:&quot;Mplus 1, &quot;;letter-spacing:0;word-spacing:0;display:inline;fill:#222;stroke:#fff;stroke-width:2.27811;stroke-linecap:round;stroke-linejoin:round;stroke-dasharray:none;stroke-opacity:1" transform="translate(-360.1688 -799.32915) scale(1.6590651)"/><text xml:space="preserve" x="660.54822" y="817.04016" style="font-style:normal;font-variant:normal;font-weight:500;font-stretch:normal;font-size:23.6054px;line-height:1;font-family:&quot;Corporate Logo ver2&quot;;-inkscape-font-specification:&quot;Corporate Logo ver2 Medium&quot;;text-align:start;letter-spacing:0;word-spacing:0;writing-mode:lr-tb;direction:ltr;text-anchor:start;fill:none;fill-opacity:1;stroke:#222;stroke-width:4.55621;stroke-linecap:round;stroke-linejoin:round;stroke-dasharray:none;stroke-dashoffset:0;stroke-opacity:1" transform="matrix(1.544536 0 0 1.7820866 -360.1688 -799.32915)"><tspan x="660.54822" y="817.04016" style="font-style:normal;font-variant:normal;font-weight:500;font-stretch:normal;font-family:&quot;Corporate Logo ver2&quot;;-inkscape-font-specification:&quot;Corporate Logo ver2 Medium&quot;;fill:#fff;fill-opacity:1;stroke:none;stroke-width:4.55621">PUSH</tspan></text></g><text xml:space="preserve" x="376.56488" y="846.74487" style="font-weight:700;font-size:110px;line-height:1;font-family:&quot;Corporate Logo ver2&quot;;-inkscape-font-specification:&quot;Corporate Logo ver2 Bold&quot;;text-align:start;letter-spacing:0;word-spacing:0;writing-mode:lr-tb;direction:ltr;text-anchor:start;display:inline;fill:#eee;fill-opacity:1;stroke:#111;stroke-width:6.04724;stroke-linecap:square;stroke-linejoin:miter;stroke-dasharray:none;stroke-dashoffset:0;stroke-opacity:1"><tspan x="376.56488" y="846.74487" style="fill:#eee;fill-opacity:1;stroke:#111;stroke-width:6.04724;stroke-dasharray:none;stroke-opacity:1">押す役が必要</tspan></text><text xml:space="preserve" x="376.56488" y="846.74487" style="font-weight:700;font-size:110px;line-height:1;font-family:&quot;Corporate Logo ver2&quot;;-inkscape-font-specification:&quot;Corporate Logo ver2 Bold&quot;;text-align:start;letter-spacing:0;word-spacing:0;writing-mode:lr-tb;direction:ltr;text-anchor:start;display:inline;fill:#eee;fill-opacity:1;stroke:none;stroke-width:1.88976;stroke-linecap:square;stroke-linejoin:miter;stroke-dasharray:none;stroke-dashoffset:0;stroke-opacity:1"><tspan x="376.56488" y="846.74487" style="fill:#eee;fill-opacity:1;stroke:none;stroke-width:1.88976;stroke-dasharray:none;stroke-opacity:1">押す役が必要</tspan></text></g></svg>