<svg xmlns="http://www.w3.org/2000/svg" xmlns:xlink="http://www.w3.org/1999/xlink" xml:space="preserve" width="1904" height="1072"><defs><linearGradient id="a"><stop offset="0" style="stop-color:#ef6840;stop-opacity:1"/><stop offset="1" style="stop-color:#ef6840;stop-opacity:0"/></linearGradient><linearGradient xlink:href="#a" id="f" x1="1158.9979" x2="1252.071" y1="524.43652" y2="69.573593" gradientUnits="userSpaceOnUse"/></defs><g style="display:inline;opacity:.5" transform="translate(6.959014 -2.55312)"><path id="b" d="M41.942602 169.08311H1858.8889" style="display:inline;fill:none;fill-opacity:1;stroke:#758391;stroke-width:1.00157;stroke-linecap:round;stroke-linejoin:round;stroke-dasharray:none;stroke-opacity:1"/><use xlink:href="#b" style="display:inline" transform="translate(0 108.38845)"/><use xlink:href="#b" style="display:inline" transform="translate(0 211.80602)"/><use xlink:href="#b" style="display:inline" transform="translate(0 319.80611)"/><use xlink:href="#b" style="display:inline" transform="translate(0 425.70912)"/><use xlink:href="#b" style="display:inline" transform="translate(0 532.34891)"/><use xlink:href="#b" style="display:inline" transform="translate(0 639.11526)"/></g><g style="display:inline;opacity:.5;stroke-width:.896677" transform="matrix(1 0 0 1.2437367 .959014 -71.4691)"><path id="c" d="M897.60883 58.7185v859.8066" style="fill:none;fill-opacity:1;stroke:#758391;stroke-width:.898084;stroke-linecap:round;stroke-linejoin:round;stroke-dasharray:none;stroke-opacity:1"/><use xlink:href="#c" style="stroke-width:.896677" transform="translate(106.94548)"/><use xlink:href="#c" style="stroke-width:.896677" transform="translate(213.89096)"/><use xlink:href="#c" style="stroke-width:.896677" transform="translate(320.83645)"/><use xlink:href="#c" style="stroke-width:.896677" transform="translate(427.78193)"/><use xlink:href="#c" style="stroke-width:.896677" transform="translate(534.72742)"/><use xlink:href="#c" style="stroke-width:.896677" transform="translate(641.6729)"/><use xlink:href="#c" style="stroke-width:.896677" transform="translate(748.61839)"/><use xlink:href="#c" style="stroke-width:.896677" transform="translate(855.56387)"/><use xlink:href="#c" style="stroke-width:.896677" transform="translate(-106.94549)"/><use xlink:href="#c" style="stroke-width:.896677" transform="translate(-213.89097)"/><use xlink:href="#c" style="stroke-width:.896677" transform="translate(-320.83646)"/><use xlink:href="#c" style="stroke-width:.896677" transform="translate(-427.78194)"/><use xlink:href="#c" style="stroke-width:.896677" transform="translate(-534.72743)"/><use xlink:href="#c" style="stroke-width:.896677" transform="translate(-641.67291)"/></g><path d="M-2.828125-4v1082H1908V-4ZM578.41406 60H1861.2773v318.30273h-97.7656c-5.0861 0-9.1797 4.09354-9.1797 9.17969v204.23633h-97.9355c-5.1254 0-9.252 4.12657-9.252 9.25195v97.82227h-97.3066c-5.0348 0-9.0879 4.05308-9.0879 9.08789V912H149.90625V805.26562h98.24805c5.06718 0 9.14648-4.07929 9.14648-9.14648V592.55469h97.73047c5.03336 0 9.08594-4.05063 9.08594-9.08399v-88.06054c0-5.03336-4.05258-9.08399-9.08594-9.08399h-97.73047v-107.3164h204.4961c5.06094 0 9.13671-4.07577 9.13671-9.13672v-202.9961h98.28711c5.09259 0 9.19336-4.09882 9.19336-9.1914zm436.26564 318.13867c-5.0345 0-9.0879 4.05144-9.0879 9.08594v90.17773c0 5.03451 4.0534 9.08789 9.0879 9.08789h623.584c5.0345 0 9.0879-4.05338 9.0879-9.08789v-90.17773c0-5.0345-4.0534-9.08594-9.0879-9.08594z" style="display:inline;opacity:1;fill:#758391;fill-opacity:1;stroke-width:7.55906;stroke-linecap:round;stroke-linejoin:round;stroke-dasharray:7.55906,22.6771;stroke-dashoffset:0"/><g id="d" style="display:inline;opacity:1;stroke-width:.896677"><path d="M696.06846 808.50959h83.88713c11.99268-.41997 11.07138 12.12676 11.07138 12.12676V903.606c0 10.25249-10.68731 10.93573-10.68731 10.93573h-86.10387c-8.19194-.39989-9.50539-9.76067-9.50539-9.76067v-84.15612s-.0749-12.11535 11.33806-12.11535z" style="opacity:1;mix-blend-mode:normal;fill:#ffaf17;fill-opacity:1;stroke-width:7.55906;stroke-linecap:round;stroke-linejoin:round;stroke-dasharray:7.55906,15.1181" transform="translate(320.92826 -533.96375)"/><g style="display:inline" transform="translate(320.79348987 -535.9466836)"><circle cx="722.94879" cy="854.53064" r="3.4077702" style="fill:#272727;fill-opacity:1;stroke:none;stroke-width:3.77953;stroke-linecap:round;stroke-linejoin:round;stroke-dasharray:none;stroke-dashoffset:0;stroke-opacity:1"/><circle cx="753.09442" cy="854.53064" r="3.4077702" style="fill:#272727;fill-opacity:1;stroke:none;stroke-width:3.77953;stroke-linecap:round;stroke-linejoin:round;stroke-dasharray:none;stroke-dashoffset:0;stroke-opacity:1"/><path d="M724.25957 873.99424h27.39322" style="fill:none;fill-opacity:1;stroke:#222;stroke-width:3.77953;stroke-linecap:round;stroke-linejoin:round;stroke-dasharray:none;stroke-dashoffset:0;stroke-opacity:1"/></g></g><use xlink:href="#d" style="display:inline" transform="translate(213.5)"/><g id="e" style="display:inline;opacity:1;stroke-width:.896677"><path d="M696.06846 808.50959h83.88713c11.99268-.41997 11.07138 12.12676 11.07138 12.12676V903.606c0 10.25249-10.68731 10.93573-10.68731 10.93573h-86.10387c-8.19194-.39989-9.50539-9.76067-9.50539-9.76067v-84.15612s-.0749-12.11535 11.33806-12.11535z" style="opacity:1;mix-blend-mode:normal;fill:#ef6840;fill-opacity:1;stroke-width:7.55906;stroke-linecap:round;stroke-linejoin:round;stroke-dasharray:7.55906,15.1181" transform="translate(427.76961 -534.49568)"/><g style="display:inline" transform="translate(427.63483987 -536.4786136)"><circle cx="722.94879" cy="854.53064" r="3.4077702" style="fill:#272727;fill-opacity:1;stroke:none;stroke-width:3.77953;stroke-linecap:round;stroke-linejoin:round;stroke-dasharray:none;stroke-dashoffset:0;stroke-opacity:1"/><circle cx="753.09442" cy="854.53064" r="3.4077702" style="fill:#272727;fill-opacity:1;stroke:none;stroke-width:3.77953;stroke-linecap:round;stroke-linejoin:round;stroke-dasharray:none;stroke-dashoffset:0;stroke-opacity:1"/><path d="M724.25957 873.99424h27.39322" style="fill:none;fill-opacity:1;stroke:#222;stroke-width:3.77953;stroke-linecap:round;stroke-linejoin:round;stroke-dasharray:none;stroke-dashoffset:0;stroke-opacity:1"/></g></g><use xlink:href="#e" transform="translate(534.75 212.5)"/><g style="display:inline;opacity:.5;stroke-width:.896677"><path d="M781.04163 704.48342c-.34997-.0114-.71116-.0112-1.08594.002h-83.88671c-11.41296 0-11.3379 12.11524-11.3379 12.11524.90943 62.73971 0 188.17969 0 188.17969s1.31197 9.36182 9.50391 9.76171h86.10547s10.68555-.68305 10.68555-10.93554c-1.00839-62.37969 0-124.55813 0-186.99414 0 0 .86472-11.7748-9.98438-12.12891z" style="opacity:1;mix-blend-mode:normal;fill:#ef6840;fill-opacity:1;stroke-width:7.55906;stroke-linecap:round;stroke-linejoin:round;stroke-dasharray:7.55906,15.1181" transform="translate(641.52065 -533.93018)"/><g style="display:inline" transform="translate(641.38587987 -587.218409)"><circle cx="722.94879" cy="854.53064" r="3.4077702" style="fill:#272727;fill-opacity:1;stroke:none;stroke-width:3.77953;stroke-linecap:round;stroke-linejoin:round;stroke-dasharray:none;stroke-dashoffset:0;stroke-opacity:1"/><circle cx="753.09442" cy="854.53064" r="3.4077702" style="fill:#272727;fill-opacity:1;stroke:none;stroke-width:3.77953;stroke-linecap:round;stroke-linejoin:round;stroke-dasharray:none;stroke-dashoffset:0;stroke-opacity:1"/><path d="M724.25957 873.99424h27.39322" style="fill:none;fill-opacity:1;stroke:#222;stroke-width:3.77953;stroke-linecap:round;stroke-linejoin:round;stroke-dasharray:none;stroke-dashoffset:0;stroke-opacity:1"/></g></g><g style="display:inline;stroke-width:.986872"><path d="M696.06846 808.50959h83.88713c11.99268-.41997 11.07138 12.12676 11.07138 12.12676V903.606c0 10.25249-10.68731 10.93573-10.68731 10.93573h-86.10387c-8.19194-.39989-9.50539-9.76067-9.50539-9.76067v-84.15612s-.0749-12.11535 11.33806-12.11535z" style="opacity:1;mix-blend-mode:normal;fill:#1273d2;fill-opacity:1;stroke-width:7.45983;stroke-linecap:round;stroke-linejoin:round;stroke-dasharray:7.45983,14.9196" transform="translate(-437.1067 -440.22551) scale(1.0133024)"/><g style="display:inline;stroke-width:.986872" transform="translate(-437.2432629 -442.23482138) scale(1.0133024)"><circle cx="722.94879" cy="854.53064" r="3.4077702" style="fill:#272727;fill-opacity:1;stroke:none;stroke-width:3.72991;stroke-linecap:round;stroke-linejoin:round;stroke-dasharray:none;stroke-dashoffset:0;stroke-opacity:1"/><circle cx="753.09442" cy="854.53064" r="3.4077702" style="fill:#272727;fill-opacity:1;stroke:none;stroke-width:3.72991;stroke-linecap:round;stroke-linejoin:round;stroke-dasharray:none;stroke-dashoffset:0;stroke-opacity:1"/><path d="M724.25957 873.99424h27.39322" style="fill:none;fill-opacity:1;stroke:#222;stroke-width:3.72991;stroke-linecap:round;stroke-linejoin:round;stroke-dasharray:none;stroke-dashoffset:0;stroke-opacity:1"/></g></g><g style="display:inline"><g style="display:inline;opacity:1"><path d="M781.04163 704.48342c-.34997-.0114-.71116-.0112-1.08594.002h-83.88671c-11.41296 0-11.3379 12.11524-11.3379 12.11524.90943 62.73971 0 188.17969 0 188.17969s1.31197 9.36182 9.50391 9.76171h86.10547s10.68555-.68305 10.68555-10.93554c-1.00839-62.37969 0-124.55813 0-186.99414 0 0 .86472-11.7748-9.98438-12.12891z" style="opacity:1;mix-blend-mode:normal;fill:#ef6840;fill-opacity:1;stroke-width:7.55906;stroke-linecap:round;stroke-linejoin:round;stroke-dasharray:7.55906,15.1181" transform="translate(853.39022 -217.01073)"/><g style="display:inline" transform="translate(853.25544987 -270.298959)"><circle cx="722.94879" cy="854.53064" r="3.4077702" style="fill:#272727;fill-opacity:1;stroke:none;stroke-width:3.77953;stroke-linecap:round;stroke-linejoin:round;stroke-dasharray:none;stroke-dashoffset:0;stroke-opacity:1"/><circle cx="753.09442" cy="854.53064" r="3.4077702" style="fill:#272727;fill-opacity:1;stroke:none;stroke-width:3.77953;stroke-linecap:round;stroke-linejoin:round;stroke-dasharray:none;stroke-dashoffset:0;stroke-opacity:1"/><path d="M724.25957 873.99424h27.39322" style="fill:none;fill-opacity:1;stroke:#222;stroke-width:3.77953;stroke-linecap:round;stroke-linejoin:round;stroke-dasharray:none;stroke-dashoffset:0;stroke-opacity:1"/></g></g><path d="M1326.2532 218.96872c-51.1887 2.78064-171.5236 14.19981-232.9583 38.73636-41.6606 16.63892-79.4825 36.9845-106.71287 65.26172-27.23038 28.27722-43.73606 64.90782-40.50391 106.45117 4.47974 57.57866 37.66412 101.04415 84.10158 130.08594 46.4374 29.04178 106.1417 45.71618 170.0039 55.66992 127.7243 19.90747 272.9577 12.26715 358.8203 7.69726l18.8711-1.0039-2.0078-37.74219-18.8711 1.00391c-85.7775 4.56535-229.0853 11.69996-350.9922-7.30079-60.9534-9.50037-116.3372-25.69979-155.7832-50.36914-39.446-24.66934-62.94271-55.75239-66.46093-100.97265-2.36614-30.41224 8.45257-54.87827 30.04683-77.30274 21.5943-22.42446 54.4046-41.59971 92.8457-56.12109 57.7979-21.83353 170.1341-30.57528 219.5819-34.18494z" style="opacity:.814;fill:url(#f);fill-opacity:1;stroke-linecap:square"/><path d="M1006.4531 705.99999h528.031" style="fill:none;fill-opacity:1;stroke:#fff;stroke-width:15.11811024;stroke-linecap:round;stroke-linejoin:round;stroke-dasharray:15.11811024,30.23622047;stroke-dashoffset:0;stroke-opacity:1"/><text xml:space="preserve" x="1471.2894" y="298.72137" style="font-weight:700;font-size:110px;line-height:1;font-family:&quot;Corporate Logo ver2&quot;;-inkscape-font-specification:&quot;Corporate Logo ver2 Bold&quot;;text-align:start;letter-spacing:0;word-spacing:0;writing-mode:lr-tb;direction:ltr;text-anchor:start;display:inline;fill:#eee;fill-opacity:1;stroke:#111;stroke-width:6.04724;stroke-linecap:square;stroke-linejoin:miter;stroke-dasharray:none;stroke-dashoffset:0;stroke-opacity:1"><tspan x="1471.2894" y="298.72137" style="fill:#eee;fill-opacity:1;stroke:#111;stroke-width:6.04724;stroke-dasharray:none;stroke-opacity:1">動けない</tspan><tspan x="1471.2894" y="408.72137" style="fill:#eee;fill-opacity:1;stroke:#111;stroke-width:6.04724;stroke-dasharray:none;stroke-opacity:1">  <tspan style="letter-spacing:6.84px;stroke:#111;stroke-width:6.04724;stroke-dasharray:none;stroke-opacity:1"> </tspan>↓</tspan></text><text xml:space="preserve" x="1471.2894" y="298.72137" style="font-weight:700;font-size:110px;line-height:1;font-family:&quot;Corporate Logo ver2&quot;;-inkscape-font-specification:&quot;Corporate Logo ver2 Bold&quot;;text-align:start;letter-spacing:0;word-spacing:0;writing-mode:lr-tb;direction:ltr;text-anchor:start;display:inline;fill:#eee;fill-opacity:1;stroke:none;stroke-width:1.88976;stroke-linecap:square;stroke-linejoin:miter;stroke-dasharray:none;stroke-dashoffset:0;stroke-opacity:1"><tspan x="1471.2894" y="298.72137" style="fill:#eee;fill-opacity:1;stroke:none;stroke-width:1.88976;stroke-dasharray:none;stroke-opacity:1">動けない</tspan><tspan x="1471.2894" y="408.72137" style="fill:#eee;fill-opacity:1;stroke:none;stroke-width:1.88976;stroke-dasharray:none;stroke-opacity:1">  <tspan style="letter-spacing:6.84px"> </tspan>↓</tspan></text><text xml:space="preserve" x="194.00012" y="622.37823" style="font-weight:700;font-size:110px;line-height:1;font-family:&quot;Corporate Logo ver2&quot;;-inkscape-font-specification:&quot;Corporate Logo ver2 Bold&quot;;text-align:start;letter-spacing:0;word-spacing:0;writing-mode:lr-tb;direction:ltr;text-anchor:start;display:inline;fill:#fff;fill-opacity:1;stroke:#111;stroke-width:6.04724;stroke-linecap:square;stroke-linejoin:miter;stroke-dasharray:none;stroke-dashoffset:0;stroke-opacity:1"><tspan x="194.00012" y="622.37823" style="fill:#fff;fill-opacity:1;stroke:#111;stroke-width:6.04724;stroke-dasharray:none;stroke-opacity:1">高さをキープして</tspan><tspan x="194.00012" y="732.37823" style="fill:#fff;fill-opacity:1;stroke:#111;stroke-width:6.04724;stroke-dasharray:none;stroke-opacity:1">くっつきに行こう！</tspan></text><text xml:space="preserve" x="194.00012" y="622.37823" style="font-weight:700;font-size:110px;line-height:1;font-family:&quot;Corporate Logo ver2&quot;;-inkscape-font-specification:&quot;Corporate Logo ver2 Bold&quot;;text-align:start;letter-spacing:0;word-spacing:0;writing-mode:lr-tb;direction:ltr;text-anchor:start;display:inline;fill:#fff;fill-opacity:1;stroke:none;stroke-width:1.88976;stroke-linecap:square;stroke-linejoin:miter;stroke-dasharray:none;stroke-dashoffset:0;stroke-opacity:1"><tspan x="194.00012" y="622.37823" style="fill:#fff;fill-opacity:1;stroke:none;stroke-width:1.88976;stroke-dasharray:none;stroke-opacity:1">高さをキープして</tspan><tspan x="194.00012" y="732.37823" style="fill:#fff;fill-opacity:1;stroke:none;stroke-width:1.88976;stroke-dasharray:none;stroke-opacity:1">くっつきに行こう！</tspan></text></g></svg>