<svg xmlns="http://www.w3.org/2000/svg" xmlns:xlink="http://www.w3.org/1999/xlink" xml:space="preserve" width="1897" height="1072"><defs><linearGradient id="b"><stop offset="0" style="stop-color:#4294dd;stop-opacity:1"/><stop offset="1" style="stop-color:#4294dd;stop-opacity:0"/></linearGradient><linearGradient id="a"><stop offset="0" style="stop-color:#f55948;stop-opacity:1"/><stop offset="1" style="stop-color:#f55948;stop-opacity:0"/></linearGradient><linearGradient xlink:href="#a" id="e" x1="763.67535" x2="490.73212" y1="843.28101" y2="501.04132" gradientTransform="translate(0 25.046119)" gradientUnits="userSpaceOnUse"/><linearGradient xlink:href="#b" id="f" x1="316.28659" x2="711.78558" y1="855.67749" y2="855.67749" gradientUnits="userSpaceOnUse"/></defs><g style="display:inline"><g style="mix-blend-mode:normal"><g style="display:inline;opacity:.5"><path id="c" d="M41.942602 169.08311H1858.8889" style="display:inline;fill:none;fill-opacity:1;stroke:#a4a4a4;stroke-width:1.00157;stroke-linecap:round;stroke-linejoin:round;stroke-dasharray:none;stroke-opacity:1"/><use xlink:href="#c" style="display:inline" transform="translate(0 108.38845)"/><use xlink:href="#c" style="display:inline" transform="translate(0 211.80602)"/><use xlink:href="#c" style="display:inline" transform="translate(0 319.80611)"/><use xlink:href="#c" style="display:inline" transform="translate(0 425.70912)"/><use xlink:href="#c" style="display:inline" transform="translate(0 532.34891)"/><use xlink:href="#c" style="display:inline" transform="translate(0 639.11526)"/><use xlink:href="#c" style="display:inline" transform="translate(0 745.88162)"/></g><g style="display:inline;opacity:.5;stroke-width:.895884" transform="matrix(1.0017698 0 0 1.2437367 -9.8231724 -68.562424)"><path id="d" d="M904.96232 58.7185v859.8066" style="fill:none;fill-opacity:1;stroke:#a4a4a4;stroke-width:.897291;stroke-linecap:round;stroke-linejoin:round;stroke-dasharray:none;stroke-opacity:1"/><use xlink:href="#d" style="stroke-width:.895884" transform="translate(106.18398)"/><use xlink:href="#d" style="stroke-width:.895884" transform="translate(212.36797)"/><use xlink:href="#d" style="stroke-width:.895884" transform="translate(318.55195)"/><use xlink:href="#d" style="stroke-width:.895884" transform="translate(424.73594)"/><use xlink:href="#d" style="stroke-width:.895884" transform="translate(530.91993)"/><use xlink:href="#d" style="stroke-width:.895884" transform="translate(637.10391)"/><use xlink:href="#d" style="stroke-width:.895884" transform="translate(743.2879)"/><use xlink:href="#d" style="stroke-width:.895884" transform="translate(849.47188)"/><use xlink:href="#d" style="stroke-width:.895884" transform="translate(-106.18399)"/><use xlink:href="#d" style="stroke-width:.895884" transform="translate(-212.36797)"/><use xlink:href="#d" style="stroke-width:.895884" transform="translate(-318.55196)"/><use xlink:href="#d" style="stroke-width:.895884" transform="translate(-424.73595)"/><use xlink:href="#d" style="stroke-width:.895884" transform="translate(-530.91993)"/><use xlink:href="#d" style="stroke-width:.895884" transform="translate(-637.10392)"/><use xlink:href="#d" style="stroke-width:.895884" transform="translate(-743.2879)"/></g></g><path d="M0-1.078125V1073.1886l1897.3438.3769-.094-1073.9405zm46 63.302734h1808V700.74219h-206.2266c-3.2531 0-5.8711 2.61993-5.8711 5.87304v100.90039h-420.3359c-3.2531 0-5.873 2.61994-5.873 5.87305V914.5h-106.0098V813.38867c0-3.25311-2.4988-5.87305-5.752-5.87305h-94.6504c-3.2531 0-5.871 2.61994-5.871 5.87305v207.67383H683.94922V814.80273c0-3.25311-4.91681-6.93359-8.16992-6.93359h-97.89649V706.26172c0-3.25312-4.9168-4.10547-8.16992-4.10547H46ZM1228.4531 380.42383c-7.5582 0-13.6445 6.08431-13.6445 13.64258v81.60937c0 7.55827 6.0863 13.64258 13.6445 13.64258H1309c7.5583 0 13.6426-6.08431 13.6426-13.64258v-81.60937c0-7.55827-6.0843-13.64258-13.6426-13.64258z" style="display:inline;fill:#a6a09c;fill-opacity:1;stroke:none;stroke-width:5;stroke-linecap:square;stroke-linejoin:round;stroke-dasharray:none"/><g style="display:inline"><path d="M696.06846 808.50959h83.88713c11.99268-.41997 11.07138 12.12676 11.07138 12.12676V903.606c0 10.25249-10.68731 10.93573-10.68731 10.93573h-86.10387c-8.19194-.39989-9.50539-9.76067-9.50539-9.76067v-84.15612s-.0749-12.11535 11.33806-12.11535z" style="opacity:1;mix-blend-mode:normal;fill:#4294dd;fill-opacity:1;stroke-width:7.55906;stroke-linecap:round;stroke-linejoin:round;stroke-dasharray:7.55906,15.1181" transform="translate(531.05345 -533.24358)"/><g style="display:inline" transform="translate(530.91867987 -535.2265136)"><circle cx="722.94879" cy="854.53064" r="3.4077702" style="fill:#272727;fill-opacity:1;stroke:none;stroke-width:3.77953;stroke-linecap:round;stroke-linejoin:round;stroke-dasharray:none;stroke-dashoffset:0;stroke-opacity:1"/><circle cx="753.09442" cy="854.53064" r="3.4077702" style="fill:#272727;fill-opacity:1;stroke:none;stroke-width:3.77953;stroke-linecap:round;stroke-linejoin:round;stroke-dasharray:none;stroke-dashoffset:0;stroke-opacity:1"/><path d="M724.25957 873.99424h27.39322" style="fill:none;fill-opacity:1;stroke:#222;stroke-width:3.77953;stroke-linecap:round;stroke-linejoin:round;stroke-dasharray:none;stroke-dashoffset:0;stroke-opacity:1"/></g></g><g style="display:inline"><path d="M696.06846 808.50959h83.88713c11.99268-.41997 11.07138 12.12676 11.07138 12.12676V903.606c0 10.25249-10.68731 10.93573-10.68731 10.93573h-86.10387c-8.19194-.39989-9.50539-9.76067-9.50539-9.76067v-84.15612s-.0749-12.11535 11.33806-12.11535z" style="opacity:1;mix-blend-mode:normal;fill:#4294dd;fill-opacity:1;stroke-width:7.55906;stroke-linecap:round;stroke-linejoin:round;stroke-dasharray:7.55906,15.1181" transform="translate(212.32506 106.51128)"/><g style="display:inline" transform="translate(212.19028987 104.5283464)"><circle cx="722.94879" cy="854.53064" r="3.4077702" style="fill:#272727;fill-opacity:1;stroke:none;stroke-width:3.77953;stroke-linecap:round;stroke-linejoin:round;stroke-dasharray:none;stroke-dashoffset:0;stroke-opacity:1"/><circle cx="753.09442" cy="854.53064" r="3.4077702" style="fill:#272727;fill-opacity:1;stroke:none;stroke-width:3.77953;stroke-linecap:round;stroke-linejoin:round;stroke-dasharray:none;stroke-dashoffset:0;stroke-opacity:1"/><path d="M724.25957 873.99424h27.39322" style="fill:none;fill-opacity:1;stroke:#222;stroke-width:3.77953;stroke-linecap:round;stroke-linejoin:round;stroke-dasharray:none;stroke-dashoffset:0;stroke-opacity:1"/></g></g><g style="display:inline"><path d="M696.06846 808.50959h83.88713c11.99268-.41997 11.07138 12.12676 11.07138 12.12676V903.606c0 10.25249-10.68731 10.93573-10.68731 10.93573h-86.10387c-8.19194-.39989-9.50539-9.76067-9.50539-9.76067v-84.15612s-.0749-12.11535 11.33806-12.11535z" style="opacity:1;mix-blend-mode:normal;fill:#f5a633;fill-opacity:1;stroke-width:7.55906;stroke-linecap:round;stroke-linejoin:round;stroke-dasharray:7.55906,15.1181" transform="rotate(-.322802 -37149.08 57572.858)"/><g style="display:inline" transform="rotate(-.322802 -37500.9726 57597.77043568)"><circle cx="722.94879" cy="854.53064" r="3.4077702" style="fill:#272727;fill-opacity:1;stroke:none;stroke-width:3.77953;stroke-linecap:round;stroke-linejoin:round;stroke-dasharray:none;stroke-dashoffset:0;stroke-opacity:1"/><circle cx="753.09442" cy="854.53064" r="3.4077702" style="fill:#272727;fill-opacity:1;stroke:none;stroke-width:3.77953;stroke-linecap:round;stroke-linejoin:round;stroke-dasharray:none;stroke-dashoffset:0;stroke-opacity:1"/><path d="M724.25957 873.99424h27.39322" style="fill:none;fill-opacity:1;stroke:#222;stroke-width:3.77953;stroke-linecap:round;stroke-linejoin:round;stroke-dasharray:none;stroke-dashoffset:0;stroke-opacity:1"/></g></g><g style="display:inline"><path d="M696.06846 808.50959h83.88713c11.99268-.41997 11.07138 12.12676 11.07138 12.12676V903.606c0 10.25249-10.68731 10.93573-10.68731 10.93573h-86.10387c-8.19194-.39989-9.50539-9.76067-9.50539-9.76067v-84.15612s-.0749-12.11535 11.33806-12.11535z" style="opacity:1;mix-blend-mode:normal;fill:#f5a633;fill-opacity:1;stroke-width:7.55906;stroke-linecap:round;stroke-linejoin:round;stroke-dasharray:7.55906,15.1181" transform="rotate(-.322802 -74765.978 57372.76)"/><g style="display:inline" transform="rotate(-.322802 -75117.8706 57397.67243568)"><circle cx="722.94879" cy="854.53064" r="3.4077702" style="fill:#272727;fill-opacity:1;stroke:none;stroke-width:3.77953;stroke-linecap:round;stroke-linejoin:round;stroke-dasharray:none;stroke-dashoffset:0;stroke-opacity:1"/><circle cx="753.09442" cy="854.53064" r="3.4077702" style="fill:#272727;fill-opacity:1;stroke:none;stroke-width:3.77953;stroke-linecap:round;stroke-linejoin:round;stroke-dasharray:none;stroke-dashoffset:0;stroke-opacity:1"/><path d="M724.25957 873.99424h27.39322" style="fill:none;fill-opacity:1;stroke:#222;stroke-width:3.77953;stroke-linecap:round;stroke-linejoin:round;stroke-dasharray:none;stroke-dashoffset:0;stroke-opacity:1"/></g></g><g style="display:inline"><path d="M696.06846 808.50959h83.88713c11.99268-.41997 11.07138 12.12676 11.07138 12.12676V903.606c0 10.25249-10.68731 10.93573-10.68731 10.93573h-86.10387c-8.19194-.39989-9.50539-9.76067-9.50539-9.76067v-84.15612s-.0749-12.11535 11.33806-12.11535z" style="opacity:1;mix-blend-mode:normal;fill:#f5a633;fill-opacity:1;stroke-width:7.55906;stroke-linecap:round;stroke-linejoin:round;stroke-dasharray:7.55906,15.1181" transform="rotate(-.322802 19693.243 1034.2514)"/><g style="display:inline" transform="rotate(-.322802 19341.3504 1059.16383568)"><circle cx="722.94879" cy="854.53064" r="3.4077702" style="fill:#272727;fill-opacity:1;stroke:none;stroke-width:3.77953;stroke-linecap:round;stroke-linejoin:round;stroke-dasharray:none;stroke-dashoffset:0;stroke-opacity:1"/><circle cx="753.09442" cy="854.53064" r="3.4077702" style="fill:#272727;fill-opacity:1;stroke:none;stroke-width:3.77953;stroke-linecap:round;stroke-linejoin:round;stroke-dasharray:none;stroke-dashoffset:0;stroke-opacity:1"/><path d="M724.25957 873.99424h27.39322" style="fill:none;fill-opacity:1;stroke:#222;stroke-width:3.77953;stroke-linecap:round;stroke-linejoin:round;stroke-dasharray:none;stroke-dashoffset:0;stroke-opacity:1"/></g></g></g><g style="display:inline"><path d="M374.32476 486.92034h86.508c12.3675-.43019 11.4174 12.42211 11.4174 12.42211v84.99039c0 10.50219-11.0212 11.20206-11.0212 11.20206h-88.7942c-8.4478-.40962-9.8025-9.99839-9.8025-9.99839v-86.20574s-.077-12.41043 11.6925-12.41043z" style="display:inline;opacity:1;mix-blend-mode:normal;fill:#f55948;fill-opacity:.2;stroke:#f55948;stroke-width:6.04724;stroke-linecap:round;stroke-linejoin:round;stroke-dasharray:6.04724,18.1417;stroke-dashoffset:0;stroke-opacity:1"/><path d="m971.55564 510.90657 17.71834 28.18027-27.86388-17.88976c-26.16406 24.80071-39.45634-1.11734-29.10169-9.9318-24.92038-.48879-7.86625-39.83593 11.06246-22.20429-2.57031-28.30425 34.58784-17.41844 23.70608-1.0649 21.23088-11.99975 26.0718 25.97489 4.47869 22.91048zM870.31884 479.67227c-10.30236-11.92628-23.6551 7.80872-7.87344 12.89295-8.27563 10.95524 12.97619 19.10891 13.11408 6.82544 13.71127 10.92782 20.63547-14.73737 7.57736-15.12032 5.68835-8.44326-7.46474-17.83725-12.818-4.59807z" style="fill:#fff;fill-opacity:1;stroke:#333;stroke-width:3.77953;stroke-linecap:round;stroke-linejoin:round;stroke-dasharray:none;stroke-opacity:1" transform="matrix(-1 0 0 1 2017.6908 181.58436)"/><g style="display:inline;stroke-width:.996339"><path d="M781.04163 704.48342c-.34997-.0114-.71116-.0112-1.08594.002h-83.88671c-11.41296 0-11.3379 12.11524-11.3379 12.11524.90943 62.73971 0 188.17969 0 188.17969s1.31197 9.36182 9.50391 9.76171h86.10547s10.68555-.68305 10.68555-10.93554c-1.00839-62.37969 0-124.55813 0-186.99414 0 0 .86472-11.7748-9.98438-12.12891z" style="opacity:1;mix-blend-mode:normal;fill:#f55948;fill-opacity:1;stroke-width:7.53139;stroke-linecap:round;stroke-linejoin:round;stroke-dasharray:7.53139,15.0628" transform="matrix(1.0073623 0 0 1 100.08737 106.30439)"/><g style="display:inline;stroke-width:.996339" transform="matrix(1.0073623 0 0 1 99.95160765 53.016161)"><circle cx="722.94879" cy="854.53064" r="3.4077702" style="fill:#272727;fill-opacity:1;stroke:none;stroke-width:3.76569;stroke-linecap:round;stroke-linejoin:round;stroke-dasharray:none;stroke-dashoffset:0;stroke-opacity:1"/><circle cx="753.09442" cy="854.53064" r="3.4077702" style="fill:#272727;fill-opacity:1;stroke:none;stroke-width:3.76569;stroke-linecap:round;stroke-linejoin:round;stroke-dasharray:none;stroke-dashoffset:0;stroke-opacity:1"/><path d="M724.25957 873.99424h27.39322" style="fill:none;fill-opacity:1;stroke:#222;stroke-width:3.76569;stroke-linecap:round;stroke-linejoin:round;stroke-dasharray:none;stroke-dashoffset:0;stroke-opacity:1"/></g></g><g style="display:inline;opacity:1;stroke-width:.993117"><path d="M696.06896 808.51037c-11.41296 0-11.33789 12.11523-11.33789 12.11523v84.15625s1.31196 9.35988 9.5039 9.75977c64.12927-1.60024 127.71801 0 192.00782 0 0 0 10.6875-.68306 10.6875-10.93555v-82.96875s.92041-12.54692-11.07227-12.12695c-63.38173 1.61209-126.3185.00057-189.78906 0z" style="opacity:1;mix-blend-mode:normal;fill:#4294dd;fill-opacity:1;stroke-width:7.50703;stroke-linecap:round;stroke-linejoin:round;stroke-dasharray:7.50703,15.014" transform="matrix(1.013909 0 0 1 93.416501 -103.43891)"/><g style="display:inline;stroke-width:.993117" transform="matrix(1.013909 0 0 1 146.96833848 -105.4215085)"><circle cx="722.94879" cy="854.53064" r="3.4077702" style="fill:#272727;fill-opacity:1;stroke:none;stroke-width:3.75352;stroke-linecap:round;stroke-linejoin:round;stroke-dasharray:none;stroke-dashoffset:0;stroke-opacity:1"/><circle cx="753.09442" cy="854.53064" r="3.4077702" style="fill:#272727;fill-opacity:1;stroke:none;stroke-width:3.75352;stroke-linecap:round;stroke-linejoin:round;stroke-dasharray:none;stroke-dashoffset:0;stroke-opacity:1"/><path d="M724.25957 873.99424h27.39322" style="fill:none;fill-opacity:1;stroke:#222;stroke-width:3.75352;stroke-linecap:round;stroke-linejoin:round;stroke-dasharray:none;stroke-dashoffset:0;stroke-opacity:1"/></g></g><path d="M696.06896 808.51037c-11.41296 0-11.33789 12.11523-11.33789 12.11523v84.15625s1.31196 9.35988 9.5039 9.75977c64.12927-1.60024 127.71801 0 192.00782 0 0 0 10.6875-.68306 10.6875-10.93555v-82.96875s.92041-12.54692-11.07227-12.12695c-63.38173 1.61209-126.3185.00057-189.78906 0z" style="display:inline;opacity:1;mix-blend-mode:normal;fill:#3f74a3;fill-opacity:.2;stroke:#4294dd;stroke-width:6.00562;stroke-linecap:round;stroke-linejoin:round;stroke-dasharray:6.00562,18.0169;stroke-dashoffset:0;stroke-opacity:1" transform="matrix(1.013909 0 0 1 627.31418 -106.67748)"/><path d="M476.57227 544.1887c-8.42103-.18515-32.93268.48656-36.17798.7656v37.98242c104.44796-11.69859 193.63703 59.34755 222.80298 146.59571.0441.13136.0897.26223.13671.39258 20.20257 56.28713 47.83474 127.56764 118.38672 152.02148l17.85547 6.18945 12.37695-35.71093-17.85546-6.18946c-51.48784-17.84604-75.381-73.89095-95.18946-129.08005l.13477.39453c-31.7011-94.83195-120.53055-171.12036-222.4707-173.36133Z" style="display:inline;opacity:.703;fill:url(#e);fill-opacity:1;stroke-linecap:square;stroke-linejoin:round"/><path d="M336.32812 850.92773v37.53516h381.78711v-37.53516H355.0957Z" style="display:inline;opacity:.71;fill:url(#f);fill-opacity:1;stroke-width:.993117;stroke-linecap:square;stroke-linejoin:round" transform="matrix(1.013909 0 0 1 627.31418 -106.67748)"/></g></svg>