<svg xmlns="http://www.w3.org/2000/svg" xmlns:xlink="http://www.w3.org/1999/xlink" xml:space="preserve" width="1904" height="1072"><g style="display:inline"><g style="display:inline"><g style="display:inline;opacity:.5" transform="translate(6.959014 .98241)"><path id="a" d="M41.942602 170.44331H1858.8889" style="display:inline;fill:none;fill-opacity:1;stroke:#a4a4a4;stroke-width:1.00157;stroke-linecap:round;stroke-linejoin:round;stroke-dasharray:none;stroke-opacity:1"/><use xlink:href="#a" style="display:inline" transform="translate(0 106.3602)"/><use xlink:href="#a" style="display:inline" transform="translate(0 212.72041)"/><use xlink:href="#a" style="display:inline" transform="translate(0 319.08061)"/><use xlink:href="#a" style="display:inline" transform="translate(0 425.44081)"/><use xlink:href="#a" style="display:inline" transform="translate(0 531.80101)"/><use xlink:href="#a" style="display:inline" transform="translate(0 638.16122)"/></g><g style="display:inline;opacity:.5;stroke-width:.896677" transform="matrix(1 0 0 1.2437367 .959014 -67.93357)"><path id="b" d="M897.60883 58.7185v859.8066" style="fill:none;fill-opacity:1;stroke:#a4a4a4;stroke-width:.898084;stroke-linecap:round;stroke-linejoin:round;stroke-dasharray:none;stroke-opacity:1"/><use xlink:href="#b" style="stroke-width:.896677" transform="translate(106.94548)"/><use xlink:href="#b" style="stroke-width:.896677" transform="translate(213.89096)"/><use xlink:href="#b" style="stroke-width:.896677" transform="translate(320.83645)"/><use xlink:href="#b" style="stroke-width:.896677" transform="translate(427.78193)"/><use xlink:href="#b" style="stroke-width:.896677" transform="translate(534.72742)"/><use xlink:href="#b" style="stroke-width:.896677" transform="translate(641.6729)"/><use xlink:href="#b" style="stroke-width:.896677" transform="translate(748.61839)"/><use xlink:href="#b" style="stroke-width:.896677" transform="translate(855.56387)"/><use xlink:href="#b" style="stroke-width:.896677" transform="translate(-106.94549)"/><use xlink:href="#b" style="stroke-width:.896677" transform="translate(-213.89097)"/><use xlink:href="#b" style="stroke-width:.896677" transform="translate(-320.83646)"/><use xlink:href="#b" style="stroke-width:.896677" transform="translate(-427.78194)"/><use xlink:href="#b" style="stroke-width:.896677" transform="translate(-534.72743)"/><use xlink:href="#b" style="stroke-width:.896677" transform="translate(-641.67291)"/><use xlink:href="#b" style="stroke-width:.896677" transform="translate(-748.6184)"/></g></g><path d="M-6-2v1078h1912V-2Zm54.492188 67.75H1859.3789v850.49219H48.492188ZM262.66016 172.12109c-3.29832 0-5.95313 2.65481-5.95313 5.95313l.0156 625.51953c0 3.34764 2.69534 6.04347 6.04296 6.04297l1378.83401-.20703c3.301-.0005 5.959-2.65606 5.959-5.95703 0 0-.1003-433.0343-.377-625.39844 0-3.29832-2.6548-5.95313-5.9531-5.95313zm101.6289 106.1211H1540.7852v104.30273h-316.1329c-3.2983 0-5.9531 2.65481-5.9531 5.95313v203.05273c0 3.29832 2.6548 5.95508 5.9531 5.95508h208.1094v105.60742H364.28906V597.13477h100.39258c3.32535 0 6.00195-2.67856 6.00195-6.00391V387.83984c0-3.32535-2.6766-6.00195-6.00195-6.00195H364.28906ZM690.75781 384.3125c-3.28194 0-5.92578 2.64189-5.92578 5.92383V590.875c0 3.28194 2.64384 5.92383 5.92578 5.92383h416.30469c3.2819 0 5.9238-2.64189 5.9238-5.92383V390.23633c0-3.28194-2.6419-5.92383-5.9238-5.92383z" style="fill:#acaca7;fill-opacity:1;stroke:none;stroke-width:6.04724;stroke-linecap:round;stroke-linejoin:round"/><g style="display:inline;stroke-width:.994172"><path d="M696.06846 808.50959h83.88713c11.99268-.41997 11.07138 12.12676 11.07138 12.12676V903.606c0 10.25249-10.68731 10.93573-10.68731 10.93573h-86.10387c-8.19194-.39989-9.50539-9.76067-9.50539-9.76067v-84.15612s-.0749-12.11535 11.33806-12.11535z" style="opacity:1;mix-blend-mode:normal;fill:#0a9adc;fill-opacity:1;stroke-width:7.51501;stroke-linecap:round;stroke-linejoin:round;stroke-dasharray:7.51501,15.03" transform="matrix(1.0117577 0 0 1 740.19591 -531.67175)"/><g style="display:inline;stroke-width:.994172" transform="matrix(1.0117577 0 0 1 740.05955528 -533.6546836)"><circle cx="722.94879" cy="854.53064" r="3.4077702" style="fill:#272727;fill-opacity:1;stroke:none;stroke-width:3.7575;stroke-linecap:round;stroke-linejoin:round;stroke-dasharray:none;stroke-dashoffset:0;stroke-opacity:1"/><circle cx="753.09442" cy="854.53064" r="3.4077702" style="fill:#272727;fill-opacity:1;stroke:none;stroke-width:3.7575;stroke-linecap:round;stroke-linejoin:round;stroke-dasharray:none;stroke-dashoffset:0;stroke-opacity:1"/><path d="M724.25957 873.99424h27.39322" style="fill:none;fill-opacity:1;stroke:#222;stroke-width:3.7575;stroke-linecap:round;stroke-linejoin:round;stroke-dasharray:none;stroke-dashoffset:0;stroke-opacity:1"/></g></g><g style="display:inline;stroke-width:.99533"><path d="M696.06846 808.50959h83.88713c11.99268-.41997 11.07138 12.12676 11.07138 12.12676V903.606c0 10.25249-10.68731 10.93573-10.68731 10.93573h-86.10387c-8.19194-.39989-9.50539-9.76067-9.50539-9.76067v-84.15612s-.0749-12.11535 11.33806-12.11535z" style="opacity:1;mix-blend-mode:normal;fill:#f0673f;fill-opacity:1;stroke-width:7.52376;stroke-linecap:round;stroke-linejoin:round;stroke-dasharray:7.52376,15.0475" transform="matrix(1.0094062 0 0 1 635.15036 -531.00368)"/><g style="display:inline;stroke-width:.99533" transform="matrix(1.0094062 0 0 1 635.0143222 -532.9866136)"><circle cx="722.94879" cy="854.53064" r="3.4077702" style="fill:#272727;fill-opacity:1;stroke:none;stroke-width:3.76188;stroke-linecap:round;stroke-linejoin:round;stroke-dasharray:none;stroke-dashoffset:0;stroke-opacity:1"/><circle cx="753.09442" cy="854.53064" r="3.4077702" style="fill:#272727;fill-opacity:1;stroke:none;stroke-width:3.76188;stroke-linecap:round;stroke-linejoin:round;stroke-dasharray:none;stroke-dashoffset:0;stroke-opacity:1"/><path d="M724.25957 873.99424h27.39322" style="fill:none;fill-opacity:1;stroke:#222;stroke-width:3.76188;stroke-linecap:round;stroke-linejoin:round;stroke-dasharray:none;stroke-dashoffset:0;stroke-opacity:1"/></g></g><g style="display:inline;stroke-width:1.0107"><path d="M696.06846 808.50959h83.88713c11.99268-.41997 11.07138 12.12676 11.07138 12.12676V903.606c0 10.25249-10.68731 10.93573-10.68731 10.93573h-86.10387c-8.19194-.39989-9.50539-9.76067-9.50539-9.76067v-84.15612s-.0749-12.11535 11.33806-12.11535z" style="opacity:1;mix-blend-mode:normal;fill:#febc46;fill-opacity:1;stroke-width:7.63997;stroke-linecap:round;stroke-linejoin:round;stroke-dasharray:7.63997,15.2799" transform="matrix(.99526469 -.00554138 .00560734 .98355667 -321.73513 -513.24815)"/><g style="display:inline;stroke-width:1.0107" transform="matrix(.99526469 -.00554138 .00560734 .98355667 -321.88038093 -515.19773076)"><circle cx="722.94879" cy="854.53064" r="3.4077702" style="fill:#272727;fill-opacity:1;stroke:none;stroke-width:3.81999;stroke-linecap:round;stroke-linejoin:round;stroke-dasharray:none;stroke-dashoffset:0;stroke-opacity:1"/><circle cx="753.09442" cy="854.53064" r="3.4077702" style="fill:#272727;fill-opacity:1;stroke:none;stroke-width:3.81999;stroke-linecap:round;stroke-linejoin:round;stroke-dasharray:none;stroke-dashoffset:0;stroke-opacity:1"/><path d="M724.25957 873.99424h27.39322" style="fill:none;fill-opacity:1;stroke:#222;stroke-width:3.81999;stroke-linecap:round;stroke-linejoin:round;stroke-dasharray:none;stroke-dashoffset:0;stroke-opacity:1"/></g></g></g><g style="display:inline"><g style="display:inline"><path d="M696.06846 808.50959h83.88713c11.99268-.41997 11.07138 12.12676 11.07138 12.12676V903.606c0 10.25249-10.68731 10.93573-10.68731 10.93573h-86.10387c-8.19194-.39989-9.50539-9.76067-9.50539-9.76067v-84.15612s-.0749-12.11535 11.33806-12.11535z" style="opacity:1;mix-blend-mode:normal;fill:#febc46;fill-opacity:1;stroke-width:7.55906;stroke-linecap:round;stroke-linejoin:round;stroke-dasharray:7.55906,15.1181" transform="rotate(-.322802 -36730.444 772.0439)"/><g style="display:inline" transform="rotate(-.322802 -37082.3366 796.95633568)"><circle cx="722.94879" cy="854.53064" r="3.4077702" style="fill:#272727;fill-opacity:1;stroke:none;stroke-width:3.77953;stroke-linecap:round;stroke-linejoin:round;stroke-dasharray:none;stroke-dashoffset:0;stroke-opacity:1"/><circle cx="753.09442" cy="854.53064" r="3.4077702" style="fill:#272727;fill-opacity:1;stroke:none;stroke-width:3.77953;stroke-linecap:round;stroke-linejoin:round;stroke-dasharray:none;stroke-dashoffset:0;stroke-opacity:1"/><path d="M724.25957 873.99424h27.39322" style="fill:none;fill-opacity:1;stroke:#222;stroke-width:3.77953;stroke-linecap:round;stroke-linejoin:round;stroke-dasharray:none;stroke-dashoffset:0;stroke-opacity:1"/></g></g><path d="m1230.2342 277.77931 83.8858-.47261c11.9901-.48753 11.1395 12.06419 11.1395 12.06419l.4675 82.96834c.058 10.25232-10.6255 10.99576-10.6255 10.99576l-86.1025.48511c-8.1941-.35373-9.5603-9.70697-9.5603-9.70697l-.4741-84.15478s-.1432-12.11474 11.2696-12.17904z" style="display:inline;mix-blend-mode:normal;fill:#febc46;fill-opacity:.2;stroke:#feab1a;stroke-width:6.04724;stroke-linecap:round;stroke-linejoin:round;stroke-dasharray:6.04724,18.1417;stroke-dashoffset:0;stroke-opacity:1"/><g style="display:inline"><path d="M696.06846 808.50959h83.88713c11.99268-.41997 11.07138 12.12676 11.07138 12.12676 3.04765 28.67243 4.86193 56.93374 0 82.96965 0 10.25249-10.68731 10.93573-10.68731 10.93573h-86.10387c-8.19194-.39989-9.50539-9.76067-9.50539-9.76067 8.91132-28.05204 7.04237-56.10408 0-84.15612 0 0-.0749-12.11535 11.33806-12.11535z" style="opacity:1;mix-blend-mode:normal;fill:#0a9adc;fill-opacity:1;stroke-width:7.55906;stroke-linecap:round;stroke-linejoin:round;stroke-dasharray:7.55906,15.1181" transform="translate(-107.92513 -211.13151)"/><g style="display:inline" transform="translate(-104.0599001 -213.1144436)"><circle cx="722.94879" cy="854.53064" r="3.4077702" style="fill:#272727;fill-opacity:1;stroke:none;stroke-width:3.77953;stroke-linecap:round;stroke-linejoin:round;stroke-dasharray:none;stroke-dashoffset:0;stroke-opacity:1"/><circle cx="753.09442" cy="854.53064" r="3.4077702" style="fill:#272727;fill-opacity:1;stroke:none;stroke-width:3.77953;stroke-linecap:round;stroke-linejoin:round;stroke-dasharray:none;stroke-dashoffset:0;stroke-opacity:1"/><path d="M724.25957 873.99424h27.39322" style="fill:none;fill-opacity:1;stroke:#222;stroke-width:3.77953;stroke-linecap:round;stroke-linejoin:round;stroke-dasharray:none;stroke-dashoffset:0;stroke-opacity:1"/></g></g><g style="display:inline"><path d="M696.06846 808.50959h83.88713c11.99268-.41997 11.07138 12.12676 11.07138 12.12676-5.31768 28.72009-7.90634 56.89437 0 82.96965 0 10.25249-10.68731 10.93573-10.68731 10.93573h-86.10387c-8.19194-.39989-9.50539-9.76067-9.50539-9.76067-7.64894-28.05204-5.61801-56.10408 0-84.15612 0 0-.0749-12.11535 11.33806-12.11535z" style="opacity:1;mix-blend-mode:normal;fill:#0a9adc;fill-opacity:1;stroke-width:7.55906;stroke-linecap:round;stroke-linejoin:round;stroke-dasharray:7.55906,15.1181" transform="translate(107.84565 -211.13151)"/><g style="display:inline" transform="translate(103.7108799 -213.1144436)"><circle cx="722.94879" cy="854.53064" r="3.4077702" style="fill:#272727;fill-opacity:1;stroke:none;stroke-width:3.77953;stroke-linecap:round;stroke-linejoin:round;stroke-dasharray:none;stroke-dashoffset:0;stroke-opacity:1"/><circle cx="753.09442" cy="854.53064" r="3.4077702" style="fill:#272727;fill-opacity:1;stroke:none;stroke-width:3.77953;stroke-linecap:round;stroke-linejoin:round;stroke-dasharray:none;stroke-dashoffset:0;stroke-opacity:1"/><path d="M724.25957 873.99424h27.39322" style="fill:none;fill-opacity:1;stroke:#222;stroke-width:3.77953;stroke-linecap:round;stroke-linejoin:round;stroke-dasharray:none;stroke-dashoffset:0;stroke-opacity:1"/></g></g><g style="display:inline"><path d="M696.06846 808.50959h83.88713c11.99268-.41997 11.07138 12.12676 11.07138 12.12676V903.606c0 10.25249-10.68731 10.93573-10.68731 10.93573h-86.10387c-8.19194-.39989-9.50539-9.76067-9.50539-9.76067v-84.15612s-.0749-12.11535 11.33806-12.11535z" style="opacity:1;mix-blend-mode:normal;fill:#f0673f;fill-opacity:1;stroke-width:7.55906;stroke-linecap:round;stroke-linejoin:round;stroke-dasharray:7.55906,15.1181" transform="translate(427.96012 -211.79113)"/><g style="display:inline" transform="translate(427.82534987 -213.7740636)"><circle cx="722.94879" cy="854.53064" r="3.4077702" style="fill:#272727;fill-opacity:1;stroke:none;stroke-width:3.77953;stroke-linecap:round;stroke-linejoin:round;stroke-dasharray:none;stroke-dashoffset:0;stroke-opacity:1"/><circle cx="753.09442" cy="854.53064" r="3.4077702" style="fill:#272727;fill-opacity:1;stroke:none;stroke-width:3.77953;stroke-linecap:round;stroke-linejoin:round;stroke-dasharray:none;stroke-dashoffset:0;stroke-opacity:1"/><path d="M724.25957 873.99424h27.39322" style="fill:none;fill-opacity:1;stroke:#222;stroke-width:3.77953;stroke-linecap:round;stroke-linejoin:round;stroke-dasharray:none;stroke-dashoffset:0;stroke-opacity:1"/></g></g><g style="display:inline;stroke-width:1.68987"><g style="display:inline;stroke-width:1.68987"><path d="M1230.6516 580.05857c-1.6104-14.2349 6.32-31.12702 9.4314-36.98777 18.919-35.63507 42.5774-25.41967 47.6424-19.68602 6.8462 7.74989 5.7272 17.7595 1.1187 25.12759-3.7839 6.05002-17.7577 10.47327-26.5463 12.94782-10.5621 2.97394-16.777 6.76125-31.6462 18.59838z" style="display:inline;fill:#98e3eb;stroke-width:1.68987;stroke-linecap:round;stroke-linejoin:round" transform="matrix(-.59055688 -.04276099 -.04239908 .58989904 1326.9162101 283.15715073)"/><path d="M1275.8418 513.87891c-2.2487-.25456-4.6719-.2513-7.2402.0898-10.2734 1.36457-22.0218 8.80411-31.8575 27.33008-3.2745 6.16807-11.6514 23.24156-9.8476 39.18554a3.779903 3.779903 0 0 0 6.1094 2.53125c14.775-11.76217 20.1877-15.06608 30.3164-17.91796 4.4567-1.25487 10.274-3.00708 15.6152-5.29688 5.3412-2.28979 10.3298-4.83784 13.1113-9.28516 5.2787-8.43962 6.5604-20.51959-1.4902-29.63281-2.7962-3.16533-7.9708-6.24022-14.7168-7.0039zm-6.2441 7.58203c7.5518-1.00309 13.9581 2.91257 15.2949 4.42578 5.6418 6.38656 4.6863 14.32454.748 20.62109-1.0024 1.60271-4.8928 4.29273-9.6816 6.34571-4.7888 2.05297-10.3537 3.74906-14.6856 4.96875-9.2698 2.61006-15.9885 6.3531-26.748 14.50781 1.1548-11.0419 6.4939-22.96069 8.8965-27.48633 9.0834-17.1091 18.6239-22.37972 26.1758-23.38281z" style="display:inline;fill:#333;fill-opacity:1;stroke-width:1.68987;stroke-linecap:round;stroke-linejoin:round" transform="matrix(-.59055688 -.04276099 -.04239908 .58989904 1326.9162101 283.15715073)"/></g><g style="display:inline;stroke-width:1.68987"><path d="M1248.5304 609.21468c5.6011-9.68261 18.5869-16.6467 23.3243-18.89736 28.8046-13.68439 39.2795 3.61285 39.868 9.54391.7957 8.01678-4.5932 13.7899-10.9977 16.29898-5.2587 2.06026-16.3223-1.5875-23.1372-4.07482-8.1903-2.98927-13.9596-3.46831-29.0574-2.87071z" style="display:inline;fill:#98e3eb;stroke-width:1.68987;stroke-linecap:round;stroke-linejoin:round" transform="matrix(-.59055688 -.04276099 -.04239908 .58989904 1326.9162101 283.15715073)"/><path d="M1290.0527 581.46094c-5.6531.22719-12.2602 1.85173-19.8203 5.44336-5.0489 2.39865-18.497 9.22357-24.9726 20.41797a3.779903 3.779903 0 0 0 3.4199 5.66992c14.98-.59294 19.8358-.19334 27.6113 2.64453 3.4673 1.26549 8.0552 2.84879 12.6172 3.8789 4.562 1.03012 9.0223 1.79896 13.1953.16407 7.5674-2.96468 14.3598-10.32815 13.3809-20.19141-.4762-4.79884-3.8512-11.09921-11.336-15.08984-3.7424-1.99532-8.4425-3.1647-14.0957-2.9375zm.1993 7.48047c4.4305-.19297 7.7893.76712 10.3398 2.12695 5.1009 2.71965 7.2568 8.0338 7.3691 9.16601.6125 6.1703-3.3736 10.35277-8.6152 12.40625-1.0857.42537-4.7853.40054-8.7734-.5-3.9882-.90053-8.3418-2.38363-11.6895-3.60546-6.846-2.49864-12.6686-3.32388-22.3457-3.26954 5.7254-5.5548 13.6151-9.95582 16.9395-11.53515 6.8422-3.25057 12.3448-4.5961 16.7754-4.78906z" style="display:inline;fill:#333;fill-opacity:1;stroke-width:1.68987;stroke-linecap:round;stroke-linejoin:round" transform="matrix(-.59055688 -.04276099 -.04239908 .58989904 1326.9162101 283.15715073)"/></g></g><g style="display:inline;stroke-width:.951816"><path d="M739.45703 715.22656c-.97611-.0543-1.96159.22826-2.75.94922-11.31505 11.251-22.57253 22.56347-33.86523 33.83789-2.66928 2.2333-1.12551 7.20107 2.42382 7.31836 8.02459.0468 16.05082.006 24.07618.0195-1.29921 3.88607-2.59729 7.77214-3.89649 11.65821-.93301 3.13285-2.31687 6.16637-2.90039 9.37695-.2119 3.44551 4.33431 5.56103 6.87305 3.26367 11.3174-11.24908 22.57359-22.56184 33.86719-33.83594 2.71998-2.22347 1.02039-7.06901-2.42579-7.28711-8.01403-.0512-16.03192-.007-24.04687-.0215 1.29303-3.88487 2.58783-7.76943 3.88086-11.6543.9294-3.14374 2.31818-6.18692 2.88672-9.41015.1275-2.33942-1.97561-4.09531-4.12305-4.21485zm-.0664 4.21485-8.4375 25.2539h29.47266l-33.69141 33.69141 8.4375-25.25391h-29.47265z" style="font-size:60px;line-height:1;font-family:&quot;Mplus 1&quot;;-inkscape-font-specification:&quot;Mplus 1, &quot;;letter-spacing:0;word-spacing:0;display:inline;fill:#222;fill-opacity:1;stroke-width:7.19484;stroke-linecap:round;stroke-linejoin:round;stroke-dasharray:7.19484,14.3897" transform="matrix(.77475977 .56764507 -.55654879 1.0169429 645.58634 -631.52639)"/><path d="m739.39062 719.44141-33.6914 33.6914h29.47265l-8.4375 25.25391 33.69141-33.69141h-29.47266z" style="font-size:60px;line-height:1;font-family:&quot;Mplus 1&quot;;-inkscape-font-specification:&quot;Mplus 1, &quot;;letter-spacing:0;word-spacing:0;display:inline;fill:#fc0;fill-opacity:1;stroke:none;stroke-width:7.19484;stroke-linecap:round;stroke-linejoin:round;stroke-dasharray:7.19484,14.3897;stroke-dashoffset:0" transform="matrix(.77475977 .56764507 -.55654879 1.0169429 645.58634 -631.52639)"/></g><g id="d" transform="translate(-9.1923882 -.70710678)"><path id="c" d="M553.5 667c-4.46044 8.75462-3.44003 25.41114 12.9999 28" style="fill:none;fill-opacity:1;stroke:#fff;stroke-width:3.77953;stroke-linecap:round;stroke-linejoin:round;stroke-dasharray:none;stroke-dashoffset:0;stroke-opacity:1"/><use xlink:href="#c" style="stroke-width:4.6016;stroke-dasharray:none" transform="matrix(.77104645 0 0 .87493743 112.70056 91.417612)"/></g><use xlink:href="#d" transform="scale(-1 1) rotate(9.491297 -174.43451201 -8171.4128778)"/></g></svg>