<svg xmlns="http://www.w3.org/2000/svg" xmlns:xlink="http://www.w3.org/1999/xlink" xml:space="preserve" width="1274.6953" height="921.90076"><defs><linearGradient id="k"><stop offset="0" style="stop-color:#f5a633;stop-opacity:.2"/><stop offset="1" style="stop-color:#f5a633;stop-opacity:0"/></linearGradient><linearGradient id="j"><stop offset="0" style="stop-color:#4294dd;stop-opacity:1"/><stop offset="1" style="stop-color:#4294dd;stop-opacity:0"/></linearGradient><linearGradient id="i"><stop offset="0" style="stop-color:#4294dd;stop-opacity:1"/><stop offset="1" style="stop-color:#4294dd;stop-opacity:0"/></linearGradient><linearGradient id="f"><stop offset="0" style="stop-color:#4294dd;stop-opacity:1"/><stop offset="1" style="stop-color:#4294dd;stop-opacity:0"/></linearGradient><linearGradient id="e"><stop offset="0" style="stop-color:#4294dd;stop-opacity:1"/><stop offset="1" style="stop-color:#4294dd;stop-opacity:0"/></linearGradient><linearGradient id="b"><stop offset="0" style="stop-color:#f5a633;stop-opacity:1"/><stop offset="1" style="stop-color:#f5a633;stop-opacity:0"/></linearGradient><linearGradient id="p"><stop offset="0" style="stop-color:#4294dd;stop-opacity:1"/><stop offset="1" style="stop-color:#4294dd;stop-opacity:0"/></linearGradient><linearGradient id="o"><stop offset="0" style="stop-color:#4294dd;stop-opacity:1"/><stop offset="1" style="stop-color:#4294dd;stop-opacity:0"/></linearGradient><linearGradient id="n"><stop offset="0" style="stop-color:#4294dd;stop-opacity:1"/><stop offset="1" style="stop-color:#4294dd;stop-opacity:0"/></linearGradient><linearGradient id="l"><stop offset="0" style="stop-color:#f55948;stop-opacity:1"/><stop offset="1" style="stop-color:#f55948;stop-opacity:0"/></linearGradient><linearGradient id="m"><stop offset="0" style="stop-color:#f5a633;stop-opacity:1"/><stop offset="1" style="stop-color:#f5a633;stop-opacity:0"/></linearGradient><linearGradient id="h"><stop offset="0" style="stop-color:#4294dd;stop-opacity:1"/><stop offset="1" style="stop-color:#4678a6;stop-opacity:0"/></linearGradient><linearGradient id="g"><stop offset="0" style="stop-color:#f55948;stop-opacity:1"/><stop offset="1" style="stop-color:#f55948;stop-opacity:0"/></linearGradient><linearGradient id="d"><stop offset="0" style="stop-color:#4294dd;stop-opacity:1"/><stop offset="1" style="stop-color:#3f74a3;stop-opacity:0"/></linearGradient><linearGradient id="c"><stop offset="0" style="stop-color:#f55948;stop-opacity:1"/><stop offset="1" style="stop-color:#faa79e;stop-opacity:0"/></linearGradient><linearGradient id="a"><stop offset="0" style="stop-color:#f5a633;stop-opacity:1"/><stop offset="1" style="stop-color:#f8bf6d;stop-opacity:0"/></linearGradient><linearGradient xlink:href="#j" id="s" x1="1026" x2="1242" y1="676" y2="332" gradientUnits="userSpaceOnUse"/><linearGradient xlink:href="#n" id="t" x1="1006.7755" x2="1194.7755" y1="586" y2="328" gradientUnits="userSpaceOnUse"/></defs><g style="display:inline"><g style="display:inline"><g style="display:inline;opacity:.207;stroke-width:.996339"><path d="M781.04163 704.48342c-.34997-.0114-.71116-.0112-1.08594.002h-83.88671c-11.41296 0-11.3379 12.11524-11.3379 12.11524.90943 62.73971 0 188.17969 0 188.17969s1.31197 9.36182 9.50391 9.76171h86.10547s10.68555-.68305 10.68555-10.93554c-1.00839-62.37969 0-124.55813 0-186.99414 0 0 .86472-11.7748-9.98438-12.12891z" style="opacity:1;mix-blend-mode:normal;fill:#f55948;fill-opacity:1;stroke-width:7.53139;stroke-linecap:round;stroke-linejoin:round;stroke-dasharray:7.53139,15.0628" transform="matrix(1.0073623 0 0 1 -666.09262 -37.54712)"/><g style="display:inline;stroke-width:.996339" transform="matrix(1.0073623 0 0 1 -666.22838235 -90.835349)"><circle cx="722.94879" cy="854.53064" r="3.4077702" style="fill:#272727;fill-opacity:1;stroke:none;stroke-width:3.76569;stroke-linecap:round;stroke-linejoin:round;stroke-dasharray:none;stroke-dashoffset:0;stroke-opacity:1"/><circle cx="753.09442" cy="854.53064" r="3.4077702" style="fill:#272727;fill-opacity:1;stroke:none;stroke-width:3.76569;stroke-linecap:round;stroke-linejoin:round;stroke-dasharray:none;stroke-dashoffset:0;stroke-opacity:1"/><path d="M724.25957 873.99424h27.39322" style="fill:none;fill-opacity:1;stroke:#222;stroke-width:3.76569;stroke-linecap:round;stroke-linejoin:round;stroke-dasharray:none;stroke-dashoffset:0;stroke-opacity:1"/></g></g><g style="display:inline;opacity:.207;stroke-width:.996339"><path d="M781.04163 704.48342c-.34997-.0114-.71116-.0112-1.08594.002h-83.88671c-11.41296 0-11.3379 12.11524-11.3379 12.11524.90943 62.73971 0 188.17969 0 188.17969s1.31197 9.36182 9.50391 9.76171h86.10547s10.68555-.68305 10.68555-10.93554c-1.00839-62.37969 0-124.55813 0-186.99414 0 0 .86472-11.7748-9.98438-12.12891z" style="opacity:1;mix-blend-mode:normal;fill:#f55948;fill-opacity:1;stroke-width:7.53139;stroke-linecap:round;stroke-linejoin:round;stroke-dasharray:7.53139,15.0628" transform="matrix(1.0073623 0 0 1 -30.40363 -37.54712)"/><g style="display:inline;stroke-width:.996339" transform="matrix(1.0073623 0 0 1 -30.53939235 -90.835349)"><circle cx="722.94879" cy="854.53064" r="3.4077702" style="fill:#272727;fill-opacity:1;stroke:none;stroke-width:3.76569;stroke-linecap:round;stroke-linejoin:round;stroke-dasharray:none;stroke-dashoffset:0;stroke-opacity:1"/><circle cx="753.09442" cy="854.53064" r="3.4077702" style="fill:#272727;fill-opacity:1;stroke:none;stroke-width:3.76569;stroke-linecap:round;stroke-linejoin:round;stroke-dasharray:none;stroke-dashoffset:0;stroke-opacity:1"/><path d="M724.25957 873.99424h27.39322" style="fill:none;fill-opacity:1;stroke:#222;stroke-width:3.76569;stroke-linecap:round;stroke-linejoin:round;stroke-dasharray:none;stroke-dashoffset:0;stroke-opacity:1"/></g></g><g style="display:inline;mix-blend-mode:normal"><g style="display:inline;opacity:.5;stroke-width:1.21082" transform="matrix(.68208847 0 0 1 -9.57192 -141.5660261)"><path id="q" d="M41.942602 169.08311H1858.8889" style="display:inline;fill:none;fill-opacity:1;stroke:#a4a4a4;stroke-width:1.21272;stroke-linecap:round;stroke-linejoin:round;stroke-dasharray:none;stroke-opacity:1"/><use xlink:href="#q" style="display:inline;stroke-width:1.21082" transform="translate(0 108.38845)"/><use xlink:href="#q" style="display:inline;stroke-width:1.21082" transform="translate(0 211.80602)"/><use xlink:href="#q" style="display:inline;stroke-width:1.21082" transform="translate(0 319.80611)"/><use xlink:href="#q" style="display:inline;stroke-width:1.21082" transform="translate(0 425.70912)"/><use xlink:href="#q" style="display:inline;stroke-width:1.21082" transform="translate(0 532.34891)"/><use xlink:href="#q" style="display:inline;stroke-width:1.21082" transform="translate(0 639.11526)"/><use xlink:href="#q" style="display:inline;stroke-width:1.21082" transform="translate(0 745.88162)"/></g><g style="display:inline;opacity:.5;stroke-width:.895884" transform="matrix(1.0017698 0 0 1.2437367 -352.3493524 -210.1284501)"><path id="r" d="M904.96232 186.06212v713.14085" style="fill:none;fill-opacity:1;stroke:#a4a4a4;stroke-width:.897291;stroke-linecap:round;stroke-linejoin:round;stroke-dasharray:none;stroke-opacity:1"/><use xlink:href="#r" style="stroke-width:.983704" transform="translate(212.36797)"/><use xlink:href="#r" style="stroke-width:.983704" transform="translate(318.55195)"/><use xlink:href="#r" style="stroke-width:.983704" transform="translate(424.73594)"/><use xlink:href="#r" style="stroke-width:.983704" transform="translate(530.91993)"/><use xlink:href="#r" style="stroke-width:.983704" transform="translate(637.10391)"/><use xlink:href="#r" style="stroke-width:.983704" transform="translate(-106.18399)"/><use xlink:href="#r" style="stroke-width:.983704" transform="translate(-212.36797)"/><use xlink:href="#r" style="stroke-width:.983704" transform="translate(-318.55196)"/><use xlink:href="#r" style="stroke-width:.983704" transform="translate(-424.73595)"/></g></g><path d="M765.10156 145.10156v921.79684c424.89844.4475 849.79724-.7414 1274.69534 0V145.10156Zm37.79688 37.79688h583.20316v625.79883h-165.2344c-3.2531 0-5.8731 2.61993-5.8731 5.87304v101.11133h-106.0097V814.57031c0-3.25311-2.4988-5.87304-5.752-5.87304h-94.6504c-3.2531 0-5.8711 2.61993-5.8711 5.87304v207.67379H802.89844Zm620.99996 0h578.1036v625.79883h-145.4454c-3.2531 0-5.873 2.61993-5.873 5.87304v101.11133h-106.0098V814.57031c0-3.25311-2.4987-5.87304-5.7519-5.87304h-94.6504c-3.2531 0-5.8711 2.61993-5.8711 5.87304v207.67379h-214.502zm-198.291 202.39453c-7.5582 0-13.6426 6.08431-13.6426 13.64258v81.60937c0 7.55827 6.0844 13.64258 13.6426 13.64258h80.5488c7.5583 0 13.6426-6.08431 13.6426-13.64258v-81.60937c0-7.55827-6.0843-13.64258-13.6426-13.64258zm639.2246 0c-7.5582 0-13.6425 6.08431-13.6425 13.64258v81.60937c0 7.55827 6.0843 13.64258 13.6425 13.64258h80.5469c7.5583 0 13.6445-6.08431 13.6445-13.64258v-81.60937c0-7.55827-6.0862-13.64258-13.6445-13.64258z" style="display:inline;fill:#a6a09c;fill-opacity:1;stroke:none;stroke-width:5;stroke-linecap:square;stroke-linejoin:round;stroke-dasharray:none" transform="translate(-765.10156 -145.10156)"/><g style="display:inline;stroke-width:.993117"><path d="M696.06896 808.51037c-11.41296 0-11.33789 12.11523-11.33789 12.11523v84.15625s1.31196 9.35988 9.5039 9.75977c64.12927-1.60024 127.71801 0 192.00782 0 0 0 10.6875-.68306 10.6875-10.93555v-82.96875s.92041-12.54692-11.07227-12.12695c-63.38173 1.61209-126.3185.00057-189.78906 0z" style="opacity:1;mix-blend-mode:normal;fill:#4294dd;fill-opacity:1;stroke-width:7.50703;stroke-linecap:round;stroke-linejoin:round;stroke-dasharray:7.50703,15.014" transform="matrix(1.013909 0 0 1 -353.56499 -250.54047)"/><g style="display:inline;stroke-width:.993117" transform="matrix(1.013909 0 0 1 -300.01315252 -252.5230685)"><circle cx="722.94879" cy="854.53064" r="3.4077702" style="fill:#272727;fill-opacity:1;stroke:none;stroke-width:3.75352;stroke-linecap:round;stroke-linejoin:round;stroke-dasharray:none;stroke-dashoffset:0;stroke-opacity:1"/><circle cx="753.09442" cy="854.53064" r="3.4077702" style="fill:#272727;fill-opacity:1;stroke:none;stroke-width:3.75352;stroke-linecap:round;stroke-linejoin:round;stroke-dasharray:none;stroke-dashoffset:0;stroke-opacity:1"/><path d="M724.25957 873.99424h27.39322" style="fill:none;fill-opacity:1;stroke:#222;stroke-width:3.75352;stroke-linecap:round;stroke-linejoin:round;stroke-dasharray:none;stroke-dashoffset:0;stroke-opacity:1"/></g></g><g style="display:inline"><path d="M696.06846 808.50959h83.88713c11.99268-.41997 11.07138 12.12676 11.07138 12.12676V903.606c0 10.25249-10.68731 10.93573-10.68731 10.93573h-86.10387c-8.19194-.39989-9.50539-9.76067-9.50539-9.76067v-84.15612s-.0749-12.11535 11.33806-12.11535z" style="opacity:1;mix-blend-mode:normal;fill:#f5a633;fill-opacity:1;stroke-width:7.55906;stroke-linecap:round;stroke-linejoin:round;stroke-dasharray:7.55906,15.1181" transform="translate(-344.64782 -355.42304)"/><g style="display:inline" transform="translate(-344.78259013 -357.4059736)"><circle cx="722.94879" cy="854.53064" r="3.4077702" style="fill:#272727;fill-opacity:1;stroke:none;stroke-width:3.77953;stroke-linecap:round;stroke-linejoin:round;stroke-dasharray:none;stroke-dashoffset:0;stroke-opacity:1"/><circle cx="753.09442" cy="854.53064" r="3.4077702" style="fill:#272727;fill-opacity:1;stroke:none;stroke-width:3.77953;stroke-linecap:round;stroke-linejoin:round;stroke-dasharray:none;stroke-dashoffset:0;stroke-opacity:1"/><path d="M724.25957 873.99424h27.39322" style="fill:none;fill-opacity:1;stroke:#222;stroke-width:3.77953;stroke-linecap:round;stroke-linejoin:round;stroke-dasharray:none;stroke-dashoffset:0;stroke-opacity:1"/></g></g><path d="M1216.2598 312.3457c-35.4282-2.11796-72.4778 14.33896-90.3128 45.89668-23.9097 41.4623-23.7357 92.08449-15.4606 137.93897 2.4597 12.81268 5.7724 25.46379 9.955 37.82256-29.3164-5.40338-62.3376 4.08558-79.9569 29.19391-24.8471 35.37709-22.1241 82.14535-11.5949 122.07156 2.5517 9.46549 5.622 18.77961 8.4561 28.16226 12.0417-3.70573 24.0833-7.41146 36.125-11.11719-11.2577-34.05901-20.0634-71.62976-8.0089-106.65098 5.2752-16.53844 22.3548-26.64806 39.3803-25.10941 19.0719-1.3781 35.9414 11.71411 54.4363 10.16409 25.4178-11.26385 4.2374-35.67109-.759-53.00573-13.7871-41.4351-21.0111-87.35805-8.906-130.0943 6.3175-24.1964 26.3722-45.97924 52.4533-47.26318 13.8705-1.44095 27.6388 1.3451 41.3806 2.83061 1.5384-12.50391 3.0768-25.00781 4.6152-37.51172-10.5907-1.19424-21.1377-2.94725-31.8027-3.32813z" style="opacity:.71;fill:url(#s);fill-opacity:1;stroke-linecap:square;stroke-linejoin:round" transform="translate(-765.10156 -145.10156)"/><path d="M1225.0864 276.16221h86.508c12.3675-.43019 11.4174 12.42211 11.4174 12.42211v84.99039c0 10.50219-11.0212 11.20206-11.0212 11.20206h-88.7942c-8.4478-.40962-9.8025-9.99839-9.8025-9.99839v-86.20574s-.077-12.41043 11.6925-12.41043z" style="display:inline;mix-blend-mode:normal;fill:#3f74a3;fill-opacity:.20403;stroke:#4294dd;stroke-width:7.55906;stroke-linecap:round;stroke-linejoin:round;stroke-dasharray:7.55906,22.6772;stroke-dashoffset:0;stroke-opacity:1" transform="translate(-765.10156 -145.10156)"/><g style="display:inline"><path d="M696.06846 808.50959h83.88713c11.99268-.41997 11.07138 12.12676 11.07138 12.12676-4.21652 26.71249-5.08119 54.17545 0 82.96965 0 10.25249-10.68731 10.93573-10.68731 10.93573h-86.10387c-8.19194-.39989-9.50539-9.76067-9.50539-9.76067-2.74074-23.93262-6.98783-45.60114 0-84.15612 0 0-.0749-12.11535 11.33806-12.11535z" style="opacity:1;mix-blend-mode:normal;fill:#4294dd;fill-opacity:1;stroke-width:7.55906;stroke-linecap:round;stroke-linejoin:round;stroke-dasharray:7.55906,15.1181" transform="rotate(-10.744338 -1074.32612676 3251.6361397)"/><g style="display:inline" transform="rotate(-10.744338 -1079.99799501 3278.39508868)"><circle cx="722.94879" cy="854.53064" r="3.4077702" style="fill:#272727;fill-opacity:1;stroke:none;stroke-width:3.77953;stroke-linecap:round;stroke-linejoin:round;stroke-dasharray:none;stroke-dashoffset:0;stroke-opacity:1"/><circle cx="753.09442" cy="854.53064" r="3.4077702" style="fill:#272727;fill-opacity:1;stroke:none;stroke-width:3.77953;stroke-linecap:round;stroke-linejoin:round;stroke-dasharray:none;stroke-dashoffset:0;stroke-opacity:1"/><path d="M724.25957 873.99424h27.39322" style="fill:none;fill-opacity:1;stroke:#222;stroke-width:3.77953;stroke-linecap:round;stroke-linejoin:round;stroke-dasharray:none;stroke-dashoffset:0;stroke-opacity:1"/></g></g><g style="display:inline"><path d="M696.06846 808.50959h83.88713c11.99268-.41997 11.07138 12.12676 11.07138 12.12676V903.606c0 10.25249-10.68731 10.93573-10.68731 10.93573h-86.10387c-8.19194-.39989-9.50539-9.76067-9.50539-9.76067v-84.15612s-.0749-12.11535 11.33806-12.11535z" style="opacity:1;mix-blend-mode:normal;fill:#4294dd;fill-opacity:1;stroke-width:7.55906;stroke-linecap:round;stroke-linejoin:round;stroke-dasharray:7.55906,15.1181" transform="translate(-553.85614 -37.70743)"/><g style="display:inline" transform="translate(-553.99091013 -39.6903636)"><circle cx="722.94879" cy="854.53064" r="3.4077702" style="fill:#272727;fill-opacity:1;stroke:none;stroke-width:3.77953;stroke-linecap:round;stroke-linejoin:round;stroke-dasharray:none;stroke-dashoffset:0;stroke-opacity:1"/><circle cx="753.09442" cy="854.53064" r="3.4077702" style="fill:#272727;fill-opacity:1;stroke:none;stroke-width:3.77953;stroke-linecap:round;stroke-linejoin:round;stroke-dasharray:none;stroke-dashoffset:0;stroke-opacity:1"/><path d="M724.25957 873.99424h27.39322" style="fill:none;fill-opacity:1;stroke:#222;stroke-width:3.77953;stroke-linecap:round;stroke-linejoin:round;stroke-dasharray:none;stroke-dashoffset:0;stroke-opacity:1"/></g></g><path d="m927.26412 752.2266-2.85928 2.85764c-.97348.97362-.97348 2.55141 0 3.52502l11.27469 11.26819-11.45259 11.44596c-.97348.97361-.97348 2.5514 0 3.525l2.85674 2.85764c.97444.97464 2.5551.97464 3.52953 0l11.45268-11.44854 11.45251 11.44854c.9742.97292 2.55287.97292 3.52706 0l2.85929-2.85764c.97348-.9736.97348-2.55139 0-3.525l-11.45259-11.44596 11.2747-11.26819c.97348-.97361.97348-2.5514 0-3.52502l-2.85929-2.85764c-.9742-.97293-2.55287-.97293-3.52707 0l-11.27461 11.26819-11.2747-11.26819c-.9742-.97292-2.55295-.97292-3.52707 0z" style="-inkscape-font-specification:&quot;Mplus 1, &quot;;display:inline;fill:#f55948;stroke:#fff;stroke-width:.999999;stroke-linecap:round;stroke-linejoin:round;stroke-opacity:1" transform="translate(-765.10156 -145.10156)"/><path d="M1044.1223 758.72558c28.0894-.52686 56.3531 18.69457 65.0964 43.65069l14.6257-62.2306c-14.157 6.33302-42.0157 2.84436-42.5488-9.18035-6.5528 2.95993-37.1733 27.76026-37.1733 27.76026z" style="font-variation-settings:normal;opacity:1;vector-effect:none;fill:#4294dd;fill-opacity:1;stroke:none;stroke-width:7.55906;stroke-linecap:round;stroke-linejoin:round;stroke-miterlimit:4;stroke-dasharray:7.55906,15.1181;stroke-dashoffset:0;stroke-opacity:1;-inkscape-stroke:none" transform="translate(-765.10156 -145.10156)"/><g style="display:inline;opacity:.855;stroke:#333;stroke-width:6.65559;stroke-dasharray:none;stroke-opacity:1"><path d="M1230.6516 580.05857c-1.6104-14.2349 6.32-31.12702 9.4314-36.98777 18.919-35.63507 42.5774-25.41967 47.6424-19.68602 6.8462 7.74989 5.7272 17.7595 1.1187 25.12759-3.7839 6.05002-17.7577 10.47327-26.5463 12.94782-10.5621 2.97394-16.777 6.76125-31.6462 18.59838zM1248.5304 609.21468c5.6011-9.68261 18.5869-16.6467 23.3243-18.89736 28.8046-13.68439 39.2795 3.61285 39.868 9.54391.7957 8.01678-4.5932 13.7899-10.9977 16.29898-5.2587 2.06026-16.3223-1.5875-23.1372-4.07482-8.1903-2.98927-13.9596-3.46831-29.0574-2.87071z" style="fill:#98e3eb;fill-opacity:1;stroke:#333;stroke-width:6.65559;stroke-linecap:round;stroke-linejoin:round;stroke-dasharray:none;stroke-dashoffset:0;stroke-opacity:1" transform="matrix(-.56348132 -.05067091 -.05076126 .56773372 905.32834 234.69304)"/></g><g style="display:inline;stroke-width:.993117"><path d="M696.06896 808.51037c-11.41296 0-11.33789 12.11523-11.33789 12.11523v84.15625s1.31196 9.35988 9.5039 9.75977c64.12927-1.60024 127.71801 0 192.00782 0 0 0 10.6875-.68306 10.6875-10.93555v-82.96875s.92041-12.54692-11.07227-12.12695c-63.38173 1.61209-126.3185.00057-189.78906 0z" style="opacity:1;mix-blend-mode:normal;fill:#4294dd;fill-opacity:1;stroke-width:7.50703;stroke-linecap:round;stroke-linejoin:round;stroke-dasharray:7.50703,15.014" transform="matrix(1.013909 0 0 1 180.12401 -250.54047)"/><g style="display:inline;stroke-width:.993117" transform="matrix(1.013909 0 0 1 233.67584748 -252.5230685)"><circle cx="722.94879" cy="854.53064" r="3.4077702" style="fill:#272727;fill-opacity:1;stroke:none;stroke-width:3.75352;stroke-linecap:round;stroke-linejoin:round;stroke-dasharray:none;stroke-dashoffset:0;stroke-opacity:1"/><circle cx="753.09442" cy="854.53064" r="3.4077702" style="fill:#272727;fill-opacity:1;stroke:none;stroke-width:3.75352;stroke-linecap:round;stroke-linejoin:round;stroke-dasharray:none;stroke-dashoffset:0;stroke-opacity:1"/><path d="M724.25957 873.99424h27.39322" style="fill:none;fill-opacity:1;stroke:#222;stroke-width:3.75352;stroke-linecap:round;stroke-linejoin:round;stroke-dasharray:none;stroke-dashoffset:0;stroke-opacity:1"/></g></g></g><g style="display:inline"><g style="display:inline"><path d="M696.06846 808.50959h83.88713c11.99268-.41997 11.07138 12.12676 11.07138 12.12676V903.606c0 10.25249-10.68731 10.93573-10.68731 10.93573h-86.10387c-8.19194-.39989-9.50539-9.76067-9.50539-9.76067v-84.15612s-.0749-12.11535 11.33806-12.11535z" style="opacity:1;mix-blend-mode:normal;fill:#f5a633;fill-opacity:1;stroke-width:7.55906;stroke-linecap:round;stroke-linejoin:round;stroke-dasharray:7.55906,15.1181" transform="translate(294.57671 -355.42304)"/><g style="display:inline" transform="translate(294.44193987 -357.4059736)"><circle cx="722.94879" cy="854.53064" r="3.4077702" style="fill:#272727;fill-opacity:1;stroke:none;stroke-width:3.77953;stroke-linecap:round;stroke-linejoin:round;stroke-dasharray:none;stroke-dashoffset:0;stroke-opacity:1"/><circle cx="753.09442" cy="854.53064" r="3.4077702" style="fill:#272727;fill-opacity:1;stroke:none;stroke-width:3.77953;stroke-linecap:round;stroke-linejoin:round;stroke-dasharray:none;stroke-dashoffset:0;stroke-opacity:1"/><path d="M724.25957 873.99424h27.39322" style="fill:none;fill-opacity:1;stroke:#222;stroke-width:3.77953;stroke-linecap:round;stroke-linejoin:round;stroke-dasharray:none;stroke-dashoffset:0;stroke-opacity:1"/></g></g><path d="M1221.0864 276.16221h86.508c12.3675-.43019 11.4174 12.42211 11.4174 12.42211v84.99039c0 10.50219-11.0212 11.20206-11.0212 11.20206h-88.7942c-8.4478-.40962-9.8025-9.99839-9.8025-9.99839v-86.20574s-.077-12.41043 11.6925-12.41043z" style="display:inline;mix-blend-mode:normal;fill:#3f74a3;fill-opacity:.20403;stroke:#4294dd;stroke-width:7.55906;stroke-linecap:round;stroke-linejoin:round;stroke-dasharray:7.55906,22.6772;stroke-dashoffset:0;stroke-opacity:1" transform="translate(-125.87703 -145.10156)"/><g style="display:inline"><path d="M696.06846 808.50959h83.88713c11.99268-.41997 11.07138 12.12676 11.07138 12.12676-4.21652 26.71249-5.08119 54.17545 0 82.96965 0 10.25249-10.68731 10.93573-10.68731 10.93573h-86.10387c-8.19194-.39989-9.50539-9.76067-9.50539-9.76067-2.74074-23.93262-6.98783-45.60114 0-84.15612 0 0-.0749-12.11535 11.33806-12.11535z" style="opacity:1;mix-blend-mode:normal;fill:#4294dd;fill-opacity:1;stroke-width:7.55906;stroke-linecap:round;stroke-linejoin:round;stroke-dasharray:7.55906,15.1181" transform="rotate(-10.744338 -1296.98211976 -141.80003109)"/><g style="display:inline" transform="rotate(-10.744338 -1302.65398801 -115.0410821)"><circle cx="722.94879" cy="854.53064" r="3.4077702" style="fill:#272727;fill-opacity:1;stroke:none;stroke-width:3.77953;stroke-linecap:round;stroke-linejoin:round;stroke-dasharray:none;stroke-dashoffset:0;stroke-opacity:1"/><circle cx="753.09442" cy="854.53064" r="3.4077702" style="fill:#272727;fill-opacity:1;stroke:none;stroke-width:3.77953;stroke-linecap:round;stroke-linejoin:round;stroke-dasharray:none;stroke-dashoffset:0;stroke-opacity:1"/><path d="M724.25957 873.99424h27.39322" style="fill:none;fill-opacity:1;stroke:#222;stroke-width:3.77953;stroke-linecap:round;stroke-linejoin:round;stroke-dasharray:none;stroke-dashoffset:0;stroke-opacity:1"/></g></g><g style="display:inline"><path d="M696.06846 808.50959h83.88713c11.99268-.41997 11.07138 12.12676 11.07138 12.12676V903.606c0 10.25249-10.68731 10.93573-10.68731 10.93573h-86.10387c-8.19194-.39989-9.50539-9.76067-9.50539-9.76067v-84.15612s-.0749-12.11535 11.33806-12.11535z" style="opacity:1;mix-blend-mode:normal;fill:#4294dd;fill-opacity:1;stroke-width:7.55906;stroke-linecap:round;stroke-linejoin:round;stroke-dasharray:7.55906,15.1181" transform="translate(82.53996 -37.70743)"/><g style="display:inline" transform="translate(82.40518987 -39.6903636)"><circle cx="722.94879" cy="854.53064" r="3.4077702" style="fill:#272727;fill-opacity:1;stroke:none;stroke-width:3.77953;stroke-linecap:round;stroke-linejoin:round;stroke-dasharray:none;stroke-dashoffset:0;stroke-opacity:1"/><circle cx="753.09442" cy="854.53064" r="3.4077702" style="fill:#272727;fill-opacity:1;stroke:none;stroke-width:3.77953;stroke-linecap:round;stroke-linejoin:round;stroke-dasharray:none;stroke-dashoffset:0;stroke-opacity:1"/><path d="M724.25957 873.99424h27.39322" style="fill:none;fill-opacity:1;stroke:#222;stroke-width:3.77953;stroke-linecap:round;stroke-linejoin:round;stroke-dasharray:none;stroke-dashoffset:0;stroke-opacity:1"/></g></g><path d="m930.26412 683.2266-2.85928 2.85764c-.97348.97362-.97348 2.55141 0 3.52502l11.27469 11.26819-11.45259 11.44596c-.97348.97361-.97348 2.5514 0 3.525l2.85674 2.85764c.97444.97464 2.5551.97464 3.52953 0l11.45268-11.44854 11.45251 11.44854c.9742.97292 2.55287.97292 3.52706 0l2.85929-2.85764c.97348-.9736.97348-2.55139 0-3.525l-11.45259-11.44596 11.2747-11.26819c.97348-.97361.97348-2.5514 0-3.52502l-2.85929-2.85764c-.9742-.97293-2.55287-.97293-3.52707 0l-11.27461 11.26819-11.2747-11.26819c-.9742-.97292-2.55295-.97292-3.52707 0z" style="-inkscape-font-specification:&quot;Mplus 1, &quot;;display:inline;fill:#f55948;stroke:#fff;stroke-width:.999999;stroke-linecap:round;stroke-linejoin:round;stroke-opacity:1" transform="translate(-125.87703 -145.10156)"/><path d="M1003.2684 659.93898c24.1631 8.33313 40.5825 23.05094 34.885 48.87325l77.1838-.22147c-24.371-7.56438-65.7248-46.19071-50.3505-59.69645-7.1298-.93122-61.7183 11.04467-61.7183 11.04467z" style="font-variation-settings:normal;opacity:1;vector-effect:none;fill:#4294dd;fill-opacity:1;stroke:none;stroke-width:7.55906;stroke-linecap:round;stroke-linejoin:round;stroke-miterlimit:4;stroke-dasharray:7.55906,15.1181;stroke-dashoffset:0;stroke-opacity:1;-inkscape-stroke:none" transform="translate(-125.87703 -145.10156)"/><g style="display:inline;opacity:.855;stroke:#333;stroke-width:6.65559;stroke-dasharray:none;stroke-opacity:1"><path d="M1230.6516 580.05857c-1.6104-14.2349 6.32-31.12702 9.4314-36.98777 18.919-35.63507 42.5774-25.41967 47.6424-19.68602 6.8462 7.74989 5.7272 17.7595 1.1187 25.12759-3.7839 6.05002-17.7577 10.47327-26.5463 12.94782-10.5621 2.97394-16.777 6.76125-31.6462 18.59838zM1248.5304 609.21468c5.6011-9.68261 18.5869-16.6467 23.3243-18.89736 28.8046-13.68439 39.2795 3.61285 39.868 9.54391.7957 8.01678-4.5932 13.7899-10.9977 16.29898-5.2587 2.06026-16.3223-1.5875-23.1372-4.07482-8.1903-2.98927-13.9596-3.46831-29.0574-2.87071z" style="fill:#98e3eb;fill-opacity:1;stroke:#333;stroke-width:6.65559;stroke-linecap:round;stroke-linejoin:round;stroke-dasharray:none;stroke-dashoffset:0;stroke-opacity:1" transform="matrix(-.56348132 -.05067091 -.05076126 .56773372 1528.55287 140.69304)"/></g><path d="M1225.748 310.61719c-24.4286-.38529-45.4256 5.5896-61.9179 16.85547-18.8484 12.87527-31.0995 31.87301-38.375 52.42773-9.0174 25.4758-11.2117 53.76148-9.4082 81.06641-18.764-8.25404-39.481-10.44106-58.8145-5.71289-17.7148 4.3323-34.3758 15.10237-45.1601 31.94921-10.7844 16.84685-15.43462 38.98248-12.80472 64.84961l1.91212 18.80079 37.6016-3.82227-1.9122-18.80078c-1.9721-19.39712 1.6307-32.20775 7.0352-40.65039 5.4045-8.44264 12.8706-13.30562 22.3066-15.61328 18.8721-4.61533 45.1402 3.68413 60.2129 24.21679a18.89954 18.89954 0 0 0 33.6485-15.42773c-7.9917-34.6558-9.6165-78.21738 1.0117-108.24414 5.3141-15.01338 13.1434-26.36992 24.0644-33.83008 10.9211-7.46016 25.6462-11.81218 47.9766-9.85547l18.8262 1.64844 3.2988-37.65039-18.8242-1.65039c-3.6267-.3178-7.1879-.5016-10.6778-.55664z" style="opacity:.766;fill:url(#t);fill-opacity:1;stroke-linecap:square;stroke-linejoin:round" transform="translate(-125.87703 -145.10156)"/><text xml:space="preserve" x="190.07614" y="255.63126" style="font-weight:700;font-size:69.3537px;line-height:1;font-family:&quot;Corporate Logo ver2&quot;;-inkscape-font-specification:&quot;Corporate Logo ver2 Bold&quot;;font-variation-settings:normal;text-align:start;letter-spacing:0;word-spacing:0;writing-mode:lr-tb;direction:ltr;text-anchor:start;opacity:1;fill:none;fill-opacity:1;stroke:#a6a09c;stroke-width:37.7953;stroke-linecap:square;stroke-linejoin:round;stroke-miterlimit:4;stroke-dasharray:none;stroke-dashoffset:0;stroke-opacity:1" transform="translate(-125.87703 -145.10156)"><tspan x="190.07614" y="255.63126" style="fill:#eee;fill-opacity:1;stroke:none;stroke-width:37.7953">パターンA</tspan></text><text xml:space="preserve" x="815.55615" y="255.63126" style="font-weight:700;font-size:69.3537px;line-height:1;font-family:&quot;Corporate Logo ver2&quot;;-inkscape-font-specification:&quot;Corporate Logo ver2 Bold&quot;;font-variation-settings:normal;text-align:start;letter-spacing:0;word-spacing:0;writing-mode:lr-tb;direction:ltr;text-anchor:start;display:inline;fill:none;fill-opacity:1;stroke:#a6a09c;stroke-width:37.7953;stroke-linecap:square;stroke-linejoin:round;stroke-miterlimit:4;stroke-dasharray:none;stroke-dashoffset:0;stroke-opacity:1" transform="translate(-125.87703 -145.10156)"><tspan x="815.55615" y="255.63126" style="fill:#eee;fill-opacity:1;stroke:none;stroke-width:37.7953">パターンB</tspan></text></g></g></svg>