<svg xmlns="http://www.w3.org/2000/svg" xmlns:xlink="http://www.w3.org/1999/xlink" xml:space="preserve" width="1904" height="1072"><defs><linearGradient id="a"><stop offset="0" style="stop-color:#0079b0;stop-opacity:1"/><stop offset="1" style="stop-color:#0079b0;stop-opacity:0"/></linearGradient><linearGradient xlink:href="#a" id="d" x1="984.52991" x2="1340.0286" y1="792.61731" y2="552.52985" gradientUnits="userSpaceOnUse"/></defs><g style="display:inline"><g style="display:inline;opacity:.5" transform="translate(5.5448 -.4318)"><path id="b" d="M41.942602 169.08311H1858.8889" style="display:inline;fill:none;fill-opacity:1;stroke:#a4a4a4;stroke-width:1.00157;stroke-linecap:round;stroke-linejoin:round;stroke-dasharray:none;stroke-opacity:1"/><use xlink:href="#b" style="display:inline" transform="translate(0 108.38845)"/><use xlink:href="#b" style="display:inline" transform="translate(0 211.80602)"/><use xlink:href="#b" style="display:inline" transform="translate(0 319.80611)"/><use xlink:href="#b" style="display:inline" transform="translate(0 425.70912)"/><use xlink:href="#b" style="display:inline" transform="translate(0 532.34891)"/><use xlink:href="#b" style="display:inline" transform="translate(0 639.11526)"/><use xlink:href="#b" style="display:inline" transform="translate(0 745.88162)"/></g><g style="display:inline;opacity:.5;stroke-width:.896677" transform="matrix(1 0 0 1.2437367 2.373227 -67.22646)"><path id="c" d="M897.60883 58.7185v859.8066" style="fill:none;fill-opacity:1;stroke:#a4a4a4;stroke-width:.898084;stroke-linecap:round;stroke-linejoin:round;stroke-dasharray:none;stroke-opacity:1"/><use xlink:href="#c" style="stroke-width:.896677" transform="translate(106.94548)"/><use xlink:href="#c" style="stroke-width:.896677" transform="translate(213.89096)"/><use xlink:href="#c" style="stroke-width:.896677" transform="translate(320.83645)"/><use xlink:href="#c" style="stroke-width:.896677" transform="translate(427.78193)"/><use xlink:href="#c" style="stroke-width:.896677" transform="translate(534.72742)"/><use xlink:href="#c" style="stroke-width:.896677" transform="translate(641.6729)"/><use xlink:href="#c" style="stroke-width:.896677" transform="translate(748.61839)"/><use xlink:href="#c" style="stroke-width:.896677" transform="translate(855.56387)"/><use xlink:href="#c" style="stroke-width:.896677" transform="translate(-106.94549)"/><use xlink:href="#c" style="stroke-width:.896677" transform="translate(-213.89097)"/><use xlink:href="#c" style="stroke-width:.896677" transform="translate(-320.83646)"/><use xlink:href="#c" style="stroke-width:.896677" transform="translate(-427.78194)"/><use xlink:href="#c" style="stroke-width:.896677" transform="translate(-534.72743)"/><use xlink:href="#c" style="stroke-width:.896677" transform="translate(-641.67291)"/></g><path d="M0 .25v1073.1387h144V1074h1759.8787V.25Zm152.73438 60.869141H1859V594.23242h-520.8438c-6.9248 0-12.5 5.575-12.5 12.5v81.75c0 6.925 5.5752 12.5 12.5 12.5H1432v320.08008H792V700.98242h96.25c6.925 0 12.5-5.575 12.5-12.5v-81.75c0-6.925-5.575-12.5-12.5-12.5H152.73438Z" style="fill:#6d9bb1;fill-opacity:1;stroke-width:15.118;stroke-linecap:round;stroke-linejoin:round;stroke-dasharray:15.118,30.236"/><rect width="106.06602" height="321.02649" x="258.80109" y="168.29141" ry="9.152071" style="display:inline;fill:#6d9bb1;fill-opacity:1;stroke-width:15.118;stroke-linecap:round;stroke-linejoin:round;stroke-dasharray:15.118,30.236"/></g><g style="display:inline"><g style="display:inline"><path d="M696.06896 808.51037c-11.41296 0-11.33789 12.11523-11.33789 12.11523v84.15625s1.31196 9.35988 9.5039 9.75977c64.12927-1.60024 127.71801 0 192.00782 0 0 0 10.6875-.68306 10.6875-10.93555v-82.96875s.92041-12.54692-11.07227-12.12695c-63.38173 1.61209-126.3185.00057-189.78906 0z" style="opacity:1;mix-blend-mode:normal;fill:#f5a633;fill-opacity:1;stroke-width:7.55906;stroke-linecap:round;stroke-linejoin:round;stroke-dasharray:7.55906,15.1181" transform="translate(535.91296 -427.54169)"/><g style="display:inline" transform="translate(588.730163 -429.5242885)"><circle cx="722.94879" cy="854.53064" r="3.4077702" style="fill:#272727;fill-opacity:1;stroke:none;stroke-width:3.77953;stroke-linecap:round;stroke-linejoin:round;stroke-dasharray:none;stroke-dashoffset:0;stroke-opacity:1"/><circle cx="753.09442" cy="854.53064" r="3.4077702" style="fill:#272727;fill-opacity:1;stroke:none;stroke-width:3.77953;stroke-linecap:round;stroke-linejoin:round;stroke-dasharray:none;stroke-dashoffset:0;stroke-opacity:1"/><path d="M724.25957 873.99424h27.39322" style="fill:none;fill-opacity:1;stroke:#222;stroke-width:3.77953;stroke-linecap:round;stroke-linejoin:round;stroke-dasharray:none;stroke-dashoffset:0;stroke-opacity:1"/></g></g><path d="M1338.472 487.77953h86.508c12.3675-.43019 11.4174 12.42211 11.4174 12.42211v84.99039c0 10.50219-11.0212 11.20206-11.0212 11.20206h-88.7942c-8.4478-.40962-9.8025-9.99839-9.8025-9.99839v-86.20574s-.077-12.41043 11.6925-12.41043z" style="display:inline;mix-blend-mode:normal;fill:#0079b0;fill-opacity:.2;stroke:#0079b0;stroke-width:7.55906;stroke-linecap:round;stroke-linejoin:round;stroke-dasharray:7.55906,22.6772;stroke-dashoffset:0;stroke-opacity:1"/><path d="m1349 529.0332-1.8828.29102c-107.4111 16.58067-152.5483 80.17437-192.127 132.08789-19.7893 25.95676-38.6888 48.98982-64.1914 65.36914s-58.0717 27.0415-108.52927 26.32227l-18.89648-.26954-.53907 37.79297 18.89649.26953c56.21573.80132 97.65433-11.86623 129.49223-32.31445 31.8378-20.44822 53.6104-47.7404 73.8242-74.25391C1224.9134 632.037 1256.8152 582.78648 1349 567.33398Z" style="opacity:.807;fill:url(#d);fill-opacity:1;stroke-linecap:square;stroke-linejoin:round"/><g style="display:inline"><path d="m892.6112 203.69709-13.64237 50.12498m72.36386-39.61893-39.7539 49.3488m58.95701 9.06518-39.01247 21.18735" style="fill:#ebebeb;fill-opacity:1;stroke:#f5a633;stroke-width:11.3386;stroke-linecap:round;stroke-linejoin:round;stroke-dasharray:none;stroke-opacity:1" transform="rotate(44.799721 523.01026 607.20557)"/></g><g style="display:inline"><path d="M912.44871 808.50952c-14.38688 0-14.29224 12.11524-14.29224 12.11524v84.15625s1.65382 9.35988 11.98036 9.75976c169.71997-1.4743 339.37317-.30192 509.09187 0 0 0 13.4724-.68305 13.4724-10.93554v-82.96875s1.1602-12.54693-13.9574-12.12696c-169.0438 1.73512-337.2949 1.41277-506.29499 0z" style="opacity:1;mix-blend-mode:normal;fill:#0079b0;fill-opacity:1;stroke-width:7.55905;stroke-linecap:round;stroke-linejoin:round;stroke-dasharray:7.55905,15.1181" transform="translate(-426.81909 -319.74921)"/><g style="display:inline" transform="translate(-9.3385 -321.7318085)"><circle cx="722.94879" cy="854.53064" r="3.4077702" style="fill:#272727;fill-opacity:1;stroke:none;stroke-width:3.77953;stroke-linecap:round;stroke-linejoin:round;stroke-dasharray:none;stroke-dashoffset:0;stroke-opacity:1"/><circle cx="753.09442" cy="854.53064" r="3.4077702" style="fill:#272727;fill-opacity:1;stroke:none;stroke-width:3.77953;stroke-linecap:round;stroke-linejoin:round;stroke-dasharray:none;stroke-dashoffset:0;stroke-opacity:1"/><path d="M724.25957 873.99424h27.39322" style="fill:none;fill-opacity:1;stroke:#222;stroke-width:3.77953;stroke-linecap:round;stroke-linejoin:round;stroke-dasharray:none;stroke-dashoffset:0;stroke-opacity:1"/></g></g><g style="display:inline"><path d="M781.04163 595.98772c-.34997-.0172-.71116-.0169-1.08594.003h-83.88671c-11.41296 0-11.3379 18.3728-11.3379 18.3728.90943 95.14491 0 285.37493 0 285.37493s1.31197 14.19723 9.50391 14.80367h86.10547s10.68555-1.03585 10.68555-16.58379c-1.00839-94.59894 0-188.89268 0-283.57705 0 0 .86472-17.85651-9.98438-18.39351z" style="opacity:1;mix-blend-mode:normal;fill:#0079b0;fill-opacity:1;stroke-width:7.55906;stroke-linecap:round;stroke-linejoin:round;stroke-dasharray:7.55906,15.1181" transform="translate(215.29542 106.61733)"/><g style="display:inline" transform="translate(215.16064987 -1.62741)"><circle cx="722.94879" cy="854.53064" r="3.4077702" style="fill:#272727;fill-opacity:1;stroke:none;stroke-width:3.77953;stroke-linecap:round;stroke-linejoin:round;stroke-dasharray:none;stroke-dashoffset:0;stroke-opacity:1"/><circle cx="753.09442" cy="854.53064" r="3.4077702" style="fill:#272727;fill-opacity:1;stroke:none;stroke-width:3.77953;stroke-linecap:round;stroke-linejoin:round;stroke-dasharray:none;stroke-dashoffset:0;stroke-opacity:1"/><path d="M724.25957 873.99424h27.39322" style="fill:none;fill-opacity:1;stroke:#222;stroke-width:3.77953;stroke-linecap:round;stroke-linejoin:round;stroke-dasharray:none;stroke-dashoffset:0;stroke-opacity:1"/></g></g><g style="display:inline"><path d="M696.06846 808.50959h83.88713c11.99268-.41997 11.07138 12.12676 11.07138 12.12676V903.606c0 10.25249-10.68731 10.93573-10.68731 10.93573h-86.10387c-8.19194-.39989-9.50539-9.76067-9.50539-9.76067v-84.15612s-.0749-12.11535 11.33806-12.11535z" style="opacity:1;mix-blend-mode:normal;fill:#e54b3d;fill-opacity:1;stroke-width:7.55906;stroke-linecap:round;stroke-linejoin:round;stroke-dasharray:7.55906,15.1181" transform="translate(321.155 107.28591)"/><g style="display:inline" transform="translate(321.02022987 105.3029764)"><circle cx="722.94879" cy="854.53064" r="3.4077702" style="fill:#272727;fill-opacity:1;stroke:none;stroke-width:3.77953;stroke-linecap:round;stroke-linejoin:round;stroke-dasharray:none;stroke-dashoffset:0;stroke-opacity:1"/><circle cx="753.09442" cy="854.53064" r="3.4077702" style="fill:#272727;fill-opacity:1;stroke:none;stroke-width:3.77953;stroke-linecap:round;stroke-linejoin:round;stroke-dasharray:none;stroke-dashoffset:0;stroke-opacity:1"/><path d="M724.25957 873.99424h27.39322" style="fill:none;fill-opacity:1;stroke:#222;stroke-width:3.77953;stroke-linecap:round;stroke-linejoin:round;stroke-dasharray:none;stroke-dashoffset:0;stroke-opacity:1"/></g></g><text xml:space="preserve" x="607.35919" y="298.88043" style="font-weight:700;font-size:110px;line-height:1;font-family:&quot;Corporate Logo ver2&quot;;-inkscape-font-specification:&quot;Corporate Logo ver2 Bold&quot;;text-align:start;letter-spacing:0;word-spacing:0;writing-mode:lr-tb;direction:ltr;text-anchor:start;display:inline;fill:#eee;fill-opacity:1;stroke:#fff;stroke-width:37.7953;stroke-linecap:square;stroke-linejoin:miter;stroke-dasharray:none;stroke-dashoffset:0;stroke-opacity:1"><tspan x="607.35919" y="298.88043" style="fill:#eee;fill-opacity:1;stroke:none"><tspan style="fill:#eee;fill-opacity:1">1段足りない！</tspan></tspan></text></g></svg>