<svg xmlns="http://www.w3.org/2000/svg" xmlns:xlink="http://www.w3.org/1999/xlink" xml:space="preserve" width="1904" height="1072"><g style="display:inline;mix-blend-mode:normal"><g style="display:inline;opacity:.5" transform="translate(6.959014 -2.55312)"><path id="a" d="M41.942602 169.08311H1858.8889" style="display:inline;fill:none;fill-opacity:1;stroke:#a4a4a4;stroke-width:1.00157;stroke-linecap:round;stroke-linejoin:round;stroke-dasharray:none;stroke-opacity:1"/><use xlink:href="#a" style="display:inline" transform="translate(0 107.09023)"/><use xlink:href="#a" style="display:inline" transform="translate(0 214.18046)"/><use xlink:href="#a" style="display:inline" transform="translate(0 321.27069)"/><use xlink:href="#a" style="display:inline" transform="translate(0 428.36093)"/><use xlink:href="#a" style="display:inline" transform="translate(0 535.45116)"/><use xlink:href="#a" style="display:inline" transform="translate(0 642.54139)"/><use xlink:href="#a" style="display:inline" transform="translate(0 749.63162)"/></g><g style="display:inline;opacity:.5;stroke-width:.896677" transform="matrix(1 0 0 1.2437367 .959014 -71.4691)"><path id="b" d="M897.60883 58.7185v859.8066" style="fill:none;fill-opacity:1;stroke:#a4a4a4;stroke-width:.898084;stroke-linecap:round;stroke-linejoin:round;stroke-dasharray:none;stroke-opacity:1"/><use xlink:href="#b" style="stroke-width:.896677" transform="translate(106.94548)"/><use xlink:href="#b" style="stroke-width:.896677" transform="translate(213.89096)"/><use xlink:href="#b" style="stroke-width:.896677" transform="translate(320.83645)"/><use xlink:href="#b" style="stroke-width:.896677" transform="translate(427.78193)"/><use xlink:href="#b" style="stroke-width:.896677" transform="translate(534.72742)"/><use xlink:href="#b" style="stroke-width:.896677" transform="translate(641.6729)"/><use xlink:href="#b" style="stroke-width:.896677" transform="translate(748.61839)"/><use xlink:href="#b" style="stroke-width:.896677" transform="translate(855.56387)"/><use xlink:href="#b" style="stroke-width:.896677" transform="translate(962.50936)"/><use xlink:href="#b" style="stroke-width:.896677" transform="translate(-106.94549)"/><use xlink:href="#b" style="stroke-width:.896677" transform="translate(-213.89097)"/><use xlink:href="#b" style="stroke-width:.896677" transform="translate(-320.83646)"/><use xlink:href="#b" style="stroke-width:.896677" transform="translate(-427.78194)"/><use xlink:href="#b" style="stroke-width:.896677" transform="translate(-534.72743)"/><use xlink:href="#b" style="stroke-width:.896677" transform="translate(-641.67291)"/><use xlink:href="#b" style="stroke-width:.896677" transform="translate(-748.6184)"/></g><path d="M-6-4v1084h690.83984c.11788-.5334.34571-1.0407.34571-1.5977V926.70898c0-5.84006-6.70796-10.54101-15.04102-10.54101h-78.10351c-8.33307 0-15.04102 4.70095-15.04102 10.54101V1021H472V594.97487c204.47389 0 197.95898.5 197.95898.5 8.33307 0 15.04102-4.70095 15.04102-10.54102v-86.39283C685 492.70095 678.29205 488 669.95898 488H578V284.54102C578 278.70095 571.29205 274 562.95898 274H472V166.58594h319.25195v417.9026c0 5.84006 6.70991 10.54102 15.04297 10.54102h76.68946c8.33306 0 15.04101-4.70096 15.04101-10.54102v-99.5276c1.79676.52922 3.77214.82226 5.84961.82226h406.9082c8.3331 0 15.043-4.7029 15.043-10.54297v-87.81054c0-5.84006-6.7099-10.54102-15.043-10.54102H903.875c-2.07747 0-4.05285.2911-5.84961.82031V166.58594H1539.5V861h-91.459c-8.333 0-15.041 4.70095-15.041 10.54102V1080h477V-4Zm810.87891 920.16797c-8.33306 0-15.04102 4.70095-15.04102 10.54101V1080h536.69351V926.70898c0-5.84006-6.708-10.54101-15.041-10.54101z" style="display:inline;mix-blend-mode:normal;fill:#9f999e;fill-opacity:1;stroke:none;stroke-width:.5;stroke-linecap:round;stroke-linejoin:round"/><g id="c" style="display:inline;stroke-width:1.01784"><path d="M696.06846 808.50959h83.88713c11.99268-.41997 11.07138 12.12676 11.07138 12.12676V903.606c0 10.25249-10.68731 10.93573-10.68731 10.93573h-86.10387c-8.19194-.39989-9.50539-9.76067-9.50539-9.76067v-84.15612s-.0749-12.11535 11.33806-12.11535z" style="opacity:1;mix-blend-mode:normal;fill:#ff9a61;fill-opacity:1;stroke-width:7.6939;stroke-linecap:round;stroke-linejoin:round;stroke-dasharray:7.6939,15.3878" transform="matrix(.99294535 0 0 .97211394 326.35014 -511.99631)"/><g style="display:inline;stroke-width:1.01784" transform="matrix(.99294535 0 0 .97211394 326.21632063 -513.9239474)"><circle cx="722.94879" cy="854.53064" r="3.4077702" style="fill:#272727;fill-opacity:1;stroke:none;stroke-width:3.84694;stroke-linecap:round;stroke-linejoin:round;stroke-dasharray:none;stroke-dashoffset:0;stroke-opacity:1"/><circle cx="753.09442" cy="854.53064" r="3.4077702" style="fill:#272727;fill-opacity:1;stroke:none;stroke-width:3.84694;stroke-linecap:round;stroke-linejoin:round;stroke-dasharray:none;stroke-dashoffset:0;stroke-opacity:1"/><path d="M724.25957 873.99424h27.39322" style="fill:none;fill-opacity:1;stroke:#222;stroke-width:3.84694;stroke-linecap:round;stroke-linejoin:round;stroke-dasharray:none;stroke-dashoffset:0;stroke-opacity:1"/></g></g><use xlink:href="#c" style="stroke-width:.991412" transform="matrix(.99294535 0 0 1.024619 -527.06506 634.66482)"/><g style="display:inline;stroke-width:.992405"><path d="M696.06896 808.51037c-11.41296 0-11.33789 12.11523-11.33789 12.11523v84.15625s1.31196 9.35988 9.5039 9.75977h192.00782s10.6875-.68306 10.6875-10.93555v-82.96875s.92041-12.54692-11.07227-12.12695z" style="opacity:1;mix-blend-mode:normal;fill:#ff9a61;fill-opacity:1;stroke-width:7.50164;stroke-linecap:round;stroke-linejoin:round;stroke-dasharray:7.50164,15.0033" transform="matrix(1.0106024 0 0 1.0047152 206.2591 -2.9660502)"/><g style="display:inline;stroke-width:.992405" transform="matrix(1.0106024 0 0 1.0047152 259.63629211 -4.95799705)"><circle cx="722.94879" cy="854.53064" r="3.4077702" style="fill:#272727;fill-opacity:1;stroke:none;stroke-width:3.75082;stroke-linecap:round;stroke-linejoin:round;stroke-dasharray:none;stroke-dashoffset:0;stroke-opacity:1"/><circle cx="753.09442" cy="854.53064" r="3.4077702" style="fill:#272727;fill-opacity:1;stroke:none;stroke-width:3.75082;stroke-linecap:round;stroke-linejoin:round;stroke-dasharray:none;stroke-dashoffset:0;stroke-opacity:1"/><path d="M724.25957 873.99424h27.39322" style="fill:none;fill-opacity:1;stroke:#222;stroke-width:3.75082;stroke-linecap:round;stroke-linejoin:round;stroke-dasharray:none;stroke-dashoffset:0;stroke-opacity:1"/></g></g><g style="display:inline;stroke-width:1.01176"><path d="M696.06846 808.50959h83.88713c11.99268-.41997 11.07138 12.12676 11.07138 12.12676V903.606c0 10.25249-10.68731 10.93573-10.68731 10.93573h-86.10387c-8.19194-.39989-9.50539-9.76067-9.50539-9.76067v-84.15612s-.0749-12.11535 11.33806-12.11535z" style="opacity:1;mix-blend-mode:normal;fill:#17979f;fill-opacity:1;stroke-width:7.6479;stroke-linecap:round;stroke-linejoin:round;stroke-dasharray:7.6479,15.2957" transform="matrix(1.0066512 0 0 .9704469 209.21534 -510.47174)"/><g style="display:inline;stroke-width:1.01176" transform="matrix(1.0066512 0 0 .9704469 209.07967349 -512.39607177)"><circle cx="722.94879" cy="854.53064" r="3.4077702" style="fill:#272727;fill-opacity:1;stroke:none;stroke-width:3.82395;stroke-linecap:round;stroke-linejoin:round;stroke-dasharray:none;stroke-dashoffset:0;stroke-opacity:1"/><circle cx="753.09442" cy="854.53064" r="3.4077702" style="fill:#272727;fill-opacity:1;stroke:none;stroke-width:3.82395;stroke-linecap:round;stroke-linejoin:round;stroke-dasharray:none;stroke-dashoffset:0;stroke-opacity:1"/><path d="M724.25957 873.99424h27.39322" style="fill:none;fill-opacity:1;stroke:#222;stroke-width:3.82395;stroke-linecap:round;stroke-linejoin:round;stroke-dasharray:none;stroke-dashoffset:0;stroke-opacity:1"/></g></g><path d="M1337.9182 807.76031h84.4789c12.0773-.41997 11.1495 12.12676 11.1495 12.12676v252.46963l-107.0466 1.1751V819.87566s-.076-12.11535 11.4182-12.11535zM693.9982 916.05841h85.0706c12.1619-.41997 11.2277 12.12676 11.2277 12.12676v149.10553L682.5 1078.4658V928.17376s-.076-12.11535 11.4982-12.11535z" style="display:inline;opacity:1;mix-blend-mode:normal;fill:#17979f;fill-opacity:1;stroke-width:7.55906;stroke-linecap:round;stroke-linejoin:round;stroke-dasharray:7.55906,15.1181"/><g style="display:inline"><path d="M589.26953 381.23633C577.8566 381.26505 578 393.41602 578 393.41602l.47461 84.15429s1.36648 9.3533 9.56055 9.70703l97.11328-.0684.32617 95.98438s1.36648 11.02521 9.56055 11.58398l86.10156-.76562s10.66318-.12126 10.625-10.81836l-.58789-190.36524c0 .00001 1.07148-12.55198-14.03516-12.06445z" style="display:inline;opacity:1;mix-blend-mode:normal;fill:#c5bd1e;fill-opacity:1;stroke-width:7.55906;stroke-linecap:round;stroke-linejoin:round;stroke-dasharray:7.55906,15.1181" transform="translate(-.00000126 .35355444)"/><g style="display:inline" transform="rotate(-.322802 -75414.0166 10080.32343568)"><circle cx="722.94879" cy="854.53064" r="3.4077702" style="fill:#272727;fill-opacity:1;stroke:none;stroke-width:3.77953;stroke-linecap:round;stroke-linejoin:round;stroke-dasharray:none;stroke-dashoffset:0;stroke-opacity:1"/><circle cx="753.09442" cy="854.53064" r="3.4077702" style="fill:#272727;fill-opacity:1;stroke:none;stroke-width:3.77953;stroke-linecap:round;stroke-linejoin:round;stroke-dasharray:none;stroke-dashoffset:0;stroke-opacity:1"/><path d="M724.25957 873.99424h27.39322" style="fill:none;fill-opacity:1;stroke:#222;stroke-width:3.77953;stroke-linecap:round;stroke-linejoin:round;stroke-dasharray:none;stroke-dashoffset:0;stroke-opacity:1"/></g></g><g style="display:inline;opacity:1"><path d="M699.06882 808.41472c-11.41297.001-11.33934 12.35854-11.33934 12.35854l-.009 85.83139s1.31271 9.5471 9.50462 9.95404l299.59957 1.19392s10.68683-.69838 10.68803-11.15501l.01-84.62223c0 .00001.9236-12.79694-11.06912-12.36726l-297.38471-1.19339z" style="display:inline;opacity:1;mix-blend-mode:normal;fill:#c5bd1e;fill-opacity:1;stroke-width:7.55906;stroke-linecap:round;stroke-linejoin:round;stroke-dasharray:7.55906,15.1181" transform="rotate(-.322802 -113189.97 38791.105)"/><g style="display:inline" transform="rotate(-.322802 -113487.11260221 19380.3602608)"><circle cx="722.94879" cy="854.53064" r="3.4077702" style="fill:#272727;fill-opacity:1;stroke:none;stroke-width:3.77953;stroke-linecap:round;stroke-linejoin:round;stroke-dasharray:none;stroke-dashoffset:0;stroke-opacity:1"/><circle cx="753.09442" cy="854.53064" r="3.4077702" style="fill:#272727;fill-opacity:1;stroke:none;stroke-width:3.77953;stroke-linecap:round;stroke-linejoin:round;stroke-dasharray:none;stroke-dashoffset:0;stroke-opacity:1"/><path d="M724.25957 873.99424h27.39322" style="fill:none;fill-opacity:1;stroke:#222;stroke-width:3.77953;stroke-linecap:round;stroke-linejoin:round;stroke-dasharray:none;stroke-dashoffset:0;stroke-opacity:1"/></g></g></g></svg>