<svg xmlns="http://www.w3.org/2000/svg" xmlns:xlink="http://www.w3.org/1999/xlink" xml:space="preserve" width="261.14377mm" height="85.142647mm" viewBox="0 0 261.14377 85.142647"><defs><linearGradient id="a"><stop offset="0" style="stop-color:#fff;stop-opacity:1"/><stop offset="1" style="stop-color:#cec0b3;stop-opacity:1"/></linearGradient><linearGradient id="b"><stop offset="0" style="stop-color:#acacac;stop-opacity:1"/><stop offset="1" style="stop-color:#fff;stop-opacity:1"/></linearGradient><linearGradient xlink:href="#a" id="c" x1="68.919266" x2="68.919266" y1="6.256309" y2="30.561342" gradientUnits="userSpaceOnUse"/><linearGradient xlink:href="#b" id="j" x1="75.194069" x2="75.194069" y1="14.337372" y2="21.309202" gradientUnits="userSpaceOnUse"/><linearGradient xlink:href="#a" id="d" x1="68.919266" x2="68.919266" y1="6.256309" y2="30.561342" gradientTransform="matrix(1 0 0 1.0034448 -.0000028 -.08075651)" gradientUnits="userSpaceOnUse"/><linearGradient xlink:href="#a" id="e" x1="68.919266" x2="68.919266" y1="6.256309" y2="30.561342" gradientTransform="matrix(1 0 0 1.0034448 -.0000028 -.08075651)" gradientUnits="userSpaceOnUse"/><linearGradient xlink:href="#a" id="f" x1="68.919266" x2="68.919266" y1="6.256309" y2="30.561342" gradientTransform="matrix(1 0 0 .99713237 -.0000028 .10485616)" gradientUnits="userSpaceOnUse"/><linearGradient xlink:href="#a" id="g" x1="68.919266" x2="68.919266" y1="6.256309" y2="30.561342" gradientTransform="matrix(1 0 0 .99089886 -.0000028 .28814823)" gradientUnits="userSpaceOnUse"/><linearGradient xlink:href="#a" id="h" x1="68.919266" x2="68.919266" y1="6.256309" y2="30.561342" gradientTransform="matrix(1 0 0 .99089886 -.0000028 .13766739)" gradientUnits="userSpaceOnUse"/><linearGradient xlink:href="#a" id="i" x1="68.919266" x2="68.919266" y1="6.256309" y2="30.561342" gradientTransform="matrix(1 0 0 .98474279 -.0000028 .61330875)" gradientUnits="userSpaceOnUse"/><linearGradient xlink:href="#a" id="k" x1="68.919266" x2="68.919266" y1="6.256309" y2="30.561342" gradientTransform="matrix(1 0 0 .97866275 -.0000028 .64794264)" gradientUnits="userSpaceOnUse"/><linearGradient xlink:href="#a" id="l" x1="68.919266" x2="68.919266" y1="6.256309" y2="30.561342" gradientTransform="matrix(1 0 0 .98474279 -.0000028 .46916324)" gradientUnits="userSpaceOnUse"/><linearGradient xlink:href="#a" id="m" x1="68.919266" x2="68.919266" y1="6.256309" y2="30.561342" gradientTransform="matrix(1 0 0 .98474279 -.0000028 .46916324)" gradientUnits="userSpaceOnUse"/><linearGradient xlink:href="#a" id="n" x1="68.919266" x2="68.919266" y1="6.256309" y2="30.561342" gradientTransform="matrix(1 0 0 .98474279 -.0000028 .46916324)" gradientUnits="userSpaceOnUse"/><linearGradient xlink:href="#a" id="o" x1="68.919266" x2="68.919266" y1="6.256309" y2="30.561342" gradientTransform="matrix(1 0 0 .97866275 -.0000028 .64794264)" gradientUnits="userSpaceOnUse"/><linearGradient xlink:href="#a" id="p" x1="68.919266" x2="68.919266" y1="6.256309" y2="30.561342" gradientTransform="matrix(1 0 0 .98474279 -.0000028 .46916324)" gradientUnits="userSpaceOnUse"/><linearGradient xlink:href="#a" id="q" x1="68.919266" x2="68.919266" y1="6.256309" y2="30.561342" gradientTransform="matrix(1 0 0 .98474279 -.0000028 .46916324)" gradientUnits="userSpaceOnUse"/><linearGradient xlink:href="#a" id="r" x1="68.919266" x2="68.919266" y1="6.256309" y2="30.561342" gradientTransform="matrix(1 0 0 .98474279 -.0000028 .46916324)" gradientUnits="userSpaceOnUse"/><linearGradient xlink:href="#a" id="s" x1="68.919266" x2="68.919266" y1="6.256309" y2="30.561342" gradientTransform="matrix(1 0 0 .98474279 -.0000028 .46916324)" gradientUnits="userSpaceOnUse"/></defs><g style="display:inline" transform="rotate(-90.276774 -37.889841 -80.720446)"><rect width="261.14377" height="85.142639" x="-42.646641" y="118.99978" rx="2.3812499" ry="4.2333322" style="display:inline;fill:#cac4d8;fill-opacity:1;stroke:none;stroke-width:.600001;stroke-linecap:round;stroke-dasharray:none" transform="rotate(90.276776)"/><text xml:space="preserve" x="-15.870862" y="139.45837" style="font-style:normal;font-variant:normal;font-weight:700;font-stretch:normal;font-size:11.4564px;line-height:0;font-family:&quot;Corporate Logo ver2&quot;;-inkscape-font-specification:&quot;Corporate Logo ver2 Bold&quot;;text-align:start;letter-spacing:0;word-spacing:0;writing-mode:lr-tb;direction:ltr;text-anchor:start;display:inline;fill:#111;fill-opacity:1;stroke:none;stroke-width:.2;stroke-linecap:square;stroke-dasharray:none;stroke-opacity:1" transform="rotate(90)"><tspan x="-15.870862" y="139.45837" style="font-size:11.4564px;stroke-width:.2">かけ算の帯がカラフル</tspan></text><text xml:space="preserve" x="64.956108" y="192.87303" style="font-style:normal;font-variant:normal;font-weight:700;font-stretch:normal;font-size:11.4564px;line-height:0;font-family:&quot;Corporate Logo ver2&quot;;-inkscape-font-specification:&quot;Corporate Logo ver2 Bold&quot;;text-align:start;letter-spacing:0;word-spacing:0;writing-mode:lr-tb;direction:ltr;text-anchor:start;display:inline;fill:#111;fill-opacity:1;stroke:none;stroke-width:.2;stroke-linecap:square;stroke-dasharray:none;stroke-opacity:1" transform="rotate(90)"><tspan x="64.956108" y="192.87303" style="font-size:11.4564px;stroke-width:.2">ひとつだけ誤差の帯が茶色</tspan></text><g style="display:inline;stroke-width:2.90515" transform="matrix(.3708273 0 0 .31951417 -187.65476 -18.519727)"><rect width="71.985046" height="23.162058" x="36.104549" y="6.2422547" rx="9.6252575" ry="13.440911" style="display:inline;fill:url(#c);fill-opacity:1;stroke:none;stroke-width:2.90515;stroke-linecap:square;stroke-dasharray:none;stroke-opacity:1" transform="translate(-.0000014)"/><g style="display:inline;stroke-width:2.90515" transform="translate(-.81297873)"><rect width="6.6835332" height="23.203125" x="49.664284" y="6.2217231" rx="0" ry="0" style="fill:#111;fill-opacity:1;stroke:none;stroke-width:2.90513;stroke-linecap:square;stroke-dasharray:none;stroke-opacity:1"/><rect width="6.6835332" height="23.203125" x="71.852303" y="6.2217231" rx="0" ry="0" style="fill:#994a1b;fill-opacity:1;stroke:none;stroke-width:2.90513;stroke-linecap:square;stroke-dasharray:none;stroke-opacity:1"/><rect width="6.6835332" height="23.203125" x="82.267654" y="6.2217231" rx="0" ry="0" style="fill:#111;fill-opacity:1;stroke:none;stroke-width:2.90513;stroke-linecap:square;stroke-dasharray:none;stroke-opacity:1"/><rect width="6.6835332" height="23.203125" x="92.683014" y="6.2217231" rx="0" ry="0" style="fill:#111;fill-opacity:1;stroke:none;stroke-width:2.90513;stroke-linecap:square;stroke-dasharray:none;stroke-opacity:1"/></g></g><g style="display:inline;stroke-width:2.91015" transform="matrix(.3708273 0 0 .31841728 -187.72537 -3.8770988)"><rect width="71.985046" height="23.241846" x="36.104546" y="6.1830015" rx="9.6252575" ry="13.487212" style="display:inline;fill:url(#d);fill-opacity:1;stroke:none;stroke-width:2.91015;stroke-linecap:square;stroke-dasharray:none;stroke-opacity:1"/><g style="stroke-width:2.91015" transform="translate(-.81297709)"><rect width="6.6835332" height="23.203125" x="49.664284" y="6.2217231" rx="0" ry="0" style="fill:#111;fill-opacity:1;stroke:none;stroke-width:2.91013;stroke-linecap:square;stroke-dasharray:none;stroke-opacity:1"/><rect width="6.6835332" height="23.203125" x="71.852303" y="6.2217231" rx="0" ry="0" style="fill:#999;fill-opacity:1;stroke:none;stroke-width:2.91013;stroke-linecap:square;stroke-dasharray:none;stroke-opacity:1"/><rect width="6.6835332" height="23.203125" x="82.267654" y="6.2217231" rx="0" ry="0" style="fill:#111;fill-opacity:1;stroke:none;stroke-width:2.91013;stroke-linecap:square;stroke-dasharray:none;stroke-opacity:1"/><rect width="6.6835332" height="23.203125" x="92.683014" y="6.2217231" rx="0" ry="0" style="fill:#111;fill-opacity:1;stroke:none;stroke-width:2.91013;stroke-linecap:square;stroke-dasharray:none;stroke-opacity:1"/></g></g><g style="stroke-width:2.91015" transform="matrix(.3708273 0 0 .31841728 -187.79506 10.550749)"><rect width="71.985046" height="23.241846" x="36.104546" y="6.1830015" rx="9.6252575" ry="13.487212" style="display:inline;fill:url(#e);fill-opacity:1;stroke:none;stroke-width:2.91015;stroke-linecap:square;stroke-dasharray:none;stroke-opacity:1"/><g style="stroke-width:2.91015" transform="translate(-.81297709)"><rect width="6.6835332" height="23.203125" x="49.664284" y="6.2217231" rx="0" ry="0" style="fill:#111;fill-opacity:1;stroke:none;stroke-width:2.91013;stroke-linecap:square;stroke-dasharray:none;stroke-opacity:1"/><rect width="6.6835332" height="23.203125" x="71.852303" y="6.2217231" rx="0" ry="0" style="fill:#f5da3d;fill-opacity:1;stroke:none;stroke-width:2.91013;stroke-linecap:square;stroke-dasharray:none;stroke-opacity:1"/><rect width="6.6835332" height="23.203125" x="82.267654" y="6.2217231" rx="0" ry="0" style="fill:#111;fill-opacity:1;stroke:none;stroke-width:2.91013;stroke-linecap:square;stroke-dasharray:none;stroke-opacity:1"/><rect width="6.6835332" height="23.203125" x="92.683014" y="6.2217231" rx="0" ry="0" style="fill:#111;fill-opacity:1;stroke:none;stroke-width:2.91013;stroke-linecap:square;stroke-dasharray:none;stroke-opacity:1"/></g></g><g style="stroke-width:2.90098" transform="matrix(.3708273 0 0 .32043305 -187.86493 24.953726)"><rect width="71.985046" height="23.095638" x="36.104546" y="6.3292103" rx="9.6252575" ry="13.402368" style="display:inline;fill:url(#f);fill-opacity:1;stroke:none;stroke-width:2.90098;stroke-linecap:square;stroke-dasharray:none;stroke-opacity:1"/><g style="stroke-width:2.90098" transform="translate(-.81297709)"><rect width="6.6835332" height="23.203125" x="49.664284" y="6.2217231" rx="0" ry="0" style="fill:#111;fill-opacity:1;stroke:none;stroke-width:2.90096;stroke-linecap:square;stroke-dasharray:none;stroke-opacity:1"/><rect width="6.6835332" height="23.203125" x="71.852303" y="6.2217231" rx="0" ry="0" style="fill:#0f8a53;fill-opacity:1;stroke:none;stroke-width:2.90096;stroke-linecap:square;stroke-dasharray:none;stroke-opacity:1"/><rect width="6.6835332" height="23.203125" x="82.267654" y="6.2217231" rx="0" ry="0" style="fill:#111;fill-opacity:1;stroke:none;stroke-width:2.90096;stroke-linecap:square;stroke-dasharray:none;stroke-opacity:1"/><rect width="6.6835332" height="23.203125" x="92.683014" y="6.2217231" rx="0" ry="0" style="fill:#111;fill-opacity:1;stroke:none;stroke-width:2.90096;stroke-linecap:square;stroke-dasharray:none;stroke-opacity:1"/></g></g><g style="stroke-width:2.8919" transform="matrix(.3708273 0 0 .32244882 -187.93468 39.333317)"><rect width="71.985046" height="22.951256" x="36.104546" y="6.4735913" rx="9.6252575" ry="13.318583" style="display:inline;fill:url(#g);fill-opacity:1;stroke:none;stroke-width:2.8919;stroke-linecap:square;stroke-dasharray:none;stroke-opacity:1"/><g style="stroke-width:2.90556" transform="matrix(1 0 0 .99062284 -.81297709 .27592161)"><rect width="6.6835332" height="23.203125" x="49.664284" y="6.2217231" rx="0" ry="0" style="fill:#111;fill-opacity:1;stroke:none;stroke-width:2.90553;stroke-linecap:square;stroke-dasharray:none;stroke-opacity:1"/><rect width="6.6835332" height="23.203125" x="71.852303" y="6.2217231" rx="0" ry="0" style="fill:#f5da3d;fill-opacity:1;stroke:none;stroke-width:2.90553;stroke-linecap:square;stroke-dasharray:none;stroke-opacity:1"/><rect width="6.6835332" height="23.203125" x="82.267654" y="6.2217231" rx="0" ry="0" style="fill:#994a1b;fill-opacity:1;stroke:none;stroke-width:2.90553;stroke-linecap:square;stroke-dasharray:none;stroke-opacity:1"/><rect width="6.6835332" height="23.203125" x="92.683014" y="6.2217231" rx="0" ry="0" style="fill:#111;fill-opacity:1;stroke:none;stroke-width:2.90553;stroke-linecap:square;stroke-dasharray:none;stroke-opacity:1"/></g></g><g style="display:inline;stroke-width:2.8919" transform="matrix(.3708273 0 0 .32244882 -188.00453 53.842378)"><rect width="71.985046" height="22.951256" x="36.104546" y="6.3231106" rx="9.6252575" ry="13.318583" style="display:inline;fill:url(#h);fill-opacity:1;stroke:none;stroke-width:2.8919;stroke-linecap:square;stroke-dasharray:none;stroke-opacity:1"/><g style="stroke-width:2.8919" transform="translate(-.81297709)"><rect width="6.6835332" height="23.203125" x="71.852303" y="6.2217231" rx="0" ry="0" style="fill:#994a1b;fill-opacity:1;stroke:none;stroke-width:2.89188;stroke-linecap:square;stroke-dasharray:none;stroke-opacity:1"/><rect width="6.6835332" height="23.203125" x="82.267654" y="6.2217231" rx="0" ry="0" style="fill:#111;fill-opacity:1;stroke:none;stroke-width:2.89188;stroke-linecap:square;stroke-dasharray:none;stroke-opacity:1"/><rect width="6.6835332" height="23.203125" x="92.683014" y="6.2217231" rx="0" ry="0" style="fill:#111;fill-opacity:1;stroke:none;stroke-width:2.89188;stroke-linecap:square;stroke-dasharray:none;stroke-opacity:1"/><rect width="6.6835332" height="23.203125" x="49.664284" y="6.2217231" rx="0" ry="0" style="fill:#994a1b;fill-opacity:1;stroke:none;stroke-width:2.89188;stroke-linecap:square;stroke-dasharray:none;stroke-opacity:1"/></g></g><g style="stroke-width:2.8829" transform="matrix(.3708273 0 0 .32446459 -188.07458 68.187836)"><rect width="71.985046" height="22.80867" x="36.104546" y="6.760324" rx="9.6252575" ry="13.235841" style="display:inline;fill:url(#i);fill-opacity:1;stroke:none;stroke-width:2.8829;stroke-linecap:square;stroke-dasharray:none;stroke-opacity:1"/><g style="stroke-width:2.92118" transform="matrix(1 0 0 .97396562 -.81297709 .76981042)"><rect width="6.6835332" height="23.203125" x="49.664284" y="6.2217231" rx="0" ry="0" style="fill:#111;fill-opacity:1;stroke:none;stroke-width:2.92116;stroke-linecap:square;stroke-dasharray:none;stroke-opacity:1"/><rect width="6.6835332" height="23.203125" x="71.852303" y="6.2217231" rx="0" ry="0" style="fill:url(#j);stroke:#111;stroke-width:.292119;stroke-linecap:square;stroke-dasharray:none;stroke-opacity:1"/><rect width="6.6835332" height="23.203125" x="82.267654" y="6.2217231" rx="0" ry="0" style="fill:#111;fill-opacity:1;stroke:none;stroke-width:2.92116;stroke-linecap:square;stroke-dasharray:none;stroke-opacity:1"/><rect width="6.6835332" height="23.203125" x="92.683014" y="6.2217231" rx="0" ry="0" style="fill:#111;fill-opacity:1;stroke:none;stroke-width:2.92116;stroke-linecap:square;stroke-dasharray:none;stroke-opacity:1"/></g></g><g style="stroke-width:2.87399" transform="matrix(.3708273 0 0 .32648036 -188.14433 82.614801)"><rect width="71.985046" height="22.667843" x="36.104546" y="6.7570047" rx="9.6252575" ry="13.154119" style="display:inline;fill:url(#k);fill-opacity:1;stroke:none;stroke-width:2.87399;stroke-linecap:square;stroke-dasharray:none;stroke-opacity:1"/><g style="stroke-width:2.90556" transform="matrix(1 0 0 .97839014 -.81297709 .63586691)"><rect width="6.6835332" height="23.203125" x="49.664284" y="6.2217231" rx="0" ry="0" style="fill:#111;fill-opacity:1;stroke:none;stroke-width:2.90554;stroke-linecap:square;stroke-dasharray:none;stroke-opacity:1"/><rect width="6.6835332" height="23.203125" x="71.852303" y="6.2217231" rx="0" ry="0" style="fill:#994a1b;fill-opacity:1;stroke:none;stroke-width:2.90554;stroke-linecap:square;stroke-dasharray:none;stroke-opacity:1"/><rect width="6.6835332" height="23.203125" x="82.267654" y="6.2217231" rx="0" ry="0" style="fill:#994a1b;fill-opacity:1;stroke:none;stroke-width:2.90554;stroke-linecap:square;stroke-dasharray:none;stroke-opacity:1"/><rect width="6.6835332" height="23.203125" x="92.683014" y="6.2217231" rx="0" ry="0" style="fill:#111;fill-opacity:1;stroke:none;stroke-width:2.90554;stroke-linecap:square;stroke-dasharray:none;stroke-opacity:1"/></g></g><g style="stroke-width:2.8829" transform="matrix(.3708273 0 0 .32446459 -188.21408 97.11302)"><rect width="71.985046" height="22.80867" x="36.104546" y="6.6161785" rx="9.6252575" ry="13.235841" style="display:inline;fill:url(#l);fill-opacity:1;stroke:none;stroke-width:2.8829;stroke-linecap:square;stroke-dasharray:none;stroke-opacity:1"/><g style="stroke-width:2.90555" transform="matrix(1 0 0 .98446849 -.81297709 .45701236)"><rect width="6.6835332" height="23.203125" x="49.664284" y="6.2217231" rx="0" ry="0" style="fill:#111;fill-opacity:1;stroke:none;stroke-width:2.90553;stroke-linecap:square;stroke-dasharray:none;stroke-opacity:1"/><rect width="6.6835332" height="23.203125" x="71.852303" y="6.2217231" rx="0" ry="0" style="fill:#2540f4;fill-opacity:1;stroke:none;stroke-width:2.90553;stroke-linecap:square;stroke-dasharray:none;stroke-opacity:1"/><rect width="6.6835332" height="23.203125" x="82.267654" y="6.2217231" rx="0" ry="0" style="fill:#111;fill-opacity:1;stroke:none;stroke-width:2.90553;stroke-linecap:square;stroke-dasharray:none;stroke-opacity:1"/><rect width="6.6835332" height="23.203125" x="92.683014" y="6.2217231" rx="0" ry="0" style="fill:#111;fill-opacity:1;stroke:none;stroke-width:2.90553;stroke-linecap:square;stroke-dasharray:none;stroke-opacity:1"/></g></g><g style="stroke-width:2.8829" transform="matrix(.3708273 0 0 .32446459 -188.28383 111.55192)"><rect width="71.985046" height="22.80867" x="36.104546" y="6.6161785" rx="9.6252575" ry="13.235841" style="display:inline;fill:url(#m);fill-opacity:1;stroke:none;stroke-width:2.8829;stroke-linecap:square;stroke-dasharray:none;stroke-opacity:1"/><g style="stroke-width:2.90555" transform="matrix(1 0 0 .98446849 -.81297709 .45701236)"><rect width="6.6835332" height="23.203125" x="49.664284" y="6.2217231" rx="0" ry="0" style="fill:#111;fill-opacity:1;stroke:none;stroke-width:2.90553;stroke-linecap:square;stroke-dasharray:none;stroke-opacity:1"/><rect width="6.6835332" height="23.203125" x="71.852303" y="6.2217231" rx="0" ry="0" style="fill:#f38c25;fill-opacity:1;stroke:none;stroke-width:2.90553;stroke-linecap:square;stroke-dasharray:none;stroke-opacity:1"/><rect width="6.6835332" height="23.203125" x="82.267654" y="6.2217231" rx="0" ry="0" style="fill:#111;fill-opacity:1;stroke:none;stroke-width:2.90553;stroke-linecap:square;stroke-dasharray:none;stroke-opacity:1"/><rect width="6.6835332" height="23.203125" x="92.683014" y="6.2217231" rx="0" ry="0" style="fill:#111;fill-opacity:1;stroke:none;stroke-width:2.90553;stroke-linecap:square;stroke-dasharray:none;stroke-opacity:1"/></g></g><g style="stroke-width:2.8829" transform="matrix(.3708273 0 0 .32446459 -188.35358 125.99083)"><rect width="71.985046" height="22.80867" x="36.104546" y="6.6161785" rx="9.6252575" ry="13.235841" style="display:inline;fill:url(#n);fill-opacity:1;stroke:none;stroke-width:2.8829;stroke-linecap:square;stroke-dasharray:none;stroke-opacity:1"/><g style="stroke-width:2.90555" transform="matrix(1 0 0 .98446849 -.81297709 .45701236)"><rect width="6.6835332" height="23.203125" x="49.664284" y="6.2217231" rx="0" ry="0" style="fill:#111;fill-opacity:1;stroke:none;stroke-width:2.90553;stroke-linecap:square;stroke-dasharray:none;stroke-opacity:1"/><rect width="6.6835332" height="23.203125" x="71.852303" y="6.2217231" rx="0" ry="0" style="fill:#f33030;fill-opacity:1;stroke:none;stroke-width:2.90553;stroke-linecap:square;stroke-dasharray:none;stroke-opacity:1"/><rect width="6.6835332" height="23.203125" x="82.267654" y="6.2217231" rx="0" ry="0" style="fill:#111;fill-opacity:1;stroke:none;stroke-width:2.90553;stroke-linecap:square;stroke-dasharray:none;stroke-opacity:1"/><rect width="6.6835332" height="23.203125" x="92.683014" y="6.2217231" rx="0" ry="0" style="fill:#111;fill-opacity:1;stroke:none;stroke-width:2.90553;stroke-linecap:square;stroke-dasharray:none;stroke-opacity:1"/></g></g><g style="stroke-width:2.87399" transform="matrix(.3708273 0 0 .32648036 -188.42327 140.35936)"><rect width="71.985046" height="22.667843" x="36.104546" y="6.7570047" rx="9.6252575" ry="13.154119" style="display:inline;fill:url(#o);fill-opacity:1;stroke:none;stroke-width:2.87399;stroke-linecap:square;stroke-dasharray:none;stroke-opacity:1"/><g style="stroke-width:2.91015" transform="matrix(1 0 0 .97530301 -.81297709 .72670504)"><rect width="6.6835332" height="23.203125" x="49.664284" y="6.2217231" rx="0" ry="0" style="fill:#111;fill-opacity:1;stroke:none;stroke-width:2.91013;stroke-linecap:square;stroke-dasharray:none;stroke-opacity:1"/><rect width="6.6835332" height="23.203125" x="71.852303" y="6.2217231" rx="0" ry="0" style="fill:#c630f3;fill-opacity:1;stroke:none;stroke-width:2.91013;stroke-linecap:square;stroke-dasharray:none;stroke-opacity:1"/><rect width="6.6835332" height="23.203125" x="82.267654" y="6.2217231" rx="0" ry="0" style="fill:#111;fill-opacity:1;stroke:none;stroke-width:2.91013;stroke-linecap:square;stroke-dasharray:none;stroke-opacity:1"/><rect width="6.6835332" height="23.203125" x="92.683014" y="6.2217231" rx="0" ry="0" style="fill:#111;fill-opacity:1;stroke:none;stroke-width:2.91013;stroke-linecap:square;stroke-dasharray:none;stroke-opacity:1"/></g></g><g style="stroke-width:2.8829" transform="matrix(.3708273 0 0 .32446459 -188.49302 154.85758)"><rect width="71.985046" height="22.80867" x="36.104546" y="6.6161785" rx="9.6252575" ry="13.235841" style="display:inline;fill:url(#p);fill-opacity:1;stroke:none;stroke-width:2.8829;stroke-linecap:square;stroke-dasharray:none;stroke-opacity:1"/><g style="stroke-width:2.90555" transform="matrix(1 0 0 .98446849 -.81297709 .45701236)"><rect width="6.6835332" height="23.203125" x="49.664284" y="6.2217231" rx="0" ry="0" style="fill:#111;fill-opacity:1;stroke:none;stroke-width:2.90553;stroke-linecap:square;stroke-dasharray:none;stroke-opacity:1"/><rect width="6.6835332" height="23.203125" x="71.852303" y="6.2217231" rx="0" ry="0" style="fill:#0f8a53;fill-opacity:1;stroke:none;stroke-width:2.90553;stroke-linecap:square;stroke-dasharray:none;stroke-opacity:1"/><rect width="6.6835332" height="23.203125" x="82.267654" y="6.2217231" rx="0" ry="0" style="fill:#994a1b;fill-opacity:1;stroke:none;stroke-width:2.90553;stroke-linecap:square;stroke-dasharray:none;stroke-opacity:1"/><rect width="6.6835332" height="23.203125" x="92.683014" y="6.2217231" rx="0" ry="0" style="fill:#111;fill-opacity:1;stroke:none;stroke-width:2.90553;stroke-linecap:square;stroke-dasharray:none;stroke-opacity:1"/></g></g><g style="stroke-width:2.8829" transform="matrix(.3708273 0 0 .32446459 -188.56288 169.31987)"><rect width="71.985046" height="22.80867" x="36.104546" y="6.6161785" rx="9.6252575" ry="13.235841" style="display:inline;fill:url(#q);fill-opacity:1;stroke:none;stroke-width:2.8829;stroke-linecap:square;stroke-dasharray:none;stroke-opacity:1"/><g style="stroke-width:2.90098" transform="matrix(1 0 0 .98757479 -.81297873 .36560989)"><rect width="6.6835332" height="23.203125" x="49.664284" y="6.2217231" rx="0" ry="0" style="fill:#111;fill-opacity:1;stroke:none;stroke-width:2.90096;stroke-linecap:square;stroke-dasharray:none;stroke-opacity:1"/><rect width="6.6835332" height="23.203125" x="71.852303" y="6.2217231" rx="0" ry="0" style="fill:#f38c25;fill-opacity:1;stroke:none;stroke-width:2.90096;stroke-linecap:square;stroke-dasharray:none;stroke-opacity:1"/><rect width="6.6835332" height="23.203125" x="82.267654" y="6.2217231" rx="0" ry="0" style="fill:#994a1b;fill-opacity:1;stroke:none;stroke-width:2.90096;stroke-linecap:square;stroke-dasharray:none;stroke-opacity:1"/><rect width="6.6835332" height="23.203125" x="92.683014" y="6.2217231" rx="0" ry="0" style="fill:#111;fill-opacity:1;stroke:none;stroke-width:2.90096;stroke-linecap:square;stroke-dasharray:none;stroke-opacity:1"/></g></g><g style="stroke-width:2.8829" transform="matrix(.3708273 0 0 .32446459 -188.63263 183.75878)"><rect width="71.985046" height="22.80867" x="36.104546" y="6.6161785" rx="9.6252575" ry="13.235841" style="display:inline;fill:url(#r);fill-opacity:1;stroke:none;stroke-width:2.8829;stroke-linecap:square;stroke-dasharray:none;stroke-opacity:1"/><g style="stroke-width:2.90555" transform="matrix(1 0 0 .98446849 -.81297873 .45701236)"><rect width="6.6835332" height="23.203125" x="49.664284" y="6.2217231" rx="0" ry="0" style="fill:#111;fill-opacity:1;stroke:none;stroke-width:2.90553;stroke-linecap:square;stroke-dasharray:none;stroke-opacity:1"/><rect width="6.6835332" height="23.203125" x="71.852303" y="6.2217231" rx="0" ry="0" style="fill:#111;fill-opacity:1;stroke:none;stroke-width:2.90553;stroke-linecap:square;stroke-dasharray:none;stroke-opacity:1"/><rect width="6.6835332" height="23.203125" x="82.267654" y="6.2217231" rx="0" ry="0" style="fill:#111;fill-opacity:1;stroke:none;stroke-width:2.90553;stroke-linecap:square;stroke-dasharray:none;stroke-opacity:1"/><rect width="6.6835332" height="23.203125" x="92.683014" y="6.2217231" rx="0" ry="0" style="fill:#111;fill-opacity:1;stroke:none;stroke-width:2.90553;stroke-linecap:square;stroke-dasharray:none;stroke-opacity:1"/></g></g><g style="stroke-width:2.8829" transform="matrix(.3708273 0 0 .32446459 -188.70238 198.19768)"><rect width="71.985046" height="22.80867" x="36.104546" y="6.6161785" rx="9.6252575" ry="13.235841" style="display:inline;fill:url(#s);fill-opacity:1;stroke:none;stroke-width:2.8829;stroke-linecap:square;stroke-dasharray:none;stroke-opacity:1"/><g style="stroke-width:2.90555" transform="matrix(1 0 0 .98446849 -.81297873 .45701236)"><rect width="6.6835332" height="23.203125" x="49.664284" y="6.2217231" rx="0" ry="0" style="fill:#111;fill-opacity:1;stroke:none;stroke-width:2.90553;stroke-linecap:square;stroke-dasharray:none;stroke-opacity:1"/><rect width="6.6835332" height="23.203125" x="71.852303" y="6.2217231" rx="0" ry="0" style="fill:#f33030;fill-opacity:1;stroke:none;stroke-width:2.90553;stroke-linecap:square;stroke-dasharray:none;stroke-opacity:1"/><rect width="6.6835332" height="23.203125" x="82.267654" y="6.2217231" rx="0" ry="0" style="fill:#994a1b;fill-opacity:1;stroke:none;stroke-width:2.90553;stroke-linecap:square;stroke-dasharray:none;stroke-opacity:1"/><rect width="6.6835332" height="23.203125" x="92.683014" y="6.2217231" rx="0" ry="0" style="fill:#111;fill-opacity:1;stroke:none;stroke-width:2.90553;stroke-linecap:square;stroke-dasharray:none;stroke-opacity:1"/></g></g><path d="M-134.86915-19.485863c-5.90464-14.22458-26.80362-19.545936-25.39907-.254988l2.39464-2.766582m-24.38372 87.334732c2.68536-2.057082 8.03111-4.190224 12.18232-4.431337l-2.05615-.384111" style="fill:none;fill-opacity:1;stroke:#111;stroke-width:.600001;stroke-linecap:round;stroke-dasharray:none;stroke-opacity:1"/></g></svg>