<?xml version="1.0" encoding="UTF-8" standalone="no"?>
<svg
   width="401.2952mm"
   height="72.162743mm"
   viewBox="0 0 401.29519 72.162745"
   version="1.1"
   id="svg5"
   sodipodi:docname="toem-h2-5.svg"
   inkscape:version="1.4 (86a8ad7, 2024-10-11)"
   xml:space="preserve"
   xmlns:inkscape="http://www.inkscape.org/namespaces/inkscape"
   xmlns:sodipodi="http://sodipodi.sourceforge.net/DTD/sodipodi-0.dtd"
   xmlns:xlink="http://www.w3.org/1999/xlink"
   xmlns="http://www.w3.org/2000/svg"
   xmlns:svg="http://www.w3.org/2000/svg"><sodipodi:namedview
     id="namedview5"
     pagecolor="#1a0b00"
     bordercolor="#000000"
     borderopacity="0.25"
     inkscape:showpageshadow="2"
     inkscape:pageopacity="0.0"
     inkscape:pagecheckerboard="0"
     inkscape:deskcolor="#d1d1d1"
     inkscape:document-units="mm"
     inkscape:zoom="0.5"
     inkscape:cx="740"
     inkscape:cy="-90"
     inkscape:current-layer="layer3"
     showgrid="false" /><defs
     id="defs2"><linearGradient
       id="linearGradient63"
       inkscape:collect="always"><stop
         style="stop-color:#efe3e0;stop-opacity:0.37;"
         offset="0"
         id="stop63" /><stop
         style="stop-color:#efe3e0;stop-opacity:0.07;"
         offset="1"
         id="stop64" /></linearGradient><linearGradient
       id="a"><stop
         offset="0"
         style="stop-color:#fff;stop-opacity:.24685138"
         id="stop1" /><stop
         offset="1"
         style="stop-color:#fff;stop-opacity:0"
         id="stop2" /></linearGradient><linearGradient
       xlink:href="#a"
       id="b"
       x1="131.21992"
       x2="131.21992"
       y1="39.617489"
       y2="98.236984"
       gradientTransform="translate(1.9145932 4.2397009)"
       gradientUnits="userSpaceOnUse" /><linearGradient
       xlink:href="#a"
       id="b-0"
       x1="131.21992"
       x2="131.21992"
       y1="39.617489"
       y2="98.236984"
       gradientTransform="translate(78.203318,1.0237197)"
       gradientUnits="userSpaceOnUse" /><linearGradient
       xlink:href="#linearGradient123"
       id="b-0-4"
       x1="131.21992"
       x2="131.21992"
       y1="39.617489"
       y2="98.236984"
       gradientTransform="translate(80.472981,-29.510046)"
       gradientUnits="userSpaceOnUse" /><linearGradient
       id="linearGradient123"><stop
         offset="0"
         style="stop-color:#ffffff;stop-opacity:0.18000001;"
         id="stop122" /><stop
         offset="1"
         style="stop-color:#fff;stop-opacity:0"
         id="stop123" /></linearGradient><linearGradient
       xlink:href="#a-0"
       id="d"
       x1="96.209137"
       x2="97.910507"
       y1="31.542"
       y2="91.952187"
       gradientTransform="translate(80.472983,-29.510047)"
       gradientUnits="userSpaceOnUse" /><linearGradient
       id="a-0"><stop
         offset="0"
         style="stop-color:#fff;stop-opacity:.28999999"
         id="stop3" /><stop
         offset="1"
         style="stop-color:#fff;stop-opacity:.06801008"
         id="stop4" /></linearGradient><linearGradient
       inkscape:collect="always"
       xlink:href="#linearGradient63"
       id="linearGradient64"
       x1="168.24846"
       y1="5.8170276"
       x2="169.27357"
       y2="64.554527"
       gradientUnits="userSpaceOnUse" /></defs><g
     inkscape:groupmode="layer"
     id="layer1"
     inkscape:label="Layer 3"
     transform="translate(2.1166727,-30.956249)"
     sodipodi:insensitive="true"><path
       d="m 12.139338,79.746474 c 2.911315,-6.81575 7.210558,-12.22422 10.111939,-19.047891 3.115677,-8.742346 2.601442,-17.733437 -3.501739,-26.570288 -1.026992,-1.210502 -9.37362,-6.705041 -16.358588,0.391097 -7.386436,8.38556 -5.176506,28.963599 2.862716,28.249524 6.517434,0.428252 10.006186,-5.073928 10.006964,-11.141531 0.450902,-7.062221 -8.207975,-8.414121 -9.954687,-4.035553 -1.38071,5.141783 1.05134,5.51665 3.194425,2.581213 -0.594543,-1.884283 3.243096,-3.94606 3.266575,1.437505 0.192724,4.125645 -2.092333,7.489736 -4.498532,9.376161 C -2.431068,61.071561 0.563751,40.78225 6.012954,34.706985 13.498138,28.868802 19.825592,39.97411 20.480537,46.919449 21.480006,65.967119 10.15479,69.012708 6.41886,85.160376 5.526271,88.881206 7.327724,91.194318 4.8078,97.3777 16.896353,93.471058 4.75434,90.873562 12.139338,79.746474 Z"
       style="fill:#ede0dc;fill-opacity:1;stroke-width:0.2;stroke-linecap:round;stroke-linejoin:round"
       id="path3" /><path
       d="m 11.527368,31.436344 c 34.619789,6.572411 66.437089,1.622228 101.448422,5.760914 33.21826,-0.513588 105.56822,-2.629388 111.32897,-2.631164 30.87207,-0.0095 56.72588,4.455745 77.7313,5.817536 8.16762,1.009522 38.91286,0.408472 36.66551,0.417466 16.9701,0.667818 27.29944,0.483142 41.79251,-4.03467 -0.74347,-2.724925 -16.25948,1.939482 -18.74665,2.173975 -5.51481,0.51994 -18.93087,-0.424075 -28.87586,0.0081 -45.94152,-0.932598 -82.22194,-10.796744 -141.81076,-5.071168 -29.67255,-0.58207 -27.9126,0.943994 -36.69402,0.705514 C 109.16785,35.08779 84.776721,32.417783 24.605074,32.624976 20.177676,31.52563 16.036852,30.239437 11.527368,31.436344 Z"
       style="fill:#ede0dc;fill-opacity:1;stroke-width:0.2;stroke-linecap:round;stroke-linejoin:round"
       id="path4" /><path
       d="m 393.70357,103.11899 c -1.54895,-7.57828 -1.23051,-15.7666 -3.80082,-22.97693 -2.84472,-6.84938 -9.11455,-9.97974 -11.34466,-17.386126 -2.6608,-9.619962 -4.14341,-25.527702 8.17137,-28.690039 11.92343,2.875716 9.57188,12.200073 8.36174,16.711413 -1.9106,10.221564 -9.70015,4.625827 -7.62066,-3.605989 6.86869,-2.077234 -1.97667,-8.475889 -3.36129,-0.942798 -1.32985,2.743145 -0.86661,6.587216 0.41444,9.22749 2.61849,6.375051 10.40834,5.092822 12.04305,0.330037 2.39406,-3.988852 4.97938,-15.067601 -1.35347,-21.59495 -4.24275,-2.902486 -12.02377,-3.155708 -16.64669,0.759517 -8.36312,6.903651 -4.94588,22.87426 -4.50674,24.761934 2.20683,12.35408 11.32159,13.970087 13.26818,24.364161 1.9439,5.773049 -3.57644,17.07889 6.37555,19.04224 z"
       style="fill:#ede0dc;fill-opacity:1;stroke-width:0.2;stroke-linecap:round;stroke-linejoin:round"
       id="path5" /></g><g
     inkscape:groupmode="layer"
     id="layer2"
     inkscape:label="Layer 2"
     transform="translate(-0.15299028,-0.42248501)"><path
       d="m 8.2724077,65.787756 387.3882423,6.29594 c -5.51155,-36.487797 -10.1444,-22.26044 -17.98828,-45.262187 4.02493,-0.166513 9.76915,0.895033 15.42697,1.894869 5.98301,1.578636 17.34352,-37.8732187 -13.48517,-23.2047487 C 345.23511,14.537139 292.508,5.2438783 250.65127,1.9434863 164.81259,5.9530133 88.067366,4.5738303 15.153827,0.92401632 -0.76555837,1.7865513 -0.13089837,18.763579 3.7132326,29.488284 4.9896696,34.210775 11.725242,30.009412 22.069085,30.718211 12.4674,48.472916 11.350865,47.254786 8.2724077,65.787756 Z"
       style="display:inline;fill:url(#b-0-4);fill-opacity:1;stroke:none;stroke-width:0.2;stroke-linecap:round;stroke-linejoin:round;stroke-opacity:0.367758"
       id="path1"
       inkscape:label="bg"
       sodipodi:insensitive="true" /></g><g
     inkscape:groupmode="layer"
     id="layer3"
     inkscape:label="object"><path
       id="path30"
       style="display:none;fill:#ede0dc;fill-opacity:1;stroke-width:0.999998;stroke-linecap:round;stroke-linejoin:round"
       d="m 65.148113,56.516099 c -0.472191,2.93e-4 -1.02304,0.963228 -1.086239,1.583882 -0.100623,0.988182 -0.03211,2.258307 0.04496,2.649968 0.151347,0.769212 1.574822,0.713591 1.401982,-0.158647 -0.04847,-0.935488 0.0083,-2.326721 0.198954,-3.05201 0.118526,-0.450993 -0.03208,-1.023521 -0.559655,-1.023193 z m -6.612,1.455725 c -0.318735,0.01097 -0.547144,0.46656 -0.432532,1.083138 0.181528,0.976563 0.696515,2.147897 0.895553,2.493905 0.390896,0.679554 1.720299,0.168664 1.275891,-0.601514 L 59.142278,58.42761 c -0.18807,-0.325916 -0.414923,-0.462382 -0.606165,-0.455786 z m 13.716475,0.29869 c -0.01448,0.001 -0.02768,0.0036 -0.03927,0.0072 -0.157705,0.04901 -0.482151,0.136469 -0.658874,0.38654 -0.505533,0.715353 -1.011196,1.06152 -1.449007,1.943034 -0.522801,1.052618 0.734128,1.616167 1.321883,0.598413 l 1.302763,-2.255159 c 0.24686,-0.427462 -0.260229,-0.69576 -0.477491,-0.680062 z"
       inkscape:label="Grass"
       sodipodi:nodetypes="sssccscsscccccssccc"
       transform="translate(-0.15299028,-0.422485)"
       sodipodi:insensitive="true" /><path
       id="path20"
       style="display:none;opacity:1;fill:#ede0dc;fill-opacity:1;stroke:none;stroke-width:0.999998;stroke-linecap:round;stroke-linejoin:round;stroke-opacity:1"
       inkscape:label="Tree"
       d="m 48.098873,7.6532796 c -0.557751,0.00525 -1.303341,0.8949219 -2.002462,1.9363159 -0.355567,0.369385 -0.895082,3.5417265 -1.437121,5.2374065 -0.652119,1.05272 -1.719189,1.109941 -2.578654,1.665015 -2.016206,1.789817 0.676051,3.051714 0.682645,3.708817 0.08349,0.742876 -0.310575,0.909505 -0.310575,0.909505 -2.089062,1.106978 -3.548008,2.753217 -5.313888,4.137216 -1.843168,1.696289 -1.759477,2.992113 -0.984436,3.345532 0.662099,0.30192 2.866875,-0.468113 2.488737,0.361218 0.05943,1.258362 -2.310002,2.183237 -3.612699,3.142444 -2.365531,1.741795 -2.466935,0.930683 -2.994649,3.948079 -0.458529,2.85569 3.057513,1.14582 6.540169,1.799374 l 3.773413,0.671793 c 0.04075,1.661999 0.03368,3.210601 0.08423,4.837948 0.0069,0.212317 -2.510435,3.810164 -2.501656,4.025594 -0.0681,0.619994 -0.789835,1.687799 2.430342,2.360579 l -5.17e-4,-0.01964 c -1.144248,-2.32709 -0.74881,-2.853699 0.07751,-2.947623 0.697536,-0.07929 0.928749,0.531777 1.024744,1.536857 0.04751,0.49735 0.763155,0.536052 0.81132,0.101286 0.01655,-0.467372 -0.234287,-1.179334 0.699182,-1.288294 0.675571,-0.07886 0.872981,1.200273 0.529683,2.44998 0,0 2.210931,-0.016 2.175578,-0.120923 -1.321923,-1.899903 -1.330843,-3.596869 -0.494027,-3.86023 0.961471,-0.30259 1.658854,1.002858 1.978174,3.399793 0.01492,0.112617 0.08318,0.233673 0.193787,0.199988 0.672557,-0.351875 0.852381,-0.604734 0.780831,-0.871782 -0.03365,-0.26453 -1.623445,-4.946344 -1.653646,-5.182629 -0.428239,-3.350323 -0.517041,-3.947521 -0.387573,-4.244702 1.31009,-1.117314 1.707367,-1.415271 3.061828,-1.18184 4.209139,0.591254 4.569639,1.649222 5.680274,0.120406 0.977627,-1.415549 1.115996,-1.971121 -1.154969,-3.867464 -1.22708,-1.024662 -2.334946,-2.492723 -2.999817,-3.641122 -0.223736,-0.386454 -0.186792,-1.029745 0.126091,-0.911055 1.723503,0.09609 2.796427,1.960045 4.121712,0.961181 0.82334,-0.620556 0.336,-2.524821 -1.744596,-3.888651 -2.085521,-1.367051 -4.193221,-3.807953 -5.264278,-5.358846 -0.294412,-0.40038 -0.812922,-1.084523 0.05323,-1.194759 l 2.09548,0.698148 c 1.195927,-0.411142 1.586781,-1.076464 0.859379,-2.094962 -3.209617,-3.769014 -3.212472,-5.167685 -4.082438,-9.7766645 -0.148943,-0.791355 -0.415697,-1.105932 -0.750342,-1.1027751 z m 4.490682,35.1523764 c -0.231395,0.0155 -0.480355,0.132457 -0.686263,0.391707 -0.62223,0.78345 -1.177365,1.436428 -1.677417,2.443262 -0.597124,1.202262 0.838672,1.846121 1.509985,0.683679 l 1.488281,-2.57607 c 0.29975,-0.519043 -0.125517,-0.97669 -0.634586,-0.942578 z M 37.460246,44.04434 c -0.364048,0.01253 -0.614914,0.477622 -0.359151,1.1467 0.409224,1.070531 0.503886,1.107553 0.731221,1.502751 0.446467,0.776162 1.673407,0.215111 1.16582,-0.664559 L 38.15271,44.564205 c -0.214807,-0.37225 -0.474034,-0.527399 -0.692464,-0.519865 z"
       sodipodi:nodetypes="cccccccscscccccccsscsccscccccccsscsscccccccscsccscscccc"
       sodipodi:insensitive="true" /><path
       d="m 110.76334,19.776909 c -0.0682,0.007 -0.126,0.0376 -0.16536,0.108 l -2.51251,4.51859 -2.79311,-3.23185 c -0.23015,-0.26604 -0.64676,-0.25357 -0.86041,0.0258 -3.75307,4.94408 -1.39665,13.22795 6.38979,13.46481 0.0578,2.93442 -0.0359,5.87177 0.003,8.8067 -1.44139,-2.30603 -4.14145,-7.169 -7.14324,-3.8101 -2.25595,2.92806 2.18788,7.40903 7.54115,7.13806 0.26326,-0.21947 0.5104,0.48096 0.91054,0.19689 7.67888,-1.43421 8.75652,-5.67671 7.2781,-7.63726 -1.37022,-1.81707 -4.93652,-1.67388 -7.47758,4.48086 v -9.19788 c 4.93298,-0.31707 9.43868,-3.79106 6.874,-12.77183 -0.10787,-0.37469 -0.55877,-0.52387 -0.86919,-0.28784 l -3.51452,2.66392 -2.87837,-4.39353 c 0,0.32573 -0.48703,-0.10269 -0.78239,-0.0734 z m 6.43114,19.75435 c 0.44231,0.0121 0.90306,0.18625 1.37976,0.57102 1.39243,1.79825 -1.61982,4.82048 -6.50968,5.73557 0.89296,-1.71376 2.74143,-6.37201 5.12992,-6.30659 z m -11.3435,0.19275 c 2.0722,-0.11854 4.14347,4.49102 5.06326,5.89318 -3.8048,0.30935 -8.13159,-3.26346 -6.20737,-5.29063 0.37649,-0.39664 0.76037,-0.5806 1.14411,-0.60255 z"
       style="display:none;fill:#ede0dc;fill-opacity:1;stroke:none;stroke-width:0.199999;stroke-linecap:round;stroke-linejoin:round;stroke-opacity:0.367758"
       id="path10-9"
       sodipodi:nodetypes="scccccccccsccccccssccsscss"
       transform="translate(-0.15299028,-0.422485)"
       sodipodi:insensitive="true"
       inkscape:label="flower" /><path
       id="path12"
       style="display:none;fill:#efe4e0;fill-opacity:1;stroke:none;stroke-width:1.3;stroke-linecap:round;stroke-linejoin:round;stroke-dasharray:none;stroke-opacity:1"
       inkscape:label="ship"
       d="m 277.21974,28.486962 c -1.16127,-0.01836 -2.3121,-9.95e-4 -3.44269,0.06976 -3.21072,0.353964 -3.14866,1.437117 -3.29695,2.864941 -0.10765,1.03652 0.20396,2.564663 0.97255,2.702678 l 1.18959,0.05374 c -0.33018,3.024688 -0.34505,5.523152 -0.37879,8.053772 L 259.99392,41.63758 c -0.71743,0.0152 -1.0771,0.285991 -1.08107,0.810803 -0.12796,2.020937 -0.60533,3.847448 2.81068,7.837248 0.20828,0.221735 0.5632,0.418542 0.95188,0.427364 3.37884,0.07669 18.61936,0.7207 27.33476,0.37052 0.33404,-0.01342 0.63757,-0.181441 0.75551,-0.473873 0.2466,-1.729671 0.44335,-2.986451 0.30541,-4.71134 -0.0731,-0.913956 -0.084,-2.100284 -1.88929,-2.206584 l -1.70997,-0.152962 c 0.316,-3.013061 0.50256,-5.928248 0.41289,-9.144145 0.49626,0.0247 1.4141,0.06876 1.56115,-0.286804 0.15224,-0.36448 0.6259,-1.423198 0.43873,-2.578137 -0.21198,-1.308029 -0.67642,-2.273092 -2.21589,-2.378149 -3.38916,-0.231287 -6.96517,-0.609414 -10.44897,-0.664559 z m 3.13107,7.020243 c 1.3535,-0.0025 2.55683,1.508218 2.65876,3.062345 0.10499,1.600821 -1.68289,3.096449 -3.28714,3.096452 -1.60426,2e-6 -2.92098,-1.569594 -2.86649,-3.172933 0.0511,-1.502183 1.8107,-2.86492 3.3631,-2.980696 0.044,-0.0033 0.0881,-0.005 0.13177,-0.0052 z m 20.74861,15.450736 c -1.73844,0.029 -4.83493,0.630411 -7.51531,0.112138 -1.20625,-0.233629 -1.7545,1.649249 -0.54828,1.883089 3.37036,0.651688 6.4332,-0.110244 9.0072,-0.605131 0.96659,-0.04736 0.69881,-1.475254 -0.28732,-1.362707 -0.18777,-0.02416 -0.40795,-0.03154 -0.65629,-0.02739 z m -40.12985,0.322461 c -0.0694,0.0019 -0.14121,0.01238 -0.21549,0.03204 -3.26645,0.566295 -9.69605,-0.04953 -9.69605,-0.03152 -1.23031,-0.0025 -1.27007,1.727446 -0.0398,1.727027 3.1276,0.0034 6.36098,1.436724 10.33063,0.390157 1.11447,-0.294011 0.66104,-2.146544 -0.3793,-2.117701 z m 5.58002,1.777153 c -0.474,0.02533 -0.47414,0.729853 -0.12816,0.921391 0.23813,0.237911 4.93365,1.779929 6.34483,1.987992 5.41658,0.67893 14.73402,1.108422 15.57425,0.993738 1.78832,0.12965 1.69626,-1.538309 1.70118,-2.752287 -0.0489,-0.608564 -0.43301,-0.70058 -0.68781,-0.764294 -5.12157,-0.09836 -10.24338,0.202319 -15.36495,0.305924 l -7.33806,-0.68833 c -0.0358,-0.0048 -0.0697,-0.0055 -0.10128,-0.0041 z"
       sodipodi:nodetypes="ccsccccccssccccccsscssscccscccsccccscccccccccccccc"
       sodipodi:insensitive="true" /><path
       id="path23"
       style="fill:url(#linearGradient64);fill-opacity:1;stroke:none;stroke-width:1;stroke-linecap:round;stroke-linejoin:round;stroke-dasharray:none;stroke-opacity:1"
       d="M 122.30468 3.6163167 C 122.23228 3.6138067 122.15928 3.6149908 122.08609 3.6204508 C 120.53811 3.5600728 115.2409 4.407713 110.14366 3.9113892 C 108.84583 3.8258622 108.03885 5.1428994 108.14844 6.321578 C 108.06544 10.188436 107.98236 14.055045 107.89936 17.921903 C 106.22574 18.342819 104.49071 18.435552 102.77254 18.347717 C 102.66971 18.368487 102.58255 18.396199 102.50434 18.427299 L 102.73533 15.2585 C 102.35755 13.829452 101.80051 11.53685 101.33232 11.517126 L 83.184587 12.358936 C 81.958379 12.66403 81.988647 13.408665 81.875106 13.949019 L 81.688037 49.028015 C 81.671977 49.481399 82.813678 50.507321 83.371655 50.431547 C 83.835124 50.368607 100.93286 49.236582 100.30344 48.653878 L 102.42269 19.554879 C 102.69176 19.770027 103.07594 19.89202 103.44175 19.768819 C 105.22218 19.831229 106.9982 19.60368 108.72721 19.187976 C 109.55478 18.860827 109.22158 17.898635 109.31426 17.209802 C 109.41136 13.429478 109.44678 9.6452353 109.58298 5.8673421 C 109.91968 4.7387196 111.31822 5.6448188 112.26498 5.4477295 C 115.52648 5.5786435 118.77596 5.1832857 122.02666 5.0224325 C 123.45196 5.0305025 122.66135 6.9882634 122.81421 7.9173462 C 122.9891 14.75788 120.94627 21.846668 122.12588 28.665951 C 119.33928 28.442223 116.84044 28.111961 115.46944 28.367261 C 114.39705 28.567446 113.62037 29.805878 113.65921 31.009993 L 113.7822 36.344035 L 110.33693 36.347652 C 109.3812 36.339552 108.73804 37.133219 108.65332 38.209037 C 108.74542 40.88418 108.84037 43.559796 108.93444 46.234904 C 108.96554 47.150385 110.36562 47.101205 110.3328 46.185811 L 110.05375 38.213171 C 110.03845 37.896782 110.11945 37.845543 110.29198 37.746533 C 111.69418 37.749733 113.09665 37.745847 114.49895 37.744466 C 114.89188 37.744101 115.20753 37.420534 115.19814 37.027714 L 115.05758 30.971236 C 115.05759 30.968636 115.05759 30.966085 115.05758 30.963485 C 115.03618 30.299675 115.50127 29.784566 115.7273 29.742371 C 117.6075 29.392248 124.65061 30.767173 129.19832 30.064832 C 129.5419 30.012052 129.79472 29.715314 129.79208 29.367716 L 129.74505 24.254333 L 129.74505 24.244515 C 130.94405 23.97066 133.15691 24.223363 134.64915 24.271903 C 134.82099 25.455897 134.61503 27.456398 134.56543 28.879374 C 134.55013 29.281417 134.87579 29.613604 135.27805 29.605945 L 141.31334 29.502075 C 141.56871 29.479385 141.64996 29.654873 141.74329 30.658594 C 141.74352 30.672934 141.74386 30.687185 141.74535 30.701485 C 142.18539 35.710355 142.10087 41.693943 143.14578 45.912443 C 143.36744 46.799633 144.72495 46.462159 144.50539 45.574479 C 143.54387 41.69266 143.58782 35.729193 143.14217 30.621387 C 143.07737 28.126192 141.62293 28.077528 141.35106 28.090275 L 135.99377 28.191561 L 136.13433 24.394893 C 136.1352 24.385093 136.13588 24.375218 136.13588 24.365438 C 136.12888 23.51611 135.60881 23.007302 134.80779 22.881291 C 133.19026 22.817101 131.5718 22.765588 129.95382 22.714893 C 128.98923 22.707493 128.4164 23.282946 128.34669 24.209375 C 128.35469 25.709881 128.37165 27.210835 128.38545 28.711426 C 126.8384 28.883588 125.20407 28.856073 123.61209 28.765169 C 122.64519 14.420716 124.06263 21.039495 124.2689 5.6978434 C 124.3529 4.567805 123.39023 3.6540409 122.30468 3.6163167 z M 118.23723 9.5172485 C 117.67853 9.5380585 117.11643 9.883327 116.95203 10.593669 C 116.80727 11.424032 116.87791 12.79537 117.00681 13.805876 C 117.12758 14.576398 119.51229 14.894483 119.37669 13.683403 C 119.46019 11.841952 119.61456 11.547298 119.54051 10.637077 C 119.49971 9.8867862 118.87042 9.4936685 118.23723 9.5172485 z M 113.62201 9.5632406 C 113.00197 9.5671406 112.36316 9.9065808 112.35748 10.730094 C 112.22329 12.133962 112.29687 13.089296 112.44017 13.97124 C 113.01879 14.995063 114.78766 14.591602 114.97024 13.838949 C 115.02464 13.784879 114.94025 11.814333 114.77181 10.234001 C 114.70161 9.8174901 114.1691 9.5597676 113.62201 9.5632406 z M 98.267387 14.999084 C 98.745904 14.991984 99.198496 15.256945 99.277144 15.736507 C 99.485563 16.185846 99.385398 18.49905 99.300399 18.908407 C 99.057647 20.077592 96.91906 19.563459 96.96204 18.796269 C 96.95404 17.276091 96.985699 16.158324 97.102083 15.89412 C 97.284268 15.285401 97.78887 15.006163 98.267387 14.999084 z M 90.027063 15.083317 C 90.506779 15.083296 90.972652 15.325734 91.157743 15.856396 C 91.157743 15.850496 91.295779 18.635055 91.256962 18.799886 C 90.842216 20.560963 89.127919 19.89486 88.644202 18.700667 C 88.573372 18.295462 88.532842 16.758144 88.677275 16.187126 C 88.770775 15.48406 89.410285 15.083343 90.027063 15.083317 z M 85.988033 15.084867 C 86.481694 15.083567 86.904511 15.435291 87.023629 15.790251 C 87.173124 17.016868 87.126152 17.973063 86.891337 19.064469 C 86.578801 19.697706 85.395889 20.412803 84.642379 19.097542 C 84.531394 18.459899 84.417332 17.037635 84.675452 16.154053 C 85.061742 15.362048 85.55245 15.086038 85.988033 15.084867 z M 94.196318 15.193388 C 94.507532 15.186688 94.827122 15.367342 95.084119 15.818156 C 95.256911 15.852286 95.437401 18.251372 95.042778 18.813322 C 94.433827 19.680475 93.25525 19.278707 93.0429 18.565792 C 92.95317 17.736254 92.926865 16.827045 93.109045 16.168005 C 93.304666 15.613742 93.741468 15.203192 94.196318 15.193388 z M 279.10183 15.61145 C 278.60816 15.62984 278.11125 15.934626 277.96598 16.562297 C 277.83801 17.296021 277.90065 18.507981 278.01455 19.400883 C 278.1213 20.08173 280.22831 20.362491 280.10848 19.292362 C 280.18228 17.665222 280.31862 17.405342 280.25318 16.601054 C 280.21718 15.938083 279.66134 15.590615 279.10183 15.61145 z M 275.02352 15.651758 C 274.47564 15.655258 273.9113 15.955547 273.90628 16.683219 C 273.7877 17.923703 273.85254 18.767824 273.97914 19.547127 C 274.49042 20.451795 276.05334 20.094881 276.21466 19.429822 C 276.26276 19.382042 276.18833 17.640898 276.03948 16.244486 C 275.97748 15.876449 275.50694 15.648689 275.02352 15.651758 z M 246.13743 16.233118 C 246.06503 16.230618 245.99203 16.231852 245.91884 16.237252 C 244.37086 16.176872 239.07366 17.024514 233.97642 16.52819 C 232.67859 16.44266 231.8716 17.7597 231.98119 18.938379 C 231.89819 22.805237 231.81511 26.671846 231.73211 30.538704 C 230.05849 30.95962 228.32346 31.052353 226.60529 30.964518 C 226.50246 30.985288 226.4153 31.013 226.33709 31.0441 L 226.56808 27.875301 C 226.1903 26.446253 225.63326 24.153651 225.16507 24.133927 L 207.01734 24.975736 C 205.79113 25.28083 205.8214 26.025466 205.70786 26.56582 L 205.52079 61.644816 C 205.50469 62.0982 206.64643 63.124122 207.20441 63.048348 C 207.66788 62.985408 224.76561 61.853383 224.13619 61.270679 L 226.25544 32.17168 C 226.52451 32.386828 226.90869 32.508821 227.2745 32.38562 C 229.05493 32.44803 230.83096 32.220481 232.55997 31.804777 C 233.38754 31.477628 233.05433 30.515436 233.14701 29.826603 C 233.24411 26.046279 233.27953 22.262036 233.41573 18.484143 C 233.75243 17.355521 235.15097 18.261619 236.09773 18.06453 C 239.35923 18.195444 242.60871 17.800087 245.85941 17.639233 C 247.28471 17.647333 246.4941 19.605064 246.64696 20.534147 C 246.82185 27.374681 244.77902 34.463468 245.95863 41.282751 C 243.17203 41.059023 240.67319 40.728762 239.30219 40.984062 C 238.2298 41.184247 237.45312 42.422679 237.49196 43.626794 L 237.61495 48.960836 L 234.16969 48.964453 C 233.21396 48.956353 232.57079 49.75002 232.48607 50.825838 C 232.57817 53.500981 232.67312 56.176597 232.76719 58.851705 C 232.79829 59.767186 234.19837 59.718006 234.16555 58.802612 L 233.8865 50.829972 C 233.8712 50.513583 233.9522 50.462344 234.12473 50.363334 C 235.52693 50.366534 236.92941 50.362648 238.33171 50.361267 C 238.72464 50.360902 239.04028 50.037335 239.03089 49.644515 L 238.89033 43.588037 C 238.89034 43.585437 238.89034 43.582886 238.89033 43.580286 C 238.86893 42.916476 239.33402 42.401367 239.56005 42.359172 C 241.44025 42.009049 248.48336 43.383973 253.03107 42.681632 C 253.37465 42.628852 253.62747 42.332115 253.62483 41.984517 L 253.5778 36.871134 L 253.5778 36.861316 C 254.7768 36.587461 256.98966 36.840164 258.4819 36.888704 C 258.65374 38.072698 258.44778 40.073199 258.39818 41.496175 C 258.38288 41.898218 258.70854 42.230405 259.1108 42.222746 L 265.14609 42.118876 C 265.40146 42.096186 265.48271 42.271674 265.57604 43.275395 C 265.57627 43.289735 265.57661 43.303986 265.5781 43.318286 C 266.01814 48.327156 265.93363 54.310744 266.97854 58.529244 C 267.2002 59.416434 268.5577 59.07896 268.33814 58.19128 C 267.37662 54.309461 267.42057 48.345994 266.97492 43.238188 C 266.91012 40.742993 265.45568 40.694329 265.18381 40.707076 L 259.82652 40.808362 L 259.96708 37.011694 C 259.96795 37.001894 259.96914 36.992019 259.96914 36.982239 C 259.96214 36.132911 259.44208 35.624103 258.64106 35.498092 C 257.02353 35.433902 255.40507 35.382389 253.78709 35.331694 C 252.8225 35.324294 252.24967 35.899747 252.17996 36.826176 C 252.18796 38.326682 252.2044 39.827636 252.2182 41.328227 C 250.67115 41.500389 249.03682 41.472874 247.44484 41.38197 C 246.47794 27.037517 247.89538 33.656296 248.10165 18.314644 C 248.18565 17.184606 247.22298 16.270842 246.13743 16.233118 z M 194.45635 17.21652 C 194.04363 17.22759 193.62849 17.411215 193.50705 17.789095 C 193.40006 18.230822 193.45226 18.959959 193.54736 19.497518 C 193.63656 19.90741 195.39834 20.076661 195.29816 19.432406 C 195.35986 18.452812 195.47378 18.29604 195.41908 17.811833 C 195.38898 17.4127 194.92411 17.203977 194.45635 17.21652 z M 191.04674 17.240808 C 190.5887 17.242908 190.11714 17.423359 190.11294 17.861442 C 190.01384 18.608257 190.06812 19.116718 190.17392 19.585885 C 190.60135 20.130526 191.90819 19.91548 192.04306 19.515088 C 192.08326 19.486328 192.0208 18.438063 191.8963 17.597375 C 191.8445 17.375805 191.45089 17.238961 191.04674 17.240808 z M 89.966085 20.919137 C 90.444601 20.912037 90.897194 21.176997 90.975842 21.656559 C 91.184261 22.105898 91.084096 24.419102 90.999097 24.828459 C 90.756345 25.997644 88.617758 25.483511 88.660738 24.716321 C 88.652738 23.196143 88.684397 22.078376 88.800781 21.814172 C 88.982966 21.205453 89.487568 20.926216 89.966085 20.919137 z M 98.291158 20.938774 C 98.784819 20.937474 99.207636 21.289197 99.326754 21.644157 C 99.476249 22.870774 99.429277 23.82697 99.194462 24.918376 C 98.881926 25.551613 97.699014 26.26671 96.945504 24.951449 C 96.834519 24.313806 96.720457 22.891541 96.978577 22.007959 C 97.364867 21.215954 97.855575 20.939946 98.291158 20.938774 z M 94.153426 21.051945 C 94.559741 21.059645 94.94853 21.297059 95.076884 21.743376 C 95.135854 22.630105 95.20395 23.709188 94.928056 24.918376 C 94.751667 25.305315 93.450799 25.737534 93.109045 24.819157 C 92.963125 24.033644 92.894143 22.882173 93.059436 21.941813 C 93.210009 21.329482 93.692935 21.043192 94.153426 21.051945 z M 157.18472 21.179586 C 156.80088 21.193886 156.41504 21.431048 156.30209 21.919076 C 156.20259 22.489563 156.25079 23.431925 156.33929 24.126176 C 156.42229 24.65555 158.06079 24.873992 157.96762 24.041943 C 158.02502 22.776805 158.13115 22.5744 158.08027 21.949048 C 158.05227 21.433573 157.61975 21.163386 157.18472 21.179586 z M 164.32847 21.179586 C 163.94463 21.193886 163.55879 21.431048 163.44584 21.919076 C 163.34634 22.489563 163.39454 23.431925 163.48304 24.126176 C 163.56604 24.65555 165.20454 24.873992 165.11137 24.041943 C 165.16877 22.776805 165.2749 22.5744 165.22402 21.949048 C 165.19602 21.433573 164.7635 21.163386 164.32847 21.179586 z M 154.01385 21.211108 C 153.58786 21.213808 153.14907 21.447346 153.14517 22.013127 C 153.05297 22.977631 153.10362 23.633939 153.20202 24.239864 C 153.59955 24.943264 154.81498 24.666012 154.94041 24.148914 C 154.97781 24.111764 154.91973 22.757803 154.80399 21.672062 C 154.75579 21.385905 154.38972 21.208722 154.01385 21.211108 z M 161.1576 21.211108 C 160.73161 21.213808 160.29282 21.447346 160.28892 22.013127 C 160.19672 22.977631 160.24737 23.633939 160.34577 24.239864 C 160.7433 24.943264 161.95873 24.666012 162.08416 24.148914 C 162.12156 24.111764 162.06348 22.757803 161.94774 21.672062 C 161.89954 21.385905 161.53347 21.208722 161.1576 21.211108 z M 86.027307 21.278805 C 86.338521 21.272105 86.658112 21.452758 86.915108 21.903573 C 87.0879 21.937703 87.26839 24.336789 86.873767 24.898739 C 86.264816 25.765892 85.086239 25.364123 84.873889 24.651208 C 84.784159 23.82167 84.757855 22.912462 84.940035 22.253422 C 85.135656 21.699159 85.572456 21.288609 86.027307 21.278805 z M 194.65737 21.99659 C 194.24465 22.00766 193.82951 22.191285 193.70807 22.569165 C 193.60108 23.010892 193.65328 23.740546 193.74838 24.278105 C 193.83758 24.687997 195.59936 24.857247 195.49918 24.212992 C 195.56088 23.233398 195.6748 23.076626 195.6201 22.592419 C 195.59 22.193286 195.12513 21.984047 194.65737 21.99659 z M 191.24827 22.021395 C 190.79023 22.023495 190.31816 22.203946 190.31396 22.642029 C 190.21486 23.388844 190.26914 23.896788 190.37494 24.365955 C 190.80237 24.910596 192.10921 24.696067 192.24408 24.295675 C 192.28428 24.266915 192.22182 23.21865 192.09732 22.377962 C 192.04552 22.156392 191.65242 22.019548 191.24827 22.021395 z M 242.06998 22.134049 C 241.51128 22.154859 240.94919 22.500128 240.78479 23.21047 C 240.64003 24.040833 240.71066 25.412171 240.83956 26.422677 C 240.96033 27.193199 243.34504 27.511283 243.20944 26.300203 C 243.29294 24.458752 243.44731 24.164099 243.37326 23.253878 C 243.33246 22.503587 242.70317 22.110469 242.06998 22.134049 z M 237.45476 22.180042 C 236.83472 22.183942 236.19591 22.523381 236.19023 23.346895 C 236.05604 24.750763 236.12962 25.706097 236.27292 26.588041 C 236.85154 27.611864 238.62041 27.208403 238.80299 26.45575 C 238.85739 26.40168 238.773 24.431134 238.60456 22.850802 C 238.53436 22.434291 238.00185 22.176569 237.45476 22.180042 z M 279.26667 24.538554 C 278.773 24.556944 278.27661 24.861729 278.13134 25.4894 C 278.00337 26.223124 278.06602 27.435085 278.17992 28.327987 C 278.28667 29.008834 280.39368 29.289595 280.27385 28.219466 C 280.34765 26.592326 280.48398 26.331929 280.41854 25.527641 C 280.38254 24.86467 279.82618 24.517719 279.26667 24.538554 z M 275.18889 24.578861 C 274.64101 24.582361 274.07666 24.882134 274.07164 25.609806 C 273.95306 26.85029 274.01791 27.694411 274.14451 28.473714 C 274.65579 29.378382 276.21871 29.021984 276.38003 28.356925 C 276.42813 28.309145 276.3537 26.568002 276.20485 25.17159 C 276.14285 24.803553 275.67231 24.575792 275.18889 24.578861 z M 61.345093 26.762708 C 60.620787 26.778838 59.885723 27.100141 59.815987 27.767814 C 59.81597 29.115905 59.968675 31.728932 60.295544 31.939136 C 61.247155 32.91489 62.164413 32.212966 62.716069 31.812012 C 63.025222 30.570299 62.946327 28.404535 62.809603 27.58798 C 62.783133 27.035539 62.069398 26.746578 61.345093 26.762708 z M 66.04093 26.86296 C 65.415262 26.8516 64.785741 27.154476 64.773824 27.961601 C 64.606138 29.44553 64.742307 30.531814 64.808447 31.898828 C 65.041859 32.891842 67.319221 32.436422 67.321989 31.898828 C 67.333009 30.388498 67.276172 28.777968 67.284782 27.648442 C 67.288182 27.19978 66.666598 26.874321 66.04093 26.86296 z M 56.791882 27.008687 C 55.992143 27.005787 55.119157 27.549222 55.269495 28.382247 C 55.470658 28.997766 55.247164 31.385153 55.463281 32.204236 C 55.558811 32.92831 58.085796 32.650369 57.992326 32.113285 C 57.974176 32.008975 58.142101 28.536915 58.009379 28.127482 C 57.991739 27.343449 57.413902 27.010957 56.791882 27.008687 z M 89.923193 27.020056 C 90.415312 27.010656 90.919422 27.220968 91.186165 27.604517 C 91.396952 27.826997 91.237665 30.385671 91.186165 30.551107 C 90.830117 31.694915 88.516777 31.332126 88.625598 30.515967 C 88.527938 29.600663 88.551368 28.465527 88.660738 27.966768 C 88.823464 27.323398 89.365459 27.030715 89.923193 27.020056 z M 86.176652 27.04176 C 86.568885 27.05394 86.924582 27.259156 87.056702 27.762646 C 87.056171 28.372028 87.100851 29.230383 86.725972 30.474626 C 86.251927 31.285726 85.182569 31.356712 84.807743 30.40848 C 84.766723 29.611649 84.644192 28.896337 84.807743 27.894938 C 84.952182 27.418286 85.603388 27.023951 86.176652 27.04176 z M 94.328609 27.099638 C 94.639823 27.092938 94.959414 27.273592 95.21641 27.724406 C 95.389202 27.758536 95.569692 30.157622 95.175069 30.719572 C 94.566118 31.586725 93.387541 31.184957 93.175191 30.472042 C 93.085461 29.642504 93.059156 28.733295 93.241337 28.074255 C 93.436958 27.519992 93.873758 27.109442 94.328609 27.099638 z M 98.314412 27.207125 C 98.706646 27.219315 99.062342 27.424521 99.194462 27.928011 C 99.193931 28.537393 99.238612 29.395747 98.863733 30.63999 C 98.389688 31.45109 97.32033 31.522076 96.945504 30.573844 C 96.904484 29.777013 96.781953 29.061702 96.945504 28.060303 C 97.089943 27.583652 97.741148 27.189316 98.314412 27.207125 z M 222.10014 27.615885 C 222.57866 27.608785 223.03125 27.873746 223.1099 28.353308 C 223.31832 28.802647 223.2181 31.115851 223.13315 31.525208 C 222.8904 32.694393 220.75181 32.18026 220.79479 31.41307 C 220.78679 29.892892 220.81849 28.775125 220.93483 28.510921 C 221.11702 27.902202 221.62162 27.622964 222.10014 27.615885 z M 213.85981 27.700118 C 214.33952 27.700097 214.8054 27.942535 214.99049 28.473197 C 214.99049 28.467297 215.12854 31.251856 215.08971 31.416687 C 214.67496 33.177764 212.96066 32.511661 212.47695 31.317468 C 212.40615 30.912263 212.36556 29.374945 212.51003 28.803927 C 212.60353 28.100861 213.24304 27.700144 213.85981 27.700118 z M 209.82078 27.701668 C 210.31444 27.700368 210.73726 28.052092 210.85638 28.407052 C 211.00588 29.633669 210.95891 30.589864 210.72409 31.68127 C 210.41155 32.314507 209.22864 33.029604 208.47513 31.714343 C 208.36415 31.0767 208.25005 29.654436 208.5082 28.770854 C 208.89449 27.978849 209.3852 27.702839 209.82078 27.701668 z M 218.02907 27.810189 C 218.34028 27.803489 218.65987 27.984143 218.91687 28.434957 C 219.08966 28.469087 219.27011 30.868173 218.87553 31.430123 C 218.26658 32.297276 217.088 31.895508 216.87565 31.182593 C 216.78595 30.353055 216.75967 29.443846 216.9418 28.784806 C 217.13743 28.230543 217.57422 27.819993 218.02907 27.810189 z M 157.3134 28.120764 C 156.92956 28.135064 156.54319 28.372226 156.43024 28.860254 C 156.33074 29.430741 156.37947 30.372586 156.46797 31.066838 C 156.55097 31.596212 158.18946 31.815171 158.09629 30.983122 C 158.15369 29.717984 158.25983 29.51506 158.20895 28.889709 C 158.18095 28.374234 157.74843 28.104565 157.3134 28.120764 z M 164.45715 28.120764 C 164.07331 28.135064 163.68694 28.372226 163.57399 28.860254 C 163.47449 29.430741 163.52322 30.372586 163.61172 31.066838 C 163.69472 31.596212 165.33321 31.815171 165.24004 30.983122 C 165.29744 29.717984 165.40358 29.51506 165.3527 28.889709 C 165.3247 28.374234 164.89218 28.104565 164.45715 28.120764 z M 154.14253 28.152287 C 153.71654 28.154987 153.27775 28.388008 153.27385 28.953788 C 153.18165 29.918293 153.23229 30.574601 153.33069 31.180526 C 153.72822 31.883925 154.94314 31.606672 155.06857 31.089575 C 155.10597 31.052425 155.0484 29.698982 154.93266 28.613241 C 154.88446 28.327085 154.5184 28.149901 154.14253 28.152287 z M 161.28628 28.152287 C 160.86029 28.154987 160.4215 28.388008 160.4176 28.953788 C 160.3254 29.918293 160.37604 30.574601 160.47444 31.180526 C 160.87197 31.883925 162.08689 31.606672 162.21232 31.089575 C 162.24972 31.052425 162.19215 29.698982 162.07641 28.613241 C 162.02821 28.327085 161.66215 28.149901 161.28628 28.152287 z M 296.36796 29.461768 C 295.8024 29.474358 295.22868 29.724884 295.17423 30.246216 C 295.17422 31.298832 295.29366 33.339249 295.54889 33.503381 C 296.29192 34.265269 297.00795 33.717235 297.43869 33.404163 C 297.68008 32.434609 297.61835 30.743755 297.51156 30.106173 C 297.49086 29.674816 296.93351 29.449173 296.36796 29.461768 z M 300.03492 29.539799 C 299.54638 29.530899 299.05461 29.767409 299.04531 30.397628 C 298.91437 31.556308 299.02058 32.404467 299.07218 33.471859 C 299.25443 34.247223 301.0327 33.891622 301.03486 33.471859 C 301.04386 32.292563 300.99912 31.035154 301.00592 30.153198 C 301.00892 29.802874 300.52346 29.54867 300.03492 29.539799 z M 292.81313 29.653487 C 292.18868 29.651187 291.50667 30.075848 291.62406 30.72629 C 291.78113 31.2069 291.60676 33.071048 291.77547 33.710604 C 291.85007 34.275975 293.82301 34.05865 293.75003 33.63929 C 293.73583 33.55784 293.8671 30.847029 293.76346 30.527336 C 293.74966 29.915147 293.29881 29.65526 292.81313 29.653487 z M 127.95446 33.240865 C 126.87751 33.239565 125.75237 33.729448 126.04967 35.038688 L 126.31425 39.073584 C 126.99627 40.914478 129.80664 39.891273 129.81998 39.272021 C 130.06638 38.178305 129.73179 35.744244 129.68769 33.980355 C 129.60059 33.53993 128.79208 33.241838 127.95446 33.240865 z M 133.23735 33.263603 C 132.52853 33.275513 131.8621 33.672183 131.80436 34.774105 C 131.74196 36.470814 131.52148 38.647225 131.8705 39.602751 C 131.97498 40.013531 134.36708 40.518593 135.1778 39.338167 C 135.1116 37.70657 135.04551 36.441741 134.97936 34.443376 C 135.13021 33.868906 134.14869 33.248288 133.23735 33.263603 z M 213.79884 33.535937 C 214.27735 33.528837 214.72994 33.793798 214.80859 34.27336 C 215.01701 34.722699 214.9168 37.035903 214.83185 37.44526 C 214.58909 38.614445 212.45051 38.100312 212.49349 37.333122 C 212.48549 35.812944 212.51719 34.695177 212.63353 34.430973 C 212.81572 33.822254 213.32033 33.543016 213.79884 33.535937 z M 122.24732 33.554541 C 121.56275 33.578641 120.9238 34.02718 120.82415 35.303271 C 120.684 36.397072 120.64881 37.753386 120.758 39.470459 C 120.58781 39.924063 122.88957 41.29481 124.13144 39.536605 C 124.41985 38.340997 124.1085 36.345757 124.0653 34.707959 C 124.0831 34.194045 123.12749 33.523553 122.24732 33.554541 z M 222.12391 33.555575 C 222.61757 33.554275 223.04039 33.905998 223.15951 34.260958 C 223.309 35.487575 223.26202 36.443771 223.02721 37.535177 C 222.71467 38.168414 221.53177 38.883511 220.77826 37.56825 C 220.66727 36.930607 220.55318 35.508342 220.81133 34.62476 C 221.19762 33.832755 221.68832 33.556747 222.12391 33.555575 z M 217.98618 33.668746 C 218.39249 33.676446 218.78128 33.91386 218.90964 34.360177 C 218.96864 35.246906 219.0367 36.325989 218.76081 37.535177 C 218.58442 37.922116 217.28355 38.354335 216.9418 37.435958 C 216.79588 36.650445 216.72689 35.498974 216.89219 34.558614 C 217.04276 33.946283 217.52569 33.659993 217.98618 33.668746 z M 279.39793 33.727657 C 278.90426 33.746047 278.40787 34.050832 278.2626 34.678503 C 278.13463 35.412227 278.19676 36.624188 278.31066 37.51709 C 278.41741 38.197937 280.52442 38.478698 280.40459 37.408569 C 280.47839 35.781429 280.61524 35.521032 280.5498 34.716744 C 280.5138 34.053773 279.95744 33.706822 279.39793 33.727657 z M 275.32015 33.767965 C 274.77227 33.771465 274.2074 34.071754 274.20238 34.799426 C 274.0838 36.03991 274.14916 36.884031 274.27576 37.663334 C 274.78704 38.568002 276.34997 38.211088 276.51129 37.546029 C 276.55939 37.498249 276.48495 35.757105 276.3361 34.360693 C 276.2741 33.992656 275.80357 33.764896 275.32015 33.767965 z M 61.721297 33.77985 C 60.990275 33.80213 60.086277 34.442529 60.112093 35.059875 C 60.165613 36.442868 60.090285 38.787123 60.194775 39.28184 C 60.269275 40.083551 62.571201 39.798693 62.493343 39.203292 C 62.478223 39.087656 62.746423 35.263545 62.625635 34.807694 C 62.640675 34.038484 62.22147 33.764603 61.721297 33.77985 z M 65.8797 33.852197 C 65.286962 33.848697 64.700959 34.108596 64.626546 34.71416 C 64.433759 36.081091 64.468178 37.899682 64.626546 38.815202 C 64.664116 39.931636 66.951287 39.548247 66.925114 38.89375 C 66.912804 38.585993 67.459495 35.283428 67.173161 34.573083 C 67.071907 34.123013 66.472437 33.85572 65.8797 33.852197 z M 209.86006 33.895605 C 210.17127 33.888905 210.49087 34.069559 210.74786 34.520374 C 210.92065 34.554504 211.1011 36.95359 210.70652 37.51554 C 210.09757 38.382693 208.91899 37.980924 208.70664 37.268009 C 208.61694 36.438471 208.59066 35.529263 208.77279 34.870223 C 208.96841 34.31596 209.4052 33.905409 209.86006 33.895605 z M 56.78103 34.303333 C 56.056724 34.319183 55.321661 34.634877 55.251925 35.290869 C 55.251908 36.615375 55.404613 39.1828 55.731482 39.389327 C 56.683093 40.34801 57.60035 39.658209 58.152006 39.26427 C 58.461159 38.04428 58.382263 35.916405 58.24554 35.114136 C 58.21907 34.571359 57.505336 34.287486 56.78103 34.303333 z M 296.662 34.940503 C 296.09121 34.957903 295.38506 35.457889 295.40522 35.939925 C 295.44702 37.019793 295.38832 38.850597 295.46982 39.236882 C 295.52802 39.862874 297.32533 39.640284 297.26454 39.175387 C 297.25274 39.085097 297.46221 36.098976 297.3679 35.743038 C 297.3796 35.142424 297.05255 34.928598 296.662 34.940503 z M 299.90883 34.997347 C 299.446 34.994647 298.98869 35.197338 298.93059 35.670174 C 298.78006 36.737501 298.80693 38.157707 298.93059 38.872563 C 298.95989 39.744297 300.74574 39.444589 300.72531 38.933541 C 300.71531 38.693239 301.14215 36.114754 300.91858 35.560103 C 300.83948 35.20868 300.37165 35.000098 299.90883 34.997347 z M 157.4152 35.265548 C 157.03136 35.279848 156.645 35.517009 156.53205 36.005037 C 156.43255 36.575524 156.48127 37.517368 156.56977 38.211621 C 156.65277 38.740994 158.29127 38.959954 158.1981 38.127905 C 158.2555 36.862767 158.36163 36.659843 158.31075 36.034493 C 158.28275 35.519017 157.85023 35.249349 157.4152 35.265548 z M 164.55895 35.265548 C 164.17511 35.279848 163.78875 35.517009 163.6758 36.005037 C 163.5763 36.575524 163.62502 37.517368 163.71352 38.211621 C 163.79652 38.740994 165.43502 38.959954 165.34185 38.127905 C 165.39925 36.862767 165.50538 36.659843 165.4545 36.034493 C 165.4265 35.519017 164.99398 35.249349 164.55895 35.265548 z M 154.24433 35.29707 C 153.81834 35.29977 153.37955 35.532792 153.37565 36.098572 C 153.28345 37.063077 153.3341 37.719384 153.4325 38.325309 C 153.83003 39.028708 155.04546 38.751456 155.17089 38.234359 C 155.20829 38.197209 155.1502 36.843765 155.03446 35.758024 C 154.98626 35.471868 154.6202 35.294684 154.24433 35.29707 z M 161.38808 35.29707 C 160.96209 35.29977 160.5233 35.532792 160.5194 36.098572 C 160.4272 37.063077 160.47785 37.719384 160.57625 38.325309 C 160.97378 39.028708 162.18921 38.751456 162.31464 38.234359 C 162.35204 38.197209 162.29395 36.843765 162.17821 35.758024 C 162.13001 35.471868 161.76395 35.294684 161.38808 35.29707 z M 292.80435 35.349264 C 292.23879 35.361644 291.66507 35.608064 291.61062 36.120276 C 291.61061 37.154476 291.72953 39.159337 291.98476 39.320597 C 292.7278 40.069156 293.44435 39.530527 293.87509 39.222929 C 294.11648 38.270337 294.05474 36.608728 293.94795 35.9823 C 293.92725 35.558489 293.36991 35.33689 292.80435 35.349264 z M 213.75594 39.636857 C 214.24806 39.627457 214.75218 39.837769 215.01892 40.221318 C 215.22971 40.443798 215.07042 43.002472 215.01892 43.167908 C 214.66287 44.311716 212.34953 43.948927 212.45835 43.132768 C 212.36065 42.217464 212.38419 41.082328 212.49349 40.583569 C 212.65622 39.940199 213.1982 39.647516 213.75594 39.636857 z M 210.0094 39.658561 C 210.40163 39.670741 210.75734 39.875957 210.88945 40.379447 C 210.88892 40.988829 210.93364 41.847184 210.55872 43.091427 C 210.08467 43.902527 209.01531 43.973513 208.64049 43.025281 C 208.59949 42.22845 208.47694 41.513138 208.64049 40.511739 C 208.78493 40.035087 209.43613 39.640752 210.0094 39.658561 z M 218.16136 39.716439 C 218.47258 39.709739 218.79217 39.890393 219.04916 40.341207 C 219.22196 40.375337 219.40241 42.774423 219.00782 43.336373 C 218.39887 44.203526 217.22029 43.801758 217.00794 43.088843 C 216.91824 42.259305 216.89196 41.350096 217.07409 40.691056 C 217.26971 40.136793 217.70651 39.726243 218.16136 39.716439 z M 222.14716 39.823926 C 222.53939 39.836116 222.89508 40.041322 223.02721 40.544812 C 223.02667 41.154194 223.07141 42.012548 222.69648 43.256791 C 222.22243 44.067891 221.15308 44.138877 220.77826 43.190645 C 220.73726 42.393814 220.61471 41.678503 220.77826 40.677104 C 220.9227 40.200453 221.57389 39.806117 222.14716 39.823926 z M 186.07753 42.803072 C 185.35323 42.819202 184.61816 43.140506 184.54843 43.808179 C 184.54841 45.15627 184.70112 47.769296 185.02798 47.9795 C 185.9796 48.955254 186.89685 48.25333 187.44851 47.852376 C 187.75766 46.610663 187.67879 44.4449 187.54204 43.628345 C 187.51554 43.075904 186.80183 42.786942 186.07753 42.803072 z M 190.77337 42.903324 C 190.1477 42.891964 189.51818 43.19484 189.50626 44.001965 C 189.33858 45.485894 189.47479 46.572179 189.54089 47.939193 C 189.77431 48.932207 192.05166 48.476787 192.05443 47.939193 C 192.06543 46.428863 192.00862 44.818332 192.01722 43.688806 C 192.02022 43.240144 191.39904 42.914685 190.77337 42.903324 z M 181.52432 43.049052 C 180.72458 43.046152 179.8516 43.589586 180.00193 44.422611 C 180.2031 45.03813 179.97963 47.425517 180.19572 48.2446 C 180.29122 48.968674 182.81823 48.690734 182.72476 48.15365 C 182.70656 48.04934 182.87459 44.57728 182.74182 44.167847 C 182.72422 43.383814 182.14634 43.051322 181.52432 43.049052 z M 251.78722 45.857666 C 250.71027 45.856366 249.58512 46.346249 249.88242 47.655489 L 250.14701 51.690385 C 250.82903 53.531279 253.63939 52.508074 253.65273 51.888822 C 253.89913 50.795106 253.56454 48.361045 253.52044 46.597156 C 253.43334 46.156731 252.62484 45.858639 251.78722 45.857666 z M 257.0701 45.880404 C 256.36128 45.892314 255.69485 46.288984 255.63711 47.390906 C 255.57471 49.087615 255.35424 51.264026 255.70326 52.219552 C 255.80774 52.630332 258.19983 53.135394 259.01055 51.954968 C 258.94435 50.323371 258.87826 49.058542 258.81211 47.060177 C 258.96296 46.485707 257.98144 45.865089 257.0701 45.880404 z M 246.08007 46.171342 C 245.3955 46.195442 244.75655 46.643981 244.6569 47.920072 C 244.51675 49.013873 244.48157 50.370187 244.59076 52.08726 C 244.42057 52.540864 246.72232 53.911611 247.96419 52.153406 C 248.2526 50.957798 247.94125 48.962558 247.89805 47.32476 C 247.91585 46.810846 246.96024 46.140354 246.08007 46.171342 z M 33.946765 46.88551 C 33.290834 46.90995 32.630829 47.315542 32.437813 48.149516 C 32.267781 49.124402 32.351179 50.73448 32.502409 51.920862 C 32.644245 52.825491 35.443883 53.198545 35.284668 51.776685 C 35.382758 49.614734 35.563851 49.268802 35.476904 48.200159 C 35.429054 47.319281 34.690173 46.857826 33.946765 46.88551 z M 46.154806 46.88551 C 45.498875 46.90995 44.83887 47.315542 44.645854 48.149516 C 44.475822 49.124402 44.558702 50.73448 44.709932 51.920862 C 44.851768 52.825491 47.651407 53.198545 47.492192 51.776685 C 47.590282 49.614734 47.771375 49.268802 47.684428 48.200159 C 47.636578 47.319281 46.898214 46.857826 46.154806 46.88551 z M 28.528491 46.939771 C 27.800531 46.944371 27.050492 47.342869 27.043827 48.309713 C 26.88627 49.957921 26.972829 51.079203 27.140979 52.114648 C 27.820304 53.316664 29.896997 52.84327 30.11134 51.959619 C 30.17525 51.896129 30.076067 49.582705 29.87828 47.727319 C 29.79591 47.238315 29.170803 46.935694 28.528491 46.939771 z M 40.736015 46.939771 C 40.008055 46.944371 39.258016 47.342869 39.251351 48.309713 C 39.093794 49.957921 39.180353 51.079203 39.348503 52.114648 C 40.027828 53.316664 42.104521 52.84327 42.318864 51.959619 C 42.382774 51.896129 42.28359 49.582705 42.085803 47.727319 C 42.003433 47.238315 41.378327 46.935694 40.736015 46.939771 z M 186.45374 49.820215 C 185.72271 49.842495 184.81872 50.482894 184.84453 51.10024 C 184.89803 52.483233 184.82271 54.827488 184.92721 55.322205 C 185.00171 56.123916 187.30364 55.839057 187.22578 55.243656 C 187.21068 55.12802 187.47886 51.30391 187.35807 50.848059 C 187.37307 50.078849 186.95392 49.804968 186.45374 49.820215 z M 190.61214 49.892562 C 190.0194 49.889062 189.43339 50.148961 189.35898 50.754525 C 189.16619 52.121456 189.20061 53.940046 189.35898 54.855566 C 189.39658 55.972 191.68373 55.588612 191.65755 54.934115 C 191.64525 54.626358 192.19193 51.323793 191.9056 50.613448 C 191.80435 50.163378 191.20488 49.896085 190.61214 49.892562 z M 181.51347 50.343697 C 180.78916 50.359547 180.0541 50.675242 179.98436 51.331234 C 179.98435 52.65574 180.13705 55.223165 180.46392 55.429692 C 181.41553 56.388375 182.33278 55.698574 182.88444 55.304635 C 183.19359 54.084645 183.11473 51.956769 182.97798 51.1545 C 182.95148 50.611723 182.23777 50.32785 181.51347 50.343697 z M 287.3251 51.083187 C 286.91238 51.094257 286.49725 51.277883 286.3758 51.655762 C 286.26881 52.097489 286.32101 52.826626 286.41611 53.364185 C 286.50531 53.774078 288.26709 53.943327 288.16691 53.299072 C 288.22861 52.319477 288.34254 52.162707 288.28783 51.678499 C 288.25773 51.279367 287.79286 51.070644 287.3251 51.083187 z M 283.91549 51.107475 C 283.45745 51.109575 282.98588 51.290027 282.98169 51.728109 C 282.88259 52.474924 282.93687 52.983384 283.04267 53.452551 C 283.47011 53.997192 284.77694 53.782146 284.91181 53.381755 C 284.95201 53.352995 284.88945 52.30473 284.76505 51.464042 C 284.71325 51.242472 284.31963 51.105627 283.91549 51.107475 z M 287.52612 55.863257 C 287.1134 55.874327 286.69827 56.057953 286.57682 56.435832 C 286.46983 56.877559 286.52203 57.607212 286.61713 58.144771 C 286.70633 58.554664 288.46811 58.723914 288.36793 58.079659 C 288.42963 57.100064 288.54356 56.943294 288.48885 56.459086 C 288.45875 56.059954 287.99388 55.850714 287.52612 55.863257 z M 284.11702 55.888062 C 283.65898 55.890162 283.1869 56.070613 283.18271 56.508695 C 283.08361 57.25551 283.13789 57.763454 283.24369 58.232621 C 283.67113 58.777262 284.97796 58.562732 285.11283 58.162341 C 285.15303 58.133581 285.09047 57.085317 284.96607 56.244629 C 284.91427 56.023059 284.52116 55.886214 284.11702 55.888062 z "
       inkscape:label="town" /><g
       id="g2"
       inkscape:label="Stanham"
       style="display:none"
       sodipodi:insensitive="true"><path
         style="fill:#100d0b;fill-opacity:1;stroke:#ede0dc;stroke-width:1;stroke-linecap:square;stroke-linejoin:round;stroke-dasharray:none;stroke-opacity:1"
         d="m 325.08918,21.064099 c 1.05638,-7.87745 5.56962,-7.400566 10.53689,-5.826444 3.60057,-5.5138307 8.98196,-5.192578 12.39638,0.495868 10.41984,-6.0979848 12.28445,1.485712 12.27239,5.330576 8.62038,0.03804 8.25636,5.558123 6.32215,10.661154 2.38708,3.473871 5.59155,6.849655 0,11.280987 4.01476,4.190846 3.01802,11.825974 -4.95855,12.272722 1.70844,4.859868 -4.27241,12.453406 -11.28069,6.818179 -1.62077,5.499148 -11.49853,7.009107 -14.99959,0.867767 -7.83476,6.053274 -14.81116,-0.621096 -13.26411,-6.570244 -5.80101,0.938117 -8.36547,-6.331036 -4.21478,-11.528922 -6.81617,-2.553071 -5.73756,-11.847831 1.48757,-12.644622 -3.90287,-2.016005 -4.58485,-14.092651 5.70234,-11.157021 z"
         id="path8-2"
         sodipodi:nodetypes="ccccccccccccc"
         inkscape:label="badge-bg" /><path
         id="path2"
         style="fill:#ede0dc;fill-opacity:1;stroke:none;stroke-width:2;stroke-linecap:round;stroke-linejoin:round"
         d="m 338.06929,25.771554 c -1.21342,-0.0054 -1.67798,3.003198 -1.00563,4.372859 0.11733,0.209214 0.14157,0.335054 0.36074,0.333932 6.16253,0.191374 11.691,0.638396 18.30389,0.880991 0.13871,0.01064 0.26861,-0.108498 0.29298,-0.150662 0.30413,-0.614328 0.63166,-1.989289 0.52286,-2.864668 -0.0639,-0.514305 -0.56772,-1.018192 -1.07539,-1.122412 -3.68534,-0.756558 -13.43563,-1.432405 -17.39945,-1.45004 z m -0.94049,14.795479 c 0.0312,0.312075 0.24686,0.366457 0.39849,0.42826 l 14.3861,1.443008 c 0.58897,0.0833 0.77109,-0.150378 0.86225,-0.409321 0.5029,-3.064292 1.43571,-6.13489 1.06799,-9.270542 -0.0307,-0.222322 -0.19791,-0.448069 -0.33704,-0.481338 l -14.77194,-0.66711 c -0.37459,-0.01623 -0.50326,0.08214 -0.58461,0.310651 -0.40163,1.004463 -0.92241,7.361909 -1.02124,8.646392 z m 8.68474,-6.891052 c 1.79697,2.2e-4 3.25358,1.434615 3.25355,3.203938 3e-5,1.769324 -1.45658,3.203719 -3.25355,3.203939 -1.79717,6.3e-5 -3.2541,-1.434415 -3.25407,-3.203939 -3e-5,-1.769523 1.4569,-3.204001 3.25407,-3.203938 z m -22.33714,5.566068 c -0.20245,0.574083 -1.07174,4.882741 -1.0759,5.752621 -0.0423,8.821279 13.03131,9.296926 13.37696,9.307959 6.7135,0.214302 17.96066,-0.514698 17.96066,-0.514698 0.3419,0.0032 0.52993,-0.08963 0.57981,-0.407209 l 0.0905,-8.508475 c -0.0222,-0.904777 -0.70056,-1.04717 -1.02739,-1.065618 -9.64945,-0.749994 -18.84548,-1.762427 -28.03439,-4.798675 -0.0941,-0.03632 -1.44625,-0.541972 -1.87025,0.234095 z m 35.6402,4.817277 c -0.80624,-0.07928 -2.19715,-0.303868 -2.89647,-0.121776 -0.35591,0.09267 -0.50461,0.471292 -0.509,0.747578 l -0.14027,8.818514 c 0.0441,0.141739 0.1069,0.217748 0.19504,0.205225 1.36775,0.08222 2.70838,0.350476 3.51452,0.336413 0.32136,-0.0056 0.53795,-0.584461 0.53795,-0.584461 0.021,-0.02579 0.2453,-5.809567 -0.047,-8.98033 -0.0238,-0.258383 -0.39564,-0.435253 -0.65474,-0.421163 z"
         sodipodi:nodetypes="sccccssscccccccccscscssscccccsscssccssscc" /></g><g
       id="g11"
       inkscape:label="Oakvill"
       style="display:none"
       sodipodi:insensitive="true"><path
         style="fill:#100d0b;fill-opacity:1;stroke:#ede0dc;stroke-width:1;stroke-linecap:square;stroke-linejoin:round;stroke-dasharray:none;stroke-opacity:1"
         d="m 325.08918,21.064099 c 1.05638,-7.87745 5.56962,-7.400566 10.53689,-5.826444 3.60057,-5.5138307 8.98196,-5.192578 12.39638,0.495868 10.41984,-6.0979848 12.28445,1.485712 12.27239,5.330576 8.62038,0.03804 8.25636,5.558123 6.32215,10.661154 2.38708,3.473871 5.59155,6.849655 0,11.280987 4.01476,4.190846 3.01802,11.825974 -4.95855,12.272722 1.70844,4.859868 -4.27241,12.453406 -11.28069,6.818179 -1.62077,5.499148 -11.49853,7.009107 -14.99959,0.867767 -7.83476,6.053274 -14.81116,-0.621096 -13.26411,-6.570244 -5.80101,0.938117 -8.36547,-6.331036 -4.21478,-11.528922 -6.81617,-2.553071 -5.73756,-11.847831 1.48757,-12.644622 -3.90287,-2.016005 -4.58485,-14.092651 5.70234,-11.157021 z"
         id="path10"
         sodipodi:nodetypes="ccccccccccccc"
         inkscape:label="badge-bg" /><path
         d="m 348.83476,21.527408 c -4.47713,0.204398 -8.9593,0.03124 -13.43742,0.208773 -2.09234,0.102836 -5.23517,0.872894 -5.34231,2.828251 l -0.62839,11.469584 c 0.0398,3.60174 0.71503,4.283527 1.33067,4.926314 0.28632,0.298946 1.25348,1.390647 4.16874,1.672766 1.25239,0.121198 15.99073,0.279352 16.42277,0.11989 1.31927,-0.486935 2.33503,-0.342259 2.82825,-1.801957 1.92165,-5.687174 1.12879,-9.227264 1.33532,-13.896827 0.0423,-0.956015 -0.46469,-3.00974 -1.93167,-4.222998 -0.72826,-0.602309 -3.24269,-1.286202 -4.74596,-1.303796 z M 330.5475,44.306896 c -0.48979,0.0075 -0.96446,0.0724 -1.57303,0.156063 -0.7027,0.09661 -1.16755,0.589751 -1.19269,0.929659 l -0.24029,3.250448 c -0.0415,0.561708 0.47139,1.015537 0.8294,1.033011 l 4.48707,0.219108 c 0.0173,8.43e-4 0.0378,-0.0052 0.0594,-0.01395 0.67749,0.953488 1.37033,1.322549 3.14606,1.477429 -0.11744,3.138033 -0.0519,4.483934 -0.0703,4.63951 -0.0181,0.153259 0.33247,0.519462 0.70693,0.471289 0.31168,-0.0401 3.0844,-0.147938 3.37809,-0.235644 0.15102,-0.0451 0.26966,-0.270876 0.31419,-0.864547 l 0.23616,-3.142444 c 0.0449,-0.543778 2.11167,-0.672795 2.2779,-0.07855 0.0275,0.0049 -0.0796,2.661225 0,3.771346 0.0225,0.314524 0.3163,0.661855 0.62839,0.706934 0.77929,0.112562 2.50124,0.04998 2.56005,0.03669 0.54906,-0.124097 0.54119,-0.506732 0.54983,-0.86403 0,0 0.19333,-2.743402 0.29869,-5.533513 0.14804,-0.02192 1.08221,-0.52877 2.55644,-1.337386 0.91251,0.603875 1.94978,1.174976 3.45715,1.623674 0.57131,0.321759 0.97321,-0.29917 0.39998,-0.617533 l -2.81224,-1.56838 c 0.94379,-0.492586 1.91145,-0.944431 2.95073,-1.273307 0.64031,-0.298362 0.12042,-1.158605 -0.42375,-0.906405 -2.18946,0.648777 -4.07162,1.73679 -6.0818,2.641699 0.0245,-1.013622 0.03,-1.970337 0.002,-2.728515 -0.0158,-0.421947 -0.20617,-1.094901 -0.62838,-1.100192 -2.5575,-0.03205 -5.08091,-0.184035 -8.79843,-0.235644 -1.13654,0.07778 -1.14058,0.274168 -1.16892,0.668176 -0.13442,1.868993 -0.22465,3.43957 -0.28577,4.756816 -1.08379,-0.06579 -1.91608,-0.243911 -2.50786,-1.100192 0.27922,-0.511478 0.36052,-3.52747 0.25373,-3.695898 -0.18182,-0.286759 -0.27436,-0.548231 -1.02784,-0.747241 -0.99594,-0.263046 -1.65075,-0.348161 -2.28049,-0.338481 z"
         style="display:inline;fill:#ede0dc;stroke:none;stroke-width:1;stroke-linecap:round;stroke-linejoin:round"
         id="path15" /></g><g
       id="g12"
       inkscape:label="Home"
       sodipodi:insensitive="true"
       style="display:none"><path
         style="fill:#100d0b;fill-opacity:1;stroke:#ede0dc;stroke-width:1;stroke-linecap:square;stroke-linejoin:round;stroke-dasharray:none;stroke-opacity:1"
         d="m 325.08918,21.064099 c 1.05638,-7.87745 5.56962,-7.400566 10.53689,-5.826444 3.60057,-5.5138307 8.98196,-5.192578 12.39638,0.495868 10.41984,-6.0979848 12.28445,1.485712 12.27239,5.330576 8.62038,0.03804 8.25636,5.558123 6.32215,10.661154 2.38708,3.473871 5.59155,6.849655 0,11.280987 4.01476,4.190846 3.01802,11.825974 -4.95855,12.272722 1.70844,4.859868 -4.27241,12.453406 -11.28069,6.818179 -1.62077,5.499148 -11.49853,7.009107 -14.99959,0.867767 -7.83476,6.053274 -14.81116,-0.621096 -13.26411,-6.570244 -5.80101,0.938117 -8.36547,-6.331036 -4.21478,-11.528922 -6.81617,-2.553071 -5.73756,-11.847831 1.48757,-12.644622 -3.90287,-2.016005 -4.58485,-14.092651 5.70234,-11.157021 z"
         id="path11"
         sodipodi:nodetypes="ccccccccccccc"
         inkscape:label="badge-bg" /><path
         d="m 346.14402,24.018905 c -0.38432,0.006 -0.7246,0.08262 -0.77725,0.622162 l 0.0502,3.073331 c 0.0627,0.503626 0.66776,0.361534 1.05401,0.361534 l 7.4375,0.02998 c 0.44082,-0.007 0.95454,0.12279 1.1157,-0.361534 v -3.160975 c -0.007,-0.303103 -0.15942,-0.569855 -0.76686,-0.554123 z m 0.27849,5.144514 -0.32808,7.37138 c 0.98873,1.073938 1.97776,2.147662 2.96658,3.221518 1.14793,0.915775 1.05785,2.842742 -0.16433,3.65513 h 4.95352 l 0.0542,-14.248028 z m -8.73714,0.392094 c -0.42582,-0.01287 -0.86717,0.100322 -1.10014,0.378832 L 325.14156,40.43268 c -0.71445,1.014033 0.52206,2.676301 1.67039,2.179009 3.1104,-2.860537 6.21939,-5.722927 9.3293,-8.583991 0.74478,-0.737409 1.01265,-1.357139 1.76784,-0.961208 2.98898,3.127836 5.97764,6.255912 8.96662,9.383748 0.8694,1.123546 2.58297,-0.439073 1.86472,-1.523979 -3.33947,-3.718433 -6.76805,-7.364355 -10.14173,-11.054764 -0.0907,-0.052 -0.15651,-0.103101 -0.20527,-0.153378 -0.19805,-0.09439 -0.44642,-0.154696 -0.70806,-0.162604 z m -0.15972,4.559254 c -3.51664,3.235108 -7.03331,6.470389 -10.54995,9.705496 -0.02,0.03477 -0.039,0.0519 -0.0588,0.08015 l -0.46185,8.870565 c 0.12542,0.415751 0.28204,0.795166 0.75245,0.808407 l 7.05349,-0.008 c 0.52154,-0.0106 0.57024,-0.15244 0.56621,-0.339622 l 0.1851,-6.507619 c 0.0538,-0.08538 0.0157,-0.161955 0.27906,-0.266393 l 3.50224,0.05305 c 0.13136,0.0123 0.2491,0.04863 0.27849,0.244483 l 0.0825,6.523764 c 0.009,0.185372 0.14888,0.285004 0.28945,0.300413 h 7.33256 v -8.620933 c -0.0441,-1.143892 0.12492,-1.090906 -0.29638,-1.474968 -3.31189,-3.465094 -8.95451,-9.368742 -8.95453,-9.368793 z m -0.4359,4.091047 c 1.21024,1.84e-4 2.19119,0.981424 2.19106,2.191693 -1.8e-4,1.210044 -0.98105,2.190933 -2.19106,2.191117 -1.21024,1.36e-4 -2.19145,-0.980846 -2.19163,-2.191117 -1.4e-4,-1.210495 0.98117,-2.191829 2.19163,-2.191693 z m 18.24923,6.204898 c 0,3.66e-4 -2e-5,7.87e-4 0,0.0011 h -7.56205 v 2.390624 h 9.47864 v -5.76e-4 c 0.38717,-0.03526 0.86837,0.03514 0.86778,-0.314252 v -1.675052 c -0.008,-0.219263 -0.11877,-0.290726 -0.36787,-0.296954 z m -7.56205,3.056608 v 6.73365 h 9.15056 c 0.32989,0.0061 0.35471,-0.258395 0.33904,-0.558159 l -0.01,-6.175491 z m 4.73616,1.331969 c 0.89541,1.35e-4 1.62125,0.725994 1.62138,1.621427 -1.3e-4,0.895432 -0.72597,1.621291 -1.62138,1.621426 -0.89564,1.85e-4 -1.62183,-0.725767 -1.62197,-1.621426 1.4e-4,-0.895659 0.72633,-1.621612 1.62197,-1.621427 z"
         style="display:inline;fill:#ede0dc;fill-opacity:1;stroke:none;stroke-width:0.396875;stroke-linecap:square;stroke-linejoin:round;stroke-opacity:1"
         id="path9" /></g><g
       id="g7"
       inkscape:label="Logcity"
       style="display:inline"
       sodipodi:insensitive="true"><path
         style="fill:#100d0b;fill-opacity:1;stroke:#ede0dc;stroke-width:1;stroke-linecap:square;stroke-linejoin:round;stroke-dasharray:none;stroke-opacity:1"
         d="m 325.08918,21.064099 c 1.05638,-7.87745 5.56962,-7.400566 10.53689,-5.826444 3.60057,-5.5138307 8.98196,-5.192578 12.39638,0.495868 10.41984,-6.0979848 12.28445,1.485712 12.27239,5.330576 8.62038,0.03804 8.25636,5.558123 6.32215,10.661154 2.38708,3.473871 5.59155,6.849655 0,11.280987 4.01476,4.190846 3.01802,11.825974 -4.95855,12.272722 1.70844,4.859868 -4.27241,12.453406 -11.28069,6.818179 -1.62077,5.499148 -11.49853,7.009107 -14.99959,0.867767 -7.83476,6.053274 -14.81116,-0.621096 -13.26411,-6.570244 -5.80101,0.938117 -8.36547,-6.331036 -4.21478,-11.528922 -6.81617,-2.553071 -5.73756,-11.847831 1.48757,-12.644622 -3.90287,-2.016005 -4.58485,-14.092651 5.70234,-11.157021 z"
         id="path6"
         sodipodi:nodetypes="ccccccccccccc"
         inkscape:label="badge-bg"
         sodipodi:insensitive="true" /><path
         id="path7"
         style="opacity:1;fill:#efe4e0;fill-opacity:1;stroke-width:1.1;stroke-linecap:round;stroke-linejoin:round"
         d="m 335.29323,20.439062 c -0.98821,0.0072 -0.78784,0.504001 -0.79375,0.926042 l 0.0481,2.308903 5.57433,-0.127641 v -2.313554 c -0.0408,-0.548841 -0.33447,-0.751446 -0.79375,-0.727604 z m -2.88716,4.097425 c -0.94463,0.03803 -1.72149,1.326826 -1.64383,1.600936 l 0.0481,1.508952 h 6.76599 c 1.03857,0.314045 1.95886,1.276186 1.95286,2.29495 l -0.23875,9.711552 3.33003,0.04031 c 0.33652,-4.61503 0.88318,-9.215287 1.00666,-13.842049 -0.006,-0.666963 -0.33113,-1.404698 -0.99167,-1.509468 -1.78496,-0.188007 -6.53463,0.24454 -10.22935,0.19482 z m 13.60278,3.377055 c -0.95629,0.03784 -1.32139,0.413213 -1.47898,0.729671 l -0.9064,11.062374 9.10229,0.110587 c 0.008,5e-4 0.0158,0.0011 0.0238,0.0021 3.32494,0.425138 1.83462,4.940226 1.92587,7.17989 10e-4,0.01686 10e-4,0.03378 0,0.05064 -0.13076,2.601762 -0.51053,5.435164 -0.83199,8.198983 2.54777,0.260818 4.58348,0.528836 4.33617,-0.611333 -0.46054,-6.745103 -0.26238,-13.489745 -0.19844,-20.240625 -0.0263,-0.610276 -0.55797,-4.380512 -0.66146,-5.357812 -0.0969,-0.567549 -0.48376,-0.951303 -1.19062,-0.992188 z m -16.82429,0.53175 c -1.22352,0.02158 -2.19033,0.285233 -2.42414,1.651062 -0.022,3.792361 0.0761,7.945604 -0.0661,11.377083 -0.63052,3.978899 -0.74994,7.962199 -0.99219,11.972396 -0.0663,0.482489 0.35784,1.306026 0.8599,1.322917 3.81913,0.0013 7.71569,0.157535 11.46287,0.01499 0.25846,-8.298459 0.5255,-16.596593 0.70745,-24.897188 0.0191,-0.174429 -0.47415,-1.278446 -1.22629,-1.441256 z m 22.74435,2.064477 c 0.0398,0.0199 -0.0576,2.145289 -0.13023,2.272212 -0.0185,0.87244 -1.22576,0.844443 -1.22576,0.0098 -0.0802,0.06517 -0.004,-1.541713 0.11575,-2.331641 0.1408,-0.460837 0.75747,-0.905521 1.24024,0.04963 z m -3.00964,0.148821 c -0.002,0.179169 -0.0192,1.45859 -0.0331,1.752864 -0.3337,1.793859 -1.59402,0.51739 -1.50482,0.314193 -0.10618,-0.795207 -0.0423,-1.496189 0.0331,-2.033984 0,-0.335632 0.91824,-1.728554 1.50482,-0.03307 z m 6.18464,-0.04961 c 0.0705,0.56512 -0.002,1.547217 -0.21498,2.182813 -0.36114,0.877997 -0.99665,0.531424 -1.17409,0 -0.0618,-0.01716 -0.13608,-1.985464 0.1819,-2.397787 0.45926,-0.73432 0.97439,-0.34407 1.20717,0.214974 z m -24.97006,0.413412 c -0.002,0.179169 -0.0192,1.45859 -0.0331,1.752864 -0.3337,1.793859 -1.59402,0.51739 -1.50482,0.314193 -0.10618,-0.795207 -0.0423,-1.496189 0.0331,-2.033984 0,-0.355745 0.92273,-1.715556 1.50481,-0.03307 z m 3.00964,-0.148828 c 0.0398,0.0199 -0.0576,2.145289 -0.13023,2.272212 -0.0185,0.87244 -1.22576,0.844443 -1.22576,0.0098 -0.0802,0.06517 -0.004,-1.541713 0.11576,-2.331641 0.0514,-0.168162 0.8368,-1.226876 1.24023,0.04961 z m 3.175,0.09922 c 0.0705,0.56512 -0.002,1.547217 -0.21497,2.182813 -0.36114,0.877997 -0.99665,0.531424 -1.17409,0 -0.0618,-0.01716 -0.13608,-1.985464 0.1819,-2.397787 0.45929,-0.734369 0.97441,-0.344 1.20716,0.214974 z m 18.81849,4.274675 c 0,0 0.0911,2.215885 -0.14883,2.356445 -0.47701,0.791215 -1.22023,0.291913 -1.35599,0.06615 -0.31473,-0.423585 -0.0346,-2.325642 0.0661,-2.61276 0.35931,-0.769295 1.29996,-0.594102 1.43872,0.190165 z m -6.51537,-0.05788 c 0.1382,0.570789 0.17155,1.604349 -0.13229,2.579688 -0.0257,0.179623 -0.70554,0.572894 -1.17409,0.14056 -0.22074,-0.830842 -0.091,-1.88019 0.0496,-2.654102 0.19204,-0.387795 0.80264,-1.220274 1.25678,-0.06615 z m 3.23288,-0.04134 c 0.006,-0.01624 -0.0813,2.022313 -0.13229,2.414323 -0.10477,0.805473 -1.30315,0.2904 -1.31465,-0.223242 -0.0773,-0.322663 0.0603,-1.473882 0.26459,-2.265495 0.12656,-0.556284 1.04368,-0.592195 1.18235,0.07441 z m -15.50293,0.463021 c 0,0 0.0911,2.215885 -0.14883,2.356445 -0.47701,0.791215 -1.22023,0.291913 -1.35599,0.06615 -0.31473,-0.423585 -0.0346,-2.325642 0.0661,-2.61276 0.3965,-0.843116 1.31704,-0.49753 1.43872,0.190165 z m -6.51536,-0.05788 c 0.1382,0.570789 0.17155,1.604349 -0.13229,2.579688 -0.0257,0.179623 -0.70554,0.572894 -1.17409,0.14056 -0.22074,-0.830842 -0.091,-1.88019 0.0496,-2.654102 0.27752,-0.560404 0.8474,-1.106519 1.25678,-0.06615 z m 3.23288,-0.04134 c 0.006,-0.01624 -0.0813,2.022313 -0.1323,2.414323 -0.10477,0.805473 -1.30314,0.2904 -1.31464,-0.223242 -0.0773,-0.322663 0.0603,-1.473882 0.26458,-2.265495 0.12656,-0.556272 1.04369,-0.592203 1.18236,0.07441 z m 6.20168,4.941817 c -0.121,4.939683 -0.32523,9.877315 -0.4594,14.816667 0.13481,0.07542 0.37366,0.235872 0.5333,0.275435 6.04023,0.102049 13.04796,0.236082 13.6431,0.143633 0.33332,-2.941384 0.75178,-5.9564 0.88883,-8.669238 -0.39533,-1.622446 1.47948,-6.127843 -1.17566,-6.403227 z m 11.13989,2.685625 c 0,0 0.0911,2.215885 -0.14883,2.356445 -0.47701,0.791215 -1.22023,0.291913 -1.35599,0.06615 -0.31473,-0.423585 -0.0345,-2.325643 0.0661,-2.612761 0.35931,-0.769294 1.29996,-0.594101 1.43872,0.190166 z m -6.51536,-0.05788 c 0.1382,0.570789 0.17155,1.604349 -0.13229,2.579688 -0.0257,0.179623 -0.70554,0.572893 -1.17409,0.140559 -0.22074,-0.830842 -0.091,-1.880189 0.0496,-2.654101 0.19204,-0.387795 0.80264,-1.220274 1.25678,-0.06615 z m 3.23288,-0.04134 c 0.006,-0.01624 -0.0813,2.022313 -0.1323,2.414323 -0.10477,0.805473 -1.30314,0.2904 -1.31464,-0.223242 -0.0773,-0.322663 0.0603,-1.473882 0.26458,-2.265495 0.12656,-0.556274 1.04369,-0.592203 1.18236,0.07441 z"
         sodipodi:nodetypes="cccccccccccccccccccccccccccccccscccccccscccscccssccccccccccccccsccccssccssccsscccscccccccccssccsccccccccsccccsccsscccsccccscscscccss" /></g></g></svg>
