<svg xmlns="http://www.w3.org/2000/svg" xmlns:xlink="http://www.w3.org/1999/xlink" xml:space="preserve" width="401.2952mm" height="72.162743mm" viewBox="0 0 401.29519 72.162745"><defs><linearGradient id="d"><stop offset="0" style="stop-color:#ede0dc;stop-opacity:.31989923"/><stop offset="1" style="stop-color:#ede0dc;stop-opacity:.09571788"/></linearGradient><linearGradient id="a"><stop offset="0" style="stop-color:#fff;stop-opacity:.24685138"/><stop offset="1" style="stop-color:#fff;stop-opacity:0"/></linearGradient><linearGradient xlink:href="#b" id="e" x1="131.21992" x2="131.21992" y1="39.617489" y2="98.236984" gradientTransform="translate(80.472981 -29.510046)" gradientUnits="userSpaceOnUse"/><linearGradient id="b"><stop offset="0" style="stop-color:#fff;stop-opacity:.18000001"/><stop offset="1" style="stop-color:#fff;stop-opacity:0"/></linearGradient><linearGradient id="c"><stop offset="0" style="stop-color:#fff;stop-opacity:.28999999"/><stop offset="1" style="stop-color:#fff;stop-opacity:.06801008"/></linearGradient><linearGradient xlink:href="#d" id="f" x1="158.75" x2="159.27916" y1="5.8208332" y2="66.145836" gradientUnits="userSpaceOnUse"/></defs><path d="M12.139338 79.746474c2.911315-6.81575 7.210558-12.22422 10.111939-19.047891 3.115677-8.742346 2.601442-17.733437-3.501739-26.570288-1.026992-1.210502-9.37362-6.705041-16.358588.391097-7.386436 8.38556-5.176506 28.963599 2.862716 28.249524 6.517434.428252 10.006186-5.073928 10.006964-11.141531.450902-7.062221-8.207975-8.414121-9.954687-4.035553-1.38071 5.141783 1.05134 5.51665 3.194425 2.581213-.594543-1.884283 3.243096-3.94606 3.266575 1.437505.192724 4.125645-2.092333 7.489736-4.498532 9.376161-9.699479.08485-6.70466-20.204461-1.255457-26.279726 7.485184-5.838183 13.812638 5.267125 14.467583 12.212464.999469 19.04767-10.325747 22.093259-14.061677 38.240927-.892589 3.72083.908864 6.033942-1.61106 12.217324 12.088553-3.906642-.05346-6.504138 7.331538-17.631226Z" style="fill:#ede0dc;fill-opacity:1;stroke-width:.2;stroke-linecap:round;stroke-linejoin:round" transform="translate(2.1166727 -30.956249)"/><path d="M11.527368 31.436344c34.619789 6.572411 66.437089 1.622228 101.448422 5.760914 33.21826-.513588 105.56822-2.629388 111.32897-2.631164 30.87207-.0095 56.72588 4.455745 77.7313 5.817536 8.16762 1.009522 38.91286.408472 36.66551.417466 16.9701.667818 27.29944.483142 41.79251-4.03467-.74347-2.724925-16.25948 1.939482-18.74665 2.173975-5.51481.51994-18.93087-.424075-28.87586.0081-45.94152-.932598-82.22194-10.796744-141.81076-5.071168-29.67255-.58207-27.9126.943994-36.69402.705514-45.19894.504943-69.590069-2.165064-129.761716-1.957871-4.427398-1.099346-8.568222-2.385539-13.077706-1.188632Z" style="fill:#ede0dc;fill-opacity:1;stroke-width:.2;stroke-linecap:round;stroke-linejoin:round" transform="translate(2.1166727 -30.956249)"/><path d="M393.70357 103.11899c-1.54895-7.57828-1.23051-15.7666-3.80082-22.97693-2.84472-6.84938-9.11455-9.97974-11.34466-17.386126-2.6608-9.619962-4.14341-25.527702 8.17137-28.690039 11.92343 2.875716 9.57188 12.200073 8.36174 16.711413-1.9106 10.221564-9.70015 4.625827-7.62066-3.605989 6.86869-2.077234-1.97667-8.475889-3.36129-.942798-1.32985 2.743145-.86661 6.587216.41444 9.22749 2.61849 6.375051 10.40834 5.092822 12.04305.330037 2.39406-3.988852 4.97938-15.067601-1.35347-21.59495-4.24275-2.902486-12.02377-3.155708-16.64669.759517-8.36312 6.903651-4.94588 22.87426-4.50674 24.761934 2.20683 12.35408 11.32159 13.970087 13.26818 24.364161 1.9439 5.773049-3.57644 17.07889 6.37555 19.04224z" style="fill:#ede0dc;fill-opacity:1;stroke-width:.2;stroke-linecap:round;stroke-linejoin:round" transform="translate(2.1166727 -30.956249)"/><path d="m8.2724077 65.787756 387.3882423 6.29594c-5.51155-36.487797-10.1444-22.26044-17.98828-45.262187 4.02493-.166513 9.76915.895033 15.42697 1.894869 5.98301 1.578636 17.34352-37.8732187-13.48517-23.2047487-34.37906 9.0255097-87.10617-.267751-128.9629-3.568143C164.81259 5.9530133 88.067366 4.5738303 15.153827.92401632-.76555837 1.7865513-.13089837 18.763579 3.7132326 29.488284c1.276437 4.722491 8.0120094.521128 18.3558524 1.229927C12.4674 48.472916 11.350865 47.254786 8.2724077 65.787756Z" style="display:inline;fill:url(#e);fill-opacity:1;stroke:none;stroke-width:.2;stroke-linecap:round;stroke-linejoin:round;stroke-opacity:.367758" transform="translate(-.15299028 -.42248501)"/><path d="M59.822705 10.900627c-1.161269-.01836-2.312095-.000995-3.442684.069763-3.210722.353964-3.148664 1.437117-3.296956 2.864941-.107648 1.03652.203966 2.564663.97255 2.702678l1.189592.053743c-.330177 3.024688-.34505 5.523152-.378789 8.053772l-12.269535-.594279c-.71743.0152-1.077097.285991-1.081071.810803-.127951 2.020937-.605322 3.847448 2.810681 7.837248.208282.221735.563208.418542.95188.427364 3.378839.07669 18.61936.7207 27.334766.37052.334042-.01342.637566-.181441.755509-.473873.246596-1.729671.443345-2.986451.305408-4.71134-.07307-.913956-.083946-2.100284-1.88929-2.206584l-1.709974-.152962c.316009-3.013061.502563-5.928248.412895-9.144145.496258.0247 1.414096.068757 1.561145-.286804.152247-.36448.625906-1.423198.438733-2.578137-.211982-1.308029-.676421-2.273092-2.215885-2.378149-3.389168-.231287-6.965172-.609414-10.448975-.664559zM237.62271 11.95896c-1.16127-.01836-2.3121-.000995-3.44269.069763-3.21073.353964-3.14867 1.437118-3.29696 2.864942-.10765 1.03652.20398 2.564662.97256 2.702677l1.18959.053743c-.33018 3.024688-.34505 5.523152-.37879 8.053772l-12.26954-.594279c-.71743.0152-1.0771.285992-1.08107.810804-.12795 2.020937-.60532 3.847447 2.81068 7.837247.20829.221735.56321.418542.95188.427364 3.37884.07669 18.61937.720701 27.33477.370521.33404-.01342.63756-.181441.75551-.473873.24659-1.729671.44334-2.986452.30541-4.711341-.0731-.913956-.08391-2.100283-1.88929-2.206583l-1.70998-.152963c.31601-3.013061.50257-5.928247.4129-9.144144.49626.0247 1.41409.068757 1.56114-.286804.15225-.36448.62592-1.423199.43874-2.578138-.21198-1.308029-.67642-2.273092-2.21589-2.378149-3.38917-.231287-6.96517-.609414-10.44897-.664559zM62.95378 17.92087c1.3535-.0025 2.55683 1.508218 2.658753 3.062345.104994 1.600821-1.682884 3.096449-3.287138 3.096452-1.604263.000002-2.920974-1.569594-2.866492-3.172933.05108-1.502183 1.810706-2.86492 3.363102-2.980696.04396-.0033.088104-.004968.131775-.005168zm177.8 1.058333c1.3535-.0025 2.55682 1.508219 2.65875 3.062346.10499 1.600821-1.68289 3.096448-3.28714 3.096451-1.60426.000002-2.92097-1.569593-2.86649-3.172932.0511-1.502183 1.81071-2.864921 3.36311-2.980697.044-.0033.08812-.004968.13177-.005168zM87.929 25.732796c-.196522-.000097-.355826.002147-.465605.006718-.525635.410674-1.880585 1.417881.099219 2.300118 1.77743-.121139 3.136064.171441 5.772774.132292 1.50435.000511 1.372064-1.970418-.297656-2.399854-.549272.058783-3.733079-.038591-5.108732-.039274zm184.67917 2.645834c-.19653-.000098-.35583.002146-.46561.006717-.52563.410674-1.8806 1.417881.09922 2.300118 1.77743-.121139 3.13606.171441 5.77277.132292 1.50434.000511 1.37206-1.970417-.29765-2.399853-.54927.058782-3.73308-.038592-5.10873-.039274zm-172.31455 2.402954c-.631649-.000671-1.105028.012033-1.282092.032039-1.292908 1.17397-1.277004 2.809417-.089401 2.930054 2.588043.30604 5.276473-.175941 7.785573-.264584 1.32629-.118197 1.26118-2.22124-.16537-2.168859-1.03253-.404282-4.35376-.526637-6.24871-.52865zm39.43325 2.344043c-1.16127-.01836-2.31209-.000995-3.44268.069763-3.21073.353964-3.14867 1.437117-3.29696 2.864941-.10765 1.03652.20397 2.564663.97255 2.702678l1.18959.053743c-.33018 3.024688-.34504 5.523152-.37878 8.053772l-12.26954-.594279c-.71743.0152-1.0771.285991-1.08107.810803-.12795 2.020937-.60532 3.847448 2.81068 7.837248.20829.221735.56321.418542.95188.427364 3.37884.07669 18.61937.7207 27.33477.37052.33404-.01342.63755-.181441.7555-.473873.24659-1.729671.44334-2.986451.30541-4.71134-.0731-.913956-.08391-2.100284-1.88929-2.206584l-1.70997-.152962c.31601-3.013061.50256-5.928248.41289-9.144145.49626.0247 1.4141.068757 1.56115-.286804.15225-.36448.62591-1.423198.43873-2.578137-.21198-1.308029-.67641-2.273092-2.21588-2.378149-3.38917-.231287-6.96518-.609414-10.44898-.664559zm-56.024486.245979c-1.73844.029-4.834929.630411-7.515303.112138-1.206251-.233629-1.7545 1.649249-.548287 1.883089 3.370366.651688 6.4332-.110244 9.007202-.605131.966595-.04736.69881-1.475254-.287321-1.362707-.18777-.02416-.407945-.031539-.656291-.027389zm201.270406.055811c-.63165-.000671-1.10503.012033-1.2821.032039-1.29291 1.17397-1.27699 2.809417-.0894 2.930054 2.58804.30604 5.27648-.17594 7.78558-.264583 1.32629-.118197 1.26118-2.221241-.16537-2.16886-1.03253-.404282-4.35377-.526637-6.24871-.52865zm-241.400256.26665c-.069356.001923-.141209.012376-.215491.03204-3.266448.566295-9.696049-.049533-9.696049-.031523-1.230311-.0025-1.270071 1.727446-.03979 1.727027 3.127602.0034 6.360985 1.436724 10.330635.390157 1.114469-.294011.661033-2.146544-.379305-2.117701zm217.929846.735873c-1.73844.029-4.83493.630411-7.5153.112138-1.20625-.233629-1.7545 1.649249-.54829 1.883089 3.37037.651688 6.43321-.110244 9.00721-.605131.9666-.04736.69881-1.475255-.28732-1.362708-.18777-.02416-.40795-.031538-.6563-.027388zm-40.12985.322461c-.06935.001923-.14121.012375-.21549.032039-3.26645.566295-9.69605-.049533-9.69605-.031523-1.23031-.0025-1.27006 1.727446-.03979 1.727027 3.1276.0034 6.36099 1.436724 10.33064.390157 1.11447-.29401.66103-2.146544-.37931-2.1177zm-172.219975.718819c-.474003.02533-.474136.729853-.128157.921391.238132.237911 4.933651 1.779929 6.344832 1.987992 5.416579.67893 14.734015 1.108422 15.574243.993738 1.788327.12965 1.696261-1.538309 1.701188-2.752287-.04888-.608564-.43301-.70058-.687813-.764294-5.12157-.09836-10.243377.202319-15.364953.305924l-7.338054-.68833c-.03585-.0048-.069694-.005534-.101286-.004134zm177.800005 1.058333c-.47401.02533-.47414.729853-.12816.921391.23813.237911 4.93365 1.779929 6.34483 1.987992 5.41658.67893 14.73402 1.108422 15.57424.993738 1.78833.12965 1.69626-1.538309 1.70119-2.752287-.0489-.608564-.43301-.70058-.68781-.764294-5.12157-.09836-10.24338.202319-15.36496.305924l-7.33805-.68833c-.0359-.0048-.06967-.005534-.10128-.004134zm-137.902698.954464c-1.577025.01693-2.463897 2.849743.350883 2.534729 2.252834.04671 6.131208-.161843 6.853328-.093534 1.50193-.002 1.43168-1.854178-.07028-1.856218-3.357489-.0038-4.808528-.466538-7.133931-.584977zM273.72903 40.12985c-1.57702.01693-2.4639 2.849743.35088 2.534729 2.25283.04671 6.13121-.161843 6.85333-.093534 1.50193-.002 1.43168-1.854178-.07028-1.856218-3.35749-.0038-4.80852-.466538-7.13393-.584977zm-130.87108.01602c1.3535-.0025 2.55682 1.508218 2.65875 3.062345.10499 1.600821-1.68289 3.096449-3.28714 3.096452-1.60426.000002-2.92097-1.569594-2.86649-3.172933.0511-1.502183 1.8107-2.86492 3.3631-2.980696.044-.0033.08813-.004968.13178-.005168zm45.73364 5.22242c-1.50436-.00051-1.83509 2.500099-.33073 2.499589 2.58804.30604 5.27647-.17594 7.78557-.264583 1.32629-.118197 1.26119-2.221241-.16536-2.16886-2.49899.25467-4.86986-.003296-7.28948-.066146zm96.9052.814421c-1.57702.01693-2.4639 2.849743.35088 2.534729 2.25284.04671 6.13121-.161844 6.85333-.093535 1.50194-.002 1.43168-1.854177-.07028-1.856217-3.35748-.0038-4.80853-.466538-7.13393-.584977zm-118.45737 1.775085c-.19653-.000097-.35583.002147-.46561.006718-.52563.410674-1.8806 1.417881.09922 2.300118 1.77743-.121139 3.13606.171441 5.77277.132292 1.50435.000511 1.37207-1.970418-.29765-2.399854-.54927.058783-3.73308-.038591-5.10873-.039274zm15.8042 3.725871c-.63165-.000671-1.10503.012033-1.28209.032039-1.29291 1.17397-1.27699 2.809417-.0894 2.930054 2.58804.30604 5.27647-.17594 7.78557-.264583 1.32629-.118197 1.26118-2.221241-.16537-2.16886-1.03253-.404282-4.35376-.526637-6.24871-.52865zm30.71802 2.263944c-1.50436-.000512-1.73587 2.334219-.23151 2.333708 1.77742-.121139 3.13607.171441 5.77278.132292 1.50435.000511 1.37206-1.970418-.29766-2.399854-1.57717.275348-3.5073-.023216-5.24361-.066146zm-193.730809.467155c-1.577025.01693-2.463897 2.849743.350883 2.534729 2.252834.04671 6.13121-.161843 6.853328-.093534 1.501937-.002 1.431659-1.854177-.07028-1.856217-3.357486-.0038-4.808528-.466539-7.133931-.584978zm143.775719 1.18184c-1.73844.029-4.83493.630411-7.5153.112138-1.20625-.233629-1.7545 1.649249-.54829 1.883089 3.37037.651688 6.4332-.110244 9.0072-.605131.9666-.04736.69881-1.475254-.28732-1.362707-.18777-.02416-.40794-.031539-.65629-.027389zm-40.12985.322461c-.06935.001923-.14121.012376-.21549.03204-3.26645.566295-9.69605-.049533-9.69605-.031523-1.23031-.0025-1.27006 1.727446-.03979 1.727027 3.1276.0034 6.36099 1.436724 10.33064.390157 1.11447-.294011.66103-2.146544-.37931-2.117701zm5.58002 1.777153c-.47401.02533-.47414.729853-.12816.921391.23813.237911 4.93366 1.779929 6.34484 1.987992 5.41658.67893 14.73402 1.108422 15.57424.993738 1.78833.12965 1.69626-1.538309 1.70119-2.752287-.0489-.608564-.43302-.70058-.68782-.764294-5.12157-.09836-10.24337.202319-15.36495.305924l-7.33805-.68833c-.0359-.0048-.06968-.005534-.10129-.004134zm77.11416 2.331124c-1.5767.017547-2.46307 2.849708.3514 2.534729 2.25284.04671 6.13121-.161844 6.85333-.093535 1.50194-.002 1.43116-1.854177-.0708-1.856217-3.35723-.0038-4.80832-.466495-7.13342-.584977h-.00051zM169.48319 61.5611c-1.57703.01693-2.46389 2.849743.35089 2.534729 2.25284.04671 6.13121-.161843 6.85333-.093534 1.50193-.002 1.43168-1.854178-.07028-1.856218-3.35749-.0038-4.80854-.466538-7.13394-.584977zm-137.85928.45837c-1.504353-.00051-1.835084 2.500099-.33073 2.499589 2.588039.30604 5.276469-.17594 7.785572-.264583 1.326291-.118197 1.261185-2.221241-.165365-2.16886-2.498997.25467-4.869855-.003296-7.289477-.066146z" style="fill:url(#f);fill-opacity:1;stroke:none;stroke-width:1.3;stroke-linecap:round;stroke-linejoin:round;stroke-dasharray:none;stroke-opacity:1"/><path d="M325.08918 21.064099c1.05638-7.87745 5.56962-7.400566 10.53689-5.826444 3.60057-5.5138307 8.98196-5.192578 12.39638.495868 10.41984-6.0979848 12.28445 1.485712 12.27239 5.330576 8.62038.03804 8.25636 5.558123 6.32215 10.661154 2.38708 3.473871 5.59155 6.849655 0 11.280987 4.01476 4.190846 3.01802 11.825974-4.95855 12.272722 1.70844 4.859868-4.27241 12.453406-11.28069 6.818179-1.62077 5.499148-11.49853 7.009107-14.99959.867767-7.83476 6.053274-14.81116-.621096-13.26411-6.570244-5.80101.938117-8.36547-6.331036-4.21478-11.528922-6.81617-2.553071-5.73756-11.847831 1.48757-12.644622-3.90287-2.016005-4.58485-14.092651 5.70234-11.157021z" style="fill:#100d0b;fill-opacity:1;stroke:#ede0dc;stroke-width:1;stroke-linecap:square;stroke-linejoin:round;stroke-dasharray:none;stroke-opacity:1"/><path d="M338.06929 25.771554c-1.21342-.0054-1.67798 3.003198-1.00563 4.372859.11733.209214.14157.335054.36074.333932 6.16253.191374 11.691.638396 18.30389.880991.13871.01064.26861-.108498.29298-.150662.30413-.614328.63166-1.989289.52286-2.864668-.0639-.514305-.56772-1.018192-1.07539-1.122412-3.68534-.756558-13.43563-1.432405-17.39945-1.45004zm-.94049 14.795479c.0312.312075.24686.366457.39849.42826l14.3861 1.443008c.58897.0833.77109-.150378.86225-.409321.5029-3.064292 1.43571-6.13489 1.06799-9.270542-.0307-.222322-.19791-.448069-.33704-.481338l-14.77194-.66711c-.37459-.01623-.50326.08214-.58461.310651-.40163 1.004463-.92241 7.361909-1.02124 8.646392zm8.68474-6.891052c1.79697.00022 3.25358 1.434615 3.25355 3.203938.00003 1.769324-1.45658 3.203719-3.25355 3.203939-1.79717.000063-3.2541-1.434415-3.25407-3.203939-.00003-1.769523 1.4569-3.204001 3.25407-3.203938zm-22.33714 5.566068c-.20245.574083-1.07174 4.882741-1.0759 5.752621-.0423 8.821279 13.03131 9.296926 13.37696 9.307959 6.7135.214302 17.96066-.514698 17.96066-.514698.3419.0032.52993-.08963.57981-.407209l.0905-8.508475c-.0222-.904777-.70056-1.04717-1.02739-1.065618-9.64945-.749994-18.84548-1.762427-28.03439-4.798675-.0941-.03632-1.44625-.541972-1.87025.234095zm35.6402 4.817277c-.80624-.07928-2.19715-.303868-2.89647-.121776-.35591.09267-.50461.471292-.509.747578l-.14027 8.818514c.0441.141739.1069.217748.19504.205225 1.36775.08222 2.70838.350476 3.51452.336413.32136-.0056.53795-.584461.53795-.584461.021-.02579.2453-5.809567-.047-8.98033-.0238-.258383-.39564-.435253-.65474-.421163z" style="fill:#ede0dc;fill-opacity:1;stroke:none;stroke-width:2;stroke-linecap:round;stroke-linejoin:round"/></svg>