<svg xmlns="http://www.w3.org/2000/svg" xmlns:xlink="http://www.w3.org/1999/xlink" xml:space="preserve" width="401.2952mm" height="72.162743mm" viewBox="0 0 401.29519 72.162745"><defs><linearGradient id="c"><stop offset="0" style="stop-color:#ede0dc;stop-opacity:.37279597"/><stop offset="1" style="stop-color:#ede0dc;stop-opacity:.1"/></linearGradient><linearGradient id="b"><stop offset="0" style="stop-color:#fff;stop-opacity:.18000001"/><stop offset="1" style="stop-color:#fff;stop-opacity:0"/></linearGradient><linearGradient id="a"><stop offset="0" style="stop-color:#fff;stop-opacity:.28999999"/><stop offset="1" style="stop-color:#fff;stop-opacity:.06801008"/></linearGradient><linearGradient xlink:href="#b" id="d" x1="131.21992" x2="131.21992" y1="39.617489" y2="98.236984" gradientTransform="translate(80.319991 -29.93253)" gradientUnits="userSpaceOnUse"/><linearGradient xlink:href="#c" id="e" x1="186.5291" x2="186.40356" y1="40.550724" y2="98.323013" gradientUnits="userSpaceOnUse"/></defs><path d="m8.1194174 65.365271 387.3882426 6.29594c-5.51155-36.487797-10.1444-22.26044-17.98828-45.262187 4.02493-.166513 9.76915.895033 15.42697 1.894869 5.98301 1.578636 17.34352-37.8732187-13.48517-23.2047487-34.37906 9.0255097-87.10617-.267751-128.9629-3.568143C164.6596 5.5305283 87.914375 4.1513453 15.000836.50153131-.91854859 1.3640663-.28388859 18.341094 3.5602424 29.065799c1.276437 4.722491 8.0120096.521128 18.3558516 1.229927-9.601684 17.754705-10.71822 16.536575-13.7966766 35.069545Z" style="display:inline;fill:url(#d);fill-opacity:1;stroke:none;stroke-width:.2;stroke-linecap:round;stroke-linejoin:round;stroke-opacity:.367758"/><path d="M213.34356 40.83885c-.0607.0061-.11219.03336-.14728.09612l-2.23862 4.026111-2.48874-2.879411c-.20506-.237038-.57652-.226216-.76688.02274-3.34394 4.405115-1.24443 11.786161 5.6932 11.9972.0515 2.614531-.0319 5.231563.003 7.84655-1.28426-2.054649-3.68991-6.387362-6.36447-3.394625-2.01002 2.608864 1.94927 6.601243 6.71897 6.359818.23456-.195546.4548.4288.81132.1757 6.8418-1.277862 7.80213-5.057925 6.48487-6.804752-1.22085-1.618989-4.39859-1.491797-6.66264 3.992004v-8.194849c4.39523-.282504 8.40978-3.377904 6.12469-11.379667-.0961-.333837-.49804-.466612-.77463-.256315l-3.13107 2.373499-2.5647-3.91449c0 .290228-.43396-.09174-.69712-.06563zm-120.877375.888835c-.06073.0061-.112722.03336-.147795.09612l-2.238623 4.026111-2.48822-2.879411c-.205058-.237038-.576516-.226217-.766879.02274-3.343942 4.405115-1.244435 11.786162 5.693193 11.997201.05153 2.614531-.03168 5.231562.0031 7.846549-1.28426-2.054649-3.689916-6.387361-6.36447-3.394624-2.010026 2.608864 1.949269 6.601243 6.71897 6.359818.234561-.195546.454801.4288.81132.1757 6.841799-1.277862 7.801619-5.057926 6.484359-6.804753-1.22085-1.618989-4.398079-1.491796-6.662126 3.992005v-8.194849c4.395221-.282504 8.409786-3.377904 6.124691-11.379667-.0961-.333837-.49804-.466612-.77463-.256315l-3.131591 2.373493-2.564184-3.915006c0 .290228-.433956-.09122-.697115-.06511zm-49.972144 1.923396c-.107921.0043-.241542.05974-.406177.180351-.385337.282287-.695048.970864-.695048 2.231388s.386874 2.282548.864547 2.282548c.477675 0 .154253-.970155.440283-2.197798.148423-.637032.45591-2.522912-.203605-2.496489zm115.444119 1.328601c-.10792.0043-.24155.05974-.40618.180351-.38534.282287-.69505.970865-.69505 2.231389 0 1.260524.38687 2.282548.86455 2.282548.47767 0 .15425-.970156.44028-2.197799.14842-.637032.45592-2.522912-.2036-2.496489zm-110.877473.101286c-.418593-.000001-.501779.606312-.501778 1.4981 0 .891789-.429446 1.824695-.01085 1.824695.418595 0 1.270724-.816636 1.270724-1.708423 0-.891788-.339499-1.614371-.758094-1.614372zm-10.409183.235645c-.500121 0-.590303.595431-.390674 1.255737.143484.474596 1.269689 1.817361 1.680517 1.951302.475486.15502.427364-.175758.427364-.86558s-1.217086-2.341459-1.717207-2.341459zm232.411656.985986c-.10792.0043-.24155.05974-.40618.180351-.38534.282287-.69505.970864-.69505 2.231388s.38687 2.282548.86455 2.282548c.47767 0 .15425-.970155.44028-2.197798.14842-.637032.45592-2.522912-.2036-2.496489zm-106.55836.10697c-.41859-.000001-.50177.606312-.50177 1.4981 0 .891789-.4295 1.824695-.0109 1.824695.4186 0 1.27073-.816636 1.27073-1.708423 0-.891788-.3395-1.614371-.7581-1.614372zm-10.40918.235645c-.50013 0-.5903.595431-.39067 1.255737.14349.474596 1.26968 1.817361 1.68051 1.951302.47549.15502.42737-.175758.42737-.86558s-1.21709-2.341459-1.71721-2.341459zm121.53418 1.087272c-.41859-.000001-.50177.606312-.50177 1.4981 0 .891789-.4294 1.824695-.0109 1.824695.4186 0 1.27073-.816636 1.27073-1.708423 0-.891788-.3395-1.614371-.7581-1.614372zm-10.40918.235645c-.50013 0-.5903.595431-.39067 1.255737.14349.474596 1.26968 1.817361 1.68051 1.951302.47549.15502.42737-.175758.42737-.86558s-1.21709-2.341459-1.71721-2.341459zm-44.14718 10.471712c.39409.01079.80465.165671 1.22939.508496 1.24064 1.602216-1.44335 4.294949-5.80017 5.110282.79563-1.526942 2.44266-5.677065 4.57078-5.618778zm-10.10687.171566c1.8463-.10562 3.69182 4.001539 4.51135 5.250842-3.39003.275626-7.24539-2.907733-5.53093-4.713924.33545-.3534.67767-.517358 1.01958-.536918zm-110.770503.717268c.39409.01079.804643.165671 1.229383.508496 1.24064 1.602216-1.443352 4.29495-5.800163 5.110283.795624-1.526942 2.442662-5.677066 4.57078-5.618779zm-10.106876.171566c1.846308-.10562 3.691831 4.001539 4.511352 5.250842-3.390028.275626-7.245384-2.907733-5.530928-4.713924.335453-.3534.677666-.517358 1.019576-.536918zm-19.485116 5.315438c-.107921.0043-.241542.05974-.406177.180351-.385337.282287-.695048.970864-.695048 2.231388s.386874 2.282548.864547 2.282548c.477675 0 .154253-.970156.440283-2.197799.148423-.637032.45591-2.522911-.203605-2.496488zm55.996585 1.066085c-.10793.0043-.24155.05974-.40618.180351-.38534.282287-.69505.970864-.69505 2.231388s.38687 2.282548.86455 2.282548c.47767 0 .15425-.970156.44028-2.197799.14842-.637032.45591-2.522911-.2036-2.496488zm-51.429938.363802c-.418593-.000001-.50178.606312-.501779 1.4981 0 .891789-.429448 1.824694-.01085 1.824694.418595 0 1.270724-.816635 1.270724-1.708422 0-.891788-.339498-1.614371-.758093-1.614372zm-10.409184.235644c-.500121 0-.590303.595432-.390674 1.255738.143484.474596 1.269689 1.817361 1.680517 1.951302.475486.15502.427365-.175758.427365-.86558s-1.217087-2.34146-1.717208-2.34146zm124.545372.72347c-.10792.0043-.24155.05974-.40618.180351-.38534.282287-.69505.970865-.69505 2.231389 0 1.260524.38687 2.282548.86455 2.282548.47767 0 .15425-.970156.44028-2.197799.14842-.637032.45592-2.522912-.2036-2.496489zm-58.13961.106971c-.41859-.000001-.50177.606311-.50177 1.498099 0 .891789-.4294 1.824695-.0109 1.824695.4186 0 1.27073-.816636 1.27073-1.708423 0-.891788-.3395-1.61437-.7581-1.614371zm-86.9797.183451c-.06073.0061-.112205.03388-.147278.09664l-2.238623 4.025594-2.488737-2.879411c-.205058-.237038-.575999-.225699-.766362.02326-3.343942 4.405115-1.244435 11.785644 5.693193 11.996683.05153 2.614531-.0322 5.23208.0026 7.847067-1.28426-2.054649-3.689916-6.387879-6.36447-3.395142-2.010026 2.608864 1.949269 6.60176 6.71897 6.360335.234561-.195546.454801.428283.81132.175183 6.841798-1.277862 7.802129-5.057925 6.484876-6.804752-1.220854-1.618989-4.398596-1.49128-6.662643 3.992521v-8.195365c4.395226-.282504 8.409784-3.377905 6.124691-11.379668-.09611-.333837-.498048-.466612-.77463-.256315l-3.131075 2.373499-2.564701-3.91449c0 .290228-.433956-.09174-.697115-.06563zm76.57052.05219c-.50012 0-.5903.595431-.39067 1.255737.14349.474596 1.26968 1.817362 1.68051 1.951303.47549.15502.42737-.175759.42737-.865581s-1.21709-2.341459-1.71721-2.341459zm29.25816.844393c-.0607.0061-.1122.03336-.14728.09612l-2.23862 4.026111-2.48874-2.879411c-.20506-.237038-.576-.225699-.76636.02326-3.34394 4.405115-1.24443 11.785644 5.6932 11.996683.0515 2.614531-.0324 5.231563.003 7.84655-1.28426-2.054649-3.68991-6.387362-6.36447-3.394625-2.01002 2.608864 1.94927 6.601244 6.71897 6.359819.23456-.195546.4548.428799.81132.175699 6.8418-1.277862 7.80214-5.057925 6.48488-6.804752-1.22085-1.618989-4.3986-1.49128-6.66265 3.992521v-8.195365c4.39523-.282504 8.40978-3.377905 6.12469-11.379668-.0961-.333837-.49752-.466612-.77411-.256315l-3.13159 2.373499-2.5647-3.91449c0 .290228-.43396-.09174-.69712-.06563zm96.96979.135909c-.10792.0043-.24154.05974-.40617.180351-.38534.282287-.69505.970864-.69505 2.231388s.38687 2.282548.86455 2.282548c.47767 0 .15425-.970155.44028-2.197798.14842-.637032.45591-2.522912-.20361-2.496489zm-53.11252.10697c-.41859-.000001-.50177.606312-.50177 1.4981 0 .891789-.4294 1.824695-.0109 1.824695.4186 0 1.27073-.816636 1.27073-1.708423 0-.891788-.3395-1.614371-.7581-1.614372zm-10.40918.235645c-.50013 0-.5903.595431-.39067 1.255737.14349.474596 1.26968 1.817361 1.68051 1.951302.47549.15502.42737-.175758.42737-.86558s-1.21709-2.341459-1.71721-2.341459zm68.08835 1.087272c-.41859-.000001-.50178.606312-.50178 1.4981 0 .891789-.42939 1.824695-.0109 1.824695.4186 0 1.27072-.816636 1.27072-1.708423 0-.891788-.33949-1.614371-.75809-1.614372zm-10.40918.235645c-.50013 0-.59031.595431-.39068 1.255737.14349.474596 1.26969 1.817361 1.68052 1.951302.47549.15502.42736-.175758.42736-.86558s-1.21708-2.341459-1.7172-2.341459zm34.19429.865063c-.0607.0061-.11219.03336-.14728.09612l-2.23862 4.026111-2.48874-2.879411c-.20506-.237038-.57651-.226216-.76687.02274-3.34394 4.405115-1.24444 11.786161 5.69319 11.9972.0515 2.614531-.0319 5.231563.003 7.84655-1.28426-2.054649-3.68991-6.387362-6.36447-3.394625-2.01002 2.608864 1.94927 6.601243 6.71897 6.359818.23456-.195546.4548.4288.81132.1757 6.8418-1.277862 7.80213-5.057925 6.48487-6.804752-1.22085-1.618989-4.39859-1.491797-6.66264 3.992004v-8.194848c4.39523-.282504 8.40978-3.377905 6.12469-11.379668-.0961-.333837-.49752-.466612-.77411-.256315l-3.13159 2.373499-2.5647-3.91449c0 .290228-.43396-.09174-.69712-.06563zM47.917483 85.096097c.394096.01079.804647.166188 1.229382.509013 1.24064 1.602216-1.442837 4.294949-5.799646 5.110282.795624-1.526942 2.44215-5.677582 4.570264-5.619295zm-10.106877.172082c1.846308-.10562 3.691831 4.001023 4.511352 5.250326-3.390028.275626-7.244867-2.907733-5.530411-4.713924.335453-.3534.677149-.516842 1.019059-.536402zm115.935564.724504c.39409.01079.80464.166188 1.22938.509013 1.24064 1.602216-1.44335 4.294949-5.80017 5.110282.79563-1.526942 2.44267-5.677582 4.57079-5.619295zm-10.10688.171566c1.84631-.10562 3.69183 4.001539 4.51135 5.250842-3.39003.275626-7.24487-2.907733-5.53041-4.713924.33545-.3534.67715-.517358 1.01906-.536918zm-47.084466 1.41335c-.107921.0043-.241542.05974-.406177.180351-.385337.282287-.695048.970864-.695048 2.231388s.386874 2.282548.864547 2.282548c.477675 0 .154253-.970155.440283-2.197798.148423-.637032.45591-2.522912-.203605-2.496489zm124.354166.529167c-.10792.0043-.24155.05974-.40618.180351-.38534.282287-.69504.970864-.69504 2.231388s.38686 2.282548.86454 2.282548c.47767 0 .15426-.970156.44029-2.197799.14842-.637032.45591-2.522911-.20361-2.496488zm81.49167 0c-.10792.0043-.24155.05974-.40618.180351-.38534.282287-.69505.970864-.69505 2.231388s.38687 2.282548.86455 2.282548c.47767 0 .15425-.970156.44028-2.197799.14842-.637032.45592-2.522911-.2036-2.496488zm-23.33295.552421c.39409.01079.80465.165671 1.22939.508496 1.24064 1.602216-1.44335 4.294949-5.80017 5.110282.79563-1.526942 2.44266-5.677065 4.57078-5.618778zm-10.10687.171566c1.8463-.10562 3.69182 4.001539 4.51135 5.250842-3.39003.275626-7.24539-2.907733-5.53093-4.713924.33545-.3534.67767-.517358 1.01958-.536918zm-167.83937.176733c-.4186-.000001-.50178.606312-.50178 1.4981 0 .891789-.4294 1.824695-.0109 1.824695.41859 0 1.27072-.816636 1.27072-1.708423 0-.891788-.3395-1.614371-.75809-1.614372zm-10.409184.235645c-.500121 0-.590302.595431-.390673 1.255737.143484.474596 1.269689 1.817361 1.680517 1.951302.475486.15502.427364-.175758.427364-.86558s-1.217087-2.341459-1.717208-2.341459zm134.763354.293522c-.41859-.000001-.50178.606311-.50178 1.498099 0 .891789-.42939 1.824695-.0109 1.824695.4186 0 1.27072-.816636 1.27072-1.708423 0-.891788-.33949-1.61437-.75809-1.614371zm81.49166 0c-.41859-.000001-.50177.606311-.50177 1.498099 0 .891789-.4294 1.824695-.0109 1.824695.4186 0 1.27073-.816636 1.27073-1.708423 0-.891788-.3395-1.61437-.7581-1.614371zm-91.90085.235644c-.50013 0-.5903.595431-.39067 1.255737.14349.474596 1.26969 1.817362 1.68052 1.951303.47549.15502.42736-.175759.42736-.865581s-1.21709-2.341459-1.71721-2.341459zm81.49167 0c-.50012 0-.5903.595431-.39067 1.255737.14349.474596 1.26968 1.817362 1.68051 1.951303.47549.15502.42737-.175759.42737-.865581s-1.21709-2.341459-1.71721-2.341459z" style="display:inline;fill:url(#e);fill-opacity:1;stroke-width:.2;stroke-linecap:round;stroke-linejoin:round" transform="translate(2.1166727 -30.956249)"/><path d="M11.527368 31.436344c34.619789 6.572411 66.437089 1.622228 101.448422 5.760914 33.21826-.513588 105.56822-2.629388 111.32897-2.631164 30.87207-.0095 56.72588 4.455745 77.7313 5.817536 8.16762 1.009522 38.91286.408472 36.66551.417466 16.9701.667818 27.29944.483142 41.79251-4.03467-.74347-2.724925-16.25948 1.939482-18.74665 2.173975-5.51481.51994-18.93087-.424075-28.87586.0081-45.94152-.932598-82.22194-10.796744-141.81076-5.071168-29.67255-.58207-27.9126.943994-36.69402.705514-45.19894.504943-69.590069-2.165064-129.761716-1.957871-4.427398-1.099346-8.568222-2.385539-13.077706-1.188632Z" style="fill:#ede0dc;fill-opacity:1;stroke-width:.2;stroke-linecap:round;stroke-linejoin:round" transform="translate(2.1166727 -30.956249)"/><path d="M393.70357 103.11899c-1.54895-7.57828-1.23051-15.7666-3.80082-22.97693-2.84472-6.84938-9.11455-9.97974-11.34466-17.386126-2.6608-9.619962-4.14341-25.527702 8.17137-28.690039 11.92343 2.875716 9.57188 12.200073 8.36174 16.711413-1.9106 10.221564-9.70015 4.625827-7.62066-3.605989 6.86869-2.077234-1.97667-8.475889-3.36129-.942798-1.32985 2.743145-.86661 6.587216.41444 9.22749 2.61849 6.375051 10.40834 5.092822 12.04305.330037 2.39406-3.988852 4.97938-15.067601-1.35347-21.59495-4.24275-2.902486-12.02377-3.155708-16.64669.759517-8.36312 6.903651-4.94588 22.87426-4.50674 24.761934 2.20683 12.35408 11.32159 13.970087 13.26818 24.364161 1.9439 5.773049-3.57644 17.07889 6.37555 19.04224z" style="fill:#ede0dc;fill-opacity:1;stroke-width:.2;stroke-linecap:round;stroke-linejoin:round" transform="translate(2.1166727 -30.956249)"/><path d="M325.2264 20.791557c1.05638-7.87745 5.56962-7.400566 10.53689-5.826444 3.60057-5.5138311 8.98196-5.1925781 12.39638.495868 10.41984-6.0979851 12.28445 1.485712 12.27239 5.330576 8.62038.03804 8.25636 5.558123 6.32215 10.661154 2.38708 3.473871 5.59155 6.849655 0 11.280987 4.01476 4.190846 3.01802 11.825974-4.95855 12.272722 1.70844 4.859868-4.27241 12.453406-11.28069 6.818179-1.62077 5.499148-11.49853 7.009107-14.99959.867767-7.83476 6.053274-14.81116-.621096-13.26411-6.570244-5.80101.938117-8.36547-6.331036-4.21478-11.528922-6.81617-2.553071-5.73756-11.847831 1.48757-12.644622-3.90287-2.016005-4.58485-14.092651 5.70234-11.157021z" style="fill:#100d0b;fill-opacity:1;stroke:#ede0dc;stroke-width:1;stroke-linecap:square;stroke-linejoin:round;stroke-dasharray:none;stroke-opacity:1" transform="translate(-.15299028 .91072159)"/><path d="M346.28299 24.266466c-.38432.006-.7246.08262-.77725.622162l.0502 3.073331c.0627.503626.66776.361534 1.05401.361534l7.4375.02998c.44082-.007.95454.12279 1.1157-.361534v-3.160975c-.007-.303103-.15942-.569855-.76686-.554123zm.27849 5.144514-.32808 7.37138c.98873 1.073938 1.97776 2.147662 2.96658 3.221518 1.14793.915775 1.05785 2.842742-.16433 3.65513h4.95352l.0542-14.248028zm-8.73714.392094c-.42582-.01287-.86717.100322-1.10014.378832l-11.44367 10.498335c-.71445 1.014033.52206 2.676301 1.67039 2.179009 3.1104-2.860537 6.21939-5.722927 9.3293-8.583991.74478-.737409 1.01265-1.357139 1.76784-.961208 2.98898 3.127836 5.97764 6.255912 8.96662 9.383748.8694 1.123546 2.58297-.439073 1.86472-1.523979-3.33947-3.718433-6.76805-7.364355-10.14173-11.054764-.0907-.052-.15651-.103101-.20527-.153378-.19805-.09439-.44642-.154696-.70806-.162604zm-.15972 4.559254c-3.51664 3.235108-7.03331 6.470389-10.54995 9.705496-.02.03477-.039.0519-.0588.08015l-.46185 8.870565c.12542.415751.28204.795166.75245.808407l7.05349-.008c.52154-.0106.57024-.15244.56621-.339622l.1851-6.507619c.0538-.08538.0157-.161955.27906-.266393l3.50224.05305c.13136.0123.2491.04863.27849.244483l.0825 6.523764c.009.185372.14888.285004.28945.300413h7.33256v-8.620933c-.0441-1.143892.12492-1.090906-.29638-1.474968-3.31189-3.465094-8.95451-9.368742-8.95453-9.368793zm-.4359 4.091047c1.21024.000184 2.19119.981424 2.19106 2.191693-.00018 1.210044-.98105 2.190933-2.19106 2.191117-1.21024.000136-2.19145-.980846-2.19163-2.191117-.00014-1.210495.98117-2.191829 2.19163-2.191693zm18.24923 6.204898c0 .000366-.00002.000787 0 .0011h-7.56205v2.390624h9.47864v-.000576c.38717-.03526.86837.03514.86778-.314252v-1.675052c-.008-.219263-.11877-.290726-.36787-.296954zm-7.56205 3.056608v6.73365h9.15056c.32989.0061.35471-.258395.33904-.558159l-.01-6.175491zm4.73616 1.331969c.89541.000135 1.62125.725994 1.62138 1.621427-.00013.895432-.72597 1.621291-1.62138 1.621426-.89564.000185-1.62183-.725767-1.62197-1.621426.00014-.895659.72633-1.621612 1.62197-1.621427z" style="display:inline;opacity:1;fill:#ede0dc;fill-opacity:1;stroke:none;stroke-width:.396875;stroke-linecap:square;stroke-linejoin:round;stroke-opacity:1" transform="translate(-.15299028 .91072159)"/><path d="M10.36577 30.957799c-2.5445276.0098-5.3553445.900488-7.9747075 3.56154-7.386436 8.38556-5.1768644 28.963513 2.8623576 28.249438 6.5174339.428252 10.0063629-5.073835 10.0071409-11.141438.450902-7.062221-8.207719-8.413981-9.954431-4.035413-1.38071 5.141783 1.0510353 5.516675 3.1941203 2.581238-.594543-1.884283 3.2429887-3.945927 3.2664677 1.437638.192724 4.125645-2.0922348 7.48923-4.4984338 9.375655-9.699479.08485-6.70442357-20.204268-1.2552206-26.279533 7.4851844-5.838183 13.8123894 5.267353 14.4673344 12.212692.999469 19.04767-10.325744 22.092892-14.0616744 38.24056-.892589 3.72083.9091696 6.03396-1.6107544 12.217342 12.0885528-3.906642-.0536625-6.503877 7.3313358-17.630965 2.911315-6.81575 7.210663-12.224262 10.112044-19.047933 3.115677-8.742346 2.601586-17.733621-3.501595-26.570472-.64187-.756563-4.143106-3.186684-8.383984-3.170349Z" style="display:inline;fill:#ede0dc;fill-opacity:1;stroke-width:.2;stroke-linecap:round;stroke-linejoin:round" transform="translate(2.1166727 -30.956249)"/></svg>