<svg xmlns="http://www.w3.org/2000/svg" xmlns:xlink="http://www.w3.org/1999/xlink" xml:space="preserve" width="401.2952mm" height="72.162743mm" viewBox="0 0 401.29519 72.162745"><defs><linearGradient id="d"><stop offset="0" style="stop-color:#ede0dc;stop-opacity:.79848868"/><stop offset="1" style="stop-color:#ede0dc;stop-opacity:.20403023"/></linearGradient><linearGradient id="c"><stop offset="0" style="stop-color:#ede0dc;stop-opacity:.30000001"/><stop offset="1" style="stop-color:#ede0dc;stop-opacity:.05"/></linearGradient><linearGradient id="a"><stop offset="0" style="stop-color:#fff;stop-opacity:.24685138"/><stop offset="1" style="stop-color:#fff;stop-opacity:0"/></linearGradient><linearGradient xlink:href="#a" id="e" x1="131.21992" x2="131.21992" y1="39.617489" y2="98.236984" gradientTransform="translate(78.203318 1.0237197)" gradientUnits="userSpaceOnUse"/><linearGradient xlink:href="#b" id="f" x1="131.21992" x2="131.21992" y1="39.617489" y2="98.236984" gradientTransform="translate(80.472981 -29.510046)" gradientUnits="userSpaceOnUse"/><linearGradient id="b"><stop offset="0" style="stop-color:#fff;stop-opacity:.18000001"/><stop offset="1" style="stop-color:#fff;stop-opacity:0"/></linearGradient><linearGradient xlink:href="#c" id="h" x1="189.44167" x2="189.44167" y1="18.520834" y2="65.616669" gradientUnits="userSpaceOnUse"/><linearGradient xlink:href="#d" id="g" x1="199.57123" x2="200.05865" y1="18.983093" y2="79.308098" gradientUnits="userSpaceOnUse"/></defs><path d="M12.139338 79.746474c2.911315-6.81575 7.210558-12.22422 10.111939-19.047891 3.115677-8.742346 2.601442-17.733437-3.501739-26.570288-1.026992-1.210502-9.37362-6.705041-16.358588.391097-7.386436 8.38556-5.176506 28.963599 2.862716 28.249524 6.517434.428252 10.006186-5.073928 10.006964-11.141531.450902-7.062221-8.207975-8.414121-9.954687-4.035553-1.38071 5.141783 1.05134 5.51665 3.194425 2.581213-.594543-1.884283 3.243096-3.94606 3.266575 1.437505.192724 4.125645-2.092333 7.489736-4.498532 9.376161-9.699479.08485-6.70466-20.204461-1.255457-26.279726 7.485184-5.838183 13.812638 5.267125 14.467583 12.212464.999469 19.04767-10.325747 22.093259-14.061677 38.240927-.892589 3.72083.908864 6.033942-1.61106 12.217324 12.088553-3.906642-.05346-6.504138 7.331538-17.631226Z" style="fill:#ede0dc;fill-opacity:1;stroke-width:.2;stroke-linecap:round;stroke-linejoin:round" transform="translate(2.1166727 -30.956249)"/><path d="M11.527368 31.436344c34.619789 6.572411 66.437089 1.622228 101.448422 5.760914 33.21826-.513588 105.56822-2.629388 111.32897-2.631164 30.87207-.0095 56.72588 4.455745 77.7313 5.817536 8.16762 1.009522 38.91286.408472 36.66551.417466 16.9701.667818 27.29944.483142 41.79251-4.03467-.74347-2.724925-16.25948 1.939482-18.74665 2.173975-5.51481.51994-18.93087-.424075-28.87586.0081-45.94152-.932598-82.22194-10.796744-141.81076-5.071168-29.67255-.58207-27.9126.943994-36.69402.705514-45.19894.504943-69.590069-2.165064-129.761716-1.957871-4.427398-1.099346-8.568222-2.385539-13.077706-1.188632Z" style="fill:#ede0dc;fill-opacity:1;stroke-width:.2;stroke-linecap:round;stroke-linejoin:round" transform="translate(2.1166727 -30.956249)"/><path d="M393.70357 103.11899c-1.54895-7.57828-1.23051-15.7666-3.80082-22.97693-2.84472-6.84938-9.11455-9.97974-11.34466-17.386126-2.6608-9.619962-4.14341-25.527702 8.17137-28.690039 11.92343 2.875716 9.57188 12.200073 8.36174 16.711413-1.9106 10.221564-9.70015 4.625827-7.62066-3.605989 6.86869-2.077234-1.97667-8.475889-3.36129-.942798-1.32985 2.743145-.86661 6.587216.41444 9.22749 2.61849 6.375051 10.40834 5.092822 12.04305.330037 2.39406-3.988852 4.97938-15.067601-1.35347-21.59495-4.24275-2.902486-12.02377-3.155708-16.64669.759517-8.36312 6.903651-4.94588 22.87426-4.50674 24.761934 2.20683 12.35408 11.32159 13.970087 13.26818 24.364161 1.9439 5.773049-3.57644 17.07889 6.37555 19.04224z" style="fill:#ede0dc;fill-opacity:1;stroke-width:.2;stroke-linecap:round;stroke-linejoin:round" transform="translate(2.1166727 -30.956249)"/><path d="m8.2724077 65.787756 387.3882423 6.29594c-5.51155-36.487797-10.1444-22.26044-17.98828-45.262187 4.02493-.166513 9.76915.895033 15.42697 1.894869 5.98301 1.578636 17.34352-37.8732187-13.48517-23.2047487-34.37906 9.0255097-87.10617-.267751-128.9629-3.568143C164.81259 5.9530133 88.067366 4.5738303 15.153827.92401632-.76555837 1.7865513-.13089837 18.763579 3.7132326 29.488284c1.276437 4.722491 8.0120094.521128 18.3558524 1.229927C12.4674 48.472916 11.350865 47.254786 8.2724077 65.787756Z" style="display:inline;fill:url(#f);fill-opacity:1;stroke:none;stroke-width:.2;stroke-linecap:round;stroke-linejoin:round;stroke-opacity:.367758" transform="translate(-.15299028 -.42248501)"/><path d="M96.800293 11.940873c-.472191.000293-1.02304.963229-1.086239 1.583883-.100623.988182-.032111 2.258306.044959 2.649967.151347.769212 1.574821.713592 1.401981-.158646-.04847-.935488.0083-2.326721.198955-3.05201.118526-.450993-.032079-1.023522-.559656-1.023194zm82.164497.267684c-.47219.000293-1.02305.963229-1.08624 1.583883-.10063.988182-.03163 2.258306.04547 2.649967.15134.769212 1.57483.713592 1.40199-.158646-.0485-.935488.008-2.326722.19895-3.052011.11853-.450993-.0321-1.023521-.55966-1.023193h-.00051zm-88.776497 1.188041c-.318735.01097-.547143.46656-.432531 1.083138.181528.976563.696514 2.147897.895552 2.493905.390896.679554 1.720299.168664 1.275891-.601514l-1.132747-2.519743c-.18807-.325916-.414923-.462382-.606165-.455786zm82.164497.267684c-.31874.01097-.54714.46656-.43253 1.083138.18153.976563.69651 2.147897.89555 2.493905.39089.679554 1.72029.168664 1.27589-.601514l-1.13275-2.519743c-.18807-.325916-.41492-.462382-.60616-.455786zm-68.44802.031006c-.0145.001-.02768.003635-.03928.007235-.1577.04901-.48215.136468-.65887.386539-.50553.715353-1.0112 1.06152-1.44901 1.943034-.5228 1.052618.73414 1.616167 1.32189.598413l1.30276-2.255159c.24686-.427462-.26022-.69576-.47749-.680062zm82.16449.267684c-.0145.001-.02767.003635-.03927.007235-.1577.04901-.48216.136468-.65888.386539-.50553.715353-1.01119 1.06152-1.449 1.943034-.5228 1.052618.73413 1.616167 1.32188.598413l1.30276-2.255159c.24686-.427462-.26022-.69576-.47749-.680062zm115.34955.725537c-.47219.000293-1.02305.963229-1.08624 1.583883-.10063.988182-.03162 2.258306.04548 2.649967.15134.769212 1.57482.713592 1.40198-.158646-.0485-.935488.008-2.326722.19895-3.052011.11853-.450993-.03209-1.023521-.55965-1.023193h-.00052zm-6.612 1.455725c-.31874.01097-.54714.46656-.43253 1.083138.18153.976563.69651 2.147897.89555 2.493905.39089.679554 1.72029.168664 1.27589-.601514l-1.13274-2.519743c-.18807-.325916-.41493-.462382-.60617-.455786zm13.71648.29869c-.0145.001-.02768.003635-.03928.007235-.1577.04901-.48215.136468-.65887.386539-.50553.715353-1.0112 1.06152-1.44901 1.943034-.5228 1.052618.73413 1.616167 1.32188.598413l1.30277-2.255159c.24686-.427462-.26022-.69576-.47749-.680062zm-60.23767 4.2323c-.47219.000293-1.02305.963228-1.08624 1.583882-.10063.988182-.03162 2.258307.04548 2.649968.15134.769212 1.57482.713591 1.40198-.158647-.0485-.935488.008-2.326721.19895-3.05201.11853-.450993-.03209-1.023521-.55965-1.023193h-.00052zm-6.612 1.455725c-.31874.01097-.54714.46656-.43253 1.083138.18153.976563.69651 2.147897.89555 2.493905.39089.679554 1.72029.168664 1.27589-.601514l-1.13274-2.519743c-.18807-.325916-.41493-.462382-.60617-.455786zm13.71648.29869c-.0145.001-.02768.003634-.03928.007234-.1577.04901-.48215.136469-.65887.38654-.50553.715353-1.0112 1.06152-1.44901 1.943034-.5228 1.052618.73413 1.616167 1.32188.598413l1.30277-2.255159c.24686-.427462-.26022-.69576-.47749-.680062zM151.97729 36.021057c-.47219.000293-1.02305.963229-1.08624 1.583883-.10063.988182-.03163 2.258306.04547 2.649967.15134.769212 1.57483.713592 1.40199-.158646-.0485-.935488.008-2.326722.19895-3.052011.11853-.450993-.0321-1.023521-.55966-1.023193h-.00051zm-6.612 1.455725c-.31874.01097-.54714.46656-.43253 1.083138.18153.976563.69651 2.147897.89555 2.493905.39089.679554 1.72029.168664 1.27589-.601514l-1.13275-2.519743c-.18807-.325916-.41492-.462382-.60616-.455786zm13.71647.29869c-.0145.001-.02767.003635-.03927.007235-.1577.04901-.48216.136468-.65888.386539-.50553.715353-1.01119 1.06152-1.449 1.943034-.5228 1.052618.73413 1.616167 1.32188.598413l1.30276-2.255159c.24686-.427462-.26022-.69576-.47749-.680062zm-75.377825.731738c-.472191.000293-1.02304.963229-1.086239 1.583883-.100623.988182-.032111 2.258306.044959 2.649967.151347.769212 1.574821.713592 1.401981-.158646-.04847-.935488.008299-2.326721.198954-3.05201.118526-.450993-.032078-1.023522-.559655-1.023194zm-6.612 1.455725c-.318735.01097-.547144.46656-.432532 1.083138.181528.976563.696515 2.147897.895553 2.493905.390896.679554 1.720299.168664 1.275891-.601514L77.6981 40.418722c-.18807-.325916-.414923-.462383-.606165-.455787zm13.716476.29869c-.01448.001-.027684.003635-.039274.007235-.157705.04901-.482152.136469-.658875.38654-.505533.715353-1.011196 1.061519-1.449007 1.943033-.522801 1.052618.734128 1.616168 1.321883.598414l1.302763-2.25516c.24686-.427462-.260228-.69576-.47749-.680062zM233.99812 51.36689c-.47219.000293-1.02305.963229-1.08624 1.583883-.10063.988182-.03162 2.258307.04548 2.649968.15134.769212 1.57482.713591 1.40198-.158647-.0485-.935488.008-2.326721.19895-3.05201.11853-.450993-.03209-1.023522-.55965-1.023194h-.00052zm-6.612 1.455726c-.31874.01097-.54714.46656-.43253 1.083138.18153.976563.69651 2.147896.89555 2.493904.39089.679554 1.72029.168665 1.27589-.601513l-1.13274-2.519743c-.18807-.325916-.41493-.462382-.60617-.455786zm13.71648.298689c-.0145.001-.02768.003635-.03928.007235-.1577.04901-.48215.136469-.65887.38654-.50553.715353-1.0112 1.06152-1.44901 1.943034-.5228 1.052618.73413 1.616167 1.32188.598413l1.30277-2.25516c.24686-.427462-.26022-.69576-.47749-.680062zM59.008285 57.216146c-.472191.000293-1.02304.963228-1.086239 1.583882-.100623.988182-.032112 2.258307.044958 2.649968.151347.769212 1.574822.713591 1.401982-.158647-.04847-.935488.008299-2.326721.198954-3.05201.118526-.450993-.032078-1.023521-.559655-1.023193zm-6.612 1.455725c-.318735.01097-.547144.46656-.432532 1.083138.181528.976563.696515 2.147897.895553 2.493905.390896.679554 1.720299.168664 1.275891-.601514l-1.132747-2.519743c-.18807-.325916-.414923-.462382-.606165-.455786zm13.716475.29869c-.01448.001-.027684.003634-.039274.007234-.157705.04901-.482151.136469-.658874.38654-.505533.715353-1.011196 1.06152-1.449007 1.943034-.522801 1.052618.734128 1.616167 1.321883.598413l1.302763-2.255159c.24686-.427462-.260229-.69576-.477491-.680062zm109.67703.862996c-.47219.000293-1.02305.963229-1.08624 1.583883-.10063.988182-.03163 2.258306.04547 2.649967.15134.769212 1.57483.713592 1.40199-.158646-.0485-.935488.008-2.326722.19895-3.052011.11853-.450993-.0321-1.023521-.55966-1.023193h-.00051zm-6.612 1.455725c-.31874.01097-.54714.46656-.43253 1.083138.18153.976563.69651 2.147897.89555 2.493905.39089.679554 1.72029.168664 1.27589-.601514l-1.13275-2.519743c-.18807-.325916-.41492-.462382-.60616-.455786zm13.71647.29869c-.0145.001-.02767.003635-.03927.007235-.1577.04901-.48216.136468-.65888.386539-.50553.715353-1.01119 1.06152-1.449 1.943034-.5228 1.052618.73413 1.616167 1.32188.598413l1.30276-2.255159c.24686-.427462-.26022-.69576-.47749-.680062z" style="fill:url(#g);stroke-width:.999998;stroke-linecap:round;stroke-linejoin:round;fill-opacity:.27912623"/><path d="M48.098873 7.6532796c-.557751.00525-1.303341.8949219-2.002462 1.9363159-.355567.369385-.895082 3.5417265-1.437121 5.2374065-.652119 1.05272-1.719189 1.109941-2.578654 1.665015-2.016206 1.789817.676051 3.051714.682645 3.708817.08349.742876-.310575.909505-.310575.909505-2.089062 1.106978-3.548008 2.753217-5.313888 4.137216-1.843168 1.696289-1.759477 2.992113-.984436 3.345532.662099.30192 2.866875-.468113 2.488737.361218.05943 1.258362-2.310002 2.183237-3.612699 3.142444-2.365531 1.741795-2.466935.930683-2.994649 3.948079-.458529 2.85569 3.057513 1.14582 6.540169 1.799374l3.773413.671793c.04075 1.661999.033683 3.210601.084233 4.837948.0069.212317-2.510435 3.810164-2.501656 4.025594-.0681.619994-.789835 1.687799 2.430342 2.360579l-.000517-.019637c-1.144248-2.32709-.74881-2.853699.077515-2.947623.697536-.07929.928749.531777 1.024744 1.536857.04751.49735.763155.536052.81132.101286.01655-.467372-.234287-1.179334.699182-1.288294.675571-.07886.872981 1.200273.529683 2.44998 0 0 2.210931-.016002 2.175578-.120923-1.321923-1.899903-1.330843-3.596869-.494027-3.86023.961471-.30259 1.658854 1.002858 1.978174 3.399793.01492.112617.083178.233673.193787.199988.672557-.351875.852381-.604734.780831-.871782-.03365-.26453-1.623445-4.946344-1.653646-5.182629-.428239-3.350323-.517041-3.947521-.387573-4.244702 1.31009-1.117314 1.707367-1.415271 3.061828-1.18184 4.209139.591254 4.569639 1.649222 5.680274.120406.977627-1.415549 1.115996-1.971121-1.154969-3.867464-1.22708-1.024662-2.334946-2.492723-2.999817-3.641122-.223736-.386454-.186792-1.029745.126091-.911055 1.723503.09609 2.796427 1.960045 4.121712.961181.82334-.620556.336-2.524821-1.744596-3.888651-2.085521-1.367051-4.193221-3.807953-5.264278-5.358846-.294412-.40038-.812922-1.084523.053226-1.194759l2.09548.698148c1.195927-.411142 1.586781-1.076464.859379-2.094962-3.209617-3.769014-3.212472-5.167685-4.082438-9.7766645-.148943-.791355-.415697-1.105932-.750342-1.1027751v-.0005168zM202.94627 10.272758c-.55776.0052-1.30334.894405-2.00246 1.935799-.35557.369385-.89508 3.541727-1.43712 5.237407-.65212 1.05272-1.71919 1.10994-2.57866 1.665014-2.01621 1.789817.67605 3.052231.68265 3.709334.0835.742876-.31058.908989-.31058.908989-2.08906 1.106978-3.54801 2.753733-5.31389 4.137732-1.84317 1.696289-1.75947 2.991596-.98443 3.345015.6621.30192 2.86688-.467596 2.48874.361735.0594 1.258362-2.31001 2.183237-3.6127 3.142444-2.36554 1.741795-2.46694.930684-2.99465 3.94808-.45853 2.85569 3.05752 1.145819 6.54017 1.799373l3.77341.671794c.0407 1.661999.03373 3.210083.08423 4.83743.007.212317-2.51043 3.810165-2.50165 4.025595-.0681.619994-.78984 1.688316 2.43034 2.361096l-.00052-.019637c-1.14425-2.32709-.74876-2.854217.07752-2.948141.69754-.07929.92874.531777 1.02474 1.536857.0475.49735.76315.536052.81132.101286.0165-.467372-.23429-1.178817.69918-1.287777.67557-.07886.87299 1.200273.52969 2.44998 0 0 2.21092-.016002 2.17557-.120923-1.32193-1.899903-1.33084-3.596868-.49402-3.860229.96147-.30259 1.65885 1.00234 1.97817 3.399275.0149.112617.08317.23419.19379.200505.67256-.351875.85238-.60525.78083-.872298-.0336-.26453-1.62344-4.946345-1.65365-5.18263-.42823-3.350323-.51704-3.947521-.38757-4.244702 1.31009-1.117314 1.70737-1.415271 3.06183-1.18184 4.20914.591254 4.56964 1.649739 5.68027.120923.97763-1.415549 1.116-1.971121-1.15497-3.867464-1.22708-1.024662-2.33494-2.492722-2.99981-3.641121-.22374-.386454-.1868-1.030263.12609-.911573 1.7235.09609 2.79642 1.960563 4.12171.961699.82334-.620556.336-2.525339-1.7446-3.889169-2.08552-1.367051-4.19322-3.807953-5.26428-5.358846-.29441-.40038-.8129-1.084523.05323-1.194759l2.09548.698666c1.19592-.411142 1.58678-1.076982.85938-2.09548-3.20961-3.769014-3.21247-5.167168-4.08244-9.776147-.14894-.791355-.4157-1.106449-.75034-1.103292zM122.3207 25.145752c-.55776.0052-1.30334.894405-2.00246 1.935799-.35557.369385-.89457 3.541727-1.43661 5.237407-.65212 1.05272-1.71918 1.10994-2.57865 1.665014-2.01621 1.789817.67604 3.051715.68264 3.708818.0835.742876-.31057.909505-.31057.909505-2.08906 1.106978-3.54801 2.753733-5.31389 4.137732-1.84317 1.696289-1.75947 2.991596-.98443 3.345015.6621.30192 2.86687-.467596 2.48873.361735.0594 1.258362-2.31001 2.18272-3.6127 3.141927-2.36554 1.741795-2.46694.931201-2.99465 3.948597-.45853 2.85569 3.05752 1.145302 6.54017 1.798856l3.77342.671794c.0407 1.661999.03373 3.2106.08423 4.837947.007.212317-2.51044 3.810165-2.50166 4.025595-.0681.619994-.78983 1.687799 2.43035 2.360579l-.00052-.01912c-1.14425-2.32709-.74877-2.854217.07751-2.948141.69754-.07929.92875.531777 1.02475 1.536857.0475.49735.76315.536052.81132.101286.0165-.467372-.23481-1.178817.69866-1.287777.67557-.07886.8735 1.199756.5302 2.449463 0 0 2.21041-.016002 2.17506-.120923-1.32193-1.899903-1.33033-3.596868-.49351-3.860229.96147-.30259 1.65886 1.002857 1.97818 3.399792.0149.112617.08265.23419.19327.200505.67256-.351875.85289-.60525.78134-.872298-.0336-.26453-1.62343-4.946345-1.65364-5.18263-.42823-3.350323-.51756-3.947521-.38809-4.244702 1.31009-1.117314 1.70737-1.415271 3.06183-1.18184 4.20914.591254 4.57016 1.649739 5.68079.120923.97763-1.415549 1.116-1.971121-1.15497-3.867464-1.22708-1.024662-2.33495-2.492722-2.99982-3.641121-.22374-.386454-.1868-1.030263.12609-.911573 1.7235.09609 2.79643 1.960563 4.12172.961699.82334-.620556.336-2.525339-1.7446-3.889169-2.08552-1.367051-4.19374-3.807953-5.2648-5.358846-.29441-.40038-.81238-1.084523.05375-1.194759l2.09496.698149c1.19592-.411142 1.5873-1.076465.8599-2.094963-3.20961-3.769014-3.21247-5.167168-4.08244-9.776147-.14894-.791355-.41622-1.106449-.75086-1.103292zm161.31212.359668c-.55776.0052-1.30335.894405-2.00247 1.935799-.35557.369385-.89508 3.541726-1.43712 5.237406-.65212 1.05272-1.71866 1.109941-2.57813 1.665015-2.01621 1.789817.67604 3.051715.68264 3.708818.0835.742876-.31057.909505-.31057.909505-2.08906 1.106978-3.54801 2.753733-5.31389 4.137732-1.84317 1.696289-1.75948 2.991596-.98444 3.345015.6621.30192 2.86688-.468112 2.48874.361219.0594 1.258362-2.31001 2.183236-3.6127 3.142443-2.36554 1.741795-2.46694.931201-2.99465 3.948597-.45853 2.85569 3.05752 1.145302 6.54017 1.798856l3.77341.671794c.0407 1.661999.03374 3.2106.08424 4.837947.007.212317-2.51044 3.810164-2.50166 4.025594-.0681.619994-.78984 1.6878 2.43034 2.36058l-.00051-.01912c-1.14425-2.32709-.74877-2.854217.07751-2.948141.69754-.07929.92874.531777 1.02474 1.536857.0475.49735.76315.536052.81132.101286.0165-.467372-.2348-1.178817.69867-1.287777.67557-.07886.8735 1.199756.5302 2.449463 0 0 2.21041-.016002 2.17506-.120923-1.32193-1.899903-1.33033-3.596868-.49351-3.860229.96147-.30259 1.65885 1.002857 1.97817 3.399792.0149.112617.08265.233673.19327.199988.67256-.351875.8529-.604733.78135-.871781-.0336-.26453-1.62343-4.946345-1.65364-5.18263-.42823-3.350323-.51756-3.947521-.38809-4.244702 1.31009-1.117314 1.70736-1.415271 3.06182-1.18184 4.20914.591254 4.57017 1.649739 5.6808.120923.97763-1.415549 1.116-1.971121-1.15497-3.867464-1.22708-1.024662-2.33495-2.493239-2.99982-3.641638-.22374-.386454-.1868-1.029746.12609-.911056 1.7235.09609 2.79642 1.960563 4.12171.961699.82334-.620556.33601-2.525339-1.74459-3.889169-2.08552-1.367051-4.19374-3.807953-5.2648-5.358846-.29441-.40038-.81239-1.084523.05374-1.194759l2.09497.698149c1.19592-.411142 1.58729-1.076465.85989-2.094963-3.20961-3.769014-3.21298-5.167685-4.08295-9.776664-.14894-.791355-.4157-1.105932-.75034-1.102775zM52.589555 42.805656c-.231395.015505-.480355.132457-.686263.391707-.62223.78345-1.177365 1.436428-1.677417 2.443262-.597124 1.202262.838672 1.846121 1.509985.683679l1.488281-2.57607c.29975-.519043-.125517-.97669-.634586-.942578zM37.460246 44.04434c-.364048.01253-.614914.477622-.359151 1.1467.409224 1.070531.503886 1.107553.731221 1.502751.446467.776162 1.673407.215111 1.16582-.664559l-.845426-1.465027c-.214807-.37225-.474034-.527399-.692464-.519865zm169.976704 1.380278c-.23139.015505-.47984.132973-.68575.392224-.62223.78345-1.17788 1.435911-1.67793 2.442745-.59712 1.202262.83868 1.846638 1.50999.684196l1.48828-2.576071c.29975-.519042-.12552-.977206-.63459-.943094zm-15.12931 1.238684c-.36405.01253-.61491.478138-.35915 1.147216.40923 1.070531.50388 1.107553.73122 1.502751.44646.776162 1.67341.215111 1.16582-.664559l-.84491-1.465027c-.2148-.37225-.47455-.527915-.69298-.520381zM126.8119 60.297611c-.2314.015506-.48036.132974-.68627.392225-.62223.78345-1.17736 1.435911-1.67741 2.442745-.59712 1.202262.83867 1.846121 1.50998.683679l1.48777-2.575554c.29975-.519042-.125-.977206-.63407-.943095zm161.31212.359668c-.2314.015506-.48036.132974-.68627.392225-.62223.78345-1.17736 1.435911-1.67741 2.442745-.59712 1.202262.83867 1.846121 1.50998.683679l1.48777-2.575554c.29975-.519042-.12501-.977206-.63407-.943095zm-176.44143.879017c-.36405.01253-.61491.477622-.35915 1.1467.40923 1.070531.50388 1.107552.73122 1.50275.44646.776162 1.67341.215111 1.16582-.664559l-.84543-1.465027c-.2148-.37225-.47403-.527398-.69246-.519864zm161.31212.359668c-.36405.01253-.61491.477622-.35915 1.1467.40923 1.070531.50388 1.107552.73122 1.50275.44646.776162 1.67341.215111 1.16582-.664559l-.84543-1.465027c-.2148-.37225-.47403-.527398-.69246-.519864z" style="opacity:1;fill:url(#h);fill-opacity:1;stroke:none;stroke-width:.999998;stroke-linecap:round;stroke-linejoin:round;stroke-opacity:1"/><path d="M325.08918 21.064099c1.05638-7.87745 5.56962-7.400566 10.53689-5.826444 3.60057-5.5138307 8.98196-5.192578 12.39638.495868 10.41984-6.0979848 12.28445 1.485712 12.27239 5.330576 8.62038.03804 8.25636 5.558123 6.32215 10.661154 2.38708 3.473871 5.59155 6.849655 0 11.280987 4.01476 4.190846 3.01802 11.825974-4.95855 12.272722 1.70844 4.859868-4.27241 12.453406-11.28069 6.818179-1.62077 5.499148-11.49853 7.009107-14.99959.867767-7.83476 6.053274-14.81116-.621096-13.26411-6.570244-5.80101.938117-8.36547-6.331036-4.21478-11.528922-6.81617-2.553071-5.73756-11.847831 1.48757-12.644622-3.90287-2.016005-4.58485-14.092651 5.70234-11.157021z" style="fill:#100d0b;fill-opacity:1;stroke:#ede0dc;stroke-width:1;stroke-linecap:square;stroke-linejoin:round;stroke-dasharray:none;stroke-opacity:1"/><path d="M347.78859 21.159432c-4.47713.204398-8.9593.03124-13.43742.208773-2.09234.102836-5.23517.872894-5.34231 2.828251l-.62839 11.469584c.0398 3.60174.71503 4.283527 1.33067 4.926314.28632.298946 1.25348 1.390647 4.16874 1.672766 1.25239.121198 15.99073.279352 16.42277.11989 1.31927-.486935 2.33503-.342259 2.82825-1.801957 1.92165-5.687174 1.12879-9.227264 1.33532-13.896827.0423-.956015-.46469-3.00974-1.93167-4.222998-.72826-.602309-3.24269-1.286202-4.74596-1.303796zM329.50133 43.93892c-.48979.0075-.96446.0724-1.57303.156063-.7027.09661-1.16755.589751-1.19269.929659l-.24029 3.250448c-.0415.561708.47139 1.015537.8294 1.033011l4.48707.219108c.0173.000843.0378-.0052.0594-.01395.67749.953488 1.37033 1.322549 3.14606 1.477429-.11744 3.138033-.0519 4.483934-.0703 4.63951-.0181.153259.33247.519462.70693.471289.31168-.0401 3.0844-.147938 3.37809-.235644.15102-.0451.26966-.270876.31419-.864547l.23616-3.142444c.0449-.543778 2.11167-.672795 2.2779-.07855.0275.0049-.0796 2.661225 0 3.771346.0225.314524.3163.661855.62839.706934.77929.112562 2.50124.04998 2.56005.03669.54906-.124097.54119-.506732.54983-.86403 0 0 .19333-2.743402.29869-5.533513.14804-.02192 1.08221-.52877 2.55644-1.337386.91251.603875 1.94978 1.174976 3.45715 1.623674.57131.321759.97321-.29917.39998-.617533l-2.81224-1.56838c.94379-.492586 1.91145-.944431 2.95073-1.273307.64031-.298362.12042-1.158605-.42375-.906405-2.18946.648777-4.07162 1.73679-6.0818 2.641699.0245-1.013622.03-1.970337.002-2.728515-.0158-.421947-.20617-1.094901-.62838-1.100192-2.5575-.03205-5.08091-.184035-8.79843-.235644-1.13654.07778-1.14058.274168-1.16892.668176-.13442 1.868993-.22465 3.43957-.28577 4.756816-1.08379-.06579-1.91608-.243911-2.50786-1.100192.27922-.511478.36052-3.52747.25373-3.695898-.18182-.286759-.27436-.548231-1.02784-.747241-.99594-.263046-1.65075-.348161-2.28049-.338481z" style="display:inline;fill:#ede0dc;stroke:none;stroke-width:1;stroke-linecap:round;stroke-linejoin:round"/></svg>