<?xml version="1.0" encoding="UTF-8" standalone="no"?>
<svg
   width="401.2952mm"
   height="72.162743mm"
   viewBox="0 0 401.29519 72.162745"
   version="1.1"
   id="svg5"
   sodipodi:docname="toem-h2-4.svg"
   inkscape:version="1.4 (86a8ad7, 2024-10-11)"
   xml:space="preserve"
   xmlns:inkscape="http://www.inkscape.org/namespaces/inkscape"
   xmlns:sodipodi="http://sodipodi.sourceforge.net/DTD/sodipodi-0.dtd"
   xmlns:xlink="http://www.w3.org/1999/xlink"
   xmlns="http://www.w3.org/2000/svg"
   xmlns:svg="http://www.w3.org/2000/svg"><sodipodi:namedview
     id="namedview5"
     pagecolor="#1a0b00"
     bordercolor="#000000"
     borderopacity="0.25"
     inkscape:showpageshadow="2"
     inkscape:pageopacity="0.0"
     inkscape:pagecheckerboard="0"
     inkscape:deskcolor="#d1d1d1"
     inkscape:document-units="mm"
     inkscape:zoom="1"
     inkscape:cx="585"
     inkscape:cy="81"
     inkscape:current-layer="layer3"
     showgrid="false" /><defs
     id="defs2"><linearGradient
       id="linearGradient63"
       inkscape:collect="always"><stop
         style="stop-color:#efe3e0;stop-opacity:0.37;"
         offset="0"
         id="stop63" /><stop
         style="stop-color:#efe3e0;stop-opacity:0.07;"
         offset="1"
         id="stop64" /></linearGradient><linearGradient
       id="a"><stop
         offset="0"
         style="stop-color:#fff;stop-opacity:.24685138"
         id="stop1" /><stop
         offset="1"
         style="stop-color:#fff;stop-opacity:0"
         id="stop2" /></linearGradient><linearGradient
       xlink:href="#a"
       id="b"
       x1="131.21992"
       x2="131.21992"
       y1="39.617489"
       y2="98.236984"
       gradientTransform="translate(1.9145932 4.2397009)"
       gradientUnits="userSpaceOnUse" /><linearGradient
       xlink:href="#a"
       id="b-0"
       x1="131.21992"
       x2="131.21992"
       y1="39.617489"
       y2="98.236984"
       gradientTransform="translate(78.203318,1.0237197)"
       gradientUnits="userSpaceOnUse" /><linearGradient
       xlink:href="#linearGradient123"
       id="b-0-4"
       x1="131.21992"
       x2="131.21992"
       y1="39.617489"
       y2="98.236984"
       gradientTransform="translate(80.472981,-29.510046)"
       gradientUnits="userSpaceOnUse" /><linearGradient
       id="linearGradient123"><stop
         offset="0"
         style="stop-color:#ffffff;stop-opacity:0.18000001;"
         id="stop122" /><stop
         offset="1"
         style="stop-color:#fff;stop-opacity:0"
         id="stop123" /></linearGradient><linearGradient
       xlink:href="#a-0"
       id="d"
       x1="96.209137"
       x2="97.910507"
       y1="31.542"
       y2="91.952187"
       gradientTransform="translate(80.472983,-29.510047)"
       gradientUnits="userSpaceOnUse" /><linearGradient
       id="a-0"><stop
         offset="0"
         style="stop-color:#fff;stop-opacity:.28999999"
         id="stop3" /><stop
         offset="1"
         style="stop-color:#fff;stop-opacity:.06801008"
         id="stop4" /></linearGradient><linearGradient
       inkscape:collect="always"
       xlink:href="#linearGradient63"
       id="linearGradient64"
       x1="168.24846"
       y1="5.8170276"
       x2="169.27357"
       y2="64.554527"
       gradientUnits="userSpaceOnUse" /></defs><g
     inkscape:groupmode="layer"
     id="layer1"
     inkscape:label="Layer 3"
     transform="translate(2.1166727,-30.956249)"
     sodipodi:insensitive="true"><path
       d="m 12.139338,79.746474 c 2.911315,-6.81575 7.210558,-12.22422 10.111939,-19.047891 3.115677,-8.742346 2.601442,-17.733437 -3.501739,-26.570288 -1.026992,-1.210502 -9.37362,-6.705041 -16.358588,0.391097 -7.386436,8.38556 -5.176506,28.963599 2.862716,28.249524 6.517434,0.428252 10.006186,-5.073928 10.006964,-11.141531 0.450902,-7.062221 -8.207975,-8.414121 -9.954687,-4.035553 -1.38071,5.141783 1.05134,5.51665 3.194425,2.581213 -0.594543,-1.884283 3.243096,-3.94606 3.266575,1.437505 0.192724,4.125645 -2.092333,7.489736 -4.498532,9.376161 C -2.431068,61.071561 0.563751,40.78225 6.012954,34.706985 13.498138,28.868802 19.825592,39.97411 20.480537,46.919449 21.480006,65.967119 10.15479,69.012708 6.41886,85.160376 5.526271,88.881206 7.327724,91.194318 4.8078,97.3777 16.896353,93.471058 4.75434,90.873562 12.139338,79.746474 Z"
       style="fill:#ede0dc;fill-opacity:1;stroke-width:0.2;stroke-linecap:round;stroke-linejoin:round"
       id="path3" /><path
       d="m 11.527368,31.436344 c 34.619789,6.572411 66.437089,1.622228 101.448422,5.760914 33.21826,-0.513588 105.56822,-2.629388 111.32897,-2.631164 30.87207,-0.0095 56.72588,4.455745 77.7313,5.817536 8.16762,1.009522 38.91286,0.408472 36.66551,0.417466 16.9701,0.667818 27.29944,0.483142 41.79251,-4.03467 -0.74347,-2.724925 -16.25948,1.939482 -18.74665,2.173975 -5.51481,0.51994 -18.93087,-0.424075 -28.87586,0.0081 -45.94152,-0.932598 -82.22194,-10.796744 -141.81076,-5.071168 -29.67255,-0.58207 -27.9126,0.943994 -36.69402,0.705514 C 109.16785,35.08779 84.776721,32.417783 24.605074,32.624976 20.177676,31.52563 16.036852,30.239437 11.527368,31.436344 Z"
       style="fill:#ede0dc;fill-opacity:1;stroke-width:0.2;stroke-linecap:round;stroke-linejoin:round"
       id="path4" /><path
       d="m 393.70357,103.11899 c -1.54895,-7.57828 -1.23051,-15.7666 -3.80082,-22.97693 -2.84472,-6.84938 -9.11455,-9.97974 -11.34466,-17.386126 -2.6608,-9.619962 -4.14341,-25.527702 8.17137,-28.690039 11.92343,2.875716 9.57188,12.200073 8.36174,16.711413 -1.9106,10.221564 -9.70015,4.625827 -7.62066,-3.605989 6.86869,-2.077234 -1.97667,-8.475889 -3.36129,-0.942798 -1.32985,2.743145 -0.86661,6.587216 0.41444,9.22749 2.61849,6.375051 10.40834,5.092822 12.04305,0.330037 2.39406,-3.988852 4.97938,-15.067601 -1.35347,-21.59495 -4.24275,-2.902486 -12.02377,-3.155708 -16.64669,0.759517 -8.36312,6.903651 -4.94588,22.87426 -4.50674,24.761934 2.20683,12.35408 11.32159,13.970087 13.26818,24.364161 1.9439,5.773049 -3.57644,17.07889 6.37555,19.04224 z"
       style="fill:#ede0dc;fill-opacity:1;stroke-width:0.2;stroke-linecap:round;stroke-linejoin:round"
       id="path5" /></g><g
     inkscape:groupmode="layer"
     id="layer2"
     inkscape:label="Layer 2"
     transform="translate(-0.15299028,-0.42248501)"><path
       d="m 8.2724077,65.787756 387.3882423,6.29594 c -5.51155,-36.487797 -10.1444,-22.26044 -17.98828,-45.262187 4.02493,-0.166513 9.76915,0.895033 15.42697,1.894869 5.98301,1.578636 17.34352,-37.8732187 -13.48517,-23.2047487 C 345.23511,14.537139 292.508,5.2438783 250.65127,1.9434863 164.81259,5.9530133 88.067366,4.5738303 15.153827,0.92401632 -0.76555837,1.7865513 -0.13089837,18.763579 3.7132326,29.488284 4.9896696,34.210775 11.725242,30.009412 22.069085,30.718211 12.4674,48.472916 11.350865,47.254786 8.2724077,65.787756 Z"
       style="display:inline;fill:url(#b-0-4);fill-opacity:1;stroke:none;stroke-width:0.2;stroke-linecap:round;stroke-linejoin:round;stroke-opacity:0.367758"
       id="path1"
       inkscape:label="bg"
       sodipodi:insensitive="true" /></g><g
     inkscape:groupmode="layer"
     id="layer3"
     inkscape:label="object"><path
       id="path23"
       style="fill:url(#linearGradient64);fill-opacity:1;stroke:none;stroke-width:1;stroke-linecap:round;stroke-linejoin:round;stroke-dasharray:none;stroke-opacity:1"
       d="m 93.262556,12.830433 c -1.54798,-0.06038 -6.84519,0.787262 -11.94243,0.290939 -1.29783,-0.08553 -2.10481,1.23151 -1.99522,2.410188 -0.083,3.866858 -0.16608,7.733467 -0.24908,11.600325 -2.887715,0.726261 -4.859473,0.292435 -5.39502,0.505394 l 0.23099,-3.168799 c -0.37778,-1.429048 -0.93482,-3.72165 -1.40301,-3.741374 l -18.147733,0.84181 c -1.226208,0.305094 -1.19594,1.049729 -1.309481,1.590083 l -0.187069,35.079002 c -0.01606,0.453384 1.125641,1.479306 1.683618,1.403532 0.463469,-0.06294 17.561205,-1.194965 16.931785,-1.777669 l 2.11925,-29.098999 c 0.654578,0.523399 4.126445,0.156769 6.30452,-0.366903 0.82757,-0.327149 0.49437,-1.289341 0.58705,-1.978174 0.0971,-3.780324 0.13252,-7.564567 0.26872,-11.342459 0.3367,-1.128623 1.73524,-0.222524 2.682,-0.419613 3.2615,0.130914 6.51098,-0.264444 9.76168,-0.425297 1.4253,0.0081 0.63469,1.965831 0.78755,2.894913 0.17489,6.840534 -1.86794,13.929322 -0.68833,20.748605 -2.7866,-0.223728 -5.28544,-0.55399 -6.65644,-0.29869 -1.07239,0.200185 -1.84907,1.438617 -1.81023,2.642732 l 0.12299,5.334042 -3.44527,0.0036 c -0.95573,-0.0081 -1.59889,0.785567 -1.68361,1.861385 0.0921,2.675143 0.18705,5.350759 0.28112,8.025867 0.0311,0.915481 1.43118,0.866301 1.39836,-0.04909 l -0.27905,-7.97264 c -0.0153,-0.316389 0.0657,-0.367628 0.23823,-0.466638 1.4022,0.0032 2.80467,-6.86e-4 4.20697,-0.0021 0.39293,-3.65e-4 0.70858,-0.323932 0.69919,-0.716752 l -0.14056,-6.056478 c 10e-6,-0.0026 10e-6,-0.0052 0,-0.0078 -0.0214,-0.66381 0.44369,-1.178919 0.66972,-1.221114 1.8802,-0.350123 8.92331,1.024802 13.471014,0.322461 0.34358,-0.05278 0.5964,-0.349518 0.59376,-0.697116 l -0.047,-5.113383 v -0.0098 c 1.199,-0.273855 3.41186,-0.02115 4.9041,0.02739 0.17184,1.183994 -0.0341,3.184495 -0.0837,4.607471 -0.0153,0.402043 0.31036,0.73423 0.71262,0.726571 l 6.03529,-0.10387 c 0.25537,-0.02269 0.33662,0.152798 0.42995,1.156519 2.3e-4,0.01434 5.7e-4,0.02859 0.002,0.04289 0.44004,5.00887 0.35552,10.992458 1.40043,15.210958 0.22166,0.88719 1.57917,0.549716 1.35961,-0.337964 -0.96152,-3.881819 -0.91757,-9.845286 -1.36322,-14.953092 -0.0648,-2.495195 -1.51924,-2.543859 -1.79111,-2.531112 l -5.35729,0.101286 0.14056,-3.796668 c 8.7e-4,-0.0098 0.002,-0.01967 0.002,-0.02946 -0.007,-0.849328 -0.52707,-1.358136 -1.32809,-1.484147 -1.61753,-0.06419 -3.23599,-0.115703 -4.85397,-0.166398 -0.96458,-0.0074 -1.537414,0.568053 -1.607124,1.494482 0.008,1.500506 0.02496,3.00146 0.03876,4.502051 -1.54705,0.172162 -3.18138,0.144647 -4.77336,0.05374 -0.9669,-14.344453 0.45054,-7.725674 0.65681,-23.067325 0.12185,-1.639228 -1.536017,-2.125596 -2.18325,-2.077312 z m -5.13406,6.973222 c -0.14476,0.830363 -0.07412,2.201701 0.05478,3.212207 0.12077,0.770522 2.50548,1.088607 2.36988,-0.122473 0.0835,-1.841451 0.23787,-2.136105 0.16382,-3.046326 -0.07681,-1.41249 -2.23823,-1.556773 -2.58848,-0.04341 z m -4.59455,0.136423 c -0.13419,1.403868 -0.06061,2.359202 0.08269,3.241146 0.57862,1.023823 2.34749,0.620362 2.53007,-0.132291 0.0544,-0.05407 -0.02999,-2.024616 -0.19843,-3.604948 -0.14876,-0.882621 -2.403604,-1.058975 -2.41433,0.496093 z M 70.45361,24.946493 c 0.208419,0.449339 0.108254,2.762543 0.02325,3.1719 -0.242752,1.169185 -2.381339,0.655052 -2.338359,-0.112138 -0.008,-1.520178 0.02366,-2.637945 0.140043,-2.902149 0.371372,-1.240834 2.021188,-1.095895 2.175066,-0.157613 z m -8.119401,0.119886 c 0,-0.0059 0.138036,2.778659 0.09922,2.94349 -0.414746,1.761077 -2.129043,1.094974 -2.61276,-0.09922 -0.07083,-0.405205 -0.11136,-1.942523 0.03307,-2.513541 0.171527,-1.289782 2.068956,-1.510553 2.48047,-0.330729 z m -4.134114,-0.06609 c 0.149495,1.226617 0.102523,2.182812 -0.132292,3.274218 -0.312536,0.633237 -1.495448,1.348334 -2.248958,0.03307 -0.110985,-0.637643 -0.225047,-2.059907 0.03307,-2.943489 0.700196,-1.506265 2.076713,-1.172743 2.34818,-0.363799 z m 8.06049,0.0279 c 0.172792,0.03413 0.353282,2.433216 -0.04134,2.995166 -0.608951,0.867153 -1.787528,0.465385 -1.999878,-0.24753 -0.08973,-0.829538 -0.116035,-1.738747 0.06615,-2.397787 0.331679,-0.892822 1.338743,-1.466066 1.975068,-0.349849 z M 277.96598,16.562297 c -0.12797,0.733724 -0.0653,1.945684 0.0486,2.838586 0.10675,0.680847 2.21376,0.961608 2.09393,-0.108521 0.0738,-1.62714 0.21014,-1.88702 0.1447,-2.691308 -0.0693,-1.276963 -1.98336,-1.351685 -2.28723,-0.03876 z m -4.0597,0.120924 c -0.11858,1.240484 -0.0537,2.084605 0.0729,2.863908 0.51128,0.904668 2.0742,0.547754 2.23552,-0.117305 0.0481,-0.04778 -0.0263,-1.788924 -0.17518,-3.185336 -0.1319,-0.782943 -2.12378,-0.932974 -2.13324,0.438733 z m -23.00635,-3.757393 c -0.0724,-0.0025 -0.1454,-0.0013 -0.21859,0.0041 -1.54798,-0.06038 -6.84518,0.787262 -11.94242,0.290938 -1.29783,-0.08553 -2.10482,1.23151 -1.99523,2.410189 -0.083,3.866858 -0.16608,7.733467 -0.24908,11.600325 -2.88772,0.726261 -4.85947,0.292435 -5.39502,0.505394 l 0.23099,-3.168799 c -0.37778,-1.429048 -0.93482,-3.72165 -1.40301,-3.741374 l -18.14773,0.841809 c -1.22621,0.305094 -1.19594,1.04973 -1.30948,1.590084 l -0.18707,35.078996 c -0.0161,0.453384 1.12564,1.479306 1.68362,1.403532 0.46347,-0.06294 17.5612,-1.194965 16.93178,-1.777669 l 2.11925,-29.098999 c 0.65458,0.523399 4.12645,0.156769 6.30453,-0.366903 0.82757,-0.327149 0.49436,-1.289341 0.58704,-1.978174 0.0971,-3.780324 0.13252,-7.564567 0.26872,-11.34246 0.3367,-1.128622 1.73524,-0.222524 2.682,-0.419613 3.2615,0.130914 6.51098,-0.264443 9.76168,-0.425297 1.4253,0.0081 0.63469,1.965831 0.78755,2.894914 0.17489,6.840534 -1.86794,13.929321 -0.68833,20.748604 -2.7866,-0.223728 -5.28544,-0.553989 -6.65644,-0.298689 -1.07239,0.200185 -1.84907,1.438617 -1.81023,2.642732 l 0.12299,5.334042 -3.44526,0.0036 c -0.95573,-0.0081 -1.5989,0.785567 -1.68362,1.861385 0.0921,2.675143 0.18705,5.350759 0.28112,8.025867 0.0311,0.915481 1.43118,0.866301 1.39836,-0.04909 l -0.27905,-7.97264 c -0.0153,-0.316389 0.0657,-0.367628 0.23823,-0.466638 1.4022,0.0032 2.80468,-6.86e-4 4.20698,-0.0021 0.39293,-3.65e-4 0.70857,-0.323932 0.69918,-0.716752 l -0.14056,-6.056478 c 1e-5,-0.0026 1e-5,-0.0052 0,-0.0078 -0.0214,-0.66381 0.44369,-1.178919 0.66972,-1.221114 1.8802,-0.350123 8.92331,1.024801 13.47102,0.32246 0.34358,-0.05278 0.5964,-0.349517 0.59376,-0.697115 l -0.047,-5.113383 v -0.0098 c 1.199,-0.273855 3.41186,-0.02115 4.9041,0.02739 0.17184,1.183994 -0.0341,3.184495 -0.0837,4.607471 -0.0153,0.402043 0.31036,0.73423 0.71262,0.726571 l 6.03529,-0.10387 c 0.25537,-0.02269 0.33662,0.152798 0.42995,1.156519 2.3e-4,0.01434 5.7e-4,0.02859 0.002,0.04289 0.44004,5.00887 0.35553,10.992458 1.40044,15.210958 0.22166,0.88719 1.57916,0.549716 1.3596,-0.337964 -0.96152,-3.881819 -0.91757,-9.845286 -1.36322,-14.953092 -0.0648,-2.495195 -1.51924,-2.543859 -1.79111,-2.531112 l -5.35729,0.101286 0.14056,-3.796668 c 8.7e-4,-0.0098 0.002,-0.01967 0.002,-0.02945 -0.007,-0.849328 -0.52706,-1.358136 -1.32808,-1.484147 -1.61753,-0.06419 -3.23599,-0.115703 -4.85397,-0.166398 -0.96459,-0.0074 -1.53742,0.568053 -1.60713,1.494482 0.008,1.500506 0.0244,3.00146 0.0382,4.502051 -1.54705,0.172162 -3.18138,0.144647 -4.77336,0.05374 -0.9669,-14.344453 0.45054,-7.725674 0.65681,-23.067326 0.084,-1.130038 -2.7288,-2.853056 -1.96422,-2.081526 z m -57.39288,4.863269 c -0.10699,0.441727 -0.0548,1.170864 0.0403,1.708423 0.0892,0.409892 1.85098,0.579143 1.7508,-0.06511 0.0617,-0.979594 0.17562,-1.136366 0.12092,-1.620573 -0.16998,-0.811913 -1.67163,-0.770767 -1.91202,-0.02274 z m -3.39411,0.07235 c -0.0991,0.746815 -0.0448,1.255276 0.061,1.724443 0.42743,0.544641 1.73427,0.329595 1.86914,-0.0708 0.0402,-0.02876 -0.0223,-1.077025 -0.14676,-1.917713 -0.11114,-0.475389 -1.7755,-0.558292 -1.78338,0.26407 z M 62.152308,30.866545 c 0.208419,0.449339 0.108254,2.762543 0.02325,3.1719 -0.242752,1.169185 -2.381339,0.655052 -2.338359,-0.112138 -0.008,-1.520178 0.02366,-2.637945 0.140043,-2.902149 0.371372,-1.240832 2.021188,-1.095894 2.175066,-0.157613 z m 8.350912,-0.0124 c 0.149495,1.226617 0.102523,2.182813 -0.132292,3.274219 -0.312536,0.633237 -1.495448,1.348334 -2.248958,0.03307 -0.110985,-0.637643 -0.225047,-2.059908 0.03307,-2.94349 0.700194,-1.506261 2.076713,-1.172744 2.34818,-0.363799 z m -4.24987,0.09922 c 0.05897,0.886729 0.127066,1.965812 -0.148828,3.175 -0.176389,0.386939 -1.477257,0.819158 -1.819011,-0.09922 -0.14592,-0.785513 -0.214902,-1.936984 -0.04961,-2.877344 0.318776,-1.134212 1.744996,-1.14582 2.017449,-0.198436 z m 90.04874,-9.034286 c -0.0995,0.570487 -0.0513,1.512849 0.0372,2.2071 0.083,0.529374 1.7215,0.747816 1.62833,-0.08423 0.0574,-1.265138 0.16353,-1.467543 0.11265,-2.092895 -0.0906,-1.667706 -1.69897,-0.372203 -1.77818,-0.02998 z m 7.14375,0 c -0.0995,0.570487 -0.0513,1.512849 0.0372,2.2071 0.083,0.529374 1.7215,0.747816 1.62833,-0.08423 0.0574,-1.265138 0.16353,-1.467543 0.11265,-2.092895 -0.0906,-1.667707 -1.69897,-0.372202 -1.77818,-0.02998 z m -10.30067,0.09405 c -0.0922,0.964504 -0.0416,1.620812 0.0568,2.226737 0.39753,0.7034 1.61296,0.426148 1.73839,-0.09095 0.0374,-0.03715 -0.0207,-1.391111 -0.13642,-2.476852 -0.24794,-0.677603 -1.65193,-0.651322 -1.65877,0.341065 z m 7.14375,0 c -0.0922,0.964504 -0.0416,1.620812 0.0568,2.226737 0.39753,0.7034 1.61296,0.426148 1.73839,-0.09095 0.0374,-0.03715 -0.0207,-1.391111 -0.13642,-2.476852 -0.24794,-0.677603 -1.65193,-0.651322 -1.65877,0.341065 z m -102.197346,9.10043 c 0.172792,0.03413 0.353282,2.433216 -0.04134,2.995166 -0.608951,0.867153 -1.787528,0.465384 -1.999878,-0.247531 -0.08973,-0.829538 -0.116034,-1.738746 0.06615,-2.397786 0.331686,-0.892838 1.338752,-1.466055 1.975068,-0.349849 z M 193.70807,22.569165 c -0.10699,0.441727 -0.0548,1.171381 0.0403,1.70894 0.0892,0.409892 1.85098,0.579142 1.7508,-0.06511 0.0617,-0.979594 0.17562,-1.136366 0.12092,-1.620573 -0.17003,-0.812383 -1.6716,-0.771369 -1.91202,-0.02326 z m -3.39411,0.07286 c -0.0991,0.746815 -0.0448,1.254759 0.061,1.723926 0.42743,0.544641 1.73427,0.330112 1.86914,-0.07028 0.0402,-0.02876 -0.0223,-1.077025 -0.14676,-1.917713 -0.11025,-0.471582 -1.77547,-0.560798 -1.78338,0.264067 z m 55.23333,-2.738851 c -0.14476,0.830363 -0.0741,2.201701 0.0548,3.212207 0.12077,0.770522 2.50548,1.088606 2.36988,-0.122474 0.0835,-1.841451 0.23787,-2.136104 0.16382,-3.046325 -0.0786,-1.444658 -2.24444,-1.530036 -2.5885,-0.04341 z m -4.59456,0.136422 c -0.13419,1.403868 -0.0606,2.359202 0.0827,3.241146 0.57862,1.023823 2.34749,0.620362 2.53007,-0.132291 0.0544,-0.05407 -0.03,-2.024616 -0.19843,-3.604948 -0.14932,-0.885955 -2.40364,-1.055869 -2.41434,0.496093 z m 37.17861,5.449797 c -0.12797,0.733724 -0.0653,1.945685 0.0486,2.838587 0.10675,0.680847 2.21376,0.961608 2.09393,-0.108521 0.0738,-1.62714 0.21013,-1.887537 0.14469,-2.691825 -0.0693,-1.275632 -1.98317,-1.351951 -2.28722,-0.03824 z m -4.0597,0.120409 c -0.11858,1.240484 -0.0537,2.084605 0.0729,2.863908 0.51128,0.904668 2.0742,0.54827 2.23552,-0.116789 0.0481,-0.04778 -0.0263,-1.788923 -0.17518,-3.185335 -0.13187,-0.782799 -2.12378,-0.933107 -2.13324,0.438216 z M 36.797237,15.663128 c -1.7e-5,1.348091 0.08253,3.680485 0.479557,4.171322 1.115314,0.99914 1.868869,0.27383 2.420525,-0.127124 0.309153,-1.241713 0.230258,-3.407477 0.09353,-4.224032 0.0094,-1.048445 -2.821141,-0.998688 -2.993612,0.179834 z m 4.957837,0.193787 c -0.167686,1.483929 -0.03152,2.570213 0.03462,3.937227 0.233412,0.993014 2.510774,0.537594 2.513542,0 0.01102,-1.51033 -0.04582,-3.12086 -0.03721,-4.250386 0.0034,-0.447287 -2.484347,-1.488764 -2.510952,0.313159 z m -9.504329,0.420646 c 0.201163,0.615519 -0.02233,3.002906 0.193786,3.821989 0.09553,0.724074 2.622515,0.446133 2.529045,-0.09095 -0.01815,-0.10431 0.149775,-3.57637 0.01705,-3.985803 -0.04067,-1.807722 -3.005112,-1.214882 -2.739881,0.254764 z m 30.111886,20.536946 c 0.210787,0.22248 0.0515,2.781154 0,2.94659 -0.356048,1.143808 -2.669388,0.781019 -2.560567,-0.03514 -0.09766,-0.915304 -0.07423,-2.05044 0.03514,-2.549199 0.307218,-1.214647 1.960114,-1.175113 2.525427,-0.362251 z m -4.129463,0.158125 c -5.31e-4,0.609382 0.04415,1.467737 -0.33073,2.71198 -0.474045,0.8111 -1.543403,0.882086 -1.918229,-0.06615 -0.04102,-0.796831 -0.163551,-1.512143 0,-2.513542 0.252862,-0.83445 1.930643,-1.345345 2.248959,-0.132288 z m 8.159708,-0.03824 c 0.172792,0.03413 0.353282,2.433216 -0.04134,2.995166 -0.608951,0.867153 -1.787528,0.465385 -1.999878,-0.24753 -0.08973,-0.829538 -0.116035,-1.738747 0.06615,-2.397787 0.331686,-0.89284 1.338752,-1.466054 1.975068,-0.349849 z m 3.978052,0.203605 c -5.31e-4,0.609382 0.04415,1.467736 -0.330729,2.711979 -0.474045,0.8111 -1.543403,0.882086 -1.918229,-0.06615 -0.04102,-0.796831 -0.163551,-1.512142 0,-2.513541 0.252864,-0.834456 1.930644,-1.345335 2.248958,-0.132288 z M 227.8724,25.046014 c 0.20842,0.449339 0.1082,2.762543 0.0232,3.1719 -0.24275,1.169185 -2.38134,0.655052 -2.33836,-0.112138 -0.008,-1.520178 0.0237,-2.637945 0.14004,-2.902149 0.37539,-1.254208 2.02343,-1.082556 2.17512,-0.157613 z m -8.11941,0.119886 c 0,-0.0059 0.13805,2.778659 0.0992,2.94349 -0.41475,1.761077 -2.12905,1.094974 -2.61276,-0.09922 -0.0708,-0.405205 -0.11139,-1.942523 0.0331,-2.513541 0.16673,-1.253749 2.05916,-1.538603 2.48046,-0.330729 z m -4.13411,-0.0661 c 0.1495,1.226617 0.10253,2.182812 -0.13229,3.274218 -0.31254,0.633237 -1.49545,1.348334 -2.24896,0.03307 -0.11098,-0.637643 -0.22508,-2.059907 0.0331,-2.943489 0.42274,-0.866731 1.95655,-1.530703 2.34815,-0.363799 z m 8.06049,0.02791 c 0.17279,0.03413 0.35324,2.433216 -0.0413,2.995166 -0.60895,0.867153 -1.78753,0.465385 -1.99988,-0.24753 -0.0897,-0.829538 -0.11598,-1.738747 0.0661,-2.397787 0.3417,-0.9681 1.35862,-1.431202 1.97508,-0.349849 z m -67.24913,3.732589 c -0.0995,0.570487 -0.0508,1.512332 0.0377,2.206584 0.083,0.529374 1.72149,0.748333 1.62832,-0.08372 0.0574,-1.265138 0.16354,-1.468062 0.11266,-2.093413 -0.11808,-0.987559 -1.54479,-1.040014 -1.77868,-0.02945 z m 7.14375,0 c -0.0995,0.570487 -0.0508,1.512332 0.0377,2.206584 0.083,0.529374 1.72149,0.748333 1.62832,-0.08372 0.0574,-1.265138 0.16354,-1.468062 0.11266,-2.093413 -0.11808,-0.987559 -1.54479,-1.040014 -1.77868,-0.02945 z m -10.30014,0.09353 c -0.0922,0.964505 -0.0416,1.620813 0.0568,2.226738 0.39753,0.703399 1.61245,0.426146 1.73788,-0.09095 0.0374,-0.03715 -0.0202,-1.390593 -0.13591,-2.476334 -0.36065,-0.662988 -1.65173,-0.680665 -1.65877,0.340546 z m 7.14375,0 c -0.0922,0.964505 -0.0416,1.620813 0.0568,2.226738 0.39753,0.703399 1.61245,0.426146 1.73788,-0.09095 0.0374,-0.03715 -0.0202,-1.390593 -0.13591,-2.476334 -0.24788,-0.677439 -1.65193,-0.651512 -1.65877,0.340546 z m 140.84205,-0.559655 c -1e-5,1.052616 0.11943,3.093033 0.37466,3.257165 0.74303,0.761888 1.45906,0.213854 1.8898,-0.09922 0.24139,-0.969554 0.17966,-2.660408 0.0729,-3.29799 -0.0426,-0.88846 -2.22998,-0.888103 -2.33736,0.140045 z m 3.87108,0.151411 c -0.13094,1.15868 -0.0247,2.006839 0.0269,3.074231 0.18225,0.775364 1.96052,0.419763 1.96268,0 0.009,-1.179296 -0.0357,-2.436705 -0.0289,-3.318661 0.006,-0.702625 -1.94211,-1.014187 -1.96068,0.24443 z m -7.42125,0.328662 c 0.15707,0.48061 -0.0173,2.344758 0.15141,2.984314 0.0746,0.565371 2.04754,0.348046 1.97456,-0.07131 -0.0142,-0.08145 0.11707,-2.792261 0.0134,-3.111954 -0.0319,-1.415363 -2.34606,-0.946301 -2.13937,0.19895 z m -200.483344,15.374426 0.26458,4.034896 c 0.68202,1.840894 3.492384,0.817689 3.505724,0.198437 0.2464,-1.093716 -0.0882,-3.527777 -0.13229,-5.291666 -0.19693,-0.995798 -3.794868,-1.33372 -3.638014,1.058333 z m 5.754684,-0.264581 c -0.0624,1.696709 -0.28288,3.87312 0.0661,4.828646 0.10448,0.41078 2.49658,0.915842 3.3073,-0.264584 -0.0662,-1.631597 -0.13229,-2.896426 -0.19844,-4.894791 -0.0542,-1.301805 -3.05401,-1.977482 -3.17496,0.330729 z M 219.57109,30.966069 c 0.20842,0.449339 0.10821,2.762543 0.0233,3.1719 -0.24276,1.169185 -2.38134,0.655052 -2.33836,-0.112138 -0.008,-1.520178 0.0237,-2.637945 0.14004,-2.902149 0.39921,-1.198137 2.01799,-1.115091 2.17502,-0.157613 z M 92.000616,44.513257 c -0.14015,1.093801 -0.17534,2.450115 -0.06615,4.167188 -0.17019,0.453604 2.13157,1.824351 3.37344,0.06615 0.28841,-1.195608 -0.02294,-3.190848 -0.06614,-4.828646 0.104313,-3.011691 -3.172008,-0.290106 -3.24115,0.595308 z M 227.92201,30.953666 c 0.14949,1.226617 0.10251,2.182813 -0.1323,3.274219 -0.31254,0.633237 -1.49544,1.348334 -2.24895,0.03307 -0.11099,-0.637643 -0.22508,-2.059908 0.0331,-2.94349 0.42273,-0.866726 1.95655,-1.530703 2.34815,-0.363799 z m -4.24987,0.09922 c 0.059,0.886729 0.12706,1.965812 -0.14883,3.175 -0.17639,0.386939 -1.47726,0.819158 -1.81901,-0.09922 -0.14592,-0.785513 -0.21491,-1.936984 -0.0496,-2.877344 0.31875,-1.134172 1.74497,-1.145847 2.01744,-0.198436 z m 54.59046,3.625617 c -0.12797,0.733724 -0.0658,1.945685 0.0481,2.838587 0.10675,0.680847 2.21376,0.961608 2.09393,-0.108521 0.0738,-1.62714 0.21065,-1.887537 0.14521,-2.691825 -0.0693,-1.275632 -1.98319,-1.351956 -2.28724,-0.03824 z m -4.06022,0.120925 c -0.11858,1.240484 -0.0532,2.084605 0.0734,2.863908 0.51128,0.904668 2.07421,0.547754 2.23553,-0.117305 0.0481,-0.04778 -0.0263,-1.788924 -0.17519,-3.185336 -0.13194,-0.783232 -2.12428,-0.932565 -2.13374,0.438733 z M 37.093343,22.955189 c 0.05352,1.382993 -0.02181,3.727248 0.08268,4.221965 0.0745,0.801711 2.376426,0.516853 2.298568,-0.07855 -0.01512,-0.115636 0.25308,-3.939747 0.132292,-4.395598 0.06488,-1.95185 -2.521406,0.06409 -2.51354,0.252183 z m 4.514453,-0.345712 c -0.192787,1.366931 -0.158368,3.185522 0,4.101042 0.03757,1.116434 2.324741,0.733045 2.298568,0.07855 -0.01231,-0.307757 0.534381,-3.610322 0.248047,-4.320667 -0.01319,-0.05865 -2.330346,-1.618898 -2.546615,0.141075 z m 173.902564,8.603605 c 0.17279,0.03413 0.35324,2.433216 -0.0413,2.995166 -0.60895,0.867153 -1.78753,0.465384 -1.99988,-0.247531 -0.0897,-0.829538 -0.11598,-1.738746 0.0661,-2.397786 0.36946,-1.04682 1.38921,-1.377596 1.97508,-0.349849 z m -183.277185,-8.0269 c -1.7e-5,1.324506 0.152688,3.891931 0.479557,4.098458 0.951611,0.958683 1.868868,0.268882 2.420524,-0.125057 0.309153,-1.21999 0.230257,-3.347865 0.09353,-4.150134 -0.275132,-1.203612 -2.865385,-1.029464 -2.993611,0.176733 z m 269.257465,10.90166 c 0.0418,1.079868 -0.0169,2.910672 0.0646,3.296957 0.0582,0.625992 1.85551,0.403402 1.79472,-0.0615 -0.0118,-0.09029 0.19767,-3.076411 0.10336,-3.432349 0.0297,-1.522829 -1.99629,-0.606624 -1.96268,0.196892 z m 3.52537,-0.269755 c -0.15053,1.067327 -0.12366,2.487533 0,3.202389 0.0293,0.871734 1.81515,0.572026 1.79472,0.06098 -0.01,-0.240302 0.41684,-2.818787 0.19327,-3.373438 -0.31342,-1.392445 -1.95721,-0.140398 -1.98799,0.110069 z m -148.48396,2.18695 c -0.0995,0.570487 -0.0508,1.512331 0.0377,2.206584 0.083,0.529373 1.7215,0.748333 1.62833,-0.08372 0.0574,-1.265138 0.16353,-1.468062 0.11265,-2.093412 -0.11809,-0.987572 -1.54479,-1.040011 -1.77868,-0.02945 z m 7.14375,0 c -0.0995,0.570487 -0.0508,1.512331 0.0377,2.206584 0.083,0.529373 1.7215,0.748333 1.62833,-0.08372 0.0574,-1.265138 0.16353,-1.468062 0.11265,-2.093412 -0.11809,-0.987572 -1.54479,-1.040011 -1.77868,-0.02945 z m -10.30015,0.09353 c -0.0922,0.964505 -0.0416,1.620812 0.0568,2.226737 0.39753,0.703399 1.61296,0.426147 1.73839,-0.09095 0.0374,-0.03715 -0.0207,-1.390594 -0.13643,-2.476335 -0.24787,-0.677428 -1.65192,-0.651517 -1.65876,0.340548 z m 7.14375,0 c -0.0922,0.964505 -0.0416,1.620812 0.0568,2.226737 0.39753,0.703399 1.61296,0.426147 1.73839,-0.09095 0.0374,-0.03715 -0.0207,-1.390594 -0.13643,-2.476335 -0.24787,-0.677428 -1.65192,-0.651517 -1.65876,0.340548 z m 137.17664,-1.830383 c -10e-6,1.0342 0.11891,3.039061 0.37414,3.200321 0.74304,0.748559 1.45959,0.20993 1.89033,-0.09767 0.24139,-0.952592 0.17965,-2.614201 0.0729,-3.240629 -0.0418,-0.855106 -2.22917,-0.879889 -2.33737,0.137978 z m -77.91462,2.645833 c 0.21079,0.22248 0.0515,2.781154 0,2.94659 -0.35605,1.143808 -2.66939,0.781019 -2.56057,-0.03514 -0.0977,-0.915304 -0.0742,-2.05044 0.0351,-2.549199 0.31433,-1.242746 1.97562,-1.152887 2.52547,-0.362251 z m -4.12947,0.158125 c -5.3e-4,0.609382 0.0442,1.467737 -0.33073,2.71198 -0.47405,0.8111 -1.54341,0.882086 -1.91823,-0.06615 -0.041,-0.796831 -0.16355,-1.512143 0,-2.513542 0.25287,-0.834475 1.93067,-1.345324 2.24896,-0.132288 z m 8.15971,-0.03824 c 0.1728,0.03413 0.35325,2.433216 -0.0413,2.995166 -0.60895,0.867153 -1.78753,0.465385 -1.99988,-0.24753 -0.0897,-0.829538 -0.11598,-1.738747 0.0662,-2.397787 0.33135,-0.892233 1.33847,-1.466413 1.97498,-0.349849 z m 3.97805,0.203605 c -5.4e-4,0.609382 0.0442,1.467736 -0.33073,2.711979 -0.47405,0.8111 -1.5434,0.882086 -1.91822,-0.06615 -0.041,-0.796831 -0.16355,-1.512142 0,-2.513541 0.30279,-0.999217 1.92505,-1.366538 2.24895,-0.132288 z m -43.24128,6.570659 c -2e-5,1.348091 0.15269,3.961117 0.47955,4.171321 0.95162,0.975754 1.86887,0.27383 2.42053,-0.127124 0.30915,-1.241713 0.23028,-3.407476 0.0935,-4.224031 -0.27091,-1.220968 -2.86504,-1.050976 -2.99358,0.179834 z m 4.95783,0.193786 c -0.16768,1.483929 -0.0315,2.570214 0.0346,3.937228 0.23342,0.993014 2.51077,0.537594 2.51354,0 0.011,-1.51033 -0.0458,-3.120861 -0.0372,-4.250387 -0.19526,-1.02702 -2.48872,-1.191138 -2.51094,0.313159 z m -9.50433,0.420646 c 0.20117,0.615519 -0.0223,3.002906 0.19379,3.821989 0.0955,0.724074 2.62251,0.446134 2.52904,-0.09095 -0.0182,-0.10431 0.14983,-3.57637 0.0171,-3.985803 -0.0404,-1.799034 -3.00627,-1.221091 -2.73993,0.254764 z m 74.64299,-0.07441 0.26459,4.034896 c 0.68202,1.840894 3.49238,0.817689 3.50572,0.198437 0.2464,-1.093716 -0.0882,-3.527777 -0.13229,-5.291666 -0.16911,-0.855123 -3.80511,-1.489768 -3.63802,1.058333 z m 5.75469,-0.264581 c -0.0624,1.696709 -0.28287,3.87312 0.0661,4.828646 0.10448,0.41078 2.49657,0.915842 3.30729,-0.264584 -0.0662,-1.631597 -0.13229,-2.896426 -0.19844,-4.894791 -0.0728,-1.748256 -3.09967,-1.106017 -3.17495,0.330729 z m -10.98021,0.529166 c -0.14015,1.093801 -0.17533,2.450115 -0.0661,4.167188 -0.17019,0.453604 2.13156,1.824351 3.37343,0.06615 0.28841,-1.195608 -0.0229,-3.190848 -0.0661,-4.828646 0.0283,-0.817674 -3.00768,-2.395501 -3.24123,0.595308 z M 128.36151,29.978353 c -0.17003,0.974886 -0.0866,2.584964 0.0646,3.771346 0.14183,0.904629 2.94147,1.277683 2.78226,-0.144177 0.0981,-2.161951 0.27918,-2.507883 0.19223,-3.576526 -0.0878,-1.614461 -2.61834,-1.868644 -3.03909,-0.05064 z m 12.20804,0 c -0.17003,0.974886 -0.0872,2.584964 0.0641,3.771346 0.14184,0.904629 2.94148,1.277683 2.78226,-0.144177 0.0981,-2.161951 0.27918,-2.507883 0.19224,-3.576526 -0.0897,-1.652316 -2.62477,-1.838678 -3.0386,-0.05064 z m -17.60203,0.160196 c -0.15756,1.648208 -0.071,2.76949 0.0972,3.804935 0.67933,1.202016 2.75602,0.728622 2.97036,-0.155029 0.0639,-0.06349 -0.0353,-2.376914 -0.23306,-4.2323 -0.71001,-1.166052 -2.82766,-0.409296 -2.8345,0.582394 z m 12.20753,0 c -0.15756,1.648208 -0.071,2.76949 0.0971,3.804935 0.67932,1.202016 2.75601,0.728622 2.97036,-0.155029 0.0639,-0.06349 -0.0353,-2.376914 -0.23306,-4.2323 -0.15352,-0.911084 -2.82575,-0.673343 -2.8344,0.582394 z m 49.66948,20.961691 c 0.0535,1.382993 -0.0218,3.727248 0.0827,4.221965 0.0745,0.801711 2.37643,0.516852 2.29857,-0.07855 -0.0151,-0.115636 0.25308,-3.939746 0.13229,-4.395597 0.0369,-1.893629 -2.55701,-0.787003 -2.51356,0.252182 z m 4.51445,-0.345712 c -0.19279,1.366931 -0.15837,3.185521 0,4.101041 0.0376,1.116434 2.32475,0.733046 2.29857,0.07855 -0.0123,-0.307757 0.53438,-3.610322 0.24805,-4.320667 -0.40129,-1.78379 -2.50721,-0.179644 -2.54662,0.141076 z m -9.37462,0.576709 c -1e-5,1.324506 0.15269,3.891931 0.47956,4.098458 0.95161,0.958683 1.86886,0.268882 2.42052,-0.125057 0.30915,-1.21999 0.23029,-3.347866 0.0935,-4.150135 -0.27514,-1.203587 -2.86535,-1.029473 -2.99358,0.176734 z m 110.09561,-7.083805 c -0.10699,0.441727 -0.0548,1.170864 0.0403,1.708423 0.0892,0.409893 1.85098,0.579142 1.7508,-0.06511 0.0617,-0.979595 0.17563,-1.136365 0.12092,-1.620573 -0.20427,-0.975738 -1.76228,-0.488635 -1.91202,-0.02274 z m -3.39411,0.07235 c -0.0991,0.746815 -0.0448,1.255275 0.061,1.724442 0.42744,0.544641 1.73427,0.329595 1.86914,-0.0708 0.0402,-0.02876 -0.0224,-1.077025 -0.14676,-1.917713 -0.11993,-0.513001 -1.77635,-0.471361 -1.78338,0.264071 z m 3.59513,4.707723 c -0.10699,0.441727 -0.0548,1.17138 0.0403,1.708939 0.0892,0.409893 1.85098,0.579143 1.7508,-0.06511 0.0617,-0.979595 0.17563,-1.136365 0.12092,-1.620573 -0.20705,-0.989241 -1.77381,-0.453278 -1.91202,-0.02326 z m -3.39411,0.07287 c -0.0991,0.746815 -0.0448,1.254759 0.061,1.723926 0.42744,0.544641 1.73427,0.330111 1.86914,-0.07028 0.0402,-0.02876 -0.0224,-1.077024 -0.14676,-1.917712 -0.11005,-0.470737 -1.77547,-0.562768 -1.78338,0.264066 z M 113.56592,15.438712 c 0,0.4545 -0.0548,1.171381 0.0403,1.70894 0.0892,0.409892 1.85098,0.579142 1.7508,-0.06511 0.0617,-0.979594 0.17562,-1.136366 0.12092,-1.620573 -0.17003,-0.812383 -1.91202,-0.809052 -1.91202,-0.02326 z m -3.39411,0.07286 c -0.0991,0.746815 -0.0448,1.254759 0.061,1.723926 0.42743,0.544641 1.73427,0.330112 1.86914,-0.07028 0.0402,-0.02876 -0.0223,-1.077025 -0.14676,-1.917713 -0.11025,-0.471582 -1.77547,-0.560798 -1.78338,0.264067 z m 183.88028,13.386517 c 0.15707,0.48061 -0.0173,2.344758 0.15141,2.984314 0.0746,0.565371 2.04754,0.348046 1.97456,-0.07131 -0.0142,-0.08145 0.11707,-2.792261 0.0134,-3.111954 -0.0246,-1.089987 -2.29278,-0.651068 -2.13937,0.19895 z m -0.0137,5.393939 c -10e-6,1.0342 0.11891,3.039061 0.37414,3.200321 0.74304,0.748559 1.45959,0.20993 1.89033,-0.09767 0.24139,-0.952592 0.17965,-2.614201 0.0729,-3.240629 -0.0426,-0.872843 -2.23126,-0.860221 -2.33737,0.137978 z m -165.4123,2.565492 c -0.17003,0.974886 -0.0866,2.584964 0.0646,3.771346 0.14183,0.904629 2.94147,1.277683 2.78226,-0.144177 0.0981,-2.161951 0.27918,-2.507883 0.19223,-3.576526 -0.0878,-1.614461 -2.61834,-1.868644 -3.03909,-0.05064 z m 12.20804,0 c -0.17003,0.974886 -0.0872,2.584964 0.0641,3.771346 0.14184,0.904629 2.94148,1.277683 2.78226,-0.144177 0.0981,-2.161951 0.27918,-2.507883 0.19224,-3.576526 -0.0897,-1.652316 -2.62477,-1.838678 -3.0386,-0.05064 z m -17.60203,0.160196 c -0.15756,1.648208 -0.071,2.76949 0.0972,3.804935 0.67933,1.202016 2.75602,0.728622 2.97036,-0.155029 0.0639,-0.06349 -0.0353,-2.376914 -0.23306,-4.2323 -0.71001,-1.166052 -2.82766,-0.409296 -2.8345,0.582394 z m 12.20753,0 c -0.15756,1.648208 -0.071,2.76949 0.0971,3.804935 0.67932,1.202016 2.75601,0.728622 2.97036,-0.155029 0.0639,-0.06349 -0.0353,-2.376914 -0.23306,-4.2323 -0.15352,-0.911084 -2.82575,-0.673343 -2.8344,0.582394 z M 113.70698,19.733348 c -0.10699,0.441727 -0.0548,1.170864 0.0403,1.708423 0.0892,0.409892 1.85098,0.579143 1.7508,-0.06511 0.0617,-0.979594 0.17562,-1.136366 0.12092,-1.620573 -0.16998,-0.811913 -1.67163,-0.770767 -1.91202,-0.02274 z m -3.39411,0.07235 c -0.0991,0.746815 -0.0448,1.255276 0.061,1.724443 0.42743,0.544641 1.73427,0.329595 1.86914,-0.0708 0.0402,-0.02876 -0.0223,-1.077025 -0.14676,-1.917713 -0.11114,-0.475389 -1.7755,-0.558292 -1.78338,0.26407 z m 3.59513,4.707719 c 0,0.4545 -0.0548,1.171381 0.0403,1.70894 0.0892,0.409892 1.85098,0.579142 1.7508,-0.06511 0.0617,-0.979594 0.17562,-1.136366 0.12092,-1.620573 -0.17003,-0.812383 -1.91202,-0.809051 -1.91202,-0.02326 z m -3.39411,0.07286 c -0.0991,0.746815 -0.0448,1.254759 0.061,1.723926 0.42743,0.544641 1.73427,0.330112 1.86914,-0.07028 0.0402,-0.02876 -0.0223,-1.077025 -0.14676,-1.917713 -0.11025,-0.471582 -1.77547,-0.560798 -1.78338,0.264067 z"
       inkscape:label="town"
       sodipodi:nodetypes="ccccccccccsccccccccccccccccccscccccccccccccccccccccccccccccccsccscccscccsccscccssccssccssccccccscccscccscccccccccccccccccscccccccccccccccccccccccccccssccccsscsccccccscccscccscccscccccccsssccscccssccsscccssccssccsssccssccssccccccccscscccscscccssccsscccssccssccssccsssccsssccssscssscsscccssccssccscccsccccccccccccccccccscccsccccccccsccsssccssscccscccccccscccsccccccccscccscccccccscccsscccsscccssccssccsscsssccscccssccsscccsccccccccccccccccccccccccccscccsscccscccscccscccsssccsscccscccsscsssscssssssssssscssccssccsssccsssccsscccscccscccssssssssssssscsssccsccccccccccccccccccccccccccccccccccccccccscccssccccc" /><g
       id="g7"
       inkscape:label="Logcity"
       style="display:inline"
       sodipodi:insensitive="true"><path
         style="fill:#100d0b;fill-opacity:1;stroke:#ede0dc;stroke-width:1;stroke-linecap:square;stroke-linejoin:round;stroke-dasharray:none;stroke-opacity:1"
         d="m 325.08918,21.064099 c 1.05638,-7.87745 5.56962,-7.400566 10.53689,-5.826444 3.60057,-5.5138307 8.98196,-5.192578 12.39638,0.495868 10.41984,-6.0979848 12.28445,1.485712 12.27239,5.330576 8.62038,0.03804 8.25636,5.558123 6.32215,10.661154 2.38708,3.473871 5.59155,6.849655 0,11.280987 4.01476,4.190846 3.01802,11.825974 -4.95855,12.272722 1.70844,4.859868 -4.27241,12.453406 -11.28069,6.818179 -1.62077,5.499148 -11.49853,7.009107 -14.99959,0.867767 -7.83476,6.053274 -14.81116,-0.621096 -13.26411,-6.570244 -5.80101,0.938117 -8.36547,-6.331036 -4.21478,-11.528922 -6.81617,-2.553071 -5.73756,-11.847831 1.48757,-12.644622 -3.90287,-2.016005 -4.58485,-14.092651 5.70234,-11.157021 z"
         id="path6"
         sodipodi:nodetypes="ccccccccccccc"
         inkscape:label="badge-bg"
         sodipodi:insensitive="true" /><path
         id="path7"
         style="opacity:1;fill:#efe4e0;fill-opacity:1;stroke-width:1.1;stroke-linecap:round;stroke-linejoin:round"
         d="m 335.29323,20.439062 c -0.98821,0.0072 -0.78784,0.504001 -0.79375,0.926042 l 0.0481,2.308903 5.57433,-0.127641 v -2.313554 c -0.0408,-0.548841 -0.33447,-0.751446 -0.79375,-0.727604 z m -2.88716,4.097425 c -0.94463,0.03803 -1.72149,1.326826 -1.64383,1.600936 l 0.0481,1.508952 h 6.76599 c 1.03857,0.314045 1.95886,1.276186 1.95286,2.29495 l -0.23875,9.711552 3.33003,0.04031 c 0.33652,-4.61503 0.88318,-9.215287 1.00666,-13.842049 -0.006,-0.666963 -0.33113,-1.404698 -0.99167,-1.509468 -1.78496,-0.188007 -6.53463,0.24454 -10.22935,0.19482 z m 13.60278,3.377055 c -0.95629,0.03784 -1.32139,0.413213 -1.47898,0.729671 l -0.9064,11.062374 9.10229,0.110587 c 0.008,5e-4 0.0158,0.0011 0.0238,0.0021 3.32494,0.425138 1.83462,4.940226 1.92587,7.17989 10e-4,0.01686 10e-4,0.03378 0,0.05064 -0.13076,2.601762 -0.51053,5.435164 -0.83199,8.198983 2.54777,0.260818 4.58348,0.528836 4.33617,-0.611333 -0.46054,-6.745103 -0.26238,-13.489745 -0.19844,-20.240625 -0.0263,-0.610276 -0.55797,-4.380512 -0.66146,-5.357812 -0.0969,-0.567549 -0.48376,-0.951303 -1.19062,-0.992188 z m -16.82429,0.53175 c -1.22352,0.02158 -2.19033,0.285233 -2.42414,1.651062 -0.022,3.792361 0.0761,7.945604 -0.0661,11.377083 -0.63052,3.978899 -0.74994,7.962199 -0.99219,11.972396 -0.0663,0.482489 0.35784,1.306026 0.8599,1.322917 3.81913,0.0013 7.71569,0.157535 11.46287,0.01499 0.25846,-8.298459 0.5255,-16.596593 0.70745,-24.897188 0.0191,-0.174429 -0.47415,-1.278446 -1.22629,-1.441256 z m 22.74435,2.064477 c 0.0398,0.0199 -0.0576,2.145289 -0.13023,2.272212 -0.0185,0.87244 -1.22576,0.844443 -1.22576,0.0098 -0.0802,0.06517 -0.004,-1.541713 0.11575,-2.331641 0.1408,-0.460837 0.75747,-0.905521 1.24024,0.04963 z m -3.00964,0.148821 c -0.002,0.179169 -0.0192,1.45859 -0.0331,1.752864 -0.3337,1.793859 -1.59402,0.51739 -1.50482,0.314193 -0.10618,-0.795207 -0.0423,-1.496189 0.0331,-2.033984 0,-0.335632 0.91824,-1.728554 1.50482,-0.03307 z m 6.18464,-0.04961 c 0.0705,0.56512 -0.002,1.547217 -0.21498,2.182813 -0.36114,0.877997 -0.99665,0.531424 -1.17409,0 -0.0618,-0.01716 -0.13608,-1.985464 0.1819,-2.397787 0.45926,-0.73432 0.97439,-0.34407 1.20717,0.214974 z m -24.97006,0.413412 c -0.002,0.179169 -0.0192,1.45859 -0.0331,1.752864 -0.3337,1.793859 -1.59402,0.51739 -1.50482,0.314193 -0.10618,-0.795207 -0.0423,-1.496189 0.0331,-2.033984 0,-0.355745 0.92273,-1.715556 1.50481,-0.03307 z m 3.00964,-0.148828 c 0.0398,0.0199 -0.0576,2.145289 -0.13023,2.272212 -0.0185,0.87244 -1.22576,0.844443 -1.22576,0.0098 -0.0802,0.06517 -0.004,-1.541713 0.11576,-2.331641 0.0514,-0.168162 0.8368,-1.226876 1.24023,0.04961 z m 3.175,0.09922 c 0.0705,0.56512 -0.002,1.547217 -0.21497,2.182813 -0.36114,0.877997 -0.99665,0.531424 -1.17409,0 -0.0618,-0.01716 -0.13608,-1.985464 0.1819,-2.397787 0.45929,-0.734369 0.97441,-0.344 1.20716,0.214974 z m 18.81849,4.274675 c 0,0 0.0911,2.215885 -0.14883,2.356445 -0.47701,0.791215 -1.22023,0.291913 -1.35599,0.06615 -0.31473,-0.423585 -0.0346,-2.325642 0.0661,-2.61276 0.35931,-0.769295 1.29996,-0.594102 1.43872,0.190165 z m -6.51537,-0.05788 c 0.1382,0.570789 0.17155,1.604349 -0.13229,2.579688 -0.0257,0.179623 -0.70554,0.572894 -1.17409,0.14056 -0.22074,-0.830842 -0.091,-1.88019 0.0496,-2.654102 0.19204,-0.387795 0.80264,-1.220274 1.25678,-0.06615 z m 3.23288,-0.04134 c 0.006,-0.01624 -0.0813,2.022313 -0.13229,2.414323 -0.10477,0.805473 -1.30315,0.2904 -1.31465,-0.223242 -0.0773,-0.322663 0.0603,-1.473882 0.26459,-2.265495 0.12656,-0.556284 1.04368,-0.592195 1.18235,0.07441 z m -15.50293,0.463021 c 0,0 0.0911,2.215885 -0.14883,2.356445 -0.47701,0.791215 -1.22023,0.291913 -1.35599,0.06615 -0.31473,-0.423585 -0.0346,-2.325642 0.0661,-2.61276 0.3965,-0.843116 1.31704,-0.49753 1.43872,0.190165 z m -6.51536,-0.05788 c 0.1382,0.570789 0.17155,1.604349 -0.13229,2.579688 -0.0257,0.179623 -0.70554,0.572894 -1.17409,0.14056 -0.22074,-0.830842 -0.091,-1.88019 0.0496,-2.654102 0.27752,-0.560404 0.8474,-1.106519 1.25678,-0.06615 z m 3.23288,-0.04134 c 0.006,-0.01624 -0.0813,2.022313 -0.1323,2.414323 -0.10477,0.805473 -1.30314,0.2904 -1.31464,-0.223242 -0.0773,-0.322663 0.0603,-1.473882 0.26458,-2.265495 0.12656,-0.556272 1.04369,-0.592203 1.18236,0.07441 z m 6.20168,4.941817 c -0.121,4.939683 -0.32523,9.877315 -0.4594,14.816667 0.13481,0.07542 0.37366,0.235872 0.5333,0.275435 6.04023,0.102049 13.04796,0.236082 13.6431,0.143633 0.33332,-2.941384 0.75178,-5.9564 0.88883,-8.669238 -0.39533,-1.622446 1.47948,-6.127843 -1.17566,-6.403227 z m 11.13989,2.685625 c 0,0 0.0911,2.215885 -0.14883,2.356445 -0.47701,0.791215 -1.22023,0.291913 -1.35599,0.06615 -0.31473,-0.423585 -0.0345,-2.325643 0.0661,-2.612761 0.35931,-0.769294 1.29996,-0.594101 1.43872,0.190166 z m -6.51536,-0.05788 c 0.1382,0.570789 0.17155,1.604349 -0.13229,2.579688 -0.0257,0.179623 -0.70554,0.572893 -1.17409,0.140559 -0.22074,-0.830842 -0.091,-1.880189 0.0496,-2.654101 0.19204,-0.387795 0.80264,-1.220274 1.25678,-0.06615 z m 3.23288,-0.04134 c 0.006,-0.01624 -0.0813,2.022313 -0.1323,2.414323 -0.10477,0.805473 -1.30314,0.2904 -1.31464,-0.223242 -0.0773,-0.322663 0.0603,-1.473882 0.26458,-2.265495 0.12656,-0.556274 1.04369,-0.592203 1.18236,0.07441 z"
         sodipodi:nodetypes="cccccccccccccccccccccccccccccccscccccccscccscccssccccccccccccccsccccssccssccsscccscccccccccssccsccccccccsccccsccsscccsccccscscscccss" /></g></g></svg>
