<svg xmlns="http://www.w3.org/2000/svg" width="16.5" height="16.499994" fill="currentColor" class="bi bi-1-circle"><path d="M1.25 8.2499965c0 3.8659965 3.1340068 6.9999975 7 6.9999975 3.865993 0 7-3.134001 7-6.9999975 0-3.8659959-3.134007-6.999997-7-6.999997-3.8659932 0-7 3.1340011-7 6.999997m15 0c0 4.4182815-3.581722 7.9999975-8 7.9999975-4.4182779 0-8-3.581716-8-7.9999975C.25 3.8317155 3.8317221.25 8.25.25c4.418278 0 8 3.5817155 8 7.9999965m-6.717-3.998v7.9980005H8.221V5.5879965l-1.899 1.318v-1.271l1.899-1.383z" style="fill:#fff;fill-opacity:1;stroke:#fff;stroke-width:.5;stroke-dasharray:none;stroke-opacity:1"/></svg>