<svg xmlns="http://www.w3.org/2000/svg" width="16.5" height="16.499992" fill="currentColor" class="bi bi-5-circle"><path d="M7.6523437.27148438A8 8 0 0 0 .25 8.25a8 8 0 0 0 16 0A8 8 0 0 0 7.6523437.27148438ZM8.25 1.25a7 7 0 0 1 7 7 7 7 0 0 1-14 0 7 7 0 0 1 7-7z" style="fill:#fff;stroke:none;stroke-width:.5"/><path d="M4.9414062 3.8339844c-.3096781.2101387-.6245744.3874709-.9453124.53125-.3207381.1327192-.702134.2546351-1.1445313.3652343v1.5761719h1.4941406v6.3027344h2.3378906V3.8339844ZM10.847656 3.6191406c-.586176 0-1.1116544.1818972-1.5761716.546875-.4534572.3539179-.8061684.872878-1.0605469 1.5585938-.2543785.6857158-.3828125 1.4993588-.3828125 2.4394531 0 .9400943.128434 1.7648205.3828125 2.4726565.2543785.696775.6070897 1.233337 1.0605469 1.609375.4645172.376038.9899956.5625 1.5761716.5625.586177 0 1.10709-.186462 1.560547-.5625s.806169-.9126 1.060547-1.609375c.254379-.707836.382813-1.5325622.382813-2.4726565 0-.9400943-.128434-1.7537373-.382813-2.4394531-.254378-.6857158-.60709-1.2046759-1.060547-1.5585938-.453457-.3649778-.97437-.546875-1.560547-.546875Zm0 1.9726563c.221199 0 .387448.1884154.498047.5644531.121659.3649777.181641 1.0345384.181641 2.0078125s-.05998 1.6584833-.181641 2.0566405c-.110599.398158-.276848.597656-.498047.597656-.221199 0-.392013-.199498-.513672-.597656-.110599-.3981572-.166015-1.0833664-.166015-2.0566405 0-.9732741.05542-1.6428348.166015-2.0078125.121659-.3760377.292473-.5644531.513672-.5644531z" style="font-weight:700;font-size:16.5899px;line-height:1;font-family:&quot;Corporate Logo ver2&quot;;-inkscape-font-specification:&quot;Corporate Logo ver2 Bold&quot;;letter-spacing:-.0129609px;word-spacing:0;fill:#fff;stroke-width:.755905;stroke-linecap:round;fill-opacity:1"/></svg>