<svg xmlns="http://www.w3.org/2000/svg" width="16.5" height="16.499994" fill="currentColor" class="bi bi-2-circle"><path d="M1.25 8.2499965c0 3.8659965 3.1340068 6.9999975 7 6.9999975 3.865993 0 7-3.134001 7-6.9999975 0-3.8659959-3.134007-6.999997-7-6.999997-3.8659932 0-7 3.1340011-7 6.999997m15 0c0 4.4182815-3.581722 7.9999975-8 7.9999975-4.4182779 0-8-3.581716-8-7.9999975C.25 3.8317155 3.8317221.25 8.25.25c4.418278 0 8 3.5817155 8 7.9999965m-9.354-1.76v.07H5.625v-.064c0-1.213.879-2.402 2.637-2.402 1.582 0 2.613.949 2.613 2.215 0 .9810413-.517481 1.5723068-1.383 2.537L7.518 11.142997h3.498v1.107H5.672v-.832l2.97-3.2930005c.434-.475.903-1.008.903-1.705 0-.744-.557-1.236-1.313-1.236-.843 0-1.336.615-1.336 1.306" style="fill:#fff;fill-opacity:1;stroke:#fff;stroke-width:.5;stroke-dasharray:none;stroke-opacity:1"/></svg>