<svg xmlns="http://www.w3.org/2000/svg" width="16.5" height="16.499992" fill="currentColor" class="bi bi-3-circle"><path d="M8.168 8.6639965h-.879v-1.072h.838c.78 0 1.348-.522 1.342-1.237 0-.709-.563-1.195-1.348-1.195-.79 0-1.312.498-1.348 1.055H5.525c.036-1.137.95-2.115 2.625-2.121 1.594-.012 2.608.885 2.637 2.062.023 1.137-.885 1.776-1.482 1.875v.07c.703.07 1.71.64 1.734 1.9170005.024 1.459-1.277 2.396-2.93 2.396-1.705 0-2.707-.967-2.754-2.144H6.58c.059.597.68 1.06 1.541 1.066.973.006 1.6-.563 1.588-1.3540005-.006-.779-.621-1.318-1.541-1.318" style="fill:#fff;fill-opacity:1;stroke:#fff;stroke-width:.5;stroke-dasharray:none;stroke-opacity:1"/><path d="M16.25 8.2499965a8 8 0 1 1-16 0 8 8 0 0 1 16 0m-15 0a7 7 0 1 0 14 0 7 7 0 0 0-14 0" style="fill:#fff;fill-opacity:1;stroke:#fff;stroke-width:.5;stroke-dasharray:none;stroke-opacity:1"/></svg>