<svg xmlns="http://www.w3.org/2000/svg" width="16.5" height="16.499992" fill="currentColor" class="bi bi-4-circle"><path d="M7.769 5.3069965q.33-.527.657-1.055h1.933v5.332h1.008v1.1070005H10.36v1.559H9.1v-1.559H5.228V9.5719965c.77-1.427 1.656-2.847 2.542-4.265zm-1.294 4.224v.053H9.1v-4.271h-.065c-.867 1.33-1.787 2.806-2.56 4.218" style="fill:#fff;fill-opacity:1;stroke:#fff;stroke-width:.5;stroke-dasharray:none;stroke-opacity:1"/><path d="M16.25 8.2499965a8 8 0 1 1-16 0 8 8 0 0 1 16 0m-15 0a7 7 0 1 0 14 0 7 7 0 0 0-14 0" style="fill:#fff;fill-opacity:1;stroke:#fff;stroke-width:.5;stroke-dasharray:none;stroke-opacity:1"/></svg>