<svg xmlns="http://www.w3.org/2000/svg" width="16.5" height="16.499992" fill="currentColor" class="bi bi-5-circle"><path d="M1.25 8.2499965a7 7 0 1 1 14 0 7 7 0 0 1-14 0m15 0a8 8 0 1 0-16 0 8 8 0 0 0 16 0M8.244 12.407997c-1.57 0-2.654-.902-2.719-2.115h1.237c.14.72.832 1.031 1.529 1.031.791 0 1.57-.597 1.57-1.6810005 0-.967-.732-1.57-1.582-1.57-.767 0-1.242.45-1.435.808H5.695l.346-4.631h4.705v1.103H7.125l-.193 2.343h.064c.17-.258.715-.68 1.611-.68 1.383 0 2.561.944 2.561 2.585 0 1.6870005-1.184 2.8060005-2.924 2.8060005z" style="fill:#fff;fill-opacity:1;stroke:#fff;stroke-width:.5;stroke-dasharray:none;stroke-opacity:1"/></svg>