<?xml version="1.0" encoding="UTF-8" standalone="no"?>
<svg
   viewBox="0 0 36 36"
   version="1.1"
   id="svg2"
   sodipodi:docname="anchor.svg"
   inkscape:version="1.4 (86a8ad7, 2024-10-11)"
   xmlns:inkscape="http://www.inkscape.org/namespaces/inkscape"
   xmlns:sodipodi="http://sodipodi.sourceforge.net/DTD/sodipodi-0.dtd"
   xmlns="http://www.w3.org/2000/svg"
   xmlns:svg="http://www.w3.org/2000/svg">
  <defs
     id="defs2" />
  <sodipodi:namedview
     id="namedview2"
     pagecolor="#ffffff"
     bordercolor="#000000"
     borderopacity="0.25"
     inkscape:showpageshadow="2"
     inkscape:pageopacity="0.0"
     inkscape:pagecheckerboard="0"
     inkscape:deskcolor="#d1d1d1"
     inkscape:zoom="12.527778"
     inkscape:cx="12.172949"
     inkscape:cy="22.031042"
     inkscape:current-layer="svg2" />
  <path
     fill="#269"
     d="M 30.5,18.572 26,25 h 1.736863 c -1.040441,3.641543 -3.416908,5.080549 -7.674887,5.335499 L 20.239468,17 H 23 c 1.104,0 2,-0.896 2,-2 0,-1.104 -0.896,-2 -2,-2 H 20.239468 V 11.05233 H 15.760532 V 13 H 13 c -1.104,0 -2,0.896 -2,2 0,1.104 0.896,2 2,2 h 2.760532 l 0.177492,13.335499 C 11.83969,30.160371 9.3035776,28.642456 8.2631375,25 H 10 L 5.5,18.572 1,25 H 4.33 C 5.705,31.289 11.299,36 18,36 24.701,36 30.295,31.289 31.67,25 H 35 Z"
     id="path1"
     style="fill:#ffbd87;fill-opacity:1"
     sodipodi:nodetypes="cccccsssccccssscccccccsccc" />
  <path
     fill="#269"
     d="m 18,0 c -3.314,0 -6,2.686 -6,6 0,3.314 2.686,6 6,6 3.314,0 6,-2.686 6,-6 0,-3.314 -2.686,-6 -6,-6 z m 0,8.2416852 c -1.238157,0 -2.241685,-1.0035278 -2.241685,-2.2416852 0,-1.2381574 1.003528,-2.2416852 2.241685,-2.2416852 1.238157,0 2.241685,1.0035278 2.241685,2.2416852 0,1.2381574 -1.003528,2.2416852 -2.241685,2.2416852 z"
     id="path2"
     style="fill:#ffbd87;fill-opacity:1"
     sodipodi:nodetypes="ssssssssss" />
</svg>
