<svg viewBox="0 0 32 32" version="1.1" id="svg6" width="32" height="32" xmlns="http://www.w3.org/2000/svg" xmlns:svg="http://www.w3.org/2000/svg"><defs id="defs6"/><path fill="#15c40b" d="M 5.3390464,28.71249 C 0.18042723,24.646293 2.2163001,20.216466 6.3704119,20.504861 6.4348722,18.059769 3.4750676,15.048633 1.8026795,12.542637 L 5.817127,8.2561121 19.753098,15.91382 l 1.745801,8.508563 -3.942825,4.277569 -5.967954,-4.33489 z" id="path1" style="display:inline;stroke-width:0.999999"/><path fill="#b1d9f0" d="m 21.387884,17.251903 c -1.389479,-1.633644 -3.162138,-1.092679 -4.039516,-0.738006 l -0.680415,-0.852648 3.563226,-7.1525668 0.739503,0.6932241 3.384169,-6.366197 c 1.11015,0.324221 1.325018,0.5893299 1.770869,0.9816195 0.979439,0.8598128 1.163867,2.6618369 0.386762,3.7813848 -0.499568,0.720093 -1.074339,1.2449374 -2.220301,1.535124 a 1.8729314,1.8736753 0 0 0 -1.382316,2.7693134 l 5.412879,5.572661 c 0,0 -2.352803,3.138317 -4.057421,3.333566 -2.155841,-0.11285 -2.157632,-2.117289 -2.875648,-3.557475 z M 12.562187,1.7573608 15.464694,4.5410047 9.8655956,7.5145236 C 7.9622243,5.1858642 10.95605,3.2548679 12.562187,1.7609433 Z" id="path2" style="display:inline;stroke-width:0.999999"/><path fill="#b69064" d="m 7.6757339,15.301203 1.7905657,-1.816355 c 0.9830204,0.716511 1.7565444,0.367212 3.0278464,-0.01075 -1.1388,1.076557 -2.282971,2.147741 -3.3608919,3.285201 z" id="path3" style="display:inline;stroke-width:0.999999"/><path fill="#717271" d="m 26.043354,3.7259737 c 0.263213,0.3116821 0.764571,0.901012 0.743085,1.3040494 0.542541,1.6694695 -0.653557,3.4016343 -2.256113,3.8834875 -1.461101,0.123598 -2.547974,1.6533484 -1.851444,3.0451704 0.82366,1.01028 1.781612,1.914874 2.798653,2.737071 a 17.184056,17.190881 0 0 1 -0.79143,-1.029985 c -0.866633,-1.542289 1.013461,-2.663628 2.30983,-2.925154 1.812052,-0.533801 2.775376,-3.0989086 1.39306,-4.537304 C 27.640539,5.386487 26.935056,4.4120326 26.043354,3.7241824 Z M 10.173573,7.6255826 c 0.426154,0.4460281 1.065386,0.9422117 1.446777,1.3470401 0.850518,0.6036602 2.179118,1.0855133 2.365336,2.0187683 C 14.191602,9.4885105 12.737662,8.3528411 11.43234,7.9211434 Z M 7.643504,10.260551 c 0.4225733,1.203737 0.5282165,2.701245 1.726105,3.412382 0.707273,0.386915 1.564954,0.40841 2.322363,0.166588 -0.209496,0.01075 -1.256976,0.216745 -1.7780311,-0.601869 C 9.5486655,12.008836 8.6014562,11.095285 7.643504,10.260551 Z m 9.873177,6.111835 c -2.481723,1.757243 -0.991973,4.922428 0.648185,5.325465 -0.50852,-1.298675 0.891702,-4.220247 3.599037,-3.473285 -0.376019,-2.083254 -3.067239,-2.688706 -4.247222,-1.85218 z m 10.54464,1.117757 -1.242652,1.253893 c -0.959743,0.954751 -2.274018,2.199688 -3.733329,1.714252 a 14.550135,14.555913 0 0 0 1.271301,1.271807 c 1.04569,1.149999 2.832675,0.909968 3.760188,-0.250779 0.449432,-0.831152 2.601692,-1.712461 1.312484,-2.554361 a 58.920346,58.943747 0 0 0 -1.367992,-1.433021 z m -17.081994,4.994079 c -1.3285992,0.03941 -1.9982707,1.366744 -2.1970236,2.514952 -0.5676092,1.619314 -2.7019633,2.418223 -4.2758701,1.807398 0.852309,0.933255 1.795937,1.819937 3.0081497,2.179984 1.6491108,0.250779 3.215856,-0.99595 3.468325,-2.627803 0.05372,-0.526635 1.333972,-3.166977 3.60799,-0.99595 -1.081502,-1.056853 -1.946345,-2.740653 -3.60978,-2.878581 z m 9.386144,0.537383 c 0.05909,0.161215 0.331255,0.639486 0.223821,1.035358 -0.41183,1.721416 -1.940973,2.783644 -3.095888,4.014251 0.685787,0.662772 1.378735,1.318379 2.118239,1.922039 0.560447,-0.410202 1.01346,-0.949376 1.500494,-1.440186 1.163868,-0.994159 2.24895,-2.824843 0.741294,-4.059033 a 8.9546176,8.958174 0 0 0 -1.486169,-1.472429 z" id="path4" style="display:inline;stroke-width:0.999999"/><path fill="#13a00e" d="M 24.037921,2.9270644 C 22.372695,2.9431857 21.078116,4.4747274 20.89906,6.0546331 20.514088,7.5216888 18.331389,7.9301 17.423572,6.7245706 16.72167,5.99373 15.942775,5.3255835 15.237292,4.5929516 L 9.5200165,7.4661591 c 1.4091745,0.3654205 3.0815635,0.6036602 3.9643115,1.909501 a 3.7118421,3.7133163 0 0 1 0.494196,2.1316189 c -0.239935,0.664564 -0.544331,1.368535 -1.149543,1.785903 l 3.274945,3.715108 4.155902,-8.4960254 0.725179,0.7344234 C 22.019953,7.0989476 23.18024,5.0139014 24.363804,2.9431858 24.25637,2.9306469 24.147145,2.9252731 24.037921,2.9252731 Z" id="path5" style="display:inline;stroke-width:0.999999"/><path fill="#010201" d="M 15.840712,29.167475 13.025944,26.373083 C 12.649925,28.119578 11.711669,29.830247 10.00705,30.584374 8.1735112,31.411944 5.8189176,30.94263 4.4025804,29.509609 2.7427263,27.938659 0.71222514,26.063193 1.0488515,23.544658 1.2780438,21.31631 3.0936771,19.399644 5.297863,19.036014 4.9128917,17.835859 3.1097922,16.619583 2.1142379,15.43734 1.2673004,14.391235 -0.59309703,13.223322 0.18221779,11.668494 A 14.390774,14.39649 0 0 1 4.3434918,7.7455981 C 5.2960727,7.0290876 7.3015059,7.8996482 7.7133359,7.4984022 7.149308,5.92387 7.5253267,4.0734814 8.7572354,2.9127341 9.7456277,1.855881 10.683884,0.60198737 12.035761,0.01623994 c 1.713571,-0.20778808 2.734193,1.64797446 3.921338,2.58302076 1.008089,0.8419 2.068103,2.4468838 3.092307,2.6833321 0.426154,-2.3644848 2.585576,-4.40116626 5.056556,-4.28831585 2.171956,-0.064486 3.770931,1.72141675 5.174734,3.14369035 1.634787,1.5404977 2.282971,4.1288924 1.137009,6.1404967 -0.716226,1.50288 -2.270437,2.212226 -3.733328,2.776478 0.533588,1.029984 1.849653,2.02056 2.72703,3.011136 l 2.558719,2.579438 c 0.125339,1.101635 -0.171895,2.181775 -1.119104,2.866043 -1.312484,1.228816 -2.544393,3.009344 -4.535502,2.991432 -0.990183,0.179127 -2.598111,-0.788162 -1.824586,0.913551 a 4.2400588,4.2417428 0 0 1 -1.409175,3.842288 c -1.131638,0.960124 -2.012596,2.710201 -3.654544,2.704827 -0.619536,0.146885 -1.049272,-0.166588 -1.414547,-0.637694 z m 5.271425,-0.614408 c 1.163868,-0.994159 2.24895,-2.824843 0.741294,-4.059033 -0.984811,-1.243146 -2.284761,-2.171027 -3.688565,-2.796183 -0.743084,-1.948908 1.701037,-4.35101 3.599037,-3.484032 0.44406,1.429438 1.496912,2.532865 2.590948,3.514484 1.04748,1.151791 2.834465,0.913551 3.760187,-0.250779 0.451223,-0.82936 2.603483,-1.710669 1.314275,-2.552569 -1.593603,-1.741121 -3.384168,-3.322818 -4.744998,-5.259188 -0.864843,-1.542289 1.017041,-2.663628 2.309829,-2.925154 1.813843,-0.533801 2.777167,-3.0971177 1.394851,-4.537304 C 27.303912,5.0174842 26.311939,3.4823601 24.70043,3.0058805 22.906283,2.568809 21.285822,4.0304907 20.96173,5.7339947 20.759395,7.516315 18.315274,8.0590717 17.326882,6.5938074 15.661656,5.0855524 14.116398,3.4483258 12.524585,1.8630461 11.518287,2.9646812 10.32398,3.9230141 9.5021109,5.1697425 8.9058527,6.8571251 10.630167,7.9283086 11.62035,8.9744141 c 1.158495,0.8239872 3.215855,1.4151079 2.041244,3.2386279 -0.44406,1.404361 -2.893553,2.364485 -3.7476531,1.02461 C 9.4591372,11.707902 8.0983076,10.658214 6.9416021,9.6515168 6.2719306,9.526127 5.2351934,9.22161 4.6854899,9.7392892 3.7991599,10.654632 2.8125584,11.489366 2.0676832,12.526516 c 1.6115088,2.104749 3.910595,3.647038 5.3090262,5.913003 0.63207,1.762616 -1.3518765,2.536448 -2.6840572,2.907242 -1.706409,0.716511 -2.3420597,3.152647 -1.0170413,4.526556 1.0832922,1.218068 2.220301,2.633177 3.8389721,3.113239 1.6491108,0.250779 3.215856,-0.99595 3.468325,-2.627803 0.146827,-1.499298 2.084219,-2.60989 3.221228,-1.329127 1.89979,1.54408 3.509508,3.415964 5.407507,4.963627 0.560447,-0.410202 1.01346,-0.949376 1.500494,-1.440186 z" id="path6" style="display:inline;stroke-width:0.999999"/></svg>