<?xml version="1.0" encoding="UTF-8" standalone="no"?>
<svg
   viewBox="0 0 36 36"
   version="1.1"
   id="svg3"
   sodipodi:docname="emoji-orange.svg"
   inkscape:version="1.4 (86a8ad7, 2024-10-11)"
   xmlns:inkscape="http://www.inkscape.org/namespaces/inkscape"
   xmlns:sodipodi="http://sodipodi.sourceforge.net/DTD/sodipodi-0.dtd"
   xmlns="http://www.w3.org/2000/svg"
   xmlns:svg="http://www.w3.org/2000/svg">
  <defs
     id="defs3" />
  <sodipodi:namedview
     id="namedview3"
     pagecolor="#ffffff"
     bordercolor="#000000"
     borderopacity="0.25"
     inkscape:showpageshadow="2"
     inkscape:pageopacity="0.0"
     inkscape:pagecheckerboard="0"
     inkscape:deskcolor="#d1d1d1"
     inkscape:zoom="25.055556"
     inkscape:cx="18.019956"
     inkscape:cy="18"
     inkscape:current-layer="svg3" />
  <path
     fill="#F4900C"
     d="M3 19.5C3 10.388 10.387 3 19.499 3c9.113 0 16.5 7.387 16.5 16.5S28.612 36 19.499 36C10.387 36 3 28.613 3 19.5z"
     id="path1"
     style="fill:#ff801a;fill-opacity:1" />
  <path
     fill="#662113"
     d="M11.414 7.585c-.267-.267-.797-.197-1.355.12-3.3-2.732-8.653-3.652-8.895-3.692-.546-.089-1.059.277-1.15.821-.091.544.276 1.06.821 1.151.053.009 4.934.854 7.821 3.16-.275.525-.324 1.015-.07 1.268.39.391 1.34.074 2.121-.707.781-.78 1.097-1.73.707-2.121z"
     id="path2"
     style="fill:#00cf23;fill-opacity:1" />
  <path
     fill="#5C913B"
     d="M21 1s-3.106 4.318-7.021 5.273C11 7 7.041 7.07 6.646 6.15c-.394-.919 1.572-3.937 4.969-5.393C15.012-.698 21 1 21 1z"
     id="path3"
     style="fill:#33ff54;fill-opacity:1" />
</svg>
