<svg viewBox="0 0 32 32" version="1.1" id="svg4" width="32" height="32" xmlns="http://www.w3.org/2000/svg" xmlns:svg="http://www.w3.org/2000/svg"><defs id="defs4"/><circle cx="16.000132" cy="16.003557" r="16" id="circle1" style="stroke-width:1"/><circle cx="16.000132" cy="16.003557" r="13.877369" fill="#ffcc4d" id="circle2" style="stroke-width:1"/><path fill="#65471b" d="m 6.7515262,10.607793 a 0.77146045,0.77146045 0 0 1 0,-1.542921 c 0.1159421,0 2.7469342,-0.06243 4.7803788,-2.7647713 A 0.76789502,0.76789502 0 0 1 12.762674,7.2187182 8.0267556,8.0267556 0 0 1 6.7515262,10.607793 Z M 26.01574,12.453947 a 0.77444493,0.77444493 0 0 1 -1.507247,0.356744 c -0.02676,-0.115942 -0.695652,-2.657748 -3.808249,-4.0133775 a 0.76882671,0.76882671 0 0 1 0.615384,-1.4091415 8.0267556,8.0267556 0 0 1 4.691193,5.065775 z" id="path2" style="stroke-width:1"/><path fill="#664500" d="m 19.995673,24.886499 c -0.767001,0 -1.507246,-0.356744 -2.140468,-1.034559 -2.176143,-2.301004 -2.764772,-1.792642 -3.719064,-0.963211 -0.606466,0.526198 -1.355629,1.177257 -2.470457,1.177257 -1.8104789,0 -3.0590854,-1.783723 -3.1125971,-1.855072 A 0.7693826,0.7693826 0 0 1 9.8195306,21.33689 c 0.2318844,0.329988 1.0167224,1.186176 1.8461534,1.186176 0.535117,0 0.97213,-0.365664 1.462654,-0.802676 1.400223,-1.212932 2.89855,-2.042363 5.841694,1.070234 0.633222,0.677815 1.123746,0.606466 1.471572,0.463768 1.275362,-0.51728 2.470457,-2.853957 2.461538,-3.968784 0,-0.428094 0.347826,-0.77592 0.767001,-0.77592 0.428094,0 0.77592,0.338907 0.77592,0.767001 0.0089,1.623188 -1.426979,4.602006 -3.433668,5.404682 -0.338907,0.133779 -0.677815,0.205128 -1.016722,0.205128 z" id="path3" style="stroke-width:1"/><path fill="#65471b" d="m 13.547513,13.97903 c -0.445931,1.632107 -1.266444,2.381271 -2.434783,2.051282 -1.15942,-0.312151 -1.8015606,-1.462653 -1.3556297,-3.09476 0.4459307,-1.632107 1.6766997,-2.586399 2.8450387,-2.274247 1.15942,0.32107 1.391304,1.694537 0.945374,3.317725 z m 8.793756,-0.57971 c 0.365664,1.649944 -0.51728,3.727982 -1.694537,3.986622 -1.177257,0.267559 -2.532887,-1.319955 -2.889632,-2.969899 -0.365663,-1.649945 0.32107,-3.068005 1.498328,-3.326645 1.177257,-0.25864 2.720178,0.659978 3.085841,2.309922 z" id="path4" style="stroke-width:1"/></svg>