<?xml version="1.0" encoding="UTF-8" standalone="no"?>
<svg
   viewBox="0 0 36 36"
   version="1.1"
   id="svg3"
   sodipodi:docname="emoji-leaf.svg"
   inkscape:version="1.4 (86a8ad7, 2024-10-11)"
   xmlns:inkscape="http://www.inkscape.org/namespaces/inkscape"
   xmlns:sodipodi="http://sodipodi.sourceforge.net/DTD/sodipodi-0.dtd"
   xmlns="http://www.w3.org/2000/svg"
   xmlns:svg="http://www.w3.org/2000/svg">
  <defs
     id="defs3" />
  <sodipodi:namedview
     id="namedview3"
     pagecolor="#ffffff"
     bordercolor="#000000"
     borderopacity="0.25"
     inkscape:showpageshadow="2"
     inkscape:pageopacity="0.0"
     inkscape:pagecheckerboard="0"
     inkscape:deskcolor="#d1d1d1"
     inkscape:zoom="8.8584766"
     inkscape:cx="15.013868"
     inkscape:cy="21.222611"
     inkscape:current-layer="svg3" />
  <path
     id="path1"
     style="display:inline;fill:#00db67;fill-opacity:1"
     d="M 0.51171875,6.796875 4.015625,10.300781 c -4.07238236,5.621842 -1.3562901,12.031273 2.9609375,16.078125 0.0063,0.0072 0.013425,0.02319 0.019531,0.0293 0.082385,-0.751739 5.8724825,7.914955 18.0800695,5.548786 0.0015,5.8e-4 0.0043,0.0014 0.0059,0.002 -4.13e-4,-0.0014 -0.0015,-0.0025 -0.002,-0.0039 4.163196,-0.940484 7.72794,-3.506668 10.853512,-6.189448 -4.581572,-0.881359 -6.814176,-4.840675 -9.052735,-8.912109 -4.49e-4,-3.28e-4 -0.0015,3.27e-4 -0.002,0 C 17.715285,-0.45795944 7.4155263,7.0357582 6.3378906,7.8886719 L 2.8789062,4.4296875 C 1.4068534,2.9552822 -0.96077087,5.3243854 0.51171875,6.796875 Z"
     sodipodi:nodetypes="scccccccccccs" />
</svg>
