<?xml version="1.0" encoding="UTF-8" standalone="no"?>
<svg
   viewBox="0 0 36 36"
   version="1.1"
   id="svg2"
   sodipodi:docname="emoji-aubergine.svg"
   inkscape:version="1.4 (86a8ad7, 2024-10-11)"
   xmlns:inkscape="http://www.inkscape.org/namespaces/inkscape"
   xmlns:sodipodi="http://sodipodi.sourceforge.net/DTD/sodipodi-0.dtd"
   xmlns="http://www.w3.org/2000/svg"
   xmlns:svg="http://www.w3.org/2000/svg">
  <defs
     id="defs2" />
  <sodipodi:namedview
     id="namedview2"
     pagecolor="#ffffff"
     bordercolor="#000000"
     borderopacity="0.25"
     inkscape:showpageshadow="2"
     inkscape:pageopacity="0.0"
     inkscape:pagecheckerboard="0"
     inkscape:deskcolor="#d1d1d1"
     inkscape:zoom="25.055556"
     inkscape:cx="18.019956"
     inkscape:cy="18"
     inkscape:current-layer="svg2" />
  <path
     fill="#744EAA"
     d="M6 4c3 0 5 2 8 6s7.957 7.191 12 8c5 1 9 5 9 11 0 4.897-3.846 7-9 7-5 0-9-3-14-8S2 14 2 10s1-6 4-6z"
     id="path1"
     style="fill:#bd3dff;fill-opacity:1" />
  <path
     fill="#77B255"
     d="M3.515 0c1.248 0 1.248 1.248 1.248 2.495 0 1.764 1.248 1.129 2.496 1.129C8.505 3.624 11 6 11 6H7.258c-1.248 0 0 2.614-1.248 2.614S4.762 7.426 3.515 7.426 2 11 2 11s-1.604-4.153.267-6.024C3.515 3.728 1.02 0 3.515 0z"
     id="path2"
     style="fill:#33ff58;fill-opacity:1" />
</svg>
