<?xml version="1.0" encoding="UTF-8" standalone="no"?>
<svg
   viewBox="0 0 36 36"
   version="1.1"
   id="svg4"
   sodipodi:docname="emoji-red-crayon.svg"
   inkscape:version="1.4 (86a8ad7, 2024-10-11)"
   xmlns:inkscape="http://www.inkscape.org/namespaces/inkscape"
   xmlns:sodipodi="http://sodipodi.sourceforge.net/DTD/sodipodi-0.dtd"
   xmlns="http://www.w3.org/2000/svg"
   xmlns:svg="http://www.w3.org/2000/svg">
  <defs
     id="defs4" />
  <sodipodi:namedview
     id="namedview4"
     pagecolor="#ffffff"
     bordercolor="#000000"
     borderopacity="0.25"
     inkscape:showpageshadow="2"
     inkscape:pageopacity="0.0"
     inkscape:pagecheckerboard="0"
     inkscape:deskcolor="#d1d1d1"
     inkscape:zoom="25.055556"
     inkscape:cx="18"
     inkscape:cy="18"
     inkscape:current-layer="svg4" />
  <path
     fill="#DD2E44"
     d="M35.702 7.477L28.522.298c-.396-.397-1.038-.397-1.436 0L3.395 23.989c-.397.397-.397 1.038 0 1.437.72.719-3.14 7.959-3.395 8.496L2.068 36c.536-.255 7.785-4.115 8.506-3.395.397.397 1.039.397 1.436 0L35.702 8.913c.397-.396.397-1.039 0-1.436z"
     id="path1"
     style="fill:#ff3838;fill-opacity:1" />
  <path
     fill="#292f33"
     d="m 23.534,3.846 1.437,-1.436 8.62,8.62 -1.437,1.436 z m -17.958,17.957 1.436,-1.437 8.62,8.62 -1.437,1.437 z"
     id="path3"
     style="display:inline;fill:#222222;fill-opacity:1" />
</svg>
