<svg viewBox="0 0 32 32" version="1.1" id="svg7" width="32" height="32" xmlns="http://www.w3.org/2000/svg" xmlns:svg="http://www.w3.org/2000/svg"><defs id="defs7"/><path d="m 6.8298474,0.04122455 c -3.7406223,0 -6.8578075,2.22903315 -6.8578075,4.77904715 V 28.492604 c 0,1.961549 1.6935155,3.548621 3.7685373,3.548621 H 24.44427 c 1.526025,0 2.838035,-0.864865 3.424251,-2.095291 a 3.7034021,3.5486208 0 0 0 2.223903,-3.236556 V 26.227906 A 3.6940971,3.5397046 0 0 0 31.97204,23.151841 V 4.8202717 c 0,-2.7194205 -2.140157,-4.77904715 -5.061937,-4.77904715 H 7.4998096 Z" id="path1" style="stroke-width:1"/><path fill="#a0041e" d="m 29.664392,22.206731 a 3.2195406,3.0849819 0 0 1 -3.228845,3.093898 H 5.508533 A 3.2195406,3.0849819 0 0 1 2.2889925,22.206731 V 7.0314726 c 0,-1.7029814 4.6618203,-4.8682084 6.4390811,-4.8682084 H 25.328248 c 2.493748,0 4.326839,1.7832265 4.326839,4.1460016 z" id="path2" style="stroke-width:1"/><path fill="#ccd6dd" d="m 28.045317,25.300629 a 3.2195406,3.0849819 0 0 1 -3.219541,3.084982 H 7.1183033 A 3.2195406,3.0849819 0 0 1 3.8987628,25.300629 V 6.7818208 c 0,-3.1830593 -0.01861,-3.0849818 4.0290782,-3.0849818 h 16.897935 a 3.2195406,3.0849819 0 0 1 3.219541,3.0849818 z" id="path3" style="stroke-width:1"/><path fill="#e1e8ed" d="m 26.435547,26.067416 a 2.4193079,2.3181945 0 0 1 -2.419308,2.318195 H 4.7176054 A 2.4193079,2.3181945 0 0 1 2.2982975,26.067416 V 7.5575244 A 2.4193079,2.3181945 0 0 1 4.7176054,5.2393299 H 24.034849 a 2.4193079,2.3181945 0 0 1 2.419308,2.3181945 z" id="path4" style="stroke-width:1"/><path fill="#be1931" d="m 26.435547,26.84312 a 3.2195406,3.0849819 0 0 1 -3.219541,3.084981 H 6.3180707 A 3.2195406,3.0849819 0 0 1 3.0985301,26.84312 V 9.8757189 A 3.2195406,3.0849819 0 0 1 6.3087657,6.7818208 H 23.206701 a 3.2195406,3.0849819 0 0 1 3.219541,3.0849819 z" id="path5" style="stroke-width:1"/><path fill="#dd2e44" d="m 24.825776,26.84312 a 3.2195406,3.0849819 0 0 1 -3.21954,3.084981 H 6.3180707 A 3.2195406,3.0849819 0 0 1 3.0985301,26.84312 V 11.41821 A 3.2195406,3.0849819 0 0 1 6.3087657,8.3332279 H 21.866777 c 1.777261,0 2.949694,1.1234327 2.949694,2.8264141 z" id="path6" style="stroke-width:1"/><path fill="#a0041e" d="m 6.3087657,6.7818208 c -1.3492295,0 -1.3957546,-1.480078 -0.8002327,-2.1131234 C 6.1784952,3.9375745 7.2206587,3.7057551 9.0816648,3.7057551 H 10.337844 V 2.1632642 H 8.1511617 c -3.1916255,0 -5.8621692,1.9258846 -5.8621692,4.1460016 V 26.84312 A 3.2195406,3.0849819 0 0 0 5.508533,29.928101 H 7.1183033 V 6.7818208 Z" id="path7" style="stroke-width:1"/></svg>