<svg xmlns="http://www.w3.org/2000/svg" width="404.54968mm" height="148.22791mm" viewBox="0 0 404.54968 148.22791"><path d="M100.56189 52.984222c-7.184544-7.639219-9.203899-19.739283-36.404123-10.092232C31.21696 16.439243 6.2886896 37.021785-5.0461163 54.065534c-9.4540287-.102878-18.6164687.863402-25.2305827 11.173542-33.130704-7.126282-46.684444 14.794382-38.927182 28.474514-23.575596 39.19433 22.217837 56.54353 40.008494 46.13592 7.010721 15.6529 25.9576748 31.32068 59.832523 15.49879 9.854732 15.95734 23.667322 19.60134 42.171116 8.65048 11.314248 12.47755 58.415238 24.72648 81.458738-9.37136 7.01006 7.95865 15.3853 18.98378 36.76456 2.52306 18.79807 18.28134 67.19452 18.56011 79.29612-14.05704 22.85433 8.85352 45.3291-5.03 38.20631-23.06796 34.92224-27.25221-7.10815-65.60795-28.47451-58.751209-23.80568-33.975727-53.92969-39.067621-91.19054-11.533981-8.19305-6.476842-17.71584-11.457722-33.52063-9.371359-15.05601-7.016358-30.32834-13.275569-54.78641 12.615291Z" style="opacity:.076;fill:#fff;fill-opacity:1;stroke:none;stroke-width:.2;stroke-linecap:round;stroke-linejoin:round;stroke-opacity:1" transform="translate(80.31999 -29.932529)"/><path d="M158.08848 41.319343c-13.13642-13.107539-44.97184-12.119931-56.98145 9.272525 2.40911-3.992996-12.521828-21.558997-37.248251-9.554271C54.129804 28.444679 37.574435 29.6559 23.320796 30.298799 10.587805 28.403366-5.485795 47.103091-4.9465882 54.61637-15.819642 52.359609-27.317038 53.378514-31.600051 65.886769c-8.319299-7.362082-17.31643-4.666465-23.104729.0074-20.562035-.341966-24.162331 19.673139-17.293049 31.525965-12.11109 8.983836-10.675838 28.036986 2.174138 33.952366 10.943989 18.34537 27.508003 16.66782 40.248418 10.41907-1.47117 6.84182 7.139059 17.78 15.905772 16.21599 19.4649322 9.22087 30.866783 5.15599 44.751031-1.30764-3.148378 13.19672 30.050079 23.86069 40.04316 7.28943 12.180576 12.71197 35.01651 18.63983 58.65835 10.30831 13.97761 2.10979 26.52468-13.72011 24.64394-19.75174-2.113 13.86008 33.85837 18.3017 36.52893 2.17884 12.21096 16.35999 30.87141 18.75963 43.0661 12.32644 21.37386 1.47887 31.84493-8.24711 37.04523-24.04175 10.09701 5.65756 45.00036 5.9875 40.77364-23.91818 4.72042-4.08978 18.76583-18.31692 9.02599-35.280928-.81191-16.100978-15.12157-26.535685-35.52848-25.100945-8.8586 2.200839-3.31178-1.670865-10.17436-9.015946-14.72958-19.139179-37.0558-26.859272-61.58236-18.278516-11.00516 1.248942-22.76089 8.440237-27.31901 16.209508 2.72802-2.669416-12.97986-13.151983-19.36653-10.796475-7.22177-4.091786-20.52738 7.033623-6.55788 2.629254 17.31537-4.00795 25.08961 24.378139 35.60322 6.244068 6.97376-9.029261 28.18279-14.092873 32.0537-12.144902 12.7828-3.038981 32.03439 6.584336 41.78833 19.271139 3.54304 10.263534 9.99929 12.322489 20.60898 9.724456-2.71311-.759508 19.4098 2.622121 21.58847 10.44274 10.40086 12.543357 10.83673 33.054417-4.6402 42.657997 5.72378 15.79712-14.05787 30.49484-21.14028 24.62757-14.13213-4.71782-21.79479 2.31172-27.52531 14.15623-18.5494 15.43159-52.94745 12.43902-61.25402 1.0953-9.87938-7.62405-15.73347 9.20175-26.38992 6.55667 5.16 1.29125-10.98446-3.15044-12.37836-8.80257-11.78563-10.11633-6.41089 11.56824-28.69098 15.57668-16.15488 3.78502-23.10452 4.52616-39.572114.34512-8.860076-9.55202-19.764179-14.64989-30.23193-3.70559-3.692769 2.50763-15.760995.3115-19.20777-2.25156-4.535789-7.20252-6.868894-18.7355-25.490041-6.11173-12.2891358 1.84724-25.888624-.94056-37.93753-9.9555-2.499142-13.51831-9.203648-12.45951-18.9889-7.02563-6.527792 2.77594-28.399665-9.72214-32.439266-22.67877-4.081308-14.33739 13.949579-20.668408 4.279459-32.310323-2.753357-16.665071 26.780007-22.708111 28.38918-21.736013 10.753357 4.182171 15.864076.02283 21.861383-7.640496C8.6303203 63.227813-.66001723 40.867291 17.755885 35.314366c5.569446-3.683191 13.980689-2.913963 16.957858-1.698025 17.323387-3.795329 22.184576 15.61432 36.261139 7.356969 33.816038-2.005301 22.307825 25.760826 37.146838 7.830719 10.83396-6.600126 26.51179-13.748023 35.54997-11.311811 13.12353 4.36377 14.41679 3.827125 14.41679 3.827125z" style="display:inline;fill:gray;fill-opacity:1;stroke:none;stroke-width:.2;stroke-linecap:round;stroke-linejoin:round;stroke-opacity:1" transform="translate(80.31999 -29.932529)"/></svg>