<svg xmlns="http://www.w3.org/2000/svg" xmlns:xlink="http://www.w3.org/1999/xlink" width="401.2952mm" height="72.162743mm" viewBox="0 0 401.29519 72.162745"><defs><linearGradient id="a"><stop offset="0" style="stop-color:#fff;stop-opacity:.24685138"/><stop offset="1" style="stop-color:#fff;stop-opacity:0"/></linearGradient><linearGradient xlink:href="#a" id="b" x1="131.21992" x2="131.21992" y1="39.617489" y2="98.236984" gradientTransform="translate(1.9145932 4.2397009)" gradientUnits="userSpaceOnUse"/></defs><path d="m-70.380163 99.893618 387.388243 6.295942c-5.51155-36.487801-10.1444-22.260448-17.98828-45.262191 4.02493-.166513 9.76915.895033 15.42697 1.894869 5.98301 1.578636 17.34352-37.873219-13.48517-23.204749-34.37906 9.02551-87.10617-.267751-128.9629-3.568143-85.838677 4.009527-162.5839053 2.630344-235.497444-1.01947-15.919385.862535-15.284725 17.839563-11.440594 28.564268 1.276437 4.722491 8.01201.521128 18.355852 1.229927-9.601684 17.754709-10.71822 16.536575-13.796677 35.069547z" style="opacity:1;fill:url(#b);fill-opacity:1;stroke:none;stroke-width:.2;stroke-linecap:round;stroke-linejoin:round;stroke-opacity:.367758" transform="translate(78.40539812 -34.17223)"/><path d="M-64.149392 82.962454c2.911315-6.81575 7.210558-12.22422 10.111939-19.047891 3.115677-8.742346 2.601442-17.733437-3.501739-26.570288-1.026992-1.210502-9.37362-6.705041-16.358588.391097-7.386436 8.38556-5.176506 28.963599 2.862716 28.249524 6.517434.428252 10.006186-5.073928 10.006964-11.141531.450902-7.062221-8.207975-8.414121-9.954687-4.035553-1.38071 5.141783 1.05134 5.51665 3.194425 2.581213-.594543-1.884283 3.243096-3.94606 3.266575 1.437505.192724 4.125645-2.092333 7.489736-4.498532 9.376161-9.699479.08485-6.70466-20.204461-1.255457-26.279726 7.485184-5.838183 13.812638 5.267125 14.467583 12.212464.999469 19.04767-10.325747 22.093259-14.061677 38.240927-.892589 3.72083.908864 6.033942-1.61106 12.217324 12.088553-3.906642-.05346-6.504138 7.331538-17.631226z" style="fill:#00cb75;fill-opacity:1;stroke-width:.2;stroke-linecap:round;stroke-linejoin:round" transform="translate(78.405397 -34.17223)"/><path d="M-64.761362 34.652324c34.619789 6.572411 66.4370888 1.622228 101.448423 5.760914 33.218262-.513588 105.568219-2.629388 111.328969-2.631164 30.87207-.0095 56.72588 4.455745 77.7313 5.817536 8.16762 1.009522 38.91286.408472 36.66551.417466 16.9701.667818 27.29944.483142 41.79251-4.03467-.74347-2.724925-16.25948 1.939482-18.74665 2.173975-5.51481.51994-18.93087-.424075-28.87586.0081-45.94152-.932598-82.22194-10.796744-141.81076-5.071168-29.672552-.58207-27.912604.943994-36.694021.705514-45.19894.504943-69.5900682-2.165064-129.761715-1.957871-4.427398-1.099346-8.568222-2.385539-13.077706-1.188632Z" style="fill:#00cb75;fill-opacity:1;stroke-width:.2;stroke-linecap:round;stroke-linejoin:round" transform="translate(78.405397 -34.17223)"/><path d="M317.41484 106.33497c-1.54895-7.57828-1.23051-15.7666-3.80082-22.97693-2.84472-6.84938-9.11455-9.97974-11.34466-17.386126-2.6608-9.619962-4.14341-25.527702 8.17137-28.690039 11.92343 2.875716 9.57188 12.200073 8.36174 16.711413-1.9106 10.221564-9.70015 4.625827-7.62066-3.605989 6.86869-2.077234-1.97667-8.475889-3.36129-.942798-1.32985 2.743145-.86661 6.587216.41444 9.22749 2.61849 6.375051 10.40834 5.092822 12.04305.330037 2.39406-3.988852 4.97938-15.067601-1.35347-21.59495-4.24275-2.902486-12.02377-3.155708-16.64669.759517-8.36312 6.903651-4.94588 22.87426-4.50674 24.761934 2.20683 12.35408 11.32159 13.970087 13.26818 24.364161 1.9439 5.773049-3.57644 17.07889 6.37555 19.04224z" style="fill:#00cb75;fill-opacity:1;stroke-width:.2;stroke-linecap:round;stroke-linejoin:round" transform="translate(78.405397 -34.17223)"/></svg>