<svg xmlns="http://www.w3.org/2000/svg" xmlns:xlink="http://www.w3.org/1999/xlink" width="392.98663mm" height="32.671749mm" viewBox="0 0 392.98663 32.67175"><defs><linearGradient id="a"><stop offset="0" style="stop-color:#fff;stop-opacity:.11586902"/><stop offset="1" style="stop-color:#fff;stop-opacity:0"/></linearGradient><linearGradient xlink:href="#a" id="b" x1="131.21992" x2="131.21992" y1="39.617489" y2="63.065289" gradientTransform="translate(5.74321 6.1050972)" gradientUnits="userSpaceOnUse"/></defs><path d="M318.40985 68.709373c-5.50021-21.814571-.0303-24.605177-7.26371-30.788651-38.76631 12.937777-97.6754 2.106196-139.14744-.09084-85.838676 1.79799-166.1882731.45865-239.101812-1.178035-17.830372 3.757316 3.052078 9.915951-5.980327 29.807696 130.497813.722044 260.995589 1.494671 391.493289 2.24983z" style="display:inline;opacity:1;fill:url(#b);fill-opacity:1;stroke:none;stroke-width:.2;stroke-linecap:round;stroke-linejoin:round;stroke-opacity:.367758" transform="translate(74.576781 -36.037625)"/><path d="M-64.581144 37.535819c27.602224 2.585698 66.2568708-.540393 101.268205 3.598293 33.218262-.513588 105.568219-2.629388 111.328969-2.631164 30.87207-.0095 56.72588 4.455745 77.7313 5.817536 8.16762 1.009522 38.91286.408472 36.66551.417466 16.9701.667818 27.29944.483142 41.79251-4.03467-.74347-2.724925-16.25948 1.939482-18.74665 2.173975-5.51481.51994-18.93087-.424075-28.87586.0081-45.94152-.932598-82.22194-10.796744-141.81076-5.071168-29.672552-.58207-27.912604.943994-36.694021.705514-45.19894.504943-69.5900682-2.165064-129.761715-1.957871-4.427398-1.099346-17.542772.538832-12.897488.973989z" style="fill:gray;fill-opacity:1;stroke-width:.2;stroke-linecap:round;stroke-linejoin:round" transform="translate(74.576781 -36.037625)"/></svg>