<?xml version="1.0" encoding="UTF-8" standalone="no"?>
<svg
   xml:space="preserve"
   width="39.76133"
   height="34.11401"
   version="1.1"
   id="svg8"
   sodipodi:docname="icon-babo-1c.svg"
   inkscape:version="1.4 (86a8ad7, 2024-10-11)"
   xmlns:inkscape="http://www.inkscape.org/namespaces/inkscape"
   xmlns:sodipodi="http://sodipodi.sourceforge.net/DTD/sodipodi-0.dtd"
   xmlns="http://www.w3.org/2000/svg"
   xmlns:svg="http://www.w3.org/2000/svg"><defs
     id="defs8" /><sodipodi:namedview
     id="namedview8"
     pagecolor="#ffffff"
     bordercolor="#000000"
     borderopacity="0.25"
     inkscape:showpageshadow="2"
     inkscape:pageopacity="0.0"
     inkscape:pagecheckerboard="0"
     inkscape:deskcolor="#d1d1d1"
     inkscape:zoom="2.1349586"
     inkscape:cx="-187.35726"
     inkscape:cy="43.092171"
     inkscape:current-layer="g8" /><g
     style="opacity:1"
     id="g8"><rect
       style="fill:#ffe2cc;stroke:#ffe2cc;stroke-width:0.755906;stroke-linecap:round;stroke-linejoin:round"
       id="rect8"
       width="2.2248676"
       height="5.8549147"
       x="9.5435104"
       y="21.136242"
       ry="0.81968802"
       rx="0.81968802" /><path
       fill="none"
       d="M9.4521685 27.874866c.5802795 2.19161-.6430063 5.233659.6217435 6.787336 1.573759 2.300768 4.180436 1.833297 5.384845 2.388942 1.956061 1.07986 4.970624 1.000567 7.30647.288825.952278-.158315 5.28352-2.388698 5.537735-2.866169"
       style="fill:#ffe2cc;fill-opacity:0;stroke:#ffe2cc;stroke-width:.755906;stroke-linecap:round;stroke-linejoin:round;stroke-opacity:1"
       transform="translate(-2.4589956 -4.3539467)"
       id="path1" /><path
       d="M30.357249 23.331222c-.304298-.136336-1.313153-1.09535-3.686481-.573772-.376806-1.301891-.677181-2.731168-1.279354-3.657447-.01088 1.197126-.08089 2.374545-.331127 3.491884-.296068.236727-.813987-3.438188-1.459968-5.252877-.0095 1.624987.392232 3.155967.247681 4.632124-1.651871-.06501-4.134995.701096-6.388581 1.147546-1.115805-1.247077.01813-10.462504.888023-9.708039-.576016 2.970108-.306042 5.955267-.436486 8.925375l5.073332-1.064542c.16931-1.74245.0481-3.772162.401975-4.622682.3551-.476672 1.002218 2.879432 1.551032 3.812109.178407-.436302.244084-1.449278.343597-2.043368.135321-.50774 1.24646 2.530241 1.912261 3.539933 1.362563.07468 4.648219.683446 3.164096 1.373756z"
       style="fill:#ffe2cc;fill-opacity:1;stroke:none;stroke-width:.755906;stroke-linecap:round;stroke-linejoin:round;stroke-dasharray:none;stroke-opacity:1"
       transform="translate(-2.4589956 -4.3539467)"
       id="path3" /><path
       d="m10.20473 27.889917-.5403316-5.655165c.8497286.307338 4.3635506.943902 4.9389416.696322.289108-.239075.154679-2.872462.52314-4.403018.05169.592125.191733 4.629445.6171 4.038449.506814-1.698277 1.899761-5.427464 1.618855-5.440038-.224505-.244424-1.110328 2.226382-1.66868 3.111902-.227047-.801759-.189564-3.09415-.66609-2.826712l-1.042997 4.767985c-.872265.381325-3.202089-.391739-4.7892695-.510856-.2001792 1.802941.2008354 5.209708-.7108331 5.31907-.042837.939299.3297864.946735 1.7201646.902061zm23.469151-2.645186c.84903-.253677.459727.104094.780712 1.860184.279064.619884-2.241725 2.161455-3.885553 2.621251 1.322619-1.321691 2.666509-2.635058 3.104841-4.481435z"
       style="fill:#ffe2cc;fill-opacity:1;stroke:none;stroke-width:.755906;stroke-linecap:round;stroke-linejoin:round;stroke-dasharray:none;stroke-opacity:1"
       transform="translate(-2.4589956 -4.3539467)"
       id="path4" /><path
       d="M31.592524 27.092203c.39257.705041-.440729 2.679117-1.21915 2.859732"
       style="fill:#ffe2cc;fill-opacity:1;stroke:none;stroke-width:.755906;stroke-linecap:round;stroke-linejoin:round;stroke-dasharray:none;stroke-opacity:1"
       transform="translate(-2.4589956 -4.3539467)"
       id="path5" /><path
       d="M31.622626 27.167459c-.454304 1.392565-2.750506 2.921-3.100552 2.649015.0971-2.535827-.155532-4.791306-.210722-7.13428.781702-.05485.918125 4.120855.978329 6.050592.826092-.334062 1.521383-.86641 2.332945-1.565327z"
       style="fill:#ffe2cc;fill-opacity:1;stroke:none;stroke-width:.755906;stroke-linecap:round;stroke-linejoin:round;stroke-dasharray:none;stroke-opacity:1"
       transform="translate(-2.4589956 -4.3539467)"
       id="path6" /><path
       d="M30.764701 29.921833c-.649739 2.014636-1.802342 3.763049-3.130654 5.41844 1.64883-.169197 3.458891-.519779 4.816391-.361229.494886-1.073703.908084-2.17804 1.083688-3.371474.353616.537349.325268 1.784059.421434 2.799528 1.8576-1.171793 4.526438-2.880039 6.954493-2.895631.241032-1.210023-.729697-4.687681-2.559535-7.850943.357399-3.257484 1.31832-7.856698-6.402378-13.7054308-1.351946-1.3932136-2.985219-3.3061146-8.503498-3.4280269l1.218079-1.1651786c-1.226586-.1706672-3.011776-.4005927-4.954434 1.5616752l-.024312-2.1916873c-1.754516.9053436-1.915007 1.5312281-2.164351 2.5529167-.624188-.3246322-1.280769-.6868986-2.380232-.6725834-3.81911 1.186476-5.3760321 5.7606751-8.2158291 3.9236481.2822053 2.395039 1.4166467 2.659488 2.5888105 2.82963-7.4920127 3.144206.1705905 14.177845-6.6754392 14.767833.4602262 1.277784.9437804 1.560216 1.2503212 1.384085"
       style="fill:none;fill-opacity:1;stroke:#ffe2cc;stroke-width:.755906;stroke-linecap:round;stroke-linejoin:round;stroke-dasharray:none;stroke-opacity:1"
       transform="translate(-2.4589956 -4.3539467)"
       id="path7" /><path
       d="M3.4482744 30.119187c.470497.884924 1.0936958 1.6475 2.0434219 2.085994.7694076-.286738 1.0751058-1.191755 1.5325665-1.894423l-1.0642823 2.426563c1.3545997.316881 2.1472255 1.73403 3.559956 1.117579"
       style="fill:none;fill-opacity:1;stroke:#ffe2cc;stroke-width:.755906;stroke-linecap:round;stroke-linejoin:round;stroke-dasharray:none;stroke-opacity:1"
       transform="translate(-2.4589956 -4.3539467)"
       id="path8" /><rect
       style="fill:#ffe2cc;stroke:#ffe2cc;stroke-width:0.755906;stroke-linecap:round;stroke-linejoin:round"
       id="rect9"
       width="2.2248676"
       height="5.8549147"
       x="19.321218"
       y="21.136242"
       ry="0.81968802"
       rx="0.81968802" /></g></svg>
