<svg xmlns="http://www.w3.org/2000/svg" xmlns:xlink="http://www.w3.org/1999/xlink" width="35.456356" height="33.86063"><defs><linearGradient id="b"><stop offset="0" style="stop-color:#7b2776;stop-opacity:.84382874"/><stop offset="1" style="stop-color:#fe00fa;stop-opacity:.1536524"/></linearGradient><linearGradient id="a"><stop offset="0" style="stop-color:#fff;stop-opacity:1"/><stop offset="1" style="stop-color:#000;stop-opacity:0"/></linearGradient><linearGradient xlink:href="#a" id="e" x1="21.877237" x2="43.364887" y1="18.177294" y2="35.175556" gradientTransform="translate(13.747375 12.483022)" gradientUnits="userSpaceOnUse"/><linearGradient xlink:href="#b" id="c" x1="31.005518" x2="18.723721" y1="21.011507" y2="5.9000793" gradientTransform="translate(13.747375 12.483022)" gradientUnits="userSpaceOnUse"/><linearGradient xlink:href="#a" id="d" x1="21.877237" x2="43.364887" y1="18.177294" y2="35.175556" gradientTransform="translate(13.747375 12.483022)" gradientUnits="userSpaceOnUse"/></defs><path d="M20.252656 33.363936c-.09314 1.255-.114946 5.083536-.114946 5.083536-.01157 1.299857.328273 1.797997 1.728625 1.857893 1.250847.0535 1.849412-.345745 1.775457-1.680018-.06886-1.242448.07624-3.250796.164386-5.049267.06052-1.234728-.5518-1.567667-1.593837-1.666042-1.814433-.171294-1.954432 1.383117-1.959685 1.453898zM33.228752 33.438989c.06354 1.25628-.0049 5.084436-.0049 5.084436-.01907 1.299795-.37058 1.792291-1.772073 1.82931-1.251867.03306-1.840909-.375876-1.735525-1.708684.09811-1.241085.000385-3.251416-.04537-5.050981-.03141-1.235477.588638-1.558355 1.632794-1.639697 1.818117-.141633 1.92146 1.414763 1.925045 1.485616z" style="display:inline;fill:#ffe2cc;fill-opacity:1;stroke:none;stroke-width:0;stroke-linecap:square;stroke-linejoin:round;stroke-dasharray:none" transform="translate(-13.747375 -12.483022)"/><path d="M16.903727 37.350299c-1.11678 3.692075 2.053043 7.446661 5.82662 8.101766 8.092603 1.404902 16.218641-.01619 19.597007-4.995698 1.199089.489842 2.322486.836838 2.5404.804958 1.794002-.323973-.815711-2.146617-1.173457-2.397052 2.179011-.460138 5.623973-1.958509 1.921145-2.945651.466165-1.37375.646002-3.321169.367415-5.309426.720015-.158648 1.889169-1.248708 2.246142-2.113295.493419-1.195061.03069-1.476262-1.527854-1.580451 1.042961-.640019 1.526753-1.429218 1.958589-2.386491.710306-1.574571-1.117397-.683717-1.767984-1.214823-.709123-.578891-4.572878-10.711671-17.022022-7.73496-1.771081-.331872-2.831728-1.958797-4.017736-2.718211-1.140455 1.042416 1.051074 3.420184-1.097436 2.758749-2.740473-.000531-5.479058 1.440512-6.929665 3.79004-1.408936 1.925073-1.559259 4.465958-2.975881 6.366592-2.055847 1.571052 1.95177.10204 1.889577.408615-1.523865 2.36868-.461645 5.587291.979857 6.761449-.256584 1.398564-.538159 2.90135-.814717 4.403889z" style="display:inline;fill:none;fill-opacity:1;stroke:#ffe2cc;stroke-width:.755906;stroke-linecap:round;stroke-linejoin:round;stroke-dasharray:none;stroke-opacity:1" transform="translate(-13.747375 -12.483022)"/><g transform="translate(-13.747375 -12.483022)"><ellipse cx="16.488894" cy="40.770752" rx="2.7415183" ry="2.2135408" style="fill:#fd43e1;fill-opacity:.5;stroke:none;stroke-width:1;stroke-linecap:round;stroke-linejoin:round;stroke-dasharray:none;stroke-opacity:1"/><ellipse cx="36.858936" cy="40.983608" rx="2.7415183" ry="2.2135408" style="fill:#fd43e1;fill-opacity:.5;stroke:none;stroke-width:1;stroke-linecap:round;stroke-linejoin:round;stroke-dasharray:none;stroke-opacity:1"/></g></svg>