<svg xmlns="http://www.w3.org/2000/svg" width="41.945263" height="36.244125"><path d="M9.8339844 5.7871094c.2236976.7264433-.0527468 1.7355146 1.0114836 1.4283949.176083-.2151752-.651803-1.3592718-1.0114836-1.4283949Zm-.8320313.03125c-1.053425-.139923.0303981.8975647-.2265625 1.4980466 1.0030324.1486933.4277848-1.0070495.2265625-1.4980466Zm2.5351559.125c.514794.6949364.651386 1.7947881 1.606302 1.6031421-.281528-.4809953-.563055-.9619906-.844583-1.4429859-.252375-.0603411-.506318-.1142291-.761719-.1601562Zm-5.8574215.546875c-1.1137681-.0714904-.4570398 1.0448279-.8535156 1.7089843 1.1633146-.0987534 1.1317445-.6728155.8535156-1.7089843Zm.8125.044922c.0809848.4019439.1268816 1.8090272.2079463.7252818-.0215415-.2521788-.0914279-.5004018-.2079463-.7252818Zm-2.3339844.3535155c-.5452018.2527964-.5615163 1.5456875-1.5639743 1.3947544-.5389147.021905-1.0912345-1.2592246-1.3680916-.4867394.1851175 1.4361323 1.9362077 1.1717489 2.7507682.5133108.4243015-.35641.2935692-.9563298.1812977-1.4213258Zm-1.1777344.3027343c-.8796031-.00333-.2440575.6332681 0 0zm-2.58789058.6152344c-.15179276.2862905.35019236 1.521918.82421878 1.4160156-.39963971-.3836748-.6708446-.8870565-.82421878-1.4160156Zm-1.33789062.2890625c-.5031304.062583-.9978987.1279219-.5935043.7085941.1020917.6941854.4083531 1.1011375 1.11566323.777535.65240975-.06532-.44873089-1.104186-.52215893-1.4861291zm12.5644535.6777344c-1.178723-.1272147.547491 1.8704185.656719.5476529.324643-.3916263.462291-.5972958-.143798-.5332764-.17086-.00808-.341883-.01283-.512921-.0143765Zm-1.609375.078125c-.751633-.0505811-1.1446707.9331596-1.1166722 1.5832385.3969542.218546 1.2101552-.146503 1.7768282-.104723-.384506-.3905886-.6702823-.9188322-.660156-1.4785155Zm-1.478516.2011719c-.9965986-.3742479-.4508537 1.8413126-.3355439.6907653.0789349-.2446919.2025941-.4718206.3355439-.6907653Zm5.707031.4882812c-.372832.2809538-1.231266 1.0144604-.242212.9541024.740745.112278.712582-.350519.332041-.7950541-.02994-.053016-.05989-.1060322-.08983-.1590483zm-8.2519529.0859375c-.7166635.1740238-1.439803.9515499-1.2210873 1.7429459.2396533.397044.8309538-.094697.6494905-.563958.0668092-.441073.2840011-.8444901.5715968-1.1789879Zm-1.7382812.4921879c-.534448.231608-1.6999077.346513-1.8304703.649436.765957.26498.7244133 1.626509 1.6488296.985329-.2531397-.534912-.1797786-1.1679.1816407-1.634765zM6.5 10.226562c-.3857037.305739-.6181938 1.285556.1528842.814764.4162436.036745-.2068622-.591219-.1528842-.814764Zm-5.53710938.837891c-.6549257.250287-1.99224172.130301-1.18454797 1.087069.21467706 1.288065 1.55090875.210932 2.37498895.15541.2861749-.309975-.9706751-.907268-1.19044098-1.242479Zm11.84570338.455078c-1.140686 1.431673-3.3913279 1.639032-4.8730471.625-.4590084.0899-1.1004934.184411-.3096121.383334 1.1060498.256526 1.9008071 1.39888 3.0732362.822866.920126-.142553 1.904438-.06823 2.094673-1.169202.127928-.31595.749449-.815694.01475-.661998zm1.345703.07422c-.269792.335994-1.458691 1.610777-.417969 1.37305-.111691-.407011.730073-1.289465.417969-1.37305zm1.722656.828125c-.164323.336904.368562 1.118332.374268.632327-.124756-.210776-.249512-.421551-.374268-.632327zm-1.226562.117187c-.204619.216273.0485.115092 0 0zm-8.5937504.05469c-1.0478288.118978.5583508.786453.9685168.892802.3932442.171612 1.4698235.612973 1.4178582.211634-.7729121-.414891-1.6695851-.584724-2.386375-1.104436ZM4.765625 12.9375c-.7473762.07512-1.2423495.363686-.4566002.941655.567261.434984 1.3733139.671325 2.0582286.404621.8011744-.120295-.7675219-.357291-.9598501-.736932-.2351715-.179058-.4505244-.384013-.6417783-.609344Zm-2.6660156.736328c-.4595104.228893-1.83094401.184872-1.0507838.847616.4032643-.20547.7705267-.490863 1.0507838-.847616Zm1.3359375.318359c-.5778553.544191 1.5092903 1.233191.4967207.585093-.2121109-.148419-.3855859-.351016-.4967207-.585093Zm10.0546871.373047c-1.069692-.187849-.898311 1.751662-2.223615 1.426416-.726538.0505-1.2929645-.589485-1.7429167-.924238-.671469.03116.1935883 1.736219.8621907 1.401058.865642-.363041 2.206811.111007 2.725641-.779737.194536-.347321.301805-.735281.3787-1.123499zm2.472657.002c-.119468.547777.03823 2.018643.516331 1.317309-.273305-.380594.156805-1.470866-.516331-1.317309zm-3.892579.121094c-.473312.08319-2.2556886.126536-1.038848.470799.402998.105182.88296-.05987 1.038848-.470799zm5.009766.0625c-.08414.541884.379148 1.865643.722821 1.311329-.24094-.43711-.481881-.874219-.722821-1.311329zM2.4375 15.027344c-.4833994.079864-1.0459355.664473-.2086856.313449.2661085-.041468.7455221-.170811.2086856-.313449Zm11.677734.02148c-.15786.293012.157606.407945 0 0zm-5.7812496.0625c-.5039039.17026-1.631144.105857-.8175644.764891.2773428.58167.4402643 1.149612 1.161861.741735.8024937.02172-.075353-.959029-.245912-1.386061zm-2.0351563.498047c-1.0295667.07085.5351714.743119.2734375 1.419922.068999.2339 1.0381998-.04498.4837567-.425984-.205394-.364134-.46875-.692532-.7571942-.993938zm-2.0566406.621094c-1.2086076.190677.5812998.628095.6404807 1.312673.8847981.356784.5387064-1.12347-.2456132-1.143696-.1306331-.058614-.2628069-.113698-.3948675-.168977Zm-1.6035156.582035c.098858.455593.4633555 1.829972 1.2922472 1.159248.6958963-.387728-.9381435-1.0438-1.2922472-1.159248Zm13.5761721.185547c.367536.625118-.302206 1.72069.757367 1.455145.464545.01023.06944-1.342562-.238231-1.444486-.173023-.0046-.346089-.0076-.519136-.01066zm-2.519532.04297c-.843173-.166158-.181204.966731-.404285 1.49414.579886.09367.203745-1.107141.404285-1.49414zm4.001954.0098c.448731.629194-.129433 1.785423.991733 1.531838.810786.254334.811509-.0032.398624-.5405-.187409-.315472-.374818-.630943-.562227-.946415-.275946-.01671-.552057-.03055-.82813-.04492zm-5.240235.07813c-.984175.04644.16491 2.561547.135588.876741-.01353-.295918-.06228-.589951-.135588-.876741zm-1.810547.228516c-.7231961.252236-2.1320213.111621-2.373046.767578.039135.617081.1332512 1.722844.9615643 1.150477.662386-.310717 1.8913277-.211176 2.2106717-.672492-.235231-.719773.305733-1.396271-.79919-1.245563zm-3.1054684.732422c-.9455973.03604-.774811.728155-.6079362 1.429062-.2816244.820162 1.1631137.360575.7927891-.19506-.067799-.410415-.103574-.82575-.1848529-1.234002zm-1.8652344.748047c-.9699895.211935-.1250713 1.268886-.2558593 1.945312.8159006-.192241.1773022-1.289325.2558593-1.945312Zm-1.1992187.658203c-.9015159.243095.0688256 1.374491.2109377 1.732427-.1137317-.571085-.1104956-1.158216-.2109377-1.732427ZM23.3125-5.6542969c-.808028.4870116-1.582401 1.028541-2.330078 1.6035157.784948-.5786921 1.266882.6851286 1.396373.9059715.8017-.3456007.984777-1.2078337 1.053112-1.9940174-.01468-.1765803-.06303-.3482453-.119407-.5154698zm1.220703.6152344c-.161277.6893024.2925.3246885 0 0zm1.033203 1.2480469c.135273.7543622-.671796 1.9489561-.802602 2.1391828.766231-.3541461 1.215861-1.446675.802602-2.1391828zm-.851562.3847656c-.991133.3622651-1.056374 1.5469793-1.802878 2.1919428-.428704.36276225-.828858 1.46064336-.640706 1.64462443.605402-.84326958.985235-1.93888683 1.908424-2.57875473.348538-.3228746.472101-.8039741.53516-1.2578125zm-3.347657.00195c-.79268-.1638399-.96937 1.1961252-.06178.7873139.320219-.1578653.339361-.5844789.06178-.7873139zm-1.46289.2285157c-.799836.4567678-1.113259 1.1619386-.455424 1.9344562.132849.8162376 1.166545-.547639 1.154183-.6183044-.554792-.1464129-.910251-.7719476-.698759-1.3161518zM18.369141-1.75c-.879038.3413239-.0356 1.8580922.305483 1.83217363.874304-.5102745-.196982-1.16154503-.305483-1.83217363Zm8.345703.21875c-.08559.4006829-.26947.77097288.04684.1972662l-.04687-.1972656zm-5.351563.66015625c-.75091.59356837-1.460094 1.19671809-.905068 2.15519145.162286.4205062-.259279 1.5180189.293735.7002773.194812-.9529437.246592-1.9440589.611333-2.85546875zm5.013672.21875c-.74054 1.08574218-1.495018 2.29333555-1.414062 3.66406245 1.035292-.4893747.935425-1.4334597 1.017684-2.43137491.07926-.42537281.208324-.84252083.396378-1.23268754zM17.296875-.59375c-.307425.47476621.39887 1.1605902.435547 1.7480469.664045-.48036313-.362015-1.16674686-.435547-1.7480469zm10.644531.23828125c-.26549.50801608-.998896 2.05802625.01745 1.18384672.388159-.14920111-.112437-.86821295-.01745-1.18384672zM16.574219.28710937c-.915096.63621285.14924 1.30360503.25 2.12500003.775867-.6925618-.03899-1.3476947-.25-2.12500003zm7.464843.046875c-1.055696.41806594-.742499 1.38055423-.585937 2.26367183.01805-.7883455.2445-1.5570975.585937-2.26367183zm-4.449218.578125c-.706552.21872433-.05064 1.33214953.106395 1.12663803.06339-.3773144.0016-.7635763-.106395-1.12663803zm2.978515.67968753c-.899827.5237979-.912896 1.5620614-1.19606 2.4575893-.558438.8345129.285539 1.4234543.713638 2.0912388.940095-.6696575-.18155-1.8048526.51142-2.694454.125262-.6110441.100837-1.2462865-.029-1.8543741zm-6.933593.00586c-.784707.6969098.329863 1.408495.427734 2.197265.69931-.8071425-.246695-1.3707495-.427734-2.197265zm3.05664.4101563c-.773875.316101.134773 1.1869189.363294.7755182-.0777-.2764281-.21421-.5317523-.363294-.7755182Zm9.458985.011719c-.705799-.0134857-1.009516 1.1076746-.493657 1.1486539.644226-.1882325.443614-.6056697.493657-1.1486539Zm-4.695313 1.1191407c-.178445.4289805-.706813 2.2437319.07577 1.2551234.293234-.2824537-.155553-.8556749-.07577-1.2551234zm-5.601562.0625c-1.133457 1.021964 1.630534 1.4381379 1.05434.4517719-.390585-.015767-.774184-.1787055-1.05434-.4517719zm-3.240235.1855468c-.727242.8287455-.275731 1.6578961.242382 2.4549265.213598.39175.466294 1.0656855.47289.2545979.213235-.8483204-.2591-1.698577-.595584-2.4674127l-.05964-.1211817-.06005-.120931zm11.376953.00977c-.688207.2045008-.969932 1.2235778-.239411 1.2119761.594921-.2587319.272592-.7237533.239411-1.2119761zm3.277344.1054687c-.613866.0056-.369959 1.3166895.216773.7197365.412868.013118-.212322-.5539259-.216773-.7197365zm-1.089844.4472656c-.635932-.0466344-.715148 1.1903006-.40475 1.0548705.686562-.2288644.475596-.4551822.40475-1.0548705Zm-11.033203.4785104c-.733737.7814545-.55568 2.1301605.642578 2.2910156.024512-.6414887 1.308139-1.737836.159346-1.7092795-.312091-.1207802-.579538-.3351887-.801924-.5817361Zm6.955078.7441406c-.667969.2743528-.411891 1.211162.141969 1.0103251.571641-.4141475.119235-.5587237-.141969-1.0103251Zm6.097657.00781c-.551711.1178039-1.223866.3783876-.465078.8263179.325457.2141738 1.213573-.1713453.562211-.650336zm-1.529297.64844c-.504351.3407818-1.825575.8216202-.646249 1.0710587.421854.08701 1.476751-.4361809.737491-.9009579zm-3.503907.4179687c-1.047112.6874486 1.635629.3341612.388971.1596394l-.199277-.0679628Zm-2.037109.1503907c-.799983.5009979.07765 1.635581.493507.6208749.208717-.2111558-.441807-.3949566-.493507-.6208749ZM20.048828 6.75c-.290766.4448835-1.563469.9267276-.408203.703125.125728-.2401755.261742-.47499.408203-.703125Zm-3.945312.2519531c-.299349.6225439-.15469.8367714.510028.6957076 1.10766.1547548-.451022-.2367699-.510028-.6957076zm4.998046.1113281c-.627047.3670919.05943.942888.381042.8158936.17372-.2236287-.299421-.5806957-.381042-.8158936zm3.230469.1445313c-.445525.5216812-.986431 1.1902728-.212895 1.6386721.187912-.6058085 1.667194-1.6491235.416714-1.5787073l-.203824-.059965zm2.396485.097656c-.867254.3293084-1.936309 1.4343522-2.093212 2.3052562.527721 1.2238423.910342-.6785462 1.569031-1.0074813.255922-.4323862 1.389316-.9880647 1.129452-1.2278853-.198528-.045037-.402009-.065194-.605271-.06989zM19.113281 8.640625c-.545474-.1279608-1.460162.6118383-.480975.4621599.438278.1151463.34428-.1690971.480975-.4621599zm1.060547.011719c-.597422.4783012-.0059 1.1407351.431114.8212688.417134-.498675.05379-.6410666-.431114-.8212688zm-3.654297.2148438c.02955.7325203 1.170985.2809471.544189.00996-.181439.00355-.362995-.0001552-.544189-.00996zm2.125.9804687c-1.206912-.1503841-1.019006 1.4845995-.40616 2.0937305.246372-.182865.267135-1.460218.499909-2.0937308h-.09375zm3.027344.083984c-.634785.4876645 1.080779 1.2799905.261067.3368335l-.128669-.169841zm-2.103516.083984c-.170833.49403-.562003 1.094691.273901.821071.62395-.06471.370852-.802946-.273901-.821071zm1.523438.90625c-.626743.454711.941195 1.334854.445496.452778-.137938-.160855-.286963-.312184-.445496-.452778zM19.714844 11.625c-1.159216-.235587-.07044 1.613685-.03158.479865-.03372-.118113.246122-.486696.03158-.479865zm3.183593.02148c-.335599.387902.691445 1.534935.364999.541633-.122847-.179747-.244025-.360626-.364999-.541633zM20.583984 12c-.27372.56466-.563809 1.061051.167631 1.341606.26974.09447.620839-1.00919-.0064-1.203015zm1.746094.681641c-.359096.461826.822842 1.596573.312993.499554-.103297-.167167-.212754-.330492-.312993-.499554zm-3.548828.220703c.259779.377984.648638 1.483731.648436.453125-.223978-.139025-.450882-.277032-.648436-.453125zm1.173828.810547c-.414883.665493-.05546 1.24644.322266 1.816406.184177-.650179.344865-1.372281-.322266-1.816406zm1.857422.06055c-.427185.559452-.840387 2.269528.08581 2.02459.337051-.764156.526214-1.343773-.08581-2.02459zm-.869141 2.457032c-.210712.449776.658746 1.886686.620525.693957.239689-.325989-.555047-.378194-.620525-.693957z" style="display:inline;opacity:1;fill:#ffe2cc;stroke-linecap:round;stroke-linejoin:round" transform="translate(4.4396625 8.0732077)"/><path d="M24.099609-8.0625c-2.747325.6712343-5.688438 2.9717615-7.898437 5.578125-1.105 1.3031817-2.023658 2.68496805-2.625 3.9980469-.479223 1.0464213-.681393 2.0215038-.671875 2.9238281-.884616-.5757792-1.945438-.8979068-3.169922-.9296875-1.4967789-.0388479-3.1728782.2256782-4.8691406.5976562-3.3925249.7439562-6.8946124 1.925907-8.9589844 2.1015625a.37799079.37799079 0 0 0-.3359375.4628907c1.061388 4.5347831 2.7907137 7.7390801 4.34570313 10.5097651C1.4710051 19.950373 2.8374262 22.27824 3.2617188 25.101562a.37799079.37799079 0 0 0 .7089843.117188c1.2242694-2.342999 4.867771-3.603283 8.6582029-4.099609 3.790432-.496326 7.709486-.249001 9.214844.123046a.37799079.37799079 0 0 0 .451172-.251953c.657854-2.072995 1.903028-5.346143 3.761719-8.099609 1.85869-2.753466 4.297489-4.9521004 7.349609-5.0585938a.37799079.37799079 0 0 0 .269531-.6289062c-2.156127-2.4289152-2.984761-5.1437441-4.009765-7.8203125-1.025005-2.6765684-2.26648-5.3171195-5.261719-7.3886719a.37799079.37799079 0 0 0-.304688-.0566406Zm.01172.8183594C26.81021-5.308765 27.970746-2.933321 28.960938-.34765625c.94771 2.47473095 1.855778 5.11064585 3.826172 7.54492185-3.099521.3707931-5.550193 2.5923015-7.357422 5.2695314-1.854038 2.746574-3.057386 5.882472-3.746093 8.003906-1.817032-.387739-5.435085-.588307-9.152345-.101562-3.5710817.467603-7.0616462 1.595394-8.7421875 3.916015-.5584855-2.662222-1.7930239-4.946639-3.21289063-7.476562-1.50252305-2.677201-3.10866767-5.735485-4.15234377-9.9550784 2.265374-.2751981 5.4375865-1.3155003 8.6035156-2.0097656 1.6666605-.3654866 3.2950057-.6162194 4.6875001-.5800781 1.3924942.0361412 2.5278682.3558815 3.2832032 1.0722656a.37799079.37799079 0 0 0 .630859-.3476563c-.159559-.8080751.07136-1.9299061.634766-3.1601562.56341-1.23025012 1.445897-2.56493774 2.513672-3.8242187 2.089349-2.4640753 4.895779-4.5892092 7.333984-5.2480469z" style="fill:#ffe2cc;stroke-linecap:round;stroke-linejoin:round" transform="translate(4.4396625 8.0732077)"/><path d="M.30508802 17.191458c1.13780738 3.368611 1.94256618 7.479698 3.91677358 9.384608C7.9416862 21.061611 18.537406 21.00037 22.26825 21.948301c2.57401-7.01935 7.774527-10.513251 14.859431-12.2420112-4.774064-5.3668034-4.606069-7.6007219-8.837128-12.7444084" style="fill:none;fill-opacity:1;stroke:#ffe2cc;stroke-width:.755906;stroke-linecap:round;stroke-linejoin:round;stroke-dasharray:none;stroke-opacity:1" transform="translate(4.4396625 8.0732077)"/><path d="m3.8314158 26.011057 1.27286 1.781942c3.038684-5.504125 12.7136972-6.3377 17.6249542-4.790746 1.198326-3.267848 3.988634-6.471363 7.034198-8.639771 3.496321-2.489341 6.620338-3.0302 7.222969-2.445511l-1.098802-1.529577" style="fill:none;fill-opacity:1;stroke:#ffe2cc;stroke-width:.755906;stroke-linecap:round;stroke-linejoin:round;stroke-dasharray:none;stroke-opacity:1" transform="translate(4.4396625 8.0732077)"/><path d="m13.111957 4.9382693 8.641971 15.7513767" style="display:inline;fill:none;fill-opacity:1;stroke:#ffe2cc;stroke-width:.755906;stroke-linecap:round;stroke-linejoin:round;stroke-dasharray:none;stroke-opacity:1" transform="translate(4.4396625 8.0732077)"/></svg>