<?xml version="1.0" encoding="UTF-8" standalone="no"?>
<svg
   width="35.456356"
   height="33.86063"
   version="1.1"
   id="svg4"
   sodipodi:docname="icon-babo-1b.svg"
   inkscape:version="1.4 (86a8ad7, 2024-10-11)"
   xmlns:inkscape="http://www.inkscape.org/namespaces/inkscape"
   xmlns:sodipodi="http://sodipodi.sourceforge.net/DTD/sodipodi-0.dtd"
   xmlns="http://www.w3.org/2000/svg"
   xmlns:svg="http://www.w3.org/2000/svg">
  <defs
     id="defs4" />
  <sodipodi:namedview
     id="namedview4"
     pagecolor="#ffffff"
     bordercolor="#000000"
     borderopacity="0.25"
     inkscape:showpageshadow="2"
     inkscape:pageopacity="0.0"
     inkscape:pagecheckerboard="0"
     inkscape:deskcolor="#d1d1d1"
     inkscape:zoom="24.335046"
     inkscape:cx="17.711082"
     inkscape:cy="16.930315"
     inkscape:current-layer="svg4" />
  <path
     d="M20.252656 33.363936c-.09314 1.255-.114946 5.083536-.114946 5.083536-.01157 1.299857.328273 1.797997 1.728625 1.857893 1.250847.0535 1.849412-.345745 1.775457-1.680018-.06886-1.242448.07624-3.250796.164386-5.049267.06052-1.234728-.5518-1.567667-1.593837-1.666042-1.814433-.171294-1.954432 1.383117-1.959685 1.453898zM33.228752 33.438989c.06354 1.25628-.0049 5.084436-.0049 5.084436-.01907 1.299795-.37058 1.792291-1.772073 1.82931-1.251867.03306-1.840909-.375876-1.735525-1.708684.09811-1.241085.000385-3.251416-.04537-5.050981-.03141-1.235477.588638-1.558355 1.632794-1.639697 1.818117-.141633 1.92146 1.414763 1.925045 1.485616z"
     style="display:inline;fill:#ffe2cc;fill-opacity:1;stroke:none;stroke-width:.755906;stroke-linecap:square;stroke-linejoin:round;stroke-dasharray:none;stroke-opacity:1"
     transform="translate(-13.747375 -12.483022)"
     id="path1" />
  <path
     d="M26.056641 12.542969a.37799079.37799079 0 0 0-.458985.03906c-.382423.349548-.488091.833174-.474609 1.253907.01348.420732.124226.816818.189453 1.123046.03261.153114.05246.282622.05469.363282.0022.08066-.01616.0892.0078.05859.02397-.03061.0657-.0274-.01367-.02539-.07937.002-.249325-.02169-.496094-.09766a.37799079.37799079 0 0 0-.111328-.01563c-2.867432-.000556-5.712036 1.491981-7.240234 3.955078-1.484807 2.035987-1.644169 4.559849-2.960938 6.33789-.22056.172886-.39592.32088-.507812.462891-.06316.08016-.119265.162426-.148438.289062-.02917.126637.01252.325992.119141.435547.213233.219112.386941.174922.554688.169922.167746-.005.349454-.03161.542968-.06641.365238-.06567.763262-.162608 1.080078-.230469-.52622 1.138028-.677237 2.370218-.447265 3.494141.250354 1.223533.842393 2.266763 1.572265 2.949218-.248801 1.353979-.520467 2.793522-.787109 4.242188l.0098-.04102c-.597361 1.974874-.04258 3.968 1.140625 5.527344 1.183209 1.559344 2.995268 2.711325 4.984375 3.056641 4.088466.709771 8.188588.709219 11.716796-.107422 3.41246-.78985 6.279244-2.369392 8.056641-4.816406.508127.200491 1.013634.390338 1.412109.515625.235353.074.441678.130769.611329.169921.169651.03915.261313.07775.458984.04883a.37799079.37799079 0 0 0 .01367-.002c.26263-.04743.476718-.1219.65039-.263671.173673-.141772.281283-.371771.283204-.580079.0038-.416614-.239049-.714797-.5-1.005859-.343238-.382843-.643539-.573834-.958985-.808594.974225-.261641 2.055714-.567291 2.691406-1.09375.196641-.16285.361897-.343275.457032-.574218.09513-.230944.08756-.528411-.04687-.763672-.221023-.386799-.800164-.596487-1.478516-.814453.406102-1.359771.556174-3.104337.332031-4.935547.387333-.159776.773617-.360442 1.134737-.699152.456869-.428517.865474-.938085 1.078125-1.453125.133303-.322859.214476-.603753.216797-.878906.0023-.275154-.104105-.55447-.302735-.740235-.232927-.21784-.672115-.218871-1.035156-.283203.702046-.602072 1.198517-1.282465 1.546875-2.054687.197066-.436847.280984-.797768.101563-1.119141-.08971-.160686-.240061-.265928-.378907-.322266-.138845-.05634-.273702-.07595-.40625-.08789-.265094-.02388-.531129-.01143-.753906-.02539s-.380152-.0622-.435547-.107422c.02772.02263-.03237-.03795-.0957-.132812-.06333-.09486-.145767-.22819-.24414-.390625-.196748-.324869-.458839-.764356-.792969-1.265625-.66826-1.002537-1.627397-2.258726-2.96875-3.40625-2.661981-2.27732-6.866671-4.082976-13.113281-2.632813-1.562317-.30823-2.560693-1.81883-3.859375-2.65039Zm-.06445.935547c.977171.779054 2.039173 2.141095 3.808594 2.472656a.37799079.37799079 0 0 0 .15625-.0039c6.121633-1.463742 10.04134.281239 12.580078 2.453125 1.26937 1.085943 2.18736 2.284803 2.832032 3.251953.322335.483575.576479.907885.77539 1.236328.09946.164221.184467.304209.261719.419922.07725.115713.12973.203834.246094.298828.269899.220332.586489.259757.867187.277344.280698.01759.548056.0049.732422.02148.09218.0083.160608.0254.189453.03711-.01321-.02168.02752.08725-.126953.429688-.420344.931799-.841228 1.625875-1.810547 2.220703a.37799079.37799079 0 0 0 .171875.699219c.759177.05075 1.200395.185412 1.300781.279297.05019.04694.06349.06666.0625.183593-.000986.116939-.04675.321032-.160156.595703-.144322.349548-.497576.817132-.894531 1.189454-.396955.372321-.857683.649785-1.082031.699218a.37799079.37799079 0 0 0-.292969.421875c.27078 1.932536.08918 3.835933-.351563 5.134766a.37799079.37799079 0 0 0 .259766.486328c.888617.236898 1.279358.532332 1.337891.634766.02927.05122.02748.04434.0039.101562-.02357.05722-.101493.164396-.240234.279297-.554966.459603-1.956149.97406-3.003907 1.195313a.37799079.37799079 0 0 0-.136718.679687c.179695.125793.904235.640481 1.328125 1.113281.211944.236401.306862.470066.30664.494141-.000111.01204.01973-.01894-.0059.002-.02496.02038-.121881.06991-.298828.103516.07804-.0119-.03895-.0055-.175782-.03711-.139745-.03225-.332065-.08625-.554687-.15625-.445244-.139991-1.017207-.344827-1.607422-.585937a.37799079.37799079 0 0 0-.457031.136719c-1.619518 2.387071-4.400182 3.948771-7.802735 4.736328-3.402552.787556-7.411878.79474-11.416015.09961-1.78447-.30979-3.443864-1.362834-4.509766-2.767578-1.065901-1.404744-1.538951-3.136315-1.019531-4.853516a.37799079.37799079 0 0 0 .0098-.04102c.276412-1.501746.557684-3.004727.814453-4.404297a.37799079.37799079 0 0 0-.132804-.359421c-.624883-.508991-1.231036-1.545492-1.470703-2.716797-.239667-1.171305-.127856-2.463602.570313-3.548828a.37799079.37799079 0 0 0 .05273-.128906c.02014-.09926-.01624-.264046-.09766-.353516-.08142-.08947-.158813-.111255-.212891-.125-.108155-.02749-.167813-.01901-.236328-.01367-.137029.01067-.286044.03803-.458984.07422-.309254.06471-.679708.151383-1.00586.214844a.37799079.37799079 0 0 0 .05469-.05469c1.505421-2.019772 1.655624-4.561633 2.978515-6.369141a.37799079.37799079 0 0 0 .01563-.02539C19.520586 17.381809 22.142157 16.001686 24.748047 16c.235096.066.447305.116033.632812.111328.216474-.0055.449419-.08687.587891-.263672.138472-.176798.158984-.374883.154297-.544922-.0047-.170038-.0365-.334034-.07227-.501953-.07153-.335836-.162338-.690673-.171875-.988281-.0047-.147897.07915-.22493.113281-.333984zm-9.572265 12.501953c-.02725.04235-.02311.09195-.04883.134765.000279-.0016-.0023-.0043-.002-.0059z"
     style="display:inline;fill:#ffe2cc;stroke-linecap:round;stroke-linejoin:round"
     transform="translate(-13.747375 -12.483022)"
     id="path2" />
  <path
     d="M18.089646 32.746955c-.700873-1.998806.145567-5.681313 1.446883-6.305844.375064 2.214787 1.57525 3.972027 3.526893 5.259394 1.193945.787565 3.159367 1.169814 2.392723-1.408434 2.627622 2.980358 3.96304.604068 5.758844-.362393 1.900056-1.468508 3.229702-1.235452 2.492491 1.135734 1.059357-.59789 2.762085-1.059354 1.598772.809404-.780218 1.771185 2.922733-.542318 3.415639-1.571437 1.312059-1.986631 1.404396 3.590333.632698 4.783566-.269247 1.084025-2.845123 2.294955-.215511 2.166838 1.361963-.167607 3.669425-2.450256 2.551977.187414-.173281 1.05694-.0045 2.265006.834491 3.011157"
     style="display:inline;fill:none;fill-opacity:1;stroke:#ffe2cc;stroke-width:.755906;stroke-linecap:round;stroke-linejoin:round;stroke-dasharray:none;stroke-opacity:1"
     transform="translate(-13.747375 -12.483022)"
     id="path3" />
</svg>
