<svg xmlns="http://www.w3.org/2000/svg" width="25.823984mm" height="97.8430337" viewBox="0 0 25.823984 25.887636"><g style="stroke-width:.0819651" transform="translate(-1110.699852 -728.81565)scale(3.227998)"><ellipse cx="348.08319" cy="229.92418" rx="4" ry="3.875" style="display:inline;fill:#ff0505;fill-opacity:1;stroke:none;stroke-width:.0327861;stroke-linecap:round;stroke-linejoin:round;stroke-dasharray:none;stroke-opacity:1"/><circle cx="347.28888" cy="230.59415" r="2.5743105" style="fill:#a000ff;fill-opacity:1;stroke-width:.125775;stroke-linecap:round;stroke-linejoin:round"/><path d="M352.03997 227.66256c-2.1231-.72735-1.96255 1.31927-.49151 1.26065-1.17588-1.96903-2.33936-.16284-1.421.63014.97807-1.9542-1.81809-1.79477-1.27363-.47126.99493-.26227 1.06831-2.32632-.72342-1.481 1.6148.96118 1.88578-1.14787.55911-1.16687-.4175 1.00092 2.21605 1.04542 1.4072-.65476-1.03371.5228.46624 2.41751 1.37144.66558-1.56826-.41253-1.25977 2.44449.57181 1.21752" style="fill:#00b22d;stroke-width:.0327861;stroke-linecap:round;stroke-linejoin:round"/><path d="M348.05349 232.45304c-.0439.24572.19479.31952.27399.30708.23355.0331.23985-.2033.34508-.3079.0215-.0855.00095-.20222-.0914-.23802-.24098-.10231-.61833-.0453-.52767.23884M349.244 229.50245c-.0575.0735-.0176.20086.082.20616.11161.0181.16595-.12567.0993-.20392-.0794-.16003-.17012-.002-.1813-.002z" style="fill:#00dbff;fill-opacity:1;stroke-width:.125775;stroke-linecap:round;stroke-linejoin:round"/><path d="M347.28906 228.01953a2.5743105 2.5743105 0 0 0-2.49218 1.94727c.14096.15776.34035.2824.5039.33593.5877.17339.89179-.38255 1.17578-.76757.35101-.34747 1.00878-.34575 1.23828.13867.22079.38257.0703.95895-.31054 1.17969-.39406.097-.90607-.0752-1.20899.2871-.34624.33898-.43723.94526-.0645 1.30079.34883.36024.92408.11401 1.22461-.1875.34726-.3237.24051-.99942.77148-1.13868.49417.17408.96687-.13417.92774-.67187.13507-.58435-.42145-.93558-.82617-1.22656-.45524-.28432-.20412-.80034.19726-.92774a2.5743105 2.5743105 0 0 0-1.13672-.26953z" style="fill:#e54bff;fill-opacity:1;stroke-width:.125775;stroke-linecap:round;stroke-linejoin:round"/><path d="M345.50389 229.7843c-.0875.31402.36392.52786.49036.27673.10288-.25424.0842-.13839.19454-.3257.25536-.21788-.34516-.56326-.43139-.31935-.16025.35644-.19277.0707-.25351.36832" style="fill:#00dbff;fill-opacity:1;stroke-width:.125775;stroke-linecap:round;stroke-linejoin:round"/><ellipse cx="347.44354" cy="228.35683" rx=".17572446" ry=".16773696" style="fill:#fef3ff;fill-opacity:1;stroke-width:.125775;stroke-linecap:round;stroke-linejoin:round"/><ellipse cx="346.54178" cy="231.50456" rx=".49486607" ry=".48111981" style="fill:#fd92ff;fill-opacity:1;stroke-width:.125775;stroke-linecap:round;stroke-linejoin:round"/><circle cx="346.44141" cy="231.20312" r=".15625" style="fill:#fef3ff;fill-opacity:1;stroke-width:.125775;stroke-linecap:round;stroke-linejoin:round"/></g></svg>